<?xml version="1.0" encoding="UTF-8" standalone="no"?><svg xmlns="http://www.w3.org/2000/svg" xmlns:xlink="http://www.w3.org/1999/xlink" contentStyleType="text/css" height="883px" preserveAspectRatio="none" style="width:977px;height:883px;background:#FFFFFF;" version="1.1" viewBox="0 0 977 883" width="977px" zoomAndPan="magnify"><defs/><g><rect fill="#FFFFFF" height="715.9375" style="stroke:#181818;stroke-width:1.0;" width="10" x="36.5" y="78.6094"/><rect fill="#FFFFFF" height="677.5859" style="stroke:#181818;stroke-width:1.0;" width="10" x="239.5" y="100.9609"/><rect fill="#FFFFFF" height="616.8828" style="stroke:#181818;stroke-width:1.0;" width="10" x="352.5" y="131.3125"/><rect fill="#FFFFFF" height="468.125" style="stroke:#181818;stroke-width:1.0;" width="10" x="467" y="161.6641"/><rect fill="#FFFFFF" height="304.4609" style="stroke:#181818;stroke-width:1.0;" width="10" x="645" y="234.625"/><rect fill="#FFFFFF" height="30" style="stroke:#181818;stroke-width:1.0;" width="10" x="765" y="264.9766"/><rect fill="#FFFFFF" height="55.7031" style="stroke:#181818;stroke-width:1.0;" width="10" x="765" y="325.3281"/><rect fill="#FFFFFF" height="30" style="stroke:#181818;stroke-width:1.0;" width="10" x="765" y="478.7344"/><rect fill="#FFFFFF" height="30" style="stroke:#181818;stroke-width:1.0;" width="10" x="853.5" y="569.4375"/><rect fill="#FFFFFF" height="30" style="stroke:#181818;stroke-width:1.0;" width="10" x="937" y="418.3828"/><rect fill="none" height="48.7031" style="stroke:#000000;stroke-width:1.5;" width="220.5" x="598" y="340.3281"/><rect fill="none" height="141.7578" style="stroke:#000000;stroke-width:1.5;" width="413.5" x="10" y="644.7891"/><line style="stroke:#181818;stroke-width:0.5;stroke-dasharray:5.0,5.0;" x1="41" x2="41" y1="68.6094" y2="803.5469"/><line style="stroke:#181818;stroke-width:0.5;stroke-dasharray:5.0,5.0;" x1="244.5" x2="244.5" y1="68.6094" y2="803.5469"/><line style="stroke:#181818;stroke-width:0.5;stroke-dasharray:5.0,5.0;" x1="357.5" x2="357.5" y1="68.6094" y2="803.5469"/><line style="stroke:#181818;stroke-width:0.5;stroke-dasharray:5.0,5.0;" x1="471.5" x2="471.5" y1="68.6094" y2="803.5469"/><line style="stroke:#181818;stroke-width:0.5;stroke-dasharray:5.0,5.0;" x1="573" x2="573" y1="200.9688" y2="803.5469"/><line style="stroke:#181818;stroke-width:0.5;stroke-dasharray:5.0,5.0;" x1="650" x2="650" y1="68.6094" y2="803.5469"/><line style="stroke:#181818;stroke-width:0.5;stroke-dasharray:5.0,5.0;" x1="769.5" x2="769.5" y1="68.6094" y2="803.5469"/><line style="stroke:#181818;stroke-width:0.5;stroke-dasharray:5.0,5.0;" x1="858.5" x2="858.5" y1="68.6094" y2="803.5469"/><line style="stroke:#181818;stroke-width:0.5;stroke-dasharray:5.0,5.0;" x1="941.5" x2="941.5" y1="68.6094" y2="803.5469"/><rect fill="#E2E2F0" height="31.6094" rx="2.5" ry="2.5" style="stroke:#181818;stroke-width:0.5;" width="43" x="20" y="36"/><text fill="#000000" font-family="sans-serif" font-size="14" lengthAdjust="spacing" textLength="29" x="27" y="57.5332">MDL</text><rect fill="#E2E2F0" height="31.6094" rx="2.5" ry="2.5" style="stroke:#181818;stroke-width:0.5;" width="43" x="20" y="802.5469"/><text fill="#000000" font-family="sans-serif" font-size="14" lengthAdjust="spacing" textLength="29" x="27" y="824.0801">MDL</text><rect fill="#E2E2F0" height="31.6094" rx="2.5" ry="2.5" style="stroke:#181818;stroke-width:0.5;" width="88" x="200.5" y="36"/><text fill="#000000" font-family="sans-serif" font-size="14" lengthAdjust="spacing" textLength="74" x="207.5" y="57.5332">TruckRoute</text><rect fill="#E2E2F0" height="31.6094" rx="2.5" ry="2.5" style="stroke:#181818;stroke-width:0.5;" width="88" x="200.5" y="802.5469"/><text fill="#000000" font-family="sans-serif" font-size="14" lengthAdjust="spacing" textLength="74" x="207.5" y="824.0801">TruckRoute</text><rect fill="#E2E2F0" height="31.6094" rx="2.5" ry="2.5" style="stroke:#181818;stroke-width:0.5;" width="112" x="301.5" y="36"/><text fill="#000000" font-family="sans-serif" font-size="14" lengthAdjust="spacing" textLength="98" x="308.5" y="57.5332">TruckController</text><rect fill="#E2E2F0" height="31.6094" rx="2.5" ry="2.5" style="stroke:#181818;stroke-width:0.5;" width="112" x="301.5" y="802.5469"/><text fill="#000000" font-family="sans-serif" font-size="14" lengthAdjust="spacing" textLength="98" x="308.5" y="824.0801">TruckController</text><rect fill="#E2E2F0" height="31.6094" rx="2.5" ry="2.5" style="stroke:#181818;stroke-width:0.5;" width="97" x="423.5" y="36"/><text fill="#000000" font-family="sans-serif" font-size="14" lengthAdjust="spacing" textLength="83" x="430.5" y="57.5332">TruckService</text><rect fill="#E2E2F0" height="31.6094" rx="2.5" ry="2.5" style="stroke:#181818;stroke-width:0.5;" width="97" x="423.5" y="802.5469"/><text fill="#000000" font-family="sans-serif" font-size="14" lengthAdjust="spacing" textLength="83" x="430.5" y="824.0801">TruckService</text><rect fill="#E2E2F0" height="31.6094" rx="2.5" ry="2.5" style="stroke:#181818;stroke-width:0.5;" width="50" x="548" y="802.5469"/><text fill="#000000" font-family="sans-serif" font-size="14" lengthAdjust="spacing" textLength="36" x="555" y="824.0801">Truck</text><rect fill="#E2E2F0" height="31.6094" rx="2.5" ry="2.5" style="stroke:#181818;stroke-width:0.5;" width="84" x="608" y="36"/><text fill="#000000" font-family="sans-serif" font-size="14" lengthAdjust="spacing" textLength="70" x="615" y="57.5332">TruckRepo</text><rect fill="#E2E2F0" height="31.6094" rx="2.5" ry="2.5" style="stroke:#181818;stroke-width:0.5;" width="84" x="608" y="802.5469"/><text fill="#000000" font-family="sans-serif" font-size="14" lengthAdjust="spacing" textLength="70" x="615" y="824.0801">TruckRepo</text><rect fill="#E2E2F0" height="31.6094" rx="2.5" ry="2.5" style="stroke:#181818;stroke-width:0.5;" width="77" x="731.5" y="36"/><text fill="#000000" font-family="sans-serif" font-size="14" lengthAdjust="spacing" textLength="63" x="738.5" y="57.5332">TruckMap</text><rect fill="#E2E2F0" height="31.6094" rx="2.5" ry="2.5" style="stroke:#181818;stroke-width:0.5;" width="77" x="731.5" y="802.5469"/><text fill="#000000" font-family="sans-serif" font-size="14" lengthAdjust="spacing" textLength="63" x="738.5" y="824.0801">TruckMap</text><rect fill="#E2E2F0" height="31.6094" rx="2.5" ry="2.5" style="stroke:#181818;stroke-width:0.5;" width="80" x="818.5" y="36"/><text fill="#000000" font-family="sans-serif" font-size="14" lengthAdjust="spacing" textLength="66" x="825.5" y="57.5332">TruckDTO</text><rect fill="#E2E2F0" height="31.6094" rx="2.5" ry="2.5" style="stroke:#181818;stroke-width:0.5;" width="80" x="818.5" y="802.5469"/><text fill="#000000" font-family="sans-serif" font-size="14" lengthAdjust="spacing" textLength="66" x="825.5" y="824.0801">TruckDTO</text><text fill="#000000" font-family="sans-serif" font-size="14" lengthAdjust="spacing" textLength="61" x="908.5" y="65.5332">Database</text><path d="M924,15 C924,5 942,5 942,5 C942,5 960,5 960,15 L960,41 C960,51 942,51 942,51 C942,51 924,51 924,41 L924,15 " fill="#E2E2F0" style="stroke:#181818;stroke-width:1.5;"/><path d="M924,15 C924,25 942,25 942,25 C942,25 960,25 960,15 " fill="none" style="stroke:#181818;stroke-width:1.5;"/><text fill="#000000" font-family="sans-serif" font-size="14" lengthAdjust="spacing" textLength="61" x="908.5" y="817.0801">Database</text><path d="M924,830.1563 C924,820.1563 942,820.1563 942,820.1563 C942,820.1563 960,820.1563 960,830.1563 L960,856.1563 C960,866.1563 942,866.1563 942,866.1563 C942,866.1563 924,866.1563 924,856.1563 L924,830.1563 " fill="#E2E2F0" style="stroke:#181818;stroke-width:1.5;"/><path d="M924,830.1563 C924,840.1563 942,840.1563 942,840.1563 C942,840.1563 960,840.1563 960,830.1563 " fill="none" style="stroke:#181818;stroke-width:1.5;"/><rect fill="#FFFFFF" height="715.9375" style="stroke:#181818;stroke-width:1.0;" width="10" x="36.5" y="78.6094"/><rect fill="#FFFFFF" height="677.5859" style="stroke:#181818;stroke-width:1.0;" width="10" x="239.5" y="100.9609"/><rect fill="#FFFFFF" height="616.8828" style="stroke:#181818;stroke-width:1.0;" width="10" x="352.5" y="131.3125"/><rect fill="#FFFFFF" height="468.125" style="stroke:#181818;stroke-width:1.0;" width="10" x="467" y="161.6641"/><rect fill="#FFFFFF" height="304.4609" style="stroke:#181818;stroke-width:1.0;" width="10" x="645" y="234.625"/><rect fill="#FFFFFF" height="30" style="stroke:#181818;stroke-width:1.0;" width="10" x="765" y="264.9766"/><rect fill="#FFFFFF" height="55.7031" style="stroke:#181818;stroke-width:1.0;" width="10" x="765" y="325.3281"/><rect fill="#FFFFFF" height="30" style="stroke:#181818;stroke-width:1.0;" width="10" x="765" y="478.7344"/><rect fill="#FFFFFF" height="30" style="stroke:#181818;stroke-width:1.0;" width="10" x="853.5" y="569.4375"/><rect fill="#FFFFFF" height="30" style="stroke:#181818;stroke-width:1.0;" width="10" x="937" y="418.3828"/><polygon fill="#181818" points="227.5,96.9609,237.5,100.9609,227.5,104.9609,231.5,100.9609" style="stroke:#181818;stroke-width:1.0;"/><line style="stroke:#181818;stroke-width:1.0;" x1="46.5" x2="233.5" y1="100.9609" y2="100.9609"/><text fill="#000000" font-family="sans-serif" font-size="13" font-weight="bold" lengthAdjust="spacing" textLength="7" x="53.5" y="96.1045">1</text><text fill="#000000" font-family="sans-serif" font-size="13" lengthAdjust="spacing" textLength="76" x="64.5" y="96.1045">post(/Trucks)</text><polygon fill="#181818" points="340.5,127.3125,350.5,131.3125,340.5,135.3125,344.5,131.3125" style="stroke:#181818;stroke-width:1.0;"/><line style="stroke:#181818;stroke-width:1.0;" x1="249.5" x2="346.5" y1="131.3125" y2="131.3125"/><text fill="#000000" font-family="sans-serif" font-size="13" font-weight="bold" lengthAdjust="spacing" textLength="7" x="256.5" y="126.4561">2</text><text fill="#000000" font-family="sans-serif" font-size="13" lengthAdjust="spacing" textLength="68" x="267.5" y="126.4561">createTruck</text><polygon fill="#181818" points="455,157.6641,465,161.6641,455,165.6641,459,161.6641" style="stroke:#181818;stroke-width:1.0;"/><line style="stroke:#181818;stroke-width:1.0;" x1="362.5" x2="461" y1="161.6641" y2="161.6641"/><text fill="#000000" font-family="sans-serif" font-size="13" font-weight="bold" lengthAdjust="spacing" textLength="7" x="369.5" y="156.8076">3</text><text fill="#000000" font-family="sans-serif" font-size="13" lengthAdjust="spacing" textLength="68" x="380.5" y="156.8076">createTruck</text><polygon fill="#181818" points="536,188.0156,546,192.0156,536,196.0156,540,192.0156" style="stroke:#181818;stroke-width:1.0;"/><line style="stroke:#181818;stroke-width:1.0;" x1="477" x2="542" y1="192.0156" y2="192.0156"/><text fill="#000000" font-family="sans-serif" font-size="13" font-weight="bold" lengthAdjust="spacing" textLength="7" x="484" y="187.1592">4</text><text fill="#000000" font-family="sans-serif" font-size="13" lengthAdjust="spacing" textLength="36" x="495" y="187.1592">create</text><rect fill="#E2E2F0" height="31.6094" rx="2.5" ry="2.5" style="stroke:#181818;stroke-width:0.5;" width="50" x="548" y="169.6641"/><text fill="#000000" font-family="sans-serif" font-size="14" lengthAdjust="spacing" textLength="36" x="555" y="191.1973">Truck</text><polygon fill="#181818" points="633,230.625,643,234.625,633,238.625,637,234.625" style="stroke:#181818;stroke-width:1.0;"/><line style="stroke:#181818;stroke-width:1.0;" x1="477" x2="639" y1="234.625" y2="234.625"/><text fill="#000000" font-family="sans-serif" font-size="13" font-weight="bold" lengthAdjust="spacing" textLength="7" x="484" y="229.7686">5</text><text fill="#000000" font-family="sans-serif" font-size="13" lengthAdjust="spacing" textLength="26" x="495" y="229.7686">save</text><polygon fill="#181818" points="753,260.9766,763,264.9766,753,268.9766,757,264.9766" style="stroke:#181818;stroke-width:1.0;"/><line style="stroke:#181818;stroke-width:1.0;" x1="655" x2="759" y1="264.9766" y2="264.9766"/><text fill="#000000" font-family="sans-serif" font-size="13" font-weight="bold" lengthAdjust="spacing" textLength="7" x="662" y="260.1201">6</text><text fill="#000000" font-family="sans-serif" font-size="13" lengthAdjust="spacing" textLength="80" x="673" y="260.1201">toPersistence</text><polygon fill="#181818" points="753,321.3281,763,325.3281,753,329.3281,757,325.3281" style="stroke:#181818;stroke-width:1.0;"/><line style="stroke:#181818;stroke-width:1.0;" x1="655" x2="759" y1="325.3281" y2="325.3281"/><text fill="#000000" font-family="sans-serif" font-size="13" font-weight="bold" lengthAdjust="spacing" textLength="7" x="662" y="320.4717">7</text><text fill="#000000" font-family="sans-serif" font-size="13" lengthAdjust="spacing" textLength="39" x="673" y="320.4717">isValid</text><path d="M598,340.3281 L659,340.3281 L659,348.6797 L649,358.6797 L598,358.6797 L598,340.3281 " fill="#EEEEEE" style="stroke:#000000;stroke-width:1.5;"/><rect fill="none" height="48.7031" style="stroke:#000000;stroke-width:1.5;" width="220.5" x="598" y="340.3281"/><text fill="#000000" font-family="sans-serif" font-size="13" font-weight="bold" lengthAdjust="spacing" textLength="16" x="613" y="354.8232">alt</text><text fill="#000000" font-family="sans-serif" font-size="11" font-weight="bold" lengthAdjust="spacing" textLength="48" x="674" y="353.7471">[!isValid]</text><polygon fill="#181818" points="666,377.0313,656,381.0313,666,385.0313,662,381.0313" style="stroke:#181818;stroke-width:1.0;"/><line style="stroke:#181818;stroke-width:1.0;stroke-dasharray:2.0,2.0;" x1="660" x2="769" y1="381.0313" y2="381.0313"/><text fill="#000000" font-family="sans-serif" font-size="13" font-weight="bold" lengthAdjust="spacing" textLength="7" x="672" y="376.1748">8</text><text fill="#000000" font-family="sans-serif" font-size="13" lengthAdjust="spacing" textLength="20" x="683" y="376.1748">null</text><polygon fill="#181818" points="925,414.3828,935,418.3828,925,422.3828,929,418.3828" style="stroke:#181818;stroke-width:1.0;"/><line style="stroke:#181818;stroke-width:1.0;" x1="655" x2="931" y1="418.3828" y2="418.3828"/><text fill="#000000" font-family="sans-serif" font-size="13" font-weight="bold" lengthAdjust="spacing" textLength="7" x="662" y="413.5264">9</text><text fill="#000000" font-family="sans-serif" font-size="13" lengthAdjust="spacing" textLength="36" x="673" y="413.5264">create</text><polygon fill="#181818" points="753,474.7344,763,478.7344,753,482.7344,757,478.7344" style="stroke:#181818;stroke-width:1.0;"/><line style="stroke:#181818;stroke-width:1.0;" x1="655" x2="759" y1="478.7344" y2="478.7344"/><text fill="#000000" font-family="sans-serif" font-size="13" font-weight="bold" lengthAdjust="spacing" textLength="14" x="662" y="473.8779">10</text><text fill="#000000" font-family="sans-serif" font-size="13" lengthAdjust="spacing" textLength="55" x="680" y="473.8779">toDomain</text><polygon fill="#181818" points="488,535.0859,478,539.0859,488,543.0859,484,539.0859" style="stroke:#181818;stroke-width:1.0;"/><line style="stroke:#181818;stroke-width:1.0;stroke-dasharray:2.0,2.0;" x1="482" x2="649" y1="539.0859" y2="539.0859"/><text fill="#000000" font-family="sans-serif" font-size="13" font-weight="bold" lengthAdjust="spacing" textLength="14" x="494" y="534.2295">11</text><text fill="#000000" font-family="sans-serif" font-size="13" lengthAdjust="spacing" textLength="4" x="512" y="534.2295"> </text><polygon fill="#181818" points="841.5,565.4375,851.5,569.4375,841.5,573.4375,845.5,569.4375" style="stroke:#181818;stroke-width:1.0;"/><line style="stroke:#181818;stroke-width:1.0;" x1="477" x2="847.5" y1="569.4375" y2="569.4375"/><text fill="#000000" font-family="sans-serif" font-size="13" font-weight="bold" lengthAdjust="spacing" textLength="14" x="484" y="564.5811">12</text><text fill="#000000" font-family="sans-serif" font-size="13" lengthAdjust="spacing" textLength="37" x="502" y="564.5811">toDTO</text><polygon fill="#181818" points="373.5,625.7891,363.5,629.7891,373.5,633.7891,369.5,629.7891" style="stroke:#181818;stroke-width:1.0;"/><line style="stroke:#181818;stroke-width:1.0;stroke-dasharray:2.0,2.0;" x1="367.5" x2="471" y1="629.7891" y2="629.7891"/><text fill="#000000" font-family="sans-serif" font-size="13" font-weight="bold" lengthAdjust="spacing" textLength="14" x="379.5" y="624.9326">13</text><text fill="#000000" font-family="sans-serif" font-size="13" lengthAdjust="spacing" textLength="4" x="397.5" y="624.9326"> </text><path d="M10,644.7891 L71,644.7891 L71,653.1406 L61,663.1406 L10,663.1406 L10,644.7891 " fill="#EEEEEE" style="stroke:#000000;stroke-width:1.5;"/><rect fill="none" height="141.7578" style="stroke:#000000;stroke-width:1.5;" width="413.5" x="10" y="644.7891"/><text fill="#000000" font-family="sans-serif" font-size="13" font-weight="bold" lengthAdjust="spacing" textLength="16" x="25" y="659.2842">alt</text><text fill="#000000" font-family="sans-serif" font-size="11" font-weight="bold" lengthAdjust="spacing" textLength="55" x="86" y="658.208">[success]</text><polygon fill="#181818" points="260.5,681.4922,250.5,685.4922,260.5,689.4922,256.5,685.4922" style="stroke:#181818;stroke-width:1.0;"/><line style="stroke:#181818;stroke-width:1.0;stroke-dasharray:2.0,2.0;" x1="254.5" x2="351.5" y1="685.4922" y2="685.4922"/><text fill="#000000" font-family="sans-serif" font-size="13" font-weight="bold" lengthAdjust="spacing" textLength="14" x="266.5" y="680.6357">14</text><text fill="#000000" font-family="sans-serif" font-size="13" lengthAdjust="spacing" textLength="61" x="284.5" y="680.6357">status 201</text><polygon fill="#181818" points="57.5,711.8438,47.5,715.8438,57.5,719.8438,53.5,715.8438" style="stroke:#181818;stroke-width:1.0;"/><line style="stroke:#181818;stroke-width:1.0;stroke-dasharray:2.0,2.0;" x1="51.5" x2="238.5" y1="715.8438" y2="715.8438"/><text fill="#000000" font-family="sans-serif" font-size="13" font-weight="bold" lengthAdjust="spacing" textLength="14" x="63.5" y="710.9873">15</text><text fill="#000000" font-family="sans-serif" font-size="13" lengthAdjust="spacing" textLength="151" x="81.5" y="710.9873">display success message</text><line style="stroke:#000000;stroke-width:1.0;stroke-dasharray:2.0,2.0;" x1="10" x2="423.5" y1="724.8438" y2="724.8438"/><polygon fill="#181818" points="260.5,744.1953,250.5,748.1953,260.5,752.1953,256.5,748.1953" style="stroke:#181818;stroke-width:1.0;"/><line style="stroke:#181818;stroke-width:1.0;stroke-dasharray:2.0,2.0;" x1="254.5" x2="356.5" y1="748.1953" y2="748.1953"/><text fill="#000000" font-family="sans-serif" font-size="13" font-weight="bold" lengthAdjust="spacing" textLength="14" x="266.5" y="743.3389">16</text><text fill="#000000" font-family="sans-serif" font-size="13" lengthAdjust="spacing" textLength="61" x="284.5" y="743.3389">status 400</text><polygon fill="#181818" points="57.5,774.5469,47.5,778.5469,57.5,782.5469,53.5,778.5469" style="stroke:#181818;stroke-width:1.0;"/><line style="stroke:#181818;stroke-width:1.0;stroke-dasharray:2.0,2.0;" x1="51.5" x2="243.5" y1="778.5469" y2="778.5469"/><text fill="#000000" font-family="sans-serif" font-size="13" font-weight="bold" lengthAdjust="spacing" textLength="14" x="63.5" y="773.6904">17</text><text fill="#000000" font-family="sans-serif" font-size="13" lengthAdjust="spacing" textLength="136" x="81.5" y="773.6904">display failure message</text><!--MD5=[e0b2ea9049399405e894e19a174bfac4]
@startuml

autonumber
participant "MDL" as MDL
participant "TruckRoute" as ROUTE
participant "TruckController" as CTR
participant "TruckService" as SERVICE
participant "Truck" as Path
participant "TruckRepo" as REPO
participant "TruckMap" as MAP
participant "TruckDTO" as DTO
database "Database" as DB

activate MDL
MDL -> ROUTE: post(/Trucks)
activate ROUTE
ROUTE -> CTR : createTruck
activate CTR
CTR -> SERVICE : createTruck
activate SERVICE
SERVICE -> Path** : create
SERVICE -> REPO : save
activate REPO
REPO -> MAP : toPersistence
activate MAP
deactivate MAP
REPO -> MAP : isValid
activate MAP
alt !isValid
MAP - -> REPO: null
deactivate MAP
end
REPO -> DB : create
activate DB
deactivate DB
REPO -> MAP : toDomain
activate MAP
deactivate MAP
REPO - -> SERVICE
deactivate REPO
SERVICE -> DTO : toDTO
activate DTO
deactivate DTO
SERVICE - -> CTR
deactivate SERVICE
alt success
CTR - -> ROUTE : status 201
ROUTE - -> MDL : display success message
else
CTR - -> ROUTE : status 400
deactivate CTR
ROUTE - -> MDL : display failure message
deactivate
end

@enduml

PlantUML version 1.2022.7(Mon Aug 22 18:01:30 WEST 2022)
(GPL source distribution)
Java Runtime: Java(TM) SE Runtime Environment
JVM: Java HotSpot(TM) 64-Bit Server VM
Default Encoding: Cp1252
Language: pt
Country: PT
--></g></svg>