<?xml version="1.0" encoding="UTF-8" standalone="no"?><svg xmlns="http://www.w3.org/2000/svg" xmlns:xlink="http://www.w3.org/1999/xlink" contentStyleType="text/css" height="711px" preserveAspectRatio="none" style="width:1462px;height:711px;background:#FFFFFF;" version="1.1" viewBox="0 0 1462 711" width="1462px" zoomAndPan="magnify"><defs/><g><rect fill="#FFFFFF" height="544.625" style="stroke:#181818;stroke-width:1.0;" width="10" x="277.5" y="78.6094"/><rect fill="#FFFFFF" height="485.7461" style="stroke:#181818;stroke-width:1.0;" width="10" x="406.5" y="128.4883"/><rect fill="#FFFFFF" height="397.5156" style="stroke:#181818;stroke-width:1.0;" width="10" x="519.5" y="186.3672"/><rect fill="#FFFFFF" height="336.8125" style="stroke:#181818;stroke-width:1.0;" width="10" x="634" y="216.7188"/><rect fill="#FFFFFF" height="191.4063" style="stroke:#181818;stroke-width:1.0;" width="10" x="798" y="247.0703"/><rect fill="#FFFFFF" height="60.3516" style="stroke:#181818;stroke-width:1.0;" width="10" x="944" y="277.4219"/><rect fill="#FFFFFF" height="30" style="stroke:#181818;stroke-width:1.0;" width="10" x="1043" y="393.4766"/><rect fill="#FFFFFF" height="30" style="stroke:#181818;stroke-width:1.0;" width="10" x="1043" y="486.1797"/><rect fill="#FFFFFF" height="30" style="stroke:#181818;stroke-width:1.0;" width="10" x="1215" y="307.7734"/><rect fill="none" height="78.7031" style="stroke:#000000;stroke-width:1.5;" width="345.5" x="751" y="352.7734"/><rect fill="none" height="78.7031" style="stroke:#000000;stroke-width:1.5;" width="516" x="580.5" y="445.4766"/><line style="stroke:#181818;stroke-width:0.5;stroke-dasharray:5.0,5.0;" x1="282" x2="282" y1="68.6094" y2="632.2344"/><line style="stroke:#181818;stroke-width:0.5;stroke-dasharray:5.0,5.0;" x1="411.5" x2="411.5" y1="68.6094" y2="632.2344"/><line style="stroke:#181818;stroke-width:0.5;stroke-dasharray:5.0,5.0;" x1="524.5" x2="524.5" y1="68.6094" y2="632.2344"/><line style="stroke:#181818;stroke-width:0.5;stroke-dasharray:5.0,5.0;" x1="638.5" x2="638.5" y1="68.6094" y2="632.2344"/><line style="stroke:#181818;stroke-width:0.5;stroke-dasharray:5.0,5.0;" x1="803" x2="803" y1="68.6094" y2="632.2344"/><line style="stroke:#181818;stroke-width:0.5;stroke-dasharray:5.0,5.0;" x1="948.5" x2="948.5" y1="68.6094" y2="632.2344"/><line style="stroke:#181818;stroke-width:0.5;stroke-dasharray:5.0,5.0;" x1="1047.5" x2="1047.5" y1="68.6094" y2="632.2344"/><line style="stroke:#181818;stroke-width:0.5;stroke-dasharray:5.0,5.0;" x1="1136.5" x2="1136.5" y1="68.6094" y2="632.2344"/><line style="stroke:#181818;stroke-width:0.5;stroke-dasharray:5.0,5.0;" x1="1219.5" x2="1219.5" y1="68.6094" y2="632.2344"/><line style="stroke:#181818;stroke-width:0.5;stroke-dasharray:5.0,5.0;" x1="1308.5" x2="1308.5" y1="68.6094" y2="632.2344"/><line style="stroke:#181818;stroke-width:0.5;stroke-dasharray:5.0,5.0;" x1="1410.5" x2="1410.5" y1="68.6094" y2="632.2344"/><rect fill="#E2E2F0" height="31.6094" rx="2.5" ry="2.5" style="stroke:#181818;stroke-width:0.5;" width="43" x="261" y="36"/><text fill="#000000" font-family="sans-serif" font-size="14" lengthAdjust="spacing" textLength="29" x="268" y="57.5332">MDL</text><rect fill="#E2E2F0" height="31.6094" rx="2.5" ry="2.5" style="stroke:#181818;stroke-width:0.5;" width="43" x="261" y="631.2344"/><text fill="#000000" font-family="sans-serif" font-size="14" lengthAdjust="spacing" textLength="29" x="268" y="652.7676">MDL</text><rect fill="#E2E2F0" height="31.6094" rx="2.5" ry="2.5" style="stroke:#181818;stroke-width:0.5;" width="88" x="367.5" y="36"/><text fill="#000000" font-family="sans-serif" font-size="14" lengthAdjust="spacing" textLength="74" x="374.5" y="57.5332">TruckRoute</text><rect fill="#E2E2F0" height="31.6094" rx="2.5" ry="2.5" style="stroke:#181818;stroke-width:0.5;" width="88" x="367.5" y="631.2344"/><text fill="#000000" font-family="sans-serif" font-size="14" lengthAdjust="spacing" textLength="74" x="374.5" y="652.7676">TruckRoute</text><rect fill="#E2E2F0" height="31.6094" rx="2.5" ry="2.5" style="stroke:#181818;stroke-width:0.5;" width="112" x="468.5" y="36"/><text fill="#000000" font-family="sans-serif" font-size="14" lengthAdjust="spacing" textLength="98" x="475.5" y="57.5332">TruckController</text><rect fill="#E2E2F0" height="31.6094" rx="2.5" ry="2.5" style="stroke:#181818;stroke-width:0.5;" width="112" x="468.5" y="631.2344"/><text fill="#000000" font-family="sans-serif" font-size="14" lengthAdjust="spacing" textLength="98" x="475.5" y="652.7676">TruckController</text><rect fill="#E2E2F0" height="31.6094" rx="2.5" ry="2.5" style="stroke:#181818;stroke-width:0.5;" width="97" x="590.5" y="36"/><text fill="#000000" font-family="sans-serif" font-size="14" lengthAdjust="spacing" textLength="83" x="597.5" y="57.5332">TruckService</text><rect fill="#E2E2F0" height="31.6094" rx="2.5" ry="2.5" style="stroke:#181818;stroke-width:0.5;" width="97" x="590.5" y="631.2344"/><text fill="#000000" font-family="sans-serif" font-size="14" lengthAdjust="spacing" textLength="83" x="597.5" y="652.7676">TruckService</text><rect fill="#E2E2F0" height="31.6094" rx="2.5" ry="2.5" style="stroke:#181818;stroke-width:0.5;" width="84" x="761" y="36"/><text fill="#000000" font-family="sans-serif" font-size="14" lengthAdjust="spacing" textLength="70" x="768" y="57.5332">TruckRepo</text><rect fill="#E2E2F0" height="31.6094" rx="2.5" ry="2.5" style="stroke:#181818;stroke-width:0.5;" width="84" x="761" y="631.2344"/><text fill="#000000" font-family="sans-serif" font-size="14" lengthAdjust="spacing" textLength="70" x="768" y="652.7676">TruckRepo</text><rect fill="#E2E2F0" height="31.6094" rx="2.5" ry="2.5" style="stroke:#181818;stroke-width:0.5;" width="101" x="898.5" y="36"/><text fill="#000000" font-family="sans-serif" font-size="14" lengthAdjust="spacing" textLength="87" x="905.5" y="57.5332">TruckSchema</text><rect fill="#E2E2F0" height="31.6094" rx="2.5" ry="2.5" style="stroke:#181818;stroke-width:0.5;" width="101" x="898.5" y="631.2344"/><text fill="#000000" font-family="sans-serif" font-size="14" lengthAdjust="spacing" textLength="87" x="905.5" y="652.7676">TruckSchema</text><rect fill="#E2E2F0" height="31.6094" rx="2.5" ry="2.5" style="stroke:#181818;stroke-width:0.5;" width="77" x="1009.5" y="36"/><text fill="#000000" font-family="sans-serif" font-size="14" lengthAdjust="spacing" textLength="63" x="1016.5" y="57.5332">TruckMap</text><rect fill="#E2E2F0" height="31.6094" rx="2.5" ry="2.5" style="stroke:#181818;stroke-width:0.5;" width="77" x="1009.5" y="631.2344"/><text fill="#000000" font-family="sans-serif" font-size="14" lengthAdjust="spacing" textLength="63" x="1016.5" y="652.7676">TruckMap</text><rect fill="#E2E2F0" height="31.6094" rx="2.5" ry="2.5" style="stroke:#181818;stroke-width:0.5;" width="80" x="1096.5" y="36"/><text fill="#000000" font-family="sans-serif" font-size="14" lengthAdjust="spacing" textLength="66" x="1103.5" y="57.5332">TruckDTO</text><rect fill="#E2E2F0" height="31.6094" rx="2.5" ry="2.5" style="stroke:#181818;stroke-width:0.5;" width="80" x="1096.5" y="631.2344"/><text fill="#000000" font-family="sans-serif" font-size="14" lengthAdjust="spacing" textLength="66" x="1103.5" y="652.7676">TruckDTO</text><text fill="#000000" font-family="sans-serif" font-size="14" lengthAdjust="spacing" textLength="61" x="1186.5" y="65.5332">Database</text><path d="M1202,15 C1202,5 1220,5 1220,5 C1220,5 1238,5 1238,15 L1238,41 C1238,51 1220,51 1220,51 C1220,51 1202,51 1202,41 L1202,15 " fill="#E2E2F0" style="stroke:#181818;stroke-width:1.5;"/><path d="M1202,15 C1202,25 1220,25 1220,25 C1220,25 1238,25 1238,15 " fill="none" style="stroke:#181818;stroke-width:1.5;"/><text fill="#000000" font-family="sans-serif" font-size="14" lengthAdjust="spacing" textLength="61" x="1186.5" y="645.7676">Database</text><path d="M1202,658.8438 C1202,648.8438 1220,648.8438 1220,648.8438 C1220,648.8438 1238,648.8438 1238,658.8438 L1238,684.8438 C1238,694.8438 1220,694.8438 1220,694.8438 C1220,694.8438 1202,694.8438 1202,684.8438 L1202,658.8438 " fill="#E2E2F0" style="stroke:#181818;stroke-width:1.5;"/><path d="M1202,658.8438 C1202,668.8438 1220,668.8438 1220,668.8438 C1220,668.8438 1238,668.8438 1238,658.8438 " fill="none" style="stroke:#181818;stroke-width:1.5;"/><rect fill="#E2E2F0" height="31.6094" rx="2.5" ry="2.5" style="stroke:#181818;stroke-width:0.5;" width="91" x="1263.5" y="36"/><text fill="#000000" font-family="sans-serif" font-size="14" lengthAdjust="spacing" textLength="77" x="1270.5" y="57.5332">truckRecord</text><rect fill="#E2E2F0" height="31.6094" rx="2.5" ry="2.5" style="stroke:#181818;stroke-width:0.5;" width="91" x="1263.5" y="631.2344"/><text fill="#000000" font-family="sans-serif" font-size="14" lengthAdjust="spacing" textLength="77" x="1270.5" y="652.7676">truckRecord</text><rect fill="#E2E2F0" height="31.6094" rx="2.5" ry="2.5" style="stroke:#181818;stroke-width:0.5;" width="92" x="1364.5" y="36"/><text fill="#000000" font-family="sans-serif" font-size="14" lengthAdjust="spacing" textLength="78" x="1371.5" y="57.5332">trucksResult</text><rect fill="#E2E2F0" height="31.6094" rx="2.5" ry="2.5" style="stroke:#181818;stroke-width:0.5;" width="92" x="1364.5" y="631.2344"/><text fill="#000000" font-family="sans-serif" font-size="14" lengthAdjust="spacing" textLength="78" x="1371.5" y="652.7676">trucksResult</text><rect fill="#FFFFFF" height="544.625" style="stroke:#181818;stroke-width:1.0;" width="10" x="277.5" y="78.6094"/><rect fill="#FFFFFF" height="485.7461" style="stroke:#181818;stroke-width:1.0;" width="10" x="406.5" y="128.4883"/><rect fill="#FFFFFF" height="397.5156" style="stroke:#181818;stroke-width:1.0;" width="10" x="519.5" y="186.3672"/><rect fill="#FFFFFF" height="336.8125" style="stroke:#181818;stroke-width:1.0;" width="10" x="634" y="216.7188"/><rect fill="#FFFFFF" height="191.4063" style="stroke:#181818;stroke-width:1.0;" width="10" x="798" y="247.0703"/><rect fill="#FFFFFF" height="60.3516" style="stroke:#181818;stroke-width:1.0;" width="10" x="944" y="277.4219"/><rect fill="#FFFFFF" height="30" style="stroke:#181818;stroke-width:1.0;" width="10" x="1043" y="393.4766"/><rect fill="#FFFFFF" height="30" style="stroke:#181818;stroke-width:1.0;" width="10" x="1043" y="486.1797"/><rect fill="#FFFFFF" height="30" style="stroke:#181818;stroke-width:1.0;" width="10" x="1215" y="307.7734"/><polygon fill="#181818" points="394.5,124.4883,404.5,128.4883,394.5,132.4883,398.5,128.4883" style="stroke:#181818;stroke-width:1.0;"/><line style="stroke:#181818;stroke-width:1.0;" x1="287.5" x2="400.5" y1="128.4883" y2="128.4883"/><text fill="#000000" font-family="sans-serif" font-size="13" font-weight="bold" lengthAdjust="spacing" textLength="7" x="294.5" y="123.6318">1</text><text fill="#000000" font-family="sans-serif" font-size="13" lengthAdjust="spacing" textLength="69" x="305.5" y="123.6318">get(/Trucks)</text><path d="M5,83.6094 L5,158.6094 L273,158.6094 L273,93.6094 L263,83.6094 L5,83.6094 " fill="#FEFFDD" style="stroke:#181818;stroke-width:0.5;"/><path d="M263,83.6094 L263,93.6094 L273,93.6094 L263,83.6094 " fill="#FEFFDD" style="stroke:#181818;stroke-width:0.5;"/><text fill="#000000" font-family="sans-serif" font-size="13" lengthAdjust="spacing" textLength="222" x="11" y="102.1045">Depending on the selected filter (plate)</text><text fill="#000000" font-family="sans-serif" font-size="13" lengthAdjust="spacing" textLength="206" x="11" y="118.4561">the request and the methods will be</text><text fill="#000000" font-family="sans-serif" font-size="13" lengthAdjust="spacing" textLength="247" x="11" y="134.8076">different, changing only the method's name</text><text fill="#000000" font-family="sans-serif" font-size="13" lengthAdjust="spacing" textLength="117" x="11" y="151.1592">and implementation.</text><polygon fill="#181818" points="507.5,182.3672,517.5,186.3672,507.5,190.3672,511.5,186.3672" style="stroke:#181818;stroke-width:1.0;"/><line style="stroke:#181818;stroke-width:1.0;" x1="416.5" x2="513.5" y1="186.3672" y2="186.3672"/><text fill="#000000" font-family="sans-serif" font-size="13" font-weight="bold" lengthAdjust="spacing" textLength="7" x="423.5" y="181.5107">2</text><text fill="#000000" font-family="sans-serif" font-size="13" lengthAdjust="spacing" textLength="57" x="434.5" y="181.5107">getTrucks</text><polygon fill="#181818" points="622,212.7188,632,216.7188,622,220.7188,626,216.7188" style="stroke:#181818;stroke-width:1.0;"/><line style="stroke:#181818;stroke-width:1.0;" x1="529.5" x2="628" y1="216.7188" y2="216.7188"/><text fill="#000000" font-family="sans-serif" font-size="13" font-weight="bold" lengthAdjust="spacing" textLength="7" x="536.5" y="211.8623">3</text><text fill="#000000" font-family="sans-serif" font-size="13" lengthAdjust="spacing" textLength="57" x="547.5" y="211.8623">getTrucks</text><polygon fill="#181818" points="786,243.0703,796,247.0703,786,251.0703,790,247.0703" style="stroke:#181818;stroke-width:1.0;"/><line style="stroke:#181818;stroke-width:1.0;" x1="644" x2="792" y1="247.0703" y2="247.0703"/><text fill="#000000" font-family="sans-serif" font-size="13" font-weight="bold" lengthAdjust="spacing" textLength="7" x="651" y="242.2139">4</text><text fill="#000000" font-family="sans-serif" font-size="13" lengthAdjust="spacing" textLength="124" x="662" y="242.2139">trucksResult = findAll</text><polygon fill="#181818" points="932,273.4219,942,277.4219,932,281.4219,936,277.4219" style="stroke:#181818;stroke-width:1.0;"/><line style="stroke:#181818;stroke-width:1.0;" x1="808" x2="938" y1="277.4219" y2="277.4219"/><text fill="#000000" font-family="sans-serif" font-size="13" font-weight="bold" lengthAdjust="spacing" textLength="7" x="815" y="272.5654">5</text><text fill="#000000" font-family="sans-serif" font-size="13" lengthAdjust="spacing" textLength="106" x="826" y="272.5654">truckRecord = find</text><polygon fill="#181818" points="1203,303.7734,1213,307.7734,1203,311.7734,1207,307.7734" style="stroke:#181818;stroke-width:1.0;"/><line style="stroke:#181818;stroke-width:1.0;" x1="954" x2="1209" y1="307.7734" y2="307.7734"/><text fill="#000000" font-family="sans-serif" font-size="13" font-weight="bold" lengthAdjust="spacing" textLength="7" x="961" y="302.917">6</text><text fill="#000000" font-family="sans-serif" font-size="13" lengthAdjust="spacing" textLength="20" x="972" y="302.917">find</text><path d="M751,352.7734 L824,352.7734 L824,361.125 L814,371.125 L751,371.125 L751,352.7734 " fill="#EEEEEE" style="stroke:#000000;stroke-width:1.5;"/><rect fill="none" height="78.7031" style="stroke:#000000;stroke-width:1.5;" width="345.5" x="751" y="352.7734"/><text fill="#000000" font-family="sans-serif" font-size="13" font-weight="bold" lengthAdjust="spacing" textLength="28" x="766" y="367.2686">loop</text><text fill="#000000" font-family="sans-serif" font-size="11" font-weight="bold" lengthAdjust="spacing" textLength="131" x="839" y="366.1924">[element : truckRecord]</text><polygon fill="#181818" points="1031,389.4766,1041,393.4766,1031,397.4766,1035,393.4766" style="stroke:#181818;stroke-width:1.0;"/><line style="stroke:#181818;stroke-width:1.0;" x1="808" x2="1037" y1="393.4766" y2="393.4766"/><text fill="#000000" font-family="sans-serif" font-size="13" font-weight="bold" lengthAdjust="spacing" textLength="7" x="815" y="388.6201">7</text><text fill="#000000" font-family="sans-serif" font-size="13" lengthAdjust="spacing" textLength="55" x="826" y="388.6201">toDomain</text><path d="M580.5,445.4766 L653.5,445.4766 L653.5,453.8281 L643.5,463.8281 L580.5,463.8281 L580.5,445.4766 " fill="#EEEEEE" style="stroke:#000000;stroke-width:1.5;"/><rect fill="none" height="78.7031" style="stroke:#000000;stroke-width:1.5;" width="516" x="580.5" y="445.4766"/><text fill="#000000" font-family="sans-serif" font-size="13" font-weight="bold" lengthAdjust="spacing" textLength="28" x="595.5" y="459.9717">loop</text><text fill="#000000" font-family="sans-serif" font-size="11" font-weight="bold" lengthAdjust="spacing" textLength="109" x="668.5" y="458.8955">[linha : pathsResult]</text><polygon fill="#181818" points="1031,482.1797,1041,486.1797,1031,490.1797,1035,486.1797" style="stroke:#181818;stroke-width:1.0;"/><line style="stroke:#181818;stroke-width:1.0;" x1="644" x2="1037" y1="486.1797" y2="486.1797"/><text fill="#000000" font-family="sans-serif" font-size="13" font-weight="bold" lengthAdjust="spacing" textLength="7" x="651" y="481.3232">8</text><text fill="#000000" font-family="sans-serif" font-size="13" lengthAdjust="spacing" textLength="37" x="662" y="481.3232">toDTO</text><polygon fill="#181818" points="540.5,549.5313,530.5,553.5313,540.5,557.5313,536.5,553.5313" style="stroke:#181818;stroke-width:1.0;"/><line style="stroke:#181818;stroke-width:1.0;stroke-dasharray:2.0,2.0;" x1="534.5" x2="638" y1="553.5313" y2="553.5313"/><text fill="#000000" font-family="sans-serif" font-size="13" font-weight="bold" lengthAdjust="spacing" textLength="7" x="546.5" y="548.6748">9</text><text fill="#000000" font-family="sans-serif" font-size="13" lengthAdjust="spacing" textLength="4" x="557.5" y="548.6748"> </text><polygon fill="#181818" points="427.5,579.8828,417.5,583.8828,427.5,587.8828,423.5,583.8828" style="stroke:#181818;stroke-width:1.0;"/><line style="stroke:#181818;stroke-width:1.0;stroke-dasharray:2.0,2.0;" x1="421.5" x2="523.5" y1="583.8828" y2="583.8828"/><text fill="#000000" font-family="sans-serif" font-size="13" font-weight="bold" lengthAdjust="spacing" textLength="14" x="433.5" y="579.0264">10</text><text fill="#000000" font-family="sans-serif" font-size="13" lengthAdjust="spacing" textLength="61" x="451.5" y="579.0264">status 200</text><polygon fill="#181818" points="298.5,610.2344,288.5,614.2344,298.5,618.2344,294.5,614.2344" style="stroke:#181818;stroke-width:1.0;"/><line style="stroke:#181818;stroke-width:1.0;stroke-dasharray:2.0,2.0;" x1="292.5" x2="410.5" y1="614.2344" y2="614.2344"/><text fill="#000000" font-family="sans-serif" font-size="13" font-weight="bold" lengthAdjust="spacing" textLength="14" x="304.5" y="609.3779">11</text><text fill="#000000" font-family="sans-serif" font-size="13" lengthAdjust="spacing" textLength="77" x="322.5" y="609.3779">displays data</text><!--MD5=[ea6887a2575932f2dff71617f4f8ca21]
@startuml

autonumber
participant "MDL" as MDL
participant "TruckRoute" as ROUTE
participant "TruckController" as CTR
participant "TruckService" as SERVICE
participant "TruckRepo" as REPO
participant "TruckSchema" as SCHEMA
participant "TruckMap" as MAP
participant "TruckDTO" as DTO
database "Database" as DB
participant "truckRecord" as RECORD
participant "trucksResult" as Result

activate MDL
MDL -> ROUTE: get(/Trucks)

note left
  Depending on the selected filter (plate) 
  the request and the methods will be 
  different, changing only the method's name
  and implementation.
end note

activate ROUTE
ROUTE -> CTR : getTrucks
activate CTR
CTR -> SERVICE : getTrucks
activate SERVICE
SERVICE -> REPO : trucksResult = findAll
activate REPO
REPO -> SCHEMA : truckRecord = find
activate SCHEMA
SCHEMA -> DB : find
activate DB
deactivate DB
deactivate SCHEMA
loop element : truckRecord
REPO -> MAP : toDomain
activate MAP
deactivate MAP
end
deactivate REPO

loop linha : pathsResult
SERVICE -> MAP : toDTO
activate MAP
deactivate MAP
end
SERVICE - -> CTR
deactivate SERVICE
CTR - -> ROUTE : status 200
deactivate CTR
ROUTE - -> MDL : displays data
deactivate ROUTE

@enduml

PlantUML version 1.2022.7(Mon Aug 22 18:01:30 WEST 2022)
(GPL source distribution)
Java Runtime: Java(TM) SE Runtime Environment
JVM: Java HotSpot(TM) 64-Bit Server VM
Default Encoding: Cp1252
Language: pt
Country: PT
--></g></svg>