<?xml version="1.0" encoding="UTF-8" standalone="no"?><svg xmlns="http://www.w3.org/2000/svg" xmlns:xlink="http://www.w3.org/1999/xlink" contentStyleType="text/css" height="218px" preserveAspectRatio="none" style="width:434px;height:218px;background:#FFFFFF;" version="1.1" viewBox="0 0 434 218" width="434px" zoomAndPan="magnify"><defs/><g><!--MD5=[e85bd8b7c3eef9e05b8e65fb9224b5e9]
cluster EletricGo--><g id="cluster_EletricGo"><rect fill="none" height="102" rx="2.5" ry="2.5" style="stroke:#181818;stroke-width:1.0;" width="114" x="182.5" y="110"/><rect fill="none" height="10" style="stroke:#181818;stroke-width:1.0;" width="15" x="276.5" y="115"/><rect fill="none" height="2" style="stroke:#181818;stroke-width:1.0;" width="4" x="274.5" y="117"/><rect fill="none" height="2" style="stroke:#181818;stroke-width:1.0;" width="4" x="274.5" y="121"/><text fill="#000000" font-family="sans-serif" font-size="14" font-weight="bold" lengthAdjust="spacing" textLength="65" x="207" y="137.5332">EletricGo</text></g><text fill="#000000" font-family="sans-serif" font-size="14" lengthAdjust="spacing" textLength="16" x="231.5" y="88.9238">p1</text><rect fill="#F1F1F1" height="12" style="stroke:#181818;stroke-width:1.5;" width="12" x="233.5" y="104"/><!--MD5=[79a439086b036a57b90a01d7b2f8bbd1]
entity admin--><g id="elem_admin"><ellipse cx="25.5" cy="14" fill="#F1F1F1" rx="8" ry="8" style="stroke:#181818;stroke-width:0.5;"/><text fill="#000000" font-family="sans-serif" font-size="14" lengthAdjust="spacing" textLength="39" x="6" y="45.5332">Admin</text></g><!--MD5=[4a65e84059005d12693a083370a06717]
entity client--><g id="elem_client"><ellipse cx="132.5" cy="14" fill="#F1F1F1" rx="8" ry="8" style="stroke:#181818;stroke-width:0.5;"/><text fill="#000000" font-family="sans-serif" font-size="14" lengthAdjust="spacing" textLength="74" x="95.5" y="45.5332">EletricAcme</text></g><!--MD5=[b2fb6dde16c04ae1973feb8fd534e8ff]
entity ga--><g id="elem_ga"><ellipse cx="239.5" cy="14" fill="#F1F1F1" rx="8" ry="8" style="stroke:#181818;stroke-width:0.5;"/><text fill="#000000" font-family="sans-serif" font-size="14" lengthAdjust="spacing" textLength="20" x="229.5" y="45.5332">GA</text></g><!--MD5=[6aee66623e2512bbc5ed546816d0b552]
entity gf--><g id="elem_gf"><ellipse cx="328.5" cy="14" fill="#F1F1F1" rx="8" ry="8" style="stroke:#181818;stroke-width:0.5;"/><text fill="#000000" font-family="sans-serif" font-size="14" lengthAdjust="spacing" textLength="20" x="318.5" y="45.5332">GF</text></g><!--MD5=[3227262c357340f8534b61e91f6fc44f]
entity gl--><g id="elem_gl"><ellipse cx="417.5" cy="14" fill="#F1F1F1" rx="8" ry="8" style="stroke:#181818;stroke-width:0.5;"/><text fill="#000000" font-family="sans-serif" font-size="14" lengthAdjust="spacing" textLength="19" x="408" y="45.5332">GL</text></g><!--MD5=[2ef107c8d98a522d3904cffae74f69f0]
link admin to p1--><g id="link_admin_p1"><path d="M34.58,21.84 C43.24,28.14 56.8,37.49 69.5,44 C126.96,73.47 201.02,97.32 228.56,105.73 " fill="none" id="admin-to-p1" style="stroke:#181818;stroke-width:1.0;"/><polygon fill="#181818" points="233.43,107.21,225.9853,100.762,228.6468,105.7536,223.6551,108.4151,233.43,107.21" style="stroke:#181818;stroke-width:1.0;"/></g><!--MD5=[aa8640cabff115addeb0686e9587b68e]
link client to p1--><g id="link_client_p1"><path d="M141.62,23.01 C161.63,40.59 209.2,82.39 229.76,100.44 " fill="none" id="client-to-p1" style="stroke:#181818;stroke-width:1.0;"/><polygon fill="#181818" points="233.72,103.92,229.5976,94.9754,229.9633,100.6204,224.3183,100.9861,233.72,103.92" style="stroke:#181818;stroke-width:1.0;"/></g><!--MD5=[9a85dca643d434a7754bbcc54490597b]
link ga to p1--><g id="link_ga_p1"><path d="M239.5,23.01 C239.5,40.07 239.5,79.96 239.5,98.8 " fill="none" id="ga-to-p1" style="stroke:#181818;stroke-width:1.0;"/><polygon fill="#181818" points="239.5,103.92,243.5,94.92,239.5,98.92,235.5,94.92,239.5,103.92" style="stroke:#181818;stroke-width:1.0;"/></g><!--MD5=[b945899eef51d5cde7442b500d3ad37a]
link gf to p1--><g id="link_gf_p1"><path d="M320.91,23.01 C304.34,40.52 265.03,82.04 247.82,100.22 " fill="none" id="gf-to-p1" style="stroke:#181818;stroke-width:1.0;"/><polygon fill="#181818" points="244.31,103.92,253.3985,100.1255,247.744,100.2857,247.5837,94.6311,244.31,103.92" style="stroke:#181818;stroke-width:1.0;"/></g><!--MD5=[b850ea8127b7e90e84ded2afe2eba4a0]
link gl to p1--><g id="link_gl_p1"><path d="M408.28,21.59 C399.53,27.72 385.91,36.94 373.5,44 C328.99,69.32 273.16,94.36 250.16,104.4 " fill="none" id="gl-to-p1" style="stroke:#181818;stroke-width:1.0;"/><polygon fill="#181818" points="245.52,106.42,255.3684,106.5143,250.1083,104.4332,252.1895,99.1731,245.52,106.42" style="stroke:#181818;stroke-width:1.0;"/></g><!--MD5=[6b10fc597763b05acb6988d8df60ea4c]
@startuml
() "Admin" as admin
() "EletricAcme" as client
() "GA" as ga
() "GF" as gf
() "GL" as gl


component EletricGo {
  port p1
}

admin - -> p1
client - ->p1
ga - ->p1
gf - -> p1
gl - -> p1
@enduml

PlantUML version 1.2022.7(Mon Aug 22 18:01:30 WEST 2022)
(GPL source distribution)
Java Runtime: Java(TM) SE Runtime Environment
JVM: Java HotSpot(TM) 64-Bit Server VM
Default Encoding: Cp1252
Language: pt
Country: PT
--></g></svg>