<?xml version="1.0" encoding="UTF-8" standalone="no"?><svg xmlns="http://www.w3.org/2000/svg" xmlns:xlink="http://www.w3.org/1999/xlink" contentStyleType="text/css" height="462px" preserveAspectRatio="none" style="width:440px;height:462px;background:#FFFFFF;" version="1.1" viewBox="0 0 440 462" width="440px" zoomAndPan="magnify"><defs/><g><!--MD5=[e85bd8b7c3eef9e05b8e65fb9224b5e9]
cluster EletricGo--><g id="cluster_EletricGo"><rect height="346" rx="2.5" ry="2.5" style="stroke:#181818;stroke-width:1.0;fill:none;" width="317" x="7" y="110"/><rect height="10" style="stroke:#181818;stroke-width:1.0;fill:none;" width="15" x="304" y="115"/><rect height="2" style="stroke:#181818;stroke-width:1.0;fill:none;" width="4" x="302" y="117"/><rect height="2" style="stroke:#181818;stroke-width:1.0;fill:none;" width="4" x="302" y="121"/><text fill="#000000" font-family="sans-serif" font-size="14" font-weight="bold" lengthAdjust="spacing" textLength="65" x="133" y="137.5332">EletricGo</text></g><text fill="#000000" font-family="sans-serif" font-size="14" lengthAdjust="spacing" textLength="16" x="238" y="88.9238">p1</text><rect fill="#181818" height="12" style="stroke:#F1F1F1;stroke-width:1.5;" width="12" x="240" y="104"/><!--MD5=[33573e971ff506c0f246109ca3fd77bd]
entity spa--><g id="elem_spa"><rect fill="#F1F1F1" height="47.6094" rx="2.5" ry="2.5" style="stroke:#181818;stroke-width:0.5;" width="67" x="63.5" y="176"/><rect fill="#F1F1F1" height="10" style="stroke:#181818;stroke-width:0.5;" width="15" x="110.5" y="181"/><rect fill="#F1F1F1" height="2" style="stroke:#181818;stroke-width:0.5;" width="4" x="108.5" y="183"/><rect fill="#F1F1F1" height="2" style="stroke:#181818;stroke-width:0.5;" width="4" x="108.5" y="187"/><text fill="#000000" font-family="sans-serif" font-size="14" lengthAdjust="spacing" textLength="27" x="78.5" y="210.5332">SPA</text></g><!--MD5=[a27a38ec435cb20ba72737cfb3068c7c]
entity armazem--><g id="elem_armazem"><rect fill="#F1F1F1" height="47.6094" rx="2.5" ry="2.5" style="stroke:#181818;stroke-width:0.5;" width="107" x="23.5" y="392"/><rect fill="#F1F1F1" height="10" style="stroke:#181818;stroke-width:0.5;" width="15" x="110.5" y="397"/><rect fill="#F1F1F1" height="2" style="stroke:#181818;stroke-width:0.5;" width="4" x="108.5" y="399"/><rect fill="#F1F1F1" height="2" style="stroke:#181818;stroke-width:0.5;" width="4" x="108.5" y="403"/><text fill="#000000" font-family="sans-serif" font-size="14" lengthAdjust="spacing" textLength="67" x="38.5" y="426.5332">ARMAZEM</text></g><!--MD5=[ded1c90f3b0dc0717f28056e292ccb32]
entity logistica--><g id="elem_logistica"><rect fill="#F1F1F1" height="47.6094" rx="2.5" ry="2.5" style="stroke:#181818;stroke-width:0.5;" width="113" x="113.5" y="284"/><rect fill="#F1F1F1" height="10" style="stroke:#181818;stroke-width:0.5;" width="15" x="206.5" y="289"/><rect fill="#F1F1F1" height="2" style="stroke:#181818;stroke-width:0.5;" width="4" x="204.5" y="291"/><rect fill="#F1F1F1" height="2" style="stroke:#181818;stroke-width:0.5;" width="4" x="204.5" y="295"/><text fill="#000000" font-family="sans-serif" font-size="14" lengthAdjust="spacing" textLength="73" x="128.5" y="318.5332">LOGISTICA</text></g><!--MD5=[1f5f572fc467ae50c4f6423dcfedb84d]
entity planeamento--><g id="elem_planeamento"><rect fill="#F1F1F1" height="47.6094" rx="2.5" ry="2.5" style="stroke:#181818;stroke-width:0.5;" width="142" x="166" y="392"/><rect fill="#F1F1F1" height="10" style="stroke:#181818;stroke-width:0.5;" width="15" x="288" y="397"/><rect fill="#F1F1F1" height="2" style="stroke:#181818;stroke-width:0.5;" width="4" x="286" y="399"/><rect fill="#F1F1F1" height="2" style="stroke:#181818;stroke-width:0.5;" width="4" x="286" y="403"/><text fill="#000000" font-family="sans-serif" font-size="14" lengthAdjust="spacing" textLength="102" x="181" y="426.5332">PLANEAMENTO</text></g><!--MD5=[79a439086b036a57b90a01d7b2f8bbd1]
entity admin--><g id="elem_admin"><ellipse cx="32" cy="14" fill="#F1F1F1" rx="8" ry="8" style="stroke:#181818;stroke-width:0.5;"/><text fill="#000000" font-family="sans-serif" font-size="14" lengthAdjust="spacing" textLength="39" x="12.5" y="45.5332">Admin</text></g><!--MD5=[4a65e84059005d12693a083370a06717]
entity client--><g id="elem_client"><ellipse cx="139" cy="14" fill="#F1F1F1" rx="8" ry="8" style="stroke:#181818;stroke-width:0.5;"/><text fill="#000000" font-family="sans-serif" font-size="14" lengthAdjust="spacing" textLength="74" x="102" y="45.5332">EletricAcme</text></g><!--MD5=[b2fb6dde16c04ae1973feb8fd534e8ff]
entity ga--><g id="elem_ga"><ellipse cx="246" cy="14" fill="#F1F1F1" rx="8" ry="8" style="stroke:#181818;stroke-width:0.5;"/><text fill="#000000" font-family="sans-serif" font-size="14" lengthAdjust="spacing" textLength="20" x="236" y="45.5332">GA</text></g><!--MD5=[6aee66623e2512bbc5ed546816d0b552]
entity gf--><g id="elem_gf"><ellipse cx="335" cy="14" fill="#F1F1F1" rx="8" ry="8" style="stroke:#181818;stroke-width:0.5;"/><text fill="#000000" font-family="sans-serif" font-size="14" lengthAdjust="spacing" textLength="20" x="325" y="45.5332">GF</text></g><!--MD5=[3227262c357340f8534b61e91f6fc44f]
entity gl--><g id="elem_gl"><ellipse cx="424" cy="14" fill="#F1F1F1" rx="8" ry="8" style="stroke:#181818;stroke-width:0.5;"/><text fill="#000000" font-family="sans-serif" font-size="14" lengthAdjust="spacing" textLength="19" x="414.5" y="45.5332">GL</text></g><!--MD5=[2ef107c8d98a522d3904cffae74f69f0]
link admin to p1--><g id="link_admin_p1"><path d="M41.32,21.81 C50.19,28.1 64.07,37.44 77,44 C134.29,73.09 207.82,97.16 235.14,105.68 " fill="none" id="admin-to-p1" style="stroke:#181818;stroke-width:1.0;"/><polygon fill="#181818" points="239.97,107.18,232.5484,100.7054,235.192,105.7066,230.1909,108.3502,239.97,107.18" style="stroke:#181818;stroke-width:1.0;"/></g><!--MD5=[aa8640cabff115addeb0686e9587b68e]
link client to p1--><g id="link_client_p1"><path d="M148.12,23.01 C168.13,40.59 215.7,82.39 236.26,100.44 " fill="none" id="client-to-p1" style="stroke:#181818;stroke-width:1.0;"/><polygon fill="#181818" points="240.22,103.92,236.0976,94.9754,236.4633,100.6204,230.8183,100.9861,240.22,103.92" style="stroke:#181818;stroke-width:1.0;"/></g><!--MD5=[9a85dca643d434a7754bbcc54490597b]
link ga to p1--><g id="link_ga_p1"><path d="M246,23.01 C246,40.07 246,79.96 246,98.8 " fill="none" id="ga-to-p1" style="stroke:#181818;stroke-width:1.0;"/><polygon fill="#181818" points="246,103.92,250,94.92,246,98.92,242,94.92,246,103.92" style="stroke:#181818;stroke-width:1.0;"/></g><!--MD5=[b945899eef51d5cde7442b500d3ad37a]
link gf to p1--><g id="link_gf_p1"><path d="M327.41,23.01 C310.84,40.52 271.53,82.04 254.32,100.22 " fill="none" id="gf-to-p1" style="stroke:#181818;stroke-width:1.0;"/><polygon fill="#181818" points="250.81,103.92,259.8985,100.1255,254.244,100.2857,254.0837,94.6311,250.81,103.92" style="stroke:#181818;stroke-width:1.0;"/></g><!--MD5=[b850ea8127b7e90e84ded2afe2eba4a0]
link gl to p1--><g id="link_gl_p1"><path d="M414.78,21.59 C406.03,27.72 392.41,36.94 380,44 C335.49,69.32 279.66,94.36 256.66,104.4 " fill="none" id="gl-to-p1" style="stroke:#181818;stroke-width:1.0;"/><polygon fill="#181818" points="252.02,106.42,261.8684,106.5143,256.6083,104.4332,258.6895,99.1731,252.02,106.42" style="stroke:#181818;stroke-width:1.0;"/></g><!--MD5=[a06cd5159d8ee0a32708e1f6a8aa59d9]
link spa to armazem--><g id="link_spa_armazem"><path d="M94.82,224.31 C90.97,265.47 83.02,350.58 79.18,391.72 " fill="none" id="spa-armazem" style="stroke:#181818;stroke-width:1.0;"/><path d="M94.6944,301.6398 A10,10 0 0 0 80.6135 300.3244" fill="none" style="stroke:#181818;stroke-width:1.5;"/><ellipse cx="86.9963" cy="308.0225" fill="#FFFFFF" rx="6" ry="6" style="stroke:#181818;stroke-width:1.5;"/></g><!--MD5=[78080dda50258effdf878c4f94d94870]
link spa to logistica--><g id="link_spa_logistica"><path d="M112.84,224 C125,241.66 141.72,265.94 153.94,283.68 " fill="none" id="spa-logistica" style="stroke:#181818;stroke-width:1.0;"/><path d="M135.1806,243.9757 A10,10 0 0 0 123.5332 251.9969" fill="none" style="stroke:#181818;stroke-width:1.5;"/><ellipse cx="133.3675" cy="253.81" fill="#FFFFFF" rx="6" ry="6" style="stroke:#181818;stroke-width:1.5;"/></g><!--MD5=[af0bca1080e6c9b8724580f561420292]
link logistica to planeamento--><g id="link_logistica_planeamento"><path d="M184.54,332 C195.7,349.66 211.05,373.94 222.26,391.68 " fill="none" id="logistica-planeamento" style="stroke:#181818;stroke-width:1.0;"/><path d="M205.5803,352.0548 A10,10 0 0 0 193.626 359.6109" fill="none" style="stroke:#181818;stroke-width:1.5;"/><ellipse cx="203.3813" cy="361.81" fill="#FFFFFF" rx="6" ry="6" style="stroke:#181818;stroke-width:1.5;"/></g><!--MD5=[f805087b7df35dab3d893954831a4e61]
link logistica to armazem--><g id="link_logistica_armazem"><path d="M149.82,332 C134.33,349.66 113.02,373.94 97.46,391.68 " fill="none" id="logistica-armazem" style="stroke:#181818;stroke-width:1.0;"/><path d="M133.645,361.1586 A10,10 0 0 0 123.0148 351.8312" fill="none" style="stroke:#181818;stroke-width:1.5;"/><ellipse cx="123.6663" cy="361.81" fill="#FFFFFF" rx="6" ry="6" style="stroke:#181818;stroke-width:1.5;"/></g><!--MD5=[2da2974302ad5ae46e53a2ca3ff06443]
@startuml
() "Admin" as admin
() "EletricAcme" as client
() "GA" as ga
() "GF" as gf
() "GL" as gl

component EletricGo {
  port p1

  component "SPA" as spa

  component "ARMAZEM" as armazem

  component "LOGISTICA" as logistica

  component "PLANEAMENTO" as planeamento


}
admin - -> p1
client - ->p1
ga - ->p1
gf - -> p1
gl - -> p1

spa -(0- armazem
spa -(0- logistica
logistica -(0- planeamento
logistica -(0- armazem

@enduml

PlantUML version 1.2022.4(Sat Apr 09 14:29:17 BST 2022)
(GPL source distribution)
Java Runtime: OpenJDK Runtime Environment
JVM: OpenJDK 64-Bit Server VM
Default Encoding: Cp1252
Language: pt
Country: PT
--></g></svg>