<?xml version="1.0" encoding="UTF-8" standalone="no"?><svg xmlns="http://www.w3.org/2000/svg" xmlns:xlink="http://www.w3.org/1999/xlink" contentStyleType="text/css" height="366px" preserveAspectRatio="none" style="width:504px;height:366px;background:#FFFFFF;" version="1.1" viewBox="0 0 504 366" width="504px" zoomAndPan="magnify"><defs/><g><rect fill="#FFFFFF" height="174.1094" style="stroke:#181818;stroke-width:1.0;" width="10" x="13.5" y="92.6094"/><rect fill="#FFFFFF" height="91.0547" style="stroke:#181818;stroke-width:1.0;" width="10" x="265.5" y="114.9609"/><rect fill="#FFFFFF" height="30.3516" style="stroke:#181818;stroke-width:1.0;" width="10" x="265.5" y="236.3672"/><rect fill="#FFFFFF" height="30.3516" style="stroke:#181818;stroke-width:1.0;" width="10" x="452.5" y="145.3125"/><line style="stroke:#181818;stroke-width:0.5;stroke-dasharray:5.0,5.0;" x1="18" x2="18" y1="82.6094" y2="284.7188"/><line style="stroke:#181818;stroke-width:0.5;stroke-dasharray:5.0,5.0;" x1="270.5" x2="270.5" y1="82.6094" y2="284.7188"/><line style="stroke:#181818;stroke-width:0.5;stroke-dasharray:5.0,5.0;" x1="457.5" x2="457.5" y1="82.6094" y2="284.7188"/><text fill="#000000" font-family="sans-serif" font-size="14" lengthAdjust="spacing" textLength="20" x="5.5" y="79.5332">GA</text><ellipse cx="18.5" cy="13.5" fill="#E2E2F0" rx="8" ry="8" style="stroke:#181818;stroke-width:0.5;"/><path d="M18.5,21.5 L18.5,48.5 M5.5,29.5 L31.5,29.5 M18.5,48.5 L5.5,63.5 M18.5,48.5 L31.5,63.5 " fill="none" style="stroke:#181818;stroke-width:0.5;"/><text fill="#000000" font-family="sans-serif" font-size="14" lengthAdjust="spacing" textLength="20" x="5.5" y="298.252">GA</text><ellipse cx="18.5" cy="309.8281" fill="#E2E2F0" rx="8" ry="8" style="stroke:#181818;stroke-width:0.5;"/><path d="M18.5,317.8281 L18.5,344.8281 M5.5,325.8281 L31.5,325.8281 M18.5,344.8281 L5.5,359.8281 M18.5,344.8281 L31.5,359.8281 " fill="none" style="stroke:#181818;stroke-width:0.5;"/><rect fill="#E2E2F0" height="31.6094" rx="2.5" ry="2.5" style="stroke:#181818;stroke-width:0.5;" width="74" x="233.5" y="50"/><text fill="#000000" font-family="sans-serif" font-size="14" lengthAdjust="spacing" textLength="60" x="240.5" y="71.5332">sPA: SPA</text><rect fill="#E2E2F0" height="31.6094" rx="2.5" ry="2.5" style="stroke:#181818;stroke-width:0.5;" width="74" x="233.5" y="283.7188"/><text fill="#000000" font-family="sans-serif" font-size="14" lengthAdjust="spacing" textLength="60" x="240.5" y="305.252">sPA: SPA</text><rect fill="#E2E2F0" height="31.6094" rx="2.5" ry="2.5" style="stroke:#181818;stroke-width:0.5;" width="82" x="416.5" y="50"/><text fill="#000000" font-family="sans-serif" font-size="14" lengthAdjust="spacing" textLength="68" x="423.5" y="71.5332">MDA: MDA</text><rect fill="#E2E2F0" height="31.6094" rx="2.5" ry="2.5" style="stroke:#181818;stroke-width:0.5;" width="82" x="416.5" y="283.7188"/><text fill="#000000" font-family="sans-serif" font-size="14" lengthAdjust="spacing" textLength="68" x="423.5" y="305.252">MDA: MDA</text><rect fill="#FFFFFF" height="174.1094" style="stroke:#181818;stroke-width:1.0;" width="10" x="13.5" y="92.6094"/><rect fill="#FFFFFF" height="91.0547" style="stroke:#181818;stroke-width:1.0;" width="10" x="265.5" y="114.9609"/><rect fill="#FFFFFF" height="30.3516" style="stroke:#181818;stroke-width:1.0;" width="10" x="265.5" y="236.3672"/><rect fill="#FFFFFF" height="30.3516" style="stroke:#181818;stroke-width:1.0;" width="10" x="452.5" y="145.3125"/><polygon fill="#181818" points="253.5,110.9609,263.5,114.9609,253.5,118.9609,257.5,114.9609" style="stroke:#181818;stroke-width:1.0;"/><line style="stroke:#181818;stroke-width:1.0;" x1="23.5" x2="259.5" y1="114.9609" y2="114.9609"/><text fill="#000000" font-family="sans-serif" font-size="13" font-weight="bold" lengthAdjust="spacing" textLength="7" x="30.5" y="110.1045">1</text><text fill="#000000" font-family="sans-serif" font-size="13" lengthAdjust="spacing" textLength="134" x="41.5" y="110.1045">Asks to read a packing</text><polygon fill="#181818" points="440.5,141.3125,450.5,145.3125,440.5,149.3125,444.5,145.3125" style="stroke:#181818;stroke-width:1.0;"/><line style="stroke:#181818;stroke-width:1.0;stroke-dasharray:2.0,2.0;" x1="275.5" x2="446.5" y1="145.3125" y2="145.3125"/><text fill="#000000" font-family="sans-serif" font-size="13" font-weight="bold" lengthAdjust="spacing" textLength="7" x="282.5" y="140.4561">2</text><text fill="#000000" font-family="sans-serif" font-size="13" lengthAdjust="spacing" textLength="147" x="293.5" y="140.4561">GET /packings body:data</text><polygon fill="#181818" points="286.5,171.6641,276.5,175.6641,286.5,179.6641,282.5,175.6641" style="stroke:#181818;stroke-width:1.0;"/><line style="stroke:#181818;stroke-width:1.0;stroke-dasharray:2.0,2.0;" x1="280.5" x2="456.5" y1="175.6641" y2="175.6641"/><text fill="#000000" font-family="sans-serif" font-size="13" font-weight="bold" lengthAdjust="spacing" textLength="7" x="292.5" y="170.8076">3</text><text fill="#000000" font-family="sans-serif" font-size="13" lengthAdjust="spacing" textLength="130" x="303.5" y="170.8076">200 body(warehouses)</text><polygon fill="#181818" points="34.5,202.0156,24.5,206.0156,34.5,210.0156,30.5,206.0156" style="stroke:#181818;stroke-width:1.0;"/><line style="stroke:#181818;stroke-width:1.0;stroke-dasharray:2.0,2.0;" x1="28.5" x2="269.5" y1="206.0156" y2="206.0156"/><text fill="#000000" font-family="sans-serif" font-size="13" font-weight="bold" lengthAdjust="spacing" textLength="7" x="40.5" y="201.1592">4</text><text fill="#000000" font-family="sans-serif" font-size="13" lengthAdjust="spacing" textLength="132" x="51.5" y="201.1592">shows all the packings</text><polygon fill="#181818" points="253.5,232.3672,263.5,236.3672,253.5,240.3672,257.5,236.3672" style="stroke:#181818;stroke-width:1.0;"/><line style="stroke:#181818;stroke-width:1.0;stroke-dasharray:2.0,2.0;" x1="23.5" x2="259.5" y1="236.3672" y2="236.3672"/><text fill="#000000" font-family="sans-serif" font-size="13" font-weight="bold" lengthAdjust="spacing" textLength="7" x="30.5" y="231.5107">5</text><text fill="#000000" font-family="sans-serif" font-size="13" lengthAdjust="spacing" textLength="212" x="41.5" y="231.5107">selects the packing and data wanted</text><polygon fill="#181818" points="29.5,262.7188,19.5,266.7188,29.5,270.7188,25.5,266.7188" style="stroke:#181818;stroke-width:1.0;"/><line style="stroke:#181818;stroke-width:1.0;stroke-dasharray:2.0,2.0;" x1="23.5" x2="269.5" y1="266.7188" y2="266.7188"/><text fill="#000000" font-family="sans-serif" font-size="13" font-weight="bold" lengthAdjust="spacing" textLength="7" x="35.5" y="261.8623">6</text><text fill="#000000" font-family="sans-serif" font-size="13" lengthAdjust="spacing" textLength="101" x="46.5" y="261.8623">presents the data</text><!--MD5=[612acae3d03d24f6c2fcdace15d3727a]
@startuml
'https://plantuml.com/sequence-diagram

autonumber
actor GA
participant "sPA: SPA" as sPA
participant "MDA: MDA" as MDA 


activate GA
GA ->sPA : Asks to read a packing
activate sPA

sPA - -> MDA : GET /packings body:data
activate MDA

MDA - -> sPA :  200 body(warehouses)

deactivate MDA

sPA - -> GA : shows all the packings

deactivate sPA

GA - -> sPA : selects the packing and data wanted

activate sPA



sPA - -> GA : presents the data

deactivate sPA

deactivate GA



@enduml

@startuml

autonumber
actor GA
participant "sPA: SPA" as sPA
participant "MDA: MDA" as MDA 


activate GA
GA ->sPA : Asks to read a packing
activate sPA

sPA - -> MDA : GET /packings body:data
activate MDA

MDA - -> sPA :  200 body(warehouses)

deactivate MDA

sPA - -> GA : shows all the packings

deactivate sPA

GA - -> sPA : selects the packing and data wanted

activate sPA



sPA - -> GA : presents the data

deactivate sPA

deactivate GA



@enduml

PlantUML version 1.2022.7(Mon Aug 22 18:01:30 BST 2022)
(GPL source distribution)
Java Runtime: OpenJDK Runtime Environment
JVM: OpenJDK 64-Bit Server VM
Default Encoding: Cp1252
Language: pt
Country: PT
--></g></svg>