<?xml version="1.0" encoding="UTF-8" standalone="no"?><svg xmlns="http://www.w3.org/2000/svg" xmlns:xlink="http://www.w3.org/1999/xlink" contentStyleType="text/css" height="554px" preserveAspectRatio="none" style="width:592px;height:554px;background:#FFFFFF;" version="1.1" viewBox="0 0 592 554" width="592px" zoomAndPan="magnify"><defs/><g><rect fill="#FFFFFF" height="46.7031" style="stroke:#181818;stroke-width:1.0;" width="10" x="534.5" y="114.9609"/><rect fill="#FFFFFF" height="30" style="stroke:#181818;stroke-width:1.0;" width="10" x="534.5" y="233.7188"/><rect fill="#FFFFFF" height="30" style="stroke:#181818;stroke-width:1.0;" width="10" x="534.5" y="326.2578"/><rect fill="#FFFFFF" height="30.3516" style="stroke:#181818;stroke-width:1.0;" width="10" x="534.5" y="423.9609"/><rect fill="none" height="187.5938" style="stroke:#000000;stroke-width:1.5;" width="575.5" x="10" y="176.6641"/><line style="stroke:#181818;stroke-width:0.5;stroke-dasharray:5.0,5.0;" x1="42" x2="42" y1="82.6094" y2="472.3125"/><line style="stroke:#181818;stroke-width:0.5;stroke-dasharray:5.0,5.0;" x1="539.5" x2="539.5" y1="82.6094" y2="472.3125"/><text fill="#000000" font-family="sans-serif" font-size="14" lengthAdjust="spacing" textLength="39" x="20" y="79.5332">Admin</text><ellipse cx="42.5" cy="13.5" fill="#E2E2F0" rx="8" ry="8" style="stroke:#181818;stroke-width:0.5;"/><path d="M42.5,21.5 L42.5,48.5 M29.5,29.5 L55.5,29.5 M42.5,48.5 L29.5,63.5 M42.5,48.5 L55.5,63.5 " fill="none" style="stroke:#181818;stroke-width:0.5;"/><text fill="#000000" font-family="sans-serif" font-size="14" lengthAdjust="spacing" textLength="39" x="20" y="485.8457">Admin</text><ellipse cx="42.5" cy="497.4219" fill="#E2E2F0" rx="8" ry="8" style="stroke:#181818;stroke-width:0.5;"/><path d="M42.5,505.4219 L42.5,532.4219 M29.5,513.4219 L55.5,513.4219 M42.5,532.4219 L29.5,547.4219 M42.5,532.4219 L55.5,547.4219 " fill="none" style="stroke:#181818;stroke-width:0.5;"/><rect fill="#E2E2F0" height="31.6094" rx="2.5" ry="2.5" style="stroke:#181818;stroke-width:0.5;" width="72" x="503.5" y="50"/><text fill="#000000" font-family="sans-serif" font-size="14" lengthAdjust="spacing" textLength="58" x="510.5" y="71.5332">EletricGo</text><rect fill="#E2E2F0" height="31.6094" rx="2.5" ry="2.5" style="stroke:#181818;stroke-width:0.5;" width="72" x="503.5" y="471.3125"/><text fill="#000000" font-family="sans-serif" font-size="14" lengthAdjust="spacing" textLength="58" x="510.5" y="492.8457">EletricGo</text><rect fill="#FFFFFF" height="46.7031" style="stroke:#181818;stroke-width:1.0;" width="10" x="534.5" y="114.9609"/><rect fill="#FFFFFF" height="30" style="stroke:#181818;stroke-width:1.0;" width="10" x="534.5" y="233.7188"/><rect fill="#FFFFFF" height="30" style="stroke:#181818;stroke-width:1.0;" width="10" x="534.5" y="326.2578"/><rect fill="#FFFFFF" height="30.3516" style="stroke:#181818;stroke-width:1.0;" width="10" x="534.5" y="423.9609"/><polygon fill="#181818" points="522.5,110.9609,532.5,114.9609,522.5,118.9609,526.5,114.9609" style="stroke:#181818;stroke-width:1.0;"/><line style="stroke:#181818;stroke-width:1.0;" x1="42.5" x2="528.5" y1="114.9609" y2="114.9609"/><text fill="#000000" font-family="sans-serif" font-size="13" lengthAdjust="spacing" textLength="202" x="49.5" y="110.1045">Inicia criação de um novo utilizador</text><polygon fill="#181818" points="53.5,157.6641,43.5,161.6641,53.5,165.6641,49.5,161.6641" style="stroke:#181818;stroke-width:1.0;"/><line style="stroke:#181818;stroke-width:1.0;stroke-dasharray:2.0,2.0;" x1="47.5" x2="538.5" y1="161.6641" y2="161.6641"/><text fill="#000000" font-family="sans-serif" font-size="13" lengthAdjust="spacing" textLength="294" x="59.5" y="140.4561">Solicita dados (primeiro nome, último nome, email,</text><text fill="#000000" font-family="sans-serif" font-size="13" lengthAdjust="spacing" textLength="444" x="59.5" y="156.8076">password, confirmação de password, número de telemóvel, tipo de utilizador)</text><path d="M10,176.6641 L71,176.6641 L71,185.0156 L61,195.0156 L10,195.0156 L10,176.6641 " fill="#EEEEEE" style="stroke:#000000;stroke-width:1.5;"/><rect fill="none" height="187.5938" style="stroke:#000000;stroke-width:1.5;" width="575.5" x="10" y="176.6641"/><text fill="#000000" font-family="sans-serif" font-size="13" font-weight="bold" lengthAdjust="spacing" textLength="16" x="25" y="191.1592">alt</text><text fill="#000000" font-family="sans-serif" font-size="11" font-weight="bold" lengthAdjust="spacing" textLength="76" x="86" y="190.083">[login default]</text><polygon fill="#181818" points="522.5,229.7188,532.5,233.7188,522.5,237.7188,526.5,233.7188" style="stroke:#181818;stroke-width:1.0;"/><line style="stroke:#181818;stroke-width:1.0;" x1="42.5" x2="528.5" y1="233.7188" y2="233.7188"/><text fill="#000000" font-family="sans-serif" font-size="13" lengthAdjust="spacing" textLength="297" x="49.5" y="212.5107">Introduz dados (primeiro nome, último nome, email,</text><text fill="#000000" font-family="sans-serif" font-size="13" lengthAdjust="spacing" textLength="444" x="49.5" y="228.8623">password, confirmação de password, número de telemóvel, tipo de utilizador)</text><line style="stroke:#000000;stroke-width:1.0;stroke-dasharray:2.0,2.0;" x1="10" x2="585.5" y1="272.7188" y2="272.7188"/><text fill="#000000" font-family="sans-serif" font-size="11" font-weight="bold" lengthAdjust="spacing" textLength="87" x="15" y="284.1377">[login com SSO]</text><polygon fill="#181818" points="522.5,322.2578,532.5,326.2578,522.5,330.2578,526.5,326.2578" style="stroke:#181818;stroke-width:1.0;"/><line style="stroke:#181818;stroke-width:1.0;" x1="42.5" x2="528.5" y1="326.2578" y2="326.2578"/><text fill="#000000" font-family="sans-serif" font-size="13" lengthAdjust="spacing" textLength="473" x="49.5" y="305.0498">Introduz dados (primeiro nome, último nome, email (a terminar com @gmail.com),</text><text fill="#000000" font-family="sans-serif" font-size="13" lengthAdjust="spacing" textLength="226" x="53.5" y="321.4014">número de telemóvel, tipo de utilizador)</text><polygon fill="#181818" points="53.5,389.6094,43.5,393.6094,53.5,397.6094,49.5,393.6094" style="stroke:#181818;stroke-width:1.0;"/><line style="stroke:#181818;stroke-width:1.0;stroke-dasharray:2.0,2.0;" x1="47.5" x2="538.5" y1="393.6094" y2="393.6094"/><text fill="#000000" font-family="sans-serif" font-size="13" lengthAdjust="spacing" textLength="209" x="59.5" y="388.7529">Mostra dados e solicita confirmação</text><polygon fill="#181818" points="522.5,419.9609,532.5,423.9609,522.5,427.9609,526.5,423.9609" style="stroke:#181818;stroke-width:1.0;"/><line style="stroke:#181818;stroke-width:1.0;" x1="42.5" x2="528.5" y1="423.9609" y2="423.9609"/><text fill="#000000" font-family="sans-serif" font-size="13" lengthAdjust="spacing" textLength="51" x="49.5" y="419.1045">Confirma</text><polygon fill="#181818" points="53.5,450.3125,43.5,454.3125,53.5,458.3125,49.5,454.3125" style="stroke:#181818;stroke-width:1.0;"/><line style="stroke:#181818;stroke-width:1.0;stroke-dasharray:2.0,2.0;" x1="47.5" x2="538.5" y1="454.3125" y2="454.3125"/><text fill="#000000" font-family="sans-serif" font-size="13" lengthAdjust="spacing" textLength="181" x="59.5" y="449.4561">Informa o sucesso da operação</text><!--MD5=[0b8dc227281cf501f063e559bcd6eb24]
@startuml
actor Admin as ADM
ADM -> EletricGo: Inicia criação de um novo utilizador
activate EletricGo
EletricGo - -> ADM : Solicita dados (primeiro nome, último nome, email, \npassword, confirmação de password, número de telemóvel, tipo de utilizador)
deactivate

alt login default
ADM -> EletricGo: Introduz dados (primeiro nome, último nome, email, \npassword, confirmação de password, número de telemóvel, tipo de utilizador)
activate EletricGo
deactivate EletricGo
else login com SSO
ADM -> EletricGo: Introduz dados (primeiro nome, último nome, email (a terminar com @gmail.com),\n número de telemóvel, tipo de utilizador)
activate EletricGo
deactivate
end
EletricGo - -> ADM : Mostra dados e solicita confirmação
ADM -> EletricGo: Confirma
activate EletricGo
EletricGo - -> ADM : Informa o sucesso da operação
deactivate EletricGo
@enduml

PlantUML version 1.2022.7(Mon Aug 22 18:01:30 BST 2022)
(GPL source distribution)
Java Runtime: OpenJDK Runtime Environment
JVM: OpenJDK 64-Bit Server VM
Default Encoding: Cp1252
Language: pt
Country: PT
--></g></svg>