<?xml version="1.0" encoding="UTF-8" standalone="no"?><svg xmlns="http://www.w3.org/2000/svg" xmlns:xlink="http://www.w3.org/1999/xlink" contentStyleType="text/css" height="695px" preserveAspectRatio="none" style="width:840px;height:695px;background:#FFFFFF;" version="1.1" viewBox="0 0 840 695" width="840px" zoomAndPan="magnify"><defs/><g><rect fill="#FFFFFF" height="510.3281" style="stroke:#181818;stroke-width:1.0;" width="10" x="38.5" y="92.6094"/><rect fill="#FFFFFF" height="91.0547" style="stroke:#181818;stroke-width:1.0;" width="10" x="539.5" y="147.6641"/><rect fill="#FFFFFF" height="91.0547" style="stroke:#181818;stroke-width:1.0;" width="10" x="539.5" y="319.7734"/><rect fill="#FFFFFF" height="91.0547" style="stroke:#181818;stroke-width:1.0;" width="10" x="539.5" y="496.8828"/><rect fill="#FFFFFF" height="30.3516" style="stroke:#181818;stroke-width:1.0;" width="10" x="744.5" y="178.0156"/><rect fill="#FFFFFF" height="30.3516" style="stroke:#181818;stroke-width:1.0;" width="10" x="744.5" y="350.125"/><rect fill="#FFFFFF" height="30.3516" style="stroke:#181818;stroke-width:1.0;" width="10" x="744.5" y="527.2344"/><rect fill="none" height="172.1094" style="stroke:#000000;stroke-width:1.5;" width="824" x="10" y="253.7188"/><rect fill="none" height="139.7578" style="stroke:#000000;stroke-width:1.5;" width="804" x="20" y="279.0703"/><rect fill="none" height="156.1094" style="stroke:#000000;stroke-width:1.5;" width="804" x="20" y="439.8281"/><line style="stroke:#181818;stroke-width:0.5;stroke-dasharray:5.0,5.0;" x1="43" x2="43" y1="82.6094" y2="612.9375"/><line style="stroke:#181818;stroke-width:0.5;stroke-dasharray:5.0,5.0;" x1="544.5" x2="544.5" y1="82.6094" y2="612.9375"/><line style="stroke:#181818;stroke-width:0.5;stroke-dasharray:5.0,5.0;" x1="749" x2="749" y1="82.6094" y2="612.9375"/><text fill="#000000" font-family="sans-serif" font-size="14" lengthAdjust="spacing" textLength="19" x="31" y="79.5332">GL</text><ellipse cx="43.5" cy="13.5" fill="#E2E2F0" rx="8" ry="8" style="stroke:#181818;stroke-width:0.5;"/><path d="M43.5,21.5 L43.5,48.5 M30.5,29.5 L56.5,29.5 M43.5,48.5 L30.5,63.5 M43.5,48.5 L56.5,63.5 " fill="none" style="stroke:#181818;stroke-width:0.5;"/><text fill="#000000" font-family="sans-serif" font-size="14" lengthAdjust="spacing" textLength="19" x="31" y="626.4707">GL</text><ellipse cx="43.5" cy="638.0469" fill="#E2E2F0" rx="8" ry="8" style="stroke:#181818;stroke-width:0.5;"/><path d="M43.5,646.0469 L43.5,673.0469 M30.5,654.0469 L56.5,654.0469 M43.5,673.0469 L30.5,688.0469 M43.5,673.0469 L56.5,688.0469 " fill="none" style="stroke:#181818;stroke-width:0.5;"/><rect fill="#E2E2F0" height="31.6094" rx="2.5" ry="2.5" style="stroke:#181818;stroke-width:0.5;" width="74" x="507.5" y="50"/><text fill="#000000" font-family="sans-serif" font-size="14" lengthAdjust="spacing" textLength="60" x="514.5" y="71.5332">sPA: SPA</text><rect fill="#E2E2F0" height="31.6094" rx="2.5" ry="2.5" style="stroke:#181818;stroke-width:0.5;" width="74" x="507.5" y="611.9375"/><text fill="#000000" font-family="sans-serif" font-size="14" lengthAdjust="spacing" textLength="60" x="514.5" y="633.4707">sPA: SPA</text><rect fill="#E2E2F0" height="31.6094" rx="2.5" ry="2.5" style="stroke:#181818;stroke-width:0.5;" width="129" x="685" y="50"/><text fill="#000000" font-family="sans-serif" font-size="14" lengthAdjust="spacing" textLength="115" x="692" y="71.5332">logística: Logística</text><rect fill="#E2E2F0" height="31.6094" rx="2.5" ry="2.5" style="stroke:#181818;stroke-width:0.5;" width="129" x="685" y="611.9375"/><text fill="#000000" font-family="sans-serif" font-size="14" lengthAdjust="spacing" textLength="115" x="692" y="633.4707">logística: Logística</text><rect fill="#FFFFFF" height="510.3281" style="stroke:#181818;stroke-width:1.0;" width="10" x="38.5" y="92.6094"/><rect fill="#FFFFFF" height="91.0547" style="stroke:#181818;stroke-width:1.0;" width="10" x="539.5" y="147.6641"/><rect fill="#FFFFFF" height="91.0547" style="stroke:#181818;stroke-width:1.0;" width="10" x="539.5" y="319.7734"/><rect fill="#FFFFFF" height="91.0547" style="stroke:#181818;stroke-width:1.0;" width="10" x="539.5" y="496.8828"/><rect fill="#FFFFFF" height="30.3516" style="stroke:#181818;stroke-width:1.0;" width="10" x="744.5" y="178.0156"/><rect fill="#FFFFFF" height="30.3516" style="stroke:#181818;stroke-width:1.0;" width="10" x="744.5" y="350.125"/><rect fill="#FFFFFF" height="30.3516" style="stroke:#181818;stroke-width:1.0;" width="10" x="744.5" y="527.2344"/><polygon fill="#181818" points="527.5,143.6641,537.5,147.6641,527.5,151.6641,531.5,147.6641" style="stroke:#181818;stroke-width:1.0;"/><line style="stroke:#181818;stroke-width:1.0;" x1="48.5" x2="533.5" y1="147.6641" y2="147.6641"/><text fill="#000000" font-family="sans-serif" font-size="13" font-weight="bold" lengthAdjust="spacing" textLength="7" x="55.5" y="126.4561">1</text><text fill="#000000" font-family="sans-serif" font-size="13" lengthAdjust="spacing" textLength="384" x="66.5" y="110.1045">Asks to create a fleet planning and inserts the fleet planning's data</text><text fill="#000000" font-family="sans-serif" font-size="13" lengthAdjust="spacing" textLength="343" x="70.5" y="126.4561">(number of generations, population, probability of crossover,</text><text fill="#000000" font-family="sans-serif" font-size="13" lengthAdjust="spacing" textLength="131" x="70.5" y="142.8076">probability of mutation)</text><polygon fill="#181818" points="732.5,174.0156,742.5,178.0156,732.5,182.0156,736.5,178.0156" style="stroke:#181818;stroke-width:1.0;"/><line style="stroke:#181818;stroke-width:1.0;stroke-dasharray:2.0,2.0;" x1="549.5" x2="738.5" y1="178.0156" y2="178.0156"/><text fill="#000000" font-family="sans-serif" font-size="13" font-weight="bold" lengthAdjust="spacing" textLength="7" x="556.5" y="173.1592">2</text><text fill="#000000" font-family="sans-serif" font-size="13" lengthAdjust="spacing" textLength="145" x="567.5" y="173.1592">GET /Planning body:data</text><polygon fill="#181818" points="560.5,204.3672,550.5,208.3672,560.5,212.3672,556.5,208.3672" style="stroke:#181818;stroke-width:1.0;"/><line style="stroke:#181818;stroke-width:1.0;stroke-dasharray:2.0,2.0;" x1="554.5" x2="748.5" y1="208.3672" y2="208.3672"/><text fill="#000000" font-family="sans-serif" font-size="13" font-weight="bold" lengthAdjust="spacing" textLength="7" x="566.5" y="203.5107">3</text><text fill="#000000" font-family="sans-serif" font-size="13" lengthAdjust="spacing" textLength="61" x="577.5" y="203.5107">status:200</text><polygon fill="#181818" points="59.5,234.7188,49.5,238.7188,59.5,242.7188,55.5,238.7188" style="stroke:#181818;stroke-width:1.0;"/><line style="stroke:#181818;stroke-width:1.0;stroke-dasharray:2.0,2.0;" x1="53.5" x2="543.5" y1="238.7188" y2="238.7188"/><text fill="#000000" font-family="sans-serif" font-size="13" font-weight="bold" lengthAdjust="spacing" textLength="7" x="65.5" y="233.8623">4</text><text fill="#000000" font-family="sans-serif" font-size="13" lengthAdjust="spacing" textLength="106" x="76.5" y="233.8623">success message</text><path d="M10,253.7188 L83,253.7188 L83,262.0703 L73,272.0703 L10,272.0703 L10,253.7188 " fill="#EEEEEE" style="stroke:#000000;stroke-width:1.5;"/><rect fill="none" height="172.1094" style="stroke:#000000;stroke-width:1.5;" width="824" x="10" y="253.7188"/><text fill="#000000" font-family="sans-serif" font-size="13" font-weight="bold" lengthAdjust="spacing" textLength="28" x="25" y="268.2139">loop</text><text fill="#000000" font-family="sans-serif" font-size="11" font-weight="bold" lengthAdjust="spacing" textLength="50" x="98" y="267.1377">[n times]</text><path d="M20,279.0703 L81,279.0703 L81,287.4219 L71,297.4219 L20,297.4219 L20,279.0703 " fill="#EEEEEE" style="stroke:#000000;stroke-width:1.5;"/><rect fill="none" height="139.7578" style="stroke:#000000;stroke-width:1.5;" width="804" x="20" y="279.0703"/><text fill="#000000" font-family="sans-serif" font-size="13" font-weight="bold" lengthAdjust="spacing" textLength="16" x="35" y="293.5654">alt</text><text fill="#000000" font-family="sans-serif" font-size="11" font-weight="bold" lengthAdjust="spacing" textLength="130" x="96" y="292.4893">[dataEntrega&gt;dataAtual]</text><polygon fill="#181818" points="527.5,315.7734,537.5,319.7734,527.5,323.7734,531.5,319.7734" style="stroke:#181818;stroke-width:1.0;"/><line style="stroke:#181818;stroke-width:1.0;" x1="48.5" x2="533.5" y1="319.7734" y2="319.7734"/><text fill="#000000" font-family="sans-serif" font-size="13" font-weight="bold" lengthAdjust="spacing" textLength="7" x="55.5" y="314.917">5</text><text fill="#000000" font-family="sans-serif" font-size="13" lengthAdjust="spacing" textLength="255" x="66.5" y="314.917">Deletes aldready existing fleet plannings (id)</text><polygon fill="#181818" points="732.5,346.125,742.5,350.125,732.5,354.125,736.5,350.125" style="stroke:#181818;stroke-width:1.0;"/><line style="stroke:#181818;stroke-width:1.0;" x1="549.5" x2="738.5" y1="350.125" y2="350.125"/><text fill="#000000" font-family="sans-serif" font-size="13" font-weight="bold" lengthAdjust="spacing" textLength="7" x="556.5" y="345.2686">6</text><text fill="#000000" font-family="sans-serif" font-size="13" lengthAdjust="spacing" textLength="130" x="567.5" y="345.2686">DELETE /Planning/{id}</text><polygon fill="#181818" points="560.5,376.4766,550.5,380.4766,560.5,384.4766,556.5,380.4766" style="stroke:#181818;stroke-width:1.0;"/><line style="stroke:#181818;stroke-width:1.0;stroke-dasharray:2.0,2.0;" x1="554.5" x2="748.5" y1="380.4766" y2="380.4766"/><text fill="#000000" font-family="sans-serif" font-size="13" font-weight="bold" lengthAdjust="spacing" textLength="7" x="566.5" y="375.6201">7</text><text fill="#000000" font-family="sans-serif" font-size="13" lengthAdjust="spacing" textLength="61" x="577.5" y="375.6201">status:200</text><polygon fill="#181818" points="59.5,406.8281,49.5,410.8281,59.5,414.8281,55.5,410.8281" style="stroke:#181818;stroke-width:1.0;"/><line style="stroke:#181818;stroke-width:1.0;stroke-dasharray:2.0,2.0;" x1="53.5" x2="543.5" y1="410.8281" y2="410.8281"/><text fill="#000000" font-family="sans-serif" font-size="13" font-weight="bold" lengthAdjust="spacing" textLength="7" x="65.5" y="405.9717">8</text><text fill="#000000" font-family="sans-serif" font-size="13" lengthAdjust="spacing" textLength="106" x="76.5" y="405.9717">success message</text><path d="M20,439.8281 L93,439.8281 L93,448.1797 L83,458.1797 L20,458.1797 L20,439.8281 " fill="#EEEEEE" style="stroke:#000000;stroke-width:1.5;"/><rect fill="none" height="156.1094" style="stroke:#000000;stroke-width:1.5;" width="804" x="20" y="439.8281"/><text fill="#000000" font-family="sans-serif" font-size="13" font-weight="bold" lengthAdjust="spacing" textLength="28" x="35" y="454.3232">loop</text><text fill="#000000" font-family="sans-serif" font-size="11" font-weight="bold" lengthAdjust="spacing" textLength="116" x="108" y="453.2471">[(list of dates) times]</text><polygon fill="#181818" points="527.5,492.8828,537.5,496.8828,527.5,500.8828,531.5,496.8828" style="stroke:#181818;stroke-width:1.0;"/><line style="stroke:#181818;stroke-width:1.0;" x1="48.5" x2="533.5" y1="496.8828" y2="496.8828"/><text fill="#000000" font-family="sans-serif" font-size="13" font-weight="bold" lengthAdjust="spacing" textLength="7" x="55.5" y="483.8506">9</text><text fill="#000000" font-family="sans-serif" font-size="13" lengthAdjust="spacing" textLength="457" x="66.5" y="475.6748">postPlanByPlateAndDate(plateList[n].plate, dateList[n].date,'GeneticAlgorithm',</text><text fill="#000000" font-family="sans-serif" font-size="13" lengthAdjust="spacing" textLength="247" x="66.5" y="492.0264">generations,crossover,mutation,population)</text><polygon fill="#181818" points="732.5,523.2344,742.5,527.2344,732.5,531.2344,736.5,527.2344" style="stroke:#181818;stroke-width:1.0;"/><line style="stroke:#181818;stroke-width:1.0;" x1="549.5" x2="738.5" y1="527.2344" y2="527.2344"/><text fill="#000000" font-family="sans-serif" font-size="13" font-weight="bold" lengthAdjust="spacing" textLength="14" x="556.5" y="522.3779">10</text><text fill="#000000" font-family="sans-serif" font-size="13" lengthAdjust="spacing" textLength="158" x="574.5" y="522.3779">POST /Planning body: data</text><polygon fill="#181818" points="560.5,553.5859,550.5,557.5859,560.5,561.5859,556.5,557.5859" style="stroke:#181818;stroke-width:1.0;"/><line style="stroke:#181818;stroke-width:1.0;stroke-dasharray:2.0,2.0;" x1="554.5" x2="748.5" y1="557.5859" y2="557.5859"/><text fill="#000000" font-family="sans-serif" font-size="13" font-weight="bold" lengthAdjust="spacing" textLength="14" x="566.5" y="552.7295">11</text><text fill="#000000" font-family="sans-serif" font-size="13" lengthAdjust="spacing" textLength="101" x="584.5" y="552.7295">status:201 (body)</text><polygon fill="#181818" points="59.5,583.9375,49.5,587.9375,59.5,591.9375,55.5,587.9375" style="stroke:#181818;stroke-width:1.0;"/><line style="stroke:#181818;stroke-width:1.0;stroke-dasharray:2.0,2.0;" x1="53.5" x2="543.5" y1="587.9375" y2="587.9375"/><text fill="#000000" font-family="sans-serif" font-size="13" font-weight="bold" lengthAdjust="spacing" textLength="14" x="65.5" y="583.0811">12</text><text fill="#000000" font-family="sans-serif" font-size="13" lengthAdjust="spacing" textLength="106" x="83.5" y="583.0811">success message</text><!--MD5=[9a34c8b1db2762f7f53007c64b17faf1]
@startuml
'https://plantuml.com/sequence-diagram

autonumber
actor GL
participant "sPA: SPA" as sPA
participant "logística: Logística" as MDL 


activate GL
GL ->sPA : Asks to create a fleet planning and inserts the fleet planning's data \n (number of generations, population, probability of crossover, \n probability of mutation)
activate sPA

sPA - -> MDL : GET /Planning body:data
activate MDL

MDL - -> sPA :  status:200

deactivate MDL

sPA - -> GL : success message
deactivate sPA
loop n times 
alt dataEntrega>dataAtual
GL -> sPA: Deletes aldready existing fleet plannings (id)
activate sPA
sPA -> MDL: DELETE /Planning/{id}
activate MDL
MDL - -> sPA: status:200
deactivate MDL
sPA - -> GL: success message
deactivate sPA
end
end

loop (list of dates) times
GL -> sPA: postPlanByPlateAndDate(plateList[n].plate, dateList[n].date,'GeneticAlgorithm', \ngenerations,crossover,mutation,population)
activate sPA
sPA -> MDL: POST /Planning body: data
activate MDL
MDL - -> sPA: status:201 (body)
deactivate MDL
sPA - -> GL: success message
deactivate sPA
end
deactivate sPA

deactivate GL


@enduml

@startuml

autonumber
actor GL
participant "sPA: SPA" as sPA
participant "logística: Logística" as MDL 


activate GL
GL ->sPA : Asks to create a fleet planning and inserts the fleet planning's data \n (number of generations, population, probability of crossover, \n probability of mutation)
activate sPA

sPA - -> MDL : GET /Planning body:data
activate MDL

MDL - -> sPA :  status:200

deactivate MDL

sPA - -> GL : success message
deactivate sPA
loop n times 
alt dataEntrega>dataAtual
GL -> sPA: Deletes aldready existing fleet plannings (id)
activate sPA
sPA -> MDL: DELETE /Planning/{id}
activate MDL
MDL - -> sPA: status:200
deactivate MDL
sPA - -> GL: success message
deactivate sPA
end
end

loop (list of dates) times
GL -> sPA: postPlanByPlateAndDate(plateList[n].plate, dateList[n].date,'GeneticAlgorithm', \ngenerations,crossover,mutation,population)
activate sPA
sPA -> MDL: POST /Planning body: data
activate MDL
MDL - -> sPA: status:201 (body)
deactivate MDL
sPA - -> GL: success message
deactivate sPA
end
deactivate sPA

deactivate GL


@enduml

PlantUML version 1.2022.7(Mon Aug 22 18:01:30 BST 2022)
(GPL source distribution)
Java Runtime: OpenJDK Runtime Environment
JVM: OpenJDK 64-Bit Server VM
Default Encoding: Cp1252
Language: pt
Country: PT
--></g></svg>