<?xml version="1.0" encoding="UTF-8" standalone="no"?><svg xmlns="http://www.w3.org/2000/svg" xmlns:xlink="http://www.w3.org/1999/xlink" contentStyleType="text/css" height="1291px" preserveAspectRatio="none" style="width:1844px;height:1291px;background:#FFFFFF;" version="1.1" viewBox="0 0 1844 1291" width="1844px" zoomAndPan="magnify"><defs/><g><rect fill="#FFFFFF" height="1069.1563" style="stroke:#181818;stroke-width:1.0;" width="10" x="323.5" y="131.3125"/><rect fill="#FFFFFF" height="1005.4531" style="stroke:#181818;stroke-width:1.0;" width="10" x="328.5" y="186.0156"/><rect fill="#FFFFFF" height="939.75" style="stroke:#181818;stroke-width:1.0;" width="10" x="593.5" y="221.3672"/><rect fill="#FFFFFF" height="879.0469" style="stroke:#181818;stroke-width:1.0;" width="10" x="751.5" y="251.7188"/><rect fill="#FFFFFF" height="818.3438" style="stroke:#181818;stroke-width:1.0;" width="10" x="909.5" y="282.0703"/><rect fill="#FFFFFF" height="741.2891" style="stroke:#181818;stroke-width:1.0;" width="10" x="1184.5" y="328.7734"/><rect fill="#FFFFFF" height="680.5859" style="stroke:#181818;stroke-width:1.0;" width="10" x="1319.5" y="359.125"/><rect fill="#FFFFFF" height="516.9219" style="stroke:#181818;stroke-width:1.0;" width="10" x="1497.5" y="432.0859"/><rect fill="#FFFFFF" height="30" style="stroke:#181818;stroke-width:1.0;" width="10" x="1632.5" y="462.4375"/><rect fill="#FFFFFF" height="55.7031" style="stroke:#181818;stroke-width:1.0;" width="10" x="1632.5" y="522.7891"/><rect fill="#FFFFFF" height="30" style="stroke:#181818;stroke-width:1.0;" width="10" x="1632.5" y="888.6563"/><rect fill="#FFFFFF" height="30" style="stroke:#181818;stroke-width:1.0;" width="10" x="1721" y="979.3594"/><rect fill="#FFFFFF" height="30" style="stroke:#181818;stroke-width:1.0;" width="10" x="1804.5" y="828.3047"/><rect fill="none" height="261.1641" style="stroke:#000000;stroke-width:1.5;" width="1676" x="10" y="537.7891"/><line style="stroke:#181818;stroke-width:0.5;stroke-dasharray:5.0,5.0;" x1="33" x2="33" y1="82.6094" y2="1209.4688"/><line style="stroke:#181818;stroke-width:0.5;stroke-dasharray:5.0,5.0;" x1="328" x2="328" y1="82.6094" y2="1209.4688"/><line style="stroke:#181818;stroke-width:0.5;stroke-dasharray:5.0,5.0;" x1="598.5" x2="598.5" y1="82.6094" y2="1209.4688"/><line style="stroke:#181818;stroke-width:0.5;stroke-dasharray:5.0,5.0;" x1="756" x2="756" y1="82.6094" y2="1209.4688"/><line style="stroke:#181818;stroke-width:0.5;stroke-dasharray:5.0,5.0;" x1="914.5" x2="914.5" y1="82.6094" y2="1209.4688"/><line style="stroke:#181818;stroke-width:0.5;stroke-dasharray:5.0,5.0;" x1="1189.5" x2="1189.5" y1="82.6094" y2="1209.4688"/><line style="stroke:#181818;stroke-width:0.5;stroke-dasharray:5.0,5.0;" x1="1324" x2="1324" y1="82.6094" y2="1209.4688"/><line style="stroke:#181818;stroke-width:0.5;stroke-dasharray:5.0,5.0;" x1="1425.5" x2="1425.5" y1="398.4297" y2="1209.4688"/><line style="stroke:#181818;stroke-width:0.5;stroke-dasharray:5.0,5.0;" x1="1502.5" x2="1502.5" y1="82.6094" y2="1209.4688"/><line style="stroke:#181818;stroke-width:0.5;stroke-dasharray:5.0,5.0;" x1="1637" x2="1637" y1="82.6094" y2="1209.4688"/><line style="stroke:#181818;stroke-width:0.5;stroke-dasharray:5.0,5.0;" x1="1726" x2="1726" y1="82.6094" y2="1209.4688"/><line style="stroke:#181818;stroke-width:0.5;stroke-dasharray:5.0,5.0;" x1="1809" x2="1809" y1="82.6094" y2="1209.4688"/><text fill="#000000" font-family="sans-serif" font-size="14" lengthAdjust="spacing" textLength="20" x="20.5" y="79.5332">GF</text><ellipse cx="33.5" cy="13.5" fill="#E2E2F0" rx="8" ry="8" style="stroke:#181818;stroke-width:0.5;"/><path d="M33.5,21.5 L33.5,48.5 M20.5,29.5 L46.5,29.5 M33.5,48.5 L20.5,63.5 M33.5,48.5 L46.5,63.5 " fill="none" style="stroke:#181818;stroke-width:0.5;"/><text fill="#000000" font-family="sans-serif" font-size="14" lengthAdjust="spacing" textLength="20" x="20.5" y="1223.002">GF</text><ellipse cx="33.5" cy="1234.5781" fill="#E2E2F0" rx="8" ry="8" style="stroke:#181818;stroke-width:0.5;"/><path d="M33.5,1242.5781 L33.5,1269.5781 M20.5,1250.5781 L46.5,1250.5781 M33.5,1269.5781 L20.5,1284.5781 M33.5,1269.5781 L46.5,1284.5781 " fill="none" style="stroke:#181818;stroke-width:0.5;"/><rect fill="#E2E2F0" height="31.6094" rx="2.5" ry="2.5" style="stroke:#181818;stroke-width:0.5;" width="123" x="267" y="50"/><text fill="#000000" font-family="sans-serif" font-size="14" lengthAdjust="spacing" textLength="109" x="274" y="71.5332">TruckComponent</text><rect fill="#E2E2F0" height="31.6094" rx="2.5" ry="2.5" style="stroke:#181818;stroke-width:0.5;" width="123" x="267" y="1208.4688"/><text fill="#000000" font-family="sans-serif" font-size="14" lengthAdjust="spacing" textLength="109" x="274" y="1230.002">TruckComponent</text><rect fill="#E2E2F0" height="31.6094" rx="2.5" ry="2.5" style="stroke:#181818;stroke-width:0.5;" width="144" x="526.5" y="50"/><text fill="#000000" font-family="sans-serif" font-size="14" lengthAdjust="spacing" textLength="130" x="533.5" y="71.5332">TruckServiceService</text><rect fill="#E2E2F0" height="31.6094" rx="2.5" ry="2.5" style="stroke:#181818;stroke-width:0.5;" width="144" x="526.5" y="1208.4688"/><text fill="#000000" font-family="sans-serif" font-size="14" lengthAdjust="spacing" textLength="130" x="533.5" y="1230.002">TruckServiceService</text><rect fill="#E2E2F0" height="31.6094" rx="2.5" ry="2.5" style="stroke:#181818;stroke-width:0.5;" width="43" x="735" y="50"/><text fill="#000000" font-family="sans-serif" font-size="14" lengthAdjust="spacing" textLength="29" x="742" y="71.5332">MDL</text><rect fill="#E2E2F0" height="31.6094" rx="2.5" ry="2.5" style="stroke:#181818;stroke-width:0.5;" width="43" x="735" y="1208.4688"/><text fill="#000000" font-family="sans-serif" font-size="14" lengthAdjust="spacing" textLength="29" x="742" y="1230.002">MDL</text><rect fill="#E2E2F0" height="31.6094" rx="2.5" ry="2.5" style="stroke:#181818;stroke-width:0.5;" width="88" x="870.5" y="50"/><text fill="#000000" font-family="sans-serif" font-size="14" lengthAdjust="spacing" textLength="74" x="877.5" y="71.5332">TruckRoute</text><rect fill="#E2E2F0" height="31.6094" rx="2.5" ry="2.5" style="stroke:#181818;stroke-width:0.5;" width="88" x="870.5" y="1208.4688"/><text fill="#000000" font-family="sans-serif" font-size="14" lengthAdjust="spacing" textLength="74" x="877.5" y="1230.002">TruckRoute</text><rect fill="#E2E2F0" height="31.6094" rx="2.5" ry="2.5" style="stroke:#181818;stroke-width:0.5;" width="112" x="1133.5" y="50"/><text fill="#000000" font-family="sans-serif" font-size="14" lengthAdjust="spacing" textLength="98" x="1140.5" y="71.5332">TruckController</text><rect fill="#E2E2F0" height="31.6094" rx="2.5" ry="2.5" style="stroke:#181818;stroke-width:0.5;" width="112" x="1133.5" y="1208.4688"/><text fill="#000000" font-family="sans-serif" font-size="14" lengthAdjust="spacing" textLength="98" x="1140.5" y="1230.002">TruckController</text><rect fill="#E2E2F0" height="31.6094" rx="2.5" ry="2.5" style="stroke:#181818;stroke-width:0.5;" width="97" x="1276" y="50"/><text fill="#000000" font-family="sans-serif" font-size="14" lengthAdjust="spacing" textLength="83" x="1283" y="71.5332">TruckService</text><rect fill="#E2E2F0" height="31.6094" rx="2.5" ry="2.5" style="stroke:#181818;stroke-width:0.5;" width="97" x="1276" y="1208.4688"/><text fill="#000000" font-family="sans-serif" font-size="14" lengthAdjust="spacing" textLength="83" x="1283" y="1230.002">TruckService</text><rect fill="#E2E2F0" height="31.6094" rx="2.5" ry="2.5" style="stroke:#181818;stroke-width:0.5;" width="50" x="1400.5" y="1208.4688"/><text fill="#000000" font-family="sans-serif" font-size="14" lengthAdjust="spacing" textLength="36" x="1407.5" y="1230.002">Truck</text><rect fill="#E2E2F0" height="31.6094" rx="2.5" ry="2.5" style="stroke:#181818;stroke-width:0.5;" width="84" x="1460.5" y="50"/><text fill="#000000" font-family="sans-serif" font-size="14" lengthAdjust="spacing" textLength="70" x="1467.5" y="71.5332">TruckRepo</text><rect fill="#E2E2F0" height="31.6094" rx="2.5" ry="2.5" style="stroke:#181818;stroke-width:0.5;" width="84" x="1460.5" y="1208.4688"/><text fill="#000000" font-family="sans-serif" font-size="14" lengthAdjust="spacing" textLength="70" x="1467.5" y="1230.002">TruckRepo</text><rect fill="#E2E2F0" height="31.6094" rx="2.5" ry="2.5" style="stroke:#181818;stroke-width:0.5;" width="77" x="1599" y="50"/><text fill="#000000" font-family="sans-serif" font-size="14" lengthAdjust="spacing" textLength="63" x="1606" y="71.5332">TruckMap</text><rect fill="#E2E2F0" height="31.6094" rx="2.5" ry="2.5" style="stroke:#181818;stroke-width:0.5;" width="77" x="1599" y="1208.4688"/><text fill="#000000" font-family="sans-serif" font-size="14" lengthAdjust="spacing" textLength="63" x="1606" y="1230.002">TruckMap</text><rect fill="#E2E2F0" height="31.6094" rx="2.5" ry="2.5" style="stroke:#181818;stroke-width:0.5;" width="80" x="1686" y="50"/><text fill="#000000" font-family="sans-serif" font-size="14" lengthAdjust="spacing" textLength="66" x="1693" y="71.5332">TruckDTO</text><rect fill="#E2E2F0" height="31.6094" rx="2.5" ry="2.5" style="stroke:#181818;stroke-width:0.5;" width="80" x="1686" y="1208.4688"/><text fill="#000000" font-family="sans-serif" font-size="14" lengthAdjust="spacing" textLength="66" x="1693" y="1230.002">TruckDTO</text><text fill="#000000" font-family="sans-serif" font-size="14" lengthAdjust="spacing" textLength="61" x="1776" y="79.5332">Database</text><path d="M1791.5,29 C1791.5,19 1809.5,19 1809.5,19 C1809.5,19 1827.5,19 1827.5,29 L1827.5,55 C1827.5,65 1809.5,65 1809.5,65 C1809.5,65 1791.5,65 1791.5,55 L1791.5,29 " fill="#E2E2F0" style="stroke:#181818;stroke-width:1.5;"/><path d="M1791.5,29 C1791.5,39 1809.5,39 1809.5,39 C1809.5,39 1827.5,39 1827.5,29 " fill="none" style="stroke:#181818;stroke-width:1.5;"/><text fill="#000000" font-family="sans-serif" font-size="14" lengthAdjust="spacing" textLength="61" x="1776" y="1223.002">Database</text><path d="M1791.5,1236.0781 C1791.5,1226.0781 1809.5,1226.0781 1809.5,1226.0781 C1809.5,1226.0781 1827.5,1226.0781 1827.5,1236.0781 L1827.5,1262.0781 C1827.5,1272.0781 1809.5,1272.0781 1809.5,1272.0781 C1809.5,1272.0781 1791.5,1272.0781 1791.5,1262.0781 L1791.5,1236.0781 " fill="#E2E2F0" style="stroke:#181818;stroke-width:1.5;"/><path d="M1791.5,1236.0781 C1791.5,1246.0781 1809.5,1246.0781 1809.5,1246.0781 C1809.5,1246.0781 1827.5,1246.0781 1827.5,1236.0781 " fill="none" style="stroke:#181818;stroke-width:1.5;"/><rect fill="#FFFFFF" height="1069.1563" style="stroke:#181818;stroke-width:1.0;" width="10" x="323.5" y="131.3125"/><rect fill="#FFFFFF" height="1005.4531" style="stroke:#181818;stroke-width:1.0;" width="10" x="328.5" y="186.0156"/><rect fill="#FFFFFF" height="939.75" style="stroke:#181818;stroke-width:1.0;" width="10" x="593.5" y="221.3672"/><rect fill="#FFFFFF" height="879.0469" style="stroke:#181818;stroke-width:1.0;" width="10" x="751.5" y="251.7188"/><rect fill="#FFFFFF" height="818.3438" style="stroke:#181818;stroke-width:1.0;" width="10" x="909.5" y="282.0703"/><rect fill="#FFFFFF" height="741.2891" style="stroke:#181818;stroke-width:1.0;" width="10" x="1184.5" y="328.7734"/><rect fill="#FFFFFF" height="680.5859" style="stroke:#181818;stroke-width:1.0;" width="10" x="1319.5" y="359.125"/><rect fill="#FFFFFF" height="516.9219" style="stroke:#181818;stroke-width:1.0;" width="10" x="1497.5" y="432.0859"/><rect fill="#FFFFFF" height="30" style="stroke:#181818;stroke-width:1.0;" width="10" x="1632.5" y="462.4375"/><rect fill="#FFFFFF" height="55.7031" style="stroke:#181818;stroke-width:1.0;" width="10" x="1632.5" y="522.7891"/><rect fill="#FFFFFF" height="30" style="stroke:#181818;stroke-width:1.0;" width="10" x="1632.5" y="888.6563"/><rect fill="#FFFFFF" height="30" style="stroke:#181818;stroke-width:1.0;" width="10" x="1721" y="979.3594"/><rect fill="#FFFFFF" height="30" style="stroke:#181818;stroke-width:1.0;" width="10" x="1804.5" y="828.3047"/><polygon fill="#181818" points="311.5,127.3125,321.5,131.3125,311.5,135.3125,315.5,131.3125" style="stroke:#181818;stroke-width:1.0;"/><line style="stroke:#181818;stroke-width:1.0;" x1="33.5" x2="317.5" y1="131.3125" y2="131.3125"/><text fill="#000000" font-family="sans-serif" font-size="13" font-weight="bold" lengthAdjust="spacing" textLength="7" x="40.5" y="118.2803">1</text><text fill="#000000" font-family="sans-serif" font-size="13" lengthAdjust="spacing" textLength="260" x="51.5" y="110.1045">introduces the data(plate,tare,massCapacity,</text><text fill="#000000" font-family="sans-serif" font-size="13" lengthAdjust="spacing" textLength="235" x="51.5" y="126.4561">maximumBattery,autonomy,chargeTime)</text><line style="stroke:#181818;stroke-width:1.0;" x1="333.5" x2="380.5" y1="173.0156" y2="173.0156"/><line style="stroke:#181818;stroke-width:1.0;" x1="380.5" x2="380.5" y1="173.0156" y2="186.0156"/><line style="stroke:#181818;stroke-width:1.0;" x1="339.5" x2="380.5" y1="186.0156" y2="186.0156"/><polygon fill="#181818" points="349.5,182.0156,339.5,186.0156,349.5,190.0156,345.5,186.0156" style="stroke:#181818;stroke-width:1.0;"/><text fill="#000000" font-family="sans-serif" font-size="13" font-weight="bold" lengthAdjust="spacing" textLength="7" x="345.5" y="159.9834">2</text><text fill="#000000" font-family="sans-serif" font-size="13" lengthAdjust="spacing" textLength="217" x="356.5" y="151.8076">createTruck(plate,tare,massCapacity,</text><text fill="#000000" font-family="sans-serif" font-size="13" lengthAdjust="spacing" textLength="235" x="356.5" y="168.1592">maximumBattery,autonomy,chargeTime)</text><polygon fill="#181818" points="581.5,217.3672,591.5,221.3672,581.5,225.3672,585.5,221.3672" style="stroke:#181818;stroke-width:1.0;"/><line style="stroke:#181818;stroke-width:1.0;" x1="338.5" x2="587.5" y1="221.3672" y2="221.3672"/><text fill="#000000" font-family="sans-serif" font-size="13" font-weight="bold" lengthAdjust="spacing" textLength="7" x="345.5" y="216.5107">3</text><text fill="#000000" font-family="sans-serif" font-size="13" lengthAdjust="spacing" textLength="105" x="356.5" y="216.5107">createTruck(truck)</text><polygon fill="#181818" points="739.5,247.7188,749.5,251.7188,739.5,255.7188,743.5,251.7188" style="stroke:#181818;stroke-width:1.0;"/><line style="stroke:#181818;stroke-width:1.0;" x1="603.5" x2="745.5" y1="251.7188" y2="251.7188"/><text fill="#000000" font-family="sans-serif" font-size="13" font-weight="bold" lengthAdjust="spacing" textLength="7" x="610.5" y="246.8623">4</text><text fill="#000000" font-family="sans-serif" font-size="13" lengthAdjust="spacing" textLength="76" x="621.5" y="246.8623">post(/Trucks)</text><polygon fill="#181818" points="897.5,278.0703,907.5,282.0703,897.5,286.0703,901.5,282.0703" style="stroke:#181818;stroke-width:1.0;"/><line style="stroke:#181818;stroke-width:1.0;" x1="761.5" x2="903.5" y1="282.0703" y2="282.0703"/><text fill="#000000" font-family="sans-serif" font-size="13" font-weight="bold" lengthAdjust="spacing" textLength="7" x="768.5" y="277.2139">5</text><text fill="#000000" font-family="sans-serif" font-size="13" lengthAdjust="spacing" textLength="76" x="779.5" y="277.2139">post(/Trucks)</text><polygon fill="#181818" points="1172.5,324.7734,1182.5,328.7734,1172.5,332.7734,1176.5,328.7734" style="stroke:#181818;stroke-width:1.0;"/><line style="stroke:#181818;stroke-width:1.0;" x1="919.5" x2="1178.5" y1="328.7734" y2="328.7734"/><text fill="#000000" font-family="sans-serif" font-size="13" font-weight="bold" lengthAdjust="spacing" textLength="7" x="926.5" y="315.7412">6</text><text fill="#000000" font-family="sans-serif" font-size="13" lengthAdjust="spacing" textLength="217" x="937.5" y="307.5654">createTruck(plate,tare,massCapacity,</text><text fill="#000000" font-family="sans-serif" font-size="13" lengthAdjust="spacing" textLength="235" x="937.5" y="323.917">maximumBattery,autonomy,chargeTime)</text><path d="M494,300.2461 L494,326.2461 L904,326.2461 L904,310.2461 L894,300.2461 L494,300.2461 " fill="#FEFFDD" style="stroke:#181818;stroke-width:0.5;"/><path d="M894,300.2461 L894,310.2461 L904,310.2461 L894,300.2461 " fill="#FEFFDD" style="stroke:#181818;stroke-width:0.5;"/><text fill="#000000" font-family="sans-serif" font-size="13" lengthAdjust="spacing" textLength="389" x="500" y="318.7412">The parameters sent in the method are inserted in the request body</text><polygon fill="#181818" points="1307.5,355.125,1317.5,359.125,1307.5,363.125,1311.5,359.125" style="stroke:#181818;stroke-width:1.0;"/><line style="stroke:#181818;stroke-width:1.0;" x1="1194.5" x2="1313.5" y1="359.125" y2="359.125"/><text fill="#000000" font-family="sans-serif" font-size="13" font-weight="bold" lengthAdjust="spacing" textLength="7" x="1201.5" y="354.2686">7</text><text fill="#000000" font-family="sans-serif" font-size="13" lengthAdjust="spacing" textLength="68" x="1212.5" y="354.2686">createTruck</text><polygon fill="#181818" points="1388.5,385.4766,1398.5,389.4766,1388.5,393.4766,1392.5,389.4766" style="stroke:#181818;stroke-width:1.0;"/><line style="stroke:#181818;stroke-width:1.0;" x1="1329.5" x2="1394.5" y1="389.4766" y2="389.4766"/><text fill="#000000" font-family="sans-serif" font-size="13" font-weight="bold" lengthAdjust="spacing" textLength="7" x="1336.5" y="384.6201">8</text><text fill="#000000" font-family="sans-serif" font-size="13" lengthAdjust="spacing" textLength="36" x="1347.5" y="384.6201">create</text><rect fill="#E2E2F0" height="31.6094" rx="2.5" ry="2.5" style="stroke:#181818;stroke-width:0.5;" width="50" x="1400.5" y="367.125"/><text fill="#000000" font-family="sans-serif" font-size="14" lengthAdjust="spacing" textLength="36" x="1407.5" y="388.6582">Truck</text><polygon fill="#181818" points="1485.5,428.0859,1495.5,432.0859,1485.5,436.0859,1489.5,432.0859" style="stroke:#181818;stroke-width:1.0;"/><line style="stroke:#181818;stroke-width:1.0;" x1="1329.5" x2="1491.5" y1="432.0859" y2="432.0859"/><text fill="#000000" font-family="sans-serif" font-size="13" font-weight="bold" lengthAdjust="spacing" textLength="7" x="1336.5" y="427.2295">9</text><text fill="#000000" font-family="sans-serif" font-size="13" lengthAdjust="spacing" textLength="26" x="1347.5" y="427.2295">save</text><polygon fill="#181818" points="1620.5,458.4375,1630.5,462.4375,1620.5,466.4375,1624.5,462.4375" style="stroke:#181818;stroke-width:1.0;"/><line style="stroke:#181818;stroke-width:1.0;" x1="1507.5" x2="1626.5" y1="462.4375" y2="462.4375"/><text fill="#000000" font-family="sans-serif" font-size="13" font-weight="bold" lengthAdjust="spacing" textLength="14" x="1514.5" y="457.5811">10</text><text fill="#000000" font-family="sans-serif" font-size="13" lengthAdjust="spacing" textLength="80" x="1532.5" y="457.5811">toPersistence</text><polygon fill="#181818" points="1620.5,518.7891,1630.5,522.7891,1620.5,526.7891,1624.5,522.7891" style="stroke:#181818;stroke-width:1.0;"/><line style="stroke:#181818;stroke-width:1.0;" x1="1507.5" x2="1626.5" y1="522.7891" y2="522.7891"/><text fill="#000000" font-family="sans-serif" font-size="13" font-weight="bold" lengthAdjust="spacing" textLength="14" x="1514.5" y="517.9326">11</text><text fill="#000000" font-family="sans-serif" font-size="13" lengthAdjust="spacing" textLength="39" x="1532.5" y="517.9326">isValid</text><path d="M10,537.7891 L71,537.7891 L71,546.1406 L61,556.1406 L10,556.1406 L10,537.7891 " fill="#EEEEEE" style="stroke:#000000;stroke-width:1.5;"/><rect fill="none" height="261.1641" style="stroke:#000000;stroke-width:1.5;" width="1676" x="10" y="537.7891"/><text fill="#000000" font-family="sans-serif" font-size="13" font-weight="bold" lengthAdjust="spacing" textLength="16" x="25" y="552.2842">alt</text><text fill="#000000" font-family="sans-serif" font-size="11" font-weight="bold" lengthAdjust="spacing" textLength="48" x="86" y="551.208">[!isValid]</text><polygon fill="#181818" points="1518.5,574.4922,1508.5,578.4922,1518.5,582.4922,1514.5,578.4922" style="stroke:#181818;stroke-width:1.0;"/><line style="stroke:#181818;stroke-width:1.0;stroke-dasharray:2.0,2.0;" x1="1512.5" x2="1636.5" y1="578.4922" y2="578.4922"/><text fill="#000000" font-family="sans-serif" font-size="13" font-weight="bold" lengthAdjust="spacing" textLength="14" x="1524.5" y="573.6357">12</text><text fill="#000000" font-family="sans-serif" font-size="13" lengthAdjust="spacing" textLength="83" x="1542.5" y="573.6357">error message</text><polygon fill="#181818" points="1340.5,604.8438,1330.5,608.8438,1340.5,612.8438,1336.5,608.8438" style="stroke:#181818;stroke-width:1.0;"/><line style="stroke:#181818;stroke-width:1.0;stroke-dasharray:2.0,2.0;" x1="1334.5" x2="1496.5" y1="608.8438" y2="608.8438"/><text fill="#000000" font-family="sans-serif" font-size="13" font-weight="bold" lengthAdjust="spacing" textLength="14" x="1346.5" y="603.9873">13</text><text fill="#000000" font-family="sans-serif" font-size="13" lengthAdjust="spacing" textLength="83" x="1364.5" y="603.9873">error message</text><polygon fill="#181818" points="1205.5,635.1953,1195.5,639.1953,1205.5,643.1953,1201.5,639.1953" style="stroke:#181818;stroke-width:1.0;"/><line style="stroke:#181818;stroke-width:1.0;stroke-dasharray:2.0,2.0;" x1="1199.5" x2="1318.5" y1="639.1953" y2="639.1953"/><text fill="#000000" font-family="sans-serif" font-size="13" font-weight="bold" lengthAdjust="spacing" textLength="14" x="1211.5" y="634.3389">14</text><text fill="#000000" font-family="sans-serif" font-size="13" lengthAdjust="spacing" textLength="83" x="1229.5" y="634.3389">error message</text><polygon fill="#181818" points="930.5,665.5469,920.5,669.5469,930.5,673.5469,926.5,669.5469" style="stroke:#181818;stroke-width:1.0;"/><line style="stroke:#181818;stroke-width:1.0;stroke-dasharray:2.0,2.0;" x1="924.5" x2="1183.5" y1="669.5469" y2="669.5469"/><text fill="#000000" font-family="sans-serif" font-size="13" font-weight="bold" lengthAdjust="spacing" textLength="14" x="936.5" y="664.6904">15</text><text fill="#000000" font-family="sans-serif" font-size="13" lengthAdjust="spacing" textLength="61" x="954.5" y="664.6904">status 400</text><polygon fill="#181818" points="772.5,695.8984,762.5,699.8984,772.5,703.8984,768.5,699.8984" style="stroke:#181818;stroke-width:1.0;"/><line style="stroke:#181818;stroke-width:1.0;stroke-dasharray:2.0,2.0;" x1="766.5" x2="908.5" y1="699.8984" y2="699.8984"/><text fill="#000000" font-family="sans-serif" font-size="13" font-weight="bold" lengthAdjust="spacing" textLength="14" x="778.5" y="695.042">16</text><text fill="#000000" font-family="sans-serif" font-size="13" lengthAdjust="spacing" textLength="91" x="796.5" y="695.042">failure message</text><polygon fill="#181818" points="614.5,726.25,604.5,730.25,614.5,734.25,610.5,730.25" style="stroke:#181818;stroke-width:1.0;"/><line style="stroke:#181818;stroke-width:1.0;stroke-dasharray:2.0,2.0;" x1="608.5" x2="750.5" y1="730.25" y2="730.25"/><text fill="#000000" font-family="sans-serif" font-size="13" font-weight="bold" lengthAdjust="spacing" textLength="14" x="620.5" y="725.3936">17</text><text fill="#000000" font-family="sans-serif" font-size="13" lengthAdjust="spacing" textLength="91" x="638.5" y="725.3936">failure message</text><polygon fill="#181818" points="349.5,756.6016,339.5,760.6016,349.5,764.6016,345.5,760.6016" style="stroke:#181818;stroke-width:1.0;"/><line style="stroke:#181818;stroke-width:1.0;stroke-dasharray:2.0,2.0;" x1="343.5" x2="592.5" y1="760.6016" y2="760.6016"/><text fill="#000000" font-family="sans-serif" font-size="13" font-weight="bold" lengthAdjust="spacing" textLength="14" x="355.5" y="755.7451">18</text><text fill="#000000" font-family="sans-serif" font-size="13" lengthAdjust="spacing" textLength="91" x="373.5" y="755.7451">failure message</text><polygon fill="#181818" points="44.5,786.9531,34.5,790.9531,44.5,794.9531,40.5,790.9531" style="stroke:#181818;stroke-width:1.0;"/><line style="stroke:#181818;stroke-width:1.0;stroke-dasharray:2.0,2.0;" x1="38.5" x2="327.5" y1="790.9531" y2="790.9531"/><text fill="#000000" font-family="sans-serif" font-size="13" font-weight="bold" lengthAdjust="spacing" textLength="14" x="50.5" y="786.0967">19</text><text fill="#000000" font-family="sans-serif" font-size="13" lengthAdjust="spacing" textLength="136" x="68.5" y="786.0967">display failure message</text><polygon fill="#181818" points="1792.5,824.3047,1802.5,828.3047,1792.5,832.3047,1796.5,828.3047" style="stroke:#181818;stroke-width:1.0;"/><line style="stroke:#181818;stroke-width:1.0;" x1="1507.5" x2="1798.5" y1="828.3047" y2="828.3047"/><text fill="#000000" font-family="sans-serif" font-size="13" font-weight="bold" lengthAdjust="spacing" textLength="14" x="1514.5" y="823.4482">20</text><text fill="#000000" font-family="sans-serif" font-size="13" lengthAdjust="spacing" textLength="36" x="1532.5" y="823.4482">create</text><polygon fill="#181818" points="1620.5,884.6563,1630.5,888.6563,1620.5,892.6563,1624.5,888.6563" style="stroke:#181818;stroke-width:1.0;"/><line style="stroke:#181818;stroke-width:1.0;" x1="1507.5" x2="1626.5" y1="888.6563" y2="888.6563"/><text fill="#000000" font-family="sans-serif" font-size="13" font-weight="bold" lengthAdjust="spacing" textLength="14" x="1514.5" y="883.7998">21</text><text fill="#000000" font-family="sans-serif" font-size="13" lengthAdjust="spacing" textLength="55" x="1532.5" y="883.7998">toDomain</text><polygon fill="#181818" points="1340.5,945.0078,1330.5,949.0078,1340.5,953.0078,1336.5,949.0078" style="stroke:#181818;stroke-width:1.0;"/><line style="stroke:#181818;stroke-width:1.0;stroke-dasharray:2.0,2.0;" x1="1334.5" x2="1501.5" y1="949.0078" y2="949.0078"/><text fill="#000000" font-family="sans-serif" font-size="13" font-weight="bold" lengthAdjust="spacing" textLength="14" x="1346.5" y="944.1514">22</text><text fill="#000000" font-family="sans-serif" font-size="13" lengthAdjust="spacing" textLength="4" x="1364.5" y="944.1514"> </text><polygon fill="#181818" points="1709,975.3594,1719,979.3594,1709,983.3594,1713,979.3594" style="stroke:#181818;stroke-width:1.0;"/><line style="stroke:#181818;stroke-width:1.0;" x1="1329.5" x2="1715" y1="979.3594" y2="979.3594"/><text fill="#000000" font-family="sans-serif" font-size="13" font-weight="bold" lengthAdjust="spacing" textLength="14" x="1336.5" y="974.5029">23</text><text fill="#000000" font-family="sans-serif" font-size="13" lengthAdjust="spacing" textLength="37" x="1354.5" y="974.5029">toDTO</text><polygon fill="#181818" points="1205.5,1035.7109,1195.5,1039.7109,1205.5,1043.7109,1201.5,1039.7109" style="stroke:#181818;stroke-width:1.0;"/><line style="stroke:#181818;stroke-width:1.0;stroke-dasharray:2.0,2.0;" x1="1199.5" x2="1323.5" y1="1039.7109" y2="1039.7109"/><text fill="#000000" font-family="sans-serif" font-size="13" font-weight="bold" lengthAdjust="spacing" textLength="14" x="1211.5" y="1034.8545">24</text><text fill="#000000" font-family="sans-serif" font-size="13" lengthAdjust="spacing" textLength="14" x="1229.5" y="1034.8545">ok</text><polygon fill="#181818" points="930.5,1066.0625,920.5,1070.0625,930.5,1074.0625,926.5,1070.0625" style="stroke:#181818;stroke-width:1.0;"/><line style="stroke:#181818;stroke-width:1.0;stroke-dasharray:2.0,2.0;" x1="924.5" x2="1188.5" y1="1070.0625" y2="1070.0625"/><text fill="#000000" font-family="sans-serif" font-size="13" font-weight="bold" lengthAdjust="spacing" textLength="14" x="936.5" y="1065.2061">25</text><text fill="#000000" font-family="sans-serif" font-size="13" lengthAdjust="spacing" textLength="61" x="954.5" y="1065.2061">status 201</text><polygon fill="#181818" points="772.5,1096.4141,762.5,1100.4141,772.5,1104.4141,768.5,1100.4141" style="stroke:#181818;stroke-width:1.0;"/><line style="stroke:#181818;stroke-width:1.0;stroke-dasharray:2.0,2.0;" x1="766.5" x2="913.5" y1="1100.4141" y2="1100.4141"/><text fill="#000000" font-family="sans-serif" font-size="13" font-weight="bold" lengthAdjust="spacing" textLength="14" x="778.5" y="1095.5576">26</text><text fill="#000000" font-family="sans-serif" font-size="13" lengthAdjust="spacing" textLength="106" x="796.5" y="1095.5576">success message</text><polygon fill="#181818" points="614.5,1126.7656,604.5,1130.7656,614.5,1134.7656,610.5,1130.7656" style="stroke:#181818;stroke-width:1.0;"/><line style="stroke:#181818;stroke-width:1.0;stroke-dasharray:2.0,2.0;" x1="608.5" x2="755.5" y1="1130.7656" y2="1130.7656"/><text fill="#000000" font-family="sans-serif" font-size="13" font-weight="bold" lengthAdjust="spacing" textLength="14" x="620.5" y="1125.9092">27</text><text fill="#000000" font-family="sans-serif" font-size="13" lengthAdjust="spacing" textLength="106" x="638.5" y="1125.9092">success message</text><polygon fill="#181818" points="349.5,1157.1172,339.5,1161.1172,349.5,1165.1172,345.5,1161.1172" style="stroke:#181818;stroke-width:1.0;"/><line style="stroke:#181818;stroke-width:1.0;stroke-dasharray:2.0,2.0;" x1="343.5" x2="597.5" y1="1161.1172" y2="1161.1172"/><text fill="#000000" font-family="sans-serif" font-size="13" font-weight="bold" lengthAdjust="spacing" textLength="14" x="355.5" y="1156.2607">28</text><text fill="#000000" font-family="sans-serif" font-size="13" lengthAdjust="spacing" textLength="106" x="373.5" y="1156.2607">success message</text><polygon fill="#181818" points="44.5,1187.4688,34.5,1191.4688,44.5,1195.4688,40.5,1191.4688" style="stroke:#181818;stroke-width:1.0;"/><line style="stroke:#181818;stroke-width:1.0;stroke-dasharray:2.0,2.0;" x1="38.5" x2="322.5" y1="1191.4688" y2="1191.4688"/><text fill="#000000" font-family="sans-serif" font-size="13" font-weight="bold" lengthAdjust="spacing" textLength="14" x="50.5" y="1186.6123">29</text><text fill="#000000" font-family="sans-serif" font-size="13" lengthAdjust="spacing" textLength="151" x="68.5" y="1186.6123">display success message</text><!--MD5=[9ec49fde4d6143bb78c9565f3d055131]
@startuml

autonumber
actor "GF" as GF
participant "TruckComponent" as COMP
participant "TruckServiceService" as SS
participant "TruckServiceService" as SS
participant "MDL" as MDL
participant "TruckRoute" as ROUTE
participant "TruckController" as CTR
participant "TruckService" as SERVICE
participant "Truck" as Path
participant "TruckRepo" as REPO
participant "TruckMap" as MAP
participant "TruckDTO" as DTO
database "Database" as DB

GF-> COMP : introduces the data(plate,tare,massCapacity,\nmaximumBattery,autonomy,chargeTime)
activate COMP
COMP -> COMP : createTruck(plate,tare,massCapacity,\nmaximumBattery,autonomy,chargeTime)
activate COMP
COMP -> SS : createTruck(truck)
activate SS
SS -> MDL : post(/Trucks)

activate MDL
MDL -> ROUTE: post(/Trucks)
activate ROUTE
ROUTE -> CTR : createTruck(plate,tare,massCapacity,\nmaximumBattery,autonomy,chargeTime)
note left
  The parameters sent in the method are inserted in the request body
end note
activate CTR
CTR -> SERVICE : createTruck
activate SERVICE
SERVICE -> Path** : create
SERVICE -> REPO : save
activate REPO
REPO -> MAP : toPersistence
activate MAP
deactivate MAP
REPO -> MAP : isValid
activate MAP
alt !isValid
MAP - -> REPO: error message
deactivate MAP
SERVICE <- -REPO : error message
CTR <- - SERVICE : error message
ROUTE <- - CTR : status 400
MDL <- - ROUTE : failure message

SS <- - MDL : failure message
SS - -> COMP : failure message
GF<- - COMP : display failure message
end
REPO -> DB : create
activate DB
deactivate DB
REPO -> MAP : toDomain
activate MAP
deactivate MAP
REPO - -> SERVICE
deactivate REPO
SERVICE -> DTO : toDTO
activate DTO
deactivate DTO
SERVICE - -> CTR : ok
deactivate SERVICE
CTR - -> ROUTE : status 201
deactivate CTR
ROUTE - -> MDL : success message
deactivate ROUTE
MDL - -> SS : success message
deactivate MDL

SS - -> COMP : success message
deactivate SS
deactivate MDL
GF<- - COMP : display success message
deactivate

@enduml

PlantUML version 1.2022.7(Mon Aug 22 18:01:30 WEST 2022)
(GPL source distribution)
Java Runtime: Java(TM) SE Runtime Environment
JVM: Java HotSpot(TM) 64-Bit Server VM
Default Encoding: Cp1252
Language: pt
Country: PT
--></g></svg>