<?xml version="1.0" encoding="UTF-8" standalone="no"?><svg xmlns="http://www.w3.org/2000/svg" xmlns:xlink="http://www.w3.org/1999/xlink" contentStyleType="text/css" height="953px" preserveAspectRatio="none" style="width:1595px;height:953px;background:#FFFFFF;" version="1.1" viewBox="0 0 1595 953" width="1595px" zoomAndPan="magnify"><defs/><g><rect fill="#FFFFFF" height="747.7344" style="stroke:#181818;stroke-width:1.0;" width="10" x="174.5" y="114.9609"/><rect fill="#FFFFFF" height="709.3828" style="stroke:#181818;stroke-width:1.0;" width="10" x="179.5" y="153.3125"/><rect fill="#FFFFFF" height="634.6797" style="stroke:#181818;stroke-width:1.0;" width="10" x="318" y="188.6641"/><rect fill="#FFFFFF" height="573.9766" style="stroke:#181818;stroke-width:1.0;" width="10" x="427" y="219.0156"/><rect fill="#FFFFFF" height="485.7461" style="stroke:#181818;stroke-width:1.0;" width="10" x="536" y="276.8945"/><rect fill="#FFFFFF" height="397.5156" style="stroke:#181818;stroke-width:1.0;" width="10" x="649" y="334.7734"/><rect fill="#FFFFFF" height="336.8125" style="stroke:#181818;stroke-width:1.0;" width="10" x="767" y="365.125"/><rect fill="#FFFFFF" height="191.4063" style="stroke:#181818;stroke-width:1.0;" width="10" x="931" y="395.4766"/><rect fill="#FFFFFF" height="60.3516" style="stroke:#181818;stroke-width:1.0;" width="10" x="1077" y="425.8281"/><rect fill="#FFFFFF" height="30" style="stroke:#181818;stroke-width:1.0;" width="10" x="1176" y="541.8828"/><rect fill="#FFFFFF" height="30" style="stroke:#181818;stroke-width:1.0;" width="10" x="1176" y="634.5859"/><rect fill="#FFFFFF" height="30" style="stroke:#181818;stroke-width:1.0;" width="10" x="1348" y="456.1797"/><rect fill="none" height="78.7031" style="stroke:#000000;stroke-width:1.5;" width="345.5" x="884" y="501.1797"/><rect fill="none" height="78.7031" style="stroke:#000000;stroke-width:1.5;" width="516" x="713.5" y="593.8828"/><line style="stroke:#181818;stroke-width:0.5;stroke-dasharray:5.0,5.0;" x1="18" x2="18" y1="82.6094" y2="871.6953"/><line style="stroke:#181818;stroke-width:0.5;stroke-dasharray:5.0,5.0;" x1="179" x2="179" y1="82.6094" y2="871.6953"/><line style="stroke:#181818;stroke-width:0.5;stroke-dasharray:5.0,5.0;" x1="323" x2="323" y1="82.6094" y2="871.6953"/><line style="stroke:#181818;stroke-width:0.5;stroke-dasharray:5.0,5.0;" x1="431.5" x2="431.5" y1="82.6094" y2="871.6953"/><line style="stroke:#181818;stroke-width:0.5;stroke-dasharray:5.0,5.0;" x1="541" x2="541" y1="82.6094" y2="871.6953"/><line style="stroke:#181818;stroke-width:0.5;stroke-dasharray:5.0,5.0;" x1="654" x2="654" y1="82.6094" y2="871.6953"/><line style="stroke:#181818;stroke-width:0.5;stroke-dasharray:5.0,5.0;" x1="771.5" x2="771.5" y1="82.6094" y2="871.6953"/><line style="stroke:#181818;stroke-width:0.5;stroke-dasharray:5.0,5.0;" x1="936" x2="936" y1="82.6094" y2="871.6953"/><line style="stroke:#181818;stroke-width:0.5;stroke-dasharray:5.0,5.0;" x1="1081.5" x2="1081.5" y1="82.6094" y2="871.6953"/><line style="stroke:#181818;stroke-width:0.5;stroke-dasharray:5.0,5.0;" x1="1180.5" x2="1180.5" y1="82.6094" y2="871.6953"/><line style="stroke:#181818;stroke-width:0.5;stroke-dasharray:5.0,5.0;" x1="1269.5" x2="1269.5" y1="82.6094" y2="871.6953"/><line style="stroke:#181818;stroke-width:0.5;stroke-dasharray:5.0,5.0;" x1="1352.5" x2="1352.5" y1="82.6094" y2="871.6953"/><line style="stroke:#181818;stroke-width:0.5;stroke-dasharray:5.0,5.0;" x1="1441.5" x2="1441.5" y1="82.6094" y2="871.6953"/><line style="stroke:#181818;stroke-width:0.5;stroke-dasharray:5.0,5.0;" x1="1543.5" x2="1543.5" y1="82.6094" y2="871.6953"/><text fill="#000000" font-family="sans-serif" font-size="14" lengthAdjust="spacing" textLength="20" x="5.5" y="79.5332">GF</text><ellipse cx="18.5" cy="13.5" fill="#E2E2F0" rx="8" ry="8" style="stroke:#181818;stroke-width:0.5;"/><path d="M18.5,21.5 L18.5,48.5 M5.5,29.5 L31.5,29.5 M18.5,48.5 L5.5,63.5 M18.5,48.5 L31.5,63.5 " fill="none" style="stroke:#181818;stroke-width:0.5;"/><text fill="#000000" font-family="sans-serif" font-size="14" lengthAdjust="spacing" textLength="20" x="5.5" y="885.2285">GF</text><ellipse cx="18.5" cy="896.8047" fill="#E2E2F0" rx="8" ry="8" style="stroke:#181818;stroke-width:0.5;"/><path d="M18.5,904.8047 L18.5,931.8047 M5.5,912.8047 L31.5,912.8047 M18.5,931.8047 L5.5,946.8047 M18.5,931.8047 L31.5,946.8047 " fill="none" style="stroke:#181818;stroke-width:0.5;"/><rect fill="#E2E2F0" height="31.6094" rx="2.5" ry="2.5" style="stroke:#181818;stroke-width:0.5;" width="123" x="118" y="50"/><text fill="#000000" font-family="sans-serif" font-size="14" lengthAdjust="spacing" textLength="109" x="125" y="71.5332">TruckComponent</text><rect fill="#E2E2F0" height="31.6094" rx="2.5" ry="2.5" style="stroke:#181818;stroke-width:0.5;" width="123" x="118" y="870.6953"/><text fill="#000000" font-family="sans-serif" font-size="14" lengthAdjust="spacing" textLength="109" x="125" y="892.2285">TruckComponent</text><rect fill="#E2E2F0" height="31.6094" rx="2.5" ry="2.5" style="stroke:#181818;stroke-width:0.5;" width="144" x="251" y="50"/><text fill="#000000" font-family="sans-serif" font-size="14" lengthAdjust="spacing" textLength="130" x="258" y="71.5332">TruckServiceService</text><rect fill="#E2E2F0" height="31.6094" rx="2.5" ry="2.5" style="stroke:#181818;stroke-width:0.5;" width="144" x="251" y="870.6953"/><text fill="#000000" font-family="sans-serif" font-size="14" lengthAdjust="spacing" textLength="130" x="258" y="892.2285">TruckServiceService</text><rect fill="#E2E2F0" height="31.6094" rx="2.5" ry="2.5" style="stroke:#181818;stroke-width:0.5;" width="43" x="410.5" y="50"/><text fill="#000000" font-family="sans-serif" font-size="14" lengthAdjust="spacing" textLength="29" x="417.5" y="71.5332">MDL</text><rect fill="#E2E2F0" height="31.6094" rx="2.5" ry="2.5" style="stroke:#181818;stroke-width:0.5;" width="43" x="410.5" y="870.6953"/><text fill="#000000" font-family="sans-serif" font-size="14" lengthAdjust="spacing" textLength="29" x="417.5" y="892.2285">MDL</text><rect fill="#E2E2F0" height="31.6094" rx="2.5" ry="2.5" style="stroke:#181818;stroke-width:0.5;" width="88" x="497" y="50"/><text fill="#000000" font-family="sans-serif" font-size="14" lengthAdjust="spacing" textLength="74" x="504" y="71.5332">TruckRoute</text><rect fill="#E2E2F0" height="31.6094" rx="2.5" ry="2.5" style="stroke:#181818;stroke-width:0.5;" width="88" x="497" y="870.6953"/><text fill="#000000" font-family="sans-serif" font-size="14" lengthAdjust="spacing" textLength="74" x="504" y="892.2285">TruckRoute</text><rect fill="#E2E2F0" height="31.6094" rx="2.5" ry="2.5" style="stroke:#181818;stroke-width:0.5;" width="112" x="598" y="50"/><text fill="#000000" font-family="sans-serif" font-size="14" lengthAdjust="spacing" textLength="98" x="605" y="71.5332">TruckController</text><rect fill="#E2E2F0" height="31.6094" rx="2.5" ry="2.5" style="stroke:#181818;stroke-width:0.5;" width="112" x="598" y="870.6953"/><text fill="#000000" font-family="sans-serif" font-size="14" lengthAdjust="spacing" textLength="98" x="605" y="892.2285">TruckController</text><rect fill="#E2E2F0" height="31.6094" rx="2.5" ry="2.5" style="stroke:#181818;stroke-width:0.5;" width="97" x="723.5" y="50"/><text fill="#000000" font-family="sans-serif" font-size="14" lengthAdjust="spacing" textLength="83" x="730.5" y="71.5332">TruckService</text><rect fill="#E2E2F0" height="31.6094" rx="2.5" ry="2.5" style="stroke:#181818;stroke-width:0.5;" width="97" x="723.5" y="870.6953"/><text fill="#000000" font-family="sans-serif" font-size="14" lengthAdjust="spacing" textLength="83" x="730.5" y="892.2285">TruckService</text><rect fill="#E2E2F0" height="31.6094" rx="2.5" ry="2.5" style="stroke:#181818;stroke-width:0.5;" width="84" x="894" y="50"/><text fill="#000000" font-family="sans-serif" font-size="14" lengthAdjust="spacing" textLength="70" x="901" y="71.5332">TruckRepo</text><rect fill="#E2E2F0" height="31.6094" rx="2.5" ry="2.5" style="stroke:#181818;stroke-width:0.5;" width="84" x="894" y="870.6953"/><text fill="#000000" font-family="sans-serif" font-size="14" lengthAdjust="spacing" textLength="70" x="901" y="892.2285">TruckRepo</text><rect fill="#E2E2F0" height="31.6094" rx="2.5" ry="2.5" style="stroke:#181818;stroke-width:0.5;" width="101" x="1031.5" y="50"/><text fill="#000000" font-family="sans-serif" font-size="14" lengthAdjust="spacing" textLength="87" x="1038.5" y="71.5332">TruckSchema</text><rect fill="#E2E2F0" height="31.6094" rx="2.5" ry="2.5" style="stroke:#181818;stroke-width:0.5;" width="101" x="1031.5" y="870.6953"/><text fill="#000000" font-family="sans-serif" font-size="14" lengthAdjust="spacing" textLength="87" x="1038.5" y="892.2285">TruckSchema</text><rect fill="#E2E2F0" height="31.6094" rx="2.5" ry="2.5" style="stroke:#181818;stroke-width:0.5;" width="77" x="1142.5" y="50"/><text fill="#000000" font-family="sans-serif" font-size="14" lengthAdjust="spacing" textLength="63" x="1149.5" y="71.5332">TruckMap</text><rect fill="#E2E2F0" height="31.6094" rx="2.5" ry="2.5" style="stroke:#181818;stroke-width:0.5;" width="77" x="1142.5" y="870.6953"/><text fill="#000000" font-family="sans-serif" font-size="14" lengthAdjust="spacing" textLength="63" x="1149.5" y="892.2285">TruckMap</text><rect fill="#E2E2F0" height="31.6094" rx="2.5" ry="2.5" style="stroke:#181818;stroke-width:0.5;" width="80" x="1229.5" y="50"/><text fill="#000000" font-family="sans-serif" font-size="14" lengthAdjust="spacing" textLength="66" x="1236.5" y="71.5332">TruckDTO</text><rect fill="#E2E2F0" height="31.6094" rx="2.5" ry="2.5" style="stroke:#181818;stroke-width:0.5;" width="80" x="1229.5" y="870.6953"/><text fill="#000000" font-family="sans-serif" font-size="14" lengthAdjust="spacing" textLength="66" x="1236.5" y="892.2285">TruckDTO</text><text fill="#000000" font-family="sans-serif" font-size="14" lengthAdjust="spacing" textLength="61" x="1319.5" y="79.5332">Database</text><path d="M1335,29 C1335,19 1353,19 1353,19 C1353,19 1371,19 1371,29 L1371,55 C1371,65 1353,65 1353,65 C1353,65 1335,65 1335,55 L1335,29 " fill="#E2E2F0" style="stroke:#181818;stroke-width:1.5;"/><path d="M1335,29 C1335,39 1353,39 1353,39 C1353,39 1371,39 1371,29 " fill="none" style="stroke:#181818;stroke-width:1.5;"/><text fill="#000000" font-family="sans-serif" font-size="14" lengthAdjust="spacing" textLength="61" x="1319.5" y="885.2285">Database</text><path d="M1335,898.3047 C1335,888.3047 1353,888.3047 1353,888.3047 C1353,888.3047 1371,888.3047 1371,898.3047 L1371,924.3047 C1371,934.3047 1353,934.3047 1353,934.3047 C1353,934.3047 1335,934.3047 1335,924.3047 L1335,898.3047 " fill="#E2E2F0" style="stroke:#181818;stroke-width:1.5;"/><path d="M1335,898.3047 C1335,908.3047 1353,908.3047 1353,908.3047 C1353,908.3047 1371,908.3047 1371,898.3047 " fill="none" style="stroke:#181818;stroke-width:1.5;"/><rect fill="#E2E2F0" height="31.6094" rx="2.5" ry="2.5" style="stroke:#181818;stroke-width:0.5;" width="91" x="1396.5" y="50"/><text fill="#000000" font-family="sans-serif" font-size="14" lengthAdjust="spacing" textLength="77" x="1403.5" y="71.5332">truckRecord</text><rect fill="#E2E2F0" height="31.6094" rx="2.5" ry="2.5" style="stroke:#181818;stroke-width:0.5;" width="91" x="1396.5" y="870.6953"/><text fill="#000000" font-family="sans-serif" font-size="14" lengthAdjust="spacing" textLength="77" x="1403.5" y="892.2285">truckRecord</text><rect fill="#E2E2F0" height="31.6094" rx="2.5" ry="2.5" style="stroke:#181818;stroke-width:0.5;" width="92" x="1497.5" y="50"/><text fill="#000000" font-family="sans-serif" font-size="14" lengthAdjust="spacing" textLength="78" x="1504.5" y="71.5332">trucksResult</text><rect fill="#E2E2F0" height="31.6094" rx="2.5" ry="2.5" style="stroke:#181818;stroke-width:0.5;" width="92" x="1497.5" y="870.6953"/><text fill="#000000" font-family="sans-serif" font-size="14" lengthAdjust="spacing" textLength="78" x="1504.5" y="892.2285">trucksResult</text><rect fill="#FFFFFF" height="747.7344" style="stroke:#181818;stroke-width:1.0;" width="10" x="174.5" y="114.9609"/><rect fill="#FFFFFF" height="709.3828" style="stroke:#181818;stroke-width:1.0;" width="10" x="179.5" y="153.3125"/><rect fill="#FFFFFF" height="634.6797" style="stroke:#181818;stroke-width:1.0;" width="10" x="318" y="188.6641"/><rect fill="#FFFFFF" height="573.9766" style="stroke:#181818;stroke-width:1.0;" width="10" x="427" y="219.0156"/><rect fill="#FFFFFF" height="485.7461" style="stroke:#181818;stroke-width:1.0;" width="10" x="536" y="276.8945"/><rect fill="#FFFFFF" height="397.5156" style="stroke:#181818;stroke-width:1.0;" width="10" x="649" y="334.7734"/><rect fill="#FFFFFF" height="336.8125" style="stroke:#181818;stroke-width:1.0;" width="10" x="767" y="365.125"/><rect fill="#FFFFFF" height="191.4063" style="stroke:#181818;stroke-width:1.0;" width="10" x="931" y="395.4766"/><rect fill="#FFFFFF" height="60.3516" style="stroke:#181818;stroke-width:1.0;" width="10" x="1077" y="425.8281"/><rect fill="#FFFFFF" height="30" style="stroke:#181818;stroke-width:1.0;" width="10" x="1176" y="541.8828"/><rect fill="#FFFFFF" height="30" style="stroke:#181818;stroke-width:1.0;" width="10" x="1176" y="634.5859"/><rect fill="#FFFFFF" height="30" style="stroke:#181818;stroke-width:1.0;" width="10" x="1348" y="456.1797"/><polygon fill="#181818" points="162.5,110.9609,172.5,114.9609,162.5,118.9609,166.5,114.9609" style="stroke:#181818;stroke-width:1.0;"/><line style="stroke:#181818;stroke-width:1.0;" x1="18.5" x2="168.5" y1="114.9609" y2="114.9609"/><text fill="#000000" font-family="sans-serif" font-size="13" font-weight="bold" lengthAdjust="spacing" textLength="7" x="25.5" y="110.1045">1</text><text fill="#000000" font-family="sans-serif" font-size="13" lengthAdjust="spacing" textLength="126" x="36.5" y="110.1045">asks to list the trucks</text><line style="stroke:#181818;stroke-width:1.0;" x1="184.5" x2="231.5" y1="140.3125" y2="140.3125"/><line style="stroke:#181818;stroke-width:1.0;" x1="231.5" x2="231.5" y1="140.3125" y2="153.3125"/><line style="stroke:#181818;stroke-width:1.0;" x1="190.5" x2="231.5" y1="153.3125" y2="153.3125"/><polygon fill="#181818" points="200.5,149.3125,190.5,153.3125,200.5,157.3125,196.5,153.3125" style="stroke:#181818;stroke-width:1.0;"/><text fill="#000000" font-family="sans-serif" font-size="13" font-weight="bold" lengthAdjust="spacing" textLength="7" x="196.5" y="135.4561">2</text><text fill="#000000" font-family="sans-serif" font-size="13" lengthAdjust="spacing" textLength="65" x="207.5" y="135.4561">getTrucks()</text><polygon fill="#181818" points="306,184.6641,316,188.6641,306,192.6641,310,188.6641" style="stroke:#181818;stroke-width:1.0;"/><line style="stroke:#181818;stroke-width:1.0;" x1="189.5" x2="312" y1="188.6641" y2="188.6641"/><text fill="#000000" font-family="sans-serif" font-size="13" font-weight="bold" lengthAdjust="spacing" textLength="7" x="196.5" y="183.8076">3</text><text fill="#000000" font-family="sans-serif" font-size="13" lengthAdjust="spacing" textLength="80" x="207.5" y="183.8076">getAllTrucks()</text><polygon fill="#181818" points="415,215.0156,425,219.0156,415,223.0156,419,219.0156" style="stroke:#181818;stroke-width:1.0;"/><line style="stroke:#181818;stroke-width:1.0;" x1="328" x2="421" y1="219.0156" y2="219.0156"/><text fill="#000000" font-family="sans-serif" font-size="13" font-weight="bold" lengthAdjust="spacing" textLength="7" x="335" y="214.1592">4</text><text fill="#000000" font-family="sans-serif" font-size="13" lengthAdjust="spacing" textLength="69" x="346" y="214.1592">get(/Trucks)</text><polygon fill="#181818" points="524,272.8945,534,276.8945,524,280.8945,528,276.8945" style="stroke:#181818;stroke-width:1.0;"/><line style="stroke:#181818;stroke-width:1.0;" x1="437" x2="530" y1="276.8945" y2="276.8945"/><text fill="#000000" font-family="sans-serif" font-size="13" font-weight="bold" lengthAdjust="spacing" textLength="7" x="444" y="272.0381">5</text><text fill="#000000" font-family="sans-serif" font-size="13" lengthAdjust="spacing" textLength="69" x="455" y="272.0381">get(/Trucks)</text><path d="M154,232.0156 L154,307.0156 L422,307.0156 L422,242.0156 L412,232.0156 L154,232.0156 " fill="#FEFFDD" style="stroke:#181818;stroke-width:0.5;"/><path d="M412,232.0156 L412,242.0156 L422,242.0156 L412,232.0156 " fill="#FEFFDD" style="stroke:#181818;stroke-width:0.5;"/><text fill="#000000" font-family="sans-serif" font-size="13" lengthAdjust="spacing" textLength="222" x="160" y="250.5107">Depending on the selected filter (plate)</text><text fill="#000000" font-family="sans-serif" font-size="13" lengthAdjust="spacing" textLength="206" x="160" y="266.8623">the request and the methods will be</text><text fill="#000000" font-family="sans-serif" font-size="13" lengthAdjust="spacing" textLength="247" x="160" y="283.2139">different, changing only the method's name</text><text fill="#000000" font-family="sans-serif" font-size="13" lengthAdjust="spacing" textLength="117" x="160" y="299.5654">and implementation.</text><polygon fill="#181818" points="637,330.7734,647,334.7734,637,338.7734,641,334.7734" style="stroke:#181818;stroke-width:1.0;"/><line style="stroke:#181818;stroke-width:1.0;" x1="546" x2="643" y1="334.7734" y2="334.7734"/><text fill="#000000" font-family="sans-serif" font-size="13" font-weight="bold" lengthAdjust="spacing" textLength="7" x="553" y="329.917">6</text><text fill="#000000" font-family="sans-serif" font-size="13" lengthAdjust="spacing" textLength="57" x="564" y="329.917">getTrucks</text><polygon fill="#181818" points="755,361.125,765,365.125,755,369.125,759,365.125" style="stroke:#181818;stroke-width:1.0;"/><line style="stroke:#181818;stroke-width:1.0;" x1="659" x2="761" y1="365.125" y2="365.125"/><text fill="#000000" font-family="sans-serif" font-size="13" font-weight="bold" lengthAdjust="spacing" textLength="7" x="666" y="360.2686">7</text><text fill="#000000" font-family="sans-serif" font-size="13" lengthAdjust="spacing" textLength="57" x="677" y="360.2686">getTrucks</text><polygon fill="#181818" points="919,391.4766,929,395.4766,919,399.4766,923,395.4766" style="stroke:#181818;stroke-width:1.0;"/><line style="stroke:#181818;stroke-width:1.0;" x1="777" x2="925" y1="395.4766" y2="395.4766"/><text fill="#000000" font-family="sans-serif" font-size="13" font-weight="bold" lengthAdjust="spacing" textLength="7" x="784" y="390.6201">8</text><text fill="#000000" font-family="sans-serif" font-size="13" lengthAdjust="spacing" textLength="124" x="795" y="390.6201">trucksResult = findAll</text><polygon fill="#181818" points="1065,421.8281,1075,425.8281,1065,429.8281,1069,425.8281" style="stroke:#181818;stroke-width:1.0;"/><line style="stroke:#181818;stroke-width:1.0;" x1="941" x2="1071" y1="425.8281" y2="425.8281"/><text fill="#000000" font-family="sans-serif" font-size="13" font-weight="bold" lengthAdjust="spacing" textLength="7" x="948" y="420.9717">9</text><text fill="#000000" font-family="sans-serif" font-size="13" lengthAdjust="spacing" textLength="106" x="959" y="420.9717">truckRecord = find</text><polygon fill="#181818" points="1336,452.1797,1346,456.1797,1336,460.1797,1340,456.1797" style="stroke:#181818;stroke-width:1.0;"/><line style="stroke:#181818;stroke-width:1.0;" x1="1087" x2="1342" y1="456.1797" y2="456.1797"/><text fill="#000000" font-family="sans-serif" font-size="13" font-weight="bold" lengthAdjust="spacing" textLength="14" x="1094" y="451.3232">10</text><text fill="#000000" font-family="sans-serif" font-size="13" lengthAdjust="spacing" textLength="20" x="1112" y="451.3232">find</text><path d="M884,501.1797 L957,501.1797 L957,509.5313 L947,519.5313 L884,519.5313 L884,501.1797 " fill="#EEEEEE" style="stroke:#000000;stroke-width:1.5;"/><rect fill="none" height="78.7031" style="stroke:#000000;stroke-width:1.5;" width="345.5" x="884" y="501.1797"/><text fill="#000000" font-family="sans-serif" font-size="13" font-weight="bold" lengthAdjust="spacing" textLength="28" x="899" y="515.6748">loop</text><text fill="#000000" font-family="sans-serif" font-size="11" font-weight="bold" lengthAdjust="spacing" textLength="131" x="972" y="514.5986">[element : truckRecord]</text><polygon fill="#181818" points="1164,537.8828,1174,541.8828,1164,545.8828,1168,541.8828" style="stroke:#181818;stroke-width:1.0;"/><line style="stroke:#181818;stroke-width:1.0;" x1="941" x2="1170" y1="541.8828" y2="541.8828"/><text fill="#000000" font-family="sans-serif" font-size="13" font-weight="bold" lengthAdjust="spacing" textLength="14" x="948" y="537.0264">11</text><text fill="#000000" font-family="sans-serif" font-size="13" lengthAdjust="spacing" textLength="55" x="966" y="537.0264">toDomain</text><path d="M713.5,593.8828 L786.5,593.8828 L786.5,602.2344 L776.5,612.2344 L713.5,612.2344 L713.5,593.8828 " fill="#EEEEEE" style="stroke:#000000;stroke-width:1.5;"/><rect fill="none" height="78.7031" style="stroke:#000000;stroke-width:1.5;" width="516" x="713.5" y="593.8828"/><text fill="#000000" font-family="sans-serif" font-size="13" font-weight="bold" lengthAdjust="spacing" textLength="28" x="728.5" y="608.3779">loop</text><text fill="#000000" font-family="sans-serif" font-size="11" font-weight="bold" lengthAdjust="spacing" textLength="109" x="801.5" y="607.3018">[linha : pathsResult]</text><polygon fill="#181818" points="1164,630.5859,1174,634.5859,1164,638.5859,1168,634.5859" style="stroke:#181818;stroke-width:1.0;"/><line style="stroke:#181818;stroke-width:1.0;" x1="777" x2="1170" y1="634.5859" y2="634.5859"/><text fill="#000000" font-family="sans-serif" font-size="13" font-weight="bold" lengthAdjust="spacing" textLength="14" x="784" y="629.7295">12</text><text fill="#000000" font-family="sans-serif" font-size="13" lengthAdjust="spacing" textLength="37" x="802" y="629.7295">toDTO</text><polygon fill="#181818" points="670,697.9375,660,701.9375,670,705.9375,666,701.9375" style="stroke:#181818;stroke-width:1.0;"/><line style="stroke:#181818;stroke-width:1.0;stroke-dasharray:2.0,2.0;" x1="664" x2="771" y1="701.9375" y2="701.9375"/><text fill="#000000" font-family="sans-serif" font-size="13" font-weight="bold" lengthAdjust="spacing" textLength="14" x="676" y="697.0811">13</text><text fill="#000000" font-family="sans-serif" font-size="13" lengthAdjust="spacing" textLength="66" x="694" y="697.0811">truckResult</text><polygon fill="#181818" points="557,728.2891,547,732.2891,557,736.2891,553,732.2891" style="stroke:#181818;stroke-width:1.0;"/><line style="stroke:#181818;stroke-width:1.0;stroke-dasharray:2.0,2.0;" x1="551" x2="653" y1="732.2891" y2="732.2891"/><text fill="#000000" font-family="sans-serif" font-size="13" font-weight="bold" lengthAdjust="spacing" textLength="14" x="563" y="727.4326">14</text><text fill="#000000" font-family="sans-serif" font-size="13" lengthAdjust="spacing" textLength="61" x="581" y="727.4326">status 200</text><polygon fill="#181818" points="448,758.6406,438,762.6406,448,766.6406,444,762.6406" style="stroke:#181818;stroke-width:1.0;"/><line style="stroke:#181818;stroke-width:1.0;stroke-dasharray:2.0,2.0;" x1="442" x2="540" y1="762.6406" y2="762.6406"/><text fill="#000000" font-family="sans-serif" font-size="13" font-weight="bold" lengthAdjust="spacing" textLength="14" x="454" y="757.7842">15</text><text fill="#000000" font-family="sans-serif" font-size="13" lengthAdjust="spacing" textLength="25" x="472" y="757.7842">data</text><polygon fill="#181818" points="339,788.9922,329,792.9922,339,796.9922,335,792.9922" style="stroke:#181818;stroke-width:1.0;"/><line style="stroke:#181818;stroke-width:1.0;stroke-dasharray:2.0,2.0;" x1="333" x2="431" y1="792.9922" y2="792.9922"/><text fill="#000000" font-family="sans-serif" font-size="13" font-weight="bold" lengthAdjust="spacing" textLength="14" x="345" y="788.1357">16</text><text fill="#000000" font-family="sans-serif" font-size="13" lengthAdjust="spacing" textLength="25" x="363" y="788.1357">data</text><polygon fill="#181818" points="200.5,819.3438,190.5,823.3438,200.5,827.3438,196.5,823.3438" style="stroke:#181818;stroke-width:1.0;"/><line style="stroke:#181818;stroke-width:1.0;stroke-dasharray:2.0,2.0;" x1="194.5" x2="322" y1="823.3438" y2="823.3438"/><text fill="#000000" font-family="sans-serif" font-size="13" font-weight="bold" lengthAdjust="spacing" textLength="14" x="206.5" y="818.4873">17</text><text fill="#000000" font-family="sans-serif" font-size="13" lengthAdjust="spacing" textLength="25" x="224.5" y="818.4873">data</text><polygon fill="#181818" points="29.5,849.6953,19.5,853.6953,29.5,857.6953,25.5,853.6953" style="stroke:#181818;stroke-width:1.0;"/><line style="stroke:#181818;stroke-width:1.0;stroke-dasharray:2.0,2.0;" x1="23.5" x2="178.5" y1="853.6953" y2="853.6953"/><text fill="#000000" font-family="sans-serif" font-size="13" font-weight="bold" lengthAdjust="spacing" textLength="14" x="35.5" y="848.8389">18</text><text fill="#000000" font-family="sans-serif" font-size="13" lengthAdjust="spacing" textLength="77" x="53.5" y="848.8389">displays data</text><!--MD5=[7eaacdc1c6d07fa06572a4bf661af2ce]
@startuml

autonumber
actor "GF" as GF
participant "TruckComponent" as COMP
participant "TruckServiceService" as SS
participant "MDL" as MDL
participant "TruckRoute" as ROUTE
participant "TruckController" as CTR
participant "TruckService" as SERVICE
participant "TruckRepo" as REPO
participant "TruckSchema" as SCHEMA
participant "TruckMap" as MAP
participant "TruckDTO" as DTO
database "Database" as DB
participant "truckRecord" as RECORD
participant "trucksResult" as Result


GF-> COMP : asks to list the trucks
activate COMP
COMP -> COMP : getTrucks()
activate COMP
COMP -> SS : getAllTrucks()
activate SS
SS -> MDL : get(/Trucks)
activate MDL
MDL -> ROUTE: get(/Trucks)

note left
  Depending on the selected filter (plate) 
  the request and the methods will be 
  different, changing only the method's name
  and implementation.
end note

activate ROUTE
ROUTE -> CTR : getTrucks
activate CTR
CTR -> SERVICE : getTrucks
activate SERVICE
SERVICE -> REPO : trucksResult = findAll
activate REPO
REPO -> SCHEMA : truckRecord = find
activate SCHEMA
SCHEMA -> DB : find
activate DB
deactivate DB
deactivate SCHEMA
loop element : truckRecord
REPO -> MAP : toDomain
activate MAP
deactivate MAP
end
deactivate REPO

loop linha : pathsResult
SERVICE -> MAP : toDTO
activate MAP
deactivate MAP
end
SERVICE - -> CTR : truckResult
deactivate SERVICE
CTR - -> ROUTE : status 200
deactivate CTR
ROUTE - -> MDL :  data
deactivate ROUTE
MDL - -> SS :  data
deactivate MDL
COMP <- - SS : data
deactivate SS
deactivate MDL
GF<- - COMP : displays data
deactivate ROUTE

@enduml

PlantUML version 1.2022.7(Mon Aug 22 18:01:30 WEST 2022)
(GPL source distribution)
Java Runtime: Java(TM) SE Runtime Environment
JVM: Java HotSpot(TM) 64-Bit Server VM
Default Encoding: Cp1252
Language: pt
Country: PT
--></g></svg>