<?xml version="1.0" encoding="UTF-8" standalone="no"?><svg xmlns="http://www.w3.org/2000/svg" xmlns:xlink="http://www.w3.org/1999/xlink" contentStyleType="text/css" height="1378px" preserveAspectRatio="none" style="width:2003px;height:1378px;background:#FFFFFF;" version="1.1" viewBox="0 0 2003 1378" width="2003px" zoomAndPan="magnify"><defs/><g><rect fill="#FFFFFF" height="1156.25" style="stroke:#181818;stroke-width:1.0;" width="10" x="328.5" y="131.3125"/><rect fill="#FFFFFF" height="1156.25" style="stroke:#181818;stroke-width:1.0;" width="10" x="328.5" y="131.3125"/><rect fill="#FFFFFF" height="1092.5469" style="stroke:#181818;stroke-width:1.0;" width="10" x="333.5" y="186.0156"/><rect fill="#FFFFFF" height="1026.8438" style="stroke:#181818;stroke-width:1.0;" width="10" x="598.5" y="221.3672"/><rect fill="#FFFFFF" height="966.1406" style="stroke:#181818;stroke-width:1.0;" width="10" x="756.5" y="251.7188"/><rect fill="#FFFFFF" height="905.4375" style="stroke:#181818;stroke-width:1.0;" width="10" x="914.5" y="282.0703"/><rect fill="#FFFFFF" height="844.7344" style="stroke:#181818;stroke-width:1.0;" width="10" x="1027.5" y="312.4219"/><rect fill="#FFFFFF" height="758.6797" style="stroke:#181818;stroke-width:1.0;" width="10" x="1162.5" y="342.7734"/><rect fill="#FFFFFF" height="30" style="stroke:#181818;stroke-width:1.0;" width="10" x="1313.5" y="373.125"/><rect fill="#FFFFFF" height="516.9219" style="stroke:#181818;stroke-width:1.0;" width="10" x="1313.5" y="493.8281"/><rect fill="#FFFFFF" height="30" style="stroke:#181818;stroke-width:1.0;" width="10" x="1508.5" y="524.1797"/><rect fill="#FFFFFF" height="55.7031" style="stroke:#181818;stroke-width:1.0;" width="10" x="1607.5" y="584.5313"/><rect fill="#FFFFFF" height="30" style="stroke:#181818;stroke-width:1.0;" width="10" x="1696" y="1041.1016"/><rect fill="#FFFFFF" height="30" style="stroke:#181818;stroke-width:1.0;" width="10" x="1779.5" y="950.3984"/><rect fill="#FFFFFF" height="30" style="stroke:#181818;stroke-width:1.0;" width="10" x="1845.5" y="433.4766"/><rect fill="#FFFFFF" height="30" style="stroke:#181818;stroke-width:1.0;" width="10" x="1935" y="890.0469"/><rect fill="none" height="261.1641" style="stroke:#000000;stroke-width:1.5;" width="1651" x="10" y="599.5313"/><line style="stroke:#181818;stroke-width:0.5;stroke-dasharray:5.0,5.0;" x1="33" x2="33" y1="82.6094" y2="1296.5625"/><line style="stroke:#181818;stroke-width:0.5;stroke-dasharray:5.0,5.0;" x1="328" x2="328" y1="82.6094" y2="1296.5625"/><line style="stroke:#181818;stroke-width:0.5;stroke-dasharray:5.0,5.0;" x1="603.5" x2="603.5" y1="82.6094" y2="1296.5625"/><line style="stroke:#181818;stroke-width:0.5;stroke-dasharray:5.0,5.0;" x1="761" x2="761" y1="82.6094" y2="1296.5625"/><line style="stroke:#181818;stroke-width:0.5;stroke-dasharray:5.0,5.0;" x1="919.5" x2="919.5" y1="82.6094" y2="1296.5625"/><line style="stroke:#181818;stroke-width:0.5;stroke-dasharray:5.0,5.0;" x1="1032.5" x2="1032.5" y1="82.6094" y2="1296.5625"/><line style="stroke:#181818;stroke-width:0.5;stroke-dasharray:5.0,5.0;" x1="1167" x2="1167" y1="82.6094" y2="1296.5625"/><line style="stroke:#181818;stroke-width:0.5;stroke-dasharray:5.0,5.0;" x1="1318.5" x2="1318.5" y1="82.6094" y2="1296.5625"/><line style="stroke:#181818;stroke-width:0.5;stroke-dasharray:5.0,5.0;" x1="1513" x2="1513" y1="82.6094" y2="1296.5625"/><line style="stroke:#181818;stroke-width:0.5;stroke-dasharray:5.0,5.0;" x1="1612" x2="1612" y1="82.6094" y2="1296.5625"/><line style="stroke:#181818;stroke-width:0.5;stroke-dasharray:5.0,5.0;" x1="1701" x2="1701" y1="82.6094" y2="1296.5625"/><line style="stroke:#181818;stroke-width:0.5;stroke-dasharray:5.0,5.0;" x1="1784" x2="1784" y1="82.6094" y2="1296.5625"/><line style="stroke:#181818;stroke-width:0.5;stroke-dasharray:5.0,5.0;" x1="1850" x2="1850" y1="82.6094" y2="1296.5625"/><line style="stroke:#181818;stroke-width:0.5;stroke-dasharray:5.0,5.0;" x1="1940" x2="1940" y1="82.6094" y2="1296.5625"/><text fill="#000000" font-family="sans-serif" font-size="14" lengthAdjust="spacing" textLength="20" x="20.5" y="79.5332">GF</text><ellipse cx="33.5" cy="13.5" fill="#E2E2F0" rx="8" ry="8" style="stroke:#181818;stroke-width:0.5;"/><path d="M33.5,21.5 L33.5,48.5 M20.5,29.5 L46.5,29.5 M33.5,48.5 L20.5,63.5 M33.5,48.5 L46.5,63.5 " fill="none" style="stroke:#181818;stroke-width:0.5;"/><text fill="#000000" font-family="sans-serif" font-size="14" lengthAdjust="spacing" textLength="20" x="20.5" y="1310.0957">GF</text><ellipse cx="33.5" cy="1321.6719" fill="#E2E2F0" rx="8" ry="8" style="stroke:#181818;stroke-width:0.5;"/><path d="M33.5,1329.6719 L33.5,1356.6719 M20.5,1337.6719 L46.5,1337.6719 M33.5,1356.6719 L20.5,1371.6719 M33.5,1356.6719 L46.5,1371.6719 " fill="none" style="stroke:#181818;stroke-width:0.5;"/><rect fill="#E2E2F0" height="31.6094" rx="2.5" ry="2.5" style="stroke:#181818;stroke-width:0.5;" width="123" x="267" y="50"/><text fill="#000000" font-family="sans-serif" font-size="14" lengthAdjust="spacing" textLength="109" x="274" y="71.5332">TruckComponent</text><rect fill="#E2E2F0" height="31.6094" rx="2.5" ry="2.5" style="stroke:#181818;stroke-width:0.5;" width="123" x="267" y="1295.5625"/><text fill="#000000" font-family="sans-serif" font-size="14" lengthAdjust="spacing" textLength="109" x="274" y="1317.0957">TruckComponent</text><rect fill="#E2E2F0" height="31.6094" rx="2.5" ry="2.5" style="stroke:#181818;stroke-width:0.5;" width="144" x="531.5" y="50"/><text fill="#000000" font-family="sans-serif" font-size="14" lengthAdjust="spacing" textLength="130" x="538.5" y="71.5332">TruckServiceService</text><rect fill="#E2E2F0" height="31.6094" rx="2.5" ry="2.5" style="stroke:#181818;stroke-width:0.5;" width="144" x="531.5" y="1295.5625"/><text fill="#000000" font-family="sans-serif" font-size="14" lengthAdjust="spacing" textLength="130" x="538.5" y="1317.0957">TruckServiceService</text><rect fill="#E2E2F0" height="31.6094" rx="2.5" ry="2.5" style="stroke:#181818;stroke-width:0.5;" width="43" x="740" y="50"/><text fill="#000000" font-family="sans-serif" font-size="14" lengthAdjust="spacing" textLength="29" x="747" y="71.5332">MDL</text><rect fill="#E2E2F0" height="31.6094" rx="2.5" ry="2.5" style="stroke:#181818;stroke-width:0.5;" width="43" x="740" y="1295.5625"/><text fill="#000000" font-family="sans-serif" font-size="14" lengthAdjust="spacing" textLength="29" x="747" y="1317.0957">MDL</text><rect fill="#E2E2F0" height="31.6094" rx="2.5" ry="2.5" style="stroke:#181818;stroke-width:0.5;" width="88" x="875.5" y="50"/><text fill="#000000" font-family="sans-serif" font-size="14" lengthAdjust="spacing" textLength="74" x="882.5" y="71.5332">TruckRoute</text><rect fill="#E2E2F0" height="31.6094" rx="2.5" ry="2.5" style="stroke:#181818;stroke-width:0.5;" width="88" x="875.5" y="1295.5625"/><text fill="#000000" font-family="sans-serif" font-size="14" lengthAdjust="spacing" textLength="74" x="882.5" y="1317.0957">TruckRoute</text><rect fill="#E2E2F0" height="31.6094" rx="2.5" ry="2.5" style="stroke:#181818;stroke-width:0.5;" width="112" x="976.5" y="50"/><text fill="#000000" font-family="sans-serif" font-size="14" lengthAdjust="spacing" textLength="98" x="983.5" y="71.5332">TruckController</text><rect fill="#E2E2F0" height="31.6094" rx="2.5" ry="2.5" style="stroke:#181818;stroke-width:0.5;" width="112" x="976.5" y="1295.5625"/><text fill="#000000" font-family="sans-serif" font-size="14" lengthAdjust="spacing" textLength="98" x="983.5" y="1317.0957">TruckController</text><rect fill="#E2E2F0" height="31.6094" rx="2.5" ry="2.5" style="stroke:#181818;stroke-width:0.5;" width="97" x="1119" y="50"/><text fill="#000000" font-family="sans-serif" font-size="14" lengthAdjust="spacing" textLength="83" x="1126" y="71.5332">TruckService</text><rect fill="#E2E2F0" height="31.6094" rx="2.5" ry="2.5" style="stroke:#181818;stroke-width:0.5;" width="97" x="1119" y="1295.5625"/><text fill="#000000" font-family="sans-serif" font-size="14" lengthAdjust="spacing" textLength="83" x="1126" y="1317.0957">TruckService</text><rect fill="#E2E2F0" height="31.6094" rx="2.5" ry="2.5" style="stroke:#181818;stroke-width:0.5;" width="84" x="1276.5" y="50"/><text fill="#000000" font-family="sans-serif" font-size="14" lengthAdjust="spacing" textLength="70" x="1283.5" y="71.5332">TruckRepo</text><rect fill="#E2E2F0" height="31.6094" rx="2.5" ry="2.5" style="stroke:#181818;stroke-width:0.5;" width="84" x="1276.5" y="1295.5625"/><text fill="#000000" font-family="sans-serif" font-size="14" lengthAdjust="spacing" textLength="70" x="1283.5" y="1317.0957">TruckRepo</text><rect fill="#E2E2F0" height="31.6094" rx="2.5" ry="2.5" style="stroke:#181818;stroke-width:0.5;" width="101" x="1463" y="50"/><text fill="#000000" font-family="sans-serif" font-size="14" lengthAdjust="spacing" textLength="87" x="1470" y="71.5332">TruckSchema</text><rect fill="#E2E2F0" height="31.6094" rx="2.5" ry="2.5" style="stroke:#181818;stroke-width:0.5;" width="101" x="1463" y="1295.5625"/><text fill="#000000" font-family="sans-serif" font-size="14" lengthAdjust="spacing" textLength="87" x="1470" y="1317.0957">TruckSchema</text><rect fill="#E2E2F0" height="31.6094" rx="2.5" ry="2.5" style="stroke:#181818;stroke-width:0.5;" width="77" x="1574" y="50"/><text fill="#000000" font-family="sans-serif" font-size="14" lengthAdjust="spacing" textLength="63" x="1581" y="71.5332">TruckMap</text><rect fill="#E2E2F0" height="31.6094" rx="2.5" ry="2.5" style="stroke:#181818;stroke-width:0.5;" width="77" x="1574" y="1295.5625"/><text fill="#000000" font-family="sans-serif" font-size="14" lengthAdjust="spacing" textLength="63" x="1581" y="1317.0957">TruckMap</text><rect fill="#E2E2F0" height="31.6094" rx="2.5" ry="2.5" style="stroke:#181818;stroke-width:0.5;" width="80" x="1661" y="50"/><text fill="#000000" font-family="sans-serif" font-size="14" lengthAdjust="spacing" textLength="66" x="1668" y="71.5332">TruckDTO</text><rect fill="#E2E2F0" height="31.6094" rx="2.5" ry="2.5" style="stroke:#181818;stroke-width:0.5;" width="80" x="1661" y="1295.5625"/><text fill="#000000" font-family="sans-serif" font-size="14" lengthAdjust="spacing" textLength="66" x="1668" y="1317.0957">TruckDTO</text><text fill="#000000" font-family="sans-serif" font-size="14" lengthAdjust="spacing" textLength="61" x="1751" y="79.5332">Database</text><path d="M1766.5,29 C1766.5,19 1784.5,19 1784.5,19 C1784.5,19 1802.5,19 1802.5,29 L1802.5,55 C1802.5,65 1784.5,65 1784.5,65 C1784.5,65 1766.5,65 1766.5,55 L1766.5,29 " fill="#E2E2F0" style="stroke:#181818;stroke-width:1.5;"/><path d="M1766.5,29 C1766.5,39 1784.5,39 1784.5,39 C1784.5,39 1802.5,39 1802.5,29 " fill="none" style="stroke:#181818;stroke-width:1.5;"/><text fill="#000000" font-family="sans-serif" font-size="14" lengthAdjust="spacing" textLength="61" x="1751" y="1310.0957">Database</text><path d="M1766.5,1323.1719 C1766.5,1313.1719 1784.5,1313.1719 1784.5,1313.1719 C1784.5,1313.1719 1802.5,1313.1719 1802.5,1323.1719 L1802.5,1349.1719 C1802.5,1359.1719 1784.5,1359.1719 1784.5,1359.1719 C1784.5,1359.1719 1766.5,1359.1719 1766.5,1349.1719 L1766.5,1323.1719 " fill="#E2E2F0" style="stroke:#181818;stroke-width:1.5;"/><path d="M1766.5,1323.1719 C1766.5,1333.1719 1784.5,1333.1719 1784.5,1333.1719 C1784.5,1333.1719 1802.5,1333.1719 1802.5,1323.1719 " fill="none" style="stroke:#181818;stroke-width:1.5;"/><rect fill="#E2E2F0" height="49.2188" rx="2.5" ry="2.5" style="stroke:#181818;stroke-width:0.5;" width="45" x="1828" y="32.3906"/><text fill="#000000" font-family="sans-serif" font-size="14" lengthAdjust="spacing" textLength="31" x="1835" y="53.9238">truck</text><text fill="#000000" font-family="sans-serif" font-size="14" lengthAdjust="spacing" textLength="28" x="1836.5" y="71.5332">:tath</text><rect fill="#E2E2F0" height="49.2188" rx="2.5" ry="2.5" style="stroke:#181818;stroke-width:0.5;" width="45" x="1828" y="1295.5625"/><text fill="#000000" font-family="sans-serif" font-size="14" lengthAdjust="spacing" textLength="31" x="1835" y="1317.0957">truck</text><text fill="#000000" font-family="sans-serif" font-size="14" lengthAdjust="spacing" textLength="28" x="1836.5" y="1334.7051">:tath</text><rect fill="#E2E2F0" height="31.6094" rx="2.5" ry="2.5" style="stroke:#181818;stroke-width:0.5;" width="114" x="1883" y="50"/><text fill="#000000" font-family="sans-serif" font-size="14" lengthAdjust="spacing" textLength="100" x="1890" y="71.5332">TruckDocument</text><rect fill="#E2E2F0" height="31.6094" rx="2.5" ry="2.5" style="stroke:#181818;stroke-width:0.5;" width="114" x="1883" y="1295.5625"/><text fill="#000000" font-family="sans-serif" font-size="14" lengthAdjust="spacing" textLength="100" x="1890" y="1317.0957">TruckDocument</text><rect fill="#FFFFFF" height="1156.25" style="stroke:#181818;stroke-width:1.0;" width="10" x="328.5" y="131.3125"/><rect fill="#FFFFFF" height="1156.25" style="stroke:#181818;stroke-width:1.0;" width="10" x="328.5" y="131.3125"/><rect fill="#FFFFFF" height="1092.5469" style="stroke:#181818;stroke-width:1.0;" width="10" x="333.5" y="186.0156"/><rect fill="#FFFFFF" height="1026.8438" style="stroke:#181818;stroke-width:1.0;" width="10" x="598.5" y="221.3672"/><rect fill="#FFFFFF" height="966.1406" style="stroke:#181818;stroke-width:1.0;" width="10" x="756.5" y="251.7188"/><rect fill="#FFFFFF" height="905.4375" style="stroke:#181818;stroke-width:1.0;" width="10" x="914.5" y="282.0703"/><rect fill="#FFFFFF" height="844.7344" style="stroke:#181818;stroke-width:1.0;" width="10" x="1027.5" y="312.4219"/><rect fill="#FFFFFF" height="758.6797" style="stroke:#181818;stroke-width:1.0;" width="10" x="1162.5" y="342.7734"/><rect fill="#FFFFFF" height="30" style="stroke:#181818;stroke-width:1.0;" width="10" x="1313.5" y="373.125"/><rect fill="#FFFFFF" height="516.9219" style="stroke:#181818;stroke-width:1.0;" width="10" x="1313.5" y="493.8281"/><rect fill="#FFFFFF" height="30" style="stroke:#181818;stroke-width:1.0;" width="10" x="1508.5" y="524.1797"/><rect fill="#FFFFFF" height="55.7031" style="stroke:#181818;stroke-width:1.0;" width="10" x="1607.5" y="584.5313"/><rect fill="#FFFFFF" height="30" style="stroke:#181818;stroke-width:1.0;" width="10" x="1696" y="1041.1016"/><rect fill="#FFFFFF" height="30" style="stroke:#181818;stroke-width:1.0;" width="10" x="1779.5" y="950.3984"/><rect fill="#FFFFFF" height="30" style="stroke:#181818;stroke-width:1.0;" width="10" x="1845.5" y="433.4766"/><rect fill="#FFFFFF" height="30" style="stroke:#181818;stroke-width:1.0;" width="10" x="1935" y="890.0469"/><polygon fill="#181818" points="316.5,127.3125,326.5,131.3125,316.5,135.3125,320.5,131.3125" style="stroke:#181818;stroke-width:1.0;"/><line style="stroke:#181818;stroke-width:1.0;" x1="33.5" x2="322.5" y1="131.3125" y2="131.3125"/><text fill="#000000" font-family="sans-serif" font-size="13" font-weight="bold" lengthAdjust="spacing" textLength="7" x="40.5" y="118.2803">1</text><text fill="#000000" font-family="sans-serif" font-size="13" lengthAdjust="spacing" textLength="260" x="51.5" y="110.1045">introduces the data(plate,tare,massCapacity,</text><text fill="#000000" font-family="sans-serif" font-size="13" lengthAdjust="spacing" textLength="235" x="51.5" y="126.4561">maximumBattery,autonomy,chargeTime)</text><line style="stroke:#181818;stroke-width:1.0;" x1="338.5" x2="385.5" y1="173.0156" y2="173.0156"/><line style="stroke:#181818;stroke-width:1.0;" x1="385.5" x2="385.5" y1="173.0156" y2="186.0156"/><line style="stroke:#181818;stroke-width:1.0;" x1="344.5" x2="385.5" y1="186.0156" y2="186.0156"/><polygon fill="#181818" points="354.5,182.0156,344.5,186.0156,354.5,190.0156,350.5,186.0156" style="stroke:#181818;stroke-width:1.0;"/><text fill="#000000" font-family="sans-serif" font-size="13" font-weight="bold" lengthAdjust="spacing" textLength="7" x="350.5" y="159.9834">2</text><text fill="#000000" font-family="sans-serif" font-size="13" lengthAdjust="spacing" textLength="220" x="361.5" y="151.8076">updateTruck(plate,tare,massCapacity,</text><text fill="#000000" font-family="sans-serif" font-size="13" lengthAdjust="spacing" textLength="235" x="361.5" y="168.1592">maximumBattery,autonomy,chargeTime)</text><polygon fill="#181818" points="586.5,217.3672,596.5,221.3672,586.5,225.3672,590.5,221.3672" style="stroke:#181818;stroke-width:1.0;"/><line style="stroke:#181818;stroke-width:1.0;" x1="343.5" x2="592.5" y1="221.3672" y2="221.3672"/><text fill="#000000" font-family="sans-serif" font-size="13" font-weight="bold" lengthAdjust="spacing" textLength="7" x="350.5" y="216.5107">3</text><text fill="#000000" font-family="sans-serif" font-size="13" lengthAdjust="spacing" textLength="108" x="361.5" y="216.5107">updateTruck(truck)</text><polygon fill="#181818" points="744.5,247.7188,754.5,251.7188,744.5,255.7188,748.5,251.7188" style="stroke:#181818;stroke-width:1.0;"/><line style="stroke:#181818;stroke-width:1.0;" x1="608.5" x2="750.5" y1="251.7188" y2="251.7188"/><text fill="#000000" font-family="sans-serif" font-size="13" font-weight="bold" lengthAdjust="spacing" textLength="7" x="615.5" y="246.8623">4</text><text fill="#000000" font-family="sans-serif" font-size="13" lengthAdjust="spacing" textLength="69" x="626.5" y="246.8623">put(/Trucks)</text><polygon fill="#181818" points="902.5,278.0703,912.5,282.0703,902.5,286.0703,906.5,282.0703" style="stroke:#181818;stroke-width:1.0;"/><line style="stroke:#181818;stroke-width:1.0;" x1="766.5" x2="908.5" y1="282.0703" y2="282.0703"/><text fill="#000000" font-family="sans-serif" font-size="13" font-weight="bold" lengthAdjust="spacing" textLength="7" x="773.5" y="277.2139">5</text><text fill="#000000" font-family="sans-serif" font-size="13" lengthAdjust="spacing" textLength="69" x="784.5" y="277.2139">put(/Trucks)</text><polygon fill="#181818" points="1015.5,308.4219,1025.5,312.4219,1015.5,316.4219,1019.5,312.4219" style="stroke:#181818;stroke-width:1.0;"/><line style="stroke:#181818;stroke-width:1.0;" x1="924.5" x2="1021.5" y1="312.4219" y2="312.4219"/><text fill="#000000" font-family="sans-serif" font-size="13" font-weight="bold" lengthAdjust="spacing" textLength="7" x="931.5" y="307.5654">6</text><text fill="#000000" font-family="sans-serif" font-size="13" lengthAdjust="spacing" textLength="71" x="942.5" y="307.5654">updateTruck</text><polygon fill="#181818" points="1150.5,338.7734,1160.5,342.7734,1150.5,346.7734,1154.5,342.7734" style="stroke:#181818;stroke-width:1.0;"/><line style="stroke:#181818;stroke-width:1.0;" x1="1037.5" x2="1156.5" y1="342.7734" y2="342.7734"/><text fill="#000000" font-family="sans-serif" font-size="13" font-weight="bold" lengthAdjust="spacing" textLength="7" x="1044.5" y="337.917">7</text><text fill="#000000" font-family="sans-serif" font-size="13" lengthAdjust="spacing" textLength="71" x="1055.5" y="337.917">updateTruck</text><polygon fill="#181818" points="1301.5,369.125,1311.5,373.125,1301.5,377.125,1305.5,373.125" style="stroke:#181818;stroke-width:1.0;"/><line style="stroke:#181818;stroke-width:1.0;" x1="1172.5" x2="1307.5" y1="373.125" y2="373.125"/><text fill="#000000" font-family="sans-serif" font-size="13" font-weight="bold" lengthAdjust="spacing" textLength="7" x="1179.5" y="368.2686">8</text><text fill="#000000" font-family="sans-serif" font-size="13" lengthAdjust="spacing" textLength="111" x="1190.5" y="368.2686">truck = findByPlate</text><polygon fill="#181818" points="1833.5,429.4766,1843.5,433.4766,1833.5,437.4766,1837.5,433.4766" style="stroke:#181818;stroke-width:1.0;"/><line style="stroke:#181818;stroke-width:1.0;" x1="1172.5" x2="1839.5" y1="433.4766" y2="433.4766"/><text fill="#000000" font-family="sans-serif" font-size="13" font-weight="bold" lengthAdjust="spacing" textLength="7" x="1179.5" y="428.6201">9</text><text fill="#000000" font-family="sans-serif" font-size="13" lengthAdjust="spacing" textLength="75" x="1190.5" y="428.6201">updates data</text><polygon fill="#181818" points="1301.5,489.8281,1311.5,493.8281,1301.5,497.8281,1305.5,493.8281" style="stroke:#181818;stroke-width:1.0;"/><line style="stroke:#181818;stroke-width:1.0;" x1="1172.5" x2="1307.5" y1="493.8281" y2="493.8281"/><text fill="#000000" font-family="sans-serif" font-size="13" font-weight="bold" lengthAdjust="spacing" textLength="14" x="1179.5" y="488.9717">10</text><text fill="#000000" font-family="sans-serif" font-size="13" lengthAdjust="spacing" textLength="26" x="1197.5" y="488.9717">save</text><polygon fill="#181818" points="1496.5,520.1797,1506.5,524.1797,1496.5,528.1797,1500.5,524.1797" style="stroke:#181818;stroke-width:1.0;"/><line style="stroke:#181818;stroke-width:1.0;" x1="1323.5" x2="1502.5" y1="524.1797" y2="524.1797"/><text fill="#000000" font-family="sans-serif" font-size="13" font-weight="bold" lengthAdjust="spacing" textLength="14" x="1330.5" y="519.3232">11</text><text fill="#000000" font-family="sans-serif" font-size="13" lengthAdjust="spacing" textLength="148" x="1348.5" y="519.3232">truckDocument = findOne</text><polygon fill="#181818" points="1595.5,580.5313,1605.5,584.5313,1595.5,588.5313,1599.5,584.5313" style="stroke:#181818;stroke-width:1.0;"/><line style="stroke:#181818;stroke-width:1.0;" x1="1323.5" x2="1601.5" y1="584.5313" y2="584.5313"/><text fill="#000000" font-family="sans-serif" font-size="13" font-weight="bold" lengthAdjust="spacing" textLength="14" x="1330.5" y="579.6748">12</text><text fill="#000000" font-family="sans-serif" font-size="13" lengthAdjust="spacing" textLength="39" x="1348.5" y="579.6748">isValid</text><path d="M10,599.5313 L71,599.5313 L71,607.8828 L61,617.8828 L10,617.8828 L10,599.5313 " fill="#EEEEEE" style="stroke:#000000;stroke-width:1.5;"/><rect fill="none" height="261.1641" style="stroke:#000000;stroke-width:1.5;" width="1651" x="10" y="599.5313"/><text fill="#000000" font-family="sans-serif" font-size="13" font-weight="bold" lengthAdjust="spacing" textLength="16" x="25" y="614.0264">alt</text><text fill="#000000" font-family="sans-serif" font-size="11" font-weight="bold" lengthAdjust="spacing" textLength="48" x="86" y="612.9502">[!isValid]</text><polygon fill="#181818" points="1334.5,636.2344,1324.5,640.2344,1334.5,644.2344,1330.5,640.2344" style="stroke:#181818;stroke-width:1.0;"/><line style="stroke:#181818;stroke-width:1.0;stroke-dasharray:2.0,2.0;" x1="1328.5" x2="1611.5" y1="640.2344" y2="640.2344"/><text fill="#000000" font-family="sans-serif" font-size="13" font-weight="bold" lengthAdjust="spacing" textLength="14" x="1340.5" y="635.3779">13</text><text fill="#000000" font-family="sans-serif" font-size="13" lengthAdjust="spacing" textLength="83" x="1358.5" y="635.3779">error message</text><polygon fill="#181818" points="1183.5,666.5859,1173.5,670.5859,1183.5,674.5859,1179.5,670.5859" style="stroke:#181818;stroke-width:1.0;"/><line style="stroke:#181818;stroke-width:1.0;stroke-dasharray:2.0,2.0;" x1="1177.5" x2="1312.5" y1="670.5859" y2="670.5859"/><text fill="#000000" font-family="sans-serif" font-size="13" font-weight="bold" lengthAdjust="spacing" textLength="14" x="1189.5" y="665.7295">14</text><text fill="#000000" font-family="sans-serif" font-size="13" lengthAdjust="spacing" textLength="83" x="1207.5" y="665.7295">error message</text><polygon fill="#181818" points="1048.5,696.9375,1038.5,700.9375,1048.5,704.9375,1044.5,700.9375" style="stroke:#181818;stroke-width:1.0;"/><line style="stroke:#181818;stroke-width:1.0;stroke-dasharray:2.0,2.0;" x1="1042.5" x2="1161.5" y1="700.9375" y2="700.9375"/><text fill="#000000" font-family="sans-serif" font-size="13" font-weight="bold" lengthAdjust="spacing" textLength="14" x="1054.5" y="696.0811">15</text><text fill="#000000" font-family="sans-serif" font-size="13" lengthAdjust="spacing" textLength="83" x="1072.5" y="696.0811">error message</text><polygon fill="#181818" points="935.5,727.2891,925.5,731.2891,935.5,735.2891,931.5,731.2891" style="stroke:#181818;stroke-width:1.0;"/><line style="stroke:#181818;stroke-width:1.0;stroke-dasharray:2.0,2.0;" x1="929.5" x2="1026.5" y1="731.2891" y2="731.2891"/><text fill="#000000" font-family="sans-serif" font-size="13" font-weight="bold" lengthAdjust="spacing" textLength="14" x="941.5" y="726.4326">16</text><text fill="#000000" font-family="sans-serif" font-size="13" lengthAdjust="spacing" textLength="61" x="959.5" y="726.4326">status 400</text><polygon fill="#181818" points="777.5,757.6406,767.5,761.6406,777.5,765.6406,773.5,761.6406" style="stroke:#181818;stroke-width:1.0;"/><line style="stroke:#181818;stroke-width:1.0;stroke-dasharray:2.0,2.0;" x1="771.5" x2="913.5" y1="761.6406" y2="761.6406"/><text fill="#000000" font-family="sans-serif" font-size="13" font-weight="bold" lengthAdjust="spacing" textLength="14" x="783.5" y="756.7842">17</text><text fill="#000000" font-family="sans-serif" font-size="13" lengthAdjust="spacing" textLength="91" x="801.5" y="756.7842">failure message</text><polygon fill="#181818" points="619.5,787.9922,609.5,791.9922,619.5,795.9922,615.5,791.9922" style="stroke:#181818;stroke-width:1.0;"/><line style="stroke:#181818;stroke-width:1.0;stroke-dasharray:2.0,2.0;" x1="613.5" x2="755.5" y1="791.9922" y2="791.9922"/><text fill="#000000" font-family="sans-serif" font-size="13" font-weight="bold" lengthAdjust="spacing" textLength="14" x="625.5" y="787.1357">18</text><text fill="#000000" font-family="sans-serif" font-size="13" lengthAdjust="spacing" textLength="91" x="643.5" y="787.1357">failure message</text><polygon fill="#181818" points="354.5,818.3438,344.5,822.3438,354.5,826.3438,350.5,822.3438" style="stroke:#181818;stroke-width:1.0;"/><line style="stroke:#181818;stroke-width:1.0;stroke-dasharray:2.0,2.0;" x1="348.5" x2="597.5" y1="822.3438" y2="822.3438"/><text fill="#000000" font-family="sans-serif" font-size="13" font-weight="bold" lengthAdjust="spacing" textLength="14" x="360.5" y="817.4873">19</text><text fill="#000000" font-family="sans-serif" font-size="13" lengthAdjust="spacing" textLength="91" x="378.5" y="817.4873">failure message</text><polygon fill="#181818" points="44.5,848.6953,34.5,852.6953,44.5,856.6953,40.5,852.6953" style="stroke:#181818;stroke-width:1.0;"/><line style="stroke:#181818;stroke-width:1.0;stroke-dasharray:2.0,2.0;" x1="38.5" x2="332.5" y1="852.6953" y2="852.6953"/><text fill="#000000" font-family="sans-serif" font-size="13" font-weight="bold" lengthAdjust="spacing" textLength="14" x="50.5" y="847.8389">20</text><text fill="#000000" font-family="sans-serif" font-size="13" lengthAdjust="spacing" textLength="136" x="68.5" y="847.8389">display failure message</text><polygon fill="#181818" points="1923,886.0469,1933,890.0469,1923,894.0469,1927,890.0469" style="stroke:#181818;stroke-width:1.0;"/><line style="stroke:#181818;stroke-width:1.0;" x1="1323.5" x2="1929" y1="890.0469" y2="890.0469"/><text fill="#000000" font-family="sans-serif" font-size="13" font-weight="bold" lengthAdjust="spacing" textLength="14" x="1330.5" y="885.1904">21</text><text fill="#000000" font-family="sans-serif" font-size="13" lengthAdjust="spacing" textLength="75" x="1348.5" y="885.1904">updates data</text><polygon fill="#181818" points="1767.5,946.3984,1777.5,950.3984,1767.5,954.3984,1771.5,950.3984" style="stroke:#181818;stroke-width:1.0;"/><line style="stroke:#181818;stroke-width:1.0;" x1="1323.5" x2="1773.5" y1="950.3984" y2="950.3984"/><text fill="#000000" font-family="sans-serif" font-size="13" font-weight="bold" lengthAdjust="spacing" textLength="14" x="1330.5" y="945.542">22</text><text fill="#000000" font-family="sans-serif" font-size="13" lengthAdjust="spacing" textLength="26" x="1348.5" y="945.542">save</text><polygon fill="#181818" points="1183.5,1006.75,1173.5,1010.75,1183.5,1014.75,1179.5,1010.75" style="stroke:#181818;stroke-width:1.0;"/><line style="stroke:#181818;stroke-width:1.0;stroke-dasharray:2.0,2.0;" x1="1177.5" x2="1317.5" y1="1010.75" y2="1010.75"/><text fill="#000000" font-family="sans-serif" font-size="13" font-weight="bold" lengthAdjust="spacing" textLength="14" x="1189.5" y="1005.8936">23</text><text fill="#000000" font-family="sans-serif" font-size="13" lengthAdjust="spacing" textLength="66" x="1207.5" y="1005.8936">truckResult</text><polygon fill="#181818" points="1684,1037.1016,1694,1041.1016,1684,1045.1016,1688,1041.1016" style="stroke:#181818;stroke-width:1.0;"/><line style="stroke:#181818;stroke-width:1.0;" x1="1172.5" x2="1690" y1="1041.1016" y2="1041.1016"/><text fill="#000000" font-family="sans-serif" font-size="13" font-weight="bold" lengthAdjust="spacing" textLength="14" x="1179.5" y="1036.2451">24</text><text fill="#000000" font-family="sans-serif" font-size="13" lengthAdjust="spacing" textLength="37" x="1197.5" y="1036.2451">toDTO</text><polygon fill="#181818" points="1048.5,1097.4531,1038.5,1101.4531,1048.5,1105.4531,1044.5,1101.4531" style="stroke:#181818;stroke-width:1.0;"/><line style="stroke:#181818;stroke-width:1.0;stroke-dasharray:2.0,2.0;" x1="1042.5" x2="1166.5" y1="1101.4531" y2="1101.4531"/><text fill="#000000" font-family="sans-serif" font-size="13" font-weight="bold" lengthAdjust="spacing" textLength="14" x="1054.5" y="1096.5967">25</text><text fill="#000000" font-family="sans-serif" font-size="13" lengthAdjust="spacing" textLength="14" x="1072.5" y="1096.5967">ok</text><polygon fill="#181818" points="935.5,1153.1563,925.5,1157.1563,935.5,1161.1563,931.5,1157.1563" style="stroke:#181818;stroke-width:1.0;"/><line style="stroke:#181818;stroke-width:1.0;stroke-dasharray:2.0,2.0;" x1="929.5" x2="1031.5" y1="1157.1563" y2="1157.1563"/><text fill="#000000" font-family="sans-serif" font-size="13" font-weight="bold" lengthAdjust="spacing" textLength="14" x="941.5" y="1152.2998">26</text><text fill="#000000" font-family="sans-serif" font-size="13" lengthAdjust="spacing" textLength="61" x="959.5" y="1152.2998">status 200</text><polygon fill="#181818" points="777.5,1183.5078,767.5,1187.5078,777.5,1191.5078,773.5,1187.5078" style="stroke:#181818;stroke-width:1.0;"/><line style="stroke:#181818;stroke-width:1.0;stroke-dasharray:2.0,2.0;" x1="771.5" x2="918.5" y1="1187.5078" y2="1187.5078"/><text fill="#000000" font-family="sans-serif" font-size="13" font-weight="bold" lengthAdjust="spacing" textLength="14" x="783.5" y="1182.6514">27</text><text fill="#000000" font-family="sans-serif" font-size="13" lengthAdjust="spacing" textLength="106" x="801.5" y="1182.6514">success message</text><polygon fill="#181818" points="619.5,1213.8594,609.5,1217.8594,619.5,1221.8594,615.5,1217.8594" style="stroke:#181818;stroke-width:1.0;"/><line style="stroke:#181818;stroke-width:1.0;stroke-dasharray:2.0,2.0;" x1="613.5" x2="760.5" y1="1217.8594" y2="1217.8594"/><text fill="#000000" font-family="sans-serif" font-size="13" font-weight="bold" lengthAdjust="spacing" textLength="14" x="625.5" y="1213.0029">28</text><text fill="#000000" font-family="sans-serif" font-size="13" lengthAdjust="spacing" textLength="106" x="643.5" y="1213.0029">success message</text><polygon fill="#181818" points="354.5,1244.2109,344.5,1248.2109,354.5,1252.2109,350.5,1248.2109" style="stroke:#181818;stroke-width:1.0;"/><line style="stroke:#181818;stroke-width:1.0;stroke-dasharray:2.0,2.0;" x1="348.5" x2="602.5" y1="1248.2109" y2="1248.2109"/><text fill="#000000" font-family="sans-serif" font-size="13" font-weight="bold" lengthAdjust="spacing" textLength="14" x="360.5" y="1243.3545">29</text><text fill="#000000" font-family="sans-serif" font-size="13" lengthAdjust="spacing" textLength="106" x="378.5" y="1243.3545">success message</text><polygon fill="#181818" points="44.5,1274.5625,34.5,1278.5625,44.5,1282.5625,40.5,1278.5625" style="stroke:#181818;stroke-width:1.0;"/><line style="stroke:#181818;stroke-width:1.0;stroke-dasharray:2.0,2.0;" x1="38.5" x2="327.5" y1="1278.5625" y2="1278.5625"/><text fill="#000000" font-family="sans-serif" font-size="13" font-weight="bold" lengthAdjust="spacing" textLength="14" x="50.5" y="1273.7061">30</text><text fill="#000000" font-family="sans-serif" font-size="13" lengthAdjust="spacing" textLength="158" x="68.5" y="1273.7061">displays success message</text><!--MD5=[5c604b030a4d780d68c39ab9b4a47995]
@startuml

autonumber
actor "GF" as GF
participant "TruckComponent" as COMP
participant "TruckServiceService" as SS
participant "MDL" as MDL
participant "TruckRoute" as ROUTE
participant "TruckController" as CTR
participant "TruckService" as SERVICE
participant "TruckRepo" as REPO
participant "TruckSchema" as SCHEMA
participant "TruckMap" as MAP
participant "TruckDTO" as DTO
database "Database" as DB
participant "truck\n:tath" as path
participant "TruckDocument" as DOC

GF-> COMP : introduces the data(plate,tare,massCapacity,\nmaximumBattery,autonomy,chargeTime)
activate COMP
activate COMP
COMP -> COMP : updateTruck(plate,tare,massCapacity,\nmaximumBattery,autonomy,chargeTime)
activate COMP
COMP -> SS : updateTruck(truck)
activate SS
SS -> MDL : put(/Trucks)
activate MDL
MDL -> ROUTE: put(/Trucks)

activate ROUTE
ROUTE -> CTR : updateTruck
activate CTR
CTR -> SERVICE : updateTruck
activate SERVICE
SERVICE -> REPO : truck = findByPlate
activate REPO
deactivate REPO
SERVICE -> path : updates data
activate path
deactivate path
SERVICE -> REPO : save
activate REPO
REPO -> SCHEMA : truckDocument = findOne
activate SCHEMA
deactivate SCHEMA
REPO -> MAP : isValid
activate MAP
alt !isValid
MAP - -> REPO: error message
deactivate MAP
SERVICE <- -REPO : error message
CTR <- - SERVICE : error message
ROUTE <- - CTR : status 400
MDL <- - ROUTE : failure message
SS <- - MDL : failure message
SS - -> COMP : failure message
GF<- - COMP : display failure message
end
deactivate MAP
REPO -> DOC : updates data
activate DOC
deactivate DOC
REPO -> DB : save
activate DB
deactivate DB 
REPO - -> SERVICE : truckResult
deactivate REPO
SERVICE -> DTO : toDTO
activate DTO
deactivate DTO
SERVICE - -> CTR : ok
deactivate SERVICE
alt success
CTR - -> ROUTE : status 200
deactivate CTR
ROUTE - -> MDL : success message
deactivate ROUTE
MDL - -> SS : success message
deactivate MDL
SS - -> COMP : success message
deactivate SS
deactivate MDL
GF<- - COMP : displays success message
deactivate COMP

@enduml

PlantUML version 1.2022.7(Mon Aug 22 18:01:30 WEST 2022)
(GPL source distribution)
Java Runtime: Java(TM) SE Runtime Environment
JVM: Java HotSpot(TM) 64-Bit Server VM
Default Encoding: Cp1252
Language: pt
Country: PT
--></g></svg>