<?xml version="1.0" encoding="UTF-8" standalone="no"?><svg xmlns="http://www.w3.org/2000/svg" xmlns:xlink="http://www.w3.org/1999/xlink" contentStyleType="text/css" height="306px" preserveAspectRatio="none" style="width:647px;height:306px;background:#FFFFFF;" version="1.1" viewBox="0 0 647 306" width="647px" zoomAndPan="magnify"><defs/><g><rect fill="#FFFFFF" height="113.4063" style="stroke:#181818;stroke-width:1.0;" width="10" x="13.5" y="92.6094"/><rect fill="#FFFFFF" height="91.0547" style="stroke:#181818;stroke-width:1.0;" width="10" x="398.5" y="114.9609"/><rect fill="#FFFFFF" height="30.3516" style="stroke:#181818;stroke-width:1.0;" width="10" x="595.5" y="145.3125"/><line style="stroke:#181818;stroke-width:0.5;stroke-dasharray:5.0,5.0;" x1="18" x2="18" y1="82.6094" y2="224.0156"/><line style="stroke:#181818;stroke-width:0.5;stroke-dasharray:5.0,5.0;" x1="403.5" x2="403.5" y1="82.6094" y2="224.0156"/><line style="stroke:#181818;stroke-width:0.5;stroke-dasharray:5.0,5.0;" x1="600.5" x2="600.5" y1="82.6094" y2="224.0156"/><text fill="#000000" font-family="sans-serif" font-size="14" lengthAdjust="spacing" textLength="20" x="5.5" y="79.5332">GA</text><ellipse cx="18.5" cy="13.5" fill="#E2E2F0" rx="8" ry="8" style="stroke:#181818;stroke-width:0.5;"/><path d="M18.5,21.5 L18.5,48.5 M5.5,29.5 L31.5,29.5 M18.5,48.5 L5.5,63.5 M18.5,48.5 L31.5,63.5 " fill="none" style="stroke:#181818;stroke-width:0.5;"/><text fill="#000000" font-family="sans-serif" font-size="14" lengthAdjust="spacing" textLength="20" x="5.5" y="237.5488">GA</text><ellipse cx="18.5" cy="249.125" fill="#E2E2F0" rx="8" ry="8" style="stroke:#181818;stroke-width:0.5;"/><path d="M18.5,257.125 L18.5,284.125 M5.5,265.125 L31.5,265.125 M18.5,284.125 L5.5,299.125 M18.5,284.125 L31.5,299.125 " fill="none" style="stroke:#181818;stroke-width:0.5;"/><rect fill="#E2E2F0" height="31.6094" rx="2.5" ry="2.5" style="stroke:#181818;stroke-width:0.5;" width="74" x="366.5" y="50"/><text fill="#000000" font-family="sans-serif" font-size="14" lengthAdjust="spacing" textLength="60" x="373.5" y="71.5332">sPA: SPA</text><rect fill="#E2E2F0" height="31.6094" rx="2.5" ry="2.5" style="stroke:#181818;stroke-width:0.5;" width="74" x="366.5" y="223.0156"/><text fill="#000000" font-family="sans-serif" font-size="14" lengthAdjust="spacing" textLength="60" x="373.5" y="244.5488">sPA: SPA</text><rect fill="#E2E2F0" height="31.6094" rx="2.5" ry="2.5" style="stroke:#181818;stroke-width:0.5;" width="82" x="559.5" y="50"/><text fill="#000000" font-family="sans-serif" font-size="14" lengthAdjust="spacing" textLength="68" x="566.5" y="71.5332">MDA: MDA</text><rect fill="#E2E2F0" height="31.6094" rx="2.5" ry="2.5" style="stroke:#181818;stroke-width:0.5;" width="82" x="559.5" y="223.0156"/><text fill="#000000" font-family="sans-serif" font-size="14" lengthAdjust="spacing" textLength="68" x="566.5" y="244.5488">MDA: MDA</text><rect fill="#FFFFFF" height="113.4063" style="stroke:#181818;stroke-width:1.0;" width="10" x="13.5" y="92.6094"/><rect fill="#FFFFFF" height="91.0547" style="stroke:#181818;stroke-width:1.0;" width="10" x="398.5" y="114.9609"/><rect fill="#FFFFFF" height="30.3516" style="stroke:#181818;stroke-width:1.0;" width="10" x="595.5" y="145.3125"/><polygon fill="#181818" points="386.5,110.9609,396.5,114.9609,386.5,118.9609,390.5,114.9609" style="stroke:#181818;stroke-width:1.0;"/><line style="stroke:#181818;stroke-width:1.0;" x1="23.5" x2="392.5" y1="114.9609" y2="114.9609"/><text fill="#000000" font-family="sans-serif" font-size="13" font-weight="bold" lengthAdjust="spacing" textLength="7" x="30.5" y="110.1045">1</text><text fill="#000000" font-family="sans-serif" font-size="13" lengthAdjust="spacing" textLength="345" x="41.5" y="110.1045">Asks to create a new delivery and inserts the delivery's data</text><polygon fill="#181818" points="583.5,141.3125,593.5,145.3125,583.5,149.3125,587.5,145.3125" style="stroke:#181818;stroke-width:1.0;"/><line style="stroke:#181818;stroke-width:1.0;stroke-dasharray:2.0,2.0;" x1="408.5" x2="589.5" y1="145.3125" y2="145.3125"/><text fill="#000000" font-family="sans-serif" font-size="13" font-weight="bold" lengthAdjust="spacing" textLength="7" x="415.5" y="140.4561">2</text><text fill="#000000" font-family="sans-serif" font-size="13" lengthAdjust="spacing" textLength="157" x="426.5" y="140.4561">POST /deliveries body:data</text><polygon fill="#181818" points="419.5,171.6641,409.5,175.6641,419.5,179.6641,415.5,175.6641" style="stroke:#181818;stroke-width:1.0;"/><line style="stroke:#181818;stroke-width:1.0;stroke-dasharray:2.0,2.0;" x1="413.5" x2="599.5" y1="175.6641" y2="175.6641"/><text fill="#000000" font-family="sans-serif" font-size="13" font-weight="bold" lengthAdjust="spacing" textLength="7" x="425.5" y="170.8076">3</text><text fill="#000000" font-family="sans-serif" font-size="13" lengthAdjust="spacing" textLength="61" x="436.5" y="170.8076">status:201</text><polygon fill="#181818" points="29.5,202.0156,19.5,206.0156,29.5,210.0156,25.5,206.0156" style="stroke:#181818;stroke-width:1.0;"/><line style="stroke:#181818;stroke-width:1.0;stroke-dasharray:2.0,2.0;" x1="23.5" x2="402.5" y1="206.0156" y2="206.0156"/><text fill="#000000" font-family="sans-serif" font-size="13" font-weight="bold" lengthAdjust="spacing" textLength="7" x="35.5" y="201.1592">4</text><text fill="#000000" font-family="sans-serif" font-size="13" lengthAdjust="spacing" textLength="106" x="46.5" y="201.1592">success message</text><!--MD5=[70a2a40e6043d56e5aea59aa2c2bba93]
@startuml
'https://plantuml.com/sequence-diagram

autonumber
actor GA
participant "sPA: SPA" as sPA
participant "MDA: MDA" as MDA 


activate GA
GA ->sPA : Asks to create a new delivery and inserts the delivery's data
activate sPA

sPA - -> MDA : POST /deliveries body:data
activate MDA

MDA - -> sPA :  status:201

deactivate MDA

sPA - -> GA : success message

deactivate sPA

deactivate GA


@enduml

@startuml

autonumber
actor GA
participant "sPA: SPA" as sPA
participant "MDA: MDA" as MDA 


activate GA
GA ->sPA : Asks to create a new delivery and inserts the delivery's data
activate sPA

sPA - -> MDA : POST /deliveries body:data
activate MDA

MDA - -> sPA :  status:201

deactivate MDA

sPA - -> GA : success message

deactivate sPA

deactivate GA


@enduml

PlantUML version 1.2022.7(Mon Aug 22 18:01:30 BST 2022)
(GPL source distribution)
Java Runtime: Java(TM) SE Runtime Environment
JVM: Java HotSpot(TM) 64-Bit Server VM
Default Encoding: Cp1252
Language: pt
Country: PT
--></g></svg>