<?xml version="1.0" encoding="UTF-8" standalone="no"?><svg xmlns="http://www.w3.org/2000/svg" xmlns:xlink="http://www.w3.org/1999/xlink" contentStyleType="text/css" height="158px" preserveAspectRatio="none" style="width:911px;height:158px;background:#FFFFFF;" version="1.1" viewBox="0 0 911 158" width="911px" zoomAndPan="magnify"><defs/><g><!--MD5=[5158eea2981105b1eea807b659f3ae64]
class Caminho--><g id="elem_Caminho"><rect codeLine="7" fill="#F1F1F1" height="48" id="Caminho" rx="2.5" ry="2.5" style="stroke:#181818;stroke-width:0.5;" width="88" x="465" y="7"/><ellipse cx="480" cy="23" fill="#ADD1B2" rx="11" ry="11" style="stroke:#181818;stroke-width:1.0;"/><path d="M478.8594,23.7969 L478.8594,26.2969 L483.1875,26.2969 L483.1875,25.375 Q483.1875,24.7656 483.4297,24.5 Q483.6719,24.2344 484.0469,24.2344 Q484.4219,24.2344 484.6563,24.5 Q484.8906,24.7656 484.8906,25.375 L484.8906,28 L476.8906,28 Q476.2656,28 476.0078,27.7656 Q475.75,27.5313 475.75,27.1406 Q475.75,26.7656 476.0156,26.5313 Q476.2813,26.2969 476.8906,26.2969 L477.1563,26.2969 L477.1563,19.6406 L476.8906,19.6406 Q476.2656,19.6406 476.0078,19.4063 Q475.75,19.1719 475.75,18.7813 Q475.75,18.4063 476.0078,18.1719 Q476.2656,17.9375 476.8906,17.9375 L484.5156,17.9375 L484.5156,20.5313 Q484.5156,21.1406 484.2891,21.3984 Q484.0625,21.6563 483.6719,21.6563 Q483.2969,21.6563 483.0625,21.3984 Q482.8281,21.1406 482.8281,20.5313 L482.8281,19.6406 L478.8594,19.6406 L478.8594,22.0938 L480.3438,22.0938 Q480.3438,21.4375 480.4688,21.25 Q480.7344,20.8438 481.2031,20.8438 Q481.5781,20.8438 481.8125,21.1016 Q482.0469,21.3594 482.0469,21.9688 L482.0469,23.9375 Q482.0469,24.4844 481.9219,24.6719 Q481.6563,25.0625 481.2031,25.0625 Q480.7344,25.0625 480.4688,24.6563 Q480.3438,24.4688 480.3438,23.7969 L478.8594,23.7969 Z " fill="#000000"/><text fill="#000000" font-family="sans-serif" font-size="14" lengthAdjust="spacing" textLength="56" x="494" y="28.7285">Caminho</text><line style="stroke:#181818;stroke-width:0.5;" x1="466" x2="552" y1="39" y2="39"/><line style="stroke:#181818;stroke-width:0.5;" x1="466" x2="552" y1="47" y2="47"/></g><g id="elem_id"><rect fill="#F1F1F1" height="37.6094" style="stroke:#181818;stroke-width:0.5;" width="25" x="7.5" y="115"/><text fill="#000000" font-family="sans-serif" font-size="14" lengthAdjust="spacing" textLength="11" x="14.5" y="131.5332">id</text><line style="stroke:#181818;stroke-width:0.5;" x1="8.5" x2="31.5" y1="136.6094" y2="136.6094"/></g><g id="elem_id_ArmazemPartida"><rect fill="#F1F1F1" height="37.6094" style="stroke:#181818;stroke-width:0.5;" width="136" x="68" y="115"/><text fill="#000000" font-family="sans-serif" font-size="14" lengthAdjust="spacing" textLength="122" x="75" y="131.5332">id_ArmazemPartida</text><line style="stroke:#181818;stroke-width:0.5;" x1="69" x2="203" y1="136.6094" y2="136.6094"/></g><g id="elem_id_ArmazemDestino"><rect fill="#F1F1F1" height="37.6094" style="stroke:#181818;stroke-width:0.5;" width="139" x="239.5" y="115"/><text fill="#000000" font-family="sans-serif" font-size="14" lengthAdjust="spacing" textLength="125" x="246.5" y="131.5332">id_ArmazemDestino</text><line style="stroke:#181818;stroke-width:0.5;" x1="240.5" x2="377.5" y1="136.6094" y2="136.6094"/></g><g id="elem_id_Viagem"><rect fill="#F1F1F1" height="37.6094" style="stroke:#181818;stroke-width:0.5;" width="80" x="414" y="115"/><text fill="#000000" font-family="sans-serif" font-size="14" lengthAdjust="spacing" textLength="66" x="421" y="131.5332">id_Viagem</text><line style="stroke:#181818;stroke-width:0.5;" x1="415" x2="493" y1="136.6094" y2="136.6094"/></g><g id="elem_distancia"><rect fill="#F1F1F1" height="37.6094" style="stroke:#181818;stroke-width:0.5;" width="70" x="529" y="115"/><text fill="#000000" font-family="sans-serif" font-size="14" lengthAdjust="spacing" textLength="56" x="536" y="131.5332">distancia</text><line style="stroke:#181818;stroke-width:0.5;" x1="530" x2="598" y1="136.6094" y2="136.6094"/></g><g id="elem_tempo"><rect fill="#F1F1F1" height="37.6094" style="stroke:#181818;stroke-width:0.5;" width="53" x="634.5" y="115"/><text fill="#000000" font-family="sans-serif" font-size="14" lengthAdjust="spacing" textLength="39" x="641.5" y="131.5332">tempo</text><line style="stroke:#181818;stroke-width:0.5;" x1="635.5" x2="686.5" y1="136.6094" y2="136.6094"/></g><g id="elem_energia"><rect fill="#F1F1F1" height="37.6094" style="stroke:#181818;stroke-width:0.5;" width="62" x="723" y="115"/><text fill="#000000" font-family="sans-serif" font-size="14" lengthAdjust="spacing" textLength="48" x="730" y="131.5332">energia</text><line style="stroke:#181818;stroke-width:0.5;" x1="724" x2="784" y1="136.6094" y2="136.6094"/></g><g id="elem_tempoExtra"><rect fill="#F1F1F1" height="37.6094" style="stroke:#181818;stroke-width:0.5;" width="85" x="820.5" y="115"/><text fill="#000000" font-family="sans-serif" font-size="14" lengthAdjust="spacing" textLength="71" x="827.5" y="131.5332">tempoExtra</text><line style="stroke:#181818;stroke-width:0.5;" x1="821.5" x2="904.5" y1="136.6094" y2="136.6094"/></g><!--MD5=[4bb53a28477ce16246bd18d36199311b]
link Caminho to id--><g id="link_Caminho_id"><path codeLine="17" d="M464.74,19 C344.37,19 20,19 20,19 C20,19 20,109.75 20,109.75 " fill="none" id="Caminho-to-id" style="stroke:#181818;stroke-width:1.0;"/><polygon fill="#181818" points="20,114.75,24,105.75,20,109.75,16,105.75,20,114.75" style="stroke:#181818;stroke-width:1.0;"/></g><!--MD5=[28fce381588f668859d0e23838eabc6a]
link Caminho to id_ArmazemPartida--><g id="link_Caminho_id_ArmazemPartida"><path codeLine="18" d="M464.75,31 C365.94,31 136,31 136,31 C136,31 136,109.63 136,109.63 " fill="none" id="Caminho-to-id_ArmazemPartida" style="stroke:#181818;stroke-width:1.0;"/><polygon fill="#181818" points="136,114.63,140,105.63,136,109.63,132,105.63,136,114.63" style="stroke:#181818;stroke-width:1.0;"/></g><!--MD5=[34cc84c21c1501446a3711a01c77eec5]
link Caminho to id_ArmazemDestino--><g id="link_Caminho_id_ArmazemDestino"><path codeLine="19" d="M464.61,43 C405.69,43 309,43 309,43 C309,43 309,109.7 309,109.7 " fill="none" id="Caminho-to-id_ArmazemDestino" style="stroke:#181818;stroke-width:1.0;"/><polygon fill="#181818" points="309,114.7,313,105.7,309,109.7,305,105.7,309,114.7" style="stroke:#181818;stroke-width:1.0;"/></g><!--MD5=[0dc6e95d2db6118a65e8ddcb882f6dd3]
link Caminho to id_Viagem--><g id="link_Caminho_id_Viagem"><path codeLine="20" d="M479.5,55.15 C479.5,55.15 479.5,109.81 479.5,109.81 " fill="none" id="Caminho-to-id_Viagem" style="stroke:#181818;stroke-width:1.0;"/><polygon fill="#181818" points="479.5,114.81,483.5,105.81,479.5,109.81,475.5,105.81,479.5,114.81" style="stroke:#181818;stroke-width:1.0;"/></g><!--MD5=[85c165aedaaacb7c457232666ff5bb76]
link Caminho to distancia--><g id="link_Caminho_distancia"><path codeLine="21" d="M541,55.15 C541,55.15 541,109.81 541,109.81 " fill="none" id="Caminho-to-distancia" style="stroke:#181818;stroke-width:1.0;"/><polygon fill="#181818" points="541,114.81,545,105.81,541,109.81,537,105.81,541,114.81" style="stroke:#181818;stroke-width:1.0;"/></g><!--MD5=[3cd52df9a463c73d58eeef4c54df6ab2]
link Caminho to tempo--><g id="link_Caminho_tempo"><path codeLine="22" d="M553.37,43 C598.24,43 661,43 661,43 C661,43 661,109.7 661,109.7 " fill="none" id="Caminho-to-tempo" style="stroke:#181818;stroke-width:1.0;"/><polygon fill="#181818" points="661,114.7,665,105.7,661,109.7,657,105.7,661,114.7" style="stroke:#181818;stroke-width:1.0;"/></g><!--MD5=[1aa782d5a8f21aeb539f9e2c23aae9d7]
link Caminho to energia--><g id="link_Caminho_energia"><path codeLine="23" d="M553.08,31 C623.62,31 754,31 754,31 C754,31 754,109.63 754,109.63 " fill="none" id="Caminho-to-energia" style="stroke:#181818;stroke-width:1.0;"/><polygon fill="#181818" points="754,114.63,758,105.63,754,109.63,750,105.63,754,114.63" style="stroke:#181818;stroke-width:1.0;"/></g><!--MD5=[edeb765071dc73e7a1fc2b71c675c32a]
link Caminho to tempoExtra--><g id="link_Caminho_tempoExtra"><path codeLine="24" d="M553.12,19 C648.01,19 863,19 863,19 C863,19 863,109.75 863,109.75 " fill="none" id="Caminho-to-tempoExtra" style="stroke:#181818;stroke-width:1.0;"/><polygon fill="#181818" points="863,114.75,867,105.75,863,109.75,859,105.75,863,114.75" style="stroke:#181818;stroke-width:1.0;"/></g><!--MD5=[d33f0032fbd7092780c58fdcc6844aaf]
@startuml DM_CaminhoAggregate
' hide the spot


' avoid problems with angled crows feet
skinparam linetype ortho

entity Caminho
object id
object id_ArmazemPartida
object id_ArmazemDestino
object id_Viagem
object distancia
object tempo
object energia
object tempoExtra

Caminho - -> id
Caminho - -> id_ArmazemPartida
Caminho - -> id_ArmazemDestino
Caminho - -> id_Viagem
Caminho - -> distancia
Caminho - -> tempo
Caminho - -> energia
Caminho - -> tempoExtra

@enduml

@startuml DM_CaminhoAggregate


skinparam linetype ortho

entity Caminho
object id
object id_ArmazemPartida
object id_ArmazemDestino
object id_Viagem
object distancia
object tempo
object energia
object tempoExtra

Caminho - -> id
Caminho - -> id_ArmazemPartida
Caminho - -> id_ArmazemDestino
Caminho - -> id_Viagem
Caminho - -> distancia
Caminho - -> tempo
Caminho - -> energia
Caminho - -> tempoExtra

@enduml

PlantUML version 1.2022.7(Mon Aug 22 18:01:30 BST 2022)
(GPL source distribution)
Java Runtime: Java(TM) SE Runtime Environment
JVM: Java HotSpot(TM) 64-Bit Server VM
Default Encoding: Cp1252
Language: pt
Country: PT
--></g></svg>