<?xml version="1.0" encoding="UTF-8" standalone="no"?><svg xmlns="http://www.w3.org/2000/svg" xmlns:xlink="http://www.w3.org/1999/xlink" contentStyleType="text/css" height="158px" preserveAspectRatio="none" style="width:789px;height:158px;background:#FFFFFF;" version="1.1" viewBox="0 0 789 158" width="789px" zoomAndPan="magnify"><defs/><g><!--MD5=[3179f819b5ca0f9c8a1bd58e9144681b]
class Entrega--><g id="elem_Entrega"><rect codeLine="7" fill="#F1F1F1" height="48" id="Entrega" rx="2.5" ry="2.5" style="stroke:#181818;stroke-width:0.5;" width="82" x="198" y="7"/><ellipse cx="213" cy="23" fill="#ADD1B2" rx="11" ry="11" style="stroke:#181818;stroke-width:1.0;"/><path d="M211.8594,23.7969 L211.8594,26.2969 L216.1875,26.2969 L216.1875,25.375 Q216.1875,24.7656 216.4297,24.5 Q216.6719,24.2344 217.0469,24.2344 Q217.4219,24.2344 217.6563,24.5 Q217.8906,24.7656 217.8906,25.375 L217.8906,28 L209.8906,28 Q209.2656,28 209.0078,27.7656 Q208.75,27.5313 208.75,27.1406 Q208.75,26.7656 209.0156,26.5313 Q209.2813,26.2969 209.8906,26.2969 L210.1563,26.2969 L210.1563,19.6406 L209.8906,19.6406 Q209.2656,19.6406 209.0078,19.4063 Q208.75,19.1719 208.75,18.7813 Q208.75,18.4063 209.0078,18.1719 Q209.2656,17.9375 209.8906,17.9375 L217.5156,17.9375 L217.5156,20.5313 Q217.5156,21.1406 217.2891,21.3984 Q217.0625,21.6563 216.6719,21.6563 Q216.2969,21.6563 216.0625,21.3984 Q215.8281,21.1406 215.8281,20.5313 L215.8281,19.6406 L211.8594,19.6406 L211.8594,22.0938 L213.3438,22.0938 Q213.3438,21.4375 213.4688,21.25 Q213.7344,20.8438 214.2031,20.8438 Q214.5781,20.8438 214.8125,21.1016 Q215.0469,21.3594 215.0469,21.9688 L215.0469,23.9375 Q215.0469,24.4844 214.9219,24.6719 Q214.6563,25.0625 214.2031,25.0625 Q213.7344,25.0625 213.4688,24.6563 Q213.3438,24.4688 213.3438,23.7969 L211.8594,23.7969 Z " fill="#000000"/><text fill="#000000" font-family="sans-serif" font-size="14" lengthAdjust="spacing" textLength="50" x="227" y="28.7285">Entrega</text><line style="stroke:#181818;stroke-width:0.5;" x1="199" x2="279" y1="39" y2="39"/><line style="stroke:#181818;stroke-width:0.5;" x1="199" x2="279" y1="47" y2="47"/></g><g id="elem_id"><rect fill="#F1F1F1" height="37.6094" style="stroke:#181818;stroke-width:0.5;" width="25" x="7.5" y="115"/><text fill="#000000" font-family="sans-serif" font-size="14" lengthAdjust="spacing" textLength="11" x="14.5" y="131.5332">id</text><line style="stroke:#181818;stroke-width:0.5;" x1="8.5" x2="31.5" y1="136.6094" y2="136.6094"/></g><g id="elem_data"><rect fill="#F1F1F1" height="37.6094" style="stroke:#181818;stroke-width:0.5;" width="42" x="68" y="115"/><text fill="#000000" font-family="sans-serif" font-size="14" lengthAdjust="spacing" textLength="28" x="75" y="131.5332">data</text><line style="stroke:#181818;stroke-width:0.5;" x1="69" x2="109" y1="136.6094" y2="136.6094"/></g><g id="elem_massa"><rect fill="#F1F1F1" height="37.6094" style="stroke:#181818;stroke-width:0.5;" width="55" x="145.5" y="115"/><text fill="#000000" font-family="sans-serif" font-size="14" lengthAdjust="spacing" textLength="41" x="152.5" y="131.5332">massa</text><line style="stroke:#181818;stroke-width:0.5;" x1="146.5" x2="199.5" y1="136.6094" y2="136.6094"/></g><g id="elem_id_ArmazemDestino"><rect fill="#F1F1F1" height="37.6094" style="stroke:#181818;stroke-width:0.5;" width="139" x="235.5" y="115"/><text fill="#000000" font-family="sans-serif" font-size="14" lengthAdjust="spacing" textLength="125" x="242.5" y="131.5332">id_ArmazemDestino</text><line style="stroke:#181818;stroke-width:0.5;" x1="236.5" x2="373.5" y1="136.6094" y2="136.6094"/></g><g id="elem_tempoCarregarCamiao"><rect fill="#F1F1F1" height="37.6094" style="stroke:#181818;stroke-width:0.5;" width="158" x="410" y="115"/><text fill="#000000" font-family="sans-serif" font-size="14" lengthAdjust="spacing" textLength="144" x="417" y="131.5332">tempoCarregarCamiao</text><line style="stroke:#181818;stroke-width:0.5;" x1="411" x2="567" y1="136.6094" y2="136.6094"/></g><g id="elem_tempoDescarregarCamiao"><rect fill="#F1F1F1" height="37.6094" style="stroke:#181818;stroke-width:0.5;" width="180" x="603" y="115"/><text fill="#000000" font-family="sans-serif" font-size="14" lengthAdjust="spacing" textLength="166" x="610" y="131.5332">tempoDescarregarCamiao</text><line style="stroke:#181818;stroke-width:0.5;" x1="604" x2="782" y1="136.6094" y2="136.6094"/></g><!--MD5=[ac7b65d5de5f2221c11fb305fd3748aa]
link Entrega to id--><g id="link_Entrega_id"><path codeLine="15" d="M197.81,23 C134.37,23 20,23 20,23 C20,23 20,109.92 20,109.92 " fill="none" id="Entrega-to-id" style="stroke:#181818;stroke-width:1.0;"/><polygon fill="#181818" points="20,114.92,24,105.92,20,109.92,16,105.92,20,114.92" style="stroke:#181818;stroke-width:1.0;"/></g><!--MD5=[5ec0db9a1ca437425bee7bc396edfe89]
link Entrega to data--><g id="link_Entrega_data"><path codeLine="16" d="M197.61,39 C153.22,39 89,39 89,39 C89,39 89,109.78 89,109.78 " fill="none" id="Entrega-to-data" style="stroke:#181818;stroke-width:1.0;"/><polygon fill="#181818" points="89,114.78,93,105.78,89,109.78,85,105.78,89,114.78" style="stroke:#181818;stroke-width:1.0;"/></g><!--MD5=[dc6c4712f5b1f42f05bfa4e9a6771849]
link Entrega to massa--><g id="link_Entrega_massa"><path codeLine="17" d="M218,55.15 C218,85.59 218,134 218,134 C218,134 205.73,134 205.73,134 " fill="none" id="Entrega-to-massa" style="stroke:#181818;stroke-width:1.0;"/><polygon fill="#181818" points="200.73,134,209.73,138,205.73,134,209.73,130,200.73,134" style="stroke:#181818;stroke-width:1.0;"/></g><!--MD5=[e23f47aef4fa20c35e7714d2c4a3f2d6]
link Entrega to id_ArmazemDestino--><g id="link_Entrega_id_ArmazemDestino"><path codeLine="18" d="M257.75,55.15 C257.75,55.15 257.75,109.81 257.75,109.81 " fill="none" id="Entrega-to-id_ArmazemDestino" style="stroke:#181818;stroke-width:1.0;"/><polygon fill="#181818" points="257.75,114.81,261.75,105.81,257.75,109.81,253.75,105.81,257.75,114.81" style="stroke:#181818;stroke-width:1.0;"/></g><!--MD5=[d7a27d4575fcc4e6168d7e786ec660fe]
link Entrega to tempoCarregarCamiao--><g id="link_Entrega_tempoCarregarCamiao"><path codeLine="19" d="M280,39 C350.93,39 489,39 489,39 C489,39 489,109.78 489,109.78 " fill="none" id="Entrega-to-tempoCarregarCamiao" style="stroke:#181818;stroke-width:1.0;"/><polygon fill="#181818" points="489,114.78,493,105.78,489,109.78,485,105.78,489,114.78" style="stroke:#181818;stroke-width:1.0;"/></g><!--MD5=[a346c87218ec426719bd89189685545c]
link Entrega to tempoDescarregarCamiao--><g id="link_Entrega_tempoDescarregarCamiao"><path codeLine="20" d="M280.09,23 C391.85,23 693,23 693,23 C693,23 693,109.92 693,109.92 " fill="none" id="Entrega-to-tempoDescarregarCamiao" style="stroke:#181818;stroke-width:1.0;"/><polygon fill="#181818" points="693,114.92,697,105.92,693,109.92,689,105.92,693,114.92" style="stroke:#181818;stroke-width:1.0;"/></g><!--MD5=[7cb57579c9a09f42d43ccf92b9d6659f]
@startuml DM_EntregaAggregate
' hide the spot


' avoid problems with angled crows feet
skinparam linetype ortho

entity Entrega
object id
object data
object massa
object id_ArmazemDestino
object tempoCarregarCamiao
object tempoDescarregarCamiao

Entrega - -> id
Entrega - -> data
Entrega - -> massa
Entrega - -> id_ArmazemDestino
Entrega - -> tempoCarregarCamiao
Entrega - -> tempoDescarregarCamiao

@enduml

@startuml DM_EntregaAggregate


skinparam linetype ortho

entity Entrega
object id
object data
object massa
object id_ArmazemDestino
object tempoCarregarCamiao
object tempoDescarregarCamiao

Entrega - -> id
Entrega - -> data
Entrega - -> massa
Entrega - -> id_ArmazemDestino
Entrega - -> tempoCarregarCamiao
Entrega - -> tempoDescarregarCamiao

@enduml

PlantUML version 1.2022.7(Mon Aug 22 18:01:30 BST 2022)
(GPL source distribution)
Java Runtime: Java(TM) SE Runtime Environment
JVM: Java HotSpot(TM) 64-Bit Server VM
Default Encoding: Cp1252
Language: pt
Country: PT
--></g></svg>