<?xml version="1.0" encoding="UTF-8" standalone="no"?><svg xmlns="http://www.w3.org/2000/svg" xmlns:xlink="http://www.w3.org/1999/xlink" contentStyleType="text/css" height="506px" preserveAspectRatio="none" style="width:1132px;height:506px;background:#FFFFFF;" version="1.1" viewBox="0 0 1132 506" width="1132px" zoomAndPan="magnify"><defs/><g><rect fill="#FFFFFF" height="306.3516" style="stroke:#181818;stroke-width:1.0;" width="10" x="32.5" y="92.6094"/><rect fill="#FFFFFF" height="91.0547" style="stroke:#181818;stroke-width:1.0;" width="10" x="432.5" y="140.3125"/><rect fill="#FFFFFF" height="121.4063" style="stroke:#181818;stroke-width:1.0;" width="10" x="432.5" y="277.5547"/><rect fill="#FFFFFF" height="30.3516" style="stroke:#181818;stroke-width:1.0;" width="10" x="795.5" y="307.9063"/><rect fill="#FFFFFF" height="30.3516" style="stroke:#181818;stroke-width:1.0;" width="10" x="1069.5" y="170.6641"/><rect fill="#FFFFFF" height="30.3516" style="stroke:#181818;stroke-width:1.0;" width="10" x="1069.5" y="338.2578"/><rect fill="none" height="307.3516" style="stroke:#000000;stroke-width:1.5;" width="1115.5" x="10" y="99.6094"/><line style="stroke:#181818;stroke-width:0.5;stroke-dasharray:5.0,5.0;" x1="37" x2="37" y1="82.6094" y2="423.9609"/><line style="stroke:#181818;stroke-width:0.5;stroke-dasharray:5.0,5.0;" x1="437.5" x2="437.5" y1="82.6094" y2="423.9609"/><line style="stroke:#181818;stroke-width:0.5;stroke-dasharray:5.0,5.0;" x1="800" x2="800" y1="82.6094" y2="423.9609"/><line style="stroke:#181818;stroke-width:0.5;stroke-dasharray:5.0,5.0;" x1="1074.5" x2="1074.5" y1="82.6094" y2="423.9609"/><text fill="#000000" font-family="sans-serif" font-size="14" lengthAdjust="spacing" textLength="29" x="20" y="79.5332">User</text><ellipse cx="37.5" cy="13.5" fill="#E2E2F0" rx="8" ry="8" style="stroke:#181818;stroke-width:0.5;"/><path d="M37.5,21.5 L37.5,48.5 M24.5,29.5 L50.5,29.5 M37.5,48.5 L24.5,63.5 M37.5,48.5 L50.5,63.5 " fill="none" style="stroke:#181818;stroke-width:0.5;"/><text fill="#000000" font-family="sans-serif" font-size="14" lengthAdjust="spacing" textLength="29" x="20" y="437.4941">User</text><ellipse cx="37.5" cy="449.0703" fill="#E2E2F0" rx="8" ry="8" style="stroke:#181818;stroke-width:0.5;"/><path d="M37.5,457.0703 L37.5,484.0703 M24.5,465.0703 L50.5,465.0703 M37.5,484.0703 L24.5,499.0703 M37.5,484.0703 L50.5,499.0703 " fill="none" style="stroke:#181818;stroke-width:0.5;"/><rect fill="#E2E2F0" height="31.6094" rx="2.5" ry="2.5" style="stroke:#181818;stroke-width:0.5;" width="74" x="400.5" y="50"/><text fill="#000000" font-family="sans-serif" font-size="14" lengthAdjust="spacing" textLength="60" x="407.5" y="71.5332">sPA: SPA</text><rect fill="#E2E2F0" height="31.6094" rx="2.5" ry="2.5" style="stroke:#181818;stroke-width:0.5;" width="74" x="400.5" y="422.9609"/><text fill="#000000" font-family="sans-serif" font-size="14" lengthAdjust="spacing" textLength="60" x="407.5" y="444.4941">sPA: SPA</text><rect fill="#E2E2F0" height="31.6094" rx="2.5" ry="2.5" style="stroke:#181818;stroke-width:0.5;" width="147" x="727" y="50"/><text fill="#000000" font-family="sans-serif" font-size="14" lengthAdjust="spacing" textLength="133" x="734" y="71.5332">google: GOOGLEAPI</text><rect fill="#E2E2F0" height="31.6094" rx="2.5" ry="2.5" style="stroke:#181818;stroke-width:0.5;" width="147" x="727" y="422.9609"/><text fill="#000000" font-family="sans-serif" font-size="14" lengthAdjust="spacing" textLength="133" x="734" y="444.4941">google: GOOGLEAPI</text><rect fill="#E2E2F0" height="31.6094" rx="2.5" ry="2.5" style="stroke:#181818;stroke-width:0.5;" width="82" x="1033.5" y="50"/><text fill="#000000" font-family="sans-serif" font-size="14" lengthAdjust="spacing" textLength="68" x="1040.5" y="71.5332">mDA: MDA</text><rect fill="#E2E2F0" height="31.6094" rx="2.5" ry="2.5" style="stroke:#181818;stroke-width:0.5;" width="82" x="1033.5" y="422.9609"/><text fill="#000000" font-family="sans-serif" font-size="14" lengthAdjust="spacing" textLength="68" x="1040.5" y="444.4941">mDA: MDA</text><rect fill="#FFFFFF" height="306.3516" style="stroke:#181818;stroke-width:1.0;" width="10" x="32.5" y="92.6094"/><rect fill="#FFFFFF" height="91.0547" style="stroke:#181818;stroke-width:1.0;" width="10" x="432.5" y="140.3125"/><rect fill="#FFFFFF" height="121.4063" style="stroke:#181818;stroke-width:1.0;" width="10" x="432.5" y="277.5547"/><rect fill="#FFFFFF" height="30.3516" style="stroke:#181818;stroke-width:1.0;" width="10" x="795.5" y="307.9063"/><rect fill="#FFFFFF" height="30.3516" style="stroke:#181818;stroke-width:1.0;" width="10" x="1069.5" y="170.6641"/><rect fill="#FFFFFF" height="30.3516" style="stroke:#181818;stroke-width:1.0;" width="10" x="1069.5" y="338.2578"/><path d="M10,99.6094 L71,99.6094 L71,107.9609 L61,117.9609 L10,117.9609 L10,99.6094 " fill="#EEEEEE" style="stroke:#000000;stroke-width:1.5;"/><rect fill="none" height="307.3516" style="stroke:#000000;stroke-width:1.5;" width="1115.5" x="10" y="99.6094"/><text fill="#000000" font-family="sans-serif" font-size="13" font-weight="bold" lengthAdjust="spacing" textLength="16" x="25" y="114.1045">alt</text><text fill="#000000" font-family="sans-serif" font-size="11" font-weight="bold" lengthAdjust="spacing" textLength="76" x="86" y="113.0283">[default login]</text><polygon fill="#181818" points="420.5,136.3125,430.5,140.3125,420.5,144.3125,424.5,140.3125" style="stroke:#181818;stroke-width:1.0;"/><line style="stroke:#181818;stroke-width:1.0;" x1="42.5" x2="426.5" y1="140.3125" y2="140.3125"/><text fill="#000000" font-family="sans-serif" font-size="13" font-weight="bold" lengthAdjust="spacing" textLength="7" x="49.5" y="135.4561">1</text><text fill="#000000" font-family="sans-serif" font-size="13" lengthAdjust="spacing" textLength="360" x="60.5" y="135.4561">Asks to login and inserts the credentials (email and password)</text><polygon fill="#181818" points="1057.5,166.6641,1067.5,170.6641,1057.5,174.6641,1061.5,170.6641" style="stroke:#181818;stroke-width:1.0;"/><line style="stroke:#181818;stroke-width:1.0;" x1="442.5" x2="1063.5" y1="170.6641" y2="170.6641"/><text fill="#000000" font-family="sans-serif" font-size="13" font-weight="bold" lengthAdjust="spacing" textLength="7" x="449.5" y="165.8076">2</text><text fill="#000000" font-family="sans-serif" font-size="13" lengthAdjust="spacing" textLength="138" x="460.5" y="165.8076">POST /signin body:data</text><polygon fill="#181818" points="453.5,197.0156,443.5,201.0156,453.5,205.0156,449.5,201.0156" style="stroke:#181818;stroke-width:1.0;"/><line style="stroke:#181818;stroke-width:1.0;" x1="447.5" x2="1073.5" y1="201.0156" y2="201.0156"/><text fill="#000000" font-family="sans-serif" font-size="13" font-weight="bold" lengthAdjust="spacing" textLength="7" x="459.5" y="196.1592">3</text><text fill="#000000" font-family="sans-serif" font-size="13" lengthAdjust="spacing" textLength="134" x="470.5" y="196.1592">status: 200 (user body)</text><polygon fill="#181818" points="53.5,227.3672,43.5,231.3672,53.5,235.3672,49.5,231.3672" style="stroke:#181818;stroke-width:1.0;"/><line style="stroke:#181818;stroke-width:1.0;" x1="47.5" x2="436.5" y1="231.3672" y2="231.3672"/><text fill="#000000" font-family="sans-serif" font-size="13" font-weight="bold" lengthAdjust="spacing" textLength="7" x="59.5" y="226.5107">4</text><text fill="#000000" font-family="sans-serif" font-size="13" lengthAdjust="spacing" textLength="106" x="70.5" y="226.5107">success message</text><line style="stroke:#000000;stroke-width:1.0;stroke-dasharray:2.0,2.0;" x1="10" x2="1125.5" y1="240.3672" y2="240.3672"/><text fill="#000000" font-family="sans-serif" font-size="11" font-weight="bold" lengthAdjust="spacing" textLength="87" x="15" y="251.7861">[login with SSO]</text><polygon fill="#181818" points="420.5,273.5547,430.5,277.5547,420.5,281.5547,424.5,277.5547" style="stroke:#181818;stroke-width:1.0;"/><line style="stroke:#181818;stroke-width:1.0;" x1="42.5" x2="426.5" y1="277.5547" y2="277.5547"/><text fill="#000000" font-family="sans-serif" font-size="13" font-weight="bold" lengthAdjust="spacing" textLength="7" x="49.5" y="272.6982">5</text><text fill="#000000" font-family="sans-serif" font-size="13" lengthAdjust="spacing" textLength="135" x="60.5" y="272.6982">Asks to login with SSO</text><polygon fill="#181818" points="783.5,303.9063,793.5,307.9063,783.5,311.9063,787.5,307.9063" style="stroke:#181818;stroke-width:1.0;"/><line style="stroke:#181818;stroke-width:1.0;" x1="442.5" x2="789.5" y1="307.9063" y2="307.9063"/><text fill="#000000" font-family="sans-serif" font-size="13" font-weight="bold" lengthAdjust="spacing" textLength="7" x="449.5" y="303.0498">6</text><text fill="#000000" font-family="sans-serif" font-size="13" lengthAdjust="spacing" textLength="323" x="460.5" y="303.0498">Calls google api to sign in and enters google credentials</text><polygon fill="#181818" points="1057.5,334.2578,1067.5,338.2578,1057.5,342.2578,1061.5,338.2578" style="stroke:#181818;stroke-width:1.0;"/><line style="stroke:#181818;stroke-width:1.0;" x1="800.5" x2="1063.5" y1="338.2578" y2="338.2578"/><text fill="#000000" font-family="sans-serif" font-size="13" font-weight="bold" lengthAdjust="spacing" textLength="7" x="807.5" y="333.4014">7</text><text fill="#000000" font-family="sans-serif" font-size="13" lengthAdjust="spacing" textLength="234" x="818.5" y="333.4014">POST /auth/signupviagoogle body: email</text><polygon fill="#181818" points="453.5,364.6094,443.5,368.6094,453.5,372.6094,449.5,368.6094" style="stroke:#181818;stroke-width:1.0;"/><line style="stroke:#181818;stroke-width:1.0;stroke-dasharray:2.0,2.0;" x1="447.5" x2="1073.5" y1="368.6094" y2="368.6094"/><text fill="#000000" font-family="sans-serif" font-size="13" font-weight="bold" lengthAdjust="spacing" textLength="7" x="459.5" y="363.7529">8</text><text fill="#000000" font-family="sans-serif" font-size="13" lengthAdjust="spacing" textLength="134" x="470.5" y="363.7529">status: 200 (user body)</text><polygon fill="#181818" points="48.5,394.9609,38.5,398.9609,48.5,402.9609,44.5,398.9609" style="stroke:#181818;stroke-width:1.0;"/><line style="stroke:#181818;stroke-width:1.0;stroke-dasharray:2.0,2.0;" x1="42.5" x2="436.5" y1="398.9609" y2="398.9609"/><text fill="#000000" font-family="sans-serif" font-size="13" font-weight="bold" lengthAdjust="spacing" textLength="7" x="54.5" y="394.1045">9</text><text fill="#000000" font-family="sans-serif" font-size="13" lengthAdjust="spacing" textLength="106" x="65.5" y="394.1045">success message</text><!--MD5=[04e296f3c873bfaa29158e072820b000]
@startuml
'https://plantuml.com/sequence-diagram

autonumber
actor User 
participant "sPA: SPA" as sPA
participant "google: GOOGLEAPI" as GOOGLE
participant "mDA: MDA" as MDA




activate User
alt default login
User ->sPA : Asks to login and inserts the credentials (email and password)
activate sPA
sPA -> MDA : POST /signin body:data
activate MDA
MDA -> sPA: status: 200 (user body)
deactivate MDA
sPA -> User : success message
deactivate sPA
else login with SSO
User -> sPA : Asks to login with SSO
activate sPA
sPA -> GOOGLE : Calls google api to sign in and enters google credentials
activate GOOGLE
GOOGLE -> MDA : POST /auth/signupviagoogle body: email
deactivate GOOGLE
activate MDA
MDA - -> sPA: status: 200 (user body)
deactivate MDA
deactivate GOOGLE
sPA - -> User : success message
deactivate sPA
deactivate User
end


@enduml

@startuml

autonumber
actor User 
participant "sPA: SPA" as sPA
participant "google: GOOGLEAPI" as GOOGLE
participant "mDA: MDA" as MDA




activate User
alt default login
User ->sPA : Asks to login and inserts the credentials (email and password)
activate sPA
sPA -> MDA : POST /signin body:data
activate MDA
MDA -> sPA: status: 200 (user body)
deactivate MDA
sPA -> User : success message
deactivate sPA
else login with SSO
User -> sPA : Asks to login with SSO
activate sPA
sPA -> GOOGLE : Calls google api to sign in and enters google credentials
activate GOOGLE
GOOGLE -> MDA : POST /auth/signupviagoogle body: email
deactivate GOOGLE
activate MDA
MDA - -> sPA: status: 200 (user body)
deactivate MDA
deactivate GOOGLE
sPA - -> User : success message
deactivate sPA
deactivate User
end


@enduml

PlantUML version 1.2022.7(Mon Aug 22 18:01:30 BST 2022)
(GPL source distribution)
Java Runtime: OpenJDK Runtime Environment
JVM: OpenJDK 64-Bit Server VM
Default Encoding: Cp1252
Language: pt
Country: PT
--></g></svg>