<?xml version="1.0" encoding="UTF-8" standalone="no"?><svg xmlns="http://www.w3.org/2000/svg" xmlns:xlink="http://www.w3.org/1999/xlink" contentStyleType="text/css" height="590px" preserveAspectRatio="none" style="width:362px;height:590px;background:#FFFFFF;" version="1.1" viewBox="0 0 362 590" width="362px" zoomAndPan="magnify"><defs/><g><!--MD5=[1f6590b40f3a898dce2fe44247d900c1]
entity gestor_armazem--><g id="elem_gestor_armazem"><ellipse cx="58.5" cy="496" fill="#F1F1F1" rx="8" ry="8" style="stroke:#181818;stroke-width:0.5;"/><path d="M58.5,504 L58.5,531 M45.5,512 L71.5,512 M58.5,531 L45.5,546 M58.5,531 L71.5,546 " fill="none" style="stroke:#181818;stroke-width:0.5;"/><text fill="#000000" font-family="sans-serif" font-size="14" lengthAdjust="spacing" textLength="105" x="6" y="562.0332">gestor_armazem</text></g><g id="elem_CRUD armazem"><ellipse cx="263.481" cy="498.2962" fill="#F1F1F1" rx="74.481" ry="17.2962" style="stroke:#181818;stroke-width:0.5;"/><text fill="#000000" font-family="sans-serif" font-size="14" lengthAdjust="spacing" textLength="100" x="210.481" y="502.8128">CRUD armazem</text></g><g id="elem_CRUD entrega"><ellipse cx="263.5677" cy="567.7135" fill="#F1F1F1" rx="71.5677" ry="16.7135" style="stroke:#181818;stroke-width:0.5;"/><text fill="#000000" font-family="sans-serif" font-size="14" lengthAdjust="spacing" textLength="92" x="214.5677" y="572.2301">CRUD entrega</text></g><!--MD5=[da6b4f0d088bcbfd36abb9fffd74071b]
entity gestor_frota--><g id="elem_gestor_frota"><ellipse cx="58.5" cy="371" fill="#F1F1F1" rx="8" ry="8" style="stroke:#181818;stroke-width:0.5;"/><path d="M58.5,379 L58.5,406 M45.5,387 L71.5,387 M58.5,406 L45.5,421 M58.5,406 L71.5,421 " fill="none" style="stroke:#181818;stroke-width:0.5;"/><text fill="#000000" font-family="sans-serif" font-size="14" lengthAdjust="spacing" textLength="77" x="20" y="437.0332">gestor_frota</text></g><g id="elem_CRUD camiao"><ellipse cx="263.6531" cy="401.4306" fill="#F1F1F1" rx="70.1531" ry="16.4306" style="stroke:#181818;stroke-width:0.5;"/><text fill="#000000" font-family="sans-serif" font-size="14" lengthAdjust="spacing" textLength="88" x="216.6531" y="405.9472">CRUD camiao</text></g><!--MD5=[2748c8fb0b26bdc59fa6c5e6a14b8c13]
entity gestor_logistica--><g id="elem_gestor_logistica"><ellipse cx="58.5" cy="191" fill="#F1F1F1" rx="8" ry="8" style="stroke:#181818;stroke-width:0.5;"/><path d="M58.5,199 L58.5,226 M45.5,207 L71.5,207 M58.5,226 L45.5,241 M58.5,226 L71.5,241 " fill="none" style="stroke:#181818;stroke-width:0.5;"/><text fill="#000000" font-family="sans-serif" font-size="14" lengthAdjust="spacing" textLength="99" x="9" y="257.0332">gestor_logistica</text></g><g id="elem_CRUD Caminho"><ellipse cx="263.6111" cy="117.7222" fill="#F1F1F1" rx="74.1111" ry="17.2222" style="stroke:#181818;stroke-width:0.5;"/><text fill="#000000" font-family="sans-serif" font-size="14" lengthAdjust="spacing" textLength="99" x="211.1111" y="122.2388">CRUD Caminho</text></g><g id="elem_CRUD viagem"><ellipse cx="263.6531" cy="186.4306" fill="#F1F1F1" rx="70.1531" ry="16.4306" style="stroke:#181818;stroke-width:0.5;"/><text fill="#000000" font-family="sans-serif" font-size="14" lengthAdjust="spacing" textLength="88" x="216.6531" y="190.9472">CRUD viagem</text></g><g id="elem_CRUD percurso"><ellipse cx="263.6111" cy="255.7222" fill="#F1F1F1" rx="74.1111" ry="17.2222" style="stroke:#181818;stroke-width:0.5;"/><text fill="#000000" font-family="sans-serif" font-size="14" lengthAdjust="spacing" textLength="99" x="211.1111" y="260.2388">CRUD percurso</text></g><g id="elem_CRUD empacotamento"><ellipse cx="263.566" cy="328.4132" fill="#F1F1F1" rx="92.566" ry="20.9132" style="stroke:#181818;stroke-width:0.5;"/><text fill="#000000" font-family="sans-serif" font-size="14" lengthAdjust="spacing" textLength="144" x="191.566" y="332.1417">CRUD empacotamento</text></g><!--MD5=[79a439086b036a57b90a01d7b2f8bbd1]
entity admin--><g id="elem_admin"><ellipse cx="58.5" cy="14" fill="#F1F1F1" rx="8" ry="8" style="stroke:#181818;stroke-width:0.5;"/><path d="M58.5,22 L58.5,49 M45.5,30 L71.5,30 M58.5,49 L45.5,64 M58.5,49 L71.5,64 " fill="none" style="stroke:#181818;stroke-width:0.5;"/><text fill="#000000" font-family="sans-serif" font-size="14" lengthAdjust="spacing" textLength="38" x="39.5" y="80.0332">admin</text></g><g id="elem_Gestao de utilizadores"><ellipse cx="263.2628" cy="44.6526" fill="#F1F1F1" rx="91.2628" ry="20.6526" style="stroke:#181818;stroke-width:0.5;"/><text fill="#000000" font-family="sans-serif" font-size="14" lengthAdjust="spacing" textLength="141" x="192.7628" y="48.3811">Gestao de utilizadores</text></g><!--MD5=[08da06c0e34c330fe76d2f43c28e9164]
link gestor_armazem to CRUD armazem--><g id="link_gestor_armazem_CRUD armazem"><path d="M111.25,519.36 C136.35,515.9 166.85,511.69 193.87,507.97 " fill="none" id="gestor_armazem-to-CRUD armazem" style="stroke:#181818;stroke-width:1.0;"/><polygon fill="#181818" points="198.87,507.28,189.4057,504.5547,193.9174,507.9671,190.505,512.4788,198.87,507.28" style="stroke:#181818;stroke-width:1.0;"/></g><!--MD5=[35529954f9bc5058ad595cfcbc9ba7a0]
link gestor_armazem to CRUD entrega--><g id="link_gestor_armazem_CRUD entrega"><path d="M111.25,536.95 C139.57,542.67 174.75,549.78 204.05,555.69 " fill="none" id="gestor_armazem-to-CRUD entrega" style="stroke:#181818;stroke-width:1.0;"/><polygon fill="#181818" points="209.07,556.71,201.0356,551.0136,204.1682,555.7239,199.4579,558.8565,209.07,556.71" style="stroke:#181818;stroke-width:1.0;"/></g><!--MD5=[f9ef269fb3982f1833dd052b2b1bac60]
link gestor_frota to CRUD camiao--><g id="link_gestor_frota_CRUD camiao"><path d="M97.21,401.5 C122.68,401.5 157.16,401.5 188.05,401.5 " fill="none" id="gestor_frota-to-CRUD camiao" style="stroke:#181818;stroke-width:1.0;"/><polygon fill="#181818" points="193.37,401.5,184.37,397.5,188.37,401.5,184.37,405.5,193.37,401.5" style="stroke:#181818;stroke-width:1.0;"/></g><!--MD5=[c95cefa50550c5b27ce3f56e44c00c20]
link gestor_logistica to CRUD Caminho--><g id="link_gestor_logistica_CRUD Caminho"><path d="M108.03,188.7 C127.19,176.49 149.68,163.06 171,152.5 C185.24,145.45 201.28,138.88 215.9,133.39 " fill="none" id="gestor_logistica-to-CRUD Caminho" style="stroke:#181818;stroke-width:1.0;"/><polygon fill="#181818" points="220.8,131.56,210.9701,130.9485,216.1137,133.3031,213.7591,138.4466,220.8,131.56" style="stroke:#181818;stroke-width:1.0;"/></g><!--MD5=[854170bcc7ea5dbc0520658376a32bdf]
link gestor_logistica to CRUD viagem--><g id="link_gestor_logistica_CRUD viagem"><path d="M108.12,213.12 C136.07,208.3 171.43,202.2 201.25,197.06 " fill="none" id="gestor_logistica-to-CRUD viagem" style="stroke:#181818;stroke-width:1.0;"/><polygon fill="#181818" points="206.37,196.18,196.8245,193.7543,201.4415,197.0228,198.1731,201.6399,206.37,196.18" style="stroke:#181818;stroke-width:1.0;"/></g><!--MD5=[a5f0a00da63b96dd696ee6cc692029cf]
link gestor_logistica to CRUD percurso--><g id="link_gestor_logistica_CRUD percurso"><path d="M108.12,229.64 C135.07,234.16 168.91,239.82 198.04,244.7 " fill="none" id="gestor_logistica-to-CRUD percurso" style="stroke:#181818;stroke-width:1.0;"/><polygon fill="#181818" points="203.04,245.54,194.8277,240.1033,198.1092,244.7111,193.5014,247.9925,203.04,245.54" style="stroke:#181818;stroke-width:1.0;"/></g><!--MD5=[37a7d47715e04d9a2c48f800aa9fd227]
link gestor_logistica to CRUD empacotamento--><g id="link_gestor_logistica_CRUD empacotamento"><path d="M108.19,253.99 C127.37,266.15 149.83,279.64 171,290.5 C183.4,296.86 197.13,303 210.09,308.43 " fill="none" id="gestor_logistica-to-CRUD empacotamento" style="stroke:#181818;stroke-width:1.0;"/><polygon fill="#181818" points="214.82,310.39,208.0586,303.2287,210.2067,308.4619,204.9736,310.61,214.82,310.39" style="stroke:#181818;stroke-width:1.0;"/></g><!--MD5=[c0946658d5048f4601cb036fbff4a60f]
link admin to Gestao de utilizadores--><g id="link_admin_Gestao de utilizadores"><path d="M77.51,44.5 C97.95,44.5 132.89,44.5 166.93,44.5 " fill="none" id="admin-to-Gestao de utilizadores" style="stroke:#181818;stroke-width:1.0;"/><polygon fill="#181818" points="171.94,44.5,162.94,40.5,166.94,44.5,162.94,48.5,171.94,44.5" style="stroke:#181818;stroke-width:1.0;"/></g><!--MD5=[e06c5081bb4181567d8e90c19b804d37]
@startuml

left to right direction


gestor_armazem - -> (CRUD armazem)
gestor_armazem - -> (CRUD entrega)

gestor_frota  - -> (CRUD camiao)

gestor_logistica - -> (CRUD Caminho)
gestor_logistica - -> (CRUD viagem)
gestor_logistica - -> (CRUD percurso)
gestor_logistica - -> (CRUD empacotamento)

admin - -> (Gestao de utilizadores)


@enduml

PlantUML version 1.2022.4(Sat Apr 09 14:29:17 BST 2022)
(GPL source distribution)
Java Runtime: OpenJDK Runtime Environment
JVM: OpenJDK 64-Bit Server VM
Default Encoding: Cp1252
Language: pt
Country: PT
--></g></svg>