<?xml version="1.0" encoding="UTF-8" standalone="no"?><svg xmlns="http://www.w3.org/2000/svg" xmlns:xlink="http://www.w3.org/1999/xlink" contentStyleType="text/css" height="415px" preserveAspectRatio="none" style="width:397px;height:415px;background:#FFFFFF;" version="1.1" viewBox="0 0 397 415" width="397px" zoomAndPan="magnify"><defs/><g><rect fill="#FFFFFF" height="79.4063" style="stroke:#181818;stroke-width:1.0;" width="10" x="350.5" y="114.9609"/><rect fill="#FFFFFF" height="30.3516" style="stroke:#181818;stroke-width:1.0;" width="10" x="350.5" y="224.7188"/><rect fill="#FFFFFF" height="30.3516" style="stroke:#181818;stroke-width:1.0;" width="10" x="350.5" y="285.4219"/><line style="stroke:#181818;stroke-width:0.5;stroke-dasharray:5.0,5.0;" x1="18" x2="18" y1="82.6094" y2="333.7734"/><line style="stroke:#181818;stroke-width:0.5;stroke-dasharray:5.0,5.0;" x1="355.5" x2="355.5" y1="82.6094" y2="333.7734"/><text fill="#000000" font-family="sans-serif" font-size="14" lengthAdjust="spacing" textLength="19" x="6" y="79.5332">GL</text><ellipse cx="18.5" cy="13.5" fill="#E2E2F0" rx="8" ry="8" style="stroke:#181818;stroke-width:0.5;"/><path d="M18.5,21.5 L18.5,48.5 M5.5,29.5 L31.5,29.5 M18.5,48.5 L5.5,63.5 M18.5,48.5 L31.5,63.5 " fill="none" style="stroke:#181818;stroke-width:0.5;"/><text fill="#000000" font-family="sans-serif" font-size="14" lengthAdjust="spacing" textLength="19" x="6" y="347.3066">GL</text><ellipse cx="18.5" cy="358.8828" fill="#E2E2F0" rx="8" ry="8" style="stroke:#181818;stroke-width:0.5;"/><path d="M18.5,366.8828 L18.5,393.8828 M5.5,374.8828 L31.5,374.8828 M18.5,393.8828 L5.5,408.8828 M18.5,393.8828 L31.5,408.8828 " fill="none" style="stroke:#181818;stroke-width:0.5;"/><rect fill="#E2E2F0" height="31.6094" rx="2.5" ry="2.5" style="stroke:#181818;stroke-width:0.5;" width="72" x="319.5" y="50"/><text fill="#000000" font-family="sans-serif" font-size="14" lengthAdjust="spacing" textLength="58" x="326.5" y="71.5332">EletricGo</text><rect fill="#E2E2F0" height="31.6094" rx="2.5" ry="2.5" style="stroke:#181818;stroke-width:0.5;" width="72" x="319.5" y="332.7734"/><text fill="#000000" font-family="sans-serif" font-size="14" lengthAdjust="spacing" textLength="58" x="326.5" y="354.3066">EletricGo</text><rect fill="#FFFFFF" height="79.4063" style="stroke:#181818;stroke-width:1.0;" width="10" x="350.5" y="114.9609"/><rect fill="#FFFFFF" height="30.3516" style="stroke:#181818;stroke-width:1.0;" width="10" x="350.5" y="224.7188"/><rect fill="#FFFFFF" height="30.3516" style="stroke:#181818;stroke-width:1.0;" width="10" x="350.5" y="285.4219"/><polygon fill="#181818" points="338.5,110.9609,348.5,114.9609,338.5,118.9609,342.5,114.9609" style="stroke:#181818;stroke-width:1.0;"/><line style="stroke:#181818;stroke-width:1.0;" x1="18.5" x2="344.5" y1="114.9609" y2="114.9609"/><text fill="#000000" font-family="sans-serif" font-size="13" lengthAdjust="spacing" textLength="241" x="25.5" y="110.1045">Inicia criação de um planeamento da frota</text><polygon fill="#181818" points="29.5,190.3672,19.5,194.3672,29.5,198.3672,25.5,194.3672" style="stroke:#181818;stroke-width:1.0;"/><line style="stroke:#181818;stroke-width:1.0;stroke-dasharray:2.0,2.0;" x1="23.5" x2="354.5" y1="194.3672" y2="194.3672"/><text fill="#000000" font-family="sans-serif" font-size="13" lengthAdjust="spacing" textLength="186" x="35.5" y="140.4561">Solicita dados para introduzir no</text><text fill="#000000" font-family="sans-serif" font-size="13" lengthAdjust="spacing" textLength="236" x="39.5" y="156.8076">algoritmo genético (numero de gerações,</text><text fill="#000000" font-family="sans-serif" font-size="13" lengthAdjust="spacing" textLength="304" x="39.5" y="173.1592">tamanho da população, possibilidade de permutação</text><text fill="#000000" font-family="sans-serif" font-size="13" lengthAdjust="spacing" textLength="159" x="35.5" y="189.5107">, possibilidade de mutação)</text><polygon fill="#181818" points="338.5,220.7188,348.5,224.7188,338.5,228.7188,342.5,224.7188" style="stroke:#181818;stroke-width:1.0;"/><line style="stroke:#181818;stroke-width:1.0;" x1="18.5" x2="344.5" y1="224.7188" y2="224.7188"/><text fill="#000000" font-family="sans-serif" font-size="13" lengthAdjust="spacing" textLength="85" x="25.5" y="219.8623">Introduz dados</text><polygon fill="#181818" points="29.5,251.0703,19.5,255.0703,29.5,259.0703,25.5,255.0703" style="stroke:#181818;stroke-width:1.0;"/><line style="stroke:#181818;stroke-width:1.0;stroke-dasharray:2.0,2.0;" x1="23.5" x2="354.5" y1="255.0703" y2="255.0703"/><text fill="#000000" font-family="sans-serif" font-size="13" lengthAdjust="spacing" textLength="209" x="35.5" y="250.2139">Mostra dados e solicita confirmação</text><polygon fill="#181818" points="338.5,281.4219,348.5,285.4219,338.5,289.4219,342.5,285.4219" style="stroke:#181818;stroke-width:1.0;"/><line style="stroke:#181818;stroke-width:1.0;" x1="18.5" x2="344.5" y1="285.4219" y2="285.4219"/><text fill="#000000" font-family="sans-serif" font-size="13" lengthAdjust="spacing" textLength="51" x="25.5" y="280.5654">Confirma</text><polygon fill="#181818" points="29.5,311.7734,19.5,315.7734,29.5,319.7734,25.5,315.7734" style="stroke:#181818;stroke-width:1.0;"/><line style="stroke:#181818;stroke-width:1.0;stroke-dasharray:2.0,2.0;" x1="23.5" x2="354.5" y1="315.7734" y2="315.7734"/><text fill="#000000" font-family="sans-serif" font-size="13" lengthAdjust="spacing" textLength="181" x="35.5" y="310.917">Informa o sucesso da operação</text><!--MD5=[546e39894706a72e9fd57e1f0fd581e2]
@startuml
actor GL
GL -> EletricGo: Inicia criação de um planeamento da frota
activate EletricGo
EletricGo - -> GL : Solicita dados para introduzir no \n algoritmo genético (numero de gerações,\n tamanho da população, possibilidade de permutação\n, possibilidade de mutação)
deactivate

GL -> EletricGo: Introduz dados
activate EletricGo
EletricGo - -> GL : Mostra dados e solicita confirmação
deactivate

GL -> EletricGo: Confirma
activate EletricGo
EletricGo - -> GL : Informa o sucesso da operação
deactivate EletricGo
@enduml

PlantUML version 1.2022.7(Mon Aug 22 18:01:30 BST 2022)
(GPL source distribution)
Java Runtime: OpenJDK Runtime Environment
JVM: OpenJDK 64-Bit Server VM
Default Encoding: Cp1252
Language: pt
Country: PT
--></g></svg>