<?xml version="1.0" encoding="UTF-8" standalone="no"?><svg xmlns="http://www.w3.org/2000/svg" xmlns:xlink="http://www.w3.org/1999/xlink" contentStyleType="text/css" height="1151px" preserveAspectRatio="none" style="width:1923px;height:1151px;background:#FFFFFF;" version="1.1" viewBox="0 0 1923 1151" width="1923px" zoomAndPan="magnify"><defs/><g><!--MD5=[e85bd8b7c3eef9e05b8e65fb9224b5e9]
cluster EletricGo--><g id="cluster_EletricGo"><rect height="1102" rx="2.5" ry="2.5" style="stroke:#181818;stroke-width:1.0;fill:none;" width="1910" x="7" y="43.1855"/><rect height="10" style="stroke:#181818;stroke-width:1.0;fill:none;" width="15" x="1897" y="48.1855"/><rect height="2" style="stroke:#181818;stroke-width:1.0;fill:none;" width="4" x="1895" y="50.1855"/><rect height="2" style="stroke:#181818;stroke-width:1.0;fill:none;" width="4" x="1895" y="54.1855"/><text fill="#000000" font-family="sans-serif" font-size="14" font-weight="bold" lengthAdjust="spacing" textLength="65" x="929.5" y="70.7188">EletricGo</text></g><!--MD5=[38c27b35aef4eebaf210b1fd39b25fb0]
cluster spa--><g id="cluster_spa"><rect height="276" rx="2.5" ry="2.5" style="stroke:#181818;stroke-width:1.0;fill:none;" width="310" x="813" y="81.1855"/><rect height="10" style="stroke:#181818;stroke-width:1.0;fill:none;" width="15" x="1103" y="86.1855"/><rect height="2" style="stroke:#181818;stroke-width:1.0;fill:none;" width="4" x="1101" y="88.1855"/><rect height="2" style="stroke:#181818;stroke-width:1.0;fill:none;" width="4" x="1101" y="92.1855"/><text fill="#000000" font-family="sans-serif" font-size="14" font-weight="bold" lengthAdjust="spacing" textLength="27" x="954.5" y="108.7188">SPA</text></g><!--MD5=[6a160cc014265824a104513c79c30877]
cluster armazem--><g id="cluster_armazem"><rect height="596" rx="2.5" ry="2.5" style="stroke:#181818;stroke-width:1.0;fill:none;" width="919" x="966" y="397.1855"/><rect height="10" style="stroke:#181818;stroke-width:1.0;fill:none;" width="15" x="1865" y="402.1855"/><rect height="2" style="stroke:#181818;stroke-width:1.0;fill:none;" width="4" x="1863" y="404.1855"/><rect height="2" style="stroke:#181818;stroke-width:1.0;fill:none;" width="4" x="1863" y="408.1855"/><text fill="#000000" font-family="sans-serif" font-size="14" font-weight="bold" lengthAdjust="spacing" textLength="71" x="1390" y="424.7188">ARMAZEM</text></g><!--MD5=[c579c92204f7caf9f7686aff1f26856a]
cluster ARMAZEM Frameworks and Drivers Layer--><g id="cluster_ARMAZEM Frameworks and Drivers Layer"><path d="M1008.5,449.1855 L1298.5,449.1855 A3.75,3.75 0 0 1 1301,451.6855 L1308,472.7949 L1850.5,472.7949 A2.5,2.5 0 0 1 1853,475.2949 L1853,958.6855 A2.5,2.5 0 0 1 1850.5,961.1855 L1008.5,961.1855 A2.5,2.5 0 0 1 1006,958.6855 L1006,451.6855 A2.5,2.5 0 0 1 1008.5,449.1855 " style="stroke:#000000;stroke-width:1.5;fill:none;"/><line style="stroke:#000000;stroke-width:1.5;fill:none;" x1="1006" x2="1308" y1="472.7949" y2="472.7949"/><text fill="#000000" font-family="sans-serif" font-size="14" font-weight="bold" lengthAdjust="spacing" textLength="289" x="1010" y="465.7188">ARMAZEM Frameworks and Drivers Layer</text></g><!--MD5=[77096e5b61d3743a0ebf9342f671ec3c]
cluster ARMAZEM Interfaces Adapters Layer--><g id="cluster_ARMAZEM Interfaces Adapters Layer"><path d="M1032.5,557.1855 L1288.5,557.1855 A3.75,3.75 0 0 1 1291,559.6855 L1298,580.7949 L1632.5,580.7949 A2.5,2.5 0 0 1 1635,583.2949 L1635,934.6855 A2.5,2.5 0 0 1 1632.5,937.1855 L1032.5,937.1855 A2.5,2.5 0 0 1 1030,934.6855 L1030,559.6855 A2.5,2.5 0 0 1 1032.5,557.1855 " style="stroke:#000000;stroke-width:1.5;fill:none;"/><line style="stroke:#000000;stroke-width:1.5;fill:none;" x1="1030" x2="1298" y1="580.7949" y2="580.7949"/><text fill="#000000" font-family="sans-serif" font-size="14" font-weight="bold" lengthAdjust="spacing" textLength="255" x="1034" y="573.7188">ARMAZEM Interfaces Adapters Layer</text></g><!--MD5=[761dc697f9225629931a15dd22a7ebfd]
cluster ARMAZEM Application Business Rules--><g id="cluster_ARMAZEM Application Business Rules"><path d="M1056.5,681.1855 L1323.5,681.1855 A3.75,3.75 0 0 1 1326,683.6855 L1333,704.7949 L1418.5,704.7949 A2.5,2.5 0 0 1 1421,707.2949 L1421,910.6855 A2.5,2.5 0 0 1 1418.5,913.1855 L1056.5,913.1855 A2.5,2.5 0 0 1 1054,910.6855 L1054,683.6855 A2.5,2.5 0 0 1 1056.5,681.1855 " style="stroke:#000000;stroke-width:1.5;fill:none;"/><line style="stroke:#000000;stroke-width:1.5;fill:none;" x1="1054" x2="1333" y1="704.7949" y2="704.7949"/><text fill="#000000" font-family="sans-serif" font-size="14" font-weight="bold" lengthAdjust="spacing" textLength="266" x="1058" y="697.7188">ARMAZEM Application Business Rules</text></g><!--MD5=[4e93c187db4150bd7351771acfc3c48d]
cluster ARMAZEM Enterprise Business Rules--><g id="cluster_ARMAZEM Enterprise Business Rules"><path d="M1121.5,789.1855 L1384.5,789.1855 A3.75,3.75 0 0 1 1387,791.6855 L1394,812.7949 L1394.5,812.7949 A2.5,2.5 0 0 1 1397,815.2949 L1397,886.6855 A2.5,2.5 0 0 1 1394.5,889.1855 L1121.5,889.1855 A2.5,2.5 0 0 1 1119,886.6855 L1119,791.6855 A2.5,2.5 0 0 1 1121.5,789.1855 " style="stroke:#000000;stroke-width:1.5;fill:none;"/><line style="stroke:#000000;stroke-width:1.5;fill:none;" x1="1119" x2="1394" y1="812.7949" y2="812.7949"/><text fill="#000000" font-family="sans-serif" font-size="14" font-weight="bold" lengthAdjust="spacing" textLength="262" x="1123" y="805.7188">ARMAZEM Enterprise Business Rules</text></g><!--MD5=[ac45640be187818f3a1d3805aed968cb]
cluster logistica--><g id="cluster_logistica"><rect height="916" rx="2.5" ry="2.5" style="stroke:#181818;stroke-width:1.0;fill:none;" width="734" x="39" y="197.1855"/><rect height="10" style="stroke:#181818;stroke-width:1.0;fill:none;" width="15" x="753" y="202.1855"/><rect height="2" style="stroke:#181818;stroke-width:1.0;fill:none;" width="4" x="751" y="204.1855"/><rect height="2" style="stroke:#181818;stroke-width:1.0;fill:none;" width="4" x="751" y="208.1855"/><text fill="#000000" font-family="sans-serif" font-size="14" font-weight="bold" lengthAdjust="spacing" textLength="74" x="369" y="224.7188">LOGISTICA</text></g><!--MD5=[8fe2aa05149244fadf4a48c5c523dd2e]
cluster Frameworks and Drivers Layer--><g id="cluster_Frameworks and Drivers Layer"><path d="M73.5,249.1855 L288.5,249.1855 A3.75,3.75 0 0 1 291,251.6855 L298,272.7949 L730.5,272.7949 A2.5,2.5 0 0 1 733,275.2949 L733,1078.6855 A2.5,2.5 0 0 1 730.5,1081.1855 L73.5,1081.1855 A2.5,2.5 0 0 1 71,1078.6855 L71,251.6855 A2.5,2.5 0 0 1 73.5,249.1855 " style="stroke:#000000;stroke-width:1.5;fill:none;"/><line style="stroke:#000000;stroke-width:1.5;fill:none;" x1="71" x2="298" y1="272.7949" y2="272.7949"/><text fill="#000000" font-family="sans-serif" font-size="14" font-weight="bold" lengthAdjust="spacing" textLength="214" x="75" y="265.7188">Frameworks and Drivers Layer</text></g><!--MD5=[21f81540a0d7e332e3ef41dd8da589c3]
cluster Interfaces Adapters Layer--><g id="cluster_Interfaces Adapters Layer"><path d="M456.5,449.1855 L637.5,449.1855 A3.75,3.75 0 0 1 640,451.6855 L647,472.7949 L706.5,472.7949 A2.5,2.5 0 0 1 709,475.2949 L709,886.6855 A2.5,2.5 0 0 1 706.5,889.1855 L456.5,889.1855 A2.5,2.5 0 0 1 454,886.6855 L454,451.6855 A2.5,2.5 0 0 1 456.5,449.1855 " style="stroke:#000000;stroke-width:1.5;fill:none;"/><line style="stroke:#000000;stroke-width:1.5;fill:none;" x1="454" x2="647" y1="472.7949" y2="472.7949"/><text fill="#000000" font-family="sans-serif" font-size="14" font-weight="bold" lengthAdjust="spacing" textLength="180" x="458" y="465.7188">Interfaces Adapters Layer</text></g><!--MD5=[b8393d82f2444e332493eabe5d0dc1af]
cluster Application Business Rules--><g id="cluster_Application Business Rules"><path d="M480.5,557.1855 L672.5,557.1855 A3.75,3.75 0 0 1 675,559.6855 L682,580.7949 L682.5,580.7949 A2.5,2.5 0 0 1 685,583.2949 L685,654.6855 A2.5,2.5 0 0 1 682.5,657.1855 L480.5,657.1855 A2.5,2.5 0 0 1 478,654.6855 L478,559.6855 A2.5,2.5 0 0 1 480.5,557.1855 " style="stroke:#000000;stroke-width:1.5;fill:none;"/><line style="stroke:#000000;stroke-width:1.5;fill:none;" x1="478" x2="682" y1="580.7949" y2="580.7949"/><text fill="#000000" font-family="sans-serif" font-size="14" font-weight="bold" lengthAdjust="spacing" textLength="191" x="482" y="573.7188">Application Business Rules</text></g><!--MD5=[fdded0eb0050d8dc91ab4a1c8d8f2292]
cluster Enterprise Business Rules--><g id="cluster_Enterprise Business Rules"><path d="M107.5,789.1855 L295.5,789.1855 A3.75,3.75 0 0 1 298,791.6855 L305,812.7949 L305.5,812.7949 A2.5,2.5 0 0 1 308,815.2949 L308,886.6855 A2.5,2.5 0 0 1 305.5,889.1855 L107.5,889.1855 A2.5,2.5 0 0 1 105,886.6855 L105,791.6855 A2.5,2.5 0 0 1 107.5,789.1855 " style="stroke:#000000;stroke-width:1.5;fill:none;"/><line style="stroke:#000000;stroke-width:1.5;fill:none;" x1="105" x2="305" y1="812.7949" y2="812.7949"/><text fill="#000000" font-family="sans-serif" font-size="14" font-weight="bold" lengthAdjust="spacing" textLength="187" x="109" y="805.7188">Enterprise Business Rules</text></g><text fill="#000000" font-family="sans-serif" font-size="14" lengthAdjust="spacing" textLength="16" x="720" y="22.1094">p1</text><rect fill="#181818" height="12" style="stroke:#F1F1F1;stroke-width:1.5;" width="12" x="722" y="37.1855"/><!--MD5=[1f5f572fc467ae50c4f6423dcfedb84d]
entity planeamento--><g id="elem_planeamento"><rect fill="#F1F1F1" height="47.6094" rx="2.5" ry="2.5" style="stroke:#181818;stroke-width:0.5;" width="142" x="797" y="485.1855"/><rect fill="#F1F1F1" height="10" style="stroke:#181818;stroke-width:0.5;" width="15" x="919" y="490.1855"/><rect fill="#F1F1F1" height="2" style="stroke:#181818;stroke-width:0.5;" width="4" x="917" y="492.1855"/><rect fill="#F1F1F1" height="2" style="stroke:#181818;stroke-width:0.5;" width="4" x="917" y="496.1855"/><text fill="#000000" font-family="sans-serif" font-size="14" lengthAdjust="spacing" textLength="102" x="812" y="519.7188">PLANEAMENTO</text></g><!--MD5=[26372560f2561de71d106e60707f90df]
entity spa_components--><g id="elem_spa_components"><rect fill="#F1F1F1" height="47.6094" rx="2.5" ry="2.5" style="stroke:#181818;stroke-width:0.5;" width="120" x="979" y="125.1855"/><rect fill="#F1F1F1" height="10" style="stroke:#181818;stroke-width:0.5;" width="15" x="1079" y="130.1855"/><rect fill="#F1F1F1" height="2" style="stroke:#181818;stroke-width:0.5;" width="4" x="1077" y="132.1855"/><rect fill="#F1F1F1" height="2" style="stroke:#181818;stroke-width:0.5;" width="4" x="1077" y="136.1855"/><text fill="#000000" font-family="sans-serif" font-size="14" lengthAdjust="spacing" textLength="80" x="994" y="159.7188">Components</text></g><!--MD5=[28f710eed318c552e453eb1de1404158]
entity spa_helpers--><g id="elem_spa_helpers"><rect fill="#F1F1F1" height="47.6094" rx="2.5" ry="2.5" style="stroke:#181818;stroke-width:0.5;" width="88" x="856" y="125.1855"/><rect fill="#F1F1F1" height="10" style="stroke:#181818;stroke-width:0.5;" width="15" x="924" y="130.1855"/><rect fill="#F1F1F1" height="2" style="stroke:#181818;stroke-width:0.5;" width="4" x="922" y="132.1855"/><rect fill="#F1F1F1" height="2" style="stroke:#181818;stroke-width:0.5;" width="4" x="922" y="136.1855"/><text fill="#000000" font-family="sans-serif" font-size="14" lengthAdjust="spacing" textLength="48" x="871" y="159.7188">Helpers</text></g><!--MD5=[4cfc76491a2494bc888b8e0f7cc8f843]
entity spa_interfaces--><g id="elem_spa_interfaces"><rect fill="#F1F1F1" height="47.6094" rx="2.5" ry="2.5" style="stroke:#181818;stroke-width:0.5;" width="102" x="988" y="285.1855"/><rect fill="#F1F1F1" height="10" style="stroke:#181818;stroke-width:0.5;" width="15" x="1070" y="290.1855"/><rect fill="#F1F1F1" height="2" style="stroke:#181818;stroke-width:0.5;" width="4" x="1068" y="292.1855"/><rect fill="#F1F1F1" height="2" style="stroke:#181818;stroke-width:0.5;" width="4" x="1068" y="296.1855"/><text fill="#000000" font-family="sans-serif" font-size="14" lengthAdjust="spacing" textLength="62" x="1003" y="319.7188">Interfaces</text></g><!--MD5=[788c510c5f22337afd02c17195da6b40]
entity spa_services--><g id="elem_spa_services"><rect fill="#F1F1F1" height="47.6094" rx="2.5" ry="2.5" style="stroke:#181818;stroke-width:0.5;" width="94" x="858" y="285.1855"/><rect fill="#F1F1F1" height="10" style="stroke:#181818;stroke-width:0.5;" width="15" x="932" y="290.1855"/><rect fill="#F1F1F1" height="2" style="stroke:#181818;stroke-width:0.5;" width="4" x="930" y="292.1855"/><rect fill="#F1F1F1" height="2" style="stroke:#181818;stroke-width:0.5;" width="4" x="930" y="296.1855"/><text fill="#000000" font-family="sans-serif" font-size="14" lengthAdjust="spacing" textLength="54" x="873" y="319.7188">Services</text></g><!--MD5=[fda0fb1c8bcdcd234fbe0e273fcd1624]
entity wrouting--><g id="elem_wrouting"><rect fill="#F1F1F1" height="47.6094" rx="2.5" ry="2.5" style="stroke:#181818;stroke-width:0.5;" width="160" x="1068" y="485.1855"/><rect fill="#F1F1F1" height="10" style="stroke:#181818;stroke-width:0.5;" width="15" x="1208" y="490.1855"/><rect fill="#F1F1F1" height="2" style="stroke:#181818;stroke-width:0.5;" width="4" x="1206" y="492.1855"/><rect fill="#F1F1F1" height="2" style="stroke:#181818;stroke-width:0.5;" width="4" x="1206" y="496.1855"/><text fill="#000000" font-family="sans-serif" font-size="14" lengthAdjust="spacing" textLength="120" x="1083" y="519.7188">ARMAZEM Routing</text></g><!--MD5=[7bdf90a8711dd2a731e367a835f685be]
entity wpersistence--><g id="elem_wpersistence"><rect fill="#F1F1F1" height="47.6094" rx="2.5" ry="2.5" style="stroke:#181818;stroke-width:0.5;" width="185" x="1651.5" y="825.1855"/><rect fill="#F1F1F1" height="10" style="stroke:#181818;stroke-width:0.5;" width="15" x="1816.5" y="830.1855"/><rect fill="#F1F1F1" height="2" style="stroke:#181818;stroke-width:0.5;" width="4" x="1814.5" y="832.1855"/><rect fill="#F1F1F1" height="2" style="stroke:#181818;stroke-width:0.5;" width="4" x="1814.5" y="836.1855"/><text fill="#000000" font-family="sans-serif" font-size="14" lengthAdjust="spacing" textLength="145" x="1666.5" y="859.7188">ARMAZEM Persistence</text></g><!--MD5=[59053c15f5c221acac683a13aca88133]
entity wcontroller--><g id="elem_wcontroller"><rect fill="#F1F1F1" height="47.6094" rx="2.5" ry="2.5" style="stroke:#181818;stroke-width:0.5;" width="173" x="1061.5" y="593.1855"/><rect fill="#F1F1F1" height="10" style="stroke:#181818;stroke-width:0.5;" width="15" x="1214.5" y="598.1855"/><rect fill="#F1F1F1" height="2" style="stroke:#181818;stroke-width:0.5;" width="4" x="1212.5" y="600.1855"/><rect fill="#F1F1F1" height="2" style="stroke:#181818;stroke-width:0.5;" width="4" x="1212.5" y="604.1855"/><text fill="#000000" font-family="sans-serif" font-size="14" lengthAdjust="spacing" textLength="133" x="1076.5" y="627.7188">ARMAZEM Controller</text></g><!--MD5=[96a25a637f084bb307284ef5214e5cda]
entity wrepository--><g id="elem_wrepository"><rect fill="#F1F1F1" height="47.6094" rx="2.5" ry="2.5" style="stroke:#181818;stroke-width:0.5;" width="179" x="1439.5" y="717.1855"/><rect fill="#F1F1F1" height="10" style="stroke:#181818;stroke-width:0.5;" width="15" x="1598.5" y="722.1855"/><rect fill="#F1F1F1" height="2" style="stroke:#181818;stroke-width:0.5;" width="4" x="1596.5" y="724.1855"/><rect fill="#F1F1F1" height="2" style="stroke:#181818;stroke-width:0.5;" width="4" x="1596.5" y="728.1855"/><text fill="#000000" font-family="sans-serif" font-size="14" lengthAdjust="spacing" textLength="139" x="1454.5" y="751.7188">ARMAZEM Repository</text></g><!--MD5=[326b991456ce8a9f7d7581b34c15b189]
entity wmapper--><g id="elem_wmapper"><rect fill="#F1F1F1" height="47.6094" rx="2.5" ry="2.5" style="stroke:#181818;stroke-width:0.5;" width="159" x="1437.5" y="825.1855"/><rect fill="#F1F1F1" height="10" style="stroke:#181818;stroke-width:0.5;" width="15" x="1576.5" y="830.1855"/><rect fill="#F1F1F1" height="2" style="stroke:#181818;stroke-width:0.5;" width="4" x="1574.5" y="832.1855"/><rect fill="#F1F1F1" height="2" style="stroke:#181818;stroke-width:0.5;" width="4" x="1574.5" y="836.1855"/><text fill="#000000" font-family="sans-serif" font-size="14" lengthAdjust="spacing" textLength="119" x="1452.5" y="859.7188">ARMAZEM Mapper</text></g><!--MD5=[d776c6cbf997224155c0d772366a7a8e]
entity wservice--><g id="elem_wservice"><rect fill="#F1F1F1" height="47.6094" rx="2.5" ry="2.5" style="stroke:#181818;stroke-width:0.5;" width="158" x="1070" y="717.1855"/><rect fill="#F1F1F1" height="10" style="stroke:#181818;stroke-width:0.5;" width="15" x="1208" y="722.1855"/><rect fill="#F1F1F1" height="2" style="stroke:#181818;stroke-width:0.5;" width="4" x="1206" y="724.1855"/><rect fill="#F1F1F1" height="2" style="stroke:#181818;stroke-width:0.5;" width="4" x="1206" y="728.1855"/><text fill="#000000" font-family="sans-serif" font-size="14" lengthAdjust="spacing" textLength="118" x="1085" y="751.7188">ARMAZEM Service</text></g><!--MD5=[2eeb796f834fcee726c1f6e41b689826]
entity wdto--><g id="elem_wdto"><rect fill="#F1F1F1" height="47.6094" rx="2.5" ry="2.5" style="stroke:#181818;stroke-width:0.5;" width="141" x="1263.5" y="717.1855"/><rect fill="#F1F1F1" height="10" style="stroke:#181818;stroke-width:0.5;" width="15" x="1384.5" y="722.1855"/><rect fill="#F1F1F1" height="2" style="stroke:#181818;stroke-width:0.5;" width="4" x="1382.5" y="724.1855"/><rect fill="#F1F1F1" height="2" style="stroke:#181818;stroke-width:0.5;" width="4" x="1382.5" y="728.1855"/><text fill="#000000" font-family="sans-serif" font-size="14" lengthAdjust="spacing" textLength="101" x="1278.5" y="751.7188">ARMAZEM DTO</text></g><!--MD5=[42b909a46b4cc278587e64a378ebc49e]
entity wdomain--><g id="elem_wdomain"><rect fill="#F1F1F1" height="47.6094" rx="2.5" ry="2.5" style="stroke:#181818;stroke-width:0.5;" width="159" x="1221.5" y="825.1855"/><rect fill="#F1F1F1" height="10" style="stroke:#181818;stroke-width:0.5;" width="15" x="1360.5" y="830.1855"/><rect fill="#F1F1F1" height="2" style="stroke:#181818;stroke-width:0.5;" width="4" x="1358.5" y="832.1855"/><rect fill="#F1F1F1" height="2" style="stroke:#181818;stroke-width:0.5;" width="4" x="1358.5" y="836.1855"/><text fill="#000000" font-family="sans-serif" font-size="14" lengthAdjust="spacing" textLength="119" x="1236.5" y="859.7188">ARMAZEM Domain</text></g><!--MD5=[54409d5519d7646972cabb5538a3d297]
entity routing--><g id="elem_routing"><rect fill="#F1F1F1" height="47.6094" rx="2.5" ry="2.5" style="stroke:#181818;stroke-width:0.5;" width="89" x="509.5" y="285.1855"/><rect fill="#F1F1F1" height="10" style="stroke:#181818;stroke-width:0.5;" width="15" x="578.5" y="290.1855"/><rect fill="#F1F1F1" height="2" style="stroke:#181818;stroke-width:0.5;" width="4" x="576.5" y="292.1855"/><rect fill="#F1F1F1" height="2" style="stroke:#181818;stroke-width:0.5;" width="4" x="576.5" y="296.1855"/><text fill="#000000" font-family="sans-serif" font-size="14" lengthAdjust="spacing" textLength="49" x="524.5" y="319.7188">Routing</text></g><!--MD5=[c41e46d883680b688171592e8ab5fcf6]
entity persistence--><g id="elem_persistence"><rect fill="#F1F1F1" height="47.6094" rx="2.5" ry="2.5" style="stroke:#181818;stroke-width:0.5;" width="114" x="324" y="825.1855"/><rect fill="#F1F1F1" height="10" style="stroke:#181818;stroke-width:0.5;" width="15" x="418" y="830.1855"/><rect fill="#F1F1F1" height="2" style="stroke:#181818;stroke-width:0.5;" width="4" x="416" y="832.1855"/><rect fill="#F1F1F1" height="2" style="stroke:#181818;stroke-width:0.5;" width="4" x="416" y="836.1855"/><text fill="#000000" font-family="sans-serif" font-size="14" lengthAdjust="spacing" textLength="74" x="339" y="859.7188">Persistence</text></g><!--MD5=[db8c2b8734ce843b840728726fa2f232]
entity dto--><g id="elem_dto"><rect fill="#F1F1F1" height="47.6094" rx="2.5" ry="2.5" style="stroke:#181818;stroke-width:0.5;" width="70" x="288" y="1017.1855"/><rect fill="#F1F1F1" height="10" style="stroke:#181818;stroke-width:0.5;" width="15" x="338" y="1022.1855"/><rect fill="#F1F1F1" height="2" style="stroke:#181818;stroke-width:0.5;" width="4" x="336" y="1024.1855"/><rect fill="#F1F1F1" height="2" style="stroke:#181818;stroke-width:0.5;" width="4" x="336" y="1028.1855"/><text fill="#000000" font-family="sans-serif" font-size="14" lengthAdjust="spacing" textLength="30" x="303" y="1051.7188">DTO</text></g><!--MD5=[c05fcadc036a699206cfdfa4a4fdb889]
entity controller--><g id="elem_controller"><rect fill="#F1F1F1" height="47.6094" rx="2.5" ry="2.5" style="stroke:#181818;stroke-width:0.5;" width="102" x="487" y="485.1855"/><rect fill="#F1F1F1" height="10" style="stroke:#181818;stroke-width:0.5;" width="15" x="569" y="490.1855"/><rect fill="#F1F1F1" height="2" style="stroke:#181818;stroke-width:0.5;" width="4" x="567" y="492.1855"/><rect fill="#F1F1F1" height="2" style="stroke:#181818;stroke-width:0.5;" width="4" x="567" y="496.1855"/><text fill="#000000" font-family="sans-serif" font-size="14" lengthAdjust="spacing" textLength="62" x="502" y="519.7188">Controller</text></g><!--MD5=[24b005fcbd1feaad7f7dedc55a678d14]
entity repository--><g id="elem_repository"><rect fill="#F1F1F1" height="47.6094" rx="2.5" ry="2.5" style="stroke:#181818;stroke-width:0.5;" width="108" x="470" y="717.1855"/><rect fill="#F1F1F1" height="10" style="stroke:#181818;stroke-width:0.5;" width="15" x="558" y="722.1855"/><rect fill="#F1F1F1" height="2" style="stroke:#181818;stroke-width:0.5;" width="4" x="556" y="724.1855"/><rect fill="#F1F1F1" height="2" style="stroke:#181818;stroke-width:0.5;" width="4" x="556" y="728.1855"/><text fill="#000000" font-family="sans-serif" font-size="14" lengthAdjust="spacing" textLength="68" x="485" y="751.7188">Repository</text></g><!--MD5=[4012916fe198bc3f9df72b2cceb048ac]
entity mapper--><g id="elem_mapper"><rect fill="#F1F1F1" height="47.6094" rx="2.5" ry="2.5" style="stroke:#181818;stroke-width:0.5;" width="88" x="480" y="825.1855"/><rect fill="#F1F1F1" height="10" style="stroke:#181818;stroke-width:0.5;" width="15" x="548" y="830.1855"/><rect fill="#F1F1F1" height="2" style="stroke:#181818;stroke-width:0.5;" width="4" x="546" y="832.1855"/><rect fill="#F1F1F1" height="2" style="stroke:#181818;stroke-width:0.5;" width="4" x="546" y="836.1855"/><text fill="#000000" font-family="sans-serif" font-size="14" lengthAdjust="spacing" textLength="48" x="495" y="859.7188">Mapper</text></g><!--MD5=[38bfa9dc6018363cafe15f923a4b8db9]
entity service--><g id="elem_service"><rect fill="#F1F1F1" height="47.6094" rx="2.5" ry="2.5" style="stroke:#181818;stroke-width:0.5;" width="87" x="494.5" y="593.1855"/><rect fill="#F1F1F1" height="10" style="stroke:#181818;stroke-width:0.5;" width="15" x="561.5" y="598.1855"/><rect fill="#F1F1F1" height="2" style="stroke:#181818;stroke-width:0.5;" width="4" x="559.5" y="600.1855"/><rect fill="#F1F1F1" height="2" style="stroke:#181818;stroke-width:0.5;" width="4" x="559.5" y="604.1855"/><text fill="#000000" font-family="sans-serif" font-size="14" lengthAdjust="spacing" textLength="47" x="509.5" y="627.7188">Service</text></g><!--MD5=[8890788e37b11dd3053f547e2b5ce265]
entity domain--><g id="elem_domain"><rect fill="#F1F1F1" height="47.6094" rx="2.5" ry="2.5" style="stroke:#181818;stroke-width:0.5;" width="88" x="201" y="825.1855"/><rect fill="#F1F1F1" height="10" style="stroke:#181818;stroke-width:0.5;" width="15" x="269" y="830.1855"/><rect fill="#F1F1F1" height="2" style="stroke:#181818;stroke-width:0.5;" width="4" x="267" y="832.1855"/><rect fill="#F1F1F1" height="2" style="stroke:#181818;stroke-width:0.5;" width="4" x="267" y="836.1855"/><text fill="#000000" font-family="sans-serif" font-size="14" lengthAdjust="spacing" textLength="48" x="216" y="859.7188">Domain</text></g><!--MD5=[84a11881cad019630ec264c1ccbfbd24]
link p1 to routing--><g id="link_p1_routing"><path d="M721.9,44.3255 C696.58,44.9855 600.62,48.0555 591,57.1855 C529.7,115.3955 539.51,227.3855 548.27,279.8155 " fill="none" id="p1-to-routing" style="stroke:#181818;stroke-width:1.0;"/><polygon fill="#181818" points="549.17,284.9955,551.5957,275.4501,548.3272,280.0671,543.7101,276.7986,549.17,284.9955" style="stroke:#181818;stroke-width:1.0;"/></g><!--MD5=[7d6c0fbcaf7253afa5d67fcdf6f49935]
link routing to controller--><g id="link_routing_controller"><path d="M552.13,333.2855 C549.06,371.3355 542.96,446.7755 539.88,484.9255 " fill="none" id="routing-controller" style="stroke:#181818;stroke-width:1.0;"/><path d="M553.6264,402.5895 A10,10 0 0 0 539.5302 401.4504" fill="none" style="stroke:#181818;stroke-width:1.5;"/><ellipse cx="546.0088" cy="409.068" fill="#FFFFFF" rx="6" ry="6" style="stroke:#181818;stroke-width:1.5;"/></g><!--MD5=[7e32a097be010eedbcd0f8c178ded199]
link controller to service--><g id="link_controller_service"><path d="M538,533.1855 C538,550.8455 538,575.1255 538,592.8655 " fill="none" id="controller-service" style="stroke:#181818;stroke-width:1.0;"/><path d="M545.0711,555.9245 A10,10 0 0 0 530.9289 555.9245" fill="none" style="stroke:#181818;stroke-width:1.5;"/><ellipse cx="538" cy="562.9955" fill="#FFFFFF" rx="6" ry="6" style="stroke:#181818;stroke-width:1.5;"/></g><!--MD5=[95af60e6d793701562f73311d2ec55eb]
link controller to dto--><g id="link_controller_dto"><path d="M486.96,531.0255 C405.14,567.6055 247.49,651.9955 185,781.1855 C140.87,872.4055 121.68,930.0655 185,1009.1855 C197.66,1025.0055 251.33,1033.3055 287.88,1037.2155 " fill="none" id="controller-dto" style="stroke:#181818;stroke-width:1.0;"/><path d="M338.6095,622.9324 A10,10 0 0 0 330.2868 611.4985" fill="none" style="stroke:#181818;stroke-width:1.5;"/><ellipse cx="328.7313" cy="621.3768" fill="#FFFFFF" rx="6" ry="6" style="stroke:#181818;stroke-width:1.5;"/></g><!--MD5=[868a81ec62f7ffb5c8ad3d4c697bcfae]
link mapper to dto--><g id="link_mapper_dto"><path d="M524.02,873.2155 C522.73,908.0355 514.9,973.7555 476,1009.1855 C459.07,1024.6055 397.81,1033.1755 358.13,1037.2255 " fill="none" id="mapper-dto" style="stroke:#181818;stroke-width:1.0;"/><path d="M485.9891,1009.6519 A10,10 0 0 0 476.4663 999.1964" fill="none" style="stroke:#181818;stroke-width:1.5;"/><ellipse cx="476" cy="1009.1855" fill="#FFFFFF" rx="6" ry="6" style="stroke:#181818;stroke-width:1.5;"/></g><!--MD5=[97bdd0d48051b8f91e5ed95c1617cb6b]
link service to mapper--><g id="link_service_mapper"><path d="M571.48,641.4455 C581.27,650.1555 590.74,660.9455 596,673.1855 C612.15,710.7555 610.3,726.8755 596,765.1855 C587.26,788.5955 568.61,809.7855 552.48,824.8855 " fill="none" id="service-mapper" style="stroke:#181818;stroke-width:1.0;"/><path d="M605.0974,761.0337 A10,10 0 0 0 591.8482 756.0882" fill="none" style="stroke:#181818;stroke-width:1.5;"/><ellipse cx="596" cy="765.1855" fill="#FFFFFF" rx="6" ry="6" style="stroke:#181818;stroke-width:1.5;"/></g><!--MD5=[108071491d6574585b4e8a44c7f12a19]
link service to repository--><g id="link_service_repository"><path d="M535.33,641.4155 C532.84,663.1255 529.14,695.3555 526.66,717.0355 " fill="none" id="service-repository" style="stroke:#181818;stroke-width:1.0;"/><path d="M538.822,673.0175 A10,10 0 0 0 524.772 671.406" fill="none" style="stroke:#181818;stroke-width:1.5;"/><ellipse cx="530.9913" cy="679.2368" fill="#FFFFFF" rx="6" ry="6" style="stroke:#181818;stroke-width:1.5;"/></g><!--MD5=[ac0eb164107392e77d3d99ee321a72f2]
link service to domain--><g id="link_service_domain"><path d="M519.56,641.6555 C511.64,650.2655 501.74,659.3255 491,665.1855 C476.23,673.2355 469.27,666.1155 454,673.1855 C393.01,701.4155 392.55,732.1955 334,765.1855 C316.96,774.7855 308.45,769.1855 293,781.1855 C277.86,792.9555 265.42,810.7555 257,825.0555 " fill="none" id="service-domain" style="stroke:#181818;stroke-width:1.0;"/><path d="M403.0845,717.3052 A10,10 0 0 0 392.9896 707.401" fill="none" style="stroke:#181818;stroke-width:1.5;"/><ellipse cx="393.085" cy="717.4005" fill="#FFFFFF" rx="6" ry="6" style="stroke:#181818;stroke-width:1.5;"/></g><!--MD5=[3b67438aa90e80f3b612a0325148951d]
link repository to persistence--><g id="link_repository_persistence"><path d="M478.97,765.2155 C470.45,770.1455 461.78,775.5655 454,781.1855 C435.87,794.2755 417.33,811.3555 403.47,824.9855 " fill="none" id="repository-persistence" style="stroke:#181818;stroke-width:1.0;"/><path d="M437.1139,803.512 A10,10 0 0 0 427.7627 792.9028" fill="none" style="stroke:#181818;stroke-width:1.5;"/><ellipse cx="427.1338" cy="802.883" fill="#FFFFFF" rx="6" ry="6" style="stroke:#181818;stroke-width:1.5;"/></g><!--MD5=[7081cdce0f044b6e930c56b8e9e9a197]
link repository to domain--><g id="link_repository_domain"><path d="M469.95,749.1055 C406.44,757.5855 307.79,771.9455 293,781.1855 C276.37,791.5655 263.79,810.0255 255.69,824.9455 " fill="none" id="repository-domain" style="stroke:#181818;stroke-width:1.0;"/><path d="M371.3527,770.6584 A10,10 0 0 0 369.0028 756.7128" fill="none" style="stroke:#181818;stroke-width:1.5;"/><ellipse cx="363.205" cy="764.8605" fill="#FFFFFF" rx="6" ry="6" style="stroke:#181818;stroke-width:1.5;"/></g><!--MD5=[cd435c2117e9a97c87b3b6818b2272d0]
link repository to mapper--><g id="link_repository_mapper"><path d="M524,765.1855 C524,782.8455 524,807.1255 524,824.8655 " fill="none" id="repository-mapper" style="stroke:#181818;stroke-width:1.0;"/><path d="M531.0711,787.9245 A10,10 0 0 0 516.9289 787.9245" fill="none" style="stroke:#181818;stroke-width:1.5;"/><ellipse cx="524" cy="794.9955" fill="#FFFFFF" rx="6" ry="6" style="stroke:#181818;stroke-width:1.5;"/></g><!--MD5=[a06cd5159d8ee0a32708e1f6a8aa59d9]
link spa to armazem--><g id="link_spa_armazem"><path d="M830.5288,357.7804 C830.6268,358.0225 830.7255,358.2627 830.8248,358.5012 C831.0235,358.9783 831.2249,359.4482 831.429,359.911 C832.2453,361.762 833.1049,363.4976 834.0099,365.1078 C835.8199,368.3283 837.8113,371.0474 840,373.1855 C860.71,393.4055 949.84,360.4155 970,381.1855 C972.4194,383.6787 974.5562,386.3457 976.4361,389.1559 C977.3761,390.561 978.2518,392.0019 979.0665,393.4747 C979.4738,394.211 979.8659,394.9554 980.2431,395.7073 C980.4317,396.0832 980.6166,396.461 980.7979,396.8407 " fill="none" id="spa-armazem" style="stroke:#181818;stroke-width:1.0;"/><path d="M897.3795,370.755 A10,10 0 0 0 898.9819 384.806" fill="none" style="stroke:#181818;stroke-width:1.5;"/><ellipse cx="905.2063" cy="376.9793" fill="#FFFFFF" rx="6" ry="6" style="stroke:#181818;stroke-width:1.5;"/></g><!--MD5=[78080dda50258effdf878c4f94d94870]
link spa to logistica--><g id="link_spa_logistica"><path d="M812.9669,176.6046 C812.9351,176.6183 812.9033,176.6318 812.8715,176.6452 C812.8078,176.672 812.7441,176.6983 812.6802,176.724 C812.1691,176.9299 811.6516,177.1037 811.1312,177.2755 C809.05,177.963 806.925,178.6205 805,181.1855 C796.2575,192.833 789.3956,206.4393 784.0181,220.3348 C781.3294,227.2825 779.0117,234.3025 777.0156,241.1862 C776.0176,244.628 775.0999,248.0357 774.2565,251.3833 C773.8347,253.0571 773.4316,254.7158 773.0462,256.3562 " fill="none" id="spa-logistica" style="stroke:#181818;stroke-width:1.0;"/><path d="M793.1646,216.2923 A10,10 0 0 0 779.9757 211.1883" fill="none" style="stroke:#181818;stroke-width:1.5;"/><ellipse cx="784.0181" cy="220.3348" fill="#FFFFFF" rx="6" ry="6" style="stroke:#181818;stroke-width:1.5;"/></g><!--MD5=[af0bca1080e6c9b8724580f561420292]
link logistica to planeamento--><g id="link_logistica_planeamento"><path d="M773.112,325.7808 C773.4659,326.4609 773.8295,327.1599 774.2026,327.877 C774.9487,329.3113 775.7326,330.8181 776.5514,332.392 C783.1016,344.9827 791.8831,361.8637 801.4213,380.1993 C820.4975,416.8705 842.6,459.3605 855.93,484.9855 " fill="none" id="logistica-planeamento" style="stroke:#181818;stroke-width:1.0;"/><path d="M804.4311,370.663 A10,10 0 0 0 791.885 377.1895" fill="none" style="stroke:#181818;stroke-width:1.5;"/><ellipse cx="801.4213" cy="380.1993" fill="#FFFFFF" rx="6" ry="6" style="stroke:#181818;stroke-width:1.5;"/></g><!--MD5=[f805087b7df35dab3d893954831a4e61]
link logistica to armazem--><g id="link_logistica_armazem"><path d="M773.0075,332.7132 C773.0524,332.8142 773.0976,332.9154 773.1429,333.0167 C773.3243,333.4219 773.509,333.8295 773.6969,334.2393 C774.0727,335.0588 774.4616,335.887 774.8638,336.7218 C781.2975,350.078 791.115,365.1105 805,373.1855 C820.87,382.4155 957.13,368.0955 970,381.1855 C972.4356,383.663 974.5867,386.3164 976.479,389.1146 C977.4251,390.5137 978.3066,391.949 979.1265,393.4167 C979.5365,394.1505 979.9311,394.8924 980.3108,395.6419 C980.5006,396.0167 980.6867,396.3933 980.8691,396.7718 " fill="none" id="logistica-armazem" style="stroke:#181818;stroke-width:1.0;"/><path d="M881.4072,368.8168 A10,10 0 0 0 881.7038 382.9559" fill="none" style="stroke:#181818;stroke-width:1.5;"/><ellipse cx="888.625" cy="375.738" fill="#FFFFFF" rx="6" ry="6" style="stroke:#181818;stroke-width:1.5;"/></g><!--MD5=[3084e32594a7f06bafbbf96c223700a0]
link p1 to wrouting--><g id="link_p1_wrouting"><path d="M734.14,44.1655 C782.53,43.9955 1100.67,43.4155 1115,57.1855 C1233.52,171.1155 1180.23,400.4155 1156.9,480.1255 " fill="none" id="p1-to-wrouting" style="stroke:#181818;stroke-width:1.0;"/><polygon fill="#181818" points="1155.41,485.1555,1161.7906,477.653,1156.8231,480.3594,1154.1168,475.392,1155.41,485.1555" style="stroke:#181818;stroke-width:1.0;"/></g><!--MD5=[fd2da9c32fbd198657ffa54f482e6bff]
link wrouting to wcontroller--><g id="link_wrouting_wcontroller"><path d="M1148,533.1855 C1148,550.8455 1148,575.1255 1148,592.8655 " fill="none" id="wrouting-wcontroller" style="stroke:#181818;stroke-width:1.0;"/><path d="M1155.0711,555.9245 A10,10 0 0 0 1140.9289 555.9245" fill="none" style="stroke:#181818;stroke-width:1.5;"/><ellipse cx="1148" cy="562.9955" fill="#FFFFFF" rx="6" ry="6" style="stroke:#181818;stroke-width:1.5;"/></g><!--MD5=[8ae660df7a187fc2d5c8ba3bd61eab66]
link wcontroller to wservice--><g id="link_wcontroller_wservice"><path d="M1148.19,641.4155 C1148.37,663.1255 1148.63,695.3555 1148.81,717.0355 " fill="none" id="wcontroller-wservice" style="stroke:#181818;stroke-width:1.0;"/><path d="M1155.5131,672.1083 A10,10 0 0 0 1141.3715 672.2237" fill="none" style="stroke:#181818;stroke-width:1.5;"/><ellipse cx="1148.5" cy="679.2368" fill="#FFFFFF" rx="6" ry="6" style="stroke:#181818;stroke-width:1.5;"/></g><!--MD5=[171184677893c242354eacc51e5f405d]
link wmapper to wdto--><g id="link_wmapper_wdto"><path d="M1477.05,825.0455 C1446.4,807.2955 1404.3,782.9055 1373.71,765.1855 " fill="none" id="wmapper-wdto" style="stroke:#181818;stroke-width:1.0;"/><path d="M1427.9317,804.7673 A10,10 0 0 0 1435.0205 792.5301" fill="none" style="stroke:#181818;stroke-width:1.5;"/><ellipse cx="1425.3575" cy="795.1043" fill="#FFFFFF" rx="6" ry="6" style="stroke:#181818;stroke-width:1.5;"/></g><!--MD5=[ba9d40908d5ff1a5068b19c03f899174]
link wmapper to wdomain--><g id="link_wmapper_wdomain"><path d="M1437.42,849.1855 C1418.53,849.1855 1399.63,849.1855 1380.73,849.1855 " fill="none" id="wmapper-wdomain" style="stroke:#181818;stroke-width:1.0;"/><path d="M1416.1498,856.2566 A10,10 0 0 0 1416.1498 842.1145" fill="none" style="stroke:#181818;stroke-width:1.5;"/><ellipse cx="1409.0788" cy="849.1855" fill="#FFFFFF" rx="6" ry="6" style="stroke:#181818;stroke-width:1.5;"/></g><!--MD5=[13b4d92e7741563f568a692cbcf7997a]
link wservice to wmapper--><g id="link_wservice_wmapper"><path d="M1228.24,761.8455 C1234.23,763.0655 1240.2,764.1955 1246,765.1855 C1312.52,776.5455 1332.68,760.7655 1397,781.1855 C1428.5,791.1855 1461.04,809.9755 1484.27,825.1155 " fill="none" id="wservice-wmapper" style="stroke:#181818;stroke-width:1.0;"/><path d="M1315.263,762.7079 A10,10 0 0 0 1315.2448 776.85" fill="none" style="stroke:#181818;stroke-width:1.5;"/><ellipse cx="1322.325" cy="769.788" fill="#FFFFFF" rx="6" ry="6" style="stroke:#181818;stroke-width:1.5;"/></g><!--MD5=[5e42d364769d7b2ac87005e24fca36a0]
link wservice to wrepository--><g id="link_wservice_wrepository"><path d="M1172.78,717.1755 C1194.32,697.8155 1228.03,673.1855 1263.5,669.1855 C1294.41,665.6955 1372.59,665.6955 1403.5,669.1855 C1411.43,670.0755 1413.63,670.1255 1421,673.1855 C1448.22,684.4755 1476.31,702.3955 1497.01,716.9955 " fill="none" id="wservice-wrepository" style="stroke:#181818;stroke-width:1.0;"/><path d="M1326.4289,659.497 A10,10 0 0 0 1326.4289 673.6391" fill="none" style="stroke:#181818;stroke-width:1.5;"/><ellipse cx="1333.5" cy="666.568" fill="#FFFFFF" rx="6" ry="6" style="stroke:#181818;stroke-width:1.5;"/></g><!--MD5=[c8368a3a6289061f830c035f5dc8f4fa]
link wservice to wdomain--><g id="link_wservice_wdomain"><path d="M1181.98,765.1855 C1207.39,782.9055 1242.36,807.2955 1267.82,825.0455 " fill="none" id="wservice-wdomain" style="stroke:#181818;stroke-width:1.0;"/><path d="M1223.126,785.2595 A10,10 0 0 0 1215.0365 796.8595" fill="none" style="stroke:#181818;stroke-width:1.5;"/><ellipse cx="1224.8813" cy="795.1043" fill="#FFFFFF" rx="6" ry="6" style="stroke:#181818;stroke-width:1.5;"/></g><!--MD5=[80d6d81440ec7f475ec32fb2554efd59]
link wrepository to wpersistence--><g id="link_wrepository_wpersistence"><path d="M1597.69,765.1855 C1610.29,770.0455 1623.18,775.4455 1635,781.1855 C1661.18,793.8955 1689.11,811.1355 1710.14,824.9555 " fill="none" id="wrepository-wpersistence" style="stroke:#181818;stroke-width:1.0;"/><path d="M1672.0181,792.9675 A10,10 0 0 0 1664.8144 805.1374" fill="none" style="stroke:#181818;stroke-width:1.5;"/><ellipse cx="1674.5013" cy="802.6543" fill="#FFFFFF" rx="6" ry="6" style="stroke:#181818;stroke-width:1.5;"/></g><!--MD5=[f9f50c20dfbec7ab1e19b229cd0dc425]
link wrepository to wdomain--><g id="link_wrepository_wdomain"><path d="M1439.31,760.3855 C1420.82,765.7955 1401.87,772.6455 1385,781.1855 C1362.53,792.5655 1340.4,810.5755 1324.5,825.0555 " fill="none" id="wrepository-wdomain" style="stroke:#181818;stroke-width:1.0;"/><path d="M1394.5024,784.3007 A10,10 0 0 0 1388.1151 771.6831" fill="none" style="stroke:#181818;stroke-width:1.5;"/><ellipse cx="1385" cy="781.1855" fill="#FFFFFF" rx="6" ry="6" style="stroke:#181818;stroke-width:1.5;"/></g><!--MD5=[143d7190f150a557a41214d64f4b9b42]
link wrepository to wmapper--><g id="link_wrepository_wmapper"><path d="M1526.4,765.1855 C1524.4,782.8455 1521.65,807.1255 1519.64,824.8655 " fill="none" id="wrepository-wmapper" style="stroke:#181818;stroke-width:1.0;"/><path d="M1530.8457,788.7652 A10,10 0 0 0 1516.7934 787.1736" fill="none" style="stroke:#181818;stroke-width:1.5;"/><ellipse cx="1523.0238" cy="794.9955" fill="#FFFFFF" rx="6" ry="6" style="stroke:#181818;stroke-width:1.5;"/></g><!--MD5=[2d62117c248a8040fbd9e3849035df8e]
link spa_components to spa_services--><g id="link_spa_components_spa_services"><path d="M980.84,173.2855 C977.33,175.6955 974.01,178.3255 971,181.1855 C940.19,210.4455 921.09,257.2855 911.81,285.1555 " fill="none" id="spa_components-spa_services" style="stroke:#181818;stroke-width:1.0;"/><path d="M942.865,230.674 A10,10 0 0 0 930.3134 224.158" fill="none" style="stroke:#181818;stroke-width:1.5;"/><ellipse cx="933.3313" cy="233.6918" fill="#FFFFFF" rx="6" ry="6" style="stroke:#181818;stroke-width:1.5;"/></g><!--MD5=[6cb95c1524e49fb4ca47c91b65e880ce]
link spa_components to spa_interfaces--><g id="link_spa_components_spa_interfaces"><path d="M1039,173.4955 C1039,203.4555 1039,255.1555 1039,285.0355 " fill="none" id="spa_components-spa_interfaces" style="stroke:#181818;stroke-width:1.0;"/><path d="M1046.0711,222.2245 A10,10 0 0 0 1031.9289 222.2245" fill="none" style="stroke:#181818;stroke-width:1.5;"/><ellipse cx="1039" cy="229.2955" fill="#FFFFFF" rx="6" ry="6" style="stroke:#181818;stroke-width:1.5;"/></g><!--MD5=[66378b49d84840745780937ce73a32cf]
link spa_helpers to spa_services--><g id="link_spa_helpers_spa_services"><path d="M900.74,173.4955 C901.69,203.4555 903.32,255.1555 904.27,285.0355 " fill="none" id="spa_helpers-spa_services" style="stroke:#181818;stroke-width:1.0;"/><path d="M909.3491,222.0046 A10,10 0 0 0 895.2141 222.4514" fill="none" style="stroke:#181818;stroke-width:1.5;"/><ellipse cx="902.505" cy="229.2955" fill="#FFFFFF" rx="6" ry="6" style="stroke:#181818;stroke-width:1.5;"/></g><!--MD5=[8a2f85691aae77a04d8f88b7b5c6bab1]
@startuml

component EletricGo {
  port p1

  component "SPA" as spa {
    
    component "Components" as spa_components 
    component "Helpers" as spa_helpers
    component "Interfaces" as spa_interfaces
    component "Services" as spa_services 

  }

  component "ARMAZEM" as armazem{
    package "ARMAZEM Frameworks and Drivers Layer" {
        component "ARMAZEM Routing" as wrouting
        component "ARMAZEM Persistence" as wpersistence
        package "ARMAZEM Interfaces Adapters Layer" {
            component "ARMAZEM Controller" as wcontroller
            component "ARMAZEM Repository" as wrepository
            component "ARMAZEM Mapper" as wmapper
            package "ARMAZEM Application Business Rules" {
                component "ARMAZEM Service" as wservice
                component "ARMAZEM DTO" as wdto
                package "ARMAZEM Enterprise Business Rules" {
                    component "ARMAZEM Domain" as wdomain
              }
            }
        }
        
      }
  }

  component "LOGISTICA" as logistica {
      package "Frameworks and Drivers Layer" {
        component "Routing" as routing
        component "Persistence" as persistence
        package "Interfaces Adapters Layer" {
            component "Controller" as controller
            component "Repository" as repository
            component "Mapper" as mapper
            package "Application Business Rules" {
                component "Service" as service
            }
        }
        component "DTO" as dto
        package "Enterprise Business Rules" {
            component "Domain" as domain
        }
      }
  }

  component "PLANEAMENTO" as planeamento


}

p1 -> routing
routing -(0- controller
controller -(0- service
controller -(0- dto

mapper -(0- dto

service -(0- mapper
service -(0- repository
service -(0- domain

repository -(0- persistence
repository -(0- domain
repository -(0- mapper

spa -(0- armazem
spa -(0- logistica
logistica -(0- planeamento
logistica -(0- armazem

p1 -> wrouting
wrouting -(0- wcontroller
wcontroller -(0- wservice

wmapper -(0- wdto
wmapper -(0- wdomain

wservice -(0- wmapper
wservice -(0- wrepository
wservice -(0- wdomain

wrepository -(0- wpersistence
wrepository -(0- wdomain
wrepository -(0- wmapper

spa_components -(0- spa_services
spa_components -(0- spa_interfaces
spa_helpers -(0- spa_services


@enduml

PlantUML version 1.2022.4(Sat Apr 09 14:29:17 BST 2022)
(GPL source distribution)
Java Runtime: OpenJDK Runtime Environment
JVM: OpenJDK 64-Bit Server VM
Default Encoding: Cp1252
Language: pt
Country: PT
--></g></svg>