<?xml version="1.0" encoding="UTF-8" standalone="no"?><svg xmlns="http://www.w3.org/2000/svg" xmlns:xlink="http://www.w3.org/1999/xlink" contentStyleType="text/css" height="1027px" preserveAspectRatio="none" style="width:1447px;height:1027px;background:#FFFFFF;" version="1.1" viewBox="0 0 1447 1027" width="1447px" zoomAndPan="magnify"><defs/><g><!--MD5=[e85bd8b7c3eef9e05b8e65fb9224b5e9]
cluster EletricGo--><g id="cluster_EletricGo"><path d="M10.29,6 L76.29,6 A3.75,3.75 0 0 1 78.79,8.5 L85.79,29.6094 L1438.29,29.6094 A2.5,2.5 0 0 1 1440.79,32.1094 L1440.79,1017.5 A2.5,2.5 0 0 1 1438.29,1020 L10.29,1020 A2.5,2.5 0 0 1 7.79,1017.5 L7.79,8.5 A2.5,2.5 0 0 1 10.29,6 " fill="none" style="stroke:#000000;stroke-width:1.5;"/><line style="stroke:#000000;stroke-width:1.5;" x1="7.79" x2="85.79" y1="29.6094" y2="29.6094"/><text fill="#000000" font-family="sans-serif" font-size="14" font-weight="bold" lengthAdjust="spacing" textLength="65" x="11.79" y="22.5332">EletricGo</text></g><!--MD5=[6a160cc014265824a104513c79c30877]
cluster armazem--><g id="cluster_armazem"><path d="M55.29,380 L127.29,380 A3.75,3.75 0 0 1 129.79,382.5 L136.79,403.6094 L850.29,403.6094 A2.5,2.5 0 0 1 852.79,406.1094 L852.79,985.5 A2.5,2.5 0 0 1 850.29,988 L55.29,988 A2.5,2.5 0 0 1 52.79,985.5 L52.79,382.5 A2.5,2.5 0 0 1 55.29,380 " fill="none" style="stroke:#000000;stroke-width:1.5;"/><line style="stroke:#000000;stroke-width:1.5;" x1="52.79" x2="136.79" y1="403.6094" y2="403.6094"/><text fill="#000000" font-family="sans-serif" font-size="14" font-weight="bold" lengthAdjust="spacing" textLength="71" x="56.79" y="396.5332">ARMAZEM</text></g><!--MD5=[65922083f893aa41e13d6fb2e12bbc04]
cluster ARMAZEM Application Services--><g id="cluster_ARMAZEM Application Services"><path d="M468.29,563 L688.29,563 A3.75,3.75 0 0 1 690.79,565.5 L697.79,586.6094 L698.29,586.6094 A2.5,2.5 0 0 1 700.79,589.1094 L700.79,667.5 A2.5,2.5 0 0 1 698.29,670 L468.29,670 A2.5,2.5 0 0 1 465.79,667.5 L465.79,565.5 A2.5,2.5 0 0 1 468.29,563 " fill="none" style="stroke:#000000;stroke-width:1.5;"/><line style="stroke:#000000;stroke-width:1.5;" x1="465.79" x2="697.79" y1="586.6094" y2="586.6094"/><text fill="#000000" font-family="sans-serif" font-size="14" font-weight="bold" lengthAdjust="spacing" textLength="219" x="469.79" y="579.5332">ARMAZEM Application Services</text></g><!--MD5=[af6a872536fafb662909389811ef07bc]
cluster ARMAZEM Interface Adapters--><g id="cluster_ARMAZEM Interface Adapters"><path d="M158.29,432 L364.29,432 A3.75,3.75 0 0 1 366.79,434.5 L373.79,455.6094 L540.29,455.6094 A2.5,2.5 0 0 1 542.79,458.1094 L542.79,536.5 A2.5,2.5 0 0 1 540.29,539 L158.29,539 A2.5,2.5 0 0 1 155.79,536.5 L155.79,434.5 A2.5,2.5 0 0 1 158.29,432 " fill="none" style="stroke:#000000;stroke-width:1.5;"/><line style="stroke:#000000;stroke-width:1.5;" x1="155.79" x2="373.79" y1="455.6094" y2="455.6094"/><text fill="#000000" font-family="sans-serif" font-size="14" font-weight="bold" lengthAdjust="spacing" textLength="205" x="159.79" y="448.5332">ARMAZEM Interface Adapters</text></g><!--MD5=[c81e7696de39627b5592be23df93576b]
cluster ARMAZEM Domain--><g id="cluster_ARMAZEM Domain"><path d="M488.29,734 L616.29,734 A3.75,3.75 0 0 1 618.79,736.5 L625.79,757.6094 L818.29,757.6094 A2.5,2.5 0 0 1 820.79,760.1094 L820.79,953.5 A2.5,2.5 0 0 1 818.29,956 L488.29,956 A2.5,2.5 0 0 1 485.79,953.5 L485.79,736.5 A2.5,2.5 0 0 1 488.29,734 " fill="none" style="stroke:#000000;stroke-width:1.5;"/><line style="stroke:#000000;stroke-width:1.5;" x1="485.79" x2="625.79" y1="757.6094" y2="757.6094"/><text fill="#000000" font-family="sans-serif" font-size="14" font-weight="bold" lengthAdjust="spacing" textLength="127" x="489.79" y="750.5332">ARMAZEM Domain</text></g><!--MD5=[19ca9f2b147ebacf0a8d6a59dcf554d2]
cluster ARMAZEM Infraestructure--><g id="cluster_ARMAZEM Infraestructure"><path d="M95.29,849 L277.29,849 A3.75,3.75 0 0 1 279.79,851.5 L286.79,872.6094 L459.29,872.6094 A2.5,2.5 0 0 1 461.79,875.1094 L461.79,953.5 A2.5,2.5 0 0 1 459.29,956 L95.29,956 A2.5,2.5 0 0 1 92.79,953.5 L92.79,851.5 A2.5,2.5 0 0 1 95.29,849 " fill="none" style="stroke:#000000;stroke-width:1.5;"/><line style="stroke:#000000;stroke-width:1.5;" x1="92.79" x2="286.79" y1="872.6094" y2="872.6094"/><text fill="#000000" font-family="sans-serif" font-size="14" font-weight="bold" lengthAdjust="spacing" textLength="181" x="96.79" y="865.5332">ARMAZEM Infraestructure</text></g><!--MD5=[ac45640be187818f3a1d3805aed968cb]
cluster logistica--><g id="cluster_logistica"><path d="M895.29,58 L970.29,58 A3.75,3.75 0 0 1 972.79,60.5 L979.79,81.6094 L1406.29,81.6094 A2.5,2.5 0 0 1 1408.79,84.1094 L1408.79,699.5 A2.5,2.5 0 0 1 1406.29,702 L895.29,702 A2.5,2.5 0 0 1 892.79,699.5 L892.79,60.5 A2.5,2.5 0 0 1 895.29,58 " fill="none" style="stroke:#000000;stroke-width:1.5;"/><line style="stroke:#000000;stroke-width:1.5;" x1="892.79" x2="979.79" y1="81.6094" y2="81.6094"/><text fill="#000000" font-family="sans-serif" font-size="14" font-weight="bold" lengthAdjust="spacing" textLength="74" x="896.79" y="74.5332">LOGISTICA</text></g><!--MD5=[d13fcb855108a23cf11211063221295a]
cluster Application Services--><g id="cluster_Application Services"><path d="M1118.29,241 L1263.29,241 A3.75,3.75 0 0 1 1265.79,243.5 L1272.79,264.6094 L1273.29,264.6094 A2.5,2.5 0 0 1 1275.79,267.1094 L1275.79,345.5 A2.5,2.5 0 0 1 1273.29,348 L1118.29,348 A2.5,2.5 0 0 1 1115.79,345.5 L1115.79,243.5 A2.5,2.5 0 0 1 1118.29,241 " fill="none" style="stroke:#000000;stroke-width:1.5;"/><line style="stroke:#000000;stroke-width:1.5;" x1="1115.79" x2="1272.79" y1="264.6094" y2="264.6094"/><text fill="#000000" font-family="sans-serif" font-size="14" font-weight="bold" lengthAdjust="spacing" textLength="144" x="1119.79" y="257.5332">Application Services</text></g><!--MD5=[5a2c09c7a25dd2d50c87c8f70ce7edbd]
cluster Interface Adapters--><g id="cluster_Interface Adapters"><path d="M961.29,110 L1092.29,110 A3.75,3.75 0 0 1 1094.79,112.5 L1101.79,133.6094 L1201.29,133.6094 A2.5,2.5 0 0 1 1203.79,136.1094 L1203.79,214.5 A2.5,2.5 0 0 1 1201.29,217 L961.29,217 A2.5,2.5 0 0 1 958.79,214.5 L958.79,112.5 A2.5,2.5 0 0 1 961.29,110 " fill="none" style="stroke:#000000;stroke-width:1.5;"/><line style="stroke:#000000;stroke-width:1.5;" x1="958.79" x2="1101.79" y1="133.6094" y2="133.6094"/><text fill="#000000" font-family="sans-serif" font-size="14" font-weight="bold" lengthAdjust="spacing" textLength="130" x="962.79" y="126.5332">Interface Adapters</text></g><!--MD5=[121a8bf1197281ab89ed693fab589f94]
cluster Domain--><g id="cluster_Domain"><path d="M1186.29,432 L1239.29,432 A3.75,3.75 0 0 1 1241.79,434.5 L1248.79,455.6094 L1374.29,455.6094 A2.5,2.5 0 0 1 1376.79,458.1094 L1376.79,667.5 A2.5,2.5 0 0 1 1374.29,670 L1186.29,670 A2.5,2.5 0 0 1 1183.79,667.5 L1183.79,434.5 A2.5,2.5 0 0 1 1186.29,432 " fill="none" style="stroke:#000000;stroke-width:1.5;"/><line style="stroke:#000000;stroke-width:1.5;" x1="1183.79" x2="1248.79" y1="455.6094" y2="455.6094"/><text fill="#000000" font-family="sans-serif" font-size="14" font-weight="bold" lengthAdjust="spacing" textLength="52" x="1187.79" y="448.5332">Domain</text></g><!--MD5=[931ec7911408a4ee109d89ae84d07f9b]
cluster Infraestructure--><g id="cluster_Infraestructure"><path d="M935.29,563 L1042.29,563 A3.75,3.75 0 0 1 1044.79,565.5 L1051.79,586.6094 L1157.29,586.6094 A2.5,2.5 0 0 1 1159.79,589.1094 L1159.79,667.5 A2.5,2.5 0 0 1 1157.29,670 L935.29,670 A2.5,2.5 0 0 1 932.79,667.5 L932.79,565.5 A2.5,2.5 0 0 1 935.29,563 " fill="none" style="stroke:#000000;stroke-width:1.5;"/><line style="stroke:#000000;stroke-width:1.5;" x1="932.79" x2="1051.79" y1="586.6094" y2="586.6094"/><text fill="#000000" font-family="sans-serif" font-size="14" font-weight="bold" lengthAdjust="spacing" textLength="106" x="936.79" y="579.5332">Infraestructure</text></g><path d="M113.79,277 L141.79,277 A3.75,3.75 0 0 1 144.29,279.5 L151.29,300.6094 L155.79,300.6094 A2.5,2.5 0 0 1 158.29,303.1094 L158.29,329.7188 A2.5,2.5 0 0 1 155.79,332.2188 L113.79,332.2188 A2.5,2.5 0 0 1 111.29,329.7188 L111.29,279.5 A2.5,2.5 0 0 1 113.79,277 " fill="#F1F1F1" style="stroke:#181818;stroke-width:0.5;"/><line style="stroke:#181818;stroke-width:0.5;" x1="111.29" x2="151.29" y1="300.6094" y2="300.6094"/><text fill="#000000" font-family="sans-serif" font-size="14" lengthAdjust="spacing" textLength="27" x="115.29" y="293.5332">SPA</text><path d="M485.79,599 L611.79,599 A3.75,3.75 0 0 1 614.29,601.5 L621.29,622.6094 L625.79,622.6094 A2.5,2.5 0 0 1 628.29,625.1094 L628.29,651.7188 A2.5,2.5 0 0 1 625.79,654.2188 L485.79,654.2188 A2.5,2.5 0 0 1 483.29,651.7188 L483.29,601.5 A2.5,2.5 0 0 1 485.79,599 " fill="#F1F1F1" style="stroke:#181818;stroke-width:0.5;"/><line style="stroke:#181818;stroke-width:0.5;" x1="483.29" x2="621.29" y1="622.6094" y2="622.6094"/><text fill="#000000" font-family="sans-serif" font-size="14" lengthAdjust="spacing" textLength="125" x="487.29" y="615.5332">ARMAZEM Services</text><path d="M369.79,468 L509.79,468 A3.75,3.75 0 0 1 512.29,470.5 L519.29,491.6094 L523.79,491.6094 A2.5,2.5 0 0 1 526.29,494.1094 L526.29,520.7188 A2.5,2.5 0 0 1 523.79,523.2188 L369.79,523.2188 A2.5,2.5 0 0 1 367.29,520.7188 L367.29,470.5 A2.5,2.5 0 0 1 369.79,468 " fill="#F1F1F1" style="stroke:#181818;stroke-width:0.5;"/><line style="stroke:#181818;stroke-width:0.5;" x1="367.29" x2="519.29" y1="491.6094" y2="491.6094"/><text fill="#000000" font-family="sans-serif" font-size="14" lengthAdjust="spacing" textLength="139" x="371.29" y="484.5332">ARMAZEM Repository</text><path d="M174.29,468 L315.29,468 A3.75,3.75 0 0 1 317.79,470.5 L324.79,491.6094 L329.29,491.6094 A2.5,2.5 0 0 1 331.79,494.1094 L331.79,520.7188 A2.5,2.5 0 0 1 329.29,523.2188 L174.29,523.2188 A2.5,2.5 0 0 1 171.79,520.7188 L171.79,470.5 A2.5,2.5 0 0 1 174.29,468 " fill="#F1F1F1" style="stroke:#181818;stroke-width:0.5;"/><line style="stroke:#181818;stroke-width:0.5;" x1="171.79" x2="324.79" y1="491.6094" y2="491.6094"/><text fill="#000000" font-family="sans-serif" font-size="14" lengthAdjust="spacing" textLength="140" x="175.79" y="484.5332">ARMAZEM Controllers</text><path d="M594.29,770 L721.29,770 A3.75,3.75 0 0 1 723.79,772.5 L730.79,793.6094 L735.29,793.6094 A2.5,2.5 0 0 1 737.79,796.1094 L737.79,822.7188 A2.5,2.5 0 0 1 735.29,825.2188 L594.29,825.2188 A2.5,2.5 0 0 1 591.79,822.7188 L591.79,772.5 A2.5,2.5 0 0 1 594.29,770 " fill="#F1F1F1" style="stroke:#181818;stroke-width:0.5;"/><line style="stroke:#181818;stroke-width:0.5;" x1="591.79" x2="730.79" y1="793.6094" y2="793.6094"/><text fill="#000000" font-family="sans-serif" font-size="14" lengthAdjust="spacing" textLength="126" x="595.79" y="786.5332">ARMAZEM Mappers</text><path d="M679.29,885 L788.29,885 A3.75,3.75 0 0 1 790.79,887.5 L797.79,908.6094 L802.29,908.6094 A2.5,2.5 0 0 1 804.79,911.1094 L804.79,937.7188 A2.5,2.5 0 0 1 802.29,940.2188 L679.29,940.2188 A2.5,2.5 0 0 1 676.79,937.7188 L676.79,887.5 A2.5,2.5 0 0 1 679.29,885 " fill="#F1F1F1" style="stroke:#181818;stroke-width:0.5;"/><line style="stroke:#181818;stroke-width:0.5;" x1="676.79" x2="797.79" y1="908.6094" y2="908.6094"/><text fill="#000000" font-family="sans-serif" font-size="14" lengthAdjust="spacing" textLength="108" x="680.79" y="901.5332">ARMAZEM DTOs</text><path d="M504.79,885 L624.79,885 A3.75,3.75 0 0 1 627.29,887.5 L634.29,908.6094 L638.79,908.6094 A2.5,2.5 0 0 1 641.29,911.1094 L641.29,937.7188 A2.5,2.5 0 0 1 638.79,940.2188 L504.79,940.2188 A2.5,2.5 0 0 1 502.29,937.7188 L502.29,887.5 A2.5,2.5 0 0 1 504.79,885 " fill="#F1F1F1" style="stroke:#181818;stroke-width:0.5;"/><line style="stroke:#181818;stroke-width:0.5;" x1="502.29" x2="634.29" y1="908.6094" y2="908.6094"/><text fill="#000000" font-family="sans-serif" font-size="14" lengthAdjust="spacing" textLength="119" x="506.29" y="901.5332">ARMAZEM Domain</text><path d="M282.79,885 L428.79,885 A3.75,3.75 0 0 1 431.29,887.5 L438.29,908.6094 L442.79,908.6094 A2.5,2.5 0 0 1 445.29,911.1094 L445.29,937.7188 A2.5,2.5 0 0 1 442.79,940.2188 L282.79,940.2188 A2.5,2.5 0 0 1 280.29,937.7188 L280.29,887.5 A2.5,2.5 0 0 1 282.79,885 " fill="#F1F1F1" style="stroke:#181818;stroke-width:0.5;"/><line style="stroke:#181818;stroke-width:0.5;" x1="280.29" x2="438.29" y1="908.6094" y2="908.6094"/><text fill="#000000" font-family="sans-serif" font-size="14" lengthAdjust="spacing" textLength="145" x="284.29" y="901.5332">ARMAZEM Persistence</text><path d="M111.29,885 L228.29,885 A3.75,3.75 0 0 1 230.79,887.5 L237.79,908.6094 L242.29,908.6094 A2.5,2.5 0 0 1 244.79,911.1094 L244.79,937.7188 A2.5,2.5 0 0 1 242.29,940.2188 L111.29,940.2188 A2.5,2.5 0 0 1 108.79,937.7188 L108.79,887.5 A2.5,2.5 0 0 1 111.29,885 " fill="#F1F1F1" style="stroke:#181818;stroke-width:0.5;"/><line style="stroke:#181818;stroke-width:0.5;" x1="108.79" x2="237.79" y1="908.6094" y2="908.6094"/><text fill="#000000" font-family="sans-serif" font-size="14" lengthAdjust="spacing" textLength="116" x="112.79" y="901.5332">ARMAZEM Routes</text><path d="M1135.29,277 L1190.29,277 A3.75,3.75 0 0 1 1192.79,279.5 L1199.79,300.6094 L1204.29,300.6094 A2.5,2.5 0 0 1 1206.79,303.1094 L1206.79,329.7188 A2.5,2.5 0 0 1 1204.29,332.2188 L1135.29,332.2188 A2.5,2.5 0 0 1 1132.79,329.7188 L1132.79,279.5 A2.5,2.5 0 0 1 1135.29,277 " fill="#F1F1F1" style="stroke:#181818;stroke-width:0.5;"/><line style="stroke:#181818;stroke-width:0.5;" x1="1132.79" x2="1199.79" y1="300.6094" y2="300.6094"/><text fill="#000000" font-family="sans-serif" font-size="14" lengthAdjust="spacing" textLength="54" x="1136.79" y="293.5332">Services</text><path d="M1102.29,146 L1171.29,146 A3.75,3.75 0 0 1 1173.79,148.5 L1180.79,169.6094 L1185.29,169.6094 A2.5,2.5 0 0 1 1187.79,172.1094 L1187.79,198.7188 A2.5,2.5 0 0 1 1185.29,201.2188 L1102.29,201.2188 A2.5,2.5 0 0 1 1099.79,198.7188 L1099.79,148.5 A2.5,2.5 0 0 1 1102.29,146 " fill="#F1F1F1" style="stroke:#181818;stroke-width:0.5;"/><line style="stroke:#181818;stroke-width:0.5;" x1="1099.79" x2="1180.79" y1="169.6094" y2="169.6094"/><text fill="#000000" font-family="sans-serif" font-size="14" lengthAdjust="spacing" textLength="68" x="1103.79" y="162.5332">Repository</text><path d="M977.79,146 L1047.79,146 A3.75,3.75 0 0 1 1050.29,148.5 L1057.29,169.6094 L1061.79,169.6094 A2.5,2.5 0 0 1 1064.29,172.1094 L1064.29,198.7188 A2.5,2.5 0 0 1 1061.79,201.2188 L977.79,201.2188 A2.5,2.5 0 0 1 975.29,198.7188 L975.29,148.5 A2.5,2.5 0 0 1 977.79,146 " fill="#F1F1F1" style="stroke:#181818;stroke-width:0.5;"/><line style="stroke:#181818;stroke-width:0.5;" x1="975.29" x2="1057.29" y1="169.6094" y2="169.6094"/><text fill="#000000" font-family="sans-serif" font-size="14" lengthAdjust="spacing" textLength="69" x="979.29" y="162.5332">Controllers</text><path d="M1202.79,468 L1258.79,468 A3.75,3.75 0 0 1 1261.29,470.5 L1268.29,491.6094 L1272.79,491.6094 A2.5,2.5 0 0 1 1275.29,494.1094 L1275.29,520.7188 A2.5,2.5 0 0 1 1272.79,523.2188 L1202.79,523.2188 A2.5,2.5 0 0 1 1200.29,520.7188 L1200.29,470.5 A2.5,2.5 0 0 1 1202.79,468 " fill="#F1F1F1" style="stroke:#181818;stroke-width:0.5;"/><line style="stroke:#181818;stroke-width:0.5;" x1="1200.29" x2="1268.29" y1="491.6094" y2="491.6094"/><text fill="#000000" font-family="sans-serif" font-size="14" lengthAdjust="spacing" textLength="55" x="1204.29" y="484.5332">Mappers</text><path d="M1202.79,599 L1240.79,599 A3.75,3.75 0 0 1 1243.29,601.5 L1250.29,622.6094 L1254.79,622.6094 A2.5,2.5 0 0 1 1257.29,625.1094 L1257.29,651.7188 A2.5,2.5 0 0 1 1254.79,654.2188 L1202.79,654.2188 A2.5,2.5 0 0 1 1200.29,651.7188 L1200.29,601.5 A2.5,2.5 0 0 1 1202.79,599 " fill="#F1F1F1" style="stroke:#181818;stroke-width:0.5;"/><line style="stroke:#181818;stroke-width:0.5;" x1="1200.29" x2="1250.29" y1="622.6094" y2="622.6094"/><text fill="#000000" font-family="sans-serif" font-size="14" lengthAdjust="spacing" textLength="37" x="1204.29" y="615.5332">DTOs</text><path d="M1295.29,599 L1344.29,599 A3.75,3.75 0 0 1 1346.79,601.5 L1353.79,622.6094 L1358.29,622.6094 A2.5,2.5 0 0 1 1360.79,625.1094 L1360.79,651.7188 A2.5,2.5 0 0 1 1358.29,654.2188 L1295.29,654.2188 A2.5,2.5 0 0 1 1292.79,651.7188 L1292.79,601.5 A2.5,2.5 0 0 1 1295.29,599 " fill="#F1F1F1" style="stroke:#181818;stroke-width:0.5;"/><line style="stroke:#181818;stroke-width:0.5;" x1="1292.79" x2="1353.79" y1="622.6094" y2="622.6094"/><text fill="#000000" font-family="sans-serif" font-size="14" lengthAdjust="spacing" textLength="48" x="1296.79" y="615.5332">Domain</text><path d="M1052.29,599 L1127.29,599 A3.75,3.75 0 0 1 1129.79,601.5 L1136.79,622.6094 L1141.29,622.6094 A2.5,2.5 0 0 1 1143.79,625.1094 L1143.79,651.7188 A2.5,2.5 0 0 1 1141.29,654.2188 L1052.29,654.2188 A2.5,2.5 0 0 1 1049.79,651.7188 L1049.79,601.5 A2.5,2.5 0 0 1 1052.29,599 " fill="#F1F1F1" style="stroke:#181818;stroke-width:0.5;"/><line style="stroke:#181818;stroke-width:0.5;" x1="1049.79" x2="1136.79" y1="622.6094" y2="622.6094"/><text fill="#000000" font-family="sans-serif" font-size="14" lengthAdjust="spacing" textLength="74" x="1053.79" y="615.5332">Persistence</text><path d="M951.79,599 L997.79,599 A3.75,3.75 0 0 1 1000.29,601.5 L1007.29,622.6094 L1011.79,622.6094 A2.5,2.5 0 0 1 1014.29,625.1094 L1014.29,651.7188 A2.5,2.5 0 0 1 1011.79,654.2188 L951.79,654.2188 A2.5,2.5 0 0 1 949.29,651.7188 L949.29,601.5 A2.5,2.5 0 0 1 951.79,599 " fill="#F1F1F1" style="stroke:#181818;stroke-width:0.5;"/><line style="stroke:#181818;stroke-width:0.5;" x1="949.29" x2="1007.29" y1="622.6094" y2="622.6094"/><text fill="#000000" font-family="sans-serif" font-size="14" lengthAdjust="spacing" textLength="45" x="953.29" y="615.5332">Routes</text><path d="M675.29,277 L778.29,277 A3.75,3.75 0 0 1 780.79,279.5 L787.79,300.6094 L792.29,300.6094 A2.5,2.5 0 0 1 794.79,303.1094 L794.79,329.7188 A2.5,2.5 0 0 1 792.29,332.2188 L675.29,332.2188 A2.5,2.5 0 0 1 672.79,329.7188 L672.79,279.5 A2.5,2.5 0 0 1 675.29,277 " fill="#F1F1F1" style="stroke:#181818;stroke-width:0.5;"/><line style="stroke:#181818;stroke-width:0.5;" x1="672.79" x2="787.79" y1="300.6094" y2="300.6094"/><text fill="#000000" font-family="sans-serif" font-size="14" lengthAdjust="spacing" textLength="102" x="676.79" y="293.5332">PLANEAMENTO</text><!--MD5=[6b29d5ca4b5e967cc42044086870adae]
link routes to ctrs--><g id="link_routes_ctrs"><path d="M987.33,598.73 C990.27,583.6 993.69,564.32 995.79,547 C1010.97,421.54 1016.95,271.06 1018.94,206.48 " fill="none" id="routes-to-ctrs" style="stroke:#181818;stroke-width:1.0;stroke-dasharray:7.0,7.0;"/><polygon fill="#181818" points="1019.1,201.24,1014.8439,210.1217,1018.9568,206.2379,1022.8406,210.3509,1019.1,201.24" style="stroke:#181818;stroke-width:1.0;"/></g><!--MD5=[63ae2b50ce04c41155d6f06d2bd60cd8]
link ctrs to services--><g id="link_ctrs_services"><path d="M1050.87,201.23 C1075.31,222.24 1109.35,251.52 1134.75,273.37 " fill="none" id="ctrs-to-services" style="stroke:#181818;stroke-width:1.0;stroke-dasharray:7.0,7.0;"/><polygon fill="#181818" points="1138.75,276.81,1134.5364,267.908,1134.9598,273.549,1129.3188,273.9723,1138.75,276.81" style="stroke:#181818;stroke-width:1.0;"/></g><!--MD5=[37fc054b39cee493bea81e6c18321815]
link services to mappers--><g id="link_services_mappers"><path d="M1179.39,332.18 C1191.79,366.65 1213.35,426.57 1226.52,463.17 " fill="none" id="services-to-mappers" style="stroke:#181818;stroke-width:1.0;stroke-dasharray:7.0,7.0;"/><polygon fill="#181818" points="1228.24,467.96,1228.9403,458.1361,1226.5393,463.2581,1221.4173,460.8572,1228.24,467.96" style="stroke:#181818;stroke-width:1.0;"/></g><!--MD5=[a5534ed2c560f163a2d7054a0de96128]
link services to rep--><g id="link_services_rep"><path d="M1164.41,276.81 C1160.28,256.32 1154.57,227.97 1150.2,206.3 " fill="none" id="services-to-rep" style="stroke:#181818;stroke-width:1.0;stroke-dasharray:7.0,7.0;"/><polygon fill="#181818" points="1149.18,201.23,1147.0604,210.8481,1150.1798,206.129,1154.8989,209.2484,1149.18,201.23" style="stroke:#181818;stroke-width:1.0;"/></g><!--MD5=[835edb0965c9c8f2358fe7c304bc6cc1]
link mappers to dtos--><g id="link_mappers_dtos"><path d="M1235.93,523.23 C1234.5,543.73 1232.52,572.08 1231.01,593.73 " fill="none" id="mappers-to-dtos" style="stroke:#181818;stroke-width:1.0;stroke-dasharray:7.0,7.0;"/><polygon fill="#181818" points="1230.65,598.81,1235.2563,590.1047,1230.9921,593.8217,1227.2751,589.5574,1230.65,598.81" style="stroke:#181818;stroke-width:1.0;"/></g><!--MD5=[a109c394b3b138761914f9537635e287]
link mappers to domain--><g id="link_mappers_domain"><path d="M1256.23,523.23 C1270.55,543.98 1290.43,572.8 1305.44,594.55 " fill="none" id="mappers-to-domain" style="stroke:#181818;stroke-width:1.0;stroke-dasharray:7.0,7.0;"/><polygon fill="#181818" points="1308.37,598.81,1306.5674,589.1275,1305.5374,594.6898,1299.9751,593.6597,1308.37,598.81" style="stroke:#181818;stroke-width:1.0;"/></g><!--MD5=[bbcea0a98ab3c59f4237bec76c57d4ab]
link rep to persistence--><g id="link_rep_persistence"><path d="M1128.91,201.1 C1124.17,210.84 1119.47,222.14 1116.79,233 C1084.56,363.75 1090.14,526.18 1094.38,593.73 " fill="none" id="rep-to-persistence" style="stroke:#181818;stroke-width:1.0;stroke-dasharray:7.0,7.0;"/><polygon fill="#181818" points="1094.71,598.82,1098.1112,589.5771,1094.3821,593.8308,1090.1285,590.1017,1094.71,598.82" style="stroke:#181818;stroke-width:1.0;"/></g><!--MD5=[41e5f6a8143cdcc106e3c74eb6483459]
link wroutes to wctrs--><g id="link_wroutes_wctrs"><path d="M188.47,884.72 C195.37,867.88 203.72,845.52 208.79,825 C235.17,718.22 246.13,587.67 249.99,528.44 " fill="none" id="wroutes-to-wctrs" style="stroke:#181818;stroke-width:1.0;stroke-dasharray:7.0,7.0;"/><polygon fill="#181818" points="250.32,523.27,245.7368,531.9875,249.9912,528.2592,253.7195,532.5136,250.32,523.27" style="stroke:#181818;stroke-width:1.0;"/></g><!--MD5=[2f637acaf8d30e4aec5a05e1f0e9b57c]
link wctrs to wservices--><g id="link_wctrs_wservices"><path d="M300.62,523.02 C316.16,531.09 333.54,539.74 349.79,547 C391.6,565.67 439.32,584.03 478.3,598.3 " fill="none" id="wctrs-to-wservices" style="stroke:#181818;stroke-width:1.0;stroke-dasharray:7.0,7.0;"/><polygon fill="#181818" points="483.01,600.02,475.9255,593.1782,478.3127,598.3067,473.1842,600.6939,483.01,600.02" style="stroke:#181818;stroke-width:1.0;"/></g><!--MD5=[6bb3573282479a06354ae372345154a9]
link wservices to wmappers--><g id="link_wservices_wmappers"><path d="M573.06,654.28 C592.51,684.44 624.09,733.4 644.65,765.27 " fill="none" id="wservices-to-wmappers" style="stroke:#181818;stroke-width:1.0;stroke-dasharray:7.0,7.0;"/><polygon fill="#181818" points="647.6,769.85,646.0979,760.1164,644.8962,765.6441,639.3685,764.4424,647.6,769.85" style="stroke:#181818;stroke-width:1.0;"/></g><!--MD5=[526c8bb42a052c7c0fbd0f08d900bf0d]
link wservices to wrep--><g id="link_wservices_wrep"><path d="M533.23,598.81 C515.63,577.97 491.16,549.01 472.74,527.21 " fill="none" id="wservices-to-wrep" style="stroke:#181818;stroke-width:1.0;stroke-dasharray:7.0,7.0;"/><polygon fill="#181818" points="469.37,523.23,472.1315,532.6838,472.6004,527.0464,478.2377,527.5152,469.37,523.23" style="stroke:#181818;stroke-width:1.0;"/></g><!--MD5=[7e500390f4e856bb3d4785bbe1e5ef72]
link wservices to wdomain--><g id="link_wservices_wdomain"><path d="M557.3,654.22 C560.25,706.65 566.8,822.84 569.98,879.37 " fill="none" id="wservices-to-wdomain" style="stroke:#181818;stroke-width:1.0;stroke-dasharray:7.0,7.0;"/><polygon fill="#181818" points="570.28,884.65,573.7848,875.4459,570.0082,879.6574,565.7967,875.8808,570.28,884.65" style="stroke:#181818;stroke-width:1.0;"/></g><!--MD5=[9ec94fcc9be4c7de7cc2387c3f584143]
link wmappers to wdtos--><g id="link_wmappers_wdtos"><path d="M682.8,825.28 C693.97,841.89 708.36,863.28 720.01,880.6 " fill="none" id="wmappers-to-wdtos" style="stroke:#181818;stroke-width:1.0;stroke-dasharray:7.0,7.0;"/><polygon fill="#181818" points="722.91,884.91,721.2074,875.2094,720.12,880.7608,714.5687,879.6734,722.91,884.91" style="stroke:#181818;stroke-width:1.0;"/></g><!--MD5=[7d9fe70c889b64c32cbf4b3629073bca]
link wmappers to wdomain--><g id="link_wmappers_wdomain"><path d="M642.75,825.28 C628.97,842.03 611.18,863.64 596.86,881.04 " fill="none" id="wmappers-to-wdomain" style="stroke:#181818;stroke-width:1.0;stroke-dasharray:7.0,7.0;"/><polygon fill="#181818" points="593.67,884.91,602.4757,880.4986,596.8455,881.0479,596.2962,875.4177,593.67,884.91" style="stroke:#181818;stroke-width:1.0;"/></g><!--MD5=[d559417cd18c9ecae129a03f9343b6b1]
link wrep to wpersistence--><g id="link_wrep_wpersistence"><path d="M441.41,523.09 C426.58,596.35 385.18,800.89 369.2,879.85 " fill="none" id="wrep-to-wpersistence" style="stroke:#181818;stroke-width:1.0;stroke-dasharray:7.0,7.0;"/><polygon fill="#181818" points="368.18,884.86,373.8989,876.8416,369.1798,879.961,366.0604,875.2419,368.18,884.86" style="stroke:#181818;stroke-width:1.0;"/></g><!--MD5=[cfe94ebdaefcd7b624992478ad364904]
link wrep to wdomain--><g id="link_wrep_wdomain"><path d="M445.77,523.07 C444.89,565.32 446.23,650 466.79,718 C485.39,779.52 524.86,843.71 549.76,880.52 " fill="none" id="wrep-to-wdomain" style="stroke:#181818;stroke-width:1.0;stroke-dasharray:7.0,7.0;"/><polygon fill="#181818" points="552.72,884.87,550.9559,875.1804,549.9038,880.7386,544.3456,879.6864,552.72,884.87" style="stroke:#181818;stroke-width:1.0;"/></g><!--MD5=[3e21508849e11267254d1c1f98e17e66]
link spa to wroutes--><g id="link_spa_wroutes"><path d="M111.08,313.44 C89.43,322.11 58.75,338.28 44.79,364 C6,435.49 30.73,466.89 44.79,547 C67.35,675.57 131.49,818.54 161.26,880.3 " fill="none" id="spa-to-wroutes" style="stroke:#181818;stroke-width:1.0;stroke-dasharray:7.0,7.0;"/><polygon fill="#181818" points="163.52,884.96,163.1859,875.1168,161.3355,880.4625,155.9898,878.612,163.52,884.96" style="stroke:#181818;stroke-width:1.0;"/></g><!--MD5=[2cbe2be0f296aa1bb937cb8f6e6adeae]
link spa to routes--><g id="link_spa_routes"><path d="M158.56,305.68 C222.57,306.85 403.14,314.63 542.79,364 C704.55,421.19 872.45,541.21 944.89,596.49 " fill="none" id="spa-to-routes" style="stroke:#181818;stroke-width:1.0;stroke-dasharray:7.0,7.0;"/><polygon fill="#181818" points="949.11,599.72,944.3987,591.0711,945.141,596.679,939.5331,597.4214,949.11,599.72" style="stroke:#181818;stroke-width:1.0;"/></g><!--MD5=[a06cd5159d8ee0a32708e1f6a8aa59d9]
link spa to armazem--><g id="link_spa_armazem"><path d="M124.34,332.18 C119.3225,345 112.9256,361.3406 106.1322,378.6927 C106.026,378.9638 105.9198,379.2352 105.8135,379.5068 " fill="none" id="spa-to-armazem" style="stroke:#181818;stroke-width:1.0;stroke-dasharray:7.0,7.0;"/><polygon fill="#181818" points="105.8135,379.5068,112.8192,372.5844,107.6363,374.8509,105.3698,369.6679,105.8135,379.5068" style="stroke:#181818;stroke-width:1.0;"/></g><!--MD5=[1b4ee614a9c33d0dff2c370109ff701b]
link spa to planeamento--><g id="link_spa_planeamento"><path d="M158.48,304.5 C328.16,304.5 497.85,304.5 667.53,304.5 " fill="none" id="spa-to-planeamento" style="stroke:#181818;stroke-width:1.0;stroke-dasharray:7.0,7.0;"/><polygon fill="#181818" points="672.55,304.5,663.55,300.5,667.55,304.5,663.55,308.5,672.55,304.5" style="stroke:#181818;stroke-width:1.0;"/></g><!--MD5=[af0bca1080e6c9b8724580f561420292]
link logistica to planeamento--><g id="link_logistica_planeamento"><path d="M892.6024,180.8208 C892.5005,180.8995 892.3977,180.9789 892.2941,181.0589 C892.0869,181.2189 891.8764,181.3815 891.6626,181.5467 C889.9518,182.8681 888.0293,184.3531 885.9198,185.9825 C877.4822,192.5 866.0544,201.3275 853.2288,211.235 C827.5775,231.05 796.335,255.185 772.24,273.8 " fill="none" id="logistica-to-planeamento" style="stroke:#181818;stroke-width:1.0;stroke-dasharray:7.0,7.0;"/><polygon fill="#181818" points="768.24,276.89,777.8076,274.5531,772.1967,273.8332,772.9167,268.2223,768.24,276.89" style="stroke:#181818;stroke-width:1.0;"/></g><!--MD5=[f805087b7df35dab3d893954831a4e61]
link logistica to armazem--><g id="link_logistica_armazem"><path d="M892.3663,174.3614 C891.9124,174.3555 891.4415,174.3496 890.9536,174.3437 C889.0023,174.32 886.7812,174.2967 884.309,174.2763 C874.4201,174.1945 860.5134,174.1577 843.7805,174.3228 C810.3147,174.6531 765.5444,175.7913 719.0038,178.9925 C625.9225,185.395 525.76,200.05 494.79,233 C476.01,252.98 504.72,337.17 484.79,356 C471.5,368.56 171.98,355.51 155.79,364 C147.9725,368.0988 140.6405,373.1647 133.7928,378.8977 C133.3648,379.256 132.9387,379.617 132.5145,379.9804 " fill="none" id="logistica-to-armazem" style="stroke:#181818;stroke-width:1.0;stroke-dasharray:7.0,7.0;"/><polygon fill="#181818" points="132.5145,379.9804,141.9516,377.1622,136.3114,376.7272,136.7464,371.0871,132.5145,379.9804" style="stroke:#181818;stroke-width:1.0;"/></g><!--MD5=[ad9f6fb5ac622f75e68f770867591ef9]
@startuml

package "EletricGo" {



  package "SPA" as spa{}

  package "ARMAZEM" as armazem{
    package "ARMAZEM Application Services" {
           package "ARMAZEM Services" as wservices {}
       }

       package "ARMAZEM Interface Adapters" {
           package "ARMAZEM Repository" as wrep {}
           package "ARMAZEM Controllers" as wctrs {}
       }

        package "ARMAZEM Domain" {
            package "ARMAZEM Mappers" as wmappers {}
            package "ARMAZEM DTOs" as wdtos {}
            package "ARMAZEM Domain" as wdomain {}
        }
        package "ARMAZEM Infraestructure" {
            package "ARMAZEM Persistence" as wpersistence {}
            package "ARMAZEM Routes" as wroutes {}
        }
  }

  package "LOGISTICA" as logistica{
       package "Application Services" {
           package "Services" as services {}
       }

       package "Interface Adapters" {
           package "Repository" as rep {}
           package "Controllers" as ctrs {}
       }

        package "Domain" {
            package "Mappers" as mappers {}
            package "DTOs" as dtos {}
            package "Domain" as domain {}
        }
        package "Infraestructure" {
            package "Persistence" as persistence {}
            package "Routes" as routes {}
        }
  }
  package "PLANEAMENTO" as planeamento{}

}

routes .> ctrs
ctrs ..> services
services ..> mappers
services ..> rep
mappers ..> dtos
mappers ..> domain
rep .-..> persistence

wroutes .> wctrs
wctrs ..> wservices
wservices ..> wmappers
wservices ..> wrep
wservices ..> wdomain
wmappers ..> wdtos
wmappers ..> wdomain
wrep .-..> wpersistence
wrep .-..> wdomain

spa .> wroutes
spa .> routes
spa ..> armazem
spa .> planeamento
logistica ..> planeamento
logistica .> armazem

@enduml

PlantUML version 1.2022.7(Mon Aug 22 18:01:30 WEST 2022)
(GPL source distribution)
Java Runtime: Java(TM) SE Runtime Environment
JVM: Java HotSpot(TM) 64-Bit Server VM
Default Encoding: Cp1252
Language: pt
Country: PT
--></g></svg>