<?xml version="1.0" encoding="UTF-8" standalone="no"?><svg xmlns="http://www.w3.org/2000/svg" xmlns:xlink="http://www.w3.org/1999/xlink" contentStyleType="text/css" height="1059px" preserveAspectRatio="none" style="width:1876px;height:1059px;background:#FFFFFF;" version="1.1" viewBox="0 0 1876 1059" width="1876px" zoomAndPan="magnify"><defs/><g><!--MD5=[e85bd8b7c3eef9e05b8e65fb9224b5e9]
cluster EletricGo--><g id="cluster_EletricGo"><path d="M8.5,6 L74.5,6 A3.75,3.75 0 0 1 77,8.5 L84,29.6094 L1866.5,29.6094 A2.5,2.5 0 0 1 1869,32.1094 L1869,1049.5 A2.5,2.5 0 0 1 1866.5,1052 L8.5,1052 A2.5,2.5 0 0 1 6,1049.5 L6,8.5 A2.5,2.5 0 0 1 8.5,6 " style="stroke:#000000;stroke-width:1.5;fill:none;"/><line style="stroke:#000000;stroke-width:1.5;fill:none;" x1="6" x2="84" y1="29.6094" y2="29.6094"/><text fill="#000000" font-family="sans-serif" font-size="14" font-weight="bold" lengthAdjust="spacing" textLength="65" x="10" y="22.5332">EletricGo</text></g><!--MD5=[38c27b35aef4eebaf210b1fd39b25fb0]
cluster spa--><g id="cluster_spa"><path d="M1569.5,249 L1597.5,249 A3.75,3.75 0 0 1 1600,251.5 L1607,272.6094 L1834.5,272.6094 A2.5,2.5 0 0 1 1837,275.1094 L1837,560.5 A2.5,2.5 0 0 1 1834.5,563 L1569.5,563 A2.5,2.5 0 0 1 1567,560.5 L1567,251.5 A2.5,2.5 0 0 1 1569.5,249 " style="stroke:#000000;stroke-width:1.5;fill:none;"/><line style="stroke:#000000;stroke-width:1.5;fill:none;" x1="1567" x2="1607" y1="272.6094" y2="272.6094"/><text fill="#000000" font-family="sans-serif" font-size="14" font-weight="bold" lengthAdjust="spacing" textLength="27" x="1571" y="265.5332">SPA</text></g><!--MD5=[6a160cc014265824a104513c79c30877]
cluster armazem--><g id="cluster_armazem"><path d="M40.5,396 L112.5,396 A3.75,3.75 0 0 1 115,398.5 L122,419.6094 L835.5,419.6094 A2.5,2.5 0 0 1 838,422.1094 L838,1017.5 A2.5,2.5 0 0 1 835.5,1020 L40.5,1020 A2.5,2.5 0 0 1 38,1017.5 L38,398.5 A2.5,2.5 0 0 1 40.5,396 " style="stroke:#000000;stroke-width:1.5;fill:none;"/><line style="stroke:#000000;stroke-width:1.5;fill:none;" x1="38" x2="122" y1="419.6094" y2="419.6094"/><text fill="#000000" font-family="sans-serif" font-size="14" font-weight="bold" lengthAdjust="spacing" textLength="71" x="42" y="412.5332">ARMAZEM</text></g><!--MD5=[65922083f893aa41e13d6fb2e12bbc04]
cluster ARMAZEM Application Services--><g id="cluster_ARMAZEM Application Services"><path d="M285.5,595 L505.5,595 A3.75,3.75 0 0 1 508,597.5 L515,618.6094 L515.5,618.6094 A2.5,2.5 0 0 1 518,621.1094 L518,699.5 A2.5,2.5 0 0 1 515.5,702 L285.5,702 A2.5,2.5 0 0 1 283,699.5 L283,597.5 A2.5,2.5 0 0 1 285.5,595 " style="stroke:#000000;stroke-width:1.5;fill:none;"/><line style="stroke:#000000;stroke-width:1.5;fill:none;" x1="283" x2="515" y1="618.6094" y2="618.6094"/><text fill="#000000" font-family="sans-serif" font-size="14" font-weight="bold" lengthAdjust="spacing" textLength="219" x="287" y="611.5332">ARMAZEM Application Services</text></g><!--MD5=[af6a872536fafb662909389811ef07bc]
cluster ARMAZEM Interface Adapters--><g id="cluster_ARMAZEM Interface Adapters"><path d="M333.5,448 L539.5,448 A3.75,3.75 0 0 1 542,450.5 L549,471.6094 L715.5,471.6094 A2.5,2.5 0 0 1 718,474.1094 L718,552.5 A2.5,2.5 0 0 1 715.5,555 L333.5,555 A2.5,2.5 0 0 1 331,552.5 L331,450.5 A2.5,2.5 0 0 1 333.5,448 " style="stroke:#000000;stroke-width:1.5;fill:none;"/><line style="stroke:#000000;stroke-width:1.5;fill:none;" x1="331" x2="549" y1="471.6094" y2="471.6094"/><text fill="#000000" font-family="sans-serif" font-size="14" font-weight="bold" lengthAdjust="spacing" textLength="205" x="335" y="464.5332">ARMAZEM Interface Adapters</text></g><!--MD5=[c81e7696de39627b5592be23df93576b]
cluster ARMAZEM Domain--><g id="cluster_ARMAZEM Domain"><path d="M80.5,766 L208.5,766 A3.75,3.75 0 0 1 211,768.5 L218,789.6094 L410.5,789.6094 A2.5,2.5 0 0 1 413,792.1094 L413,985.5 A2.5,2.5 0 0 1 410.5,988 L80.5,988 A2.5,2.5 0 0 1 78,985.5 L78,768.5 A2.5,2.5 0 0 1 80.5,766 " style="stroke:#000000;stroke-width:1.5;fill:none;"/><line style="stroke:#000000;stroke-width:1.5;fill:none;" x1="78" x2="218" y1="789.6094" y2="789.6094"/><text fill="#000000" font-family="sans-serif" font-size="14" font-weight="bold" lengthAdjust="spacing" textLength="127" x="82" y="782.5332">ARMAZEM Domain</text></g><!--MD5=[19ca9f2b147ebacf0a8d6a59dcf554d2]
cluster ARMAZEM Infraestructure--><g id="cluster_ARMAZEM Infraestructure"><path d="M439.5,881 L621.5,881 A3.75,3.75 0 0 1 624,883.5 L631,904.6094 L803.5,904.6094 A2.5,2.5 0 0 1 806,907.1094 L806,985.5 A2.5,2.5 0 0 1 803.5,988 L439.5,988 A2.5,2.5 0 0 1 437,985.5 L437,883.5 A2.5,2.5 0 0 1 439.5,881 " style="stroke:#000000;stroke-width:1.5;fill:none;"/><line style="stroke:#000000;stroke-width:1.5;fill:none;" x1="437" x2="631" y1="904.6094" y2="904.6094"/><text fill="#000000" font-family="sans-serif" font-size="14" font-weight="bold" lengthAdjust="spacing" textLength="181" x="441" y="897.5332">ARMAZEM Infraestructure</text></g><!--MD5=[ac45640be187818f3a1d3805aed968cb]
cluster logistica--><g id="cluster_logistica"><path d="M880.5,58 L955.5,58 A3.75,3.75 0 0 1 958,60.5 L965,81.6094 L1391.5,81.6094 A2.5,2.5 0 0 1 1394,84.1094 L1394,731.5 A2.5,2.5 0 0 1 1391.5,734 L880.5,734 A2.5,2.5 0 0 1 878,731.5 L878,60.5 A2.5,2.5 0 0 1 880.5,58 " style="stroke:#000000;stroke-width:1.5;fill:none;"/><line style="stroke:#000000;stroke-width:1.5;fill:none;" x1="878" x2="965" y1="81.6094" y2="81.6094"/><text fill="#000000" font-family="sans-serif" font-size="14" font-weight="bold" lengthAdjust="spacing" textLength="74" x="882" y="74.5332">LOGISTICA</text></g><!--MD5=[d13fcb855108a23cf11211063221295a]
cluster Application Services--><g id="cluster_Application Services"><path d="M1022.5,257 L1167.5,257 A3.75,3.75 0 0 1 1170,259.5 L1177,280.6094 L1177.5,280.6094 A2.5,2.5 0 0 1 1180,283.1094 L1180,361.5 A2.5,2.5 0 0 1 1177.5,364 L1022.5,364 A2.5,2.5 0 0 1 1020,361.5 L1020,259.5 A2.5,2.5 0 0 1 1022.5,257 " style="stroke:#000000;stroke-width:1.5;fill:none;"/><line style="stroke:#000000;stroke-width:1.5;fill:none;" x1="1020" x2="1177" y1="280.6094" y2="280.6094"/><text fill="#000000" font-family="sans-serif" font-size="14" font-weight="bold" lengthAdjust="spacing" textLength="144" x="1024" y="273.5332">Application Services</text></g><!--MD5=[5a2c09c7a25dd2d50c87c8f70ce7edbd]
cluster Interface Adapters--><g id="cluster_Interface Adapters"><path d="M1080.5,110 L1211.5,110 A3.75,3.75 0 0 1 1214,112.5 L1221,133.6094 L1320.5,133.6094 A2.5,2.5 0 0 1 1323,136.1094 L1323,214.5 A2.5,2.5 0 0 1 1320.5,217 L1080.5,217 A2.5,2.5 0 0 1 1078,214.5 L1078,112.5 A2.5,2.5 0 0 1 1080.5,110 " style="stroke:#000000;stroke-width:1.5;fill:none;"/><line style="stroke:#000000;stroke-width:1.5;fill:none;" x1="1078" x2="1221" y1="133.6094" y2="133.6094"/><text fill="#000000" font-family="sans-serif" font-size="14" font-weight="bold" lengthAdjust="spacing" textLength="130" x="1082" y="126.5332">Interface Adapters</text></g><!--MD5=[121a8bf1197281ab89ed693fab589f94]
cluster Domain--><g id="cluster_Domain"><path d="M920.5,448 L973.5,448 A3.75,3.75 0 0 1 976,450.5 L983,471.6094 L1108.5,471.6094 A2.5,2.5 0 0 1 1111,474.1094 L1111,699.5 A2.5,2.5 0 0 1 1108.5,702 L920.5,702 A2.5,2.5 0 0 1 918,699.5 L918,450.5 A2.5,2.5 0 0 1 920.5,448 " style="stroke:#000000;stroke-width:1.5;fill:none;"/><line style="stroke:#000000;stroke-width:1.5;fill:none;" x1="918" x2="983" y1="471.6094" y2="471.6094"/><text fill="#000000" font-family="sans-serif" font-size="14" font-weight="bold" lengthAdjust="spacing" textLength="52" x="922" y="464.5332">Domain</text></g><!--MD5=[931ec7911408a4ee109d89ae84d07f9b]
cluster Infraestructure--><g id="cluster_Infraestructure"><path d="M1137.5,595 L1244.5,595 A3.75,3.75 0 0 1 1247,597.5 L1254,618.6094 L1359.5,618.6094 A2.5,2.5 0 0 1 1362,621.1094 L1362,699.5 A2.5,2.5 0 0 1 1359.5,702 L1137.5,702 A2.5,2.5 0 0 1 1135,699.5 L1135,597.5 A2.5,2.5 0 0 1 1137.5,595 " style="stroke:#000000;stroke-width:1.5;fill:none;"/><line style="stroke:#000000;stroke-width:1.5;fill:none;" x1="1135" x2="1254" y1="618.6094" y2="618.6094"/><text fill="#000000" font-family="sans-serif" font-size="14" font-weight="bold" lengthAdjust="spacing" textLength="106" x="1139" y="611.5332">Infraestructure</text></g><path d="M1715.5,293 L1796.5,293 A3.75,3.75 0 0 1 1799,295.5 L1806,316.6094 L1810.5,316.6094 A2.5,2.5 0 0 1 1813,319.1094 L1813,345.7188 A2.5,2.5 0 0 1 1810.5,348.2188 L1715.5,348.2188 A2.5,2.5 0 0 1 1713,345.7188 L1713,295.5 A2.5,2.5 0 0 1 1715.5,293 " fill="#F1F1F1" style="stroke:#181818;stroke-width:0.5;"/><line style="stroke:#181818;stroke-width:0.5;" x1="1713" x2="1806" y1="316.6094" y2="316.6094"/><text fill="#000000" font-family="sans-serif" font-size="14" lengthAdjust="spacing" textLength="80" x="1717" y="309.5332">Components</text><path d="M1612.5,293 L1661.5,293 A3.75,3.75 0 0 1 1664,295.5 L1671,316.6094 L1675.5,316.6094 A2.5,2.5 0 0 1 1678,319.1094 L1678,345.7188 A2.5,2.5 0 0 1 1675.5,348.2188 L1612.5,348.2188 A2.5,2.5 0 0 1 1610,345.7188 L1610,295.5 A2.5,2.5 0 0 1 1612.5,293 " fill="#F1F1F1" style="stroke:#181818;stroke-width:0.5;"/><line style="stroke:#181818;stroke-width:0.5;" x1="1610" x2="1671" y1="316.6094" y2="316.6094"/><text fill="#000000" font-family="sans-serif" font-size="14" lengthAdjust="spacing" textLength="48" x="1614" y="309.5332">Helpers</text><path d="M1724.5,484 L1787.5,484 A3.75,3.75 0 0 1 1790,486.5 L1797,507.6094 L1801.5,507.6094 A2.5,2.5 0 0 1 1804,510.1094 L1804,536.7188 A2.5,2.5 0 0 1 1801.5,539.2188 L1724.5,539.2188 A2.5,2.5 0 0 1 1722,536.7188 L1722,486.5 A2.5,2.5 0 0 1 1724.5,484 " fill="#F1F1F1" style="stroke:#181818;stroke-width:0.5;"/><line style="stroke:#181818;stroke-width:0.5;" x1="1722" x2="1797" y1="507.6094" y2="507.6094"/><text fill="#000000" font-family="sans-serif" font-size="14" lengthAdjust="spacing" textLength="62" x="1726" y="500.5332">Interfaces</text><path d="M1614.5,484 L1669.5,484 A3.75,3.75 0 0 1 1672,486.5 L1679,507.6094 L1683.5,507.6094 A2.5,2.5 0 0 1 1686,510.1094 L1686,536.7188 A2.5,2.5 0 0 1 1683.5,539.2188 L1614.5,539.2188 A2.5,2.5 0 0 1 1612,536.7188 L1612,486.5 A2.5,2.5 0 0 1 1614.5,484 " fill="#F1F1F1" style="stroke:#181818;stroke-width:0.5;"/><line style="stroke:#181818;stroke-width:0.5;" x1="1612" x2="1679" y1="507.6094" y2="507.6094"/><text fill="#000000" font-family="sans-serif" font-size="14" lengthAdjust="spacing" textLength="54" x="1616" y="500.5332">Services</text><path d="M357,631 L483,631 A3.75,3.75 0 0 1 485.5,633.5 L492.5,654.6094 L497,654.6094 A2.5,2.5 0 0 1 499.5,657.1094 L499.5,683.7188 A2.5,2.5 0 0 1 497,686.2188 L357,686.2188 A2.5,2.5 0 0 1 354.5,683.7188 L354.5,633.5 A2.5,2.5 0 0 1 357,631 " fill="#F1F1F1" style="stroke:#181818;stroke-width:0.5;"/><line style="stroke:#181818;stroke-width:0.5;" x1="354.5" x2="492.5" y1="654.6094" y2="654.6094"/><text fill="#000000" font-family="sans-serif" font-size="14" lengthAdjust="spacing" textLength="125" x="358.5" y="647.5332">ARMAZEM Services</text><path d="M350,484 L490,484 A3.75,3.75 0 0 1 492.5,486.5 L499.5,507.6094 L504,507.6094 A2.5,2.5 0 0 1 506.5,510.1094 L506.5,536.7188 A2.5,2.5 0 0 1 504,539.2188 L350,539.2188 A2.5,2.5 0 0 1 347.5,536.7188 L347.5,486.5 A2.5,2.5 0 0 1 350,484 " fill="#F1F1F1" style="stroke:#181818;stroke-width:0.5;"/><line style="stroke:#181818;stroke-width:0.5;" x1="347.5" x2="499.5" y1="507.6094" y2="507.6094"/><text fill="#000000" font-family="sans-serif" font-size="14" lengthAdjust="spacing" textLength="139" x="351.5" y="500.5332">ARMAZEM Repository</text><path d="M544.5,484 L685.5,484 A3.75,3.75 0 0 1 688,486.5 L695,507.6094 L699.5,507.6094 A2.5,2.5 0 0 1 702,510.1094 L702,536.7188 A2.5,2.5 0 0 1 699.5,539.2188 L544.5,539.2188 A2.5,2.5 0 0 1 542,536.7188 L542,486.5 A2.5,2.5 0 0 1 544.5,484 " fill="#F1F1F1" style="stroke:#181818;stroke-width:0.5;"/><line style="stroke:#181818;stroke-width:0.5;" x1="542" x2="695" y1="507.6094" y2="507.6094"/><text fill="#000000" font-family="sans-serif" font-size="14" lengthAdjust="spacing" textLength="140" x="546" y="500.5332">ARMAZEM Controllers</text><path d="M253.5,802 L380.5,802 A3.75,3.75 0 0 1 383,804.5 L390,825.6094 L394.5,825.6094 A2.5,2.5 0 0 1 397,828.1094 L397,854.7188 A2.5,2.5 0 0 1 394.5,857.2188 L253.5,857.2188 A2.5,2.5 0 0 1 251,854.7188 L251,804.5 A2.5,2.5 0 0 1 253.5,802 " fill="#F1F1F1" style="stroke:#181818;stroke-width:0.5;"/><line style="stroke:#181818;stroke-width:0.5;" x1="251" x2="390" y1="825.6094" y2="825.6094"/><text fill="#000000" font-family="sans-serif" font-size="14" lengthAdjust="spacing" textLength="126" x="255" y="818.5332">ARMAZEM Mappers</text><path d="M96.5,917 L205.5,917 A3.75,3.75 0 0 1 208,919.5 L215,940.6094 L219.5,940.6094 A2.5,2.5 0 0 1 222,943.1094 L222,969.7188 A2.5,2.5 0 0 1 219.5,972.2188 L96.5,972.2188 A2.5,2.5 0 0 1 94,969.7188 L94,919.5 A2.5,2.5 0 0 1 96.5,917 " fill="#F1F1F1" style="stroke:#181818;stroke-width:0.5;"/><line style="stroke:#181818;stroke-width:0.5;" x1="94" x2="215" y1="940.6094" y2="940.6094"/><text fill="#000000" font-family="sans-serif" font-size="14" lengthAdjust="spacing" textLength="108" x="98" y="933.5332">ARMAZEM DTOs</text><path d="M260,917 L380,917 A3.75,3.75 0 0 1 382.5,919.5 L389.5,940.6094 L394,940.6094 A2.5,2.5 0 0 1 396.5,943.1094 L396.5,969.7188 A2.5,2.5 0 0 1 394,972.2188 L260,972.2188 A2.5,2.5 0 0 1 257.5,969.7188 L257.5,919.5 A2.5,2.5 0 0 1 260,917 " fill="#F1F1F1" style="stroke:#181818;stroke-width:0.5;"/><line style="stroke:#181818;stroke-width:0.5;" x1="257.5" x2="389.5" y1="940.6094" y2="940.6094"/><text fill="#000000" font-family="sans-serif" font-size="14" lengthAdjust="spacing" textLength="119" x="261.5" y="933.5332">ARMAZEM Domain</text><path d="M456,917 L602,917 A3.75,3.75 0 0 1 604.5,919.5 L611.5,940.6094 L616,940.6094 A2.5,2.5 0 0 1 618.5,943.1094 L618.5,969.7188 A2.5,2.5 0 0 1 616,972.2188 L456,972.2188 A2.5,2.5 0 0 1 453.5,969.7188 L453.5,919.5 A2.5,2.5 0 0 1 456,917 " fill="#F1F1F1" style="stroke:#181818;stroke-width:0.5;"/><line style="stroke:#181818;stroke-width:0.5;" x1="453.5" x2="611.5" y1="940.6094" y2="940.6094"/><text fill="#000000" font-family="sans-serif" font-size="14" lengthAdjust="spacing" textLength="145" x="457.5" y="933.5332">ARMAZEM Persistence</text><path d="M656.5,917 L773.5,917 A3.75,3.75 0 0 1 776,919.5 L783,940.6094 L787.5,940.6094 A2.5,2.5 0 0 1 790,943.1094 L790,969.7188 A2.5,2.5 0 0 1 787.5,972.2188 L656.5,972.2188 A2.5,2.5 0 0 1 654,969.7188 L654,919.5 A2.5,2.5 0 0 1 656.5,917 " fill="#F1F1F1" style="stroke:#181818;stroke-width:0.5;"/><line style="stroke:#181818;stroke-width:0.5;" x1="654" x2="783" y1="940.6094" y2="940.6094"/><text fill="#000000" font-family="sans-serif" font-size="14" lengthAdjust="spacing" textLength="116" x="658" y="933.5332">ARMAZEM Routes</text><path d="M1090.5,293 L1145.5,293 A3.75,3.75 0 0 1 1148,295.5 L1155,316.6094 L1159.5,316.6094 A2.5,2.5 0 0 1 1162,319.1094 L1162,345.7188 A2.5,2.5 0 0 1 1159.5,348.2188 L1090.5,348.2188 A2.5,2.5 0 0 1 1088,345.7188 L1088,295.5 A2.5,2.5 0 0 1 1090.5,293 " fill="#F1F1F1" style="stroke:#181818;stroke-width:0.5;"/><line style="stroke:#181818;stroke-width:0.5;" x1="1088" x2="1155" y1="316.6094" y2="316.6094"/><text fill="#000000" font-family="sans-serif" font-size="14" lengthAdjust="spacing" textLength="54" x="1092" y="309.5332">Services</text><path d="M1096.5,146 L1165.5,146 A3.75,3.75 0 0 1 1168,148.5 L1175,169.6094 L1179.5,169.6094 A2.5,2.5 0 0 1 1182,172.1094 L1182,198.7188 A2.5,2.5 0 0 1 1179.5,201.2188 L1096.5,201.2188 A2.5,2.5 0 0 1 1094,198.7188 L1094,148.5 A2.5,2.5 0 0 1 1096.5,146 " fill="#F1F1F1" style="stroke:#181818;stroke-width:0.5;"/><line style="stroke:#181818;stroke-width:0.5;" x1="1094" x2="1175" y1="169.6094" y2="169.6094"/><text fill="#000000" font-family="sans-serif" font-size="14" lengthAdjust="spacing" textLength="68" x="1098" y="162.5332">Repository</text><path d="M1220,146 L1290,146 A3.75,3.75 0 0 1 1292.5,148.5 L1299.5,169.6094 L1304,169.6094 A2.5,2.5 0 0 1 1306.5,172.1094 L1306.5,198.7188 A2.5,2.5 0 0 1 1304,201.2188 L1220,201.2188 A2.5,2.5 0 0 1 1217.5,198.7188 L1217.5,148.5 A2.5,2.5 0 0 1 1220,146 " fill="#F1F1F1" style="stroke:#181818;stroke-width:0.5;"/><line style="stroke:#181818;stroke-width:0.5;" x1="1217.5" x2="1299.5" y1="169.6094" y2="169.6094"/><text fill="#000000" font-family="sans-serif" font-size="14" lengthAdjust="spacing" textLength="69" x="1221.5" y="162.5332">Controllers</text><path d="M1022,484 L1078,484 A3.75,3.75 0 0 1 1080.5,486.5 L1087.5,507.6094 L1092,507.6094 A2.5,2.5 0 0 1 1094.5,510.1094 L1094.5,536.7188 A2.5,2.5 0 0 1 1092,539.2188 L1022,539.2188 A2.5,2.5 0 0 1 1019.5,536.7188 L1019.5,486.5 A2.5,2.5 0 0 1 1022,484 " fill="#F1F1F1" style="stroke:#181818;stroke-width:0.5;"/><line style="stroke:#181818;stroke-width:0.5;" x1="1019.5" x2="1087.5" y1="507.6094" y2="507.6094"/><text fill="#000000" font-family="sans-serif" font-size="14" lengthAdjust="spacing" textLength="55" x="1023.5" y="500.5332">Mappers</text><path d="M1040,631 L1078,631 A3.75,3.75 0 0 1 1080.5,633.5 L1087.5,654.6094 L1092,654.6094 A2.5,2.5 0 0 1 1094.5,657.1094 L1094.5,683.7188 A2.5,2.5 0 0 1 1092,686.2188 L1040,686.2188 A2.5,2.5 0 0 1 1037.5,683.7188 L1037.5,633.5 A2.5,2.5 0 0 1 1040,631 " fill="#F1F1F1" style="stroke:#181818;stroke-width:0.5;"/><line style="stroke:#181818;stroke-width:0.5;" x1="1037.5" x2="1087.5" y1="654.6094" y2="654.6094"/><text fill="#000000" font-family="sans-serif" font-size="14" lengthAdjust="spacing" textLength="37" x="1041.5" y="647.5332">DTOs</text><path d="M936.5,631 L985.5,631 A3.75,3.75 0 0 1 988,633.5 L995,654.6094 L999.5,654.6094 A2.5,2.5 0 0 1 1002,657.1094 L1002,683.7188 A2.5,2.5 0 0 1 999.5,686.2188 L936.5,686.2188 A2.5,2.5 0 0 1 934,683.7188 L934,633.5 A2.5,2.5 0 0 1 936.5,631 " fill="#F1F1F1" style="stroke:#181818;stroke-width:0.5;"/><line style="stroke:#181818;stroke-width:0.5;" x1="934" x2="995" y1="654.6094" y2="654.6094"/><text fill="#000000" font-family="sans-serif" font-size="14" lengthAdjust="spacing" textLength="48" x="938" y="647.5332">Domain</text><path d="M1153.5,631 L1228.5,631 A3.75,3.75 0 0 1 1231,633.5 L1238,654.6094 L1242.5,654.6094 A2.5,2.5 0 0 1 1245,657.1094 L1245,683.7188 A2.5,2.5 0 0 1 1242.5,686.2188 L1153.5,686.2188 A2.5,2.5 0 0 1 1151,683.7188 L1151,633.5 A2.5,2.5 0 0 1 1153.5,631 " fill="#F1F1F1" style="stroke:#181818;stroke-width:0.5;"/><line style="stroke:#181818;stroke-width:0.5;" x1="1151" x2="1238" y1="654.6094" y2="654.6094"/><text fill="#000000" font-family="sans-serif" font-size="14" lengthAdjust="spacing" textLength="74" x="1155" y="647.5332">Persistence</text><path d="M1283,631 L1329,631 A3.75,3.75 0 0 1 1331.5,633.5 L1338.5,654.6094 L1343,654.6094 A2.5,2.5 0 0 1 1345.5,657.1094 L1345.5,683.7188 A2.5,2.5 0 0 1 1343,686.2188 L1283,686.2188 A2.5,2.5 0 0 1 1280.5,683.7188 L1280.5,633.5 A2.5,2.5 0 0 1 1283,631 " fill="#F1F1F1" style="stroke:#181818;stroke-width:0.5;"/><line style="stroke:#181818;stroke-width:0.5;" x1="1280.5" x2="1338.5" y1="654.6094" y2="654.6094"/><text fill="#000000" font-family="sans-serif" font-size="14" lengthAdjust="spacing" textLength="45" x="1284.5" y="647.5332">Routes</text><path d="M1420.5,293 L1523.5,293 A3.75,3.75 0 0 1 1526,295.5 L1533,316.6094 L1537.5,316.6094 A2.5,2.5 0 0 1 1540,319.1094 L1540,345.7188 A2.5,2.5 0 0 1 1537.5,348.2188 L1420.5,348.2188 A2.5,2.5 0 0 1 1418,345.7188 L1418,295.5 A2.5,2.5 0 0 1 1420.5,293 " fill="#F1F1F1" style="stroke:#181818;stroke-width:0.5;"/><line style="stroke:#181818;stroke-width:0.5;" x1="1418" x2="1533" y1="316.6094" y2="316.6094"/><text fill="#000000" font-family="sans-serif" font-size="14" lengthAdjust="spacing" textLength="102" x="1422" y="309.5332">PLANEAMENTO</text><!--MD5=[6b29d5ca4b5e967cc42044086870adae]
link routes to ctrs--><g id="link_routes_ctrs"><path d="M1310.19,630.93 C1301.46,548.24 1274.8,295.73 1265.36,206.3 " fill="none" id="routes-to-ctrs" style="stroke:#181818;stroke-width:1.0;stroke-dasharray:7.0,7.0;"/><polygon fill="#181818" points="1264.81,201.16,1261.784,210.5325,1265.3386,206.132,1269.7391,209.6867,1264.81,201.16" style="stroke:#181818;stroke-width:1.0;"/></g><!--MD5=[63ae2b50ce04c41155d6f06d2bd60cd8]
link ctrs to services--><g id="link_ctrs_services"><path d="M1236.87,201.1 C1213.46,225.88 1178.56,262.81 1153.98,288.83 " fill="none" id="ctrs-to-services" style="stroke:#181818;stroke-width:1.0;stroke-dasharray:7.0,7.0;"/><polygon fill="#181818" points="1150.43,292.58,1159.5111,288.7677,1153.8568,288.939,1153.6855,283.2847,1150.43,292.58" style="stroke:#181818;stroke-width:1.0;"/></g><!--MD5=[37fc054b39cee493bea81e6c18321815]
link services to mappers--><g id="link_services_mappers"><path d="M1115.4,348.18 C1103,382.65 1081.44,442.57 1068.27,479.17 " fill="none" id="services-to-mappers" style="stroke:#181818;stroke-width:1.0;stroke-dasharray:7.0,7.0;"/><polygon fill="#181818" points="1066.55,483.96,1073.3727,476.8572,1068.2507,479.2581,1065.8497,474.1361,1066.55,483.96" style="stroke:#181818;stroke-width:1.0;"/></g><!--MD5=[a5534ed2c560f163a2d7054a0de96128]
link services to rep--><g id="link_services_rep"><path d="M1127.41,292.58 C1129.61,268.11 1132.85,231.96 1135.17,206.12 " fill="none" id="services-to-rep" style="stroke:#181818;stroke-width:1.0;stroke-dasharray:7.0,7.0;"/><polygon fill="#181818" points="1135.62,201.1,1130.8372,209.7096,1135.1764,206.0803,1138.8057,210.4194,1135.62,201.1" style="stroke:#181818;stroke-width:1.0;"/></g><!--MD5=[835edb0965c9c8f2358fe7c304bc6cc1]
link mappers to dtos--><g id="link_mappers_dtos"><path d="M1058.65,539.1 C1060.16,563.47 1062.41,599.6 1064.02,625.54 " fill="none" id="mappers-to-dtos" style="stroke:#181818;stroke-width:1.0;stroke-dasharray:7.0,7.0;"/><polygon fill="#181818" points="1064.33,630.58,1067.7575,621.3468,1064.0163,625.5898,1059.7733,621.8487,1064.33,630.58" style="stroke:#181818;stroke-width:1.0;"/></g><!--MD5=[a109c394b3b138761914f9537635e287]
link mappers to domain--><g id="link_mappers_domain"><path d="M1040.68,539.1 C1025.59,563.67 1003.17,600.21 987.22,626.18 " fill="none" id="mappers-to-domain" style="stroke:#181818;stroke-width:1.0;stroke-dasharray:7.0,7.0;"/><polygon fill="#181818" points="984.52,630.58,992.6383,625.0039,987.1365,626.3193,985.8211,620.8175,984.52,630.58" style="stroke:#181818;stroke-width:1.0;"/></g><!--MD5=[bbcea0a98ab3c59f4237bec76c57d4ab]
link rep to persistence--><g id="link_rep_persistence"><path d="M1160.73,201.07 C1167.55,210.55 1174.21,221.68 1178,233 C1224.94,373.05 1210.7,553.66 1202.25,625.74 " fill="none" id="rep-to-persistence" style="stroke:#181818;stroke-width:1.0;stroke-dasharray:7.0,7.0;"/><polygon fill="#181818" points="1201.66,630.74,1206.7096,622.2841,1202.2591,625.776,1198.7672,621.3256,1201.66,630.74" style="stroke:#181818;stroke-width:1.0;"/></g><!--MD5=[41e5f6a8143cdcc106e3c74eb6483459]
link wroutes to wctrs--><g id="link_wroutes_wctrs"><path d="M715.8,916.77 C698.25,841.13 648.3,625.83 629.38,544.31 " fill="none" id="wroutes-to-wctrs" style="stroke:#181818;stroke-width:1.0;stroke-dasharray:7.0,7.0;"/><polygon fill="#181818" points="628.18,539.14,626.3207,548.8118,629.3116,544.0103,634.1131,547.0012,628.18,539.14" style="stroke:#181818;stroke-width:1.0;"/></g><!--MD5=[2f637acaf8d30e4aec5a05e1f0e9b57c]
link wctrs to wservices--><g id="link_wctrs_wservices"><path d="M586.23,539.1 C552.53,564.16 502.11,601.65 467.06,627.71 " fill="none" id="wctrs-to-wservices" style="stroke:#181818;stroke-width:1.0;stroke-dasharray:7.0,7.0;"/><polygon fill="#181818" points="462.87,630.83,472.4787,628.6684,466.882,627.846,467.7043,622.2493,462.87,630.83" style="stroke:#181818;stroke-width:1.0;"/></g><!--MD5=[6bb3573282479a06354ae372345154a9]
link wservices to wmappers--><g id="link_wservices_wmappers"><path d="M410.68,686.28 C392.3,716.44 362.46,765.4 343.03,797.27 " fill="none" id="wservices-to-wmappers" style="stroke:#181818;stroke-width:1.0;stroke-dasharray:7.0,7.0;"/><polygon fill="#181818" points="340.24,801.85,348.3363,796.242,342.8397,797.579,341.5027,792.0824,340.24,801.85" style="stroke:#181818;stroke-width:1.0;"/></g><!--MD5=[526c8bb42a052c7c0fbd0f08d900bf0d]
link wservices to wrep--><g id="link_wservices_wrep"><path d="M427,630.58 C427,606.11 427,569.96 427,544.12 " fill="none" id="wservices-to-wrep" style="stroke:#181818;stroke-width:1.0;stroke-dasharray:7.0,7.0;"/><polygon fill="#181818" points="427,539.1,423,548.1,427,544.1,431,548.1,427,539.1" style="stroke:#181818;stroke-width:1.0;"/></g><!--MD5=[7e500390f4e856bb3d4785bbe1e5ef72]
link wservices to wdomain--><g id="link_wservices_wdomain"><path d="M431.19,686.18 C436.12,725.53 440.7,800.57 415,857 C404.93,879.11 386.51,898.61 369.11,913.47 " fill="none" id="wservices-to-wdomain" style="stroke:#181818;stroke-width:1.0;stroke-dasharray:7.0,7.0;"/><polygon fill="#181818" points="365.19,916.76,374.6608,914.0573,369.0264,913.5534,369.5303,907.9191,365.19,916.76" style="stroke:#181818;stroke-width:1.0;"/></g><!--MD5=[9ec94fcc9be4c7de7cc2387c3f584143]
link wmappers to wdtos--><g id="link_wmappers_wdtos"><path d="M266.91,857.03 C257.69,861.97 248.42,867.37 240,873 C222.31,884.83 204.21,900 189.53,913.24 " fill="none" id="wmappers-to-wdtos" style="stroke:#181818;stroke-width:1.0;stroke-dasharray:7.0,7.0;"/><polygon fill="#181818" points="185.48,916.92,194.8331,913.8347,189.1829,913.5602,189.4574,907.91,185.48,916.92" style="stroke:#181818;stroke-width:1.0;"/></g><!--MD5=[7d9fe70c889b64c32cbf4b3629073bca]
link wmappers to wdomain--><g id="link_wmappers_wdomain"><path d="M324.71,857.28 C325.14,873.6 325.7,894.56 326.16,911.72 " fill="none" id="wmappers-to-wdomain" style="stroke:#181818;stroke-width:1.0;stroke-dasharray:7.0,7.0;"/><polygon fill="#181818" points="326.29,916.91,330.0573,907.8102,326.1615,911.9117,322.06,908.0158,326.29,916.91" style="stroke:#181818;stroke-width:1.0;"/></g><!--MD5=[d559417cd18c9ecae129a03f9343b6b1]
link wrep to wpersistence--><g id="link_wrep_wpersistence"><path d="M472.53,539.25 C489.2,551.55 506.33,567.73 516,587 C570.34,695.33 553.35,846.12 542.28,911.33 " fill="none" id="wrep-to-wpersistence" style="stroke:#181818;stroke-width:1.0;stroke-dasharray:7.0,7.0;"/><polygon fill="#181818" points="541.36,916.63,546.8429,908.4485,542.2167,911.7039,538.9612,907.0777,541.36,916.63" style="stroke:#181818;stroke-width:1.0;"/></g><!--MD5=[cfe94ebdaefcd7b624992478ad364904]
link wrep to wdomain--><g id="link_wrep_wdomain"><path d="M389.93,539.07 C372.94,552.32 353.24,569.28 338,587 C280.01,654.45 258,672.35 234,758 C222.13,800.37 216.43,816.66 234,857 C243.82,879.55 262.75,898.88 280.97,913.5 " fill="none" id="wrep-to-wdomain" style="stroke:#181818;stroke-width:1.0;stroke-dasharray:7.0,7.0;"/><polygon fill="#181818" points="285.09,916.74,280.4677,908.0432,281.1525,913.6585,275.5372,914.3432,285.09,916.74" style="stroke:#181818;stroke-width:1.0;"/></g><!--MD5=[3e21508849e11267254d1c1f98e17e66]
link spa to wroutes--><g id="link_spa_wroutes"><path d="M1566.5762,386.8363 C1566.3706,387.5314 1566.1657,388.2248 1565.9614,388.9165 C1564.3276,394.4508 1562.7374,399.8822 1561.185,405.2154 C1558.0801,415.8818 1555.126,426.1557 1552.275,436.0754 C1546.573,455.9149 1541.2833,474.338 1536.0234,491.6522 C1525.5038,526.2806 1515.1038,556.4737 1501.765,584.6925 C1475.0875,641.13 1436.655,689.67 1362,750 C1191.47,887.81 924.18,927.6 795.74,938.99 " fill="none" id="spa-to-wroutes" style="stroke:#181818;stroke-width:1.0;stroke-dasharray:7.0,7.0;"/><polygon fill="#181818" points="790.48,939.45,799.7986,942.638,795.4604,939.0076,799.0908,934.6694,790.48,939.45" style="stroke:#181818;stroke-width:1.0;"/></g><!--MD5=[2cbe2be0f296aa1bb937cb8f6e6adeae]
link spa to routes--><g id="link_spa_routes"><path d="M1566.7879,374.8157 C1566.6356,374.8842 1566.4813,374.9512 1566.3248,375.0168 C1565.6992,375.2793 1565.0405,375.519 1564.3513,375.7378 C1561.5944,376.6128 1558.3488,377.1512 1554.7702,377.4561 C1547.6128,378.0659 1539.1231,377.7419 1530.5462,377.3088 C1513.3925,376.4425 1495.89,375.14 1488,380 C1394.37,437.68 1342.43,566.2 1322.55,625.9 " fill="none" id="spa-to-routes" style="stroke:#181818;stroke-width:1.0;stroke-dasharray:7.0,7.0;"/><polygon fill="#181818" points="1320.95,630.76,1327.5513,623.4509,1322.5054,626.0081,1319.9482,620.9622,1320.95,630.76" style="stroke:#181818;stroke-width:1.0;"/></g><!--MD5=[a06cd5159d8ee0a32708e1f6a8aa59d9]
link spa to armazem--><g id="link_spa_armazem"><path d="M1566.3812,373.0444 C1563.7203,373.3745 1559.9626,373.6867 1555.1809,373.982 C1545.6177,374.5727 1531.9588,375.0959 1514.7882,375.559 C1480.447,376.4851 1432.059,377.1709 1374.2955,377.6755 C1258.7684,378.6847 1105.7394,378.9694 952.5788,379.0037 C646.2575,379.0725 339.41,378.14 331,380 C314.2638,383.7063 297.3311,388.4763 280.5038,393.9921 C279.4521,394.3369 278.4008,394.6845 277.35,395.035 C276.8245,395.2102 276.2993,395.3862 275.7741,395.5628 " fill="none" id="spa-to-armazem" style="stroke:#181818;stroke-width:1.0;stroke-dasharray:7.0,7.0;"/><polygon fill="#181818" points="275.7741,395.5628,285.5797,396.4846,280.5132,393.9687,283.0291,388.9021,275.7741,395.5628" style="stroke:#181818;stroke-width:1.0;"/></g><!--MD5=[1b4ee614a9c33d0dff2c370109ff701b]
link spa to planeamento--><g id="link_spa_planeamento"><path d="M1566.9206,320.5 C1566.8445,320.5 1566.7684,320.5 1566.6922,320.5 C1566.5399,320.5 1566.3876,320.5 1566.2354,320.5 C1565.9308,320.5 1565.6262,320.5 1565.3217,320.5 C1564.7126,320.5 1564.1035,320.5 1563.4944,320.5 C1562.2763,320.5 1561.0581,320.5 1559.84,320.5 C1554.9675,320.5 1550.095,320.5 1545.22,320.5 " fill="none" id="spa-to-planeamento" style="stroke:#181818;stroke-width:1.0;stroke-dasharray:7.0,7.0;"/><polygon fill="#181818" points="1540.12,320.5,1549.1314,324.4743,1545.12,320.4857,1549.1085,316.4743,1540.12,320.5" style="stroke:#181818;stroke-width:1.0;"/></g><!--MD5=[af0bca1080e6c9b8724580f561420292]
link logistica to planeamento--><g id="link_logistica_planeamento"><path d="M1394.3079,290.2378 C1394.5665,290.3218 1394.8247,290.4058 1395.0824,290.4897 C1397.1442,291.1606 1399.1788,291.8256 1401.1849,292.484 C1405.1972,293.8009 1409.0956,295.0913 1412.87,296.35 " fill="none" id="logistica-to-planeamento" style="stroke:#181818;stroke-width:1.0;stroke-dasharray:7.0,7.0;"/><polygon fill="#181818" points="1417.89,298.03,1410.6228,291.3826,1413.148,296.4446,1408.0861,298.9698,1417.89,298.03" style="stroke:#181818;stroke-width:1.0;"/></g><!--MD5=[f805087b7df35dab3d893954831a4e61]
link logistica to armazem--><g id="link_logistica_armazem"><path d="M877.5483,177.3619 C877.3278,177.4368 877.1031,177.5132 876.8743,177.5909 C875.0441,178.2129 872.9509,178.9253 870.6061,179.7247 C861.2268,182.9223 847.8218,187.513 831.1173,193.288 C797.7084,204.8378 751.1019,221.1244 697.1088,240.4762 C589.1225,279.18 451.59,330.145 331,380 C323.0794,383.2744 315.0546,386.6398 306.9685,390.0727 C302.9254,391.7891 298.867,393.5224 294.7987,395.2697 C294.2901,395.4881 293.7814,395.7067 293.2726,395.9255 " fill="none" id="logistica-to-armazem" style="stroke:#181818;stroke-width:1.0;stroke-dasharray:7.0,7.0;"/><polygon fill="#181818" points="293.2726,395.9255,303.1207,396.0445,297.8658,393.9502,299.9602,388.6953,293.2726,395.9255" style="stroke:#181818;stroke-width:1.0;"/></g><!--MD5=[2d62117c248a8040fbd9e3849035df8e]
link spa_components to spa_services--><g id="link_spa_components_spa_services"><path d="M1732.35,348.15 C1722.75,357.54 1712.68,368.62 1705,380 C1684.05,411.08 1668.23,451.27 1658.84,478.79 " fill="none" id="spa_components-to-spa_services" style="stroke:#181818;stroke-width:1.0;stroke-dasharray:7.0,7.0;"/><polygon fill="#181818" points="1657.16,483.78,1663.8336,476.5369,1658.7626,479.0438,1656.2557,473.9727,1657.16,483.78" style="stroke:#181818;stroke-width:1.0;"/></g><!--MD5=[6cb95c1524e49fb4ca47c91b65e880ce]
link spa_components to spa_interfaces--><g id="link_spa_components_spa_interfaces"><path d="M1763,348.18 C1763,382.51 1763,442.09 1763,478.72 " fill="none" id="spa_components-to-spa_interfaces" style="stroke:#181818;stroke-width:1.0;stroke-dasharray:7.0,7.0;"/><polygon fill="#181818" points="1763,483.96,1767,474.96,1763,478.96,1759,474.96,1763,483.96" style="stroke:#181818;stroke-width:1.0;"/></g><!--MD5=[66378b49d84840745780937ce73a32cf]
link spa_helpers to spa_services--><g id="link_spa_helpers_spa_services"><path d="M1644.71,348.18 C1645.61,382.51 1647.19,442.09 1648.16,478.72 " fill="none" id="spa_helpers-to-spa_services" style="stroke:#181818;stroke-width:1.0;stroke-dasharray:7.0,7.0;"/><polygon fill="#181818" points="1648.3,483.96,1652.0406,474.8491,1648.1568,478.9621,1644.0439,475.0783,1648.3,483.96" style="stroke:#181818;stroke-width:1.0;"/></g><!--MD5=[26c0a3bbfbaf5d8814019d8d81cd0dc0]
@startuml

package "EletricGo" {



  package "SPA" as spa{
    package "Components" as spa_components {}
    package "Helpers" as spa_helpers{}
    package "Interfaces" as spa_interfaces{}
    package "Services" as spa_services {}

  }

  package "ARMAZEM" as armazem{
    package "ARMAZEM Application Services" {
           package "ARMAZEM Services" as wservices {}
       }

       package "ARMAZEM Interface Adapters" {
           package "ARMAZEM Repository" as wrep {}
           package "ARMAZEM Controllers" as wctrs {}
       }

        package "ARMAZEM Domain" {
            package "ARMAZEM Mappers" as wmappers {}
            package "ARMAZEM DTOs" as wdtos {}
            package "ARMAZEM Domain" as wdomain {}
        }
        package "ARMAZEM Infraestructure" {
            package "ARMAZEM Persistence" as wpersistence {}
            package "ARMAZEM Routes" as wroutes {}
        }
  }

  package "LOGISTICA" as logistica{
       package "Application Services" {
           package "Services" as services {}
       }

       package "Interface Adapters" {
           package "Repository" as rep {}
           package "Controllers" as ctrs {}
       }

        package "Domain" {
            package "Mappers" as mappers {}
            package "DTOs" as dtos {}
            package "Domain" as domain {}
        }
        package "Infraestructure" {
            package "Persistence" as persistence {}
            package "Routes" as routes {}
        }
  }
  package "PLANEAMENTO" as planeamento{}

}

routes .> ctrs
ctrs ..> services
services ..> mappers
services ..> rep
mappers ..> dtos
mappers ..> domain
rep .-..> persistence

wroutes .> wctrs
wctrs ..> wservices
wservices ..> wmappers
wservices ..> wrep
wservices ..> wdomain
wmappers ..> wdtos
wmappers ..> wdomain
wrep .-..> wpersistence
wrep .-..> wdomain

spa .> wroutes
spa .> routes
spa ..> armazem
spa .> planeamento
logistica ..> planeamento
logistica .> armazem

spa_components ..> spa_services
spa_components ..> spa_interfaces
spa_helpers ..> spa_services

@enduml

PlantUML version 1.2022.4(Sat Apr 09 14:29:17 BST 2022)
(GPL source distribution)
Java Runtime: OpenJDK Runtime Environment
JVM: OpenJDK 64-Bit Server VM
Default Encoding: Cp1252
Language: pt
Country: PT
--></g></svg>