<?xml version="1.0" encoding="UTF-8" standalone="no"?><svg xmlns="http://www.w3.org/2000/svg" xmlns:xlink="http://www.w3.org/1999/xlink" contentStyleType="text/css" height="815px" preserveAspectRatio="none" style="width:447px;height:815px;background:#FFFFFF;" version="1.1" viewBox="0 0 447 815" width="447px" zoomAndPan="magnify"><defs/><g><!--MD5=[60dc228ee8dd484443327110c7ff1e60]
cluster <<aggregate>> Caminho--><g id="cluster_&lt;&lt;aggregate&gt;&gt; Caminho"><path d="M31.5,556 L201.5,556 A3.75,3.75 0 0 1 204,558.5 L211,579.6094 L211.5,579.6094 A2.5,2.5 0 0 1 214,582.1094 L214,805.5 A2.5,2.5 0 0 1 211.5,808 L31.5,808 A2.5,2.5 0 0 1 29,805.5 L29,558.5 A2.5,2.5 0 0 1 31.5,556 " fill="none" style="stroke:#000000;stroke-width:1.5;"/><line style="stroke:#000000;stroke-width:1.5;" x1="29" x2="211" y1="579.6094" y2="579.6094"/><text fill="#000000" font-family="sans-serif" font-size="14" font-weight="bold" lengthAdjust="spacing" textLength="169" x="33" y="572.5332">&lt;&lt;aggregate&gt;&gt; Caminho</text></g><!--MD5=[91961b9383d9ce9112f1bacd39e5a7ca]
cluster <<aggregate>> Camiao--><g id="cluster_&lt;&lt;aggregate&gt;&gt; Camiao"><path d="M252.5,574 L412.5,574 A3.75,3.75 0 0 1 415,576.5 L422,597.6094 L427.5,597.6094 A2.5,2.5 0 0 1 430,600.1094 L430,787.5 A2.5,2.5 0 0 1 427.5,790 L252.5,790 A2.5,2.5 0 0 1 250,787.5 L250,576.5 A2.5,2.5 0 0 1 252.5,574 " fill="none" style="stroke:#000000;stroke-width:1.5;"/><line style="stroke:#000000;stroke-width:1.5;" x1="250" x2="422" y1="597.6094" y2="597.6094"/><text fill="#000000" font-family="sans-serif" font-size="14" font-weight="bold" lengthAdjust="spacing" textLength="159" x="254" y="590.5332">&lt;&lt;aggregate&gt;&gt; Camiao</text></g><!--MD5=[8d68fc71d478f9b5288995286dd41351]
cluster <<aggregate>> Entregas--><g id="cluster_&lt;&lt;aggregate&gt;&gt; Entregas"><path d="M8.5,6 L180.5,6 A3.75,3.75 0 0 1 183,8.5 L190,29.6094 L219.5,29.6094 A2.5,2.5 0 0 1 222,32.1094 L222,219.5 A2.5,2.5 0 0 1 219.5,222 L8.5,222 A2.5,2.5 0 0 1 6,219.5 L6,8.5 A2.5,2.5 0 0 1 8.5,6 " fill="none" style="stroke:#000000;stroke-width:1.5;"/><line style="stroke:#000000;stroke-width:1.5;" x1="6" x2="190" y1="29.6094" y2="29.6094"/><text fill="#000000" font-family="sans-serif" font-size="14" font-weight="bold" lengthAdjust="spacing" textLength="171" x="10" y="22.5332">&lt;&lt;aggregate&gt;&gt; Entregas</text></g><!--MD5=[abbfc60cfece81257a35d0b7e1c6aa89]
cluster <<aggregate>> Armazem--><g id="cluster_&lt;&lt;aggregate&gt;&gt; Armazem"><path d="M46.5,272 L218.5,272 A3.75,3.75 0 0 1 221,274.5 L228,295.6094 L228.5,295.6094 A2.5,2.5 0 0 1 231,298.1094 L231,503.5 A2.5,2.5 0 0 1 228.5,506 L46.5,506 A2.5,2.5 0 0 1 44,503.5 L44,274.5 A2.5,2.5 0 0 1 46.5,272 " fill="none" style="stroke:#000000;stroke-width:1.5;"/><line style="stroke:#000000;stroke-width:1.5;" x1="44" x2="228" y1="295.6094" y2="295.6094"/><text fill="#000000" font-family="sans-serif" font-size="14" font-weight="bold" lengthAdjust="spacing" textLength="171" x="48" y="288.5332">&lt;&lt;aggregate&gt;&gt; Armazem</text></g><!--MD5=[79965cab2493e237184e77045ac698ae]
cluster <<aggregate>> Viagem--><g id="cluster_&lt;&lt;aggregate&gt;&gt; Viagem"><path d="M267.5,325 L427.5,325 A3.75,3.75 0 0 1 430,327.5 L437,348.6094 L437.5,348.6094 A2.5,2.5 0 0 1 440,351.1094 L440,450.5 A2.5,2.5 0 0 1 437.5,453 L267.5,453 A2.5,2.5 0 0 1 265,450.5 L265,327.5 A2.5,2.5 0 0 1 267.5,325 " fill="none" style="stroke:#000000;stroke-width:1.5;"/><line style="stroke:#000000;stroke-width:1.5;" x1="265" x2="437" y1="348.6094" y2="348.6094"/><text fill="#000000" font-family="sans-serif" font-size="14" font-weight="bold" lengthAdjust="spacing" textLength="159" x="269" y="341.5332">&lt;&lt;aggregate&gt;&gt; Viagem</text></g><!--MD5=[5158eea2981105b1eea807b659f3ae64]
class Caminho--><g id="elem_Caminho"><rect codeLine="58" fill="#F5F5DC" height="199.5781" id="Caminho" rx="2.5" ry="2.5" style="stroke:#181818;stroke-width:0.5;" width="142" x="50" y="592"/><ellipse cx="89.3" cy="613.3516" fill="#ADD1B2" rx="11" ry="11" style="stroke:#181818;stroke-width:1.0;"/><path d="M88.1594,614.1484 L88.1594,616.6484 L92.4875,616.6484 L92.4875,615.7266 Q92.4875,615.1172 92.7219,614.8516 Q92.9719,614.5859 93.3469,614.5859 Q93.7219,614.5859 93.9563,614.8516 Q94.1906,615.1172 94.1906,615.7266 L94.1906,618.3516 L86.1906,618.3516 Q85.5656,618.3516 85.3,618.1172 Q85.05,617.8828 85.05,617.4922 Q85.05,617.1172 85.3156,616.8828 Q85.5813,616.6484 86.1906,616.6484 L86.4563,616.6484 L86.4563,609.9922 L86.1906,609.9922 Q85.5656,609.9922 85.3,609.7578 Q85.05,609.5234 85.05,609.1328 Q85.05,608.7578 85.3,608.5234 Q85.5656,608.2891 86.1906,608.2891 L93.8156,608.2891 L93.8156,610.8828 Q93.8156,611.4922 93.5813,611.7578 Q93.3625,612.0078 92.9719,612.0078 Q92.5969,612.0078 92.3625,611.7578 Q92.1281,611.4922 92.1281,610.8828 L92.1281,609.9922 L88.1594,609.9922 L88.1594,612.4453 L89.6438,612.4453 Q89.6438,611.7891 89.7688,611.6016 Q90.0344,611.1953 90.5031,611.1953 Q90.8781,611.1953 91.1125,611.4609 Q91.3469,611.7109 91.3469,612.3203 L91.3469,614.2891 Q91.3469,614.8359 91.2219,615.0234 Q90.9563,615.4141 90.5031,615.4141 Q90.0344,615.4141 89.7688,615.0078 Q89.6438,614.8203 89.6438,614.1484 L88.1594,614.1484 Z " fill="#000000"/><text fill="#000000" font-family="sans-serif" font-size="12" font-style="italic" lengthAdjust="spacing" textLength="43" x="115.2" y="609.457">«entity»</text><text fill="#000000" font-family="sans-serif" font-size="14" lengthAdjust="spacing" textLength="56" x="108.7" y="626.627">Caminho</text><line style="stroke:#181818;stroke-width:0.5;" x1="51" x2="191" y1="634.7031" y2="634.7031"/><text fill="#000000" font-family="sans-serif" font-size="14" lengthAdjust="spacing" textLength="16" x="56" y="653.2363">-id</text><text fill="#000000" font-family="sans-serif" font-size="14" lengthAdjust="spacing" textLength="127" x="56" y="670.8457">-id_ArmazemPartida</text><text fill="#000000" font-family="sans-serif" font-size="14" lengthAdjust="spacing" textLength="130" x="56" y="688.4551">-id_ArmazemDestino</text><text fill="#000000" font-family="sans-serif" font-size="14" lengthAdjust="spacing" textLength="71" x="56" y="706.0645">-id_Viagem</text><text fill="#000000" font-family="sans-serif" font-size="14" lengthAdjust="spacing" textLength="61" x="56" y="723.6738">-distancia</text><text fill="#000000" font-family="sans-serif" font-size="14" lengthAdjust="spacing" textLength="44" x="56" y="741.2832">-tempo</text><text fill="#000000" font-family="sans-serif" font-size="14" lengthAdjust="spacing" textLength="53" x="56" y="758.8926">-energia</text><text fill="#000000" font-family="sans-serif" font-size="14" lengthAdjust="spacing" textLength="76" x="56" y="776.502">-tempoExtra</text><line style="stroke:#181818;stroke-width:0.5;" x1="51" x2="191" y1="783.5781" y2="783.5781"/></g><!--MD5=[5dbd51d0631911ae9de62b4db946babe]
class Camiao--><g id="elem_Camiao"><rect codeLine="49" fill="#F5F5DC" height="164.3594" id="Camiao" rx="2.5" ry="2.5" style="stroke:#181818;stroke-width:0.5;" width="147" x="266.5" y="610"/><ellipse cx="311.75" cy="631.3516" fill="#ADD1B2" rx="11" ry="11" style="stroke:#181818;stroke-width:1.0;"/><path d="M310.6094,632.1484 L310.6094,634.6484 L314.9375,634.6484 L314.9375,633.7266 Q314.9375,633.1172 315.1719,632.8516 Q315.4219,632.5859 315.7969,632.5859 Q316.1719,632.5859 316.4063,632.8516 Q316.6406,633.1172 316.6406,633.7266 L316.6406,636.3516 L308.6406,636.3516 Q308.0156,636.3516 307.75,636.1172 Q307.5,635.8828 307.5,635.4922 Q307.5,635.1172 307.7656,634.8828 Q308.0313,634.6484 308.6406,634.6484 L308.9063,634.6484 L308.9063,627.9922 L308.6406,627.9922 Q308.0156,627.9922 307.75,627.7578 Q307.5,627.5234 307.5,627.1328 Q307.5,626.7578 307.75,626.5234 Q308.0156,626.2891 308.6406,626.2891 L316.2656,626.2891 L316.2656,628.8828 Q316.2656,629.4922 316.0313,629.7578 Q315.8125,630.0078 315.4219,630.0078 Q315.0469,630.0078 314.8125,629.7578 Q314.5781,629.4922 314.5781,628.8828 L314.5781,627.9922 L310.6094,627.9922 L310.6094,630.4453 L312.0938,630.4453 Q312.0938,629.7891 312.2188,629.6016 Q312.4844,629.1953 312.9531,629.1953 Q313.3281,629.1953 313.5625,629.4609 Q313.7969,629.7109 313.7969,630.3203 L313.7969,632.2891 Q313.7969,632.8359 313.6719,633.0234 Q313.4063,633.4141 312.9531,633.4141 Q312.4844,633.4141 312.2188,633.0078 Q312.0938,632.8203 312.0938,632.1484 L310.6094,632.1484 Z " fill="#000000"/><text fill="#000000" font-family="sans-serif" font-size="12" font-style="italic" lengthAdjust="spacing" textLength="43" x="334.75" y="627.457">«entity»</text><text fill="#000000" font-family="sans-serif" font-size="14" lengthAdjust="spacing" textLength="48" x="332.25" y="644.627">Camiao</text><line style="stroke:#181818;stroke-width:0.5;" x1="267.5" x2="412.5" y1="652.7031" y2="652.7031"/><text fill="#000000" font-family="sans-serif" font-size="14" lengthAdjust="spacing" textLength="16" x="272.5" y="671.2363">-id</text><text fill="#000000" font-family="sans-serif" font-size="14" lengthAdjust="spacing" textLength="71" x="272.5" y="688.8457">-autonomia</text><text fill="#000000" font-family="sans-serif" font-size="14" lengthAdjust="spacing" textLength="30" x="272.5" y="706.4551">-tara</text><text fill="#000000" font-family="sans-serif" font-size="14" lengthAdjust="spacing" textLength="117" x="272.5" y="724.0645">-capacidadeCarga</text><text fill="#000000" font-family="sans-serif" font-size="14" lengthAdjust="spacing" textLength="88" x="272.5" y="741.6738">-cargaMaxima</text><text fill="#000000" font-family="sans-serif" font-size="14" lengthAdjust="spacing" textLength="135" x="272.5" y="759.2832">-tempoCarregamento</text><line style="stroke:#181818;stroke-width:0.5;" x1="267.5" x2="412.5" y1="766.3594" y2="766.3594"/></g><!--MD5=[3179f819b5ca0f9c8a1bd58e9144681b]
class Entrega--><g id="elem_Entrega"><rect codeLine="39" fill="#F5F5DC" height="164.3594" id="Entrega" rx="2.5" ry="2.5" style="stroke:#181818;stroke-width:0.5;" width="183" x="22.5" y="42"/><ellipse cx="84.75" cy="63.3516" fill="#ADD1B2" rx="11" ry="11" style="stroke:#181818;stroke-width:1.0;"/><path d="M83.6094,64.1484 L83.6094,66.6484 L87.9375,66.6484 L87.9375,65.7266 Q87.9375,65.1172 88.1719,64.8516 Q88.4219,64.5859 88.7969,64.5859 Q89.1719,64.5859 89.4063,64.8516 Q89.6406,65.1172 89.6406,65.7266 L89.6406,68.3516 L81.6406,68.3516 Q81.0156,68.3516 80.75,68.1172 Q80.5,67.8828 80.5,67.4922 Q80.5,67.1172 80.7656,66.8828 Q81.0313,66.6484 81.6406,66.6484 L81.9063,66.6484 L81.9063,59.9922 L81.6406,59.9922 Q81.0156,59.9922 80.75,59.7578 Q80.5,59.5234 80.5,59.1328 Q80.5,58.7578 80.75,58.5234 Q81.0156,58.2891 81.6406,58.2891 L89.2656,58.2891 L89.2656,60.8828 Q89.2656,61.4922 89.0313,61.7578 Q88.8125,62.0078 88.4219,62.0078 Q88.0469,62.0078 87.8125,61.7578 Q87.5781,61.4922 87.5781,60.8828 L87.5781,59.9922 L83.6094,59.9922 L83.6094,62.4453 L85.0938,62.4453 Q85.0938,61.7891 85.2188,61.6016 Q85.4844,61.1953 85.9531,61.1953 Q86.3281,61.1953 86.5625,61.4609 Q86.7969,61.7109 86.7969,62.3203 L86.7969,64.2891 Q86.7969,64.8359 86.6719,65.0234 Q86.4063,65.4141 85.9531,65.4141 Q85.4844,65.4141 85.2188,65.0078 Q85.0938,64.8203 85.0938,64.1484 L83.6094,64.1484 Z " fill="#000000"/><text fill="#000000" font-family="sans-serif" font-size="12" font-style="italic" lengthAdjust="spacing" textLength="43" x="108.75" y="59.457">«entity»</text><text fill="#000000" font-family="sans-serif" font-size="14" lengthAdjust="spacing" textLength="50" x="105.25" y="76.627">Entrega</text><line style="stroke:#181818;stroke-width:0.5;" x1="23.5" x2="204.5" y1="84.7031" y2="84.7031"/><text fill="#000000" font-family="sans-serif" font-size="14" lengthAdjust="spacing" textLength="16" x="28.5" y="103.2363">-id</text><text fill="#000000" font-family="sans-serif" font-size="14" lengthAdjust="spacing" textLength="33" x="28.5" y="120.8457">-data</text><text fill="#000000" font-family="sans-serif" font-size="14" lengthAdjust="spacing" textLength="46" x="28.5" y="138.4551">-massa</text><text fill="#000000" font-family="sans-serif" font-size="14" lengthAdjust="spacing" textLength="130" x="28.5" y="156.0645">-id_ArmazemDestino</text><text fill="#000000" font-family="sans-serif" font-size="14" lengthAdjust="spacing" textLength="149" x="28.5" y="173.6738">-tempoCarregarCamiao</text><text fill="#000000" font-family="sans-serif" font-size="14" lengthAdjust="spacing" textLength="171" x="28.5" y="191.2832">-tempoDescarregarCamiao</text><line style="stroke:#181818;stroke-width:0.5;" x1="23.5" x2="204.5" y1="198.3594" y2="198.3594"/></g><!--MD5=[0a8c0962b12022b9d8929b1ac9dc838e]
class Armazem--><g id="elem_Armazem"><rect codeLine="29" fill="#F5F5DC" height="181.9688" id="Armazem" rx="2.5" ry="2.5" style="stroke:#181818;stroke-width:0.5;" width="90" x="69" y="308"/><ellipse cx="84" cy="329.3516" fill="#ADD1B2" rx="11" ry="11" style="stroke:#181818;stroke-width:1.0;"/><path d="M82.8594,330.1484 L82.8594,332.6484 L87.1875,332.6484 L87.1875,331.7266 Q87.1875,331.1172 87.4219,330.8516 Q87.6719,330.5859 88.0469,330.5859 Q88.4219,330.5859 88.6563,330.8516 Q88.8906,331.1172 88.8906,331.7266 L88.8906,334.3516 L80.8906,334.3516 Q80.2656,334.3516 80,334.1172 Q79.75,333.8828 79.75,333.4922 Q79.75,333.1172 80.0156,332.8828 Q80.2813,332.6484 80.8906,332.6484 L81.1563,332.6484 L81.1563,325.9922 L80.8906,325.9922 Q80.2656,325.9922 80,325.7578 Q79.75,325.5234 79.75,325.1328 Q79.75,324.7578 80,324.5234 Q80.2656,324.2891 80.8906,324.2891 L88.5156,324.2891 L88.5156,326.8828 Q88.5156,327.4922 88.2813,327.7578 Q88.0625,328.0078 87.6719,328.0078 Q87.2969,328.0078 87.0625,327.7578 Q86.8281,327.4922 86.8281,326.8828 L86.8281,325.9922 L82.8594,325.9922 L82.8594,328.4453 L84.3438,328.4453 Q84.3438,327.7891 84.4688,327.6016 Q84.7344,327.1953 85.2031,327.1953 Q85.5781,327.1953 85.8125,327.4609 Q86.0469,327.7109 86.0469,328.3203 L86.0469,330.2891 Q86.0469,330.8359 85.9219,331.0234 Q85.6563,331.4141 85.2031,331.4141 Q84.7344,331.4141 84.4688,331.0078 Q84.3438,330.8203 84.3438,330.1484 L82.8594,330.1484 Z " fill="#000000"/><text fill="#000000" font-family="sans-serif" font-size="12" font-style="italic" lengthAdjust="spacing" textLength="43" x="105.5" y="325.457">«entity»</text><text fill="#000000" font-family="sans-serif" font-size="14" lengthAdjust="spacing" textLength="58" x="98" y="342.627">Armazem</text><line style="stroke:#181818;stroke-width:0.5;" x1="70" x2="158" y1="350.7031" y2="350.7031"/><text fill="#000000" font-family="sans-serif" font-size="14" lengthAdjust="spacing" textLength="16" x="75" y="369.2363">-id</text><text fill="#000000" font-family="sans-serif" font-size="14" lengthAdjust="spacing" textLength="78" x="75" y="386.8457">-designacao</text><text fill="#000000" font-family="sans-serif" font-size="14" lengthAdjust="spacing" textLength="65" x="75" y="404.4551">-endereco</text><text fill="#000000" font-family="sans-serif" font-size="14" lengthAdjust="spacing" textLength="51" x="75" y="422.0645">-latitude</text><text fill="#000000" font-family="sans-serif" font-size="14" lengthAdjust="spacing" textLength="63" x="75" y="439.6738">-longitude</text><text fill="#000000" font-family="sans-serif" font-size="14" lengthAdjust="spacing" textLength="51" x="75" y="457.2832">-altitude</text><text fill="#000000" font-family="sans-serif" font-size="14" lengthAdjust="spacing" textLength="58" x="75" y="474.8926">-principal</text><line style="stroke:#181818;stroke-width:0.5;" x1="70" x2="158" y1="481.9688" y2="481.9688"/></g><!--MD5=[e35b52caf6c377d602b1be57f63437fc]
class Viagem--><g id="elem_Viagem"><rect codeLine="68" fill="#F5F5DC" height="76.3125" id="Viagem" rx="2.5" ry="2.5" style="stroke:#181818;stroke-width:0.5;" width="79" x="286.5" y="361"/><ellipse cx="301.5" cy="382.3516" fill="#ADD1B2" rx="11" ry="11" style="stroke:#181818;stroke-width:1.0;"/><path d="M300.3594,383.1484 L300.3594,385.6484 L304.6875,385.6484 L304.6875,384.7266 Q304.6875,384.1172 304.9219,383.8516 Q305.1719,383.5859 305.5469,383.5859 Q305.9219,383.5859 306.1563,383.8516 Q306.3906,384.1172 306.3906,384.7266 L306.3906,387.3516 L298.3906,387.3516 Q297.7656,387.3516 297.5,387.1172 Q297.25,386.8828 297.25,386.4922 Q297.25,386.1172 297.5156,385.8828 Q297.7813,385.6484 298.3906,385.6484 L298.6563,385.6484 L298.6563,378.9922 L298.3906,378.9922 Q297.7656,378.9922 297.5,378.7578 Q297.25,378.5234 297.25,378.1328 Q297.25,377.7578 297.5,377.5234 Q297.7656,377.2891 298.3906,377.2891 L306.0156,377.2891 L306.0156,379.8828 Q306.0156,380.4922 305.7813,380.7578 Q305.5625,381.0078 305.1719,381.0078 Q304.7969,381.0078 304.5625,380.7578 Q304.3281,380.4922 304.3281,379.8828 L304.3281,378.9922 L300.3594,378.9922 L300.3594,381.4453 L301.8438,381.4453 Q301.8438,380.7891 301.9688,380.6016 Q302.2344,380.1953 302.7031,380.1953 Q303.0781,380.1953 303.3125,380.4609 Q303.5469,380.7109 303.5469,381.3203 L303.5469,383.2891 Q303.5469,383.8359 303.4219,384.0234 Q303.1563,384.4141 302.7031,384.4141 Q302.2344,384.4141 301.9688,384.0078 Q301.8438,383.8203 301.8438,383.1484 L300.3594,383.1484 Z " fill="#000000"/><text fill="#000000" font-family="sans-serif" font-size="12" font-style="italic" lengthAdjust="spacing" textLength="43" x="317.5" y="378.457">«entity»</text><text fill="#000000" font-family="sans-serif" font-size="14" lengthAdjust="spacing" textLength="47" x="315.5" y="395.627">Viagem</text><line style="stroke:#181818;stroke-width:0.5;" x1="287.5" x2="364.5" y1="403.7031" y2="403.7031"/><text fill="#000000" font-family="sans-serif" font-size="14" lengthAdjust="spacing" textLength="16" x="292.5" y="422.2363">-id</text><line style="stroke:#181818;stroke-width:0.5;" x1="287.5" x2="364.5" y1="429.3125" y2="429.3125"/></g><!--MD5=[5630997ab3bf74aa600c70beb636ea19]
reverse link Armazem to Caminho--><g id="link_Armazem_Caminho"><path codeLine="72" d="M111.43,495.29 C111.26,504.32 111.11,513.33 111,522 C110.72,544.63 111.52,568.94 112.76,591.86 " fill="none" id="Armazem-backto-Caminho" style="stroke:#222222;stroke-width:1.0;"/><polygon fill="#222222" points="111.53,490.27,107.3508,499.1882,111.43,495.269,115.3492,499.3482,111.53,490.27" style="stroke:#222222;stroke-width:1.0;"/><text fill="#000000" font-family="sans-serif" font-size="13" lengthAdjust="spacing" textLength="71" x="112" y="536.4951">compreende</text><text fill="#000000" font-family="sans-serif" font-size="13" lengthAdjust="spacing" textLength="7" x="104.0729" y="511.3801">2</text><text fill="#000000" font-family="sans-serif" font-size="13" lengthAdjust="spacing" textLength="5" x="106.9377" y="581.1053">*</text></g><!--MD5=[b7888f6450de45d81d8f04c0095858ae]
link Viagem to Camiao--><g id="link_Viagem_Camiao"><path codeLine="74" d="M327.79,437.15 C329.81,479.17 333.17,549 335.85,604.79 " fill="none" id="Viagem-to-Camiao" style="stroke:#222222;stroke-width:1.0;"/><polygon fill="#222222" points="336.09,609.8,339.6736,600.6263,335.861,604.8052,331.682,600.9926,336.09,609.8" style="stroke:#222222;stroke-width:1.0;"/><text fill="#000000" font-family="sans-serif" font-size="13" lengthAdjust="spacing" textLength="46" x="334" y="536.4951">feita por</text><text fill="#000000" font-family="sans-serif" font-size="13" lengthAdjust="spacing" textLength="7" x="320.4854" y="458.8691">1</text><text fill="#000000" font-family="sans-serif" font-size="13" lengthAdjust="spacing" textLength="7" x="328.43" y="599.2613">1</text></g><!--MD5=[0433d287a2cd27832abf4f1e04d67722]
link Viagem to Caminho--><g id="link_Viagem_Caminho"><path codeLine="75" d="M299.83,437.15 C273.21,474.93 230.76,535.19 193.89,587.53 " fill="none" id="Viagem-to-Caminho" style="stroke:#222222;stroke-width:1.0;"/><polygon fill="#222222" points="190.8,591.92,199.2594,586.8763,193.6845,587.836,192.7249,582.2611,190.8,591.92" style="stroke:#222222;stroke-width:1.0;"/><text fill="#000000" font-family="sans-serif" font-size="13" lengthAdjust="spacing" textLength="71" x="237" y="536.4951">compreende</text><text fill="#000000" font-family="sans-serif" font-size="13" lengthAdjust="spacing" textLength="7" x="287.545" y="458.8691">1</text><text fill="#000000" font-family="sans-serif" font-size="13" lengthAdjust="spacing" textLength="5" x="190.9527" y="581.1699">*</text></g><!--MD5=[84f6cb40d9d977e965f5a36028086e6c]
link Entrega to Armazem--><g id="link_Entrega_Armazem"><path codeLine="77" d="M114,206.17 C114,236.46 114,271.12 114,302.57 " fill="none" id="Entrega-to-Armazem" style="stroke:#222222;stroke-width:1.0;"/><polygon fill="#222222" points="114,307.59,118,298.59,114,302.59,110,298.59,114,307.59" style="stroke:#222222;stroke-width:1.0;"/><text fill="#000000" font-family="sans-serif" font-size="13" lengthAdjust="spacing" textLength="71" x="115" y="252.4951">recebida por</text><text fill="#000000" font-family="sans-serif" font-size="13" lengthAdjust="spacing" textLength="5" x="108.7695" y="227.9773">*</text><text fill="#000000" font-family="sans-serif" font-size="13" lengthAdjust="spacing" textLength="7" x="106.7211" y="297.1786">1</text></g><!--MD5=[1f4a35bd1067dcda558334bc245b859e]
@startuml
'https://plantuml.com/class-diagram

skinparam classAttributeIconSize 0
hide empty attributes
skinparam classBackgroundColor beige
skinparam ArrowColor #222222

package "<<aggregate>> Caminho" {
    entity Caminho
}

package "<<aggregate>> Camiao" {
    entity Camiao
}

package "<<aggregate>> Entregas" {
    entity Entrega
}

package "<<aggregate>> Armazem" {
    entity Armazem
}

package "<<aggregate>> Viagem" {
    entity Viagem
}


entity Armazem <<entity>> {
    -id
    -designacao
    -endereco
    -latitude
    -longitude
    -altitude
    -principal
}

entity Entrega <<entity>> {
    -id
    -data
    -massa
    -id_ArmazemDestino
    -tempoCarregarCamiao
    -tempoDescarregarCamiao
}


entity Camiao <<entity>> {
    -id
    -autonomia
    -tara
    -capacidadeCarga
    -cargaMaxima
    -tempoCarregamento
}

entity Caminho <<entity>> {
    -id
    -id_ArmazemPartida
    -id_ArmazemDestino
    -id_Viagem
    -distancia
    -tempo
    -energia
    -tempoExtra
}
entity Viagem <<entity>> {
    -id
}

Armazem "2" <- - "*" Caminho: compreende

Viagem "1"- -> "1" Camiao : feita por
Viagem "1"- -> "*" Caminho : compreende

Entrega "*" - -> "1" Armazem  : recebida por

@enduml

@startuml

skinparam classAttributeIconSize 0
hide empty attributes
skinparam classBackgroundColor beige
skinparam ArrowColor #222222

package "<<aggregate>> Caminho" {
    entity Caminho
}

package "<<aggregate>> Camiao" {
    entity Camiao
}

package "<<aggregate>> Entregas" {
    entity Entrega
}

package "<<aggregate>> Armazem" {
    entity Armazem
}

package "<<aggregate>> Viagem" {
    entity Viagem
}


entity Armazem <<entity>> {
    -id
    -designacao
    -endereco
    -latitude
    -longitude
    -altitude
    -principal
}

entity Entrega <<entity>> {
    -id
    -data
    -massa
    -id_ArmazemDestino
    -tempoCarregarCamiao
    -tempoDescarregarCamiao
}


entity Camiao <<entity>> {
    -id
    -autonomia
    -tara
    -capacidadeCarga
    -cargaMaxima
    -tempoCarregamento
}

entity Caminho <<entity>> {
    -id
    -id_ArmazemPartida
    -id_ArmazemDestino
    -id_Viagem
    -distancia
    -tempo
    -energia
    -tempoExtra
}
entity Viagem <<entity>> {
    -id
}

Armazem "2" <- - "*" Caminho: compreende

Viagem "1"- -> "1" Camiao : feita por
Viagem "1"- -> "*" Caminho : compreende

Entrega "*" - -> "1" Armazem  : recebida por

@enduml

PlantUML version 1.2022.7(Mon Aug 22 18:01:30 BST 2022)
(GPL source distribution)
Java Runtime: OpenJDK Runtime Environment
JVM: OpenJDK 64-Bit Server VM
Default Encoding: Cp1252
Language: pt
Country: PT
--></g></svg>