<?xml version="1.0" encoding="UTF-8" standalone="no"?><svg xmlns="http://www.w3.org/2000/svg" xmlns:xlink="http://www.w3.org/1999/xlink" contentStyleType="text/css" height="158px" preserveAspectRatio="none" style="width:669px;height:158px;background:#FFFFFF;" version="1.1" viewBox="0 0 669 158" width="669px" zoomAndPan="magnify"><defs/><g><!--MD5=[0a8c0962b12022b9d8929b1ac9dc838e]
class Armazem--><g id="elem_Armazem"><rect codeLine="7" fill="#F1F1F1" height="48" id="Armazem" rx="2.5" ry="2.5" style="stroke:#181818;stroke-width:0.5;" width="90" x="290" y="7"/><ellipse cx="305" cy="23" fill="#ADD1B2" rx="11" ry="11" style="stroke:#181818;stroke-width:1.0;"/><path d="M303.8594,23.7969 L303.8594,26.2969 L308.1875,26.2969 L308.1875,25.375 Q308.1875,24.7656 308.4219,24.5 Q308.6719,24.2344 309.0469,24.2344 Q309.4219,24.2344 309.6563,24.5 Q309.8906,24.7656 309.8906,25.375 L309.8906,28 L301.8906,28 Q301.2656,28 301,27.7656 Q300.75,27.5313 300.75,27.1406 Q300.75,26.7656 301.0156,26.5313 Q301.2813,26.2969 301.8906,26.2969 L302.1563,26.2969 L302.1563,19.6406 L301.8906,19.6406 Q301.2656,19.6406 301,19.4063 Q300.75,19.1719 300.75,18.7813 Q300.75,18.4063 301,18.1719 Q301.2656,17.9375 301.8906,17.9375 L309.5156,17.9375 L309.5156,20.5313 Q309.5156,21.1406 309.2813,21.4063 Q309.0625,21.6563 308.6719,21.6563 Q308.2969,21.6563 308.0625,21.4063 Q307.8281,21.1406 307.8281,20.5313 L307.8281,19.6406 L303.8594,19.6406 L303.8594,22.0938 L305.3438,22.0938 Q305.3438,21.4375 305.4688,21.25 Q305.7344,20.8438 306.2031,20.8438 Q306.5781,20.8438 306.8125,21.1094 Q307.0469,21.3594 307.0469,21.9688 L307.0469,23.9375 Q307.0469,24.4844 306.9219,24.6719 Q306.6563,25.0625 306.2031,25.0625 Q305.7344,25.0625 305.4688,24.6563 Q305.3438,24.4688 305.3438,23.7969 L303.8594,23.7969 Z " fill="#000000"/><text fill="#000000" font-family="sans-serif" font-size="14" lengthAdjust="spacing" textLength="58" x="319" y="28.7285">Armazem</text><line style="stroke:#181818;stroke-width:0.5;" x1="291" x2="379" y1="39" y2="39"/><line style="stroke:#181818;stroke-width:0.5;" x1="291" x2="379" y1="47" y2="47"/></g><g id="elem_id"><rect fill="#F1F1F1" height="37.6094" style="stroke:#181818;stroke-width:0.5;" width="25" x="7.5" y="115"/><text fill="#000000" font-family="sans-serif" font-size="14" lengthAdjust="spacing" textLength="11" x="14.5" y="131.5332">id</text><line style="stroke:#181818;stroke-width:0.5;" x1="8.5" x2="31.5" y1="136.6094" y2="136.6094"/></g><g id="elem_designacao"><rect fill="#F1F1F1" height="37.6094" style="stroke:#181818;stroke-width:0.5;" width="87" x="67.5" y="115"/><text fill="#000000" font-family="sans-serif" font-size="14" lengthAdjust="spacing" textLength="73" x="74.5" y="131.5332">designacao</text><line style="stroke:#181818;stroke-width:0.5;" x1="68.5" x2="153.5" y1="136.6094" y2="136.6094"/></g><g id="elem_endereco"><rect fill="#F1F1F1" height="37.6094" style="stroke:#181818;stroke-width:0.5;" width="74" x="190" y="115"/><text fill="#000000" font-family="sans-serif" font-size="14" lengthAdjust="spacing" textLength="60" x="197" y="131.5332">endereco</text><line style="stroke:#181818;stroke-width:0.5;" x1="191" x2="263" y1="136.6094" y2="136.6094"/></g><g id="elem_longitude"><rect fill="#F1F1F1" height="37.6094" style="stroke:#181818;stroke-width:0.5;" width="72" x="299" y="115"/><text fill="#000000" font-family="sans-serif" font-size="14" lengthAdjust="spacing" textLength="58" x="306" y="131.5332">longitude</text><line style="stroke:#181818;stroke-width:0.5;" x1="300" x2="370" y1="136.6094" y2="136.6094"/></g><g id="elem_latitude"><rect fill="#F1F1F1" height="37.6094" style="stroke:#181818;stroke-width:0.5;" width="60" x="406" y="115"/><text fill="#000000" font-family="sans-serif" font-size="14" lengthAdjust="spacing" textLength="46" x="413" y="131.5332">latitude</text><line style="stroke:#181818;stroke-width:0.5;" x1="407" x2="465" y1="136.6094" y2="136.6094"/></g><g id="elem_altitude"><rect fill="#F1F1F1" height="37.6094" style="stroke:#181818;stroke-width:0.5;" width="60" x="501" y="115"/><text fill="#000000" font-family="sans-serif" font-size="14" lengthAdjust="spacing" textLength="46" x="508" y="131.5332">altitude</text><line style="stroke:#181818;stroke-width:0.5;" x1="502" x2="560" y1="136.6094" y2="136.6094"/></g><g id="elem_principal"><rect fill="#F1F1F1" height="37.6094" style="stroke:#181818;stroke-width:0.5;" width="67" x="596.5" y="115"/><text fill="#000000" font-family="sans-serif" font-size="14" lengthAdjust="spacing" textLength="53" x="603.5" y="131.5332">principal</text><line style="stroke:#181818;stroke-width:0.5;" x1="597.5" x2="662.5" y1="136.6094" y2="136.6094"/></g><!--MD5=[8751b4da3dbd3672de9916fc18bd8bda]
link Armazem to id--><g id="link_Armazem_id"><path codeLine="17" d="M289.87,23 C202.77,23 20,23 20,23 C20,23 20,109.92 20,109.92 " fill="none" id="Armazem-to-id" style="stroke:#181818;stroke-width:1.0;"/><polygon fill="#181818" points="20,114.92,24,105.92,20,109.92,16,105.92,20,114.92" style="stroke:#181818;stroke-width:1.0;"/></g><!--MD5=[ce5a1c02943c7b23b1315c373a90728a]
link Armazem to designacao--><g id="link_Armazem_designacao"><path codeLine="18" d="M289.94,39 C224.53,39 111,39 111,39 C111,39 111,109.78 111,109.78 " fill="none" id="Armazem-to-designacao" style="stroke:#181818;stroke-width:1.0;"/><polygon fill="#181818" points="111,114.78,115,105.78,111,109.78,107,105.78,111,114.78" style="stroke:#181818;stroke-width:1.0;"/></g><!--MD5=[04e158a81d55cc6328b9a2858003599c]
link Armazem to endereco--><g id="link_Armazem_endereco"><path codeLine="19" d="M294.5,55.15 C294.5,85.59 294.5,134 294.5,134 C294.5,134 269.3,134 269.3,134 " fill="none" id="Armazem-to-endereco" style="stroke:#181818;stroke-width:1.0;"/><polygon fill="#181818" points="264.3,134,273.3,138,269.3,134,273.3,130,264.3,134" style="stroke:#181818;stroke-width:1.0;"/></g><!--MD5=[ef3e566627b6de9fd9fce21fea9d0f9e]
link Armazem to longitude--><g id="link_Armazem_longitude"><path codeLine="20" d="M335,55.15 C335,55.15 335,109.81 335,109.81 " fill="none" id="Armazem-to-longitude" style="stroke:#181818;stroke-width:1.0;"/><polygon fill="#181818" points="335,114.81,339,105.81,335,109.81,331,105.81,335,114.81" style="stroke:#181818;stroke-width:1.0;"/></g><!--MD5=[26e5ff80b6556ed732d14679ae79e19c]
link Armazem to latitude--><g id="link_Armazem_latitude"><path codeLine="21" d="M375.5,55.15 C375.5,85.59 375.5,134 375.5,134 C375.5,134 400.75,134 400.75,134 " fill="none" id="Armazem-to-latitude" style="stroke:#181818;stroke-width:1.0;"/><polygon fill="#181818" points="405.75,134,396.75,130,400.75,134,396.75,138,405.75,134" style="stroke:#181818;stroke-width:1.0;"/></g><!--MD5=[15a08ce4258d9ceac9d86fb1de6421e1]
link Armazem to altitude--><g id="link_Armazem_altitude"><path codeLine="22" d="M380.46,39 C438.36,39 531,39 531,39 C531,39 531,109.78 531,109.78 " fill="none" id="Armazem-to-altitude" style="stroke:#181818;stroke-width:1.0;"/><polygon fill="#181818" points="531,114.78,535,105.78,531,109.78,527,105.78,531,114.78" style="stroke:#181818;stroke-width:1.0;"/></g><!--MD5=[911c55f2feb64e436adc251f0dd511ae]
link Armazem to principal--><g id="link_Armazem_principal"><path codeLine="23" d="M380.13,23 C462.76,23 630,23 630,23 C630,23 630,109.92 630,109.92 " fill="none" id="Armazem-to-principal" style="stroke:#181818;stroke-width:1.0;"/><polygon fill="#181818" points="630,114.92,634,105.92,630,109.92,626,105.92,630,114.92" style="stroke:#181818;stroke-width:1.0;"/></g><!--MD5=[cf4331b7991945f7d541c93f9251c345]
@startuml DM_ArmazemAggregate
' hide the spot


' avoid problems with angled crows feet
skinparam linetype ortho

entity Armazem
object id
object designacao
object endereco
object longitude
object latitude
object altitude
object principal


Armazem - -> id
Armazem - -> designacao
Armazem - -> endereco
Armazem - -> longitude
Armazem - -> latitude
Armazem - -> altitude
Armazem - -> principal

@enduml

@startuml DM_ArmazemAggregate


skinparam linetype ortho

entity Armazem
object id
object designacao
object endereco
object longitude
object latitude
object altitude
object principal


Armazem - -> id
Armazem - -> designacao
Armazem - -> endereco
Armazem - -> longitude
Armazem - -> latitude
Armazem - -> altitude
Armazem - -> principal

@enduml

PlantUML version 1.2022.7(Mon Aug 22 18:01:30 BST 2022)
(GPL source distribution)
Java Runtime: OpenJDK Runtime Environment
JVM: OpenJDK 64-Bit Server VM
Default Encoding: Cp1252
Language: pt
Country: PT
--></g></svg>