<?xml version="1.0" encoding="UTF-8" standalone="no"?><svg xmlns="http://www.w3.org/2000/svg" xmlns:xlink="http://www.w3.org/1999/xlink" contentStyleType="text/css" height="158px" preserveAspectRatio="none" style="width:627px;height:158px;background:#FFFFFF;" version="1.1" viewBox="0 0 627 158" width="627px" zoomAndPan="magnify"><defs/><g><!--MD5=[5dbd51d0631911ae9de62b4db946babe]
class Camiao--><g id="elem_Camiao"><rect codeLine="7" fill="#F1F1F1" height="48" id="Camiao" rx="2.5" ry="2.5" style="stroke:#181818;stroke-width:0.5;" width="80" x="206" y="7"/><ellipse cx="221" cy="23" fill="#ADD1B2" rx="11" ry="11" style="stroke:#181818;stroke-width:1.0;"/><path d="M219.8594,23.7969 L219.8594,26.2969 L224.1875,26.2969 L224.1875,25.375 Q224.1875,24.7656 224.4297,24.5 Q224.6719,24.2344 225.0469,24.2344 Q225.4219,24.2344 225.6563,24.5 Q225.8906,24.7656 225.8906,25.375 L225.8906,28 L217.8906,28 Q217.2656,28 217.0078,27.7656 Q216.75,27.5313 216.75,27.1406 Q216.75,26.7656 217.0156,26.5313 Q217.2813,26.2969 217.8906,26.2969 L218.1563,26.2969 L218.1563,19.6406 L217.8906,19.6406 Q217.2656,19.6406 217.0078,19.4063 Q216.75,19.1719 216.75,18.7813 Q216.75,18.4063 217.0078,18.1719 Q217.2656,17.9375 217.8906,17.9375 L225.5156,17.9375 L225.5156,20.5313 Q225.5156,21.1406 225.2891,21.3984 Q225.0625,21.6563 224.6719,21.6563 Q224.2969,21.6563 224.0625,21.3984 Q223.8281,21.1406 223.8281,20.5313 L223.8281,19.6406 L219.8594,19.6406 L219.8594,22.0938 L221.3438,22.0938 Q221.3438,21.4375 221.4688,21.25 Q221.7344,20.8438 222.2031,20.8438 Q222.5781,20.8438 222.8125,21.1016 Q223.0469,21.3594 223.0469,21.9688 L223.0469,23.9375 Q223.0469,24.4844 222.9219,24.6719 Q222.6563,25.0625 222.2031,25.0625 Q221.7344,25.0625 221.4688,24.6563 Q221.3438,24.4688 221.3438,23.7969 L219.8594,23.7969 Z " fill="#000000"/><text fill="#000000" font-family="sans-serif" font-size="14" lengthAdjust="spacing" textLength="48" x="235" y="28.7285">Camiao</text><line style="stroke:#181818;stroke-width:0.5;" x1="207" x2="285" y1="39" y2="39"/><line style="stroke:#181818;stroke-width:0.5;" x1="207" x2="285" y1="47" y2="47"/></g><g id="elem_id"><rect fill="#F1F1F1" height="37.6094" style="stroke:#181818;stroke-width:0.5;" width="25" x="7.5" y="115"/><text fill="#000000" font-family="sans-serif" font-size="14" lengthAdjust="spacing" textLength="11" x="14.5" y="131.5332">id</text><line style="stroke:#181818;stroke-width:0.5;" x1="8.5" x2="31.5" y1="136.6094" y2="136.6094"/></g><g id="elem_autonomia"><rect fill="#F1F1F1" height="37.6094" style="stroke:#181818;stroke-width:0.5;" width="80" x="68" y="115"/><text fill="#000000" font-family="sans-serif" font-size="14" lengthAdjust="spacing" textLength="66" x="75" y="131.5332">autonomia</text><line style="stroke:#181818;stroke-width:0.5;" x1="69" x2="147" y1="136.6094" y2="136.6094"/></g><g id="elem_capacidadeCarga"><rect fill="#F1F1F1" height="37.6094" style="stroke:#181818;stroke-width:0.5;" width="126" x="183" y="115"/><text fill="#000000" font-family="sans-serif" font-size="14" lengthAdjust="spacing" textLength="112" x="190" y="131.5332">capacidadeCarga</text><line style="stroke:#181818;stroke-width:0.5;" x1="184" x2="308" y1="136.6094" y2="136.6094"/></g><g id="elem_cargaMaxima"><rect fill="#F1F1F1" height="37.6094" style="stroke:#181818;stroke-width:0.5;" width="97" x="344.5" y="115"/><text fill="#000000" font-family="sans-serif" font-size="14" lengthAdjust="spacing" textLength="83" x="351.5" y="131.5332">cargaMaxima</text><line style="stroke:#181818;stroke-width:0.5;" x1="345.5" x2="440.5" y1="136.6094" y2="136.6094"/></g><g id="elem_tempoCarregamento"><rect fill="#F1F1F1" height="37.6094" style="stroke:#181818;stroke-width:0.5;" width="144" x="477" y="115"/><text fill="#000000" font-family="sans-serif" font-size="14" lengthAdjust="spacing" textLength="130" x="484" y="131.5332">tempoCarregamento</text><line style="stroke:#181818;stroke-width:0.5;" x1="478" x2="620" y1="136.6094" y2="136.6094"/></g><!--MD5=[9362c24e50597c0f1379b9c0d1311f1d]
link Camiao to id--><g id="link_Camiao_id"><path codeLine="14" d="M205.86,23 C140.91,23 20,23 20,23 C20,23 20,109.92 20,109.92 " fill="none" id="Camiao-to-id" style="stroke:#181818;stroke-width:1.0;"/><polygon fill="#181818" points="20,114.92,24,105.92,20,109.92,16,105.92,20,114.92" style="stroke:#181818;stroke-width:1.0;"/></g><!--MD5=[5ee4ed4a1fd39453f2d79ae61d673efb]
link Camiao to autonomia--><g id="link_Camiao_autonomia"><path codeLine="15" d="M205.71,39 C164.98,39 108,39 108,39 C108,39 108,109.78 108,109.78 " fill="none" id="Camiao-to-autonomia" style="stroke:#181818;stroke-width:1.0;"/><polygon fill="#181818" points="108,114.78,112,105.78,108,109.78,104,105.78,108,114.78" style="stroke:#181818;stroke-width:1.0;"/></g><!--MD5=[fe19d5cb233785514cb2c1c9a0413a6e]
link Camiao to capacidadeCarga--><g id="link_Camiao_capacidadeCarga"><path codeLine="16" d="M246,55.15 C246,55.15 246,109.81 246,109.81 " fill="none" id="Camiao-to-capacidadeCarga" style="stroke:#181818;stroke-width:1.0;"/><polygon fill="#181818" points="246,114.81,250,105.81,246,109.81,242,105.81,246,114.81" style="stroke:#181818;stroke-width:1.0;"/></g><!--MD5=[5bbd047e4b8452d15ba9015d9ddc8821]
link Camiao to cargaMaxima--><g id="link_Camiao_cargaMaxima"><path codeLine="17" d="M286.17,39 C329.69,39 393,39 393,39 C393,39 393,109.78 393,109.78 " fill="none" id="Camiao-to-cargaMaxima" style="stroke:#181818;stroke-width:1.0;"/><polygon fill="#181818" points="393,114.78,397,105.78,393,109.78,389,105.78,393,114.78" style="stroke:#181818;stroke-width:1.0;"/></g><!--MD5=[c30c5bb9a8893c728bafc5b7c5bd7b7f]
link Camiao to tempoCarregamento--><g id="link_Camiao_tempoCarregamento"><path codeLine="18" d="M286.24,23 C368.66,23 549,23 549,23 C549,23 549,109.92 549,109.92 " fill="none" id="Camiao-to-tempoCarregamento" style="stroke:#181818;stroke-width:1.0;"/><polygon fill="#181818" points="549,114.92,553,105.92,549,109.92,545,105.92,549,114.92" style="stroke:#181818;stroke-width:1.0;"/></g><!--MD5=[41001479ada04f36420253b5efafeb16]
@startuml Camiao Aggregate
' hide the spot


' avoid problems with angled crows feet
skinparam linetype ortho

entity Camiao
object id
object autonomia
object capacidadeCarga
object cargaMaxima
object tempoCarregamento

Camiao - -> id
Camiao - -> autonomia
Camiao - -> capacidadeCarga
Camiao - -> cargaMaxima
Camiao - -> tempoCarregamento

@enduml

@startuml Camiao Aggregate


skinparam linetype ortho

entity Camiao
object id
object autonomia
object capacidadeCarga
object cargaMaxima
object tempoCarregamento

Camiao - -> id
Camiao - -> autonomia
Camiao - -> capacidadeCarga
Camiao - -> cargaMaxima
Camiao - -> tempoCarregamento

@enduml

PlantUML version 1.2022.7(Mon Aug 22 18:01:30 BST 2022)
(GPL source distribution)
Java Runtime: Java(TM) SE Runtime Environment
JVM: Java HotSpot(TM) 64-Bit Server VM
Default Encoding: Cp1252
Language: pt
Country: PT
--></g></svg>