<?xml version="1.0" encoding="UTF-8" standalone="no"?><svg xmlns="http://www.w3.org/2000/svg" xmlns:xlink="http://www.w3.org/1999/xlink" contentStyleType="text/css" height="158px" preserveAspectRatio="none" style="width:93px;height:158px;background:#FFFFFF;" version="1.1" viewBox="0 0 93 158" width="93px" zoomAndPan="magnify"><defs/><g><!--MD5=[e35b52caf6c377d602b1be57f63437fc]
class Viagem--><g id="elem_Viagem"><rect codeLine="7" fill="#F1F1F1" height="48" id="Viagem" rx="2.5" ry="2.5" style="stroke:#181818;stroke-width:0.5;" width="79" x="7" y="7"/><ellipse cx="22" cy="23" fill="#ADD1B2" rx="11" ry="11" style="stroke:#181818;stroke-width:1.0;"/><path d="M20.8594,23.7969 L20.8594,26.2969 L25.1875,26.2969 L25.1875,25.375 Q25.1875,24.7656 25.4219,24.5 Q25.6719,24.2344 26.0469,24.2344 Q26.4219,24.2344 26.6563,24.5 Q26.8906,24.7656 26.8906,25.375 L26.8906,28 L18.8906,28 Q18.2656,28 18,27.7656 Q17.75,27.5313 17.75,27.1406 Q17.75,26.7656 18.0156,26.5313 Q18.2813,26.2969 18.8906,26.2969 L19.1563,26.2969 L19.1563,19.6406 L18.8906,19.6406 Q18.2656,19.6406 18,19.4063 Q17.75,19.1719 17.75,18.7813 Q17.75,18.4063 18,18.1719 Q18.2656,17.9375 18.8906,17.9375 L26.5156,17.9375 L26.5156,20.5313 Q26.5156,21.1406 26.2813,21.4063 Q26.0625,21.6563 25.6719,21.6563 Q25.2969,21.6563 25.0625,21.4063 Q24.8281,21.1406 24.8281,20.5313 L24.8281,19.6406 L20.8594,19.6406 L20.8594,22.0938 L22.3438,22.0938 Q22.3438,21.4375 22.4688,21.25 Q22.7344,20.8438 23.2031,20.8438 Q23.5781,20.8438 23.8125,21.1094 Q24.0469,21.3594 24.0469,21.9688 L24.0469,23.9375 Q24.0469,24.4844 23.9219,24.6719 Q23.6563,25.0625 23.2031,25.0625 Q22.7344,25.0625 22.4688,24.6563 Q22.3438,24.4688 22.3438,23.7969 L20.8594,23.7969 Z " fill="#000000"/><text fill="#000000" font-family="sans-serif" font-size="14" lengthAdjust="spacing" textLength="47" x="36" y="28.7285">Viagem</text><line style="stroke:#181818;stroke-width:0.5;" x1="8" x2="85" y1="39" y2="39"/><line style="stroke:#181818;stroke-width:0.5;" x1="8" x2="85" y1="47" y2="47"/></g><g id="elem_id"><rect fill="#F1F1F1" height="37.6094" style="stroke:#181818;stroke-width:0.5;" width="25" x="34" y="115"/><text fill="#000000" font-family="sans-serif" font-size="14" lengthAdjust="spacing" textLength="11" x="41" y="131.5332">id</text><line style="stroke:#181818;stroke-width:0.5;" x1="35" x2="58" y1="136.6094" y2="136.6094"/></g><!--MD5=[239dcf271d28f5dfa48a0f326590119d]
link Viagem to id--><g id="link_Viagem_id"><path codeLine="11" d="M46.5,55.15 C46.5,55.15 46.5,109.81 46.5,109.81 " fill="none" id="Viagem-to-id" style="stroke:#181818;stroke-width:1.0;"/><polygon fill="#181818" points="46.5,114.81,50.5,105.81,46.5,109.81,42.5,105.81,46.5,114.81" style="stroke:#181818;stroke-width:1.0;"/></g><!--MD5=[c8e1052e2f6ca7aa88fb77edf7cc07cc]
@startuml DM_ViagemAggregate
' hide the spot


' avoid problems with angled crows feet
skinparam linetype ortho

entity Viagem
object id


Viagem - -> id

@enduml

@startuml DM_ViagemAggregate


skinparam linetype ortho

entity Viagem
object id


Viagem - -> id

@enduml

PlantUML version 1.2022.7(Mon Aug 22 18:01:30 WEST 2022)
(GPL source distribution)
Java Runtime: Java(TM) SE Runtime Environment
JVM: Java HotSpot(TM) 64-Bit Server VM
Default Encoding: Cp1252
Language: pt
Country: PT
--></g></svg>