<?xml version="1.0" encoding="UTF-8" standalone="no"?><svg xmlns="http://www.w3.org/2000/svg" xmlns:xlink="http://www.w3.org/1999/xlink" contentStyleType="text/css" height="350px" preserveAspectRatio="none" style="width:290px;height:350px;background:#FFFFFF;" version="1.1" viewBox="0 0 290 350" width="290px" zoomAndPan="magnify"><defs/><g><!--MD5=[e85bd8b7c3eef9e05b8e65fb9224b5e9]
cluster EletricGo--><g id="cluster_EletricGo"><path d="M8.5,6 L74.5,6 A3.75,3.75 0 0 1 77,8.5 L84,29.6094 L280.5,29.6094 A2.5,2.5 0 0 1 283,32.1094 L283,340.5 A2.5,2.5 0 0 1 280.5,343 L8.5,343 A2.5,2.5 0 0 1 6,340.5 L6,8.5 A2.5,2.5 0 0 1 8.5,6 " style="stroke:#000000;stroke-width:1.5;fill:none;"/><line style="stroke:#000000;stroke-width:1.5;fill:none;" x1="6" x2="84" y1="29.6094" y2="29.6094"/><text fill="#000000" font-family="sans-serif" font-size="14" font-weight="bold" lengthAdjust="spacing" textLength="65" x="10" y="22.5332">EletricGo</text></g><path d="M86,42 L114,42 A3.75,3.75 0 0 1 116.5,44.5 L123.5,65.6094 L128,65.6094 A2.5,2.5 0 0 1 130.5,68.1094 L130.5,94.7188 A2.5,2.5 0 0 1 128,97.2188 L86,97.2188 A2.5,2.5 0 0 1 83.5,94.7188 L83.5,44.5 A2.5,2.5 0 0 1 86,42 " fill="#F1F1F1" style="stroke:#181818;stroke-width:0.5;"/><line style="stroke:#181818;stroke-width:0.5;" x1="83.5" x2="123.5" y1="65.6094" y2="65.6094"/><text fill="#000000" font-family="sans-serif" font-size="14" lengthAdjust="spacing" textLength="27" x="87.5" y="58.5332">SPA</text><path d="M25,272 L93,272 A3.75,3.75 0 0 1 95.5,274.5 L102.5,295.6094 L107,295.6094 A2.5,2.5 0 0 1 109.5,298.1094 L109.5,324.7188 A2.5,2.5 0 0 1 107,327.2188 L25,327.2188 A2.5,2.5 0 0 1 22.5,324.7188 L22.5,274.5 A2.5,2.5 0 0 1 25,272 " fill="#F1F1F1" style="stroke:#181818;stroke-width:0.5;"/><line style="stroke:#181818;stroke-width:0.5;" x1="22.5" x2="102.5" y1="295.6094" y2="295.6094"/><text fill="#000000" font-family="sans-serif" font-size="14" lengthAdjust="spacing" textLength="67" x="26.5" y="288.5332">ARMAZEM</text><path d="M105,157 L179,157 A3.75,3.75 0 0 1 181.5,159.5 L188.5,180.6094 L193,180.6094 A2.5,2.5 0 0 1 195.5,183.1094 L195.5,209.7188 A2.5,2.5 0 0 1 193,212.2188 L105,212.2188 A2.5,2.5 0 0 1 102.5,209.7188 L102.5,159.5 A2.5,2.5 0 0 1 105,157 " fill="#F1F1F1" style="stroke:#181818;stroke-width:0.5;"/><line style="stroke:#181818;stroke-width:0.5;" x1="102.5" x2="188.5" y1="180.6094" y2="180.6094"/><text fill="#000000" font-family="sans-serif" font-size="14" lengthAdjust="spacing" textLength="73" x="106.5" y="173.5332">LOGISTICA</text><path d="M147.5,272 L250.5,272 A3.75,3.75 0 0 1 253,274.5 L260,295.6094 L264.5,295.6094 A2.5,2.5 0 0 1 267,298.1094 L267,324.7188 A2.5,2.5 0 0 1 264.5,327.2188 L147.5,327.2188 A2.5,2.5 0 0 1 145,324.7188 L145,274.5 A2.5,2.5 0 0 1 147.5,272 " fill="#F1F1F1" style="stroke:#181818;stroke-width:0.5;"/><line style="stroke:#181818;stroke-width:0.5;" x1="145" x2="260" y1="295.6094" y2="295.6094"/><text fill="#000000" font-family="sans-serif" font-size="14" lengthAdjust="spacing" textLength="102" x="149" y="288.5332">PLANEAMENTO</text><!--MD5=[a06cd5159d8ee0a32708e1f6a8aa59d9]
link spa to armazem--><g id="link_spa_armazem"><path d="M99.36,97.2 C94.7,114.21 88.92,136.77 85,157 C77.77,194.34 72.38,237.76 69.22,266.55 " fill="none" id="spa-to-armazem" style="stroke:#181818;stroke-width:1.0;"/><polygon fill="#181818" points="68.66,271.75,73.6133,263.2374,69.2028,266.7795,65.6606,262.369,68.66,271.75" style="stroke:#181818;stroke-width:1.0;"/></g><!--MD5=[78080dda50258effdf878c4f94d94870]
link spa to logistica--><g id="link_spa_logistica"><path d="M116.95,97.28 C123.07,113.74 130.94,134.92 137.35,152.16 " fill="none" id="spa-to-logistica" style="stroke:#181818;stroke-width:1.0;"/><polygon fill="#181818" points="139.12,156.91,139.7315,147.0801,137.3769,152.2237,132.2334,149.8691,139.12,156.91" style="stroke:#181818;stroke-width:1.0;"/></g><!--MD5=[af0bca1080e6c9b8724580f561420292]
link logistica to planeamento--><g id="link_logistica_planeamento"><path d="M162.51,212.28 C170.81,228.74 181.49,249.92 190.19,267.16 " fill="none" id="logistica-to-planeamento" style="stroke:#181818;stroke-width:1.0;"/><polygon fill="#181818" points="192.59,271.91,192.1051,262.0731,190.3368,267.4465,184.9635,265.6781,192.59,271.91" style="stroke:#181818;stroke-width:1.0;"/></g><!--MD5=[f805087b7df35dab3d893954831a4e61]
link logistica to armazem--><g id="link_logistica_armazem"><path d="M129.33,212.28 C117.13,228.89 101.42,250.28 88.7,267.6 " fill="none" id="logistica-to-armazem" style="stroke:#181818;stroke-width:1.0;"/><polygon fill="#181818" points="85.53,271.91,94.0801,267.0218,88.4887,267.8793,87.6311,262.2879,85.53,271.91" style="stroke:#181818;stroke-width:1.0;"/></g><!--MD5=[d08472cc12bda869df8477a4f0ed6e5e]
@startuml

package "EletricGo" {



  package "SPA" as spa{}

  package "ARMAZEM" as armazem{}

  package "LOGISTICA" as logistica{}

  package "PLANEAMENTO" as planeamento{}



}

spa - -> armazem
spa - -> logistica
logistica - -> planeamento
logistica - -> armazem

@enduml

PlantUML version 1.2022.4(Sat Apr 09 14:29:17 BST 2022)
(GPL source distribution)
Java Runtime: OpenJDK Runtime Environment
JVM: OpenJDK 64-Bit Server VM
Default Encoding: Cp1252
Language: pt
Country: PT
--></g></svg>