<?xml version="1.0" encoding="UTF-8" standalone="no"?><svg xmlns="http://www.w3.org/2000/svg" xmlns:xlink="http://www.w3.org/1999/xlink" contentStyleType="text/css" height="451px" preserveAspectRatio="none" style="width:1010px;height:451px;background:#FFFFFF;" version="1.1" viewBox="0 0 1010 451" width="1010px" zoomAndPan="magnify"><defs/><g><rect fill="#FFFFFF" height="349.5703" style="stroke:#181818;stroke-width:1.0;" width="10" x="250" y="47.6094"/><rect fill="#FFFFFF" height="291.5156" style="stroke:#181818;stroke-width:1.0;" width="10" x="415" y="105.6641"/><rect fill="#FFFFFF" height="195.1094" style="stroke:#181818;stroke-width:1.0;" width="10" x="550" y="171.7188"/><rect fill="#FFFFFF" height="134.4063" style="stroke:#181818;stroke-width:1.0;" width="10" x="685" y="202.0703"/><rect fill="#FFFFFF" height="66.7031" style="stroke:#181818;stroke-width:1.0;" width="10" x="931" y="232.4219"/><line style="stroke:#181818;stroke-width:0.5;stroke-dasharray:5.0,5.0;" x1="255" x2="255" y1="37.6094" y2="415.1797"/><line style="stroke:#181818;stroke-width:0.5;stroke-dasharray:5.0,5.0;" x1="420" x2="420" y1="37.6094" y2="415.1797"/><line style="stroke:#181818;stroke-width:0.5;stroke-dasharray:5.0,5.0;" x1="555" x2="555" y1="37.6094" y2="415.1797"/><line style="stroke:#181818;stroke-width:0.5;stroke-dasharray:5.0,5.0;" x1="690" x2="690" y1="37.6094" y2="415.1797"/><line style="stroke:#181818;stroke-width:0.5;stroke-dasharray:5.0,5.0;" x1="936" x2="936" y1="37.6094" y2="415.1797"/><rect fill="#E2E2F0" height="31.6094" rx="2.5" ry="2.5" style="stroke:#181818;stroke-width:0.5;" width="74" x="218" y="5"/><text fill="#000000" font-family="sans-serif" font-size="14" lengthAdjust="spacing" textLength="60" x="225" y="26.5332">sPA: SPA</text><rect fill="#E2E2F0" height="31.6094" rx="2.5" ry="2.5" style="stroke:#181818;stroke-width:0.5;" width="74" x="218" y="414.1797"/><text fill="#000000" font-family="sans-serif" font-size="14" lengthAdjust="spacing" textLength="60" x="225" y="435.7129">sPA: SPA</text><rect fill="#E2E2F0" height="31.6094" rx="2.5" ry="2.5" style="stroke:#181818;stroke-width:0.5;" width="82" x="379" y="5"/><text fill="#000000" font-family="sans-serif" font-size="14" lengthAdjust="spacing" textLength="68" x="386" y="26.5332">MDA: MDA</text><rect fill="#E2E2F0" height="31.6094" rx="2.5" ry="2.5" style="stroke:#181818;stroke-width:0.5;" width="82" x="379" y="414.1797"/><text fill="#000000" font-family="sans-serif" font-size="14" lengthAdjust="spacing" textLength="68" x="386" y="435.7129">MDA: MDA</text><rect fill="#E2E2F0" height="31.6094" rx="2.5" ry="2.5" style="stroke:#181818;stroke-width:0.5;" width="138" x="486" y="5"/><text fill="#000000" font-family="sans-serif" font-size="14" lengthAdjust="spacing" textLength="124" x="493" y="26.5332">DeliveriesController</text><rect fill="#E2E2F0" height="31.6094" rx="2.5" ry="2.5" style="stroke:#181818;stroke-width:0.5;" width="138" x="486" y="414.1797"/><text fill="#000000" font-family="sans-serif" font-size="14" lengthAdjust="spacing" textLength="124" x="493" y="435.7129">DeliveriesController</text><rect fill="#E2E2F0" height="31.6094" rx="2.5" ry="2.5" style="stroke:#181818;stroke-width:0.5;" width="112" x="634" y="5"/><text fill="#000000" font-family="sans-serif" font-size="14" lengthAdjust="spacing" textLength="98" x="641" y="26.5332">DeliveryService</text><rect fill="#E2E2F0" height="31.6094" rx="2.5" ry="2.5" style="stroke:#181818;stroke-width:0.5;" width="112" x="634" y="414.1797"/><text fill="#000000" font-family="sans-serif" font-size="14" lengthAdjust="spacing" textLength="98" x="641" y="435.7129">DeliveryService</text><rect fill="#E2E2F0" height="31.6094" rx="2.5" ry="2.5" style="stroke:#181818;stroke-width:0.5;" width="136" x="868" y="5"/><text fill="#000000" font-family="sans-serif" font-size="14" lengthAdjust="spacing" textLength="122" x="875" y="26.5332">IDeliveryRepository</text><rect fill="#E2E2F0" height="31.6094" rx="2.5" ry="2.5" style="stroke:#181818;stroke-width:0.5;" width="136" x="868" y="414.1797"/><text fill="#000000" font-family="sans-serif" font-size="14" lengthAdjust="spacing" textLength="122" x="875" y="435.7129">IDeliveryRepository</text><rect fill="#FFFFFF" height="349.5703" style="stroke:#181818;stroke-width:1.0;" width="10" x="250" y="47.6094"/><rect fill="#FFFFFF" height="291.5156" style="stroke:#181818;stroke-width:1.0;" width="10" x="415" y="105.6641"/><rect fill="#FFFFFF" height="195.1094" style="stroke:#181818;stroke-width:1.0;" width="10" x="550" y="171.7188"/><rect fill="#FFFFFF" height="134.4063" style="stroke:#181818;stroke-width:1.0;" width="10" x="685" y="202.0703"/><rect fill="#FFFFFF" height="66.7031" style="stroke:#181818;stroke-width:1.0;" width="10" x="931" y="232.4219"/><polygon fill="#181818" points="403,101.6641,413,105.6641,403,109.6641,407,105.6641" style="stroke:#181818;stroke-width:1.0;"/><line style="stroke:#181818;stroke-width:1.0;" x1="260" x2="409" y1="105.6641" y2="105.6641"/><text fill="#000000" font-family="sans-serif" font-size="13" font-weight="bold" lengthAdjust="spacing" textLength="7" x="267" y="100.8076">1</text><text fill="#000000" font-family="sans-serif" font-size="13" lengthAdjust="spacing" textLength="125" x="278" y="100.8076">GET /Deliveries/listAll</text><path d="M5,52.6094 L5,143.6094 L245,143.6094 L245,62.6094 L235,52.6094 L5,52.6094 " fill="#FEFFDD" style="stroke:#181818;stroke-width:0.5;"/><path d="M235,52.6094 L235,62.6094 L245,62.6094 L235,52.6094 " fill="#FEFFDD" style="stroke:#181818;stroke-width:0.5;"/><text fill="#000000" font-family="sans-serif" font-size="13" lengthAdjust="spacing" textLength="204" x="11" y="71.1045">Depending on the selected filter (id,</text><text fill="#000000" font-family="sans-serif" font-size="13" lengthAdjust="spacing" textLength="106" x="11" y="87.4561">warehouse, dates)</text><text fill="#000000" font-family="sans-serif" font-size="13" lengthAdjust="spacing" textLength="206" x="11" y="103.8076">the request and the methods will be</text><text fill="#000000" font-family="sans-serif" font-size="13" lengthAdjust="spacing" textLength="219" x="11" y="120.1592">different, changing the method's name</text><text fill="#000000" font-family="sans-serif" font-size="13" lengthAdjust="spacing" textLength="113" x="11" y="136.5107">and implementation</text><polygon fill="#181818" points="538,167.7188,548,171.7188,538,175.7188,542,171.7188" style="stroke:#181818;stroke-width:1.0;"/><line style="stroke:#181818;stroke-width:1.0;" x1="425" x2="544" y1="171.7188" y2="171.7188"/><text fill="#000000" font-family="sans-serif" font-size="13" font-weight="bold" lengthAdjust="spacing" textLength="7" x="432" y="166.8623">2</text><text fill="#000000" font-family="sans-serif" font-size="13" lengthAdjust="spacing" textLength="36" x="443" y="166.8623">GetAll</text><polygon fill="#181818" points="673,198.0703,683,202.0703,673,206.0703,677,202.0703" style="stroke:#181818;stroke-width:1.0;"/><line style="stroke:#181818;stroke-width:1.0;" x1="560" x2="679" y1="202.0703" y2="202.0703"/><text fill="#000000" font-family="sans-serif" font-size="13" font-weight="bold" lengthAdjust="spacing" textLength="7" x="567" y="197.2139">3</text><text fill="#000000" font-family="sans-serif" font-size="13" lengthAdjust="spacing" textLength="73" x="578" y="197.2139">GetAllAsync</text><polygon fill="#181818" points="919,228.4219,929,232.4219,919,236.4219,923,232.4219" style="stroke:#181818;stroke-width:1.0;"/><line style="stroke:#181818;stroke-width:1.0;" x1="695" x2="925" y1="232.4219" y2="232.4219"/><text fill="#000000" font-family="sans-serif" font-size="13" font-weight="bold" lengthAdjust="spacing" textLength="7" x="702" y="227.5654">4</text><text fill="#000000" font-family="sans-serif" font-size="13" lengthAdjust="spacing" textLength="73" x="713" y="227.5654">GetAllAsync</text><polygon fill="#181818" points="706,258.7734,696,262.7734,706,266.7734,702,262.7734" style="stroke:#181818;stroke-width:1.0;"/><line style="stroke:#181818;stroke-width:1.0;stroke-dasharray:2.0,2.0;" x1="700" x2="930" y1="262.7734" y2="262.7734"/><text fill="#000000" font-family="sans-serif" font-size="13" font-weight="bold" lengthAdjust="spacing" textLength="7" x="712" y="257.917">5</text><text fill="#000000" font-family="sans-serif" font-size="13" lengthAdjust="spacing" textLength="78" x="723" y="257.917">list&lt;Delivery&gt;</text><line style="stroke:#181818;stroke-width:1.0;" x1="695" x2="737" y1="298.125" y2="298.125"/><line style="stroke:#181818;stroke-width:1.0;" x1="737" x2="737" y1="298.125" y2="311.125"/><line style="stroke:#181818;stroke-width:1.0;" x1="690" x2="737" y1="311.125" y2="311.125"/><polygon fill="#181818" points="700,307.125,690,311.125,700,315.125,696,311.125" style="stroke:#181818;stroke-width:1.0;"/><text fill="#000000" font-family="sans-serif" font-size="13" font-weight="bold" lengthAdjust="spacing" textLength="7" x="702" y="293.2686">6</text><text fill="#000000" font-family="sans-serif" font-size="13" lengthAdjust="spacing" textLength="211" x="713" y="293.2686">listDto = list.convertAll&lt;DeliveryDto&gt;</text><polygon fill="#181818" points="571,332.4766,561,336.4766,571,340.4766,567,336.4766" style="stroke:#181818;stroke-width:1.0;"/><line style="stroke:#181818;stroke-width:1.0;stroke-dasharray:2.0,2.0;" x1="565" x2="689" y1="336.4766" y2="336.4766"/><text fill="#000000" font-family="sans-serif" font-size="13" font-weight="bold" lengthAdjust="spacing" textLength="7" x="577" y="331.6201">7</text><text fill="#000000" font-family="sans-serif" font-size="13" lengthAdjust="spacing" textLength="37" x="588" y="331.6201">listDto</text><polygon fill="#181818" points="436,362.8281,426,366.8281,436,370.8281,432,366.8281" style="stroke:#181818;stroke-width:1.0;"/><line style="stroke:#181818;stroke-width:1.0;stroke-dasharray:2.0,2.0;" x1="430" x2="554" y1="366.8281" y2="366.8281"/><text fill="#000000" font-family="sans-serif" font-size="13" font-weight="bold" lengthAdjust="spacing" textLength="7" x="442" y="361.9717">8</text><text fill="#000000" font-family="sans-serif" font-size="13" lengthAdjust="spacing" textLength="90" x="453" y="361.9717">status 200 (Ok)</text><polygon fill="#181818" points="266,393.1797,256,397.1797,266,401.1797,262,397.1797" style="stroke:#181818;stroke-width:1.0;"/><line style="stroke:#181818;stroke-width:1.0;stroke-dasharray:2.0,2.0;" x1="260" x2="419" y1="397.1797" y2="397.1797"/><text fill="#000000" font-family="sans-serif" font-size="13" font-weight="bold" lengthAdjust="spacing" textLength="7" x="272" y="392.3232">9</text><text fill="#000000" font-family="sans-serif" font-size="13" lengthAdjust="spacing" textLength="106" x="283" y="392.3232">success message</text><!--MD5=[9802053876d0deb2cd3244f3ec8fb148]
@startuml
'https://plantuml.com/sequence-diagram

autonumber
participant "sPA: SPA" as sPA
participant "MDA: MDA" as MDA 
participant "DeliveriesController" as controller
participant "DeliveryService" as service
participant "IDeliveryRepository" as repository




activate sPA
sPA -> MDA : GET /Deliveries/listAll
note left
  Depending on the selected filter (id, 
  warehouse, dates) 
  the request and the methods will be 
  different, changing the method's name
  and implementation
end note

activate MDA

MDA -> controller :  GetAll

activate controller

controller-> service : GetAllAsync

activate service

service -> repository : GetAllAsync
activate repository

repository - -> service : list<Delivery>

service -> service : listDto = list.convertAll<DeliveryDto>

deactivate repository
service - -> controller : listDto
deactivate service


controller - -> MDA : status 200 (Ok)
deactivate controller

MDA - -> sPA : success message

deactivate MDA


deactivate sPA



@enduml

@startuml

autonumber
participant "sPA: SPA" as sPA
participant "MDA: MDA" as MDA 
participant "DeliveriesController" as controller
participant "DeliveryService" as service
participant "IDeliveryRepository" as repository




activate sPA
sPA -> MDA : GET /Deliveries/listAll
note left
  Depending on the selected filter (id, 
  warehouse, dates) 
  the request and the methods will be 
  different, changing the method's name
  and implementation
end note

activate MDA

MDA -> controller :  GetAll

activate controller

controller-> service : GetAllAsync

activate service

service -> repository : GetAllAsync
activate repository

repository - -> service : list<Delivery>

service -> service : listDto = list.convertAll<DeliveryDto>

deactivate repository
service - -> controller : listDto
deactivate service


controller - -> MDA : status 200 (Ok)
deactivate controller

MDA - -> sPA : success message

deactivate MDA


deactivate sPA



@enduml

PlantUML version 1.2022.7(Mon Aug 22 18:01:30 WEST 2022)
(GPL source distribution)
Java Runtime: Java(TM) SE Runtime Environment
JVM: Java HotSpot(TM) 64-Bit Server VM
Default Encoding: Cp1252
Language: pt
Country: PT
--></g></svg>