<?xml version="1.0" encoding="UTF-8" standalone="no"?><svg xmlns="http://www.w3.org/2000/svg" xmlns:xlink="http://www.w3.org/1999/xlink" contentStyleType="text/css" height="451px" preserveAspectRatio="none" style="width:1080px;height:451px;background:#FFFFFF;" version="1.1" viewBox="0 0 1080 451" width="1080px" zoomAndPan="magnify"><defs/><g><rect fill="#FFFFFF" height="349.5703" style="stroke:#181818;stroke-width:1.0;" width="10" x="250" y="47.6094"/><rect fill="#FFFFFF" height="291.5156" style="stroke:#181818;stroke-width:1.0;" width="10" x="433" y="105.6641"/><rect fill="#FFFFFF" height="195.1094" style="stroke:#181818;stroke-width:1.0;" width="10" x="568" y="171.7188"/><rect fill="#FFFFFF" height="134.4063" style="stroke:#181818;stroke-width:1.0;" width="10" x="723" y="202.0703"/><rect fill="#FFFFFF" height="66.7031" style="stroke:#181818;stroke-width:1.0;" width="10" x="990" y="232.4219"/><line style="stroke:#181818;stroke-width:0.5;stroke-dasharray:5.0,5.0;" x1="255" x2="255" y1="37.6094" y2="415.1797"/><line style="stroke:#181818;stroke-width:0.5;stroke-dasharray:5.0,5.0;" x1="438" x2="438" y1="37.6094" y2="415.1797"/><line style="stroke:#181818;stroke-width:0.5;stroke-dasharray:5.0,5.0;" x1="573" x2="573" y1="37.6094" y2="415.1797"/><line style="stroke:#181818;stroke-width:0.5;stroke-dasharray:5.0,5.0;" x1="728" x2="728" y1="37.6094" y2="415.1797"/><line style="stroke:#181818;stroke-width:0.5;stroke-dasharray:5.0,5.0;" x1="995" x2="995" y1="37.6094" y2="415.1797"/><rect fill="#E2E2F0" height="31.6094" rx="2.5" ry="2.5" style="stroke:#181818;stroke-width:0.5;" width="74" x="218" y="5"/><text fill="#000000" font-family="sans-serif" font-size="14" lengthAdjust="spacing" textLength="60" x="225" y="26.5332">sPA: SPA</text><rect fill="#E2E2F0" height="31.6094" rx="2.5" ry="2.5" style="stroke:#181818;stroke-width:0.5;" width="74" x="218" y="414.1797"/><text fill="#000000" font-family="sans-serif" font-size="14" lengthAdjust="spacing" textLength="60" x="225" y="435.7129">sPA: SPA</text><rect fill="#E2E2F0" height="31.6094" rx="2.5" ry="2.5" style="stroke:#181818;stroke-width:0.5;" width="82" x="397" y="5"/><text fill="#000000" font-family="sans-serif" font-size="14" lengthAdjust="spacing" textLength="68" x="404" y="26.5332">MDA: MDA</text><rect fill="#E2E2F0" height="31.6094" rx="2.5" ry="2.5" style="stroke:#181818;stroke-width:0.5;" width="82" x="397" y="414.1797"/><text fill="#000000" font-family="sans-serif" font-size="14" lengthAdjust="spacing" textLength="68" x="404" y="435.7129">MDA: MDA</text><rect fill="#E2E2F0" height="31.6094" rx="2.5" ry="2.5" style="stroke:#181818;stroke-width:0.5;" width="156" x="495" y="5"/><text fill="#000000" font-family="sans-serif" font-size="14" lengthAdjust="spacing" textLength="142" x="502" y="26.5332">WarehousesController</text><rect fill="#E2E2F0" height="31.6094" rx="2.5" ry="2.5" style="stroke:#181818;stroke-width:0.5;" width="156" x="495" y="414.1797"/><text fill="#000000" font-family="sans-serif" font-size="14" lengthAdjust="spacing" textLength="142" x="502" y="435.7129">WarehousesController</text><rect fill="#E2E2F0" height="31.6094" rx="2.5" ry="2.5" style="stroke:#181818;stroke-width:0.5;" width="134" x="661" y="5"/><text fill="#000000" font-family="sans-serif" font-size="14" lengthAdjust="spacing" textLength="120" x="668" y="26.5332">WarehouseService</text><rect fill="#E2E2F0" height="31.6094" rx="2.5" ry="2.5" style="stroke:#181818;stroke-width:0.5;" width="134" x="661" y="414.1797"/><text fill="#000000" font-family="sans-serif" font-size="14" lengthAdjust="spacing" textLength="120" x="668" y="435.7129">WarehouseService</text><rect fill="#E2E2F0" height="31.6094" rx="2.5" ry="2.5" style="stroke:#181818;stroke-width:0.5;" width="158" x="916" y="5"/><text fill="#000000" font-family="sans-serif" font-size="14" lengthAdjust="spacing" textLength="144" x="923" y="26.5332">IWarehouseRepository</text><rect fill="#E2E2F0" height="31.6094" rx="2.5" ry="2.5" style="stroke:#181818;stroke-width:0.5;" width="158" x="916" y="414.1797"/><text fill="#000000" font-family="sans-serif" font-size="14" lengthAdjust="spacing" textLength="144" x="923" y="435.7129">IWarehouseRepository</text><rect fill="#FFFFFF" height="349.5703" style="stroke:#181818;stroke-width:1.0;" width="10" x="250" y="47.6094"/><rect fill="#FFFFFF" height="291.5156" style="stroke:#181818;stroke-width:1.0;" width="10" x="433" y="105.6641"/><rect fill="#FFFFFF" height="195.1094" style="stroke:#181818;stroke-width:1.0;" width="10" x="568" y="171.7188"/><rect fill="#FFFFFF" height="134.4063" style="stroke:#181818;stroke-width:1.0;" width="10" x="723" y="202.0703"/><rect fill="#FFFFFF" height="66.7031" style="stroke:#181818;stroke-width:1.0;" width="10" x="990" y="232.4219"/><polygon fill="#181818" points="421,101.6641,431,105.6641,421,109.6641,425,105.6641" style="stroke:#181818;stroke-width:1.0;"/><line style="stroke:#181818;stroke-width:1.0;" x1="260" x2="427" y1="105.6641" y2="105.6641"/><text fill="#000000" font-family="sans-serif" font-size="13" font-weight="bold" lengthAdjust="spacing" textLength="7" x="267" y="100.8076">1</text><text fill="#000000" font-family="sans-serif" font-size="13" lengthAdjust="spacing" textLength="143" x="278" y="100.8076">GET /Warehouses/listAll</text><path d="M5,52.6094 L5,143.6094 L245,143.6094 L245,62.6094 L235,52.6094 L5,52.6094 " fill="#FEFFDD" style="stroke:#181818;stroke-width:0.5;"/><path d="M235,52.6094 L235,62.6094 L245,62.6094 L235,52.6094 " fill="#FEFFDD" style="stroke:#181818;stroke-width:0.5;"/><text fill="#000000" font-family="sans-serif" font-size="13" lengthAdjust="spacing" textLength="204" x="11" y="71.1045">Depending on the selected filter (id,</text><text fill="#000000" font-family="sans-serif" font-size="13" lengthAdjust="spacing" textLength="106" x="11" y="87.4561">warehouse, dates)</text><text fill="#000000" font-family="sans-serif" font-size="13" lengthAdjust="spacing" textLength="206" x="11" y="103.8076">the request and the methods will be</text><text fill="#000000" font-family="sans-serif" font-size="13" lengthAdjust="spacing" textLength="219" x="11" y="120.1592">different, changing the method's name</text><text fill="#000000" font-family="sans-serif" font-size="13" lengthAdjust="spacing" textLength="113" x="11" y="136.5107">and implementation</text><polygon fill="#181818" points="556,167.7188,566,171.7188,556,175.7188,560,171.7188" style="stroke:#181818;stroke-width:1.0;"/><line style="stroke:#181818;stroke-width:1.0;" x1="443" x2="562" y1="171.7188" y2="171.7188"/><text fill="#000000" font-family="sans-serif" font-size="13" font-weight="bold" lengthAdjust="spacing" textLength="7" x="450" y="166.8623">2</text><text fill="#000000" font-family="sans-serif" font-size="13" lengthAdjust="spacing" textLength="36" x="461" y="166.8623">GetAll</text><polygon fill="#181818" points="711,198.0703,721,202.0703,711,206.0703,715,202.0703" style="stroke:#181818;stroke-width:1.0;"/><line style="stroke:#181818;stroke-width:1.0;" x1="578" x2="717" y1="202.0703" y2="202.0703"/><text fill="#000000" font-family="sans-serif" font-size="13" font-weight="bold" lengthAdjust="spacing" textLength="7" x="585" y="197.2139">3</text><text fill="#000000" font-family="sans-serif" font-size="13" lengthAdjust="spacing" textLength="73" x="596" y="197.2139">GetAllAsync</text><polygon fill="#181818" points="978,228.4219,988,232.4219,978,236.4219,982,232.4219" style="stroke:#181818;stroke-width:1.0;"/><line style="stroke:#181818;stroke-width:1.0;" x1="733" x2="984" y1="232.4219" y2="232.4219"/><text fill="#000000" font-family="sans-serif" font-size="13" font-weight="bold" lengthAdjust="spacing" textLength="7" x="740" y="227.5654">4</text><text fill="#000000" font-family="sans-serif" font-size="13" lengthAdjust="spacing" textLength="73" x="751" y="227.5654">GetAllAsync</text><polygon fill="#181818" points="744,258.7734,734,262.7734,744,266.7734,740,262.7734" style="stroke:#181818;stroke-width:1.0;"/><line style="stroke:#181818;stroke-width:1.0;stroke-dasharray:2.0,2.0;" x1="738" x2="989" y1="262.7734" y2="262.7734"/><text fill="#000000" font-family="sans-serif" font-size="13" font-weight="bold" lengthAdjust="spacing" textLength="7" x="750" y="257.917">5</text><text fill="#000000" font-family="sans-serif" font-size="13" lengthAdjust="spacing" textLength="99" x="761" y="257.917">list&lt;Warehouse&gt;</text><line style="stroke:#181818;stroke-width:1.0;" x1="733" x2="775" y1="298.125" y2="298.125"/><line style="stroke:#181818;stroke-width:1.0;" x1="775" x2="775" y1="298.125" y2="311.125"/><line style="stroke:#181818;stroke-width:1.0;" x1="728" x2="775" y1="311.125" y2="311.125"/><polygon fill="#181818" points="738,307.125,728,311.125,738,315.125,734,311.125" style="stroke:#181818;stroke-width:1.0;"/><text fill="#000000" font-family="sans-serif" font-size="13" font-weight="bold" lengthAdjust="spacing" textLength="7" x="740" y="293.2686">6</text><text fill="#000000" font-family="sans-serif" font-size="13" lengthAdjust="spacing" textLength="232" x="751" y="293.2686">listDto = list.convertAll&lt;WarehouseDto&gt;</text><polygon fill="#181818" points="589,332.4766,579,336.4766,589,340.4766,585,336.4766" style="stroke:#181818;stroke-width:1.0;"/><line style="stroke:#181818;stroke-width:1.0;stroke-dasharray:2.0,2.0;" x1="583" x2="727" y1="336.4766" y2="336.4766"/><text fill="#000000" font-family="sans-serif" font-size="13" font-weight="bold" lengthAdjust="spacing" textLength="7" x="595" y="331.6201">7</text><text fill="#000000" font-family="sans-serif" font-size="13" lengthAdjust="spacing" textLength="37" x="606" y="331.6201">listDto</text><polygon fill="#181818" points="454,362.8281,444,366.8281,454,370.8281,450,366.8281" style="stroke:#181818;stroke-width:1.0;"/><line style="stroke:#181818;stroke-width:1.0;stroke-dasharray:2.0,2.0;" x1="448" x2="572" y1="366.8281" y2="366.8281"/><text fill="#000000" font-family="sans-serif" font-size="13" font-weight="bold" lengthAdjust="spacing" textLength="7" x="460" y="361.9717">8</text><text fill="#000000" font-family="sans-serif" font-size="13" lengthAdjust="spacing" textLength="90" x="471" y="361.9717">status 200 (Ok)</text><polygon fill="#181818" points="266,393.1797,256,397.1797,266,401.1797,262,397.1797" style="stroke:#181818;stroke-width:1.0;"/><line style="stroke:#181818;stroke-width:1.0;stroke-dasharray:2.0,2.0;" x1="260" x2="437" y1="397.1797" y2="397.1797"/><text fill="#000000" font-family="sans-serif" font-size="13" font-weight="bold" lengthAdjust="spacing" textLength="7" x="272" y="392.3232">9</text><text fill="#000000" font-family="sans-serif" font-size="13" lengthAdjust="spacing" textLength="106" x="283" y="392.3232">success message</text><!--MD5=[2fbfb49b7acc9a8898a297038732d881]
@startuml
'https://plantuml.com/sequence-diagram

autonumber
participant "sPA: SPA" as sPA
participant "MDA: MDA" as MDA 
participant "WarehousesController" as controller
participant "WarehouseService" as service
participant "IWarehouseRepository" as repository




activate sPA
sPA -> MDA : GET /Warehouses/listAll
note left
  Depending on the selected filter (id, 
  warehouse, dates) 
  the request and the methods will be 
  different, changing the method's name
  and implementation
end note

activate MDA

MDA -> controller :  GetAll

activate controller

controller-> service : GetAllAsync

activate service

service -> repository : GetAllAsync
activate repository

repository - -> service : list<Warehouse>

service -> service : listDto = list.convertAll<WarehouseDto>

deactivate repository
service - -> controller : listDto
deactivate service


controller - -> MDA : status 200 (Ok)
deactivate controller

MDA - -> sPA : success message

deactivate MDA


deactivate sPA



@enduml

@startuml

autonumber
participant "sPA: SPA" as sPA
participant "MDA: MDA" as MDA 
participant "WarehousesController" as controller
participant "WarehouseService" as service
participant "IWarehouseRepository" as repository




activate sPA
sPA -> MDA : GET /Warehouses/listAll
note left
  Depending on the selected filter (id, 
  warehouse, dates) 
  the request and the methods will be 
  different, changing the method's name
  and implementation
end note

activate MDA

MDA -> controller :  GetAll

activate controller

controller-> service : GetAllAsync

activate service

service -> repository : GetAllAsync
activate repository

repository - -> service : list<Warehouse>

service -> service : listDto = list.convertAll<WarehouseDto>

deactivate repository
service - -> controller : listDto
deactivate service


controller - -> MDA : status 200 (Ok)
deactivate controller

MDA - -> sPA : success message

deactivate MDA


deactivate sPA



@enduml

PlantUML version 1.2022.7(Mon Aug 22 18:01:30 WEST 2022)
(GPL source distribution)
Java Runtime: Java(TM) SE Runtime Environment
JVM: Java HotSpot(TM) 64-Bit Server VM
Default Encoding: Cp1252
Language: pt
Country: PT
--></g></svg>