<?xml version="1.0" encoding="UTF-8" standalone="no"?><svg xmlns="http://www.w3.org/2000/svg" xmlns:xlink="http://www.w3.org/1999/xlink" contentStyleType="text/css" height="583px" preserveAspectRatio="none" style="width:866px;height:583px;background:#FFFFFF;" version="1.1" viewBox="0 0 866 583" width="866px" zoomAndPan="magnify"><defs/><g><rect fill="#FFFFFF" height="488.9453" style="stroke:#181818;stroke-width:1.0;" width="10" x="52" y="47.6094"/><rect fill="#FFFFFF" height="466.5938" style="stroke:#181818;stroke-width:1.0;" width="10" x="243" y="69.9609"/><rect fill="#FFFFFF" height="436.2422" style="stroke:#181818;stroke-width:1.0;" width="10" x="443" y="100.3125"/><rect fill="#FFFFFF" height="151.7578" style="stroke:#181818;stroke-width:1.0;" width="10" x="578" y="130.6641"/><rect fill="#FFFFFF" height="91.0547" style="stroke:#181818;stroke-width:1.0;" width="10" x="712" y="161.0156"/><rect fill="none" height="232.1328" style="stroke:#000000;stroke-width:1.5;" width="517" x="10" y="297.4219"/><line style="stroke:#181818;stroke-width:0.5;stroke-dasharray:5.0,5.0;" x1="57" x2="57" y1="37.6094" y2="546.5547"/><line style="stroke:#181818;stroke-width:0.5;stroke-dasharray:5.0,5.0;" x1="248" x2="248" y1="37.6094" y2="546.5547"/><line style="stroke:#181818;stroke-width:0.5;stroke-dasharray:5.0,5.0;" x1="448" x2="448" y1="37.6094" y2="546.5547"/><line style="stroke:#181818;stroke-width:0.5;stroke-dasharray:5.0,5.0;" x1="583" x2="583" y1="37.6094" y2="546.5547"/><line style="stroke:#181818;stroke-width:0.5;stroke-dasharray:5.0,5.0;" x1="717" x2="717" y1="37.6094" y2="546.5547"/><line style="stroke:#181818;stroke-width:0.5;stroke-dasharray:5.0,5.0;" x1="827" x2="827" y1="37.6094" y2="546.5547"/><rect fill="#E2E2F0" height="31.6094" rx="2.5" ry="2.5" style="stroke:#181818;stroke-width:0.5;" width="74" x="20" y="5"/><text fill="#000000" font-family="sans-serif" font-size="14" lengthAdjust="spacing" textLength="60" x="27" y="26.5332">sPA: SPA</text><rect fill="#E2E2F0" height="31.6094" rx="2.5" ry="2.5" style="stroke:#181818;stroke-width:0.5;" width="74" x="20" y="545.5547"/><text fill="#000000" font-family="sans-serif" font-size="14" lengthAdjust="spacing" textLength="60" x="27" y="567.0879">sPA: SPA</text><rect fill="#E2E2F0" height="31.6094" rx="2.5" ry="2.5" style="stroke:#181818;stroke-width:0.5;" width="82" x="207" y="5"/><text fill="#000000" font-family="sans-serif" font-size="14" lengthAdjust="spacing" textLength="68" x="214" y="26.5332">MDA: MDA</text><rect fill="#E2E2F0" height="31.6094" rx="2.5" ry="2.5" style="stroke:#181818;stroke-width:0.5;" width="82" x="207" y="545.5547"/><text fill="#000000" font-family="sans-serif" font-size="14" lengthAdjust="spacing" textLength="68" x="214" y="567.0879">MDA: MDA</text><rect fill="#E2E2F0" height="31.6094" rx="2.5" ry="2.5" style="stroke:#181818;stroke-width:0.5;" width="138" x="379" y="5"/><text fill="#000000" font-family="sans-serif" font-size="14" lengthAdjust="spacing" textLength="124" x="386" y="26.5332">DeliveriesController</text><rect fill="#E2E2F0" height="31.6094" rx="2.5" ry="2.5" style="stroke:#181818;stroke-width:0.5;" width="138" x="379" y="545.5547"/><text fill="#000000" font-family="sans-serif" font-size="14" lengthAdjust="spacing" textLength="124" x="386" y="567.0879">DeliveriesController</text><rect fill="#E2E2F0" height="31.6094" rx="2.5" ry="2.5" style="stroke:#181818;stroke-width:0.5;" width="112" x="527" y="5"/><text fill="#000000" font-family="sans-serif" font-size="14" lengthAdjust="spacing" textLength="98" x="534" y="26.5332">DeliveryService</text><rect fill="#E2E2F0" height="31.6094" rx="2.5" ry="2.5" style="stroke:#181818;stroke-width:0.5;" width="112" x="527" y="545.5547"/><text fill="#000000" font-family="sans-serif" font-size="14" lengthAdjust="spacing" textLength="98" x="534" y="567.0879">DeliveryService</text><rect fill="#E2E2F0" height="31.6094" rx="2.5" ry="2.5" style="stroke:#181818;stroke-width:0.5;" width="136" x="649" y="5"/><text fill="#000000" font-family="sans-serif" font-size="14" lengthAdjust="spacing" textLength="122" x="656" y="26.5332">IDeliveryRepository</text><rect fill="#E2E2F0" height="31.6094" rx="2.5" ry="2.5" style="stroke:#181818;stroke-width:0.5;" width="136" x="649" y="545.5547"/><text fill="#000000" font-family="sans-serif" font-size="14" lengthAdjust="spacing" textLength="122" x="656" y="567.0879">IDeliveryRepository</text><rect fill="#E2E2F0" height="31.6094" rx="2.5" ry="2.5" style="stroke:#181818;stroke-width:0.5;" width="65" x="795" y="5"/><text fill="#000000" font-family="sans-serif" font-size="14" lengthAdjust="spacing" textLength="51" x="802" y="26.5332">Delivery</text><rect fill="#E2E2F0" height="31.6094" rx="2.5" ry="2.5" style="stroke:#181818;stroke-width:0.5;" width="65" x="795" y="545.5547"/><text fill="#000000" font-family="sans-serif" font-size="14" lengthAdjust="spacing" textLength="51" x="802" y="567.0879">Delivery</text><rect fill="#FFFFFF" height="488.9453" style="stroke:#181818;stroke-width:1.0;" width="10" x="52" y="47.6094"/><rect fill="#FFFFFF" height="466.5938" style="stroke:#181818;stroke-width:1.0;" width="10" x="243" y="69.9609"/><rect fill="#FFFFFF" height="436.2422" style="stroke:#181818;stroke-width:1.0;" width="10" x="443" y="100.3125"/><rect fill="#FFFFFF" height="151.7578" style="stroke:#181818;stroke-width:1.0;" width="10" x="578" y="130.6641"/><rect fill="#FFFFFF" height="91.0547" style="stroke:#181818;stroke-width:1.0;" width="10" x="712" y="161.0156"/><polygon fill="#181818" points="231,65.9609,241,69.9609,231,73.9609,235,69.9609" style="stroke:#181818;stroke-width:1.0;"/><line style="stroke:#181818;stroke-width:1.0;" x1="62" x2="237" y1="69.9609" y2="69.9609"/><text fill="#000000" font-family="sans-serif" font-size="13" font-weight="bold" lengthAdjust="spacing" textLength="7" x="69" y="65.1045">1</text><text fill="#000000" font-family="sans-serif" font-size="13" lengthAdjust="spacing" textLength="151" x="80" y="65.1045">PATCH /Deliveries/Update</text><polygon fill="#181818" points="431,96.3125,441,100.3125,431,104.3125,435,100.3125" style="stroke:#181818;stroke-width:1.0;"/><line style="stroke:#181818;stroke-width:1.0;" x1="253" x2="437" y1="100.3125" y2="100.3125"/><text fill="#000000" font-family="sans-serif" font-size="13" font-weight="bold" lengthAdjust="spacing" textLength="7" x="260" y="95.4561">2</text><text fill="#000000" font-family="sans-serif" font-size="13" lengthAdjust="spacing" textLength="41" x="271" y="95.4561">Update</text><polygon fill="#181818" points="566,126.6641,576,130.6641,566,134.6641,570,130.6641" style="stroke:#181818;stroke-width:1.0;"/><line style="stroke:#181818;stroke-width:1.0;" x1="453" x2="572" y1="130.6641" y2="130.6641"/><text fill="#000000" font-family="sans-serif" font-size="13" font-weight="bold" lengthAdjust="spacing" textLength="7" x="460" y="125.8076">3</text><text fill="#000000" font-family="sans-serif" font-size="13" lengthAdjust="spacing" textLength="78" x="471" y="125.8076">UpdateAsync</text><polygon fill="#181818" points="700,157.0156,710,161.0156,700,165.0156,704,161.0156" style="stroke:#181818;stroke-width:1.0;"/><line style="stroke:#181818;stroke-width:1.0;" x1="588" x2="706" y1="161.0156" y2="161.0156"/><text fill="#000000" font-family="sans-serif" font-size="13" font-weight="bold" lengthAdjust="spacing" textLength="7" x="595" y="156.1592">4</text><text fill="#000000" font-family="sans-serif" font-size="13" lengthAdjust="spacing" textLength="84" x="606" y="156.1592">GetByIdAsync</text><polygon fill="#181818" points="599,187.3672,589,191.3672,599,195.3672,595,191.3672" style="stroke:#181818;stroke-width:1.0;"/><line style="stroke:#181818;stroke-width:1.0;stroke-dasharray:2.0,2.0;" x1="593" x2="711" y1="191.3672" y2="191.3672"/><text fill="#000000" font-family="sans-serif" font-size="13" font-weight="bold" lengthAdjust="spacing" textLength="7" x="605" y="186.5107">5</text><text fill="#000000" font-family="sans-serif" font-size="13" lengthAdjust="spacing" textLength="43" x="616" y="186.5107">delivery</text><polygon fill="#181818" points="815.5,217.7188,825.5,221.7188,815.5,225.7188,819.5,221.7188" style="stroke:#181818;stroke-width:1.0;"/><line style="stroke:#181818;stroke-width:1.0;" x1="588" x2="821.5" y1="221.7188" y2="221.7188"/><text fill="#000000" font-family="sans-serif" font-size="13" font-weight="bold" lengthAdjust="spacing" textLength="7" x="595" y="216.8623">6</text><text fill="#000000" font-family="sans-serif" font-size="13" lengthAdjust="spacing" textLength="39" x="606" y="216.8623">update</text><polygon fill="#181818" points="705,248.0703,715,252.0703,705,256.0703,709,252.0703" style="stroke:#181818;stroke-width:1.0;"/><line style="stroke:#181818;stroke-width:1.0;" x1="588" x2="711" y1="252.0703" y2="252.0703"/><text fill="#000000" font-family="sans-serif" font-size="13" font-weight="bold" lengthAdjust="spacing" textLength="7" x="595" y="247.2139">7</text><text fill="#000000" font-family="sans-serif" font-size="13" lengthAdjust="spacing" textLength="82" x="606" y="247.2139">CommitAsync</text><polygon fill="#181818" points="464,278.4219,454,282.4219,464,286.4219,460,282.4219" style="stroke:#181818;stroke-width:1.0;"/><line style="stroke:#181818;stroke-width:1.0;stroke-dasharray:2.0,2.0;" x1="458" x2="582" y1="282.4219" y2="282.4219"/><text fill="#000000" font-family="sans-serif" font-size="13" font-weight="bold" lengthAdjust="spacing" textLength="7" x="470" y="277.5654">8</text><text fill="#000000" font-family="sans-serif" font-size="13" lengthAdjust="spacing" textLength="18" x="481" y="277.5654">dto</text><path d="M10,297.4219 L71,297.4219 L71,305.7734 L61,315.7734 L10,315.7734 L10,297.4219 " fill="#EEEEEE" style="stroke:#000000;stroke-width:1.5;"/><rect fill="none" height="232.1328" style="stroke:#000000;stroke-width:1.5;" width="517" x="10" y="297.4219"/><text fill="#000000" font-family="sans-serif" font-size="13" font-weight="bold" lengthAdjust="spacing" textLength="16" x="25" y="311.917">alt</text><text fill="#000000" font-family="sans-serif" font-size="11" font-weight="bold" lengthAdjust="spacing" textLength="55" x="86" y="310.8408">[success]</text><polygon fill="#181818" points="264,334.125,254,338.125,264,342.125,260,338.125" style="stroke:#181818;stroke-width:1.0;"/><line style="stroke:#181818;stroke-width:1.0;stroke-dasharray:2.0,2.0;" x1="258" x2="442" y1="338.125" y2="338.125"/><text fill="#000000" font-family="sans-serif" font-size="13" font-weight="bold" lengthAdjust="spacing" textLength="7" x="270" y="333.2686">9</text><text fill="#000000" font-family="sans-serif" font-size="13" lengthAdjust="spacing" textLength="90" x="281" y="333.2686">status 200 (Ok)</text><polygon fill="#181818" points="73,364.4766,63,368.4766,73,372.4766,69,368.4766" style="stroke:#181818;stroke-width:1.0;"/><line style="stroke:#181818;stroke-width:1.0;stroke-dasharray:2.0,2.0;" x1="67" x2="242" y1="368.4766" y2="368.4766"/><text fill="#000000" font-family="sans-serif" font-size="13" font-weight="bold" lengthAdjust="spacing" textLength="14" x="79" y="363.6201">10</text><text fill="#000000" font-family="sans-serif" font-size="13" lengthAdjust="spacing" textLength="106" x="97" y="363.6201">success message</text><line style="stroke:#000000;stroke-width:1.0;stroke-dasharray:2.0,2.0;" x1="10" x2="527" y1="377.4766" y2="377.4766"/><text fill="#000000" font-family="sans-serif" font-size="11" font-weight="bold" lengthAdjust="spacing" textLength="60" x="15" y="388.8955">[NotFound]</text><polygon fill="#181818" points="264,410.6641,254,414.6641,264,418.6641,260,414.6641" style="stroke:#181818;stroke-width:1.0;"/><line style="stroke:#181818;stroke-width:1.0;stroke-dasharray:2.0,2.0;" x1="258" x2="442" y1="414.6641" y2="414.6641"/><text fill="#000000" font-family="sans-serif" font-size="13" font-weight="bold" lengthAdjust="spacing" textLength="14" x="270" y="409.8076">11</text><text fill="#000000" font-family="sans-serif" font-size="13" lengthAdjust="spacing" textLength="133" x="288" y="409.8076">status 404 (Not Found)</text><polygon fill="#181818" points="73,441.0156,63,445.0156,73,449.0156,69,445.0156" style="stroke:#181818;stroke-width:1.0;"/><line style="stroke:#181818;stroke-width:1.0;stroke-dasharray:2.0,2.0;" x1="67" x2="242" y1="445.0156" y2="445.0156"/><text fill="#000000" font-family="sans-serif" font-size="13" font-weight="bold" lengthAdjust="spacing" textLength="14" x="79" y="440.1592">12</text><text fill="#000000" font-family="sans-serif" font-size="13" lengthAdjust="spacing" textLength="116" x="97" y="440.1592">insuccess message</text><line style="stroke:#000000;stroke-width:1.0;stroke-dasharray:2.0,2.0;" x1="10" x2="527" y1="454.0156" y2="454.0156"/><text fill="#000000" font-family="sans-serif" font-size="11" font-weight="bold" lengthAdjust="spacing" textLength="74" x="15" y="465.4346">[BadRequest]</text><polygon fill="#181818" points="264,487.2031,254,491.2031,264,495.2031,260,491.2031" style="stroke:#181818;stroke-width:1.0;"/><line style="stroke:#181818;stroke-width:1.0;stroke-dasharray:2.0,2.0;" x1="258" x2="442" y1="491.2031" y2="491.2031"/><text fill="#000000" font-family="sans-serif" font-size="13" font-weight="bold" lengthAdjust="spacing" textLength="14" x="270" y="486.3467">13</text><text fill="#000000" font-family="sans-serif" font-size="13" lengthAdjust="spacing" textLength="148" x="288" y="486.3467">status 400 (Bad Request)</text><polygon fill="#181818" points="73,517.5547,63,521.5547,73,525.5547,69,521.5547" style="stroke:#181818;stroke-width:1.0;"/><line style="stroke:#181818;stroke-width:1.0;stroke-dasharray:2.0,2.0;" x1="67" x2="242" y1="521.5547" y2="521.5547"/><text fill="#000000" font-family="sans-serif" font-size="13" font-weight="bold" lengthAdjust="spacing" textLength="14" x="79" y="516.6982">14</text><text fill="#000000" font-family="sans-serif" font-size="13" lengthAdjust="spacing" textLength="116" x="97" y="516.6982">insuccess message</text><!--MD5=[b625766543a4214bcd292f849c300db3]
@startuml
'https://plantuml.com/sequence-diagram

autonumber
participant "sPA: SPA" as sPA
participant "MDA: MDA" as MDA 
participant "DeliveriesController" as controller
participant "DeliveryService" as service
participant "IDeliveryRepository" as repository




activate sPA
sPA -> MDA : PATCH /Deliveries/Update

activate MDA

MDA -> controller :  Update

activate controller

controller-> service : UpdateAsync

activate service

service -> repository : GetByIdAsync
activate repository

repository - -> service : delivery


service -> Delivery : update

service -> repository : CommitAsync
deactivate repository

service - -> controller : dto
deactivate service

alt success
controller - -> MDA : status 200 (Ok)

MDA - -> sPA : success message
else NotFound
controller - -> MDA : status 404 (Not Found)

MDA - -> sPA : insuccess message
else BadRequest
controller - -> MDA : status 400 (Bad Request)

MDA - -> sPA : insuccess message
end
deactivate controller

deactivate MDA


deactivate sPA



@enduml

@startuml

autonumber
participant "sPA: SPA" as sPA
participant "MDA: MDA" as MDA 
participant "DeliveriesController" as controller
participant "DeliveryService" as service
participant "IDeliveryRepository" as repository




activate sPA
sPA -> MDA : PATCH /Deliveries/Update

activate MDA

MDA -> controller :  Update

activate controller

controller-> service : UpdateAsync

activate service

service -> repository : GetByIdAsync
activate repository

repository - -> service : delivery


service -> Delivery : update

service -> repository : CommitAsync
deactivate repository

service - -> controller : dto
deactivate service

alt success
controller - -> MDA : status 200 (Ok)

MDA - -> sPA : success message
else NotFound
controller - -> MDA : status 404 (Not Found)

MDA - -> sPA : insuccess message
else BadRequest
controller - -> MDA : status 400 (Bad Request)

MDA - -> sPA : insuccess message
end
deactivate controller

deactivate MDA


deactivate sPA



@enduml

PlantUML version 1.2022.7(Mon Aug 22 18:01:30 BST 2022)
(GPL source distribution)
Java Runtime: OpenJDK Runtime Environment
JVM: OpenJDK 64-Bit Server VM
Default Encoding: Cp1252
Language: pt
Country: PT
--></g></svg>