<?xml version="1.0" encoding="UTF-8" standalone="no"?><svg xmlns="http://www.w3.org/2000/svg" xmlns:xlink="http://www.w3.org/1999/xlink" contentStyleType="text/css" height="1095px" preserveAspectRatio="none" style="width:1923px;height:1095px;background:#FFFFFF;" version="1.1" viewBox="0 0 1923 1095" width="1923px" zoomAndPan="magnify"><defs/><g><!--MD5=[e85bd8b7c3eef9e05b8e65fb9224b5e9]
cluster EletricGo--><g id="cluster_EletricGo"><rect fill="none" height="1046" rx="2.5" ry="2.5" style="stroke:#181818;stroke-width:1.0;" width="1910" x="7" y="43.1855"/><rect fill="none" height="10" style="stroke:#181818;stroke-width:1.0;" width="15" x="1897" y="48.1855"/><rect fill="none" height="2" style="stroke:#181818;stroke-width:1.0;" width="4" x="1895" y="50.1855"/><rect fill="none" height="2" style="stroke:#181818;stroke-width:1.0;" width="4" x="1895" y="54.1855"/><text fill="#000000" font-family="sans-serif" font-size="14" font-weight="bold" lengthAdjust="spacing" textLength="65" x="929.5" y="70.7188">EletricGo</text></g><!--MD5=[6a160cc014265824a104513c79c30877]
cluster armazem--><g id="cluster_armazem"><rect fill="none" height="596" rx="2.5" ry="2.5" style="stroke:#181818;stroke-width:1.0;" width="919" x="966" y="341.1855"/><rect fill="none" height="10" style="stroke:#181818;stroke-width:1.0;" width="15" x="1865" y="346.1855"/><rect fill="none" height="2" style="stroke:#181818;stroke-width:1.0;" width="4" x="1863" y="348.1855"/><rect fill="none" height="2" style="stroke:#181818;stroke-width:1.0;" width="4" x="1863" y="352.1855"/><text fill="#000000" font-family="sans-serif" font-size="14" font-weight="bold" lengthAdjust="spacing" textLength="71" x="1390" y="368.7188">ARMAZEM</text></g><!--MD5=[c579c92204f7caf9f7686aff1f26856a]
cluster ARMAZEM Frameworks and Drivers Layer--><g id="cluster_ARMAZEM Frameworks and Drivers Layer"><path d="M1008.5,393.1855 L1298.5,393.1855 A3.75,3.75 0 0 1 1301,395.6855 L1308,416.7949 L1850.5,416.7949 A2.5,2.5 0 0 1 1853,419.2949 L1853,902.6855 A2.5,2.5 0 0 1 1850.5,905.1855 L1008.5,905.1855 A2.5,2.5 0 0 1 1006,902.6855 L1006,395.6855 A2.5,2.5 0 0 1 1008.5,393.1855 " fill="none" style="stroke:#000000;stroke-width:1.5;"/><line style="stroke:#000000;stroke-width:1.5;" x1="1006" x2="1308" y1="416.7949" y2="416.7949"/><text fill="#000000" font-family="sans-serif" font-size="14" font-weight="bold" lengthAdjust="spacing" textLength="289" x="1010" y="409.7188">ARMAZEM Frameworks and Drivers Layer</text></g><!--MD5=[77096e5b61d3743a0ebf9342f671ec3c]
cluster ARMAZEM Interfaces Adapters Layer--><g id="cluster_ARMAZEM Interfaces Adapters Layer"><path d="M1032.5,501.1855 L1288.5,501.1855 A3.75,3.75 0 0 1 1291,503.6855 L1298,524.7949 L1632.5,524.7949 A2.5,2.5 0 0 1 1635,527.2949 L1635,878.6855 A2.5,2.5 0 0 1 1632.5,881.1855 L1032.5,881.1855 A2.5,2.5 0 0 1 1030,878.6855 L1030,503.6855 A2.5,2.5 0 0 1 1032.5,501.1855 " fill="none" style="stroke:#000000;stroke-width:1.5;"/><line style="stroke:#000000;stroke-width:1.5;" x1="1030" x2="1298" y1="524.7949" y2="524.7949"/><text fill="#000000" font-family="sans-serif" font-size="14" font-weight="bold" lengthAdjust="spacing" textLength="255" x="1034" y="517.7188">ARMAZEM Interfaces Adapters Layer</text></g><!--MD5=[761dc697f9225629931a15dd22a7ebfd]
cluster ARMAZEM Application Business Rules--><g id="cluster_ARMAZEM Application Business Rules"><path d="M1056.5,625.1855 L1323.5,625.1855 A3.75,3.75 0 0 1 1326,627.6855 L1333,648.7949 L1418.5,648.7949 A2.5,2.5 0 0 1 1421,651.2949 L1421,854.6855 A2.5,2.5 0 0 1 1418.5,857.1855 L1056.5,857.1855 A2.5,2.5 0 0 1 1054,854.6855 L1054,627.6855 A2.5,2.5 0 0 1 1056.5,625.1855 " fill="none" style="stroke:#000000;stroke-width:1.5;"/><line style="stroke:#000000;stroke-width:1.5;" x1="1054" x2="1333" y1="648.7949" y2="648.7949"/><text fill="#000000" font-family="sans-serif" font-size="14" font-weight="bold" lengthAdjust="spacing" textLength="266" x="1058" y="641.7188">ARMAZEM Application Business Rules</text></g><!--MD5=[4e93c187db4150bd7351771acfc3c48d]
cluster ARMAZEM Enterprise Business Rules--><g id="cluster_ARMAZEM Enterprise Business Rules"><path d="M1121.5,733.1855 L1384.5,733.1855 A3.75,3.75 0 0 1 1387,735.6855 L1394,756.7949 L1394.5,756.7949 A2.5,2.5 0 0 1 1397,759.2949 L1397,830.6855 A2.5,2.5 0 0 1 1394.5,833.1855 L1121.5,833.1855 A2.5,2.5 0 0 1 1119,830.6855 L1119,735.6855 A2.5,2.5 0 0 1 1121.5,733.1855 " fill="none" style="stroke:#000000;stroke-width:1.5;"/><line style="stroke:#000000;stroke-width:1.5;" x1="1119" x2="1394" y1="756.7949" y2="756.7949"/><text fill="#000000" font-family="sans-serif" font-size="14" font-weight="bold" lengthAdjust="spacing" textLength="262" x="1123" y="749.7188">ARMAZEM Enterprise Business Rules</text></g><!--MD5=[ac45640be187818f3a1d3805aed968cb]
cluster logistica--><g id="cluster_logistica"><rect fill="none" height="876" rx="2.5" ry="2.5" style="stroke:#181818;stroke-width:1.0;" width="734" x="39" y="181.1855"/><rect fill="none" height="10" style="stroke:#181818;stroke-width:1.0;" width="15" x="753" y="186.1855"/><rect fill="none" height="2" style="stroke:#181818;stroke-width:1.0;" width="4" x="751" y="188.1855"/><rect fill="none" height="2" style="stroke:#181818;stroke-width:1.0;" width="4" x="751" y="192.1855"/><text fill="#000000" font-family="sans-serif" font-size="14" font-weight="bold" lengthAdjust="spacing" textLength="74" x="369" y="208.7188">LOGISTICA</text></g><!--MD5=[8fe2aa05149244fadf4a48c5c523dd2e]
cluster Frameworks and Drivers Layer--><g id="cluster_Frameworks and Drivers Layer"><path d="M73.5,233.1855 L288.5,233.1855 A3.75,3.75 0 0 1 291,235.6855 L298,256.7949 L730.5,256.7949 A2.5,2.5 0 0 1 733,259.2949 L733,1022.6855 A2.5,2.5 0 0 1 730.5,1025.1855 L73.5,1025.1855 A2.5,2.5 0 0 1 71,1022.6855 L71,235.6855 A2.5,2.5 0 0 1 73.5,233.1855 " fill="none" style="stroke:#000000;stroke-width:1.5;"/><line style="stroke:#000000;stroke-width:1.5;" x1="71" x2="298" y1="256.7949" y2="256.7949"/><text fill="#000000" font-family="sans-serif" font-size="14" font-weight="bold" lengthAdjust="spacing" textLength="214" x="75" y="249.7188">Frameworks and Drivers Layer</text></g><!--MD5=[21f81540a0d7e332e3ef41dd8da589c3]
cluster Interfaces Adapters Layer--><g id="cluster_Interfaces Adapters Layer"><path d="M456.5,393.1855 L637.5,393.1855 A3.75,3.75 0 0 1 640,395.6855 L647,416.7949 L706.5,416.7949 A2.5,2.5 0 0 1 709,419.2949 L709,830.6855 A2.5,2.5 0 0 1 706.5,833.1855 L456.5,833.1855 A2.5,2.5 0 0 1 454,830.6855 L454,395.6855 A2.5,2.5 0 0 1 456.5,393.1855 " fill="none" style="stroke:#000000;stroke-width:1.5;"/><line style="stroke:#000000;stroke-width:1.5;" x1="454" x2="647" y1="416.7949" y2="416.7949"/><text fill="#000000" font-family="sans-serif" font-size="14" font-weight="bold" lengthAdjust="spacing" textLength="180" x="458" y="409.7188">Interfaces Adapters Layer</text></g><!--MD5=[b8393d82f2444e332493eabe5d0dc1af]
cluster Application Business Rules--><g id="cluster_Application Business Rules"><path d="M480.5,501.1855 L672.5,501.1855 A3.75,3.75 0 0 1 675,503.6855 L682,524.7949 L682.5,524.7949 A2.5,2.5 0 0 1 685,527.2949 L685,598.6855 A2.5,2.5 0 0 1 682.5,601.1855 L480.5,601.1855 A2.5,2.5 0 0 1 478,598.6855 L478,503.6855 A2.5,2.5 0 0 1 480.5,501.1855 " fill="none" style="stroke:#000000;stroke-width:1.5;"/><line style="stroke:#000000;stroke-width:1.5;" x1="478" x2="682" y1="524.7949" y2="524.7949"/><text fill="#000000" font-family="sans-serif" font-size="14" font-weight="bold" lengthAdjust="spacing" textLength="191" x="482" y="517.7188">Application Business Rules</text></g><!--MD5=[fdded0eb0050d8dc91ab4a1c8d8f2292]
cluster Enterprise Business Rules--><g id="cluster_Enterprise Business Rules"><path d="M107.5,733.1855 L295.5,733.1855 A3.75,3.75 0 0 1 298,735.6855 L305,756.7949 L305.5,756.7949 A2.5,2.5 0 0 1 308,759.2949 L308,830.6855 A2.5,2.5 0 0 1 305.5,833.1855 L107.5,833.1855 A2.5,2.5 0 0 1 105,830.6855 L105,735.6855 A2.5,2.5 0 0 1 107.5,733.1855 " fill="none" style="stroke:#000000;stroke-width:1.5;"/><line style="stroke:#000000;stroke-width:1.5;" x1="105" x2="305" y1="756.7949" y2="756.7949"/><text fill="#000000" font-family="sans-serif" font-size="14" font-weight="bold" lengthAdjust="spacing" textLength="187" x="109" y="749.7188">Enterprise Business Rules</text></g><text fill="#000000" font-family="sans-serif" font-size="14" lengthAdjust="spacing" textLength="16" x="943" y="22.1094">p1</text><rect fill="#F1F1F1" height="12" style="stroke:#181818;stroke-width:1.5;" width="12" x="945" y="37.1855"/><!--MD5=[33573e971ff506c0f246109ca3fd77bd]
entity spa--><g id="elem_spa"><rect fill="#F1F1F1" height="47.6094" rx="2.5" ry="2.5" style="stroke:#181818;stroke-width:0.5;" width="67" x="778.5" y="109.1855"/><rect fill="#F1F1F1" height="10" style="stroke:#181818;stroke-width:0.5;" width="15" x="825.5" y="114.1855"/><rect fill="#F1F1F1" height="2" style="stroke:#181818;stroke-width:0.5;" width="4" x="823.5" y="116.1855"/><rect fill="#F1F1F1" height="2" style="stroke:#181818;stroke-width:0.5;" width="4" x="823.5" y="120.1855"/><text fill="#000000" font-family="sans-serif" font-size="14" lengthAdjust="spacing" textLength="27" x="793.5" y="143.7188">SPA</text></g><!--MD5=[1f5f572fc467ae50c4f6423dcfedb84d]
entity planeamento--><g id="elem_planeamento"><rect fill="#F1F1F1" height="47.6094" rx="2.5" ry="2.5" style="stroke:#181818;stroke-width:0.5;" width="142" x="797" y="429.1855"/><rect fill="#F1F1F1" height="10" style="stroke:#181818;stroke-width:0.5;" width="15" x="919" y="434.1855"/><rect fill="#F1F1F1" height="2" style="stroke:#181818;stroke-width:0.5;" width="4" x="917" y="436.1855"/><rect fill="#F1F1F1" height="2" style="stroke:#181818;stroke-width:0.5;" width="4" x="917" y="440.1855"/><text fill="#000000" font-family="sans-serif" font-size="14" lengthAdjust="spacing" textLength="102" x="812" y="463.7188">PLANEAMENTO</text></g><!--MD5=[fda0fb1c8bcdcd234fbe0e273fcd1624]
entity wrouting--><g id="elem_wrouting"><rect fill="#F1F1F1" height="47.6094" rx="2.5" ry="2.5" style="stroke:#181818;stroke-width:0.5;" width="160" x="1037" y="429.1855"/><rect fill="#F1F1F1" height="10" style="stroke:#181818;stroke-width:0.5;" width="15" x="1177" y="434.1855"/><rect fill="#F1F1F1" height="2" style="stroke:#181818;stroke-width:0.5;" width="4" x="1175" y="436.1855"/><rect fill="#F1F1F1" height="2" style="stroke:#181818;stroke-width:0.5;" width="4" x="1175" y="440.1855"/><text fill="#000000" font-family="sans-serif" font-size="14" lengthAdjust="spacing" textLength="120" x="1052" y="463.7188">ARMAZEM Routing</text></g><!--MD5=[7bdf90a8711dd2a731e367a835f685be]
entity wpersistence--><g id="elem_wpersistence"><rect fill="#F1F1F1" height="47.6094" rx="2.5" ry="2.5" style="stroke:#181818;stroke-width:0.5;" width="185" x="1651.5" y="769.1855"/><rect fill="#F1F1F1" height="10" style="stroke:#181818;stroke-width:0.5;" width="15" x="1816.5" y="774.1855"/><rect fill="#F1F1F1" height="2" style="stroke:#181818;stroke-width:0.5;" width="4" x="1814.5" y="776.1855"/><rect fill="#F1F1F1" height="2" style="stroke:#181818;stroke-width:0.5;" width="4" x="1814.5" y="780.1855"/><text fill="#000000" font-family="sans-serif" font-size="14" lengthAdjust="spacing" textLength="145" x="1666.5" y="803.7188">ARMAZEM Persistence</text></g><!--MD5=[59053c15f5c221acac683a13aca88133]
entity wcontroller--><g id="elem_wcontroller"><rect fill="#F1F1F1" height="47.6094" rx="2.5" ry="2.5" style="stroke:#181818;stroke-width:0.5;" width="173" x="1054.5" y="537.1855"/><rect fill="#F1F1F1" height="10" style="stroke:#181818;stroke-width:0.5;" width="15" x="1207.5" y="542.1855"/><rect fill="#F1F1F1" height="2" style="stroke:#181818;stroke-width:0.5;" width="4" x="1205.5" y="544.1855"/><rect fill="#F1F1F1" height="2" style="stroke:#181818;stroke-width:0.5;" width="4" x="1205.5" y="548.1855"/><text fill="#000000" font-family="sans-serif" font-size="14" lengthAdjust="spacing" textLength="133" x="1069.5" y="571.7188">ARMAZEM Controller</text></g><!--MD5=[96a25a637f084bb307284ef5214e5cda]
entity wrepository--><g id="elem_wrepository"><rect fill="#F1F1F1" height="47.6094" rx="2.5" ry="2.5" style="stroke:#181818;stroke-width:0.5;" width="179" x="1439.5" y="661.1855"/><rect fill="#F1F1F1" height="10" style="stroke:#181818;stroke-width:0.5;" width="15" x="1598.5" y="666.1855"/><rect fill="#F1F1F1" height="2" style="stroke:#181818;stroke-width:0.5;" width="4" x="1596.5" y="668.1855"/><rect fill="#F1F1F1" height="2" style="stroke:#181818;stroke-width:0.5;" width="4" x="1596.5" y="672.1855"/><text fill="#000000" font-family="sans-serif" font-size="14" lengthAdjust="spacing" textLength="139" x="1454.5" y="695.7188">ARMAZEM Repository</text></g><!--MD5=[326b991456ce8a9f7d7581b34c15b189]
entity wmapper--><g id="elem_wmapper"><rect fill="#F1F1F1" height="47.6094" rx="2.5" ry="2.5" style="stroke:#181818;stroke-width:0.5;" width="159" x="1437.5" y="769.1855"/><rect fill="#F1F1F1" height="10" style="stroke:#181818;stroke-width:0.5;" width="15" x="1576.5" y="774.1855"/><rect fill="#F1F1F1" height="2" style="stroke:#181818;stroke-width:0.5;" width="4" x="1574.5" y="776.1855"/><rect fill="#F1F1F1" height="2" style="stroke:#181818;stroke-width:0.5;" width="4" x="1574.5" y="780.1855"/><text fill="#000000" font-family="sans-serif" font-size="14" lengthAdjust="spacing" textLength="119" x="1452.5" y="803.7188">ARMAZEM Mapper</text></g><!--MD5=[d776c6cbf997224155c0d772366a7a8e]
entity wservice--><g id="elem_wservice"><rect fill="#F1F1F1" height="47.6094" rx="2.5" ry="2.5" style="stroke:#181818;stroke-width:0.5;" width="158" x="1070" y="661.1855"/><rect fill="#F1F1F1" height="10" style="stroke:#181818;stroke-width:0.5;" width="15" x="1208" y="666.1855"/><rect fill="#F1F1F1" height="2" style="stroke:#181818;stroke-width:0.5;" width="4" x="1206" y="668.1855"/><rect fill="#F1F1F1" height="2" style="stroke:#181818;stroke-width:0.5;" width="4" x="1206" y="672.1855"/><text fill="#000000" font-family="sans-serif" font-size="14" lengthAdjust="spacing" textLength="118" x="1085" y="695.7188">ARMAZEM Service</text></g><!--MD5=[2eeb796f834fcee726c1f6e41b689826]
entity wdto--><g id="elem_wdto"><rect fill="#F1F1F1" height="47.6094" rx="2.5" ry="2.5" style="stroke:#181818;stroke-width:0.5;" width="141" x="1263.5" y="661.1855"/><rect fill="#F1F1F1" height="10" style="stroke:#181818;stroke-width:0.5;" width="15" x="1384.5" y="666.1855"/><rect fill="#F1F1F1" height="2" style="stroke:#181818;stroke-width:0.5;" width="4" x="1382.5" y="668.1855"/><rect fill="#F1F1F1" height="2" style="stroke:#181818;stroke-width:0.5;" width="4" x="1382.5" y="672.1855"/><text fill="#000000" font-family="sans-serif" font-size="14" lengthAdjust="spacing" textLength="101" x="1278.5" y="695.7188">ARMAZEM DTO</text></g><!--MD5=[42b909a46b4cc278587e64a378ebc49e]
entity wdomain--><g id="elem_wdomain"><rect fill="#F1F1F1" height="47.6094" rx="2.5" ry="2.5" style="stroke:#181818;stroke-width:0.5;" width="159" x="1221.5" y="769.1855"/><rect fill="#F1F1F1" height="10" style="stroke:#181818;stroke-width:0.5;" width="15" x="1360.5" y="774.1855"/><rect fill="#F1F1F1" height="2" style="stroke:#181818;stroke-width:0.5;" width="4" x="1358.5" y="776.1855"/><rect fill="#F1F1F1" height="2" style="stroke:#181818;stroke-width:0.5;" width="4" x="1358.5" y="780.1855"/><text fill="#000000" font-family="sans-serif" font-size="14" lengthAdjust="spacing" textLength="119" x="1236.5" y="803.7188">ARMAZEM Domain</text></g><!--MD5=[54409d5519d7646972cabb5538a3d297]
entity routing--><g id="elem_routing"><rect fill="#F1F1F1" height="47.6094" rx="2.5" ry="2.5" style="stroke:#181818;stroke-width:0.5;" width="89" x="532.5" y="269.1855"/><rect fill="#F1F1F1" height="10" style="stroke:#181818;stroke-width:0.5;" width="15" x="601.5" y="274.1855"/><rect fill="#F1F1F1" height="2" style="stroke:#181818;stroke-width:0.5;" width="4" x="599.5" y="276.1855"/><rect fill="#F1F1F1" height="2" style="stroke:#181818;stroke-width:0.5;" width="4" x="599.5" y="280.1855"/><text fill="#000000" font-family="sans-serif" font-size="14" lengthAdjust="spacing" textLength="49" x="547.5" y="303.7188">Routing</text></g><!--MD5=[c41e46d883680b688171592e8ab5fcf6]
entity persistence--><g id="elem_persistence"><rect fill="#F1F1F1" height="47.6094" rx="2.5" ry="2.5" style="stroke:#181818;stroke-width:0.5;" width="114" x="324" y="769.1855"/><rect fill="#F1F1F1" height="10" style="stroke:#181818;stroke-width:0.5;" width="15" x="418" y="774.1855"/><rect fill="#F1F1F1" height="2" style="stroke:#181818;stroke-width:0.5;" width="4" x="416" y="776.1855"/><rect fill="#F1F1F1" height="2" style="stroke:#181818;stroke-width:0.5;" width="4" x="416" y="780.1855"/><text fill="#000000" font-family="sans-serif" font-size="14" lengthAdjust="spacing" textLength="74" x="339" y="803.7188">Persistence</text></g><!--MD5=[db8c2b8734ce843b840728726fa2f232]
entity dto--><g id="elem_dto"><rect fill="#F1F1F1" height="47.6094" rx="2.5" ry="2.5" style="stroke:#181818;stroke-width:0.5;" width="70" x="288" y="961.1855"/><rect fill="#F1F1F1" height="10" style="stroke:#181818;stroke-width:0.5;" width="15" x="338" y="966.1855"/><rect fill="#F1F1F1" height="2" style="stroke:#181818;stroke-width:0.5;" width="4" x="336" y="968.1855"/><rect fill="#F1F1F1" height="2" style="stroke:#181818;stroke-width:0.5;" width="4" x="336" y="972.1855"/><text fill="#000000" font-family="sans-serif" font-size="14" lengthAdjust="spacing" textLength="30" x="303" y="995.7188">DTO</text></g><!--MD5=[c05fcadc036a699206cfdfa4a4fdb889]
entity controller--><g id="elem_controller"><rect fill="#F1F1F1" height="47.6094" rx="2.5" ry="2.5" style="stroke:#181818;stroke-width:0.5;" width="102" x="487" y="429.1855"/><rect fill="#F1F1F1" height="10" style="stroke:#181818;stroke-width:0.5;" width="15" x="569" y="434.1855"/><rect fill="#F1F1F1" height="2" style="stroke:#181818;stroke-width:0.5;" width="4" x="567" y="436.1855"/><rect fill="#F1F1F1" height="2" style="stroke:#181818;stroke-width:0.5;" width="4" x="567" y="440.1855"/><text fill="#000000" font-family="sans-serif" font-size="14" lengthAdjust="spacing" textLength="62" x="502" y="463.7188">Controller</text></g><!--MD5=[24b005fcbd1feaad7f7dedc55a678d14]
entity repository--><g id="elem_repository"><rect fill="#F1F1F1" height="47.6094" rx="2.5" ry="2.5" style="stroke:#181818;stroke-width:0.5;" width="108" x="470" y="661.1855"/><rect fill="#F1F1F1" height="10" style="stroke:#181818;stroke-width:0.5;" width="15" x="558" y="666.1855"/><rect fill="#F1F1F1" height="2" style="stroke:#181818;stroke-width:0.5;" width="4" x="556" y="668.1855"/><rect fill="#F1F1F1" height="2" style="stroke:#181818;stroke-width:0.5;" width="4" x="556" y="672.1855"/><text fill="#000000" font-family="sans-serif" font-size="14" lengthAdjust="spacing" textLength="68" x="485" y="695.7188">Repository</text></g><!--MD5=[4012916fe198bc3f9df72b2cceb048ac]
entity mapper--><g id="elem_mapper"><rect fill="#F1F1F1" height="47.6094" rx="2.5" ry="2.5" style="stroke:#181818;stroke-width:0.5;" width="88" x="480" y="769.1855"/><rect fill="#F1F1F1" height="10" style="stroke:#181818;stroke-width:0.5;" width="15" x="548" y="774.1855"/><rect fill="#F1F1F1" height="2" style="stroke:#181818;stroke-width:0.5;" width="4" x="546" y="776.1855"/><rect fill="#F1F1F1" height="2" style="stroke:#181818;stroke-width:0.5;" width="4" x="546" y="780.1855"/><text fill="#000000" font-family="sans-serif" font-size="14" lengthAdjust="spacing" textLength="48" x="495" y="803.7188">Mapper</text></g><!--MD5=[38bfa9dc6018363cafe15f923a4b8db9]
entity service--><g id="elem_service"><rect fill="#F1F1F1" height="47.6094" rx="2.5" ry="2.5" style="stroke:#181818;stroke-width:0.5;" width="87" x="494.5" y="537.1855"/><rect fill="#F1F1F1" height="10" style="stroke:#181818;stroke-width:0.5;" width="15" x="561.5" y="542.1855"/><rect fill="#F1F1F1" height="2" style="stroke:#181818;stroke-width:0.5;" width="4" x="559.5" y="544.1855"/><rect fill="#F1F1F1" height="2" style="stroke:#181818;stroke-width:0.5;" width="4" x="559.5" y="548.1855"/><text fill="#000000" font-family="sans-serif" font-size="14" lengthAdjust="spacing" textLength="47" x="509.5" y="571.7188">Service</text></g><!--MD5=[8890788e37b11dd3053f547e2b5ce265]
entity domain--><g id="elem_domain"><rect fill="#F1F1F1" height="47.6094" rx="2.5" ry="2.5" style="stroke:#181818;stroke-width:0.5;" width="88" x="201" y="769.1855"/><rect fill="#F1F1F1" height="10" style="stroke:#181818;stroke-width:0.5;" width="15" x="269" y="774.1855"/><rect fill="#F1F1F1" height="2" style="stroke:#181818;stroke-width:0.5;" width="4" x="267" y="776.1855"/><rect fill="#F1F1F1" height="2" style="stroke:#181818;stroke-width:0.5;" width="4" x="267" y="780.1855"/><text fill="#000000" font-family="sans-serif" font-size="14" lengthAdjust="spacing" textLength="48" x="216" y="803.7188">Domain</text></g><!--MD5=[84a11881cad019630ec264c1ccbfbd24]
link p1 to routing--><g id="link_p1_routing"><path d="M944.83,44.7955 C907.98,48.5155 716.96,69.1255 669,101.1855 C612.84,138.7355 589.92,220.6155 581.44,263.9655 " fill="none" id="p1-to-routing" style="stroke:#181818;stroke-width:1.0;"/><polygon fill="#181818" points="580.48,269.0555,586.0815,260.9547,581.4083,264.1425,578.2206,259.4694,580.48,269.0555" style="stroke:#181818;stroke-width:1.0;"/></g><!--MD5=[7d6c0fbcaf7253afa5d67fcdf6f49935]
link routing to controller--><g id="link_routing_controller"><path d="M571.25,317.4955 C563.85,347.4555 551.09,399.1555 543.71,429.0355 " fill="none" id="routing-controller" style="stroke:#181818;stroke-width:1.0;"/><path d="M566.0323,368.1254 A10,10 0 0 0 552.3023 364.7358" fill="none" style="stroke:#181818;stroke-width:1.5;"/><ellipse cx="557.4725" cy="373.2955" fill="#FFFFFF" rx="6" ry="6" style="stroke:#181818;stroke-width:1.5;"/></g><!--MD5=[7e32a097be010eedbcd0f8c178ded199]
link controller to service--><g id="link_controller_service"><path d="M538,477.1855 C538,494.8455 538,519.1255 538,536.8655 " fill="none" id="controller-service" style="stroke:#181818;stroke-width:1.0;"/><path d="M545.0711,499.9245 A10,10 0 0 0 530.9289 499.9245" fill="none" style="stroke:#181818;stroke-width:1.5;"/><ellipse cx="538" cy="506.9955" fill="#FFFFFF" rx="6" ry="6" style="stroke:#181818;stroke-width:1.5;"/></g><!--MD5=[95af60e6d793701562f73311d2ec55eb]
link controller to dto--><g id="link_controller_dto"><path d="M486.96,475.0255 C405.14,511.6055 247.49,595.9955 185,725.1855 C140.87,816.4055 121.68,874.0655 185,953.1855 C197.66,969.0055 251.33,977.3055 287.88,981.2155 " fill="none" id="controller-dto" style="stroke:#181818;stroke-width:1.0;"/><path d="M338.6095,566.9324 A10,10 0 0 0 330.2868 555.4985" fill="none" style="stroke:#181818;stroke-width:1.5;"/><ellipse cx="328.7313" cy="565.3768" fill="#FFFFFF" rx="6" ry="6" style="stroke:#181818;stroke-width:1.5;"/></g><!--MD5=[868a81ec62f7ffb5c8ad3d4c697bcfae]
link mapper to dto--><g id="link_mapper_dto"><path d="M524.02,817.2155 C522.73,852.0355 514.9,917.7555 476,953.1855 C459.07,968.6055 397.81,977.1755 358.13,981.2255 " fill="none" id="mapper-dto" style="stroke:#181818;stroke-width:1.0;"/><path d="M485.9891,953.6519 A10,10 0 0 0 476.4663 943.1964" fill="none" style="stroke:#181818;stroke-width:1.5;"/><ellipse cx="476" cy="953.1855" fill="#FFFFFF" rx="6" ry="6" style="stroke:#181818;stroke-width:1.5;"/></g><!--MD5=[97bdd0d48051b8f91e5ed95c1617cb6b]
link service to mapper--><g id="link_service_mapper"><path d="M571.48,585.4455 C581.27,594.1555 590.74,604.9455 596,617.1855 C612.15,654.7555 610.3,670.8755 596,709.1855 C587.26,732.5955 568.61,753.7855 552.48,768.8855 " fill="none" id="service-mapper" style="stroke:#181818;stroke-width:1.0;"/><path d="M605.0974,705.0337 A10,10 0 0 0 591.8482 700.0882" fill="none" style="stroke:#181818;stroke-width:1.5;"/><ellipse cx="596" cy="709.1855" fill="#FFFFFF" rx="6" ry="6" style="stroke:#181818;stroke-width:1.5;"/></g><!--MD5=[108071491d6574585b4e8a44c7f12a19]
link service to repository--><g id="link_service_repository"><path d="M535.33,585.4155 C532.84,607.1255 529.14,639.3555 526.66,661.0355 " fill="none" id="service-repository" style="stroke:#181818;stroke-width:1.0;"/><path d="M538.822,617.0175 A10,10 0 0 0 524.772 615.406" fill="none" style="stroke:#181818;stroke-width:1.5;"/><ellipse cx="530.9913" cy="623.2368" fill="#FFFFFF" rx="6" ry="6" style="stroke:#181818;stroke-width:1.5;"/></g><!--MD5=[ac0eb164107392e77d3d99ee321a72f2]
link service to domain--><g id="link_service_domain"><path d="M519.56,585.6555 C511.64,594.2655 501.74,603.3255 491,609.1855 C476.23,617.2355 469.27,610.1155 454,617.1855 C393.01,645.4155 392.55,676.1955 334,709.1855 C316.96,718.7855 308.45,713.1855 293,725.1855 C277.86,736.9555 265.42,754.7555 257,769.0555 " fill="none" id="service-domain" style="stroke:#181818;stroke-width:1.0;"/><path d="M403.0845,661.3052 A10,10 0 0 0 392.9896 651.401" fill="none" style="stroke:#181818;stroke-width:1.5;"/><ellipse cx="393.085" cy="661.4005" fill="#FFFFFF" rx="6" ry="6" style="stroke:#181818;stroke-width:1.5;"/></g><!--MD5=[3b67438aa90e80f3b612a0325148951d]
link repository to persistence--><g id="link_repository_persistence"><path d="M478.97,709.2155 C470.45,714.1455 461.78,719.5655 454,725.1855 C435.87,738.2755 417.33,755.3555 403.47,768.9855 " fill="none" id="repository-persistence" style="stroke:#181818;stroke-width:1.0;"/><path d="M437.1139,747.512 A10,10 0 0 0 427.7627 736.9028" fill="none" style="stroke:#181818;stroke-width:1.5;"/><ellipse cx="427.1338" cy="746.883" fill="#FFFFFF" rx="6" ry="6" style="stroke:#181818;stroke-width:1.5;"/></g><!--MD5=[7081cdce0f044b6e930c56b8e9e9a197]
link repository to domain--><g id="link_repository_domain"><path d="M469.95,693.1055 C406.44,701.5855 307.79,715.9455 293,725.1855 C276.37,735.5655 263.79,754.0255 255.69,768.9455 " fill="none" id="repository-domain" style="stroke:#181818;stroke-width:1.0;"/><path d="M371.3527,714.6584 A10,10 0 0 0 369.0028 700.7128" fill="none" style="stroke:#181818;stroke-width:1.5;"/><ellipse cx="363.205" cy="708.8605" fill="#FFFFFF" rx="6" ry="6" style="stroke:#181818;stroke-width:1.5;"/></g><!--MD5=[cd435c2117e9a97c87b3b6818b2272d0]
link repository to mapper--><g id="link_repository_mapper"><path d="M524,709.1855 C524,726.8455 524,751.1255 524,768.8655 " fill="none" id="repository-mapper" style="stroke:#181818;stroke-width:1.0;"/><path d="M531.0711,731.9245 A10,10 0 0 0 516.9289 731.9245" fill="none" style="stroke:#181818;stroke-width:1.5;"/><ellipse cx="524" cy="738.9955" fill="#FFFFFF" rx="6" ry="6" style="stroke:#181818;stroke-width:1.5;"/></g><!--MD5=[a06cd5159d8ee0a32708e1f6a8aa59d9]
link spa to armazem--><g id="link_spa_armazem"><path d="M820.29,157.2255 C835.75,196.6755 872.85,276.8155 932,317.1855 C946.25,326.9155 958.92,311.9555 970,325.1855 C972.2313,327.8487 974.2031,330.6648 975.939,333.605 C976.8069,335.0752 977.6159,336.5763 978.3688,338.1049 C978.7453,338.8691 979.1077,339.6403 979.4565,340.4178 C979.5437,340.6122 979.63,340.807 979.7155,341.0021 " fill="none" id="spa-armazem" style="stroke:#181818;stroke-width:1.0;"/><path d="M862.0465,227.1252 A10,10 0 0 0 850.0259 234.5753" fill="none" style="stroke:#181818;stroke-width:1.5;"/><ellipse cx="859.7613" cy="236.8605" fill="#FFFFFF" rx="6" ry="6" style="stroke:#181818;stroke-width:1.5;"/></g><!--MD5=[78080dda50258effdf878c4f94d94870]
link spa to logistica--><g id="link_spa_logistica"><path d="M778.46,155.6355 C773.98,159.1455 770.43,162.5055 769,165.1855 C767.3688,168.253 765.9231,171.4238 764.6463,174.6736 C764.008,176.2984 763.4118,177.9431 762.8558,179.6044 C762.7168,180.0197 762.5804,180.4361 762.4463,180.8534 " fill="none" id="spa-logistica" style="stroke:#181818;stroke-width:1.0;"/><path d="M778.5673,162.2758 A10,10 0 0 0 766.0902 155.6182" fill="none" style="stroke:#181818;stroke-width:1.5;"/><ellipse cx="769" cy="165.1855" fill="#FFFFFF" rx="6" ry="6" style="stroke:#181818;stroke-width:1.5;"/></g><!--MD5=[af0bca1080e6c9b8724580f561420292]
link logistica to planeamento--><g id="link_logistica_planeamento"><path d="M773.1498,326.3629 C773.3118,326.702 773.4747,327.0409 773.6385,327.3797 C773.9661,328.0573 774.2971,328.7344 774.6315,329.4109 C775.3004,330.764 775.9827,332.1147 776.6777,333.4627 C779.4576,338.8545 782.4395,344.2015 785.5678,349.4712 C791.8244,360.0105 798.6663,370.2405 805.6475,379.9005 C819.61,399.2205 834.13,416.2605 845.64,428.9355 " fill="none" id="logistica-planeamento" style="stroke:#181818;stroke-width:1.0;"/><path d="M807.2367,370.0276 A10,10 0 0 0 795.7746 378.3113" fill="none" style="stroke:#181818;stroke-width:1.5;"/><ellipse cx="805.6475" cy="379.9005" fill="#FFFFFF" rx="6" ry="6" style="stroke:#181818;stroke-width:1.5;"/></g><!--MD5=[f805087b7df35dab3d893954831a4e61]
link logistica to armazem--><g id="link_logistica_armazem"><path d="M773.0701,319.2782 C773.324,319.3631 773.5861,319.4459 773.8562,319.5268 C776.0177,320.1738 778.6972,320.6936 781.8203,321.1046 C788.0666,321.9267 796.0875,322.3138 805.2888,322.4138 C823.6913,322.614 846.815,321.6662 869.905,320.7543 C916.085,318.9305 962.13,317.2505 970,325.1855 C972.4463,327.6524 974.6066,330.2965 976.5071,333.0866 C977.4573,334.4816 978.3425,335.9132 979.166,337.3774 C979.5778,338.1095 979.9741,338.8497 980.3554,339.5977 C980.546,339.9716 980.7329,340.3475 980.9161,340.7252 " fill="none" id="logistica-armazem" style="stroke:#181818;stroke-width:1.0;"/><path d="M862.5604,313.9678 A10,10 0 0 0 863.1185 328.0989" fill="none" style="stroke:#181818;stroke-width:1.5;"/><ellipse cx="869.905" cy="320.7543" fill="#FFFFFF" rx="6" ry="6" style="stroke:#181818;stroke-width:1.5;"/></g><!--MD5=[3084e32594a7f06bafbbf96c223700a0]
link p1 to wrouting--><g id="link_p1_wrouting"><path d="M957.23,46.3655 C973.39,52.3355 1016.81,70.6155 1038,101.1855 C1109.12,203.7955 1117.34,360.1555 1117.53,423.7755 " fill="none" id="p1-to-wrouting" style="stroke:#181818;stroke-width:1.0;"/><polygon fill="#181818" points="1117.53,428.9155,1121.53,419.9155,1117.53,423.9155,1113.53,419.9155,1117.53,428.9155" style="stroke:#181818;stroke-width:1.0;"/></g><!--MD5=[fd2da9c32fbd198657ffa54f482e6bff]
link wrouting to wcontroller--><g id="link_wrouting_wcontroller"><path d="M1122.21,477.1855 C1126.21,494.8455 1131.7,519.1255 1135.72,536.8655 " fill="none" id="wrouting-wcontroller" style="stroke:#181818;stroke-width:1.0;"/><path d="M1134.2935,498.5382 A10,10 0 0 0 1120.5001 501.6596" fill="none" style="stroke:#181818;stroke-width:1.5;"/><ellipse cx="1128.9575" cy="506.9955" fill="#FFFFFF" rx="6" ry="6" style="stroke:#181818;stroke-width:1.5;"/></g><!--MD5=[8ae660df7a187fc2d5c8ba3bd61eab66]
link wcontroller to wservice--><g id="link_wcontroller_wservice"><path d="M1142.52,585.4155 C1143.95,607.1255 1146.06,639.3555 1147.48,661.0355 " fill="none" id="wcontroller-wservice" style="stroke:#181818;stroke-width:1.0;"/><path d="M1151.5971,615.7183 A10,10 0 0 0 1137.4853 616.6434" fill="none" style="stroke:#181818;stroke-width:1.5;"/><ellipse cx="1145.0038" cy="623.2368" fill="#FFFFFF" rx="6" ry="6" style="stroke:#181818;stroke-width:1.5;"/></g><!--MD5=[171184677893c242354eacc51e5f405d]
link wmapper to wdto--><g id="link_wmapper_wdto"><path d="M1477.05,769.0455 C1446.4,751.2955 1404.3,726.9055 1373.71,709.1855 " fill="none" id="wmapper-wdto" style="stroke:#181818;stroke-width:1.0;"/><path d="M1427.9317,748.7673 A10,10 0 0 0 1435.0205 736.5301" fill="none" style="stroke:#181818;stroke-width:1.5;"/><ellipse cx="1425.3575" cy="739.1043" fill="#FFFFFF" rx="6" ry="6" style="stroke:#181818;stroke-width:1.5;"/></g><!--MD5=[ba9d40908d5ff1a5068b19c03f899174]
link wmapper to wdomain--><g id="link_wmapper_wdomain"><path d="M1437.42,793.1855 C1418.53,793.1855 1399.63,793.1855 1380.73,793.1855 " fill="none" id="wmapper-wdomain" style="stroke:#181818;stroke-width:1.0;"/><path d="M1416.1498,800.2566 A10,10 0 0 0 1416.1498 786.1145" fill="none" style="stroke:#181818;stroke-width:1.5;"/><ellipse cx="1409.0788" cy="793.1855" fill="#FFFFFF" rx="6" ry="6" style="stroke:#181818;stroke-width:1.5;"/></g><!--MD5=[13b4d92e7741563f568a692cbcf7997a]
link wservice to wmapper--><g id="link_wservice_wmapper"><path d="M1228.24,705.8455 C1234.23,707.0655 1240.2,708.1955 1246,709.1855 C1312.52,720.5455 1332.68,704.7655 1397,725.1855 C1428.5,735.1855 1461.04,753.9755 1484.27,769.1155 " fill="none" id="wservice-wmapper" style="stroke:#181818;stroke-width:1.0;"/><path d="M1315.263,706.7079 A10,10 0 0 0 1315.2448 720.85" fill="none" style="stroke:#181818;stroke-width:1.5;"/><ellipse cx="1322.325" cy="713.788" fill="#FFFFFF" rx="6" ry="6" style="stroke:#181818;stroke-width:1.5;"/></g><!--MD5=[5e42d364769d7b2ac87005e24fca36a0]
link wservice to wrepository--><g id="link_wservice_wrepository"><path d="M1172.78,661.1755 C1194.32,641.8155 1228.03,617.1855 1263.5,613.1855 C1294.41,609.6955 1372.59,609.6955 1403.5,613.1855 C1411.43,614.0755 1413.63,614.1255 1421,617.1855 C1448.22,628.4755 1476.31,646.3955 1497.01,660.9955 " fill="none" id="wservice-wrepository" style="stroke:#181818;stroke-width:1.0;"/><path d="M1326.4289,603.497 A10,10 0 0 0 1326.4289 617.6391" fill="none" style="stroke:#181818;stroke-width:1.5;"/><ellipse cx="1333.5" cy="610.568" fill="#FFFFFF" rx="6" ry="6" style="stroke:#181818;stroke-width:1.5;"/></g><!--MD5=[c8368a3a6289061f830c035f5dc8f4fa]
link wservice to wdomain--><g id="link_wservice_wdomain"><path d="M1181.98,709.1855 C1207.39,726.9055 1242.36,751.2955 1267.82,769.0455 " fill="none" id="wservice-wdomain" style="stroke:#181818;stroke-width:1.0;"/><path d="M1223.126,729.2595 A10,10 0 0 0 1215.0365 740.8595" fill="none" style="stroke:#181818;stroke-width:1.5;"/><ellipse cx="1224.8813" cy="739.1043" fill="#FFFFFF" rx="6" ry="6" style="stroke:#181818;stroke-width:1.5;"/></g><!--MD5=[80d6d81440ec7f475ec32fb2554efd59]
link wrepository to wpersistence--><g id="link_wrepository_wpersistence"><path d="M1597.69,709.1855 C1610.29,714.0455 1623.18,719.4455 1635,725.1855 C1661.18,737.8955 1689.11,755.1355 1710.14,768.9555 " fill="none" id="wrepository-wpersistence" style="stroke:#181818;stroke-width:1.0;"/><path d="M1672.0181,736.9675 A10,10 0 0 0 1664.8144 749.1374" fill="none" style="stroke:#181818;stroke-width:1.5;"/><ellipse cx="1674.5013" cy="746.6543" fill="#FFFFFF" rx="6" ry="6" style="stroke:#181818;stroke-width:1.5;"/></g><!--MD5=[f9f50c20dfbec7ab1e19b229cd0dc425]
link wrepository to wdomain--><g id="link_wrepository_wdomain"><path d="M1439.31,704.3855 C1420.82,709.7955 1401.87,716.6455 1385,725.1855 C1362.53,736.5655 1340.4,754.5755 1324.5,769.0555 " fill="none" id="wrepository-wdomain" style="stroke:#181818;stroke-width:1.0;"/><path d="M1394.5024,728.3007 A10,10 0 0 0 1388.1151 715.6831" fill="none" style="stroke:#181818;stroke-width:1.5;"/><ellipse cx="1385" cy="725.1855" fill="#FFFFFF" rx="6" ry="6" style="stroke:#181818;stroke-width:1.5;"/></g><!--MD5=[143d7190f150a557a41214d64f4b9b42]
link wrepository to wmapper--><g id="link_wrepository_wmapper"><path d="M1526.4,709.1855 C1524.4,726.8455 1521.65,751.1255 1519.64,768.8655 " fill="none" id="wrepository-wmapper" style="stroke:#181818;stroke-width:1.0;"/><path d="M1530.8457,732.7652 A10,10 0 0 0 1516.7934 731.1736" fill="none" style="stroke:#181818;stroke-width:1.5;"/><ellipse cx="1523.0238" cy="738.9955" fill="#FFFFFF" rx="6" ry="6" style="stroke:#181818;stroke-width:1.5;"/></g><!--MD5=[1766b45a5da4cd00d8163ad646aa6043]
@startuml

component EletricGo {
  port p1

  component "SPA" as spa

  component "ARMAZEM" as armazem{
    package "ARMAZEM Frameworks and Drivers Layer" {
        component "ARMAZEM Routing" as wrouting
        component "ARMAZEM Persistence" as wpersistence
        package "ARMAZEM Interfaces Adapters Layer" {
            component "ARMAZEM Controller" as wcontroller
            component "ARMAZEM Repository" as wrepository
            component "ARMAZEM Mapper" as wmapper
            package "ARMAZEM Application Business Rules" {
                component "ARMAZEM Service" as wservice
                component "ARMAZEM DTO" as wdto
                package "ARMAZEM Enterprise Business Rules" {
                    component "ARMAZEM Domain" as wdomain
              }
            }
        }
        
      }
  }

  component "LOGISTICA" as logistica {
      package "Frameworks and Drivers Layer" {
        component "Routing" as routing
        component "Persistence" as persistence
        package "Interfaces Adapters Layer" {
            component "Controller" as controller
            component "Repository" as repository
            component "Mapper" as mapper
            package "Application Business Rules" {
                component "Service" as service
            }
        }
        component "DTO" as dto
        package "Enterprise Business Rules" {
            component "Domain" as domain
        }
      }
  }

  component "PLANEAMENTO" as planeamento


}

p1 -> routing
routing -(0- controller
controller -(0- service
controller -(0- dto

mapper -(0- dto

service -(0- mapper
service -(0- repository
service -(0- domain

repository -(0- persistence
repository -(0- domain
repository -(0- mapper

spa -(0- armazem
spa -(0- logistica
logistica -(0- planeamento
logistica -(0- armazem

p1 -> wrouting
wrouting -(0- wcontroller
wcontroller -(0- wservice

wmapper -(0- wdto
wmapper -(0- wdomain

wservice -(0- wmapper
wservice -(0- wrepository
wservice -(0- wdomain

wrepository -(0- wpersistence
wrepository -(0- wdomain
wrepository -(0- wmapper



@enduml

PlantUML version 1.2022.7(Mon Aug 22 18:01:30 WEST 2022)
(GPL source distribution)
Java Runtime: Java(TM) SE Runtime Environment
JVM: Java HotSpot(TM) 64-Bit Server VM
Default Encoding: Cp1252
Language: pt
Country: PT
--></g></svg>