<?xml version="1.0" encoding="UTF-8" standalone="no"?><svg xmlns="http://www.w3.org/2000/svg" xmlns:xlink="http://www.w3.org/1999/xlink" contentStyleType="text/css" height="604px" preserveAspectRatio="none" style="width:559px;height:604px;background:#FFFFFF;" version="1.1" viewBox="0 0 559 604" width="559px" zoomAndPan="magnify"><defs/><g><!--MD5=[4be5faef1ea6efd927e3579990b77274]
cluster SPA--><g id="cluster_SPA"><polygon fill="none" points="213,16,223,6,542,6,542,220,532,230,213,230,213,16" style="stroke:#181818;stroke-width:1.0;"/><line style="stroke:#181818;stroke-width:1.0;" x1="532" x2="542" y1="16" y2="6"/><line style="stroke:#181818;stroke-width:1.0;" x1="213" x2="532" y1="16" y2="16"/><line style="stroke:#181818;stroke-width:1.0;" x1="532" x2="532" y1="16" y2="230"/><text fill="#000000" font-family="sans-serif" font-size="14" font-weight="bold" lengthAdjust="spacing" textLength="144" x="301.5" y="33.5332">http://localhost:4200/</text><text fill="#000000" font-family="sans-serif" font-size="14" font-weight="bold" lengthAdjust="spacing" textLength="253" x="247" y="51.1426">https://eletric-go.azurewebsites.net/</text><text fill="#000000" font-family="sans-serif" font-size="14" font-weight="bold" lengthAdjust="spacing" textLength="189" x="279" y="68.752">http://vs705.dei.isep.ipp.pt/</text></g><!--MD5=[8699c0c8e953ee53654a072cc875bfb4]
cluster Browser--><g id="cluster_Browser"><rect fill="none" height="100" rx="2.5" ry="2.5" style="stroke:#181818;stroke-width:1.0;" width="116" x="338" y="98"/><rect fill="none" height="10" style="stroke:#181818;stroke-width:1.0;" width="15" x="434" y="103"/><rect fill="none" height="2" style="stroke:#181818;stroke-width:1.0;" width="4" x="432" y="105"/><rect fill="none" height="2" style="stroke:#181818;stroke-width:1.0;" width="4" x="432" y="109"/><text fill="#000000" font-family="sans-serif" font-size="14" font-weight="bold" lengthAdjust="spacing" textLength="59" x="366.5" y="125.5332">Browser</text></g><!--MD5=[ed364d028dba183b2e6cf1b1467fd7c0]
cluster ARM--><g id="cluster_ARM"><polygon fill="none" points="16,306,26,296,192,296,192,407,182,417,16,417,16,306" style="stroke:#181818;stroke-width:1.0;"/><line style="stroke:#181818;stroke-width:1.0;" x1="182" x2="192" y1="306" y2="296"/><line style="stroke:#181818;stroke-width:1.0;" x1="16" x2="182" y1="306" y2="306"/><line style="stroke:#181818;stroke-width:1.0;" x1="182" x2="182" y1="306" y2="417"/><text fill="#000000" font-family="sans-serif" font-size="14" font-weight="bold" lengthAdjust="spacing" textLength="100" x="50" y="323.5332">localhost:5001</text></g><!--MD5=[751f213ad01bb05129de3b099e4c540f]
cluster LOG--><g id="cluster_LOG"><polygon fill="none" points="130,476,140,466,311,466,311,577,301,587,130,587,130,476" style="stroke:#181818;stroke-width:1.0;"/><line style="stroke:#181818;stroke-width:1.0;" x1="301" x2="311" y1="476" y2="466"/><line style="stroke:#181818;stroke-width:1.0;" x1="130" x2="301" y1="476" y2="476"/><line style="stroke:#181818;stroke-width:1.0;" x1="301" x2="301" y1="476" y2="587"/><text fill="#000000" font-family="sans-serif" font-size="14" font-weight="bold" lengthAdjust="spacing" textLength="100" x="166.5" y="493.5332">localhost:3000</text></g><!--MD5=[10e11f6c9940b1f075bee84e520123d5]
cluster PLAN--><g id="cluster_PLAN"><polygon fill="none" points="302,306,312,296,511,296,511,407,501,417,302,417,302,306" style="stroke:#181818;stroke-width:1.0;"/><line style="stroke:#181818;stroke-width:1.0;" x1="501" x2="511" y1="306" y2="296"/><line style="stroke:#181818;stroke-width:1.0;" x1="302" x2="501" y1="306" y2="306"/><line style="stroke:#181818;stroke-width:1.0;" x1="501" x2="501" y1="306" y2="417"/><text fill="#000000" font-family="sans-serif" font-size="14" font-weight="bold" lengthAdjust="spacing" textLength="105" x="350" y="323.5332">PLANEAMENTO</text></g><!--MD5=[806b0e1d6ed9c3fb9ff9da520f9c6718]
entity SPA UI--><g id="elem_SPA UI"><rect fill="#F1F1F1" height="47.6094" rx="2.5" ry="2.5" style="stroke:#181818;stroke-width:0.5;" width="83" x="354.5" y="134"/><rect fill="#F1F1F1" height="10" style="stroke:#181818;stroke-width:0.5;" width="15" x="417.5" y="139"/><rect fill="#F1F1F1" height="2" style="stroke:#181818;stroke-width:0.5;" width="4" x="415.5" y="141"/><rect fill="#F1F1F1" height="2" style="stroke:#181818;stroke-width:0.5;" width="4" x="415.5" y="145"/><text fill="#000000" font-family="sans-serif" font-size="14" lengthAdjust="spacing" textLength="43" x="369.5" y="168.5332">SPA UI</text></g><!--MD5=[a27a38ec435cb20ba72737cfb3068c7c]
entity armazem--><g id="elem_armazem"><rect fill="#F1F1F1" height="47.6094" rx="2.5" ry="2.5" style="stroke:#181818;stroke-width:0.5;" width="107" x="60.5" y="345"/><rect fill="#F1F1F1" height="10" style="stroke:#181818;stroke-width:0.5;" width="15" x="147.5" y="350"/><rect fill="#F1F1F1" height="2" style="stroke:#181818;stroke-width:0.5;" width="4" x="145.5" y="352"/><rect fill="#F1F1F1" height="2" style="stroke:#181818;stroke-width:0.5;" width="4" x="145.5" y="356"/><text fill="#000000" font-family="sans-serif" font-size="14" lengthAdjust="spacing" textLength="67" x="75.5" y="379.5332">ARMAZEM</text></g><!--MD5=[ded1c90f3b0dc0717f28056e292ccb32]
entity logistica--><g id="elem_logistica"><rect fill="#F1F1F1" height="47.6094" rx="2.5" ry="2.5" style="stroke:#181818;stroke-width:0.5;" width="113" x="173.5" y="515"/><rect fill="#F1F1F1" height="10" style="stroke:#181818;stroke-width:0.5;" width="15" x="266.5" y="520"/><rect fill="#F1F1F1" height="2" style="stroke:#181818;stroke-width:0.5;" width="4" x="264.5" y="522"/><rect fill="#F1F1F1" height="2" style="stroke:#181818;stroke-width:0.5;" width="4" x="264.5" y="526"/><text fill="#000000" font-family="sans-serif" font-size="14" lengthAdjust="spacing" textLength="73" x="188.5" y="549.5332">LOGISTICA</text></g><!--MD5=[1f5f572fc467ae50c4f6423dcfedb84d]
entity planeamento--><g id="elem_planeamento"><rect fill="#F1F1F1" height="47.6094" rx="2.5" ry="2.5" style="stroke:#181818;stroke-width:0.5;" width="142" x="345" y="345"/><rect fill="#F1F1F1" height="10" style="stroke:#181818;stroke-width:0.5;" width="15" x="467" y="350"/><rect fill="#F1F1F1" height="2" style="stroke:#181818;stroke-width:0.5;" width="4" x="465" y="352"/><rect fill="#F1F1F1" height="2" style="stroke:#181818;stroke-width:0.5;" width="4" x="465" y="356"/><text fill="#000000" font-family="sans-serif" font-size="14" lengthAdjust="spacing" textLength="102" x="360" y="379.5332">PLANEAMENTO</text></g><!--MD5=[b9fed1ff1269576864ba51ed11a24c40]
link SPA to ARM--><g id="link_SPA_ARM"><path d="M212.5612,170.7359 C212.291,170.8301 212.0197,170.925 211.7474,171.0204 C211.2027,171.2113 210.654,171.4046 210.1012,171.6003 C208.9957,171.9916 207.8741,172.3925 206.7373,172.8031 C204.4638,173.6241 202.1293,174.4837 199.7406,175.3822 C190.1858,178.9764 179.7625,183.1944 168.8925,188.0675 C125.4125,207.56 74.785,237.535 44,280 C41.1563,283.9225 38.7227,288.1855 36.6416,292.6489 C36.3814,293.2069 36.1268,293.7679 35.8776,294.3318 C35.753,294.6138 35.6297,294.8965 35.5078,295.1798 C35.4468,295.3215 35.3862,295.4634 35.3259,295.6054 " fill="none" id="SPA-ARM" style="stroke:#181818;stroke-width:1.0;"/><text fill="#000000" font-family="sans-serif" font-size="13" lengthAdjust="spacing" textLength="22" x="66" y="268.4951">http</text></g><!--MD5=[73d51c373c8f5d5ec974a9f36cf7cb8c]
link SPA to LOG--><g id="link_SPA_LOG"><path d="M248.0962,230.819 C247.8009,233.9334 247.4778,237.1153 247.1244,240.3577 C246.4175,246.8425 245.5894,253.5692 244.62,260.4813 C236.865,315.7775 220.07,382.935 184,433 C175.71,444.51 165.13,438.38 157,450 C154.2213,453.9688 151.8369,458.2667 149.7921,462.756 C149.5365,463.3171 149.2862,463.8813 149.0411,464.4481 C148.9186,464.7316 148.7973,465.0157 148.6774,465.3004 C148.6174,465.4428 148.5577,465.5854 148.4984,465.7281 " fill="none" id="SPA-LOG" style="stroke:#181818;stroke-width:1.0;"/><text fill="#000000" font-family="sans-serif" font-size="13" lengthAdjust="spacing" textLength="22" x="242" y="374.4951">http</text></g><!--MD5=[8ca6dbfc8de0186e20a588027c11313e]
link SPA to PLAN--><g id="link_SPA_PLAN"><path d="M271.2709,230.8074 C271.6976,232.3187 272.1271,233.8401 272.5591,235.3702 C273.423,238.4304 274.2968,241.5254 275.1771,244.6435 C276.9378,250.8798 278.7245,257.2088 280.5113,263.5375 C287.6581,288.8525 294.8041,314.1644 300.2714,333.5306 C300.6131,334.741 300.9483,335.9282 301.2765,337.0907 C301.4405,337.6719 301.6029,338.247 301.7635,338.8157 C301.8036,338.9579 301.8436,339.0997 301.8835,339.2411 " fill="none" id="SPA-PLAN" style="stroke:#181818;stroke-width:1.0;"/></g><!--MD5=[238719e13e7508373a10989677117fb8]
link ARM to LOG--><g id="link_ARM_LOG"><path d="M36.7513,417.252 C36.7921,417.359 36.833,417.466 36.8741,417.573 C36.9562,417.787 37.0388,418.0008 37.1219,418.2144 C37.7868,419.9233 38.4837,421.6213 39.2137,423.2971 C40.6738,426.6489 42.2663,429.9125 44,433 C59.09,459.88 82.0975,485.735 101.5725,505.0625 C111.31,514.7262 120.1644,522.7581 126.7044,528.4703 C127.5219,529.1843 128.3032,529.8621 129.0456,530.5023 C129.2312,530.6624 129.4143,530.82 129.595,530.9754 C129.6854,531.053 129.7751,531.1301 129.8642,531.2066 " fill="none" id="ARM-LOG" style="stroke:#181818;stroke-width:1.0;"/></g><!--MD5=[6bc615250cf07861c6a721cfeae2073e]
@startuml


node "http://localhost:4200/\nhttps://eletric-go.azurewebsites.net/\nhttp://vs705.dei.isep.ipp.pt/" as SPA {
  component Browser {
   [SPA UI]
  }
}

node "localhost:5001" as ARM {
  [ARMAZEM] as armazem
}

node "localhost:3000" as LOG {
  [LOGISTICA] as logistica
}

node "PLANEAMENTO" as PLAN {
  [PLANEAMENTO] as planeamento
}

SPA - - ARM: http
SPA - - LOG: http
SPA - - PLAN
ARM - - LOG

@enduml

PlantUML version 1.2022.7(Mon Aug 22 18:01:30 WEST 2022)
(GPL source distribution)
Java Runtime: Java(TM) SE Runtime Environment
JVM: Java HotSpot(TM) 64-Bit Server VM
Default Encoding: Cp1252
Language: pt
Country: PT
--></g></svg>