<?xml version="1.0" encoding="UTF-8" standalone="no"?><svg xmlns="http://www.w3.org/2000/svg" xmlns:xlink="http://www.w3.org/1999/xlink" contentStyleType="text/css" height="1166px" preserveAspectRatio="none" style="width:1856px;height:1166px;background:#FFFFFF;" version="1.1" viewBox="0 0 1856 1166" width="1856px" zoomAndPan="magnify"><defs/><g><rect fill="#FFFFFF" height="944.6172" style="stroke:#181818;stroke-width:1.0;" width="10" x="373.5" y="114.9609"/><rect fill="#FFFFFF" height="70.0273" style="stroke:#181818;stroke-width:1.0;" width="10" x="378.5" y="183.3398"/><rect fill="#FFFFFF" height="714.6563" style="stroke:#181818;stroke-width:1.0;" width="10" x="378.5" y="296.3945"/><rect fill="#FFFFFF" height="30" style="stroke:#181818;stroke-width:1.0;" width="10" x="672" y="372.9492"/><rect fill="#FFFFFF" height="30" style="stroke:#181818;stroke-width:1.0;" width="10" x="805.5" y="455.6523"/><rect fill="#FFFFFF" height="30" style="stroke:#181818;stroke-width:1.0;" width="10" x="906.5" y="554.1914"/><rect fill="#FFFFFF" height="30" style="stroke:#181818;stroke-width:1.0;" width="10" x="1008" y="660.9063"/><rect fill="#FFFFFF" height="30" style="stroke:#181818;stroke-width:1.0;" width="10" x="1110" y="775.7969"/><rect fill="#FFFFFF" height="30" style="stroke:#181818;stroke-width:1.0;" width="10" x="1211.5" y="882.5117"/><rect fill="#FFFFFF" height="30" style="stroke:#181818;stroke-width:1.0;" width="10" x="1312.5" y="981.0508"/><rect fill="#FFFFFF" height="30" style="stroke:#181818;stroke-width:1.0;" width="10" x="1790" y="223.3672"/><rect fill="none" height="937.6172" style="stroke:#000000;stroke-width:1.5;" width="1840" x="10" y="129.9609"/><rect fill="none" height="709.1563" style="stroke:#000000;stroke-width:1.5;" width="1331" x="278.5" y="321.0703"/><line style="stroke:#181818;stroke-width:0.5;stroke-dasharray:5.0,5.0;" x1="33" x2="33" y1="82.6094" y2="1084.5781"/><line style="stroke:#181818;stroke-width:0.5;stroke-dasharray:5.0,5.0;" x1="378.5" x2="378.5" y1="82.6094" y2="1084.5781"/><line style="stroke:#181818;stroke-width:0.5;stroke-dasharray:5.0,5.0;" x1="535" x2="535" y1="82.6094" y2="1084.5781"/><line style="stroke:#181818;stroke-width:0.5;stroke-dasharray:5.0,5.0;" x1="677" x2="677" y1="82.6094" y2="1084.5781"/><line style="stroke:#181818;stroke-width:0.5;stroke-dasharray:5.0,5.0;" x1="810" x2="810" y1="82.6094" y2="1084.5781"/><line style="stroke:#181818;stroke-width:0.5;stroke-dasharray:5.0,5.0;" x1="911" x2="911" y1="82.6094" y2="1084.5781"/><line style="stroke:#181818;stroke-width:0.5;stroke-dasharray:5.0,5.0;" x1="1013" x2="1013" y1="82.6094" y2="1084.5781"/><line style="stroke:#181818;stroke-width:0.5;stroke-dasharray:5.0,5.0;" x1="1115" x2="1115" y1="82.6094" y2="1084.5781"/><line style="stroke:#181818;stroke-width:0.5;stroke-dasharray:5.0,5.0;" x1="1216" x2="1216" y1="82.6094" y2="1084.5781"/><line style="stroke:#181818;stroke-width:0.5;stroke-dasharray:5.0,5.0;" x1="1317" x2="1317" y1="82.6094" y2="1084.5781"/><line style="stroke:#181818;stroke-width:0.5;stroke-dasharray:5.0,5.0;" x1="1414" x2="1414" y1="82.6094" y2="1084.5781"/><line style="stroke:#181818;stroke-width:0.5;stroke-dasharray:5.0,5.0;" x1="1497" x2="1497" y1="82.6094" y2="1084.5781"/><line style="stroke:#181818;stroke-width:0.5;stroke-dasharray:5.0,5.0;" x1="1571" x2="1571" y1="82.6094" y2="1084.5781"/><line style="stroke:#181818;stroke-width:0.5;stroke-dasharray:5.0,5.0;" x1="1676" x2="1676" y1="82.6094" y2="1084.5781"/><line style="stroke:#181818;stroke-width:0.5;stroke-dasharray:5.0,5.0;" x1="1795" x2="1795" y1="82.6094" y2="1084.5781"/><text fill="#000000" font-family="sans-serif" font-size="14" lengthAdjust="spacing" textLength="19" x="21" y="79.5332">GL</text><ellipse cx="33.5" cy="13.5" fill="#E2E2F0" rx="8" ry="8" style="stroke:#181818;stroke-width:0.5;"/><path d="M33.5,21.5 L33.5,48.5 M20.5,29.5 L46.5,29.5 M33.5,48.5 L20.5,63.5 M33.5,48.5 L46.5,63.5 " fill="none" style="stroke:#181818;stroke-width:0.5;"/><text fill="#000000" font-family="sans-serif" font-size="14" lengthAdjust="spacing" textLength="19" x="21" y="1098.1113">GL</text><ellipse cx="33.5" cy="1109.6875" fill="#E2E2F0" rx="8" ry="8" style="stroke:#181818;stroke-width:0.5;"/><path d="M33.5,1117.6875 L33.5,1144.6875 M20.5,1125.6875 L46.5,1125.6875 M33.5,1144.6875 L20.5,1159.6875 M33.5,1144.6875 L46.5,1159.6875 " fill="none" style="stroke:#181818;stroke-width:0.5;"/><rect fill="#E2E2F0" height="31.6094" rx="2.5" ry="2.5" style="stroke:#181818;stroke-width:0.5;" width="180" x="288.5" y="50"/><text fill="#000000" font-family="sans-serif" font-size="14" lengthAdjust="spacing" textLength="166" x="295.5" y="71.5332">RoadNewtworkComponent</text><rect fill="#E2E2F0" height="31.6094" rx="2.5" ry="2.5" style="stroke:#181818;stroke-width:0.5;" width="180" x="288.5" y="1083.5781"/><text fill="#000000" font-family="sans-serif" font-size="14" lengthAdjust="spacing" textLength="166" x="295.5" y="1105.1113">RoadNewtworkComponent</text><rect fill="#E2E2F0" height="31.6094" rx="2.5" ry="2.5" style="stroke:#181818;stroke-width:0.5;" width="107" x="482" y="50"/><text fill="#000000" font-family="sans-serif" font-size="14" lengthAdjust="spacing" textLength="93" x="489" y="71.5332">autoMovement</text><rect fill="#E2E2F0" height="31.6094" rx="2.5" ry="2.5" style="stroke:#181818;stroke-width:0.5;" width="107" x="482" y="1083.5781"/><text fill="#000000" font-family="sans-serif" font-size="14" lengthAdjust="spacing" textLength="93" x="489" y="1105.1113">autoMovement</text><rect fill="#E2E2F0" height="31.6094" rx="2.5" ry="2.5" style="stroke:#181818;stroke-width:0.5;" width="156" x="599" y="50"/><text fill="#000000" font-family="sans-serif" font-size="14" lengthAdjust="spacing" textLength="142" x="606" y="71.5332">definicaoPosicaoInicial</text><rect fill="#E2E2F0" height="31.6094" rx="2.5" ry="2.5" style="stroke:#181818;stroke-width:0.5;" width="156" x="599" y="1083.5781"/><text fill="#000000" font-family="sans-serif" font-size="14" lengthAdjust="spacing" textLength="142" x="606" y="1105.1113">definicaoPosicaoInicial</text><rect fill="#E2E2F0" height="31.6094" rx="2.5" ry="2.5" style="stroke:#181818;stroke-width:0.5;" width="91" x="765" y="50"/><text fill="#000000" font-family="sans-serif" font-size="14" lengthAdjust="spacing" textLength="77" x="772" y="71.5332">movimentoA</text><rect fill="#E2E2F0" height="31.6094" rx="2.5" ry="2.5" style="stroke:#181818;stroke-width:0.5;" width="91" x="765" y="1083.5781"/><text fill="#000000" font-family="sans-serif" font-size="14" lengthAdjust="spacing" textLength="77" x="772" y="1105.1113">movimentoA</text><rect fill="#E2E2F0" height="31.6094" rx="2.5" ry="2.5" style="stroke:#181818;stroke-width:0.5;" width="91" x="866" y="50"/><text fill="#000000" font-family="sans-serif" font-size="14" lengthAdjust="spacing" textLength="77" x="873" y="71.5332">movimentoB</text><rect fill="#E2E2F0" height="31.6094" rx="2.5" ry="2.5" style="stroke:#181818;stroke-width:0.5;" width="91" x="866" y="1083.5781"/><text fill="#000000" font-family="sans-serif" font-size="14" lengthAdjust="spacing" textLength="77" x="873" y="1105.1113">movimentoB</text><rect fill="#E2E2F0" height="31.6094" rx="2.5" ry="2.5" style="stroke:#181818;stroke-width:0.5;" width="92" x="967" y="50"/><text fill="#000000" font-family="sans-serif" font-size="14" lengthAdjust="spacing" textLength="78" x="974" y="71.5332">movimentoC</text><rect fill="#E2E2F0" height="31.6094" rx="2.5" ry="2.5" style="stroke:#181818;stroke-width:0.5;" width="92" x="967" y="1083.5781"/><text fill="#000000" font-family="sans-serif" font-size="14" lengthAdjust="spacing" textLength="78" x="974" y="1105.1113">movimentoC</text><rect fill="#E2E2F0" height="31.6094" rx="2.5" ry="2.5" style="stroke:#181818;stroke-width:0.5;" width="92" x="1069" y="50"/><text fill="#000000" font-family="sans-serif" font-size="14" lengthAdjust="spacing" textLength="78" x="1076" y="71.5332">movimentoD</text><rect fill="#E2E2F0" height="31.6094" rx="2.5" ry="2.5" style="stroke:#181818;stroke-width:0.5;" width="92" x="1069" y="1083.5781"/><text fill="#000000" font-family="sans-serif" font-size="14" lengthAdjust="spacing" textLength="78" x="1076" y="1105.1113">movimentoD</text><rect fill="#E2E2F0" height="31.6094" rx="2.5" ry="2.5" style="stroke:#181818;stroke-width:0.5;" width="91" x="1171" y="50"/><text fill="#000000" font-family="sans-serif" font-size="14" lengthAdjust="spacing" textLength="77" x="1178" y="71.5332">movimentoE</text><rect fill="#E2E2F0" height="31.6094" rx="2.5" ry="2.5" style="stroke:#181818;stroke-width:0.5;" width="91" x="1171" y="1083.5781"/><text fill="#000000" font-family="sans-serif" font-size="14" lengthAdjust="spacing" textLength="77" x="1178" y="1105.1113">movimentoE</text><rect fill="#E2E2F0" height="31.6094" rx="2.5" ry="2.5" style="stroke:#181818;stroke-width:0.5;" width="91" x="1272" y="50"/><text fill="#000000" font-family="sans-serif" font-size="14" lengthAdjust="spacing" textLength="77" x="1279" y="71.5332">movimentoF</text><rect fill="#E2E2F0" height="31.6094" rx="2.5" ry="2.5" style="stroke:#181818;stroke-width:0.5;" width="91" x="1272" y="1083.5781"/><text fill="#000000" font-family="sans-serif" font-size="14" lengthAdjust="spacing" textLength="77" x="1279" y="1105.1113">movimentoF</text><rect fill="#E2E2F0" height="31.6094" rx="2.5" ry="2.5" style="stroke:#181818;stroke-width:0.5;" width="82" x="1373" y="50"/><text fill="#000000" font-family="sans-serif" font-size="14" lengthAdjust="spacing" textLength="68" x="1380" y="71.5332">routeToDo</text><rect fill="#E2E2F0" height="31.6094" rx="2.5" ry="2.5" style="stroke:#181818;stroke-width:0.5;" width="82" x="1373" y="1083.5781"/><text fill="#000000" font-family="sans-serif" font-size="14" lengthAdjust="spacing" textLength="68" x="1380" y="1105.1113">routeToDo</text><rect fill="#E2E2F0" height="31.6094" rx="2.5" ry="2.5" style="stroke:#181818;stroke-width:0.5;" width="65" x="1465" y="50"/><text fill="#000000" font-family="sans-serif" font-size="14" lengthAdjust="spacing" textLength="51" x="1472" y="71.5332">actualW</text><rect fill="#E2E2F0" height="31.6094" rx="2.5" ry="2.5" style="stroke:#181818;stroke-width:0.5;" width="65" x="1465" y="1083.5781"/><text fill="#000000" font-family="sans-serif" font-size="14" lengthAdjust="spacing" textLength="51" x="1472" y="1105.1113">actualW</text><rect fill="#E2E2F0" height="31.6094" rx="2.5" ry="2.5" style="stroke:#181818;stroke-width:0.5;" width="63" x="1540" y="50"/><text fill="#000000" font-family="sans-serif" font-size="14" lengthAdjust="spacing" textLength="49" x="1547" y="71.5332">actualM</text><rect fill="#E2E2F0" height="31.6094" rx="2.5" ry="2.5" style="stroke:#181818;stroke-width:0.5;" width="63" x="1540" y="1083.5781"/><text fill="#000000" font-family="sans-serif" font-size="14" lengthAdjust="spacing" textLength="49" x="1547" y="1105.1113">actualM</text><rect fill="#E2E2F0" height="31.6094" rx="2.5" ry="2.5" style="stroke:#181818;stroke-width:0.5;" width="127" x="1613" y="50"/><text fill="#000000" font-family="sans-serif" font-size="14" lengthAdjust="spacing" textLength="113" x="1620" y="71.5332">truck: TruckModel</text><rect fill="#E2E2F0" height="31.6094" rx="2.5" ry="2.5" style="stroke:#181818;stroke-width:0.5;" width="127" x="1613" y="1083.5781"/><text fill="#000000" font-family="sans-serif" font-size="14" lengthAdjust="spacing" textLength="113" x="1620" y="1105.1113">truck: TruckModel</text><rect fill="#E2E2F0" height="31.6094" rx="2.5" ry="2.5" style="stroke:#181818;stroke-width:0.5;" width="90" x="1750" y="50"/><text fill="#000000" font-family="sans-serif" font-size="14" lengthAdjust="spacing" textLength="76" x="1757" y="71.5332">warehouses</text><rect fill="#E2E2F0" height="31.6094" rx="2.5" ry="2.5" style="stroke:#181818;stroke-width:0.5;" width="90" x="1750" y="1083.5781"/><text fill="#000000" font-family="sans-serif" font-size="14" lengthAdjust="spacing" textLength="76" x="1757" y="1105.1113">warehouses</text><rect fill="#FFFFFF" height="944.6172" style="stroke:#181818;stroke-width:1.0;" width="10" x="373.5" y="114.9609"/><rect fill="#FFFFFF" height="70.0273" style="stroke:#181818;stroke-width:1.0;" width="10" x="378.5" y="183.3398"/><rect fill="#FFFFFF" height="714.6563" style="stroke:#181818;stroke-width:1.0;" width="10" x="378.5" y="296.3945"/><rect fill="#FFFFFF" height="30" style="stroke:#181818;stroke-width:1.0;" width="10" x="672" y="372.9492"/><rect fill="#FFFFFF" height="30" style="stroke:#181818;stroke-width:1.0;" width="10" x="805.5" y="455.6523"/><rect fill="#FFFFFF" height="30" style="stroke:#181818;stroke-width:1.0;" width="10" x="906.5" y="554.1914"/><rect fill="#FFFFFF" height="30" style="stroke:#181818;stroke-width:1.0;" width="10" x="1008" y="660.9063"/><rect fill="#FFFFFF" height="30" style="stroke:#181818;stroke-width:1.0;" width="10" x="1110" y="775.7969"/><rect fill="#FFFFFF" height="30" style="stroke:#181818;stroke-width:1.0;" width="10" x="1211.5" y="882.5117"/><rect fill="#FFFFFF" height="30" style="stroke:#181818;stroke-width:1.0;" width="10" x="1312.5" y="981.0508"/><rect fill="#FFFFFF" height="30" style="stroke:#181818;stroke-width:1.0;" width="10" x="1790" y="223.3672"/><polygon fill="#181818" points="361.5,110.9609,371.5,114.9609,361.5,118.9609,365.5,114.9609" style="stroke:#181818;stroke-width:1.0;"/><line style="stroke:#181818;stroke-width:1.0;" x1="33.5" x2="367.5" y1="114.9609" y2="114.9609"/><text fill="#000000" font-family="sans-serif" font-size="13" font-weight="bold" lengthAdjust="spacing" textLength="7" x="40.5" y="110.1045">1</text><text fill="#000000" font-family="sans-serif" font-size="13" lengthAdjust="spacing" textLength="310" x="51.5" y="110.1045">requests to start the automatic movement of the truck</text><path d="M10,129.9609 L83,129.9609 L83,138.3125 L73,148.3125 L10,148.3125 L10,129.9609 " fill="#EEEEEE" style="stroke:#000000;stroke-width:1.5;"/><rect fill="none" height="937.6172" style="stroke:#000000;stroke-width:1.5;" width="1840" x="10" y="129.9609"/><text fill="#000000" font-family="sans-serif" font-size="13" font-weight="bold" lengthAdjust="spacing" textLength="28" x="25" y="144.4561">loop</text><text fill="#000000" font-family="sans-serif" font-size="11" font-weight="bold" lengthAdjust="spacing" textLength="46" x="98" y="143.3799">[render]</text><line style="stroke:#181818;stroke-width:1.0;" x1="383.5" x2="430.5" y1="170.3398" y2="170.3398"/><line style="stroke:#181818;stroke-width:1.0;" x1="430.5" x2="430.5" y1="170.3398" y2="183.3398"/><line style="stroke:#181818;stroke-width:1.0;" x1="389.5" x2="430.5" y1="183.3398" y2="183.3398"/><polygon fill="#181818" points="399.5,179.3398,389.5,183.3398,399.5,187.3398,395.5,183.3398" style="stroke:#181818;stroke-width:1.0;"/><text fill="#000000" font-family="sans-serif" font-size="13" font-weight="bold" lengthAdjust="spacing" textLength="7" x="395.5" y="165.4834">2</text><text fill="#000000" font-family="sans-serif" font-size="13" lengthAdjust="spacing" textLength="122" x="406.5" y="165.4834">getPath(warehouses)</text><path d="M540,153.3125 L540,195.3125 L802,195.3125 L802,163.3125 L792,153.3125 L540,153.3125 " fill="#FEFFDD" style="stroke:#181818;stroke-width:0.5;"/><path d="M792,153.3125 L792,163.3125 L802,163.3125 L792,153.3125 " fill="#FEFFDD" style="stroke:#181818;stroke-width:0.5;"/><text fill="#000000" font-family="sans-serif" font-size="13" lengthAdjust="spacing" textLength="200" x="546" y="171.8076">Method that returns a random path</text><text fill="#000000" font-family="sans-serif" font-size="13" lengthAdjust="spacing" textLength="241" x="546" y="188.1592">to demonstrate the movement of the truck</text><polygon fill="#181818" points="1778,219.3672,1788,223.3672,1778,227.3672,1782,223.3672" style="stroke:#181818;stroke-width:1.0;"/><line style="stroke:#181818;stroke-width:1.0;" x1="388.5" x2="1784" y1="223.3672" y2="223.3672"/><text fill="#000000" font-family="sans-serif" font-size="13" font-weight="bold" lengthAdjust="spacing" textLength="7" x="395.5" y="218.5107">3</text><text fill="#000000" font-family="sans-serif" font-size="13" lengthAdjust="spacing" textLength="4" x="406.5" y="218.5107"> </text><line style="stroke:#181818;stroke-width:1.0;" x1="383.5" x2="430.5" y1="283.3945" y2="283.3945"/><line style="stroke:#181818;stroke-width:1.0;" x1="430.5" x2="430.5" y1="283.3945" y2="296.3945"/><line style="stroke:#181818;stroke-width:1.0;" x1="389.5" x2="430.5" y1="296.3945" y2="296.3945"/><polygon fill="#181818" points="399.5,292.3945,389.5,296.3945,399.5,300.3945,395.5,296.3945" style="stroke:#181818;stroke-width:1.0;"/><text fill="#000000" font-family="sans-serif" font-size="13" font-weight="bold" lengthAdjust="spacing" textLength="7" x="395.5" y="278.5381">4</text><text fill="#000000" font-family="sans-serif" font-size="13" lengthAdjust="spacing" textLength="121" x="406.5" y="278.5381">autoMovement(truck)</text><path d="M539,266.3672 L539,308.3672 L779,308.3672 L779,276.3672 L769,266.3672 L539,266.3672 " fill="#FEFFDD" style="stroke:#181818;stroke-width:0.5;"/><path d="M769,266.3672 L769,276.3672 L779,276.3672 L769,266.3672 " fill="#FEFFDD" style="stroke:#181818;stroke-width:0.5;"/><text fill="#000000" font-family="sans-serif" font-size="13" lengthAdjust="spacing" textLength="217" x="545" y="284.8623">The main method that defines in each</text><text fill="#000000" font-family="sans-serif" font-size="13" lengthAdjust="spacing" textLength="219" x="545" y="301.2139">movement and warehouse the truck is</text><path d="M278.5,321.0703 L339.5,321.0703 L339.5,329.4219 L329.5,339.4219 L278.5,339.4219 L278.5,321.0703 " fill="#EEEEEE" style="stroke:#000000;stroke-width:1.5;"/><rect fill="none" height="709.1563" style="stroke:#000000;stroke-width:1.5;" width="1331" x="278.5" y="321.0703"/><text fill="#000000" font-family="sans-serif" font-size="13" font-weight="bold" lengthAdjust="spacing" textLength="16" x="293.5" y="335.5654">alt</text><text fill="#000000" font-family="sans-serif" font-size="11" font-weight="bold" lengthAdjust="spacing" textLength="74" x="354.5" y="334.4893">[actualM == 0]</text><polygon fill="#181818" points="660,368.9492,670,372.9492,660,376.9492,664,372.9492" style="stroke:#181818;stroke-width:1.0;"/><line style="stroke:#181818;stroke-width:1.0;" x1="388.5" x2="666" y1="372.9492" y2="372.9492"/><text fill="#000000" font-family="sans-serif" font-size="13" font-weight="bold" lengthAdjust="spacing" textLength="7" x="395.5" y="368.0928">5</text><text fill="#000000" font-family="sans-serif" font-size="13" lengthAdjust="spacing" textLength="4" x="406.5" y="368.0928"> </text><path d="M687,344.4219 L687,386.4219 L977,386.4219 L977,354.4219 L967,344.4219 L687,344.4219 " fill="#FEFFDD" style="stroke:#181818;stroke-width:0.5;"/><path d="M967,344.4219 L967,354.4219 L977,354.4219 L967,344.4219 " fill="#FEFFDD" style="stroke:#181818;stroke-width:0.5;"/><text fill="#000000" font-family="sans-serif" font-size="13" lengthAdjust="spacing" textLength="189" x="693" y="362.917">Definition of the inicial position of</text><text fill="#000000" font-family="sans-serif" font-size="13" lengthAdjust="spacing" textLength="269" x="693" y="379.2686">the truck for each trip from and to a warehouse</text><polygon fill="#181818" points="793.5,451.6523,803.5,455.6523,793.5,459.6523,797.5,455.6523" style="stroke:#181818;stroke-width:1.0;"/><line style="stroke:#181818;stroke-width:1.0;" x1="388.5" x2="799.5" y1="455.6523" y2="455.6523"/><text fill="#000000" font-family="sans-serif" font-size="13" font-weight="bold" lengthAdjust="spacing" textLength="7" x="395.5" y="450.7959">6</text><text fill="#000000" font-family="sans-serif" font-size="13" lengthAdjust="spacing" textLength="4" x="406.5" y="450.7959"> </text><path d="M820,427.125 L820,469.125 L1079,469.125 L1079,437.125 L1069,427.125 L820,427.125 " fill="#FEFFDD" style="stroke:#181818;stroke-width:0.5;"/><path d="M1069,427.125 L1069,437.125 L1079,437.125 L1069,427.125 " fill="#FEFFDD" style="stroke:#181818;stroke-width:0.5;"/><text fill="#000000" font-family="sans-serif" font-size="13" lengthAdjust="spacing" textLength="216" x="826" y="445.6201">First movement of the truck. It is here</text><text fill="#000000" font-family="sans-serif" font-size="13" lengthAdjust="spacing" textLength="238" x="826" y="461.9717">that the truck walk around the warehouse</text><line style="stroke:#000000;stroke-width:1.0;stroke-dasharray:2.0,2.0;" x1="278.5" x2="1609.5" y1="505.8281" y2="505.8281"/><text fill="#000000" font-family="sans-serif" font-size="11" font-weight="bold" lengthAdjust="spacing" textLength="74" x="283.5" y="517.2471">[actualM == 1]</text><polygon fill="#181818" points="894.5,550.1914,904.5,554.1914,894.5,558.1914,898.5,554.1914" style="stroke:#181818;stroke-width:1.0;"/><line style="stroke:#181818;stroke-width:1.0;" x1="388.5" x2="900.5" y1="554.1914" y2="554.1914"/><text fill="#000000" font-family="sans-serif" font-size="13" font-weight="bold" lengthAdjust="spacing" textLength="7" x="395.5" y="549.335">7</text><text fill="#000000" font-family="sans-serif" font-size="13" lengthAdjust="spacing" textLength="4" x="406.5" y="549.335"> </text><path d="M921,525.6641 L921,567.6641 L1176,567.6641 L1176,535.6641 L1166,525.6641 L921,525.6641 " fill="#FEFFDD" style="stroke:#181818;stroke-width:0.5;"/><path d="M1166,525.6641 L1166,535.6641 L1176,535.6641 L1166,525.6641 " fill="#FEFFDD" style="stroke:#181818;stroke-width:0.5;"/><text fill="#000000" font-family="sans-serif" font-size="13" lengthAdjust="spacing" textLength="234" x="927" y="544.1592">Second movement of the truck. It is here</text><text fill="#000000" font-family="sans-serif" font-size="13" lengthAdjust="spacing" textLength="212" x="927" y="560.5107">that the truck turns to leave the node</text><line style="stroke:#000000;stroke-width:1.0;stroke-dasharray:2.0,2.0;" x1="278.5" x2="1609.5" y1="604.3672" y2="604.3672"/><text fill="#000000" font-family="sans-serif" font-size="11" font-weight="bold" lengthAdjust="spacing" textLength="74" x="283.5" y="615.7861">[actualM == 2]</text><polygon fill="#181818" points="996,656.9063,1006,660.9063,996,664.9063,1000,660.9063" style="stroke:#181818;stroke-width:1.0;"/><line style="stroke:#181818;stroke-width:1.0;" x1="388.5" x2="1002" y1="660.9063" y2="660.9063"/><text fill="#000000" font-family="sans-serif" font-size="13" font-weight="bold" lengthAdjust="spacing" textLength="7" x="395.5" y="656.0498">8</text><text fill="#000000" font-family="sans-serif" font-size="13" lengthAdjust="spacing" textLength="4" x="406.5" y="656.0498"> </text><path d="M1023,624.2031 L1023,683.2031 L1367,683.2031 L1367,634.2031 L1357,624.2031 L1023,624.2031 " fill="#FEFFDD" style="stroke:#181818;stroke-width:0.5;"/><path d="M1357,624.2031 L1357,634.2031 L1367,634.2031 L1357,624.2031 " fill="#FEFFDD" style="stroke:#181818;stroke-width:0.5;"/><text fill="#000000" font-family="sans-serif" font-size="13" lengthAdjust="spacing" textLength="266" x="1029" y="642.6982">Third movement of the truck. It is here that the</text><text fill="#000000" font-family="sans-serif" font-size="13" lengthAdjust="spacing" textLength="323" x="1029" y="659.0498">truck leaves the node and joins to the respective linking.</text><text fill="#000000" font-family="sans-serif" font-size="13" lengthAdjust="spacing" textLength="130" x="1029" y="675.4014">It is a linear movement</text><line style="stroke:#000000;stroke-width:1.0;stroke-dasharray:2.0,2.0;" x1="278.5" x2="1609.5" y1="719.2578" y2="719.2578"/><text fill="#000000" font-family="sans-serif" font-size="11" font-weight="bold" lengthAdjust="spacing" textLength="74" x="283.5" y="730.6768">[actualM == 3]</text><polygon fill="#181818" points="1098,771.7969,1108,775.7969,1098,779.7969,1102,775.7969" style="stroke:#181818;stroke-width:1.0;"/><line style="stroke:#181818;stroke-width:1.0;" x1="388.5" x2="1104" y1="775.7969" y2="775.7969"/><text fill="#000000" font-family="sans-serif" font-size="13" font-weight="bold" lengthAdjust="spacing" textLength="7" x="395.5" y="770.9404">9</text><text fill="#000000" font-family="sans-serif" font-size="13" lengthAdjust="spacing" textLength="4" x="406.5" y="770.9404"> </text><path d="M1125,739.0938 L1125,798.0938 L1483,798.0938 L1483,749.0938 L1473,739.0938 L1125,739.0938 " fill="#FEFFDD" style="stroke:#181818;stroke-width:0.5;"/><path d="M1473,739.0938 L1473,749.0938 L1483,749.0938 L1473,739.0938 " fill="#FEFFDD" style="stroke:#181818;stroke-width:0.5;"/><text fill="#000000" font-family="sans-serif" font-size="13" lengthAdjust="spacing" textLength="227" x="1131" y="757.5889">Fourth movement of the truck. It is here</text><text fill="#000000" font-family="sans-serif" font-size="13" lengthAdjust="spacing" textLength="337" x="1131" y="773.9404">that the truck travels the arc between the two warehouses.</text><text fill="#000000" font-family="sans-serif" font-size="13" lengthAdjust="spacing" textLength="130" x="1131" y="790.292">It is a linear movement</text><line style="stroke:#000000;stroke-width:1.0;stroke-dasharray:2.0,2.0;" x1="278.5" x2="1609.5" y1="834.1484" y2="834.1484"/><text fill="#000000" font-family="sans-serif" font-size="11" font-weight="bold" lengthAdjust="spacing" textLength="74" x="283.5" y="845.5674">[actualM == 4]</text><polygon fill="#181818" points="1199.5,878.5117,1209.5,882.5117,1199.5,886.5117,1203.5,882.5117" style="stroke:#181818;stroke-width:1.0;"/><line style="stroke:#181818;stroke-width:1.0;" x1="388.5" x2="1205.5" y1="882.5117" y2="882.5117"/><text fill="#000000" font-family="sans-serif" font-size="13" font-weight="bold" lengthAdjust="spacing" textLength="14" x="395.5" y="877.6553">10</text><text fill="#000000" font-family="sans-serif" font-size="13" lengthAdjust="spacing" textLength="4" x="413.5" y="877.6553"> </text><path d="M1226,853.9844 L1226,895.9844 L1604,895.9844 L1604,863.9844 L1594,853.9844 L1226,853.9844 " fill="#FEFFDD" style="stroke:#181818;stroke-width:0.5;"/><path d="M1594,853.9844 L1594,863.9844 L1604,863.9844 L1594,853.9844 " fill="#FEFFDD" style="stroke:#181818;stroke-width:0.5;"/><text fill="#000000" font-family="sans-serif" font-size="13" lengthAdjust="spacing" textLength="215" x="1232" y="872.4795">Fifth movement of the truck. It is here</text><text fill="#000000" font-family="sans-serif" font-size="13" lengthAdjust="spacing" textLength="357" x="1232" y="888.8311">that the truck enter to the linking of the destination warehouse</text><line style="stroke:#000000;stroke-width:1.0;stroke-dasharray:2.0,2.0;" x1="278.5" x2="1609.5" y1="932.6875" y2="932.6875"/><text fill="#000000" font-family="sans-serif" font-size="11" font-weight="bold" lengthAdjust="spacing" textLength="74" x="283.5" y="944.1064">[actualM == 5]</text><polygon fill="#181818" points="1300.5,977.0508,1310.5,981.0508,1300.5,985.0508,1304.5,981.0508" style="stroke:#181818;stroke-width:1.0;"/><line style="stroke:#181818;stroke-width:1.0;" x1="388.5" x2="1306.5" y1="981.0508" y2="981.0508"/><text fill="#000000" font-family="sans-serif" font-size="13" font-weight="bold" lengthAdjust="spacing" textLength="14" x="395.5" y="976.1943">11</text><text fill="#000000" font-family="sans-serif" font-size="13" lengthAdjust="spacing" textLength="4" x="413.5" y="976.1943"> </text><path d="M1327,952.5234 L1327,994.5234 L1563,994.5234 L1563,962.5234 L1553,952.5234 L1327,952.5234 " fill="#FEFFDD" style="stroke:#181818;stroke-width:0.5;"/><path d="M1553,952.5234 L1553,962.5234 L1563,962.5234 L1553,952.5234 " fill="#FEFFDD" style="stroke:#181818;stroke-width:0.5;"/><text fill="#000000" font-family="sans-serif" font-size="13" lengthAdjust="spacing" textLength="215" x="1333" y="971.0186">Last movement of the truck. It is here</text><text fill="#000000" font-family="sans-serif" font-size="13" lengthAdjust="spacing" textLength="212" x="1333" y="987.3701">that the truck turns to enter the node</text><polygon fill="#181818" points="44.5,1055.5781,34.5,1059.5781,44.5,1063.5781,40.5,1059.5781" style="stroke:#181818;stroke-width:1.0;"/><line style="stroke:#181818;stroke-width:1.0;stroke-dasharray:2.0,2.0;" x1="38.5" x2="377.5" y1="1059.5781" y2="1059.5781"/><text fill="#000000" font-family="sans-serif" font-size="13" font-weight="bold" lengthAdjust="spacing" textLength="14" x="50.5" y="1054.7217">12</text><text fill="#000000" font-family="sans-serif" font-size="13" lengthAdjust="spacing" textLength="212" x="68.5" y="1054.7217">shows the movement at each frames</text><!--MD5=[f831ced84a701f82fe63bd66ba7ae746]
@startuml
'https://plantuml.com/sequence-diagram

autonumber
actor "GL" as GL
participant "RoadNewtworkComponent" as COMP
participant "autoMovement" as AUTO
participant "definicaoPosicaoInicial" as POS
participant "movimentoA" as MA 
participant "movimentoB" as MB 
participant "movimentoC" as MC 
participant "movimentoD" as MD 
participant "movimentoE" as ME 
participant "movimentoF" as MF 
participant "routeToDo" as ROUTE
participant "actualW" as AW
participant "actualM" as AM
participant "truck: TruckModel" as TRUCK
participant "warehouses" as WS


GL-> COMP : requests to start the automatic movement of the truck
activate COMP
loop render
COMP -> COMP : getPath(warehouses)
activate COMP
note right
 Method that returns a random path
 to demonstrate the movement of the truck
end note
COMP -> WS
activate WS
deactivate WS
deactivate COMP
COMP -> COMP : autoMovement(truck)
note right
 The main method that defines in each
 movement and warehouse the truck is
end note
activate COMP
alt actualM == 0
COMP -> POS
note right
 Definition of the inicial position of
 the truck for each trip from and to a warehouse
end note
activate POS
deactivate POS
COMP -> MA
activate MA
note right
 First movement of the truck. It is here
 that the truck walk around the warehouse
end note
deactivate MA
else actualM == 1
COMP -> MB
activate MB
note right
 Second movement of the truck. It is here
 that the truck turns to leave the node
end note
deactivate MB
else actualM == 2
COMP -> MC
activate MC
note right
 Third movement of the truck. It is here that the
 truck leaves the node and joins to the respective linking.
 It is a linear movement
end note
deactivate MC
else actualM == 3
COMP -> MD
activate MD
note right
 Fourth movement of the truck. It is here
 that the truck travels the arc between the two warehouses.
 It is a linear movement
end note
deactivate MD
else actualM == 4
COMP -> ME
activate ME
note right
 Fifth movement of the truck. It is here
 that the truck enter to the linking of the destination warehouse
end note
deactivate ME
else actualM == 5
COMP -> MF
activate MF
note right
 Last movement of the truck. It is here
 that the truck turns to enter the node
end note
deactivate MF
deactivate COMP
end
COMP - -> GL: shows the movement at each frames
deactivate COMP
end


@enduml

@startuml

autonumber
actor "GL" as GL
participant "RoadNewtworkComponent" as COMP
participant "autoMovement" as AUTO
participant "definicaoPosicaoInicial" as POS
participant "movimentoA" as MA 
participant "movimentoB" as MB 
participant "movimentoC" as MC 
participant "movimentoD" as MD 
participant "movimentoE" as ME 
participant "movimentoF" as MF 
participant "routeToDo" as ROUTE
participant "actualW" as AW
participant "actualM" as AM
participant "truck: TruckModel" as TRUCK
participant "warehouses" as WS


GL-> COMP : requests to start the automatic movement of the truck
activate COMP
loop render
COMP -> COMP : getPath(warehouses)
activate COMP
note right
 Method that returns a random path
 to demonstrate the movement of the truck
end note
COMP -> WS
activate WS
deactivate WS
deactivate COMP
COMP -> COMP : autoMovement(truck)
note right
 The main method that defines in each
 movement and warehouse the truck is
end note
activate COMP
alt actualM == 0
COMP -> POS
note right
 Definition of the inicial position of
 the truck for each trip from and to a warehouse
end note
activate POS
deactivate POS
COMP -> MA
activate MA
note right
 First movement of the truck. It is here
 that the truck walk around the warehouse
end note
deactivate MA
else actualM == 1
COMP -> MB
activate MB
note right
 Second movement of the truck. It is here
 that the truck turns to leave the node
end note
deactivate MB
else actualM == 2
COMP -> MC
activate MC
note right
 Third movement of the truck. It is here that the
 truck leaves the node and joins to the respective linking.
 It is a linear movement
end note
deactivate MC
else actualM == 3
COMP -> MD
activate MD
note right
 Fourth movement of the truck. It is here
 that the truck travels the arc between the two warehouses.
 It is a linear movement
end note
deactivate MD
else actualM == 4
COMP -> ME
activate ME
note right
 Fifth movement of the truck. It is here
 that the truck enter to the linking of the destination warehouse
end note
deactivate ME
else actualM == 5
COMP -> MF
activate MF
note right
 Last movement of the truck. It is here
 that the truck turns to enter the node
end note
deactivate MF
deactivate COMP
end
COMP - -> GL: shows the movement at each frames
deactivate COMP
end


@enduml

PlantUML version 1.2022.7(Mon Aug 22 18:01:30 WEST 2022)
(GPL source distribution)
Java Runtime: Java(TM) SE Runtime Environment
JVM: Java HotSpot(TM) 64-Bit Server VM
Default Encoding: Cp1252
Language: pt
Country: PT
--></g></svg>