<?xml version="1.0" encoding="UTF-8" standalone="no"?><svg xmlns="http://www.w3.org/2000/svg" xmlns:xlink="http://www.w3.org/1999/xlink" contentStyleType="text/css" height="1064px" preserveAspectRatio="none" style="width:1887px;height:1064px;background:#FFFFFF;" version="1.1" viewBox="0 0 1887 1064" width="1887px" zoomAndPan="magnify"><defs/><g><rect fill="#FFFFFF" height="842.625" style="stroke:#181818;stroke-width:1.0;" width="10" x="211.5" y="114.9609"/><rect fill="#FFFFFF" height="30.3516" style="stroke:#181818;stroke-width:1.0;" width="10" x="471.5" y="145.3125"/><rect fill="#FFFFFF" height="630.1641" style="stroke:#181818;stroke-width:1.0;" width="10" x="471.5" y="206.0156"/><rect fill="#FFFFFF" height="30.3516" style="stroke:#181818;stroke-width:1.0;" width="10" x="471.5" y="866.5313"/><rect fill="#FFFFFF" height="569.4609" style="stroke:#181818;stroke-width:1.0;" width="10" x="721.5" y="236.3672"/><rect fill="#FFFFFF" height="508.7578" style="stroke:#181818;stroke-width:1.0;" width="10" x="834.5" y="266.7188"/><rect fill="#FFFFFF" height="448.0547" style="stroke:#181818;stroke-width:1.0;" width="10" x="1009.5" y="297.0703"/><rect fill="#FFFFFF" height="28" style="stroke:#181818;stroke-width:1.0;" width="10" x="1014.5" y="619.4219"/><rect fill="#FFFFFF" height="60.7031" style="stroke:#181818;stroke-width:1.0;" width="10" x="1535" y="327.4219"/><rect fill="#FFFFFF" height="30" style="stroke:#181818;stroke-width:1.0;" width="10" x="1618.5" y="684.7734"/><rect fill="none" height="562.4609" style="stroke:#000000;stroke-width:1.5;" width="1808.5" x="10" y="403.125"/><line style="stroke:#181818;stroke-width:0.5;stroke-dasharray:5.0,5.0;" x1="33" x2="33" y1="82.6094" y2="982.5859"/><line style="stroke:#181818;stroke-width:0.5;stroke-dasharray:5.0,5.0;" x1="216.5" x2="216.5" y1="82.6094" y2="982.5859"/><line style="stroke:#181818;stroke-width:0.5;stroke-dasharray:5.0,5.0;" x1="476.5" x2="476.5" y1="82.6094" y2="982.5859"/><line style="stroke:#181818;stroke-width:0.5;stroke-dasharray:5.0,5.0;" x1="654" x2="654" y1="82.6094" y2="982.5859"/><line style="stroke:#181818;stroke-width:0.5;stroke-dasharray:5.0,5.0;" x1="726" x2="726" y1="82.6094" y2="982.5859"/><line style="stroke:#181818;stroke-width:0.5;stroke-dasharray:5.0,5.0;" x1="839" x2="839" y1="82.6094" y2="982.5859"/><line style="stroke:#181818;stroke-width:0.5;stroke-dasharray:5.0,5.0;" x1="1014.5" x2="1014.5" y1="82.6094" y2="982.5859"/><line style="stroke:#181818;stroke-width:0.5;stroke-dasharray:5.0,5.0;" x1="1205.5" x2="1205.5" y1="82.6094" y2="982.5859"/><line style="stroke:#181818;stroke-width:0.5;stroke-dasharray:5.0,5.0;" x1="1305.5" x2="1305.5" y1="82.6094" y2="982.5859"/><line style="stroke:#181818;stroke-width:0.5;stroke-dasharray:5.0,5.0;" x1="1396.5" x2="1396.5" y1="82.6094" y2="982.5859"/><line style="stroke:#181818;stroke-width:0.5;stroke-dasharray:5.0,5.0;" x1="1469.5" x2="1469.5" y1="82.6094" y2="982.5859"/><line style="stroke:#181818;stroke-width:0.5;stroke-dasharray:5.0,5.0;" x1="1539.5" x2="1539.5" y1="82.6094" y2="982.5859"/><line style="stroke:#181818;stroke-width:0.5;stroke-dasharray:5.0,5.0;" x1="1623.5" x2="1623.5" y1="82.6094" y2="982.5859"/><line style="stroke:#181818;stroke-width:0.5;stroke-dasharray:5.0,5.0;" x1="1704.5" x2="1704.5" y1="82.6094" y2="982.5859"/><line style="stroke:#181818;stroke-width:0.5;stroke-dasharray:5.0,5.0;" x1="1779.5" x2="1779.5" y1="82.6094" y2="982.5859"/><line style="stroke:#181818;stroke-width:0.5;stroke-dasharray:5.0,5.0;" x1="1851.5" x2="1851.5" y1="82.6094" y2="982.5859"/><text fill="#000000" font-family="sans-serif" font-size="14" lengthAdjust="spacing" textLength="20" x="20.5" y="79.5332">GA</text><ellipse cx="33.5" cy="13.5" fill="#E2E2F0" rx="8" ry="8" style="stroke:#181818;stroke-width:0.5;"/><path d="M33.5,21.5 L33.5,48.5 M20.5,29.5 L46.5,29.5 M33.5,48.5 L20.5,63.5 M33.5,48.5 L46.5,63.5 " fill="none" style="stroke:#181818;stroke-width:0.5;"/><text fill="#000000" font-family="sans-serif" font-size="14" lengthAdjust="spacing" textLength="20" x="20.5" y="996.1191">GA</text><ellipse cx="33.5" cy="1007.6953" fill="#E2E2F0" rx="8" ry="8" style="stroke:#181818;stroke-width:0.5;"/><path d="M33.5,1015.6953 L33.5,1042.6953 M20.5,1023.6953 L46.5,1023.6953 M33.5,1042.6953 L20.5,1057.6953 M33.5,1042.6953 L46.5,1057.6953 " fill="none" style="stroke:#181818;stroke-width:0.5;"/><rect fill="#E2E2F0" height="31.6094" rx="2.5" ry="2.5" style="stroke:#181818;stroke-width:0.5;" width="122" x="155.5" y="50"/><text fill="#000000" font-family="sans-serif" font-size="14" lengthAdjust="spacing" textLength="108" x="162.5" y="71.5332">LoginComponent</text><rect fill="#E2E2F0" height="31.6094" rx="2.5" ry="2.5" style="stroke:#181818;stroke-width:0.5;" width="122" x="155.5" y="981.5859"/><text fill="#000000" font-family="sans-serif" font-size="14" lengthAdjust="spacing" textLength="108" x="162.5" y="1003.1191">LoginComponent</text><rect fill="#E2E2F0" height="31.6094" rx="2.5" ry="2.5" style="stroke:#181818;stroke-width:0.5;" width="90" x="431.5" y="50"/><text fill="#000000" font-family="sans-serif" font-size="14" lengthAdjust="spacing" textLength="76" x="438.5" y="71.5332">UserService</text><rect fill="#E2E2F0" height="31.6094" rx="2.5" ry="2.5" style="stroke:#181818;stroke-width:0.5;" width="90" x="431.5" y="981.5859"/><text fill="#000000" font-family="sans-serif" font-size="14" lengthAdjust="spacing" textLength="76" x="438.5" y="1003.1191">UserService</text><rect fill="#E2E2F0" height="31.6094" rx="2.5" ry="2.5" style="stroke:#181818;stroke-width:0.5;" width="81" x="614" y="50"/><text fill="#000000" font-family="sans-serif" font-size="14" lengthAdjust="spacing" textLength="67" x="621" y="71.5332">GoogleAPI</text><rect fill="#E2E2F0" height="31.6094" rx="2.5" ry="2.5" style="stroke:#181818;stroke-width:0.5;" width="81" x="614" y="981.5859"/><text fill="#000000" font-family="sans-serif" font-size="14" lengthAdjust="spacing" textLength="67" x="621" y="1003.1191">GoogleAPI</text><rect fill="#E2E2F0" height="31.6094" rx="2.5" ry="2.5" style="stroke:#181818;stroke-width:0.5;" width="43" x="705" y="50"/><text fill="#000000" font-family="sans-serif" font-size="14" lengthAdjust="spacing" textLength="29" x="712" y="71.5332">MDL</text><rect fill="#E2E2F0" height="31.6094" rx="2.5" ry="2.5" style="stroke:#181818;stroke-width:0.5;" width="43" x="705" y="981.5859"/><text fill="#000000" font-family="sans-serif" font-size="14" lengthAdjust="spacing" textLength="29" x="712" y="1003.1191">MDL</text><rect fill="#E2E2F0" height="31.6094" rx="2.5" ry="2.5" style="stroke:#181818;stroke-width:0.5;" width="81" x="799" y="50"/><text fill="#000000" font-family="sans-serif" font-size="14" lengthAdjust="spacing" textLength="67" x="806" y="71.5332">UserRoute</text><rect fill="#E2E2F0" height="31.6094" rx="2.5" ry="2.5" style="stroke:#181818;stroke-width:0.5;" width="81" x="799" y="981.5859"/><text fill="#000000" font-family="sans-serif" font-size="14" lengthAdjust="spacing" textLength="67" x="806" y="1003.1191">UserRoute</text><rect fill="#E2E2F0" height="31.6094" rx="2.5" ry="2.5" style="stroke:#181818;stroke-width:0.5;" width="90" x="969.5" y="50"/><text fill="#000000" font-family="sans-serif" font-size="14" lengthAdjust="spacing" textLength="76" x="976.5" y="71.5332">UserService</text><rect fill="#E2E2F0" height="31.6094" rx="2.5" ry="2.5" style="stroke:#181818;stroke-width:0.5;" width="90" x="969.5" y="981.5859"/><text fill="#000000" font-family="sans-serif" font-size="14" lengthAdjust="spacing" textLength="76" x="976.5" y="1003.1191">UserService</text><rect fill="#E2E2F0" height="31.6094" rx="2.5" ry="2.5" style="stroke:#181818;stroke-width:0.5;" width="104" x="1153.5" y="50"/><text fill="#000000" font-family="sans-serif" font-size="14" lengthAdjust="spacing" textLength="90" x="1160.5" y="71.5332">UserPassword</text><rect fill="#E2E2F0" height="31.6094" rx="2.5" ry="2.5" style="stroke:#181818;stroke-width:0.5;" width="104" x="1153.5" y="981.5859"/><text fill="#000000" font-family="sans-serif" font-size="14" lengthAdjust="spacing" textLength="90" x="1160.5" y="1003.1191">UserPassword</text><rect fill="#E2E2F0" height="31.6094" rx="2.5" ry="2.5" style="stroke:#181818;stroke-width:0.5;" width="77" x="1267.5" y="50"/><text fill="#000000" font-family="sans-serif" font-size="14" lengthAdjust="spacing" textLength="63" x="1274.5" y="71.5332">UserEmail</text><rect fill="#E2E2F0" height="31.6094" rx="2.5" ry="2.5" style="stroke:#181818;stroke-width:0.5;" width="77" x="1267.5" y="981.5859"/><text fill="#000000" font-family="sans-serif" font-size="14" lengthAdjust="spacing" textLength="63" x="1274.5" y="1003.1191">UserEmail</text><rect fill="#E2E2F0" height="31.6094" rx="2.5" ry="2.5" style="stroke:#181818;stroke-width:0.5;" width="84" x="1354.5" y="50"/><text fill="#000000" font-family="sans-serif" font-size="14" lengthAdjust="spacing" textLength="70" x="1361.5" y="71.5332">UserPhone</text><rect fill="#E2E2F0" height="31.6094" rx="2.5" ry="2.5" style="stroke:#181818;stroke-width:0.5;" width="84" x="1354.5" y="981.5859"/><text fill="#000000" font-family="sans-serif" font-size="14" lengthAdjust="spacing" textLength="70" x="1361.5" y="1003.1191">UserPhone</text><rect fill="#E2E2F0" height="31.6094" rx="2.5" ry="2.5" style="stroke:#181818;stroke-width:0.5;" width="43" x="1448.5" y="50"/><text fill="#000000" font-family="sans-serif" font-size="14" lengthAdjust="spacing" textLength="29" x="1455.5" y="71.5332">User</text><rect fill="#E2E2F0" height="31.6094" rx="2.5" ry="2.5" style="stroke:#181818;stroke-width:0.5;" width="43" x="1448.5" y="981.5859"/><text fill="#000000" font-family="sans-serif" font-size="14" lengthAdjust="spacing" textLength="29" x="1455.5" y="1003.1191">User</text><rect fill="#E2E2F0" height="31.6094" rx="2.5" ry="2.5" style="stroke:#181818;stroke-width:0.5;" width="77" x="1501.5" y="50"/><text fill="#000000" font-family="sans-serif" font-size="14" lengthAdjust="spacing" textLength="63" x="1508.5" y="71.5332">UserRepo</text><rect fill="#E2E2F0" height="31.6094" rx="2.5" ry="2.5" style="stroke:#181818;stroke-width:0.5;" width="77" x="1501.5" y="981.5859"/><text fill="#000000" font-family="sans-serif" font-size="14" lengthAdjust="spacing" textLength="63" x="1508.5" y="1003.1191">UserRepo</text><rect fill="#E2E2F0" height="31.6094" rx="2.5" ry="2.5" style="stroke:#181818;stroke-width:0.5;" width="70" x="1588.5" y="50"/><text fill="#000000" font-family="sans-serif" font-size="14" lengthAdjust="spacing" textLength="56" x="1595.5" y="71.5332">UserMap</text><rect fill="#E2E2F0" height="31.6094" rx="2.5" ry="2.5" style="stroke:#181818;stroke-width:0.5;" width="70" x="1588.5" y="981.5859"/><text fill="#000000" font-family="sans-serif" font-size="14" lengthAdjust="spacing" textLength="56" x="1595.5" y="1003.1191">UserMap</text><rect fill="#E2E2F0" height="31.6094" rx="2.5" ry="2.5" style="stroke:#181818;stroke-width:0.5;" width="73" x="1668.5" y="50"/><text fill="#000000" font-family="sans-serif" font-size="14" lengthAdjust="spacing" textLength="59" x="1675.5" y="71.5332">UserDTO</text><rect fill="#E2E2F0" height="31.6094" rx="2.5" ry="2.5" style="stroke:#181818;stroke-width:0.5;" width="73" x="1668.5" y="981.5859"/><text fill="#000000" font-family="sans-serif" font-size="14" lengthAdjust="spacing" textLength="59" x="1675.5" y="1003.1191">UserDTO</text><rect fill="#E2E2F0" height="31.6094" rx="2.5" ry="2.5" style="stroke:#181818;stroke-width:0.5;" width="57" x="1751.5" y="50"/><text fill="#000000" font-family="sans-serif" font-size="14" lengthAdjust="spacing" textLength="43" x="1758.5" y="71.5332">Router</text><rect fill="#E2E2F0" height="31.6094" rx="2.5" ry="2.5" style="stroke:#181818;stroke-width:0.5;" width="57" x="1751.5" y="981.5859"/><text fill="#000000" font-family="sans-serif" font-size="14" lengthAdjust="spacing" textLength="43" x="1758.5" y="1003.1191">Router</text><text fill="#000000" font-family="sans-serif" font-size="14" lengthAdjust="spacing" textLength="61" x="1818.5" y="79.5332">Database</text><path d="M1834,29 C1834,19 1852,19 1852,19 C1852,19 1870,19 1870,29 L1870,55 C1870,65 1852,65 1852,65 C1852,65 1834,65 1834,55 L1834,29 " fill="#E2E2F0" style="stroke:#181818;stroke-width:1.5;"/><path d="M1834,29 C1834,39 1852,39 1852,39 C1852,39 1870,39 1870,29 " fill="none" style="stroke:#181818;stroke-width:1.5;"/><text fill="#000000" font-family="sans-serif" font-size="14" lengthAdjust="spacing" textLength="61" x="1818.5" y="996.1191">Database</text><path d="M1834,1009.1953 C1834,999.1953 1852,999.1953 1852,999.1953 C1852,999.1953 1870,999.1953 1870,1009.1953 L1870,1035.1953 C1870,1045.1953 1852,1045.1953 1852,1045.1953 C1852,1045.1953 1834,1045.1953 1834,1035.1953 L1834,1009.1953 " fill="#E2E2F0" style="stroke:#181818;stroke-width:1.5;"/><path d="M1834,1009.1953 C1834,1019.1953 1852,1019.1953 1852,1019.1953 C1852,1019.1953 1870,1019.1953 1870,1009.1953 " fill="none" style="stroke:#181818;stroke-width:1.5;"/><rect fill="#FFFFFF" height="842.625" style="stroke:#181818;stroke-width:1.0;" width="10" x="211.5" y="114.9609"/><rect fill="#FFFFFF" height="30.3516" style="stroke:#181818;stroke-width:1.0;" width="10" x="471.5" y="145.3125"/><rect fill="#FFFFFF" height="630.1641" style="stroke:#181818;stroke-width:1.0;" width="10" x="471.5" y="206.0156"/><rect fill="#FFFFFF" height="30.3516" style="stroke:#181818;stroke-width:1.0;" width="10" x="471.5" y="866.5313"/><rect fill="#FFFFFF" height="569.4609" style="stroke:#181818;stroke-width:1.0;" width="10" x="721.5" y="236.3672"/><rect fill="#FFFFFF" height="508.7578" style="stroke:#181818;stroke-width:1.0;" width="10" x="834.5" y="266.7188"/><rect fill="#FFFFFF" height="448.0547" style="stroke:#181818;stroke-width:1.0;" width="10" x="1009.5" y="297.0703"/><rect fill="#FFFFFF" height="28" style="stroke:#181818;stroke-width:1.0;" width="10" x="1014.5" y="619.4219"/><rect fill="#FFFFFF" height="60.7031" style="stroke:#181818;stroke-width:1.0;" width="10" x="1535" y="327.4219"/><rect fill="#FFFFFF" height="30" style="stroke:#181818;stroke-width:1.0;" width="10" x="1618.5" y="684.7734"/><polygon fill="#181818" points="199.5,110.9609,209.5,114.9609,199.5,118.9609,203.5,114.9609" style="stroke:#181818;stroke-width:1.0;"/><line style="stroke:#181818;stroke-width:1.0;" x1="33.5" x2="205.5" y1="114.9609" y2="114.9609"/><text fill="#000000" font-family="sans-serif" font-size="13" font-weight="bold" lengthAdjust="spacing" textLength="7" x="40.5" y="110.1045">1</text><text fill="#000000" font-family="sans-serif" font-size="13" lengthAdjust="spacing" textLength="103" x="51.5" y="110.1045">signIn with google</text><polygon fill="#181818" points="459.5,141.3125,469.5,145.3125,459.5,149.3125,463.5,145.3125" style="stroke:#181818;stroke-width:1.0;"/><line style="stroke:#181818;stroke-width:1.0;" x1="221.5" x2="465.5" y1="145.3125" y2="145.3125"/><text fill="#000000" font-family="sans-serif" font-size="13" font-weight="bold" lengthAdjust="spacing" textLength="7" x="228.5" y="140.4561">2</text><text fill="#000000" font-family="sans-serif" font-size="13" lengthAdjust="spacing" textLength="220" x="239.5" y="140.4561">signIn(GoogleLoginProvider.ProviderId)</text><polygon fill="#181818" points="642.5,171.6641,652.5,175.6641,642.5,179.6641,646.5,175.6641" style="stroke:#181818;stroke-width:1.0;"/><line style="stroke:#181818;stroke-width:1.0;" x1="476.5" x2="648.5" y1="175.6641" y2="175.6641"/><text fill="#000000" font-family="sans-serif" font-size="13" font-weight="bold" lengthAdjust="spacing" textLength="7" x="483.5" y="170.8076">3</text><text fill="#000000" font-family="sans-serif" font-size="13" lengthAdjust="spacing" textLength="138" x="494.5" y="170.8076">SignIn(email, password)</text><polygon fill="#181818" points="459.5,202.0156,469.5,206.0156,459.5,210.0156,463.5,206.0156" style="stroke:#181818;stroke-width:1.0;"/><line style="stroke:#181818;stroke-width:1.0;" x1="221.5" x2="465.5" y1="206.0156" y2="206.0156"/><text fill="#000000" font-family="sans-serif" font-size="13" font-weight="bold" lengthAdjust="spacing" textLength="7" x="228.5" y="201.1592">4</text><text fill="#000000" font-family="sans-serif" font-size="13" lengthAdjust="spacing" textLength="138" x="239.5" y="201.1592">verifyIfUserExists(email)</text><polygon fill="#181818" points="709.5,232.3672,719.5,236.3672,709.5,240.3672,713.5,236.3672" style="stroke:#181818;stroke-width:1.0;"/><line style="stroke:#181818;stroke-width:1.0;" x1="481.5" x2="715.5" y1="236.3672" y2="236.3672"/><text fill="#000000" font-family="sans-serif" font-size="13" font-weight="bold" lengthAdjust="spacing" textLength="7" x="488.5" y="231.5107">5</text><text fill="#000000" font-family="sans-serif" font-size="13" lengthAdjust="spacing" textLength="157" x="499.5" y="231.5107">post(/auth/signupviagoogle)</text><polygon fill="#181818" points="822.5,262.7188,832.5,266.7188,822.5,270.7188,826.5,266.7188" style="stroke:#181818;stroke-width:1.0;"/><line style="stroke:#181818;stroke-width:1.0;" x1="731.5" x2="828.5" y1="266.7188" y2="266.7188"/><text fill="#000000" font-family="sans-serif" font-size="13" font-weight="bold" lengthAdjust="spacing" textLength="7" x="738.5" y="261.8623">6</text><text fill="#000000" font-family="sans-serif" font-size="13" lengthAdjust="spacing" textLength="25" x="749.5" y="261.8623">post</text><polygon fill="#181818" points="997.5,293.0703,1007.5,297.0703,997.5,301.0703,1001.5,297.0703" style="stroke:#181818;stroke-width:1.0;"/><line style="stroke:#181818;stroke-width:1.0;" x1="844.5" x2="1003.5" y1="297.0703" y2="297.0703"/><text fill="#000000" font-family="sans-serif" font-size="13" font-weight="bold" lengthAdjust="spacing" textLength="7" x="851.5" y="292.2139">7</text><text fill="#000000" font-family="sans-serif" font-size="13" lengthAdjust="spacing" textLength="135" x="862.5" y="292.2139">SignInViaGoogle(email)</text><polygon fill="#181818" points="1523,323.4219,1533,327.4219,1523,331.4219,1527,327.4219" style="stroke:#181818;stroke-width:1.0;"/><line style="stroke:#181818;stroke-width:1.0;" x1="1019.5" x2="1529" y1="327.4219" y2="327.4219"/><text fill="#000000" font-family="sans-serif" font-size="13" font-weight="bold" lengthAdjust="spacing" textLength="7" x="1026.5" y="322.5654">8</text><text fill="#000000" font-family="sans-serif" font-size="13" lengthAdjust="spacing" textLength="108" x="1037.5" y="322.5654">findByEmail(email)</text><polygon fill="#181818" points="1840,353.7734,1850,357.7734,1840,361.7734,1844,357.7734" style="stroke:#181818;stroke-width:1.0;"/><line style="stroke:#181818;stroke-width:1.0;" x1="1545" x2="1846" y1="357.7734" y2="357.7734"/><text fill="#000000" font-family="sans-serif" font-size="13" font-weight="bold" lengthAdjust="spacing" textLength="7" x="1552" y="352.917">9</text><text fill="#000000" font-family="sans-serif" font-size="13" lengthAdjust="spacing" textLength="83" x="1563" y="352.917">findOne(email)</text><polygon fill="#181818" points="1030.5,384.125,1020.5,388.125,1030.5,392.125,1026.5,388.125" style="stroke:#181818;stroke-width:1.0;"/><line style="stroke:#181818;stroke-width:1.0;stroke-dasharray:2.0,2.0;" x1="1024.5" x2="1539" y1="388.125" y2="388.125"/><text fill="#000000" font-family="sans-serif" font-size="13" font-weight="bold" lengthAdjust="spacing" textLength="14" x="1036.5" y="383.2686">10</text><text fill="#000000" font-family="sans-serif" font-size="13" lengthAdjust="spacing" textLength="56" x="1054.5" y="383.2686">userfound</text><path d="M10,403.125 L71,403.125 L71,411.4766 L61,421.4766 L10,421.4766 L10,403.125 " fill="#EEEEEE" style="stroke:#000000;stroke-width:1.5;"/><rect fill="none" height="562.4609" style="stroke:#000000;stroke-width:1.5;" width="1808.5" x="10" y="403.125"/><text fill="#000000" font-family="sans-serif" font-size="13" font-weight="bold" lengthAdjust="spacing" textLength="16" x="25" y="417.6201">alt</text><text fill="#000000" font-family="sans-serif" font-size="11" font-weight="bold" lengthAdjust="spacing" textLength="111" x="86" y="416.5439">[userfound == false]</text><polygon fill="#181818" points="855.5,439.8281,845.5,443.8281,855.5,447.8281,851.5,443.8281" style="stroke:#181818;stroke-width:1.0;"/><line style="stroke:#181818;stroke-width:1.0;stroke-dasharray:2.0,2.0;" x1="849.5" x2="1008.5" y1="443.8281" y2="443.8281"/><text fill="#000000" font-family="sans-serif" font-size="13" font-weight="bold" lengthAdjust="spacing" textLength="14" x="861.5" y="438.9717">11</text><text fill="#000000" font-family="sans-serif" font-size="13" lengthAdjust="spacing" textLength="83" x="879.5" y="438.9717">error message</text><polygon fill="#181818" points="742.5,470.1797,732.5,474.1797,742.5,478.1797,738.5,474.1797" style="stroke:#181818;stroke-width:1.0;"/><line style="stroke:#181818;stroke-width:1.0;stroke-dasharray:2.0,2.0;" x1="736.5" x2="833.5" y1="474.1797" y2="474.1797"/><text fill="#000000" font-family="sans-serif" font-size="13" font-weight="bold" lengthAdjust="spacing" textLength="14" x="748.5" y="469.3232">12</text><text fill="#000000" font-family="sans-serif" font-size="13" lengthAdjust="spacing" textLength="61" x="766.5" y="469.3232">status 404</text><polygon fill="#181818" points="492.5,500.5313,482.5,504.5313,492.5,508.5313,488.5,504.5313" style="stroke:#181818;stroke-width:1.0;"/><line style="stroke:#181818;stroke-width:1.0;stroke-dasharray:2.0,2.0;" x1="486.5" x2="720.5" y1="504.5313" y2="504.5313"/><text fill="#000000" font-family="sans-serif" font-size="13" font-weight="bold" lengthAdjust="spacing" textLength="14" x="498.5" y="499.6748">13</text><text fill="#000000" font-family="sans-serif" font-size="13" lengthAdjust="spacing" textLength="91" x="516.5" y="499.6748">operation failure</text><polygon fill="#181818" points="232.5,530.8828,222.5,534.8828,232.5,538.8828,228.5,534.8828" style="stroke:#181818;stroke-width:1.0;"/><line style="stroke:#181818;stroke-width:1.0;stroke-dasharray:2.0,2.0;" x1="226.5" x2="470.5" y1="534.8828" y2="534.8828"/><text fill="#000000" font-family="sans-serif" font-size="13" font-weight="bold" lengthAdjust="spacing" textLength="14" x="238.5" y="530.0264">14</text><text fill="#000000" font-family="sans-serif" font-size="13" lengthAdjust="spacing" textLength="91" x="256.5" y="530.0264">operation failure</text><polygon fill="#181818" points="44.5,561.2344,34.5,565.2344,44.5,569.2344,40.5,565.2344" style="stroke:#181818;stroke-width:1.0;"/><line style="stroke:#181818;stroke-width:1.0;stroke-dasharray:2.0,2.0;" x1="38.5" x2="210.5" y1="565.2344" y2="565.2344"/><text fill="#000000" font-family="sans-serif" font-size="13" font-weight="bold" lengthAdjust="spacing" textLength="14" x="50.5" y="560.3779">15</text><text fill="#000000" font-family="sans-serif" font-size="13" lengthAdjust="spacing" textLength="136" x="68.5" y="560.3779">display failure message</text><line style="stroke:#000000;stroke-width:1.0;stroke-dasharray:2.0,2.0;" x1="10" x2="1818.5" y1="574.2344" y2="574.2344"/><text fill="#000000" font-family="sans-serif" font-size="11" font-weight="bold" lengthAdjust="spacing" textLength="107" x="15" y="585.6533">[userfound == true]</text><line style="stroke:#181818;stroke-width:1.0;" x1="1024.5" x2="1066.5" y1="611.4219" y2="611.4219"/><line style="stroke:#181818;stroke-width:1.0;" x1="1066.5" x2="1066.5" y1="611.4219" y2="624.4219"/><line style="stroke:#181818;stroke-width:1.0;" x1="1025.5" x2="1066.5" y1="624.4219" y2="624.4219"/><polygon fill="#181818" points="1035.5,620.4219,1025.5,624.4219,1035.5,628.4219,1031.5,624.4219" style="stroke:#181818;stroke-width:1.0;"/><text fill="#000000" font-family="sans-serif" font-size="13" font-weight="bold" lengthAdjust="spacing" textLength="14" x="1031.5" y="606.5654">16</text><text fill="#000000" font-family="sans-serif" font-size="13" lengthAdjust="spacing" textLength="149" x="1049.5" y="606.5654">generateToken(userfound)</text><polygon fill="#181818" points="1606.5,680.7734,1616.5,684.7734,1606.5,688.7734,1610.5,684.7734" style="stroke:#181818;stroke-width:1.0;"/><line style="stroke:#181818;stroke-width:1.0;" x1="1019.5" x2="1612.5" y1="684.7734" y2="684.7734"/><text fill="#000000" font-family="sans-serif" font-size="13" font-weight="bold" lengthAdjust="spacing" textLength="14" x="1026.5" y="679.917">17</text><text fill="#000000" font-family="sans-serif" font-size="13" lengthAdjust="spacing" textLength="105" x="1044.5" y="679.917">toDTO (userfound)</text><polygon fill="#181818" points="855.5,741.125,845.5,745.125,855.5,749.125,851.5,745.125" style="stroke:#181818;stroke-width:1.0;"/><line style="stroke:#181818;stroke-width:1.0;stroke-dasharray:2.0,2.0;" x1="849.5" x2="1013.5" y1="745.125" y2="745.125"/><text fill="#000000" font-family="sans-serif" font-size="13" font-weight="bold" lengthAdjust="spacing" textLength="14" x="861.5" y="740.2686">18</text><text fill="#000000" font-family="sans-serif" font-size="13" lengthAdjust="spacing" textLength="14" x="879.5" y="740.2686">ok</text><polygon fill="#181818" points="742.5,771.4766,732.5,775.4766,742.5,779.4766,738.5,775.4766" style="stroke:#181818;stroke-width:1.0;"/><line style="stroke:#181818;stroke-width:1.0;stroke-dasharray:2.0,2.0;" x1="736.5" x2="838.5" y1="775.4766" y2="775.4766"/><text fill="#000000" font-family="sans-serif" font-size="13" font-weight="bold" lengthAdjust="spacing" textLength="14" x="748.5" y="770.6201">19</text><text fill="#000000" font-family="sans-serif" font-size="13" lengthAdjust="spacing" textLength="61" x="766.5" y="770.6201">status 200</text><polygon fill="#181818" points="492.5,801.8281,482.5,805.8281,492.5,809.8281,488.5,805.8281" style="stroke:#181818;stroke-width:1.0;"/><line style="stroke:#181818;stroke-width:1.0;stroke-dasharray:2.0,2.0;" x1="486.5" x2="725.5" y1="805.8281" y2="805.8281"/><text fill="#000000" font-family="sans-serif" font-size="13" font-weight="bold" lengthAdjust="spacing" textLength="14" x="498.5" y="800.9717">20</text><text fill="#000000" font-family="sans-serif" font-size="13" lengthAdjust="spacing" textLength="106" x="516.5" y="800.9717">operation success</text><polygon fill="#181818" points="232.5,832.1797,222.5,836.1797,232.5,840.1797,228.5,836.1797" style="stroke:#181818;stroke-width:1.0;"/><line style="stroke:#181818;stroke-width:1.0;stroke-dasharray:2.0,2.0;" x1="226.5" x2="475.5" y1="836.1797" y2="836.1797"/><text fill="#000000" font-family="sans-serif" font-size="13" font-weight="bold" lengthAdjust="spacing" textLength="14" x="238.5" y="831.3232">21</text><text fill="#000000" font-family="sans-serif" font-size="13" lengthAdjust="spacing" textLength="106" x="256.5" y="831.3232">operation success</text><polygon fill="#181818" points="459.5,862.5313,469.5,866.5313,459.5,870.5313,463.5,866.5313" style="stroke:#181818;stroke-width:1.0;"/><line style="stroke:#181818;stroke-width:1.0;" x1="221.5" x2="465.5" y1="866.5313" y2="866.5313"/><text fill="#000000" font-family="sans-serif" font-size="13" font-weight="bold" lengthAdjust="spacing" textLength="14" x="228.5" y="861.6748">22</text><text fill="#000000" font-family="sans-serif" font-size="13" lengthAdjust="spacing" textLength="86" x="246.5" y="861.6748">roleMatch(role)</text><polygon fill="#181818" points="232.5,892.8828,222.5,896.8828,232.5,900.8828,228.5,896.8828" style="stroke:#181818;stroke-width:1.0;"/><line style="stroke:#181818;stroke-width:1.0;stroke-dasharray:2.0,2.0;" x1="226.5" x2="475.5" y1="896.8828" y2="896.8828"/><text fill="#000000" font-family="sans-serif" font-size="13" font-weight="bold" lengthAdjust="spacing" textLength="14" x="238.5" y="892.0264">23</text><text fill="#000000" font-family="sans-serif" font-size="13" lengthAdjust="spacing" textLength="35" x="256.5" y="892.0264">navUrl</text><polygon fill="#181818" points="1768,923.2344,1778,927.2344,1768,931.2344,1772,927.2344" style="stroke:#181818;stroke-width:1.0;"/><line style="stroke:#181818;stroke-width:1.0;" x1="221.5" x2="1774" y1="927.2344" y2="927.2344"/><text fill="#000000" font-family="sans-serif" font-size="13" font-weight="bold" lengthAdjust="spacing" textLength="14" x="228.5" y="922.3779">24</text><text fill="#000000" font-family="sans-serif" font-size="13" lengthAdjust="spacing" textLength="135" x="246.5" y="922.3779">navigateByUrl (navURL)</text><polygon fill="#181818" points="44.5,953.5859,34.5,957.5859,44.5,961.5859,40.5,957.5859" style="stroke:#181818;stroke-width:1.0;"/><line style="stroke:#181818;stroke-width:1.0;stroke-dasharray:2.0,2.0;" x1="38.5" x2="215.5" y1="957.5859" y2="957.5859"/><text fill="#000000" font-family="sans-serif" font-size="13" font-weight="bold" lengthAdjust="spacing" textLength="14" x="50.5" y="952.7295">25</text><text fill="#000000" font-family="sans-serif" font-size="13" lengthAdjust="spacing" textLength="71" x="68.5" y="952.7295">Shows page</text><!--MD5=[c70786d89aae55f3597d0eef1b4b9c6a]
@startuml

autonumber
actor "GA" as GA
participant "LoginComponent" as COMP
participant "UserService" as SS
participant "GoogleAPI" as GoogleAPI
participant "MDL" as MDL
participant "UserRoute" as ROUTE
participant "UserService" as SERVICE

participant "UserPassword" as UserPassword
participant "UserEmail" as UserEmail
participant "UserPhone" as UserPhone
participant "User" as User
participant "UserRepo" as REPO
participant "UserMap" as MAP
participant "UserDTO" as DTO
participant "Router" as ROUTER


database "Database" as DB

GA-> COMP : signIn with google
activate COMP
COMP -> SS : signIn(GoogleLoginProvider.ProviderId)
activate SS
SS -> GoogleAPI : SignIn(email, password)
deactivate SS
COMP -> SS : verifyIfUserExists(email)
activate SS
SS -> MDL : post(/auth/signupviagoogle)
activate MDL
MDL -> ROUTE : post
activate ROUTE
ROUTE -> SERVICE : SignInViaGoogle(email)
activate SERVICE
SERVICE -> REPO : findByEmail(email)
activate REPO
REPO -> DB : findOne(email)
REPO - -> SERVICE : userfound
deactivate REPO
alt userfound == false
SERVICE - ->ROUTE : error message
MDL <- - ROUTE : status 404
SS <- - MDL : operation failure
COMP <- - SS : operation failure
GA<- - COMP : display failure message
else userfound == true

SERVICE -> SERVICE : generateToken(userfound)
activate SERVICE
deactivate SERVICE
SERVICE -> MAP : toDTO (userfound)
activate MAP
deactivate MAP

SERVICE - -> ROUTE : ok

deactivate SERVICE

ROUTE - -> MDL : status 200
deactivate ROUTE

MDL - -> SS : operation success
deactivate MDL
COMP <- - SS : operation success
deactivate SS
deactivate MDL
COMP -> SS : roleMatch(role)
activate SS
SS - -> COMP : navUrl
deactivate SS
COMP -> ROUTER : navigateByUrl (navURL)
GA<- - COMP : Shows page
deactivate COMP

end


@enduml

PlantUML version 1.2022.7(Mon Aug 22 18:01:30 BST 2022)
(GPL source distribution)
Java Runtime: OpenJDK Runtime Environment
JVM: OpenJDK 64-Bit Server VM
Default Encoding: Cp1252
Language: pt
Country: PT
--></g></svg>