<?xml version="1.0" encoding="UTF-8" standalone="no"?><svg xmlns="http://www.w3.org/2000/svg" xmlns:xlink="http://www.w3.org/1999/xlink" contentStyleType="text/css" height="1462px" preserveAspectRatio="none" style="width:2367px;height:1462px;background:#FFFFFF;" version="1.1" viewBox="0 0 2367 1462" width="2367px" zoomAndPan="magnify"><defs/><g><rect fill="#FFFFFF" height="1256.7344" style="stroke:#181818;stroke-width:1.0;" width="10" x="463.5" y="114.9609"/><rect fill="#FFFFFF" height="1180.0313" style="stroke:#181818;stroke-width:1.0;" width="10" x="853.5" y="145.3125"/><rect fill="#FFFFFF" height="1119.3281" style="stroke:#181818;stroke-width:1.0;" width="10" x="1011.5" y="175.6641"/><rect fill="#FFFFFF" height="1058.625" style="stroke:#181818;stroke-width:1.0;" width="10" x="1124.5" y="206.0156"/><rect fill="#FFFFFF" height="997.9219" style="stroke:#181818;stroke-width:1.0;" width="10" x="1490.5" y="236.3672"/><rect fill="#FFFFFF" height="28" style="stroke:#181818;stroke-width:1.0;" width="10" x="1495.5" y="866.4766"/><rect fill="#FFFFFF" height="30" style="stroke:#181818;stroke-width:1.0;" width="10" x="1680.5" y="586.7188"/><rect fill="#FFFFFF" height="30" style="stroke:#181818;stroke-width:1.0;" width="10" x="1680.5" y="647.0703"/><rect fill="#FFFFFF" height="30" style="stroke:#181818;stroke-width:1.0;" width="10" x="1871.5" y="707.4219"/><rect fill="#FFFFFF" height="30.3516" style="stroke:#181818;stroke-width:1.0;" width="10" x="2015" y="266.7188"/><rect fill="#FFFFFF" height="30" style="stroke:#181818;stroke-width:1.0;" width="10" x="2015" y="523.3672"/><rect fill="#FFFFFF" height="30" style="stroke:#181818;stroke-width:1.0;" width="10" x="2015" y="767.7734"/><rect fill="#FFFFFF" height="211.4063" style="stroke:#181818;stroke-width:1.0;" width="10" x="2015" y="931.8281"/><rect fill="#FFFFFF" height="30" style="stroke:#181818;stroke-width:1.0;" width="10" x="2150" y="962.1797"/><rect fill="#FFFFFF" height="30" style="stroke:#181818;stroke-width:1.0;" width="10" x="2150" y="1082.8828"/><rect fill="#FFFFFF" height="30.3516" style="stroke:#181818;stroke-width:1.0;" width="10" x="2231.5" y="1173.5859"/><rect fill="#FFFFFF" height="30" style="stroke:#181818;stroke-width:1.0;" width="10" x="2311.5" y="1022.5313"/><rect fill="none" height="1051.625" style="stroke:#000000;stroke-width:1.5;" width="2350" x="10" y="312.0703"/><line style="stroke:#181818;stroke-width:0.5;stroke-dasharray:5.0,5.0;" x1="42" x2="42" y1="82.6094" y2="1380.6953"/><line style="stroke:#181818;stroke-width:0.5;stroke-dasharray:5.0,5.0;" x1="468.5" x2="468.5" y1="82.6094" y2="1380.6953"/><line style="stroke:#181818;stroke-width:0.5;stroke-dasharray:5.0,5.0;" x1="858.5" x2="858.5" y1="82.6094" y2="1380.6953"/><line style="stroke:#181818;stroke-width:0.5;stroke-dasharray:5.0,5.0;" x1="1016" x2="1016" y1="82.6094" y2="1380.6953"/><line style="stroke:#181818;stroke-width:0.5;stroke-dasharray:5.0,5.0;" x1="1129" x2="1129" y1="82.6094" y2="1380.6953"/><line style="stroke:#181818;stroke-width:0.5;stroke-dasharray:5.0,5.0;" x1="1495.5" x2="1495.5" y1="82.6094" y2="1380.6953"/><line style="stroke:#181818;stroke-width:0.5;stroke-dasharray:5.0,5.0;" x1="1685.5" x2="1685.5" y1="82.6094" y2="1380.6953"/><line style="stroke:#181818;stroke-width:0.5;stroke-dasharray:5.0,5.0;" x1="1785.5" x2="1785.5" y1="82.6094" y2="1380.6953"/><line style="stroke:#181818;stroke-width:0.5;stroke-dasharray:5.0,5.0;" x1="1876.5" x2="1876.5" y1="82.6094" y2="1380.6953"/><line style="stroke:#181818;stroke-width:0.5;stroke-dasharray:5.0,5.0;" x1="1949.5" x2="1949.5" y1="82.6094" y2="1380.6953"/><line style="stroke:#181818;stroke-width:0.5;stroke-dasharray:5.0,5.0;" x1="2019.5" x2="2019.5" y1="82.6094" y2="1380.6953"/><line style="stroke:#181818;stroke-width:0.5;stroke-dasharray:5.0,5.0;" x1="2155" x2="2155" y1="82.6094" y2="1380.6953"/><line style="stroke:#181818;stroke-width:0.5;stroke-dasharray:5.0,5.0;" x1="2236" x2="2236" y1="82.6094" y2="1380.6953"/><line style="stroke:#181818;stroke-width:0.5;stroke-dasharray:5.0,5.0;" x1="2316" x2="2316" y1="82.6094" y2="1380.6953"/><text fill="#000000" font-family="sans-serif" font-size="14" lengthAdjust="spacing" textLength="39" x="20" y="79.5332">Admin</text><ellipse cx="42.5" cy="13.5" fill="#E2E2F0" rx="8" ry="8" style="stroke:#181818;stroke-width:0.5;"/><path d="M42.5,21.5 L42.5,48.5 M29.5,29.5 L55.5,29.5 M42.5,48.5 L29.5,63.5 M42.5,48.5 L55.5,63.5 " fill="none" style="stroke:#181818;stroke-width:0.5;"/><text fill="#000000" font-family="sans-serif" font-size="14" lengthAdjust="spacing" textLength="39" x="20" y="1394.2285">Admin</text><ellipse cx="42.5" cy="1405.8047" fill="#E2E2F0" rx="8" ry="8" style="stroke:#181818;stroke-width:0.5;"/><path d="M42.5,1413.8047 L42.5,1440.8047 M29.5,1421.8047 L55.5,1421.8047 M42.5,1440.8047 L29.5,1455.8047 M42.5,1440.8047 L55.5,1455.8047 " fill="none" style="stroke:#181818;stroke-width:0.5;"/><rect fill="#E2E2F0" height="31.6094" rx="2.5" ry="2.5" style="stroke:#181818;stroke-width:0.5;" width="140" x="398.5" y="50"/><text fill="#000000" font-family="sans-serif" font-size="14" lengthAdjust="spacing" textLength="126" x="405.5" y="71.5332">RegisterComponent</text><rect fill="#E2E2F0" height="31.6094" rx="2.5" ry="2.5" style="stroke:#181818;stroke-width:0.5;" width="140" x="398.5" y="1379.6953"/><text fill="#000000" font-family="sans-serif" font-size="14" lengthAdjust="spacing" textLength="126" x="405.5" y="1401.2285">RegisterComponent</text><rect fill="#E2E2F0" height="31.6094" rx="2.5" ry="2.5" style="stroke:#181818;stroke-width:0.5;" width="90" x="813.5" y="50"/><text fill="#000000" font-family="sans-serif" font-size="14" lengthAdjust="spacing" textLength="76" x="820.5" y="71.5332">UserService</text><rect fill="#E2E2F0" height="31.6094" rx="2.5" ry="2.5" style="stroke:#181818;stroke-width:0.5;" width="90" x="813.5" y="1379.6953"/><text fill="#000000" font-family="sans-serif" font-size="14" lengthAdjust="spacing" textLength="76" x="820.5" y="1401.2285">UserService</text><rect fill="#E2E2F0" height="31.6094" rx="2.5" ry="2.5" style="stroke:#181818;stroke-width:0.5;" width="43" x="995" y="50"/><text fill="#000000" font-family="sans-serif" font-size="14" lengthAdjust="spacing" textLength="29" x="1002" y="71.5332">MDL</text><rect fill="#E2E2F0" height="31.6094" rx="2.5" ry="2.5" style="stroke:#181818;stroke-width:0.5;" width="43" x="995" y="1379.6953"/><text fill="#000000" font-family="sans-serif" font-size="14" lengthAdjust="spacing" textLength="29" x="1002" y="1401.2285">MDL</text><rect fill="#E2E2F0" height="31.6094" rx="2.5" ry="2.5" style="stroke:#181818;stroke-width:0.5;" width="81" x="1089" y="50"/><text fill="#000000" font-family="sans-serif" font-size="14" lengthAdjust="spacing" textLength="67" x="1096" y="71.5332">UserRoute</text><rect fill="#E2E2F0" height="31.6094" rx="2.5" ry="2.5" style="stroke:#181818;stroke-width:0.5;" width="81" x="1089" y="1379.6953"/><text fill="#000000" font-family="sans-serif" font-size="14" lengthAdjust="spacing" textLength="67" x="1096" y="1401.2285">UserRoute</text><rect fill="#E2E2F0" height="31.6094" rx="2.5" ry="2.5" style="stroke:#181818;stroke-width:0.5;" width="90" x="1450.5" y="50"/><text fill="#000000" font-family="sans-serif" font-size="14" lengthAdjust="spacing" textLength="76" x="1457.5" y="71.5332">UserService</text><rect fill="#E2E2F0" height="31.6094" rx="2.5" ry="2.5" style="stroke:#181818;stroke-width:0.5;" width="90" x="1450.5" y="1379.6953"/><text fill="#000000" font-family="sans-serif" font-size="14" lengthAdjust="spacing" textLength="76" x="1457.5" y="1401.2285">UserService</text><rect fill="#E2E2F0" height="31.6094" rx="2.5" ry="2.5" style="stroke:#181818;stroke-width:0.5;" width="104" x="1633.5" y="50"/><text fill="#000000" font-family="sans-serif" font-size="14" lengthAdjust="spacing" textLength="90" x="1640.5" y="71.5332">UserPassword</text><rect fill="#E2E2F0" height="31.6094" rx="2.5" ry="2.5" style="stroke:#181818;stroke-width:0.5;" width="104" x="1633.5" y="1379.6953"/><text fill="#000000" font-family="sans-serif" font-size="14" lengthAdjust="spacing" textLength="90" x="1640.5" y="1401.2285">UserPassword</text><rect fill="#E2E2F0" height="31.6094" rx="2.5" ry="2.5" style="stroke:#181818;stroke-width:0.5;" width="77" x="1747.5" y="50"/><text fill="#000000" font-family="sans-serif" font-size="14" lengthAdjust="spacing" textLength="63" x="1754.5" y="71.5332">UserEmail</text><rect fill="#E2E2F0" height="31.6094" rx="2.5" ry="2.5" style="stroke:#181818;stroke-width:0.5;" width="77" x="1747.5" y="1379.6953"/><text fill="#000000" font-family="sans-serif" font-size="14" lengthAdjust="spacing" textLength="63" x="1754.5" y="1401.2285">UserEmail</text><rect fill="#E2E2F0" height="31.6094" rx="2.5" ry="2.5" style="stroke:#181818;stroke-width:0.5;" width="84" x="1834.5" y="50"/><text fill="#000000" font-family="sans-serif" font-size="14" lengthAdjust="spacing" textLength="70" x="1841.5" y="71.5332">UserPhone</text><rect fill="#E2E2F0" height="31.6094" rx="2.5" ry="2.5" style="stroke:#181818;stroke-width:0.5;" width="84" x="1834.5" y="1379.6953"/><text fill="#000000" font-family="sans-serif" font-size="14" lengthAdjust="spacing" textLength="70" x="1841.5" y="1401.2285">UserPhone</text><rect fill="#E2E2F0" height="31.6094" rx="2.5" ry="2.5" style="stroke:#181818;stroke-width:0.5;" width="43" x="1928.5" y="50"/><text fill="#000000" font-family="sans-serif" font-size="14" lengthAdjust="spacing" textLength="29" x="1935.5" y="71.5332">User</text><rect fill="#E2E2F0" height="31.6094" rx="2.5" ry="2.5" style="stroke:#181818;stroke-width:0.5;" width="43" x="1928.5" y="1379.6953"/><text fill="#000000" font-family="sans-serif" font-size="14" lengthAdjust="spacing" textLength="29" x="1935.5" y="1401.2285">User</text><rect fill="#E2E2F0" height="31.6094" rx="2.5" ry="2.5" style="stroke:#181818;stroke-width:0.5;" width="77" x="1981.5" y="50"/><text fill="#000000" font-family="sans-serif" font-size="14" lengthAdjust="spacing" textLength="63" x="1988.5" y="71.5332">UserRepo</text><rect fill="#E2E2F0" height="31.6094" rx="2.5" ry="2.5" style="stroke:#181818;stroke-width:0.5;" width="77" x="1981.5" y="1379.6953"/><text fill="#000000" font-family="sans-serif" font-size="14" lengthAdjust="spacing" textLength="63" x="1988.5" y="1401.2285">UserRepo</text><rect fill="#E2E2F0" height="31.6094" rx="2.5" ry="2.5" style="stroke:#181818;stroke-width:0.5;" width="70" x="2120" y="50"/><text fill="#000000" font-family="sans-serif" font-size="14" lengthAdjust="spacing" textLength="56" x="2127" y="71.5332">UserMap</text><rect fill="#E2E2F0" height="31.6094" rx="2.5" ry="2.5" style="stroke:#181818;stroke-width:0.5;" width="70" x="2120" y="1379.6953"/><text fill="#000000" font-family="sans-serif" font-size="14" lengthAdjust="spacing" textLength="56" x="2127" y="1401.2285">UserMap</text><rect fill="#E2E2F0" height="31.6094" rx="2.5" ry="2.5" style="stroke:#181818;stroke-width:0.5;" width="73" x="2200" y="50"/><text fill="#000000" font-family="sans-serif" font-size="14" lengthAdjust="spacing" textLength="59" x="2207" y="71.5332">UserDTO</text><rect fill="#E2E2F0" height="31.6094" rx="2.5" ry="2.5" style="stroke:#181818;stroke-width:0.5;" width="73" x="2200" y="1379.6953"/><text fill="#000000" font-family="sans-serif" font-size="14" lengthAdjust="spacing" textLength="59" x="2207" y="1401.2285">UserDTO</text><text fill="#000000" font-family="sans-serif" font-size="14" lengthAdjust="spacing" textLength="61" x="2283" y="79.5332">Database</text><path d="M2298.5,29 C2298.5,19 2316.5,19 2316.5,19 C2316.5,19 2334.5,19 2334.5,29 L2334.5,55 C2334.5,65 2316.5,65 2316.5,65 C2316.5,65 2298.5,65 2298.5,55 L2298.5,29 " fill="#E2E2F0" style="stroke:#181818;stroke-width:1.5;"/><path d="M2298.5,29 C2298.5,39 2316.5,39 2316.5,39 C2316.5,39 2334.5,39 2334.5,29 " fill="none" style="stroke:#181818;stroke-width:1.5;"/><text fill="#000000" font-family="sans-serif" font-size="14" lengthAdjust="spacing" textLength="61" x="2283" y="1394.2285">Database</text><path d="M2298.5,1407.3047 C2298.5,1397.3047 2316.5,1397.3047 2316.5,1397.3047 C2316.5,1397.3047 2334.5,1397.3047 2334.5,1407.3047 L2334.5,1433.3047 C2334.5,1443.3047 2316.5,1443.3047 2316.5,1443.3047 C2316.5,1443.3047 2298.5,1443.3047 2298.5,1433.3047 L2298.5,1407.3047 " fill="#E2E2F0" style="stroke:#181818;stroke-width:1.5;"/><path d="M2298.5,1407.3047 C2298.5,1417.3047 2316.5,1417.3047 2316.5,1417.3047 C2316.5,1417.3047 2334.5,1417.3047 2334.5,1407.3047 " fill="none" style="stroke:#181818;stroke-width:1.5;"/><rect fill="#FFFFFF" height="1256.7344" style="stroke:#181818;stroke-width:1.0;" width="10" x="463.5" y="114.9609"/><rect fill="#FFFFFF" height="1180.0313" style="stroke:#181818;stroke-width:1.0;" width="10" x="853.5" y="145.3125"/><rect fill="#FFFFFF" height="1119.3281" style="stroke:#181818;stroke-width:1.0;" width="10" x="1011.5" y="175.6641"/><rect fill="#FFFFFF" height="1058.625" style="stroke:#181818;stroke-width:1.0;" width="10" x="1124.5" y="206.0156"/><rect fill="#FFFFFF" height="997.9219" style="stroke:#181818;stroke-width:1.0;" width="10" x="1490.5" y="236.3672"/><rect fill="#FFFFFF" height="28" style="stroke:#181818;stroke-width:1.0;" width="10" x="1495.5" y="866.4766"/><rect fill="#FFFFFF" height="30" style="stroke:#181818;stroke-width:1.0;" width="10" x="1680.5" y="586.7188"/><rect fill="#FFFFFF" height="30" style="stroke:#181818;stroke-width:1.0;" width="10" x="1680.5" y="647.0703"/><rect fill="#FFFFFF" height="30" style="stroke:#181818;stroke-width:1.0;" width="10" x="1871.5" y="707.4219"/><rect fill="#FFFFFF" height="30.3516" style="stroke:#181818;stroke-width:1.0;" width="10" x="2015" y="266.7188"/><rect fill="#FFFFFF" height="30" style="stroke:#181818;stroke-width:1.0;" width="10" x="2015" y="523.3672"/><rect fill="#FFFFFF" height="30" style="stroke:#181818;stroke-width:1.0;" width="10" x="2015" y="767.7734"/><rect fill="#FFFFFF" height="211.4063" style="stroke:#181818;stroke-width:1.0;" width="10" x="2015" y="931.8281"/><rect fill="#FFFFFF" height="30" style="stroke:#181818;stroke-width:1.0;" width="10" x="2150" y="962.1797"/><rect fill="#FFFFFF" height="30" style="stroke:#181818;stroke-width:1.0;" width="10" x="2150" y="1082.8828"/><rect fill="#FFFFFF" height="30.3516" style="stroke:#181818;stroke-width:1.0;" width="10" x="2231.5" y="1173.5859"/><rect fill="#FFFFFF" height="30" style="stroke:#181818;stroke-width:1.0;" width="10" x="2311.5" y="1022.5313"/><polygon fill="#181818" points="451.5,110.9609,461.5,114.9609,451.5,118.9609,455.5,114.9609" style="stroke:#181818;stroke-width:1.0;"/><line style="stroke:#181818;stroke-width:1.0;" x1="42.5" x2="457.5" y1="114.9609" y2="114.9609"/><text fill="#000000" font-family="sans-serif" font-size="13" font-weight="bold" lengthAdjust="spacing" textLength="7" x="49.5" y="110.1045">1</text><text fill="#000000" font-family="sans-serif" font-size="13" lengthAdjust="spacing" textLength="391" x="60.5" y="110.1045">introduces the data(firstName,lastName,email,password,role,phone)</text><polygon fill="#181818" points="841.5,141.3125,851.5,145.3125,841.5,149.3125,845.5,145.3125" style="stroke:#181818;stroke-width:1.0;"/><line style="stroke:#181818;stroke-width:1.0;" x1="473.5" x2="847.5" y1="145.3125" y2="145.3125"/><text fill="#000000" font-family="sans-serif" font-size="13" font-weight="bold" lengthAdjust="spacing" textLength="7" x="480.5" y="140.4561">2</text><text fill="#000000" font-family="sans-serif" font-size="13" lengthAdjust="spacing" textLength="350" x="491.5" y="140.4561">registerUser(firstName,lastName,email,password,role,phone)</text><polygon fill="#181818" points="999.5,171.6641,1009.5,175.6641,999.5,179.6641,1003.5,175.6641" style="stroke:#181818;stroke-width:1.0;"/><line style="stroke:#181818;stroke-width:1.0;" x1="863.5" x2="1005.5" y1="175.6641" y2="175.6641"/><text fill="#000000" font-family="sans-serif" font-size="13" font-weight="bold" lengthAdjust="spacing" textLength="7" x="870.5" y="170.8076">3</text><text fill="#000000" font-family="sans-serif" font-size="13" lengthAdjust="spacing" textLength="104" x="881.5" y="170.8076">post(/auth/signup)</text><polygon fill="#181818" points="1112.5,202.0156,1122.5,206.0156,1112.5,210.0156,1116.5,206.0156" style="stroke:#181818;stroke-width:1.0;"/><line style="stroke:#181818;stroke-width:1.0;" x1="1021.5" x2="1118.5" y1="206.0156" y2="206.0156"/><text fill="#000000" font-family="sans-serif" font-size="13" font-weight="bold" lengthAdjust="spacing" textLength="7" x="1028.5" y="201.1592">4</text><text fill="#000000" font-family="sans-serif" font-size="13" lengthAdjust="spacing" textLength="25" x="1039.5" y="201.1592">post</text><polygon fill="#181818" points="1478.5,232.3672,1488.5,236.3672,1478.5,240.3672,1482.5,236.3672" style="stroke:#181818;stroke-width:1.0;"/><line style="stroke:#181818;stroke-width:1.0;" x1="1134.5" x2="1484.5" y1="236.3672" y2="236.3672"/><text fill="#000000" font-family="sans-serif" font-size="13" font-weight="bold" lengthAdjust="spacing" textLength="7" x="1141.5" y="231.5107">5</text><text fill="#000000" font-family="sans-serif" font-size="13" lengthAdjust="spacing" textLength="326" x="1152.5" y="231.5107">SignUp (firstName,lastName,email,password,role,phone)</text><polygon fill="#181818" points="2003,262.7188,2013,266.7188,2003,270.7188,2007,266.7188" style="stroke:#181818;stroke-width:1.0;"/><line style="stroke:#181818;stroke-width:1.0;" x1="1500.5" x2="2009" y1="266.7188" y2="266.7188"/><text fill="#000000" font-family="sans-serif" font-size="13" font-weight="bold" lengthAdjust="spacing" textLength="7" x="1507.5" y="261.8623">6</text><text fill="#000000" font-family="sans-serif" font-size="13" lengthAdjust="spacing" textLength="108" x="1518.5" y="261.8623">findByEmail(email)</text><polygon fill="#181818" points="1511.5,293.0703,1501.5,297.0703,1511.5,301.0703,1507.5,297.0703" style="stroke:#181818;stroke-width:1.0;"/><line style="stroke:#181818;stroke-width:1.0;stroke-dasharray:2.0,2.0;" x1="1505.5" x2="2019" y1="297.0703" y2="297.0703"/><text fill="#000000" font-family="sans-serif" font-size="13" font-weight="bold" lengthAdjust="spacing" textLength="7" x="1517.5" y="292.2139">7</text><text fill="#000000" font-family="sans-serif" font-size="13" lengthAdjust="spacing" textLength="31" x="1528.5" y="292.2139">found</text><path d="M10,312.0703 L71,312.0703 L71,320.4219 L61,330.4219 L10,330.4219 L10,312.0703 " fill="#EEEEEE" style="stroke:#000000;stroke-width:1.5;"/><rect fill="none" height="1051.625" style="stroke:#000000;stroke-width:1.5;" width="2350" x="10" y="312.0703"/><text fill="#000000" font-family="sans-serif" font-size="13" font-weight="bold" lengthAdjust="spacing" textLength="16" x="25" y="326.5654">alt</text><text fill="#000000" font-family="sans-serif" font-size="11" font-weight="bold" lengthAdjust="spacing" textLength="81" x="86" y="325.4893">[found == true]</text><polygon fill="#181818" points="1478.5,348.7734,1488.5,352.7734,1478.5,356.7734,1482.5,352.7734" style="stroke:#181818;stroke-width:1.0;"/><line style="stroke:#181818;stroke-width:1.0;stroke-dasharray:2.0,2.0;" x1="1134.5" x2="1484.5" y1="352.7734" y2="352.7734"/><text fill="#000000" font-family="sans-serif" font-size="13" font-weight="bold" lengthAdjust="spacing" textLength="7" x="1141.5" y="347.917">8</text><text fill="#000000" font-family="sans-serif" font-size="13" lengthAdjust="spacing" textLength="83" x="1152.5" y="347.917">error message</text><polygon fill="#181818" points="1032.5,379.125,1022.5,383.125,1032.5,387.125,1028.5,383.125" style="stroke:#181818;stroke-width:1.0;"/><line style="stroke:#181818;stroke-width:1.0;stroke-dasharray:2.0,2.0;" x1="1026.5" x2="1123.5" y1="383.125" y2="383.125"/><text fill="#000000" font-family="sans-serif" font-size="13" font-weight="bold" lengthAdjust="spacing" textLength="7" x="1038.5" y="378.2686">9</text><text fill="#000000" font-family="sans-serif" font-size="13" lengthAdjust="spacing" textLength="61" x="1049.5" y="378.2686">status 404</text><polygon fill="#181818" points="874.5,409.4766,864.5,413.4766,874.5,417.4766,870.5,413.4766" style="stroke:#181818;stroke-width:1.0;"/><line style="stroke:#181818;stroke-width:1.0;stroke-dasharray:2.0,2.0;" x1="868.5" x2="1010.5" y1="413.4766" y2="413.4766"/><text fill="#000000" font-family="sans-serif" font-size="13" font-weight="bold" lengthAdjust="spacing" textLength="14" x="880.5" y="408.6201">10</text><text fill="#000000" font-family="sans-serif" font-size="13" lengthAdjust="spacing" textLength="91" x="898.5" y="408.6201">operation failure</text><polygon fill="#181818" points="484.5,439.8281,474.5,443.8281,484.5,447.8281,480.5,443.8281" style="stroke:#181818;stroke-width:1.0;"/><line style="stroke:#181818;stroke-width:1.0;stroke-dasharray:2.0,2.0;" x1="478.5" x2="852.5" y1="443.8281" y2="443.8281"/><text fill="#000000" font-family="sans-serif" font-size="13" font-weight="bold" lengthAdjust="spacing" textLength="14" x="490.5" y="438.9717">11</text><text fill="#000000" font-family="sans-serif" font-size="13" lengthAdjust="spacing" textLength="91" x="508.5" y="438.9717">operation failure</text><polygon fill="#181818" points="53.5,470.1797,43.5,474.1797,53.5,478.1797,49.5,474.1797" style="stroke:#181818;stroke-width:1.0;"/><line style="stroke:#181818;stroke-width:1.0;stroke-dasharray:2.0,2.0;" x1="47.5" x2="462.5" y1="474.1797" y2="474.1797"/><text fill="#000000" font-family="sans-serif" font-size="13" font-weight="bold" lengthAdjust="spacing" textLength="14" x="59.5" y="469.3232">12</text><text fill="#000000" font-family="sans-serif" font-size="13" lengthAdjust="spacing" textLength="136" x="77.5" y="469.3232">display failure message</text><line style="stroke:#000000;stroke-width:1.0;stroke-dasharray:2.0,2.0;" x1="10" x2="2360" y1="483.1797" y2="483.1797"/><text fill="#000000" font-family="sans-serif" font-size="11" font-weight="bold" lengthAdjust="spacing" textLength="85" x="15" y="494.5986">[found == false]</text><polygon fill="#181818" points="2003,519.3672,2013,523.3672,2003,527.3672,2007,523.3672" style="stroke:#181818;stroke-width:1.0;"/><line style="stroke:#181818;stroke-width:1.0;" x1="1500.5" x2="2009" y1="523.3672" y2="523.3672"/><text fill="#000000" font-family="sans-serif" font-size="13" font-weight="bold" lengthAdjust="spacing" textLength="14" x="1507.5" y="518.5107">13</text><text fill="#000000" font-family="sans-serif" font-size="13" lengthAdjust="spacing" textLength="116" x="1525.5" y="518.5107">findByPhone(phone)</text><path d="M1201,503.0156 L1201,529.0156 L1485,529.0156 L1485,513.0156 L1475,503.0156 L1201,503.0156 " fill="#FEFFDD" style="stroke:#181818;stroke-width:0.5;"/><path d="M1475,503.0156 L1475,513.0156 L1485,513.0156 L1475,503.0156 " fill="#FEFFDD" style="stroke:#181818;stroke-width:0.5;"/><text fill="#000000" font-family="sans-serif" font-size="13" lengthAdjust="spacing" textLength="263" x="1207" y="521.5107">All the "finds" Make the same as findByEmail</text><polygon fill="#181818" points="1668.5,582.7188,1678.5,586.7188,1668.5,590.7188,1672.5,586.7188" style="stroke:#181818;stroke-width:1.0;"/><line style="stroke:#181818;stroke-width:1.0;" x1="1500.5" x2="1674.5" y1="586.7188" y2="586.7188"/><text fill="#000000" font-family="sans-serif" font-size="13" font-weight="bold" lengthAdjust="spacing" textLength="14" x="1507.5" y="581.8623">14</text><text fill="#000000" font-family="sans-serif" font-size="13" lengthAdjust="spacing" textLength="143" x="1525.5" y="581.8623">create(hashedPassword)</text><polygon fill="#181818" points="1774,643.0703,1784,647.0703,1774,651.0703,1778,647.0703" style="stroke:#181818;stroke-width:1.0;"/><line style="stroke:#181818;stroke-width:1.0;" x1="1500.5" x2="1780" y1="647.0703" y2="647.0703"/><text fill="#000000" font-family="sans-serif" font-size="13" font-weight="bold" lengthAdjust="spacing" textLength="14" x="1507.5" y="642.2139">15</text><text fill="#000000" font-family="sans-serif" font-size="13" lengthAdjust="spacing" textLength="75" x="1525.5" y="642.2139">create(email)</text><polygon fill="#181818" points="1859.5,703.4219,1869.5,707.4219,1859.5,711.4219,1863.5,707.4219" style="stroke:#181818;stroke-width:1.0;"/><line style="stroke:#181818;stroke-width:1.0;" x1="1500.5" x2="1865.5" y1="707.4219" y2="707.4219"/><text fill="#000000" font-family="sans-serif" font-size="13" font-weight="bold" lengthAdjust="spacing" textLength="14" x="1507.5" y="702.5654">16</text><text fill="#000000" font-family="sans-serif" font-size="13" lengthAdjust="spacing" textLength="79" x="1525.5" y="702.5654">create(phone)</text><polygon fill="#181818" points="2003,763.7734,2013,767.7734,2003,771.7734,2007,767.7734" style="stroke:#181818;stroke-width:1.0;"/><line style="stroke:#181818;stroke-width:1.0;" x1="1500.5" x2="2009" y1="767.7734" y2="767.7734"/><text fill="#000000" font-family="sans-serif" font-size="13" font-weight="bold" lengthAdjust="spacing" textLength="14" x="1507.5" y="762.917">17</text><text fill="#000000" font-family="sans-serif" font-size="13" lengthAdjust="spacing" textLength="153" x="1525.5" y="762.917">findByDomainName(roleId)</text><polygon fill="#181818" points="1938,824.125,1948,828.125,1938,832.125,1942,828.125" style="stroke:#181818;stroke-width:1.0;"/><line style="stroke:#181818;stroke-width:1.0;" x1="1500.5" x2="1944" y1="828.125" y2="828.125"/><text fill="#000000" font-family="sans-serif" font-size="13" font-weight="bold" lengthAdjust="spacing" textLength="14" x="1507.5" y="823.2686">18</text><text fill="#000000" font-family="sans-serif" font-size="13" lengthAdjust="spacing" textLength="320" x="1525.5" y="823.2686">create(firstname, lastname, email,role,password,phone)</text><line style="stroke:#181818;stroke-width:1.0;" x1="1505.5" x2="1547.5" y1="858.4766" y2="858.4766"/><line style="stroke:#181818;stroke-width:1.0;" x1="1547.5" x2="1547.5" y1="858.4766" y2="871.4766"/><line style="stroke:#181818;stroke-width:1.0;" x1="1506.5" x2="1547.5" y1="871.4766" y2="871.4766"/><polygon fill="#181818" points="1516.5,867.4766,1506.5,871.4766,1516.5,875.4766,1512.5,871.4766" style="stroke:#181818;stroke-width:1.0;"/><text fill="#000000" font-family="sans-serif" font-size="13" font-weight="bold" lengthAdjust="spacing" textLength="14" x="1512.5" y="853.6201">19</text><text fill="#000000" font-family="sans-serif" font-size="13" lengthAdjust="spacing" textLength="118" x="1530.5" y="853.6201">generateToken(user)</text><polygon fill="#181818" points="2003,927.8281,2013,931.8281,2003,935.8281,2007,931.8281" style="stroke:#181818;stroke-width:1.0;"/><line style="stroke:#181818;stroke-width:1.0;" x1="1500.5" x2="2009" y1="931.8281" y2="931.8281"/><text fill="#000000" font-family="sans-serif" font-size="13" font-weight="bold" lengthAdjust="spacing" textLength="14" x="1507.5" y="926.9717">20</text><text fill="#000000" font-family="sans-serif" font-size="13" lengthAdjust="spacing" textLength="59" x="1525.5" y="926.9717">save(user)</text><polygon fill="#181818" points="2138,958.1797,2148,962.1797,2138,966.1797,2142,962.1797" style="stroke:#181818;stroke-width:1.0;"/><line style="stroke:#181818;stroke-width:1.0;" x1="2025" x2="2144" y1="962.1797" y2="962.1797"/><text fill="#000000" font-family="sans-serif" font-size="13" font-weight="bold" lengthAdjust="spacing" textLength="14" x="2032" y="957.3232">21</text><text fill="#000000" font-family="sans-serif" font-size="13" lengthAdjust="spacing" textLength="80" x="2050" y="957.3232">toPersistence</text><polygon fill="#181818" points="2299.5,1018.5313,2309.5,1022.5313,2299.5,1026.5313,2303.5,1022.5313" style="stroke:#181818;stroke-width:1.0;"/><line style="stroke:#181818;stroke-width:1.0;" x1="2025" x2="2305.5" y1="1022.5313" y2="1022.5313"/><text fill="#000000" font-family="sans-serif" font-size="13" font-weight="bold" lengthAdjust="spacing" textLength="14" x="2032" y="1017.6748">22</text><text fill="#000000" font-family="sans-serif" font-size="13" lengthAdjust="spacing" textLength="69" x="2050" y="1017.6748">create(user)</text><polygon fill="#181818" points="2138,1078.8828,2148,1082.8828,2138,1086.8828,2142,1082.8828" style="stroke:#181818;stroke-width:1.0;"/><line style="stroke:#181818;stroke-width:1.0;" x1="2025" x2="2144" y1="1082.8828" y2="1082.8828"/><text fill="#000000" font-family="sans-serif" font-size="13" font-weight="bold" lengthAdjust="spacing" textLength="14" x="2032" y="1078.0264">23</text><text fill="#000000" font-family="sans-serif" font-size="13" lengthAdjust="spacing" textLength="88" x="2050" y="1078.0264">toDomain(user)</text><polygon fill="#181818" points="1511.5,1139.2344,1501.5,1143.2344,1511.5,1147.2344,1507.5,1143.2344" style="stroke:#181818;stroke-width:1.0;"/><line style="stroke:#181818;stroke-width:1.0;stroke-dasharray:2.0,2.0;" x1="1505.5" x2="2019" y1="1143.2344" y2="1143.2344"/><text fill="#000000" font-family="sans-serif" font-size="13" font-weight="bold" lengthAdjust="spacing" textLength="14" x="1517.5" y="1138.3779">24</text><text fill="#000000" font-family="sans-serif" font-size="13" lengthAdjust="spacing" textLength="4" x="1535.5" y="1138.3779"> </text><polygon fill="#181818" points="2219.5,1169.5859,2229.5,1173.5859,2219.5,1177.5859,2223.5,1173.5859" style="stroke:#181818;stroke-width:1.0;"/><line style="stroke:#181818;stroke-width:1.0;" x1="1500.5" x2="2225.5" y1="1173.5859" y2="1173.5859"/><text fill="#000000" font-family="sans-serif" font-size="13" font-weight="bold" lengthAdjust="spacing" textLength="14" x="1507.5" y="1168.7295">25</text><text fill="#000000" font-family="sans-serif" font-size="13" lengthAdjust="spacing" textLength="70" x="1525.5" y="1168.7295">toDTO(user)</text><polygon fill="#181818" points="1511.5,1199.9375,1501.5,1203.9375,1511.5,1207.9375,1507.5,1203.9375" style="stroke:#181818;stroke-width:1.0;"/><line style="stroke:#181818;stroke-width:1.0;stroke-dasharray:2.0,2.0;" x1="1505.5" x2="2235.5" y1="1203.9375" y2="1203.9375"/><text fill="#000000" font-family="sans-serif" font-size="13" font-weight="bold" lengthAdjust="spacing" textLength="14" x="1517.5" y="1199.0811">26</text><text fill="#000000" font-family="sans-serif" font-size="13" lengthAdjust="spacing" textLength="51" x="1535.5" y="1199.0811">userDTO</text><polygon fill="#181818" points="1145.5,1230.2891,1135.5,1234.2891,1145.5,1238.2891,1141.5,1234.2891" style="stroke:#181818;stroke-width:1.0;"/><line style="stroke:#181818;stroke-width:1.0;stroke-dasharray:2.0,2.0;" x1="1139.5" x2="1494.5" y1="1234.2891" y2="1234.2891"/><text fill="#000000" font-family="sans-serif" font-size="13" font-weight="bold" lengthAdjust="spacing" textLength="14" x="1151.5" y="1229.4326">27</text><text fill="#000000" font-family="sans-serif" font-size="13" lengthAdjust="spacing" textLength="14" x="1169.5" y="1229.4326">ok</text><polygon fill="#181818" points="1032.5,1260.6406,1022.5,1264.6406,1032.5,1268.6406,1028.5,1264.6406" style="stroke:#181818;stroke-width:1.0;"/><line style="stroke:#181818;stroke-width:1.0;stroke-dasharray:2.0,2.0;" x1="1026.5" x2="1128.5" y1="1264.6406" y2="1264.6406"/><text fill="#000000" font-family="sans-serif" font-size="13" font-weight="bold" lengthAdjust="spacing" textLength="14" x="1038.5" y="1259.7842">28</text><text fill="#000000" font-family="sans-serif" font-size="13" lengthAdjust="spacing" textLength="61" x="1056.5" y="1259.7842">status 200</text><polygon fill="#181818" points="874.5,1290.9922,864.5,1294.9922,874.5,1298.9922,870.5,1294.9922" style="stroke:#181818;stroke-width:1.0;"/><line style="stroke:#181818;stroke-width:1.0;stroke-dasharray:2.0,2.0;" x1="868.5" x2="1015.5" y1="1294.9922" y2="1294.9922"/><text fill="#000000" font-family="sans-serif" font-size="13" font-weight="bold" lengthAdjust="spacing" textLength="14" x="880.5" y="1290.1357">29</text><text fill="#000000" font-family="sans-serif" font-size="13" lengthAdjust="spacing" textLength="106" x="898.5" y="1290.1357">operation success</text><polygon fill="#181818" points="484.5,1321.3438,474.5,1325.3438,484.5,1329.3438,480.5,1325.3438" style="stroke:#181818;stroke-width:1.0;"/><line style="stroke:#181818;stroke-width:1.0;stroke-dasharray:2.0,2.0;" x1="478.5" x2="857.5" y1="1325.3438" y2="1325.3438"/><text fill="#000000" font-family="sans-serif" font-size="13" font-weight="bold" lengthAdjust="spacing" textLength="14" x="490.5" y="1320.4873">30</text><text fill="#000000" font-family="sans-serif" font-size="13" lengthAdjust="spacing" textLength="106" x="508.5" y="1320.4873">operation success</text><polygon fill="#181818" points="53.5,1351.6953,43.5,1355.6953,53.5,1359.6953,49.5,1355.6953" style="stroke:#181818;stroke-width:1.0;"/><line style="stroke:#181818;stroke-width:1.0;stroke-dasharray:2.0,2.0;" x1="47.5" x2="462.5" y1="1355.6953" y2="1355.6953"/><text fill="#000000" font-family="sans-serif" font-size="13" font-weight="bold" lengthAdjust="spacing" textLength="14" x="59.5" y="1350.8389">31</text><text fill="#000000" font-family="sans-serif" font-size="13" lengthAdjust="spacing" textLength="151" x="77.5" y="1350.8389">display success message</text><!--MD5=[5e72b2040715e316611a0e4e2b458086]
@startuml

autonumber
actor "Admin" as GA
participant "RegisterComponent" as COMP
participant "UserService" as SS
participant "MDL" as MDL
participant "UserRoute" as ROUTE
participant "UserService" as SERVICE
participant "UserPassword" as UserPassword
participant "UserEmail" as UserEmail
participant "UserPhone" as UserPhone
participant "User" as User
participant "UserRepo" as REPO
participant "UserMap" as MAP
participant "UserDTO" as DTO


database "Database" as DB

GA-> COMP : introduces the data(firstName,lastName,email,password,role,phone)
activate COMP
COMP -> SS : registerUser(firstName,lastName,email,password,role,phone)
activate SS
SS -> MDL: post(/auth/signup)
activate MDL
MDL -> ROUTE : post
activate ROUTE
ROUTE -> SERVICE : SignUp (firstName,lastName,email,password,role,phone)
activate SERVICE
SERVICE -> REPO : findByEmail(email)
activate REPO
REPO - -> SERVICE : found
deactivate REPO
alt found == true
SERVICE <- -ROUTE : error message
MDL <- - ROUTE : status 404
SS <- - MDL : operation failure
COMP <- - SS : operation failure
GA<- - COMP : display failure message
else found == false

SERVICE -> REPO : findByPhone(phone)
note left
  All the "finds" Make the same as findByEmail
end note
activate REPO
deactivate REPO

SERVICE -> UserPassword : create(hashedPassword)
activate UserPassword
deactivate UserPassword
SERVICE -> UserEmail : create(email)
activate UserPassword
deactivate UserPassword
SERVICE -> UserPhone : create(phone)
activate UserPhone
deactivate UserPhone
SERVICE -> REPO : findByDomainName(roleId)
activate REPO
deactivate REPO
SERVICE -> User : create(firstname, lastname, email,role,password,phone)

SERVICE -> SERVICE : generateToken(user)
activate SERVICE
deactivate SERVICE
SERVICE -> REPO : save(user)
activate REPO
REPO -> MAP : toPersistence
activate MAP
deactivate MAP
REPO -> DB : create(user)
activate DB
deactivate DB
REPO -> MAP : toDomain(user)
activate MAP
deactivate MAP
REPO - -> SERVICE
deactivate REPO
SERVICE -> DTO : toDTO(user)
activate DTO
DTO - -> SERVICE : userDTO
deactivate DTO
SERVICE - -> ROUTE : ok
deactivate SERVICE
ROUTE - -> MDL : status 200
deactivate ROUTE
MDL - -> SS : operation success
deactivate MDL
COMP <- - SS : operation success
deactivate SS
deactivate MDL
GA<- - COMP : display success message
end

@enduml

PlantUML version 1.2022.7(Mon Aug 22 18:01:30 BST 2022)
(GPL source distribution)
Java Runtime: OpenJDK Runtime Environment
JVM: OpenJDK 64-Bit Server VM
Default Encoding: Cp1252
Language: pt
Country: PT
--></g></svg>