<?xml version="1.0" encoding="UTF-8" standalone="no"?><svg xmlns="http://www.w3.org/2000/svg" xmlns:xlink="http://www.w3.org/1999/xlink" contentStyleType="text/css" height="853px" preserveAspectRatio="none" style="width:1493px;height:853px;background:#FFFFFF;" version="1.1" viewBox="0 0 1493 853" width="1493px" zoomAndPan="magnify"><defs/><g><rect fill="#FFFFFF" height="631.125" style="stroke:#181818;stroke-width:1.0;" width="10" x="312.5" y="131.3125"/><rect fill="#FFFFFF" height="575.4219" style="stroke:#181818;stroke-width:1.0;" width="10" x="317.5" y="186.0156"/><rect fill="#FFFFFF" height="494.7188" style="stroke:#181818;stroke-width:1.0;" width="10" x="587.5" y="221.3672"/><rect fill="#FFFFFF" height="434.0156" style="stroke:#181818;stroke-width:1.0;" width="10" x="755.5" y="251.7188"/><rect fill="#FFFFFF" height="356.9609" style="stroke:#181818;stroke-width:1.0;" width="10" x="995.5" y="298.4219"/><rect fill="#FFFFFF" height="133.6641" style="stroke:#181818;stroke-width:1.0;" width="10" x="1150.5" y="328.7734"/><rect fill="#FFFFFF" height="30.3516" style="stroke:#181818;stroke-width:1.0;" width="10" x="1306.5" y="401.7344"/><rect fill="none" height="277" style="stroke:#000000;stroke-width:1.5;" width="1078.5" x="10" y="477.4375"/><line style="stroke:#181818;stroke-width:0.5;stroke-dasharray:5.0,5.0;" x1="33" x2="33" y1="82.6094" y2="771.4375"/><line style="stroke:#181818;stroke-width:0.5;stroke-dasharray:5.0,5.0;" x1="317.5" x2="317.5" y1="82.6094" y2="771.4375"/><line style="stroke:#181818;stroke-width:0.5;stroke-dasharray:5.0,5.0;" x1="592.5" x2="592.5" y1="82.6094" y2="771.4375"/><line style="stroke:#181818;stroke-width:0.5;stroke-dasharray:5.0,5.0;" x1="760.5" x2="760.5" y1="82.6094" y2="771.4375"/><line style="stroke:#181818;stroke-width:0.5;stroke-dasharray:5.0,5.0;" x1="1000.5" x2="1000.5" y1="82.6094" y2="771.4375"/><line style="stroke:#181818;stroke-width:0.5;stroke-dasharray:5.0,5.0;" x1="1155.5" x2="1155.5" y1="82.6094" y2="771.4375"/><line style="stroke:#181818;stroke-width:0.5;stroke-dasharray:5.0,5.0;" x1="1311.5" x2="1311.5" y1="82.6094" y2="771.4375"/><line style="stroke:#181818;stroke-width:0.5;stroke-dasharray:5.0,5.0;" x1="1443.5" x2="1443.5" y1="368.0781" y2="771.4375"/><text fill="#000000" font-family="sans-serif" font-size="14" lengthAdjust="spacing" textLength="20" x="20.5" y="79.5332">GA</text><ellipse cx="33.5" cy="13.5" fill="#E2E2F0" rx="8" ry="8" style="stroke:#181818;stroke-width:0.5;"/><path d="M33.5,21.5 L33.5,48.5 M20.5,29.5 L46.5,29.5 M33.5,48.5 L20.5,63.5 M33.5,48.5 L46.5,63.5 " fill="none" style="stroke:#181818;stroke-width:0.5;"/><text fill="#000000" font-family="sans-serif" font-size="14" lengthAdjust="spacing" textLength="20" x="20.5" y="784.9707">GA</text><ellipse cx="33.5" cy="796.5469" fill="#E2E2F0" rx="8" ry="8" style="stroke:#181818;stroke-width:0.5;"/><path d="M33.5,804.5469 L33.5,831.5469 M20.5,812.5469 L46.5,812.5469 M33.5,831.5469 L20.5,846.5469 M33.5,831.5469 L46.5,846.5469 " fill="none" style="stroke:#181818;stroke-width:0.5;"/><rect fill="#E2E2F0" height="31.6094" rx="2.5" ry="2.5" style="stroke:#181818;stroke-width:0.5;" width="160" x="237.5" y="50"/><text fill="#000000" font-family="sans-serif" font-size="14" lengthAdjust="spacing" textLength="146" x="244.5" y="71.5332">WarehouseComponent</text><rect fill="#E2E2F0" height="31.6094" rx="2.5" ry="2.5" style="stroke:#181818;stroke-width:0.5;" width="160" x="237.5" y="770.4375"/><text fill="#000000" font-family="sans-serif" font-size="14" lengthAdjust="spacing" textLength="146" x="244.5" y="791.9707">WarehouseComponent</text><rect fill="#E2E2F0" height="31.6094" rx="2.5" ry="2.5" style="stroke:#181818;stroke-width:0.5;" width="188" x="498.5" y="50"/><text fill="#000000" font-family="sans-serif" font-size="14" lengthAdjust="spacing" textLength="174" x="505.5" y="71.5332">WarehousesServiceService</text><rect fill="#E2E2F0" height="31.6094" rx="2.5" ry="2.5" style="stroke:#181818;stroke-width:0.5;" width="188" x="498.5" y="770.4375"/><text fill="#000000" font-family="sans-serif" font-size="14" lengthAdjust="spacing" textLength="174" x="505.5" y="791.9707">WarehousesServiceService</text><rect fill="#E2E2F0" height="31.6094" rx="2.5" ry="2.5" style="stroke:#181818;stroke-width:0.5;" width="82" x="719.5" y="50"/><text fill="#000000" font-family="sans-serif" font-size="14" lengthAdjust="spacing" textLength="68" x="726.5" y="71.5332">MDA: MDA</text><rect fill="#E2E2F0" height="31.6094" rx="2.5" ry="2.5" style="stroke:#181818;stroke-width:0.5;" width="82" x="719.5" y="770.4375"/><text fill="#000000" font-family="sans-serif" font-size="14" lengthAdjust="spacing" textLength="68" x="726.5" y="791.9707">MDA: MDA</text><rect fill="#E2E2F0" height="31.6094" rx="2.5" ry="2.5" style="stroke:#181818;stroke-width:0.5;" width="156" x="922.5" y="50"/><text fill="#000000" font-family="sans-serif" font-size="14" lengthAdjust="spacing" textLength="142" x="929.5" y="71.5332">WarehousesController</text><rect fill="#E2E2F0" height="31.6094" rx="2.5" ry="2.5" style="stroke:#181818;stroke-width:0.5;" width="156" x="922.5" y="770.4375"/><text fill="#000000" font-family="sans-serif" font-size="14" lengthAdjust="spacing" textLength="142" x="929.5" y="791.9707">WarehousesController</text><rect fill="#E2E2F0" height="31.6094" rx="2.5" ry="2.5" style="stroke:#181818;stroke-width:0.5;" width="134" x="1088.5" y="50"/><text fill="#000000" font-family="sans-serif" font-size="14" lengthAdjust="spacing" textLength="120" x="1095.5" y="71.5332">WarehouseService</text><rect fill="#E2E2F0" height="31.6094" rx="2.5" ry="2.5" style="stroke:#181818;stroke-width:0.5;" width="134" x="1088.5" y="770.4375"/><text fill="#000000" font-family="sans-serif" font-size="14" lengthAdjust="spacing" textLength="120" x="1095.5" y="791.9707">WarehouseService</text><rect fill="#E2E2F0" height="31.6094" rx="2.5" ry="2.5" style="stroke:#181818;stroke-width:0.5;" width="158" x="1232.5" y="50"/><text fill="#000000" font-family="sans-serif" font-size="14" lengthAdjust="spacing" textLength="144" x="1239.5" y="71.5332">IWarehouseRepository</text><rect fill="#E2E2F0" height="31.6094" rx="2.5" ry="2.5" style="stroke:#181818;stroke-width:0.5;" width="158" x="1232.5" y="770.4375"/><text fill="#000000" font-family="sans-serif" font-size="14" lengthAdjust="spacing" textLength="144" x="1239.5" y="791.9707">IWarehouseRepository</text><rect fill="#E2E2F0" height="31.6094" rx="2.5" ry="2.5" style="stroke:#181818;stroke-width:0.5;" width="87" x="1400.5" y="770.4375"/><text fill="#000000" font-family="sans-serif" font-size="14" lengthAdjust="spacing" textLength="73" x="1407.5" y="791.9707">Warehouse</text><rect fill="#FFFFFF" height="631.125" style="stroke:#181818;stroke-width:1.0;" width="10" x="312.5" y="131.3125"/><rect fill="#FFFFFF" height="575.4219" style="stroke:#181818;stroke-width:1.0;" width="10" x="317.5" y="186.0156"/><rect fill="#FFFFFF" height="494.7188" style="stroke:#181818;stroke-width:1.0;" width="10" x="587.5" y="221.3672"/><rect fill="#FFFFFF" height="434.0156" style="stroke:#181818;stroke-width:1.0;" width="10" x="755.5" y="251.7188"/><rect fill="#FFFFFF" height="356.9609" style="stroke:#181818;stroke-width:1.0;" width="10" x="995.5" y="298.4219"/><rect fill="#FFFFFF" height="133.6641" style="stroke:#181818;stroke-width:1.0;" width="10" x="1150.5" y="328.7734"/><rect fill="#FFFFFF" height="30.3516" style="stroke:#181818;stroke-width:1.0;" width="10" x="1306.5" y="401.7344"/><polygon fill="#181818" points="300.5,127.3125,310.5,131.3125,300.5,135.3125,304.5,131.3125" style="stroke:#181818;stroke-width:1.0;"/><line style="stroke:#181818;stroke-width:1.0;" x1="33.5" x2="306.5" y1="131.3125" y2="131.3125"/><text fill="#000000" font-family="sans-serif" font-size="13" font-weight="bold" lengthAdjust="spacing" textLength="7" x="40.5" y="118.2803">1</text><text fill="#000000" font-family="sans-serif" font-size="13" lengthAdjust="spacing" textLength="249" x="51.5" y="110.1045">introduces the data(id,designation,address,</text><text fill="#000000" font-family="sans-serif" font-size="13" lengthAdjust="spacing" textLength="200" x="51.5" y="126.4561">latitude,longitude,altitude,principal)</text><line style="stroke:#181818;stroke-width:1.0;" x1="322.5" x2="369.5" y1="173.0156" y2="173.0156"/><line style="stroke:#181818;stroke-width:1.0;" x1="369.5" x2="369.5" y1="173.0156" y2="186.0156"/><line style="stroke:#181818;stroke-width:1.0;" x1="328.5" x2="369.5" y1="186.0156" y2="186.0156"/><polygon fill="#181818" points="338.5,182.0156,328.5,186.0156,338.5,190.0156,334.5,186.0156" style="stroke:#181818;stroke-width:1.0;"/><text fill="#000000" font-family="sans-serif" font-size="13" font-weight="bold" lengthAdjust="spacing" textLength="7" x="334.5" y="159.9834">2</text><text fill="#000000" font-family="sans-serif" font-size="13" lengthAdjust="spacing" textLength="240" x="345.5" y="151.8076">createWarehouse(id,designation,address,</text><text fill="#000000" font-family="sans-serif" font-size="13" lengthAdjust="spacing" textLength="200" x="345.5" y="168.1592">latitude,longitude,altitude,principal)</text><polygon fill="#181818" points="575.5,217.3672,585.5,221.3672,575.5,225.3672,579.5,221.3672" style="stroke:#181818;stroke-width:1.0;"/><line style="stroke:#181818;stroke-width:1.0;" x1="327.5" x2="581.5" y1="221.3672" y2="221.3672"/><text fill="#000000" font-family="sans-serif" font-size="13" font-weight="bold" lengthAdjust="spacing" textLength="7" x="334.5" y="216.5107">3</text><text fill="#000000" font-family="sans-serif" font-size="13" lengthAdjust="spacing" textLength="157" x="345.5" y="216.5107">addWarehouse(warehouse)</text><polygon fill="#181818" points="743.5,247.7188,753.5,251.7188,743.5,255.7188,747.5,251.7188" style="stroke:#181818;stroke-width:1.0;"/><line style="stroke:#181818;stroke-width:1.0;" x1="597.5" x2="749.5" y1="251.7188" y2="251.7188"/><text fill="#000000" font-family="sans-serif" font-size="13" font-weight="bold" lengthAdjust="spacing" textLength="7" x="604.5" y="246.8623">4</text><text fill="#000000" font-family="sans-serif" font-size="13" lengthAdjust="spacing" textLength="106" x="615.5" y="246.8623">post /Warehouses</text><polygon fill="#181818" points="983.5,294.4219,993.5,298.4219,983.5,302.4219,987.5,298.4219" style="stroke:#181818;stroke-width:1.0;"/><line style="stroke:#181818;stroke-width:1.0;" x1="765.5" x2="989.5" y1="298.4219" y2="298.4219"/><text fill="#000000" font-family="sans-serif" font-size="13" font-weight="bold" lengthAdjust="spacing" textLength="7" x="772.5" y="285.3896">5</text><text fill="#000000" font-family="sans-serif" font-size="13" lengthAdjust="spacing" textLength="174" x="783.5" y="277.2139">create(id,designation,address,</text><text fill="#000000" font-family="sans-serif" font-size="13" lengthAdjust="spacing" textLength="200" x="783.5" y="293.5654">latitude,longitude,altitude,principal)</text><path d="M340,269.8945 L340,295.8945 L750,295.8945 L750,279.8945 L740,269.8945 L340,269.8945 " fill="#FEFFDD" style="stroke:#181818;stroke-width:0.5;"/><path d="M740,269.8945 L740,279.8945 L750,279.8945 L740,269.8945 " fill="#FEFFDD" style="stroke:#181818;stroke-width:0.5;"/><text fill="#000000" font-family="sans-serif" font-size="13" lengthAdjust="spacing" textLength="389" x="346" y="288.3896">The parameters sent in the method are inserted in the request body</text><polygon fill="#181818" points="1138.5,324.7734,1148.5,328.7734,1138.5,332.7734,1142.5,328.7734" style="stroke:#181818;stroke-width:1.0;"/><line style="stroke:#181818;stroke-width:1.0;" x1="1005.5" x2="1144.5" y1="328.7734" y2="328.7734"/><text fill="#000000" font-family="sans-serif" font-size="13" font-weight="bold" lengthAdjust="spacing" textLength="7" x="1012.5" y="323.917">6</text><text fill="#000000" font-family="sans-serif" font-size="13" lengthAdjust="spacing" textLength="60" x="1023.5" y="323.917">AddAsync</text><polygon fill="#181818" points="1388.5,355.125,1398.5,359.125,1388.5,363.125,1392.5,359.125" style="stroke:#181818;stroke-width:1.0;"/><line style="stroke:#181818;stroke-width:1.0;" x1="1160.5" x2="1394.5" y1="359.125" y2="359.125"/><text fill="#000000" font-family="sans-serif" font-size="13" font-weight="bold" lengthAdjust="spacing" textLength="7" x="1167.5" y="354.2686">7</text><text fill="#000000" font-family="sans-serif" font-size="13" lengthAdjust="spacing" textLength="36" x="1178.5" y="354.2686">create</text><rect fill="#E2E2F0" height="31.6094" rx="2.5" ry="2.5" style="stroke:#181818;stroke-width:0.5;" width="87" x="1400.5" y="336.7734"/><text fill="#000000" font-family="sans-serif" font-size="14" lengthAdjust="spacing" textLength="73" x="1407.5" y="358.3066">Warehouse</text><polygon fill="#181818" points="1294.5,397.7344,1304.5,401.7344,1294.5,405.7344,1298.5,401.7344" style="stroke:#181818;stroke-width:1.0;"/><line style="stroke:#181818;stroke-width:1.0;" x1="1160.5" x2="1300.5" y1="401.7344" y2="401.7344"/><text fill="#000000" font-family="sans-serif" font-size="13" font-weight="bold" lengthAdjust="spacing" textLength="7" x="1167.5" y="396.8779">8</text><text fill="#000000" font-family="sans-serif" font-size="13" lengthAdjust="spacing" textLength="60" x="1178.5" y="396.8779">AddAsync</text><polygon fill="#181818" points="1299.5,428.0859,1309.5,432.0859,1299.5,436.0859,1303.5,432.0859" style="stroke:#181818;stroke-width:1.0;"/><line style="stroke:#181818;stroke-width:1.0;" x1="1160.5" x2="1305.5" y1="432.0859" y2="432.0859"/><text fill="#000000" font-family="sans-serif" font-size="13" font-weight="bold" lengthAdjust="spacing" textLength="7" x="1167.5" y="427.2295">9</text><text fill="#000000" font-family="sans-serif" font-size="13" lengthAdjust="spacing" textLength="80" x="1178.5" y="427.2295">commitAsync</text><polygon fill="#181818" points="1016.5,458.4375,1006.5,462.4375,1016.5,466.4375,1012.5,462.4375" style="stroke:#181818;stroke-width:1.0;"/><line style="stroke:#181818;stroke-width:1.0;stroke-dasharray:2.0,2.0;" x1="1010.5" x2="1154.5" y1="462.4375" y2="462.4375"/><text fill="#000000" font-family="sans-serif" font-size="13" font-weight="bold" lengthAdjust="spacing" textLength="14" x="1022.5" y="457.5811">10</text><text fill="#000000" font-family="sans-serif" font-size="13" lengthAdjust="spacing" textLength="82" x="1040.5" y="457.5811">warehouseDto</text><path d="M10,477.4375 L71,477.4375 L71,485.7891 L61,495.7891 L10,495.7891 L10,477.4375 " fill="#EEEEEE" style="stroke:#000000;stroke-width:1.5;"/><rect fill="none" height="277" style="stroke:#000000;stroke-width:1.5;" width="1078.5" x="10" y="477.4375"/><text fill="#000000" font-family="sans-serif" font-size="13" font-weight="bold" lengthAdjust="spacing" textLength="16" x="25" y="491.9326">alt</text><text fill="#000000" font-family="sans-serif" font-size="11" font-weight="bold" lengthAdjust="spacing" textLength="55" x="86" y="490.8564">[success]</text><polygon fill="#181818" points="776.5,514.1406,766.5,518.1406,776.5,522.1406,772.5,518.1406" style="stroke:#181818;stroke-width:1.0;"/><line style="stroke:#181818;stroke-width:1.0;stroke-dasharray:2.0,2.0;" x1="770.5" x2="994.5" y1="518.1406" y2="518.1406"/><text fill="#000000" font-family="sans-serif" font-size="13" font-weight="bold" lengthAdjust="spacing" textLength="14" x="782.5" y="513.2842">11</text><text fill="#000000" font-family="sans-serif" font-size="13" lengthAdjust="spacing" textLength="118" x="800.5" y="513.2842">status 201 (Created)</text><polygon fill="#181818" points="608.5,544.4922,598.5,548.4922,608.5,552.4922,604.5,548.4922" style="stroke:#181818;stroke-width:1.0;"/><line style="stroke:#181818;stroke-width:1.0;stroke-dasharray:2.0,2.0;" x1="602.5" x2="754.5" y1="548.4922" y2="548.4922"/><text fill="#000000" font-family="sans-serif" font-size="13" font-weight="bold" lengthAdjust="spacing" textLength="14" x="614.5" y="543.6357">12</text><text fill="#000000" font-family="sans-serif" font-size="13" lengthAdjust="spacing" textLength="106" x="632.5" y="543.6357">success message</text><polygon fill="#181818" points="338.5,574.8438,328.5,578.8438,338.5,582.8438,334.5,578.8438" style="stroke:#181818;stroke-width:1.0;"/><line style="stroke:#181818;stroke-width:1.0;stroke-dasharray:2.0,2.0;" x1="332.5" x2="586.5" y1="578.8438" y2="578.8438"/><text fill="#000000" font-family="sans-serif" font-size="13" font-weight="bold" lengthAdjust="spacing" textLength="14" x="344.5" y="573.9873">13</text><text fill="#000000" font-family="sans-serif" font-size="13" lengthAdjust="spacing" textLength="106" x="362.5" y="573.9873">success message</text><polygon fill="#181818" points="44.5,605.1953,34.5,609.1953,44.5,613.1953,40.5,609.1953" style="stroke:#181818;stroke-width:1.0;"/><line style="stroke:#181818;stroke-width:1.0;stroke-dasharray:2.0,2.0;" x1="38.5" x2="316.5" y1="609.1953" y2="609.1953"/><text fill="#000000" font-family="sans-serif" font-size="13" font-weight="bold" lengthAdjust="spacing" textLength="14" x="50.5" y="604.3389">14</text><text fill="#000000" font-family="sans-serif" font-size="13" lengthAdjust="spacing" textLength="106" x="68.5" y="604.3389">success message</text><line style="stroke:#000000;stroke-width:1.0;stroke-dasharray:2.0,2.0;" x1="10" x2="1088.5" y1="618.1953" y2="618.1953"/><text fill="#000000" font-family="sans-serif" font-size="11" font-weight="bold" lengthAdjust="spacing" textLength="65" x="15" y="629.6143">[insuccess]</text><polygon fill="#181818" points="776.5,651.3828,766.5,655.3828,776.5,659.3828,772.5,655.3828" style="stroke:#181818;stroke-width:1.0;"/><line style="stroke:#181818;stroke-width:1.0;stroke-dasharray:2.0,2.0;" x1="770.5" x2="999.5" y1="655.3828" y2="655.3828"/><text fill="#000000" font-family="sans-serif" font-size="13" font-weight="bold" lengthAdjust="spacing" textLength="14" x="782.5" y="650.5264">15</text><text fill="#000000" font-family="sans-serif" font-size="13" lengthAdjust="spacing" textLength="148" x="800.5" y="650.5264">status 400 (Bad Request)</text><polygon fill="#181818" points="608.5,681.7344,598.5,685.7344,608.5,689.7344,604.5,685.7344" style="stroke:#181818;stroke-width:1.0;"/><line style="stroke:#181818;stroke-width:1.0;stroke-dasharray:2.0,2.0;" x1="602.5" x2="759.5" y1="685.7344" y2="685.7344"/><text fill="#000000" font-family="sans-serif" font-size="13" font-weight="bold" lengthAdjust="spacing" textLength="14" x="614.5" y="680.8779">16</text><text fill="#000000" font-family="sans-serif" font-size="13" lengthAdjust="spacing" textLength="116" x="632.5" y="680.8779">insuccess message</text><polygon fill="#181818" points="338.5,712.0859,328.5,716.0859,338.5,720.0859,334.5,716.0859" style="stroke:#181818;stroke-width:1.0;"/><line style="stroke:#181818;stroke-width:1.0;stroke-dasharray:2.0,2.0;" x1="332.5" x2="591.5" y1="716.0859" y2="716.0859"/><text fill="#000000" font-family="sans-serif" font-size="13" font-weight="bold" lengthAdjust="spacing" textLength="14" x="344.5" y="711.2295">17</text><text fill="#000000" font-family="sans-serif" font-size="13" lengthAdjust="spacing" textLength="116" x="362.5" y="711.2295">insuccess message</text><polygon fill="#181818" points="44.5,742.4375,34.5,746.4375,44.5,750.4375,40.5,746.4375" style="stroke:#181818;stroke-width:1.0;"/><line style="stroke:#181818;stroke-width:1.0;stroke-dasharray:2.0,2.0;" x1="38.5" x2="316.5" y1="746.4375" y2="746.4375"/><text fill="#000000" font-family="sans-serif" font-size="13" font-weight="bold" lengthAdjust="spacing" textLength="14" x="50.5" y="741.5811">18</text><text fill="#000000" font-family="sans-serif" font-size="13" lengthAdjust="spacing" textLength="116" x="68.5" y="741.5811">insuccess message</text><!--MD5=[a989bed9e8993e2276a5f73b4e89ac85]
@startuml
'https://plantuml.com/sequence-diagram

autonumber
actor "GA" as GA
participant "WarehouseComponent" as COMP
participant "WarehousesServiceService" as SS
participant "MDA: MDA" as MDA 
participant "WarehousesController" as controller
participant "WarehouseService" as service
participant "IWarehouseRepository" as repository



GA -> COMP : introduces the data(id,designation,address,\nlatitude,longitude,altitude,principal)
activate COMP
COMP -> COMP : createWarehouse(id,designation,address,\nlatitude,longitude,altitude,principal)
activate COMP
COMP -> SS : addWarehouse(warehouse)
activate SS
SS -> MDA : post /Warehouses
activate MDA

MDA -> controller :  create(id,designation,address,\nlatitude,longitude,altitude,principal)

activate controller

note left
 The parameters sent in the method are inserted in the request body
end note

controller-> service : AddAsync

activate service

service -> Warehouse** : create

service -> repository : AddAsync
activate repository
service-> repository: commitAsync

deactivate repository
service - -> controller : warehouseDto
deactivate service

alt success
controller - -> MDA : status 201 (Created)

MDA - -> SS : success message
SS - -> COMP : success message

GA <- - COMP : success message

else insuccess
controller - -> MDA : status 400 (Bad Request)
deactivate controller

MDA - -> SS : insuccess message
deactivate MDA
SS - -> COMP : insuccess message
deactivate SS

GA <- - COMP : insuccess message

deactivate MDA
end
deactivate COMP


@enduml

@startuml

autonumber
actor "GA" as GA
participant "WarehouseComponent" as COMP
participant "WarehousesServiceService" as SS
participant "MDA: MDA" as MDA 
participant "WarehousesController" as controller
participant "WarehouseService" as service
participant "IWarehouseRepository" as repository



GA -> COMP : introduces the data(id,designation,address,\nlatitude,longitude,altitude,principal)
activate COMP
COMP -> COMP : createWarehouse(id,designation,address,\nlatitude,longitude,altitude,principal)
activate COMP
COMP -> SS : addWarehouse(warehouse)
activate SS
SS -> MDA : post /Warehouses
activate MDA

MDA -> controller :  create(id,designation,address,\nlatitude,longitude,altitude,principal)

activate controller

note left
 The parameters sent in the method are inserted in the request body
end note

controller-> service : AddAsync

activate service

service -> Warehouse** : create

service -> repository : AddAsync
activate repository
service-> repository: commitAsync

deactivate repository
service - -> controller : warehouseDto
deactivate service

alt success
controller - -> MDA : status 201 (Created)

MDA - -> SS : success message
SS - -> COMP : success message

GA <- - COMP : success message

else insuccess
controller - -> MDA : status 400 (Bad Request)
deactivate controller

MDA - -> SS : insuccess message
deactivate MDA
SS - -> COMP : insuccess message
deactivate SS

GA <- - COMP : insuccess message

deactivate MDA
end
deactivate COMP


@enduml

PlantUML version 1.2022.7(Mon Aug 22 18:01:30 WEST 2022)
(GPL source distribution)
Java Runtime: Java(TM) SE Runtime Environment
JVM: Java HotSpot(TM) 64-Bit Server VM
Default Encoding: Cp1252
Language: pt
Country: PT
--></g></svg>