<?xml version="1.0" encoding="UTF-8" standalone="no"?><svg xmlns="http://www.w3.org/2000/svg" xmlns:xlink="http://www.w3.org/1999/xlink" contentStyleType="text/css" height="707px" preserveAspectRatio="none" style="width:1106px;height:707px;background:#FFFFFF;" version="1.1" viewBox="0 0 1106 707" width="1106px" zoomAndPan="magnify"><defs/><g><rect fill="#FFFFFF" height="500.9766" style="stroke:#181818;stroke-width:1.0;" width="10" x="169.5" y="114.9609"/><rect fill="#FFFFFF" height="453.625" style="stroke:#181818;stroke-width:1.0;" width="10" x="174.5" y="153.3125"/><rect fill="#FFFFFF" height="387.9219" style="stroke:#181818;stroke-width:1.0;" width="10" x="339" y="188.6641"/><rect fill="#FFFFFF" height="291.5156" style="stroke:#181818;stroke-width:1.0;" width="10" x="504" y="254.7188"/><rect fill="#FFFFFF" height="195.1094" style="stroke:#181818;stroke-width:1.0;" width="10" x="646" y="320.7734"/><rect fill="#FFFFFF" height="134.4063" style="stroke:#181818;stroke-width:1.0;" width="10" x="781" y="351.125"/><rect fill="#FFFFFF" height="66.7031" style="stroke:#181818;stroke-width:1.0;" width="10" x="1027" y="381.4766"/><line style="stroke:#181818;stroke-width:0.5;stroke-dasharray:5.0,5.0;" x1="18" x2="18" y1="82.6094" y2="624.9375"/><line style="stroke:#181818;stroke-width:0.5;stroke-dasharray:5.0,5.0;" x1="174" x2="174" y1="82.6094" y2="624.9375"/><line style="stroke:#181818;stroke-width:0.5;stroke-dasharray:5.0,5.0;" x1="344" x2="344" y1="82.6094" y2="624.9375"/><line style="stroke:#181818;stroke-width:0.5;stroke-dasharray:5.0,5.0;" x1="509" x2="509" y1="82.6094" y2="624.9375"/><line style="stroke:#181818;stroke-width:0.5;stroke-dasharray:5.0,5.0;" x1="651" x2="651" y1="82.6094" y2="624.9375"/><line style="stroke:#181818;stroke-width:0.5;stroke-dasharray:5.0,5.0;" x1="786" x2="786" y1="82.6094" y2="624.9375"/><line style="stroke:#181818;stroke-width:0.5;stroke-dasharray:5.0,5.0;" x1="1032" x2="1032" y1="82.6094" y2="624.9375"/><text fill="#000000" font-family="sans-serif" font-size="14" lengthAdjust="spacing" textLength="20" x="5.5" y="79.5332">GA</text><ellipse cx="18.5" cy="13.5" fill="#E2E2F0" rx="8" ry="8" style="stroke:#181818;stroke-width:0.5;"/><path d="M18.5,21.5 L18.5,48.5 M5.5,29.5 L31.5,29.5 M18.5,48.5 L5.5,63.5 M18.5,48.5 L31.5,63.5 " fill="none" style="stroke:#181818;stroke-width:0.5;"/><text fill="#000000" font-family="sans-serif" font-size="14" lengthAdjust="spacing" textLength="20" x="5.5" y="638.4707">GA</text><ellipse cx="18.5" cy="650.0469" fill="#E2E2F0" rx="8" ry="8" style="stroke:#181818;stroke-width:0.5;"/><path d="M18.5,658.0469 L18.5,685.0469 M5.5,666.0469 L31.5,666.0469 M18.5,685.0469 L5.5,700.0469 M18.5,685.0469 L31.5,700.0469 " fill="none" style="stroke:#181818;stroke-width:0.5;"/><rect fill="#E2E2F0" height="31.6094" rx="2.5" ry="2.5" style="stroke:#181818;stroke-width:0.5;" width="149" x="100" y="50"/><text fill="#000000" font-family="sans-serif" font-size="14" lengthAdjust="spacing" textLength="135" x="107" y="71.5332">DeliveriesComponent</text><rect fill="#E2E2F0" height="31.6094" rx="2.5" ry="2.5" style="stroke:#181818;stroke-width:0.5;" width="149" x="100" y="623.9375"/><text fill="#000000" font-family="sans-serif" font-size="14" lengthAdjust="spacing" textLength="135" x="107" y="645.4707">DeliveriesComponent</text><rect fill="#E2E2F0" height="31.6094" rx="2.5" ry="2.5" style="stroke:#181818;stroke-width:0.5;" width="170" x="259" y="50"/><text fill="#000000" font-family="sans-serif" font-size="14" lengthAdjust="spacing" textLength="156" x="266" y="71.5332">DeliveriesServiceService</text><rect fill="#E2E2F0" height="31.6094" rx="2.5" ry="2.5" style="stroke:#181818;stroke-width:0.5;" width="170" x="259" y="623.9375"/><text fill="#000000" font-family="sans-serif" font-size="14" lengthAdjust="spacing" textLength="156" x="266" y="645.4707">DeliveriesServiceService</text><rect fill="#E2E2F0" height="31.6094" rx="2.5" ry="2.5" style="stroke:#181818;stroke-width:0.5;" width="82" x="468" y="50"/><text fill="#000000" font-family="sans-serif" font-size="14" lengthAdjust="spacing" textLength="68" x="475" y="71.5332">MDA: MDA</text><rect fill="#E2E2F0" height="31.6094" rx="2.5" ry="2.5" style="stroke:#181818;stroke-width:0.5;" width="82" x="468" y="623.9375"/><text fill="#000000" font-family="sans-serif" font-size="14" lengthAdjust="spacing" textLength="68" x="475" y="645.4707">MDA: MDA</text><rect fill="#E2E2F0" height="31.6094" rx="2.5" ry="2.5" style="stroke:#181818;stroke-width:0.5;" width="138" x="582" y="50"/><text fill="#000000" font-family="sans-serif" font-size="14" lengthAdjust="spacing" textLength="124" x="589" y="71.5332">DeliveriesController</text><rect fill="#E2E2F0" height="31.6094" rx="2.5" ry="2.5" style="stroke:#181818;stroke-width:0.5;" width="138" x="582" y="623.9375"/><text fill="#000000" font-family="sans-serif" font-size="14" lengthAdjust="spacing" textLength="124" x="589" y="645.4707">DeliveriesController</text><rect fill="#E2E2F0" height="31.6094" rx="2.5" ry="2.5" style="stroke:#181818;stroke-width:0.5;" width="112" x="730" y="50"/><text fill="#000000" font-family="sans-serif" font-size="14" lengthAdjust="spacing" textLength="98" x="737" y="71.5332">DeliveryService</text><rect fill="#E2E2F0" height="31.6094" rx="2.5" ry="2.5" style="stroke:#181818;stroke-width:0.5;" width="112" x="730" y="623.9375"/><text fill="#000000" font-family="sans-serif" font-size="14" lengthAdjust="spacing" textLength="98" x="737" y="645.4707">DeliveryService</text><rect fill="#E2E2F0" height="31.6094" rx="2.5" ry="2.5" style="stroke:#181818;stroke-width:0.5;" width="136" x="964" y="50"/><text fill="#000000" font-family="sans-serif" font-size="14" lengthAdjust="spacing" textLength="122" x="971" y="71.5332">IDeliveryRepository</text><rect fill="#E2E2F0" height="31.6094" rx="2.5" ry="2.5" style="stroke:#181818;stroke-width:0.5;" width="136" x="964" y="623.9375"/><text fill="#000000" font-family="sans-serif" font-size="14" lengthAdjust="spacing" textLength="122" x="971" y="645.4707">IDeliveryRepository</text><rect fill="#FFFFFF" height="500.9766" style="stroke:#181818;stroke-width:1.0;" width="10" x="169.5" y="114.9609"/><rect fill="#FFFFFF" height="453.625" style="stroke:#181818;stroke-width:1.0;" width="10" x="174.5" y="153.3125"/><rect fill="#FFFFFF" height="387.9219" style="stroke:#181818;stroke-width:1.0;" width="10" x="339" y="188.6641"/><rect fill="#FFFFFF" height="291.5156" style="stroke:#181818;stroke-width:1.0;" width="10" x="504" y="254.7188"/><rect fill="#FFFFFF" height="195.1094" style="stroke:#181818;stroke-width:1.0;" width="10" x="646" y="320.7734"/><rect fill="#FFFFFF" height="134.4063" style="stroke:#181818;stroke-width:1.0;" width="10" x="781" y="351.125"/><rect fill="#FFFFFF" height="66.7031" style="stroke:#181818;stroke-width:1.0;" width="10" x="1027" y="381.4766"/><polygon fill="#181818" points="157.5,110.9609,167.5,114.9609,157.5,118.9609,161.5,114.9609" style="stroke:#181818;stroke-width:1.0;"/><line style="stroke:#181818;stroke-width:1.0;" x1="18.5" x2="163.5" y1="114.9609" y2="114.9609"/><text fill="#000000" font-family="sans-serif" font-size="13" font-weight="bold" lengthAdjust="spacing" textLength="7" x="25.5" y="110.1045">1</text><text fill="#000000" font-family="sans-serif" font-size="13" lengthAdjust="spacing" textLength="121" x="36.5" y="110.1045">asks to list deliveries</text><line style="stroke:#181818;stroke-width:1.0;" x1="179.5" x2="226.5" y1="140.3125" y2="140.3125"/><line style="stroke:#181818;stroke-width:1.0;" x1="226.5" x2="226.5" y1="140.3125" y2="153.3125"/><line style="stroke:#181818;stroke-width:1.0;" x1="185.5" x2="226.5" y1="153.3125" y2="153.3125"/><polygon fill="#181818" points="195.5,149.3125,185.5,153.3125,195.5,157.3125,191.5,153.3125" style="stroke:#181818;stroke-width:1.0;"/><text fill="#000000" font-family="sans-serif" font-size="13" font-weight="bold" lengthAdjust="spacing" textLength="7" x="191.5" y="135.4561">2</text><text fill="#000000" font-family="sans-serif" font-size="13" lengthAdjust="spacing" textLength="81" x="202.5" y="135.4561">getDeliveries()</text><polygon fill="#181818" points="327,184.6641,337,188.6641,327,192.6641,331,188.6641" style="stroke:#181818;stroke-width:1.0;"/><line style="stroke:#181818;stroke-width:1.0;" x1="184.5" x2="333" y1="188.6641" y2="188.6641"/><text fill="#000000" font-family="sans-serif" font-size="13" font-weight="bold" lengthAdjust="spacing" textLength="7" x="191.5" y="183.8076">3</text><text fill="#000000" font-family="sans-serif" font-size="13" lengthAdjust="spacing" textLength="96" x="202.5" y="183.8076">getAllDeliveries()</text><polygon fill="#181818" points="492,250.7188,502,254.7188,492,258.7188,496,254.7188" style="stroke:#181818;stroke-width:1.0;"/><line style="stroke:#181818;stroke-width:1.0;" x1="349" x2="498" y1="254.7188" y2="254.7188"/><text fill="#000000" font-family="sans-serif" font-size="13" font-weight="bold" lengthAdjust="spacing" textLength="7" x="356" y="249.8623">4</text><text fill="#000000" font-family="sans-serif" font-size="13" lengthAdjust="spacing" textLength="125" x="367" y="249.8623">GET /Deliveries/listAll</text><path d="M94,201.6641 L94,292.6641 L334,292.6641 L334,211.6641 L324,201.6641 L94,201.6641 " fill="#FEFFDD" style="stroke:#181818;stroke-width:0.5;"/><path d="M324,201.6641 L324,211.6641 L334,211.6641 L324,201.6641 " fill="#FEFFDD" style="stroke:#181818;stroke-width:0.5;"/><text fill="#000000" font-family="sans-serif" font-size="13" lengthAdjust="spacing" textLength="204" x="100" y="220.1592">Depending on the selected filter (id,</text><text fill="#000000" font-family="sans-serif" font-size="13" lengthAdjust="spacing" textLength="106" x="100" y="236.5107">warehouse, dates)</text><text fill="#000000" font-family="sans-serif" font-size="13" lengthAdjust="spacing" textLength="206" x="100" y="252.8623">the request and the methods will be</text><text fill="#000000" font-family="sans-serif" font-size="13" lengthAdjust="spacing" textLength="219" x="100" y="269.2139">different, changing the method's name</text><text fill="#000000" font-family="sans-serif" font-size="13" lengthAdjust="spacing" textLength="113" x="100" y="285.5654">and implementation</text><polygon fill="#181818" points="634,316.7734,644,320.7734,634,324.7734,638,320.7734" style="stroke:#181818;stroke-width:1.0;"/><line style="stroke:#181818;stroke-width:1.0;" x1="514" x2="640" y1="320.7734" y2="320.7734"/><text fill="#000000" font-family="sans-serif" font-size="13" font-weight="bold" lengthAdjust="spacing" textLength="7" x="521" y="315.917">5</text><text fill="#000000" font-family="sans-serif" font-size="13" lengthAdjust="spacing" textLength="36" x="532" y="315.917">GetAll</text><polygon fill="#181818" points="769,347.125,779,351.125,769,355.125,773,351.125" style="stroke:#181818;stroke-width:1.0;"/><line style="stroke:#181818;stroke-width:1.0;" x1="656" x2="775" y1="351.125" y2="351.125"/><text fill="#000000" font-family="sans-serif" font-size="13" font-weight="bold" lengthAdjust="spacing" textLength="7" x="663" y="346.2686">6</text><text fill="#000000" font-family="sans-serif" font-size="13" lengthAdjust="spacing" textLength="73" x="674" y="346.2686">GetAllAsync</text><polygon fill="#181818" points="1015,377.4766,1025,381.4766,1015,385.4766,1019,381.4766" style="stroke:#181818;stroke-width:1.0;"/><line style="stroke:#181818;stroke-width:1.0;" x1="791" x2="1021" y1="381.4766" y2="381.4766"/><text fill="#000000" font-family="sans-serif" font-size="13" font-weight="bold" lengthAdjust="spacing" textLength="7" x="798" y="376.6201">7</text><text fill="#000000" font-family="sans-serif" font-size="13" lengthAdjust="spacing" textLength="73" x="809" y="376.6201">GetAllAsync</text><polygon fill="#181818" points="802,407.8281,792,411.8281,802,415.8281,798,411.8281" style="stroke:#181818;stroke-width:1.0;"/><line style="stroke:#181818;stroke-width:1.0;stroke-dasharray:2.0,2.0;" x1="796" x2="1026" y1="411.8281" y2="411.8281"/><text fill="#000000" font-family="sans-serif" font-size="13" font-weight="bold" lengthAdjust="spacing" textLength="7" x="808" y="406.9717">8</text><text fill="#000000" font-family="sans-serif" font-size="13" lengthAdjust="spacing" textLength="78" x="819" y="406.9717">list&lt;Delivery&gt;</text><line style="stroke:#181818;stroke-width:1.0;" x1="791" x2="833" y1="447.1797" y2="447.1797"/><line style="stroke:#181818;stroke-width:1.0;" x1="833" x2="833" y1="447.1797" y2="460.1797"/><line style="stroke:#181818;stroke-width:1.0;" x1="786" x2="833" y1="460.1797" y2="460.1797"/><polygon fill="#181818" points="796,456.1797,786,460.1797,796,464.1797,792,460.1797" style="stroke:#181818;stroke-width:1.0;"/><text fill="#000000" font-family="sans-serif" font-size="13" font-weight="bold" lengthAdjust="spacing" textLength="7" x="798" y="442.3232">9</text><text fill="#000000" font-family="sans-serif" font-size="13" lengthAdjust="spacing" textLength="211" x="809" y="442.3232">listDto = list.convertAll&lt;DeliveryDto&gt;</text><polygon fill="#181818" points="667,481.5313,657,485.5313,667,489.5313,663,485.5313" style="stroke:#181818;stroke-width:1.0;"/><line style="stroke:#181818;stroke-width:1.0;stroke-dasharray:2.0,2.0;" x1="661" x2="785" y1="485.5313" y2="485.5313"/><text fill="#000000" font-family="sans-serif" font-size="13" font-weight="bold" lengthAdjust="spacing" textLength="14" x="673" y="480.6748">10</text><text fill="#000000" font-family="sans-serif" font-size="13" lengthAdjust="spacing" textLength="37" x="691" y="480.6748">listDto</text><polygon fill="#181818" points="525,511.8828,515,515.8828,525,519.8828,521,515.8828" style="stroke:#181818;stroke-width:1.0;"/><line style="stroke:#181818;stroke-width:1.0;stroke-dasharray:2.0,2.0;" x1="519" x2="650" y1="515.8828" y2="515.8828"/><text fill="#000000" font-family="sans-serif" font-size="13" font-weight="bold" lengthAdjust="spacing" textLength="14" x="531" y="511.0264">11</text><text fill="#000000" font-family="sans-serif" font-size="13" lengthAdjust="spacing" textLength="90" x="549" y="511.0264">status 200 (Ok)</text><polygon fill="#181818" points="360,542.2344,350,546.2344,360,550.2344,356,546.2344" style="stroke:#181818;stroke-width:1.0;"/><line style="stroke:#181818;stroke-width:1.0;stroke-dasharray:2.0,2.0;" x1="354" x2="508" y1="546.2344" y2="546.2344"/><text fill="#000000" font-family="sans-serif" font-size="13" font-weight="bold" lengthAdjust="spacing" textLength="14" x="366" y="541.3779">12</text><text fill="#000000" font-family="sans-serif" font-size="13" lengthAdjust="spacing" textLength="106" x="384" y="541.3779">success message</text><polygon fill="#181818" points="195.5,572.5859,185.5,576.5859,195.5,580.5859,191.5,576.5859" style="stroke:#181818;stroke-width:1.0;"/><line style="stroke:#181818;stroke-width:1.0;stroke-dasharray:2.0,2.0;" x1="189.5" x2="343" y1="576.5859" y2="576.5859"/><text fill="#000000" font-family="sans-serif" font-size="13" font-weight="bold" lengthAdjust="spacing" textLength="14" x="201.5" y="571.7295">13</text><text fill="#000000" font-family="sans-serif" font-size="13" lengthAdjust="spacing" textLength="106" x="219.5" y="571.7295">success message</text><polygon fill="#181818" points="29.5,602.9375,19.5,606.9375,29.5,610.9375,25.5,606.9375" style="stroke:#181818;stroke-width:1.0;"/><line style="stroke:#181818;stroke-width:1.0;stroke-dasharray:2.0,2.0;" x1="23.5" x2="168.5" y1="606.9375" y2="606.9375"/><text fill="#000000" font-family="sans-serif" font-size="13" font-weight="bold" lengthAdjust="spacing" textLength="14" x="35.5" y="602.0811">14</text><text fill="#000000" font-family="sans-serif" font-size="13" lengthAdjust="spacing" textLength="106" x="53.5" y="602.0811">success message</text><!--MD5=[81c8de057852f28490d3ab5ee08a19a9]
@startuml
'https://plantuml.com/sequence-diagram

autonumber
actor "GA" as GA
participant "DeliveriesComponent" as COMP
participant "DeliveriesServiceService" as SS
participant "MDA: MDA" as MDA 
participant "DeliveriesController" as controller
participant "DeliveryService" as service
participant "IDeliveryRepository" as repository



GA-> COMP : asks to list deliveries
activate COMP
COMP -> COMP : getDeliveries()
activate COMP
COMP -> SS : getAllDeliveries()
activate SS
SS -> MDA : GET /Deliveries/listAll
note left
  Depending on the selected filter (id, 
  warehouse, dates) 
  the request and the methods will be 
  different, changing the method's name
  and implementation
end note

activate MDA

MDA -> controller :  GetAll

activate controller

controller-> service : GetAllAsync

activate service

service -> repository : GetAllAsync
activate repository

repository - -> service : list<Delivery>

service -> service : listDto = list.convertAll<DeliveryDto>

deactivate repository
service - -> controller : listDto
deactivate service


controller - -> MDA : status 200 (Ok)
deactivate controller

MDA - -> SS : success message
deactivate MDA
SS - -> COMP : success message
deactivate SS
GA<- - COMP : success message

deactivate MDA


deactivate COMP



@enduml

@startuml

autonumber
actor "GA" as GA
participant "DeliveriesComponent" as COMP
participant "DeliveriesServiceService" as SS
participant "MDA: MDA" as MDA 
participant "DeliveriesController" as controller
participant "DeliveryService" as service
participant "IDeliveryRepository" as repository



GA-> COMP : asks to list deliveries
activate COMP
COMP -> COMP : getDeliveries()
activate COMP
COMP -> SS : getAllDeliveries()
activate SS
SS -> MDA : GET /Deliveries/listAll
note left
  Depending on the selected filter (id, 
  warehouse, dates) 
  the request and the methods will be 
  different, changing the method's name
  and implementation
end note

activate MDA

MDA -> controller :  GetAll

activate controller

controller-> service : GetAllAsync

activate service

service -> repository : GetAllAsync
activate repository

repository - -> service : list<Delivery>

service -> service : listDto = list.convertAll<DeliveryDto>

deactivate repository
service - -> controller : listDto
deactivate service


controller - -> MDA : status 200 (Ok)
deactivate controller

MDA - -> SS : success message
deactivate MDA
SS - -> COMP : success message
deactivate SS
GA<- - COMP : success message

deactivate MDA


deactivate COMP



@enduml

PlantUML version 1.2022.7(Mon Aug 22 18:01:30 WEST 2022)
(GPL source distribution)
Java Runtime: Java(TM) SE Runtime Environment
JVM: Java HotSpot(TM) 64-Bit Server VM
Default Encoding: Cp1252
Language: pt
Country: PT
--></g></svg>