<?xml version="1.0" encoding="UTF-8" standalone="no"?><svg xmlns="http://www.w3.org/2000/svg" xmlns:xlink="http://www.w3.org/1999/xlink" contentStyleType="text/css" height="707px" preserveAspectRatio="none" style="width:1203px;height:707px;background:#FFFFFF;" version="1.1" viewBox="0 0 1203 707" width="1203px" zoomAndPan="magnify"><defs/><g><rect fill="#FFFFFF" height="500.9766" style="stroke:#181818;stroke-width:1.0;" width="10" x="185.5" y="114.9609"/><rect fill="#FFFFFF" height="453.625" style="stroke:#181818;stroke-width:1.0;" width="10" x="190.5" y="153.3125"/><rect fill="#FFFFFF" height="387.9219" style="stroke:#181818;stroke-width:1.0;" width="10" x="366" y="188.6641"/><rect fill="#FFFFFF" height="291.5156" style="stroke:#181818;stroke-width:1.0;" width="10" x="549" y="254.7188"/><rect fill="#FFFFFF" height="195.1094" style="stroke:#181818;stroke-width:1.0;" width="10" x="691" y="320.7734"/><rect fill="#FFFFFF" height="134.4063" style="stroke:#181818;stroke-width:1.0;" width="10" x="846" y="351.125"/><rect fill="#FFFFFF" height="66.7031" style="stroke:#181818;stroke-width:1.0;" width="10" x="1113" y="381.4766"/><line style="stroke:#181818;stroke-width:0.5;stroke-dasharray:5.0,5.0;" x1="18" x2="18" y1="82.6094" y2="624.9375"/><line style="stroke:#181818;stroke-width:0.5;stroke-dasharray:5.0,5.0;" x1="190.5" x2="190.5" y1="82.6094" y2="624.9375"/><line style="stroke:#181818;stroke-width:0.5;stroke-dasharray:5.0,5.0;" x1="370.5" x2="370.5" y1="82.6094" y2="624.9375"/><line style="stroke:#181818;stroke-width:0.5;stroke-dasharray:5.0,5.0;" x1="554" x2="554" y1="82.6094" y2="624.9375"/><line style="stroke:#181818;stroke-width:0.5;stroke-dasharray:5.0,5.0;" x1="696" x2="696" y1="82.6094" y2="624.9375"/><line style="stroke:#181818;stroke-width:0.5;stroke-dasharray:5.0,5.0;" x1="851" x2="851" y1="82.6094" y2="624.9375"/><line style="stroke:#181818;stroke-width:0.5;stroke-dasharray:5.0,5.0;" x1="1118" x2="1118" y1="82.6094" y2="624.9375"/><text fill="#000000" font-family="sans-serif" font-size="14" lengthAdjust="spacing" textLength="20" x="5.5" y="79.5332">GA</text><ellipse cx="18.5" cy="13.5" fill="#E2E2F0" rx="8" ry="8" style="stroke:#181818;stroke-width:0.5;"/><path d="M18.5,21.5 L18.5,48.5 M5.5,29.5 L31.5,29.5 M18.5,48.5 L5.5,63.5 M18.5,48.5 L31.5,63.5 " fill="none" style="stroke:#181818;stroke-width:0.5;"/><text fill="#000000" font-family="sans-serif" font-size="14" lengthAdjust="spacing" textLength="20" x="5.5" y="638.4707">GA</text><ellipse cx="18.5" cy="650.0469" fill="#E2E2F0" rx="8" ry="8" style="stroke:#181818;stroke-width:0.5;"/><path d="M18.5,658.0469 L18.5,685.0469 M5.5,666.0469 L31.5,666.0469 M18.5,685.0469 L5.5,700.0469 M18.5,685.0469 L31.5,700.0469 " fill="none" style="stroke:#181818;stroke-width:0.5;"/><rect fill="#E2E2F0" height="31.6094" rx="2.5" ry="2.5" style="stroke:#181818;stroke-width:0.5;" width="160" x="110.5" y="50"/><text fill="#000000" font-family="sans-serif" font-size="14" lengthAdjust="spacing" textLength="146" x="117.5" y="71.5332">WarehouseComponent</text><rect fill="#E2E2F0" height="31.6094" rx="2.5" ry="2.5" style="stroke:#181818;stroke-width:0.5;" width="160" x="110.5" y="623.9375"/><text fill="#000000" font-family="sans-serif" font-size="14" lengthAdjust="spacing" textLength="146" x="117.5" y="645.4707">WarehouseComponent</text><rect fill="#E2E2F0" height="31.6094" rx="2.5" ry="2.5" style="stroke:#181818;stroke-width:0.5;" width="181" x="280.5" y="50"/><text fill="#000000" font-family="sans-serif" font-size="14" lengthAdjust="spacing" textLength="167" x="287.5" y="71.5332">WarehouseServiceService</text><rect fill="#E2E2F0" height="31.6094" rx="2.5" ry="2.5" style="stroke:#181818;stroke-width:0.5;" width="181" x="280.5" y="623.9375"/><text fill="#000000" font-family="sans-serif" font-size="14" lengthAdjust="spacing" textLength="167" x="287.5" y="645.4707">WarehouseServiceService</text><rect fill="#E2E2F0" height="31.6094" rx="2.5" ry="2.5" style="stroke:#181818;stroke-width:0.5;" width="82" x="513" y="50"/><text fill="#000000" font-family="sans-serif" font-size="14" lengthAdjust="spacing" textLength="68" x="520" y="71.5332">MDA: MDA</text><rect fill="#E2E2F0" height="31.6094" rx="2.5" ry="2.5" style="stroke:#181818;stroke-width:0.5;" width="82" x="513" y="623.9375"/><text fill="#000000" font-family="sans-serif" font-size="14" lengthAdjust="spacing" textLength="68" x="520" y="645.4707">MDA: MDA</text><rect fill="#E2E2F0" height="31.6094" rx="2.5" ry="2.5" style="stroke:#181818;stroke-width:0.5;" width="156" x="618" y="50"/><text fill="#000000" font-family="sans-serif" font-size="14" lengthAdjust="spacing" textLength="142" x="625" y="71.5332">WarehousesController</text><rect fill="#E2E2F0" height="31.6094" rx="2.5" ry="2.5" style="stroke:#181818;stroke-width:0.5;" width="156" x="618" y="623.9375"/><text fill="#000000" font-family="sans-serif" font-size="14" lengthAdjust="spacing" textLength="142" x="625" y="645.4707">WarehousesController</text><rect fill="#E2E2F0" height="31.6094" rx="2.5" ry="2.5" style="stroke:#181818;stroke-width:0.5;" width="134" x="784" y="50"/><text fill="#000000" font-family="sans-serif" font-size="14" lengthAdjust="spacing" textLength="120" x="791" y="71.5332">WarehouseService</text><rect fill="#E2E2F0" height="31.6094" rx="2.5" ry="2.5" style="stroke:#181818;stroke-width:0.5;" width="134" x="784" y="623.9375"/><text fill="#000000" font-family="sans-serif" font-size="14" lengthAdjust="spacing" textLength="120" x="791" y="645.4707">WarehouseService</text><rect fill="#E2E2F0" height="31.6094" rx="2.5" ry="2.5" style="stroke:#181818;stroke-width:0.5;" width="158" x="1039" y="50"/><text fill="#000000" font-family="sans-serif" font-size="14" lengthAdjust="spacing" textLength="144" x="1046" y="71.5332">IWarehouseRepository</text><rect fill="#E2E2F0" height="31.6094" rx="2.5" ry="2.5" style="stroke:#181818;stroke-width:0.5;" width="158" x="1039" y="623.9375"/><text fill="#000000" font-family="sans-serif" font-size="14" lengthAdjust="spacing" textLength="144" x="1046" y="645.4707">IWarehouseRepository</text><rect fill="#FFFFFF" height="500.9766" style="stroke:#181818;stroke-width:1.0;" width="10" x="185.5" y="114.9609"/><rect fill="#FFFFFF" height="453.625" style="stroke:#181818;stroke-width:1.0;" width="10" x="190.5" y="153.3125"/><rect fill="#FFFFFF" height="387.9219" style="stroke:#181818;stroke-width:1.0;" width="10" x="366" y="188.6641"/><rect fill="#FFFFFF" height="291.5156" style="stroke:#181818;stroke-width:1.0;" width="10" x="549" y="254.7188"/><rect fill="#FFFFFF" height="195.1094" style="stroke:#181818;stroke-width:1.0;" width="10" x="691" y="320.7734"/><rect fill="#FFFFFF" height="134.4063" style="stroke:#181818;stroke-width:1.0;" width="10" x="846" y="351.125"/><rect fill="#FFFFFF" height="66.7031" style="stroke:#181818;stroke-width:1.0;" width="10" x="1113" y="381.4766"/><polygon fill="#181818" points="173.5,110.9609,183.5,114.9609,173.5,118.9609,177.5,114.9609" style="stroke:#181818;stroke-width:1.0;"/><line style="stroke:#181818;stroke-width:1.0;" x1="18.5" x2="179.5" y1="114.9609" y2="114.9609"/><text fill="#000000" font-family="sans-serif" font-size="13" font-weight="bold" lengthAdjust="spacing" textLength="7" x="25.5" y="110.1045">1</text><text fill="#000000" font-family="sans-serif" font-size="13" lengthAdjust="spacing" textLength="137" x="36.5" y="110.1045">asks to list warehouses</text><line style="stroke:#181818;stroke-width:1.0;" x1="195.5" x2="242.5" y1="140.3125" y2="140.3125"/><line style="stroke:#181818;stroke-width:1.0;" x1="242.5" x2="242.5" y1="140.3125" y2="153.3125"/><line style="stroke:#181818;stroke-width:1.0;" x1="201.5" x2="242.5" y1="153.3125" y2="153.3125"/><polygon fill="#181818" points="211.5,149.3125,201.5,153.3125,211.5,157.3125,207.5,153.3125" style="stroke:#181818;stroke-width:1.0;"/><text fill="#000000" font-family="sans-serif" font-size="13" font-weight="bold" lengthAdjust="spacing" textLength="7" x="207.5" y="135.4561">2</text><text fill="#000000" font-family="sans-serif" font-size="13" lengthAdjust="spacing" textLength="99" x="218.5" y="135.4561">getWarehouses()</text><polygon fill="#181818" points="354,184.6641,364,188.6641,354,192.6641,358,188.6641" style="stroke:#181818;stroke-width:1.0;"/><line style="stroke:#181818;stroke-width:1.0;" x1="200.5" x2="360" y1="188.6641" y2="188.6641"/><text fill="#000000" font-family="sans-serif" font-size="13" font-weight="bold" lengthAdjust="spacing" textLength="7" x="207.5" y="183.8076">3</text><text fill="#000000" font-family="sans-serif" font-size="13" lengthAdjust="spacing" textLength="99" x="218.5" y="183.8076">getWarehouses()</text><polygon fill="#181818" points="537,250.7188,547,254.7188,537,258.7188,541,254.7188" style="stroke:#181818;stroke-width:1.0;"/><line style="stroke:#181818;stroke-width:1.0;" x1="376" x2="543" y1="254.7188" y2="254.7188"/><text fill="#000000" font-family="sans-serif" font-size="13" font-weight="bold" lengthAdjust="spacing" textLength="7" x="383" y="249.8623">4</text><text fill="#000000" font-family="sans-serif" font-size="13" lengthAdjust="spacing" textLength="143" x="394" y="249.8623">GET /Warehouses/listAll</text><path d="M121,201.6641 L121,292.6641 L361,292.6641 L361,211.6641 L351,201.6641 L121,201.6641 " fill="#FEFFDD" style="stroke:#181818;stroke-width:0.5;"/><path d="M351,201.6641 L351,211.6641 L361,211.6641 L351,201.6641 " fill="#FEFFDD" style="stroke:#181818;stroke-width:0.5;"/><text fill="#000000" font-family="sans-serif" font-size="13" lengthAdjust="spacing" textLength="204" x="127" y="220.1592">Depending on the selected filter (id,</text><text fill="#000000" font-family="sans-serif" font-size="13" lengthAdjust="spacing" textLength="106" x="127" y="236.5107">warehouse, dates)</text><text fill="#000000" font-family="sans-serif" font-size="13" lengthAdjust="spacing" textLength="206" x="127" y="252.8623">the request and the methods will be</text><text fill="#000000" font-family="sans-serif" font-size="13" lengthAdjust="spacing" textLength="219" x="127" y="269.2139">different, changing the method's name</text><text fill="#000000" font-family="sans-serif" font-size="13" lengthAdjust="spacing" textLength="113" x="127" y="285.5654">and implementation</text><polygon fill="#181818" points="679,316.7734,689,320.7734,679,324.7734,683,320.7734" style="stroke:#181818;stroke-width:1.0;"/><line style="stroke:#181818;stroke-width:1.0;" x1="559" x2="685" y1="320.7734" y2="320.7734"/><text fill="#000000" font-family="sans-serif" font-size="13" font-weight="bold" lengthAdjust="spacing" textLength="7" x="566" y="315.917">5</text><text fill="#000000" font-family="sans-serif" font-size="13" lengthAdjust="spacing" textLength="36" x="577" y="315.917">GetAll</text><polygon fill="#181818" points="834,347.125,844,351.125,834,355.125,838,351.125" style="stroke:#181818;stroke-width:1.0;"/><line style="stroke:#181818;stroke-width:1.0;" x1="701" x2="840" y1="351.125" y2="351.125"/><text fill="#000000" font-family="sans-serif" font-size="13" font-weight="bold" lengthAdjust="spacing" textLength="7" x="708" y="346.2686">6</text><text fill="#000000" font-family="sans-serif" font-size="13" lengthAdjust="spacing" textLength="73" x="719" y="346.2686">GetAllAsync</text><polygon fill="#181818" points="1101,377.4766,1111,381.4766,1101,385.4766,1105,381.4766" style="stroke:#181818;stroke-width:1.0;"/><line style="stroke:#181818;stroke-width:1.0;" x1="856" x2="1107" y1="381.4766" y2="381.4766"/><text fill="#000000" font-family="sans-serif" font-size="13" font-weight="bold" lengthAdjust="spacing" textLength="7" x="863" y="376.6201">7</text><text fill="#000000" font-family="sans-serif" font-size="13" lengthAdjust="spacing" textLength="73" x="874" y="376.6201">GetAllAsync</text><polygon fill="#181818" points="867,407.8281,857,411.8281,867,415.8281,863,411.8281" style="stroke:#181818;stroke-width:1.0;"/><line style="stroke:#181818;stroke-width:1.0;stroke-dasharray:2.0,2.0;" x1="861" x2="1112" y1="411.8281" y2="411.8281"/><text fill="#000000" font-family="sans-serif" font-size="13" font-weight="bold" lengthAdjust="spacing" textLength="7" x="873" y="406.9717">8</text><text fill="#000000" font-family="sans-serif" font-size="13" lengthAdjust="spacing" textLength="99" x="884" y="406.9717">list&lt;Warehouse&gt;</text><line style="stroke:#181818;stroke-width:1.0;" x1="856" x2="898" y1="447.1797" y2="447.1797"/><line style="stroke:#181818;stroke-width:1.0;" x1="898" x2="898" y1="447.1797" y2="460.1797"/><line style="stroke:#181818;stroke-width:1.0;" x1="851" x2="898" y1="460.1797" y2="460.1797"/><polygon fill="#181818" points="861,456.1797,851,460.1797,861,464.1797,857,460.1797" style="stroke:#181818;stroke-width:1.0;"/><text fill="#000000" font-family="sans-serif" font-size="13" font-weight="bold" lengthAdjust="spacing" textLength="7" x="863" y="442.3232">9</text><text fill="#000000" font-family="sans-serif" font-size="13" lengthAdjust="spacing" textLength="232" x="874" y="442.3232">listDto = list.convertAll&lt;WarehouseDto&gt;</text><polygon fill="#181818" points="712,481.5313,702,485.5313,712,489.5313,708,485.5313" style="stroke:#181818;stroke-width:1.0;"/><line style="stroke:#181818;stroke-width:1.0;stroke-dasharray:2.0,2.0;" x1="706" x2="850" y1="485.5313" y2="485.5313"/><text fill="#000000" font-family="sans-serif" font-size="13" font-weight="bold" lengthAdjust="spacing" textLength="14" x="718" y="480.6748">10</text><text fill="#000000" font-family="sans-serif" font-size="13" lengthAdjust="spacing" textLength="37" x="736" y="480.6748">listDto</text><polygon fill="#181818" points="570,511.8828,560,515.8828,570,519.8828,566,515.8828" style="stroke:#181818;stroke-width:1.0;"/><line style="stroke:#181818;stroke-width:1.0;stroke-dasharray:2.0,2.0;" x1="564" x2="695" y1="515.8828" y2="515.8828"/><text fill="#000000" font-family="sans-serif" font-size="13" font-weight="bold" lengthAdjust="spacing" textLength="14" x="576" y="511.0264">11</text><text fill="#000000" font-family="sans-serif" font-size="13" lengthAdjust="spacing" textLength="90" x="594" y="511.0264">status 200 (Ok)</text><polygon fill="#181818" points="387,542.2344,377,546.2344,387,550.2344,383,546.2344" style="stroke:#181818;stroke-width:1.0;"/><line style="stroke:#181818;stroke-width:1.0;stroke-dasharray:2.0,2.0;" x1="381" x2="553" y1="546.2344" y2="546.2344"/><text fill="#000000" font-family="sans-serif" font-size="13" font-weight="bold" lengthAdjust="spacing" textLength="14" x="393" y="541.3779">12</text><text fill="#000000" font-family="sans-serif" font-size="13" lengthAdjust="spacing" textLength="106" x="411" y="541.3779">success message</text><polygon fill="#181818" points="211.5,572.5859,201.5,576.5859,211.5,580.5859,207.5,576.5859" style="stroke:#181818;stroke-width:1.0;"/><line style="stroke:#181818;stroke-width:1.0;stroke-dasharray:2.0,2.0;" x1="205.5" x2="370" y1="576.5859" y2="576.5859"/><text fill="#000000" font-family="sans-serif" font-size="13" font-weight="bold" lengthAdjust="spacing" textLength="14" x="217.5" y="571.7295">13</text><text fill="#000000" font-family="sans-serif" font-size="13" lengthAdjust="spacing" textLength="106" x="235.5" y="571.7295">success message</text><polygon fill="#181818" points="29.5,602.9375,19.5,606.9375,29.5,610.9375,25.5,606.9375" style="stroke:#181818;stroke-width:1.0;"/><line style="stroke:#181818;stroke-width:1.0;stroke-dasharray:2.0,2.0;" x1="23.5" x2="184.5" y1="606.9375" y2="606.9375"/><text fill="#000000" font-family="sans-serif" font-size="13" font-weight="bold" lengthAdjust="spacing" textLength="14" x="35.5" y="602.0811">14</text><text fill="#000000" font-family="sans-serif" font-size="13" lengthAdjust="spacing" textLength="106" x="53.5" y="602.0811">success message</text><!--MD5=[82774f55d1344e97a5f6a9a966f93ef7]
@startuml
'https://plantuml.com/sequence-diagram

autonumber
actor "GA" as GA
participant "WarehouseComponent" as COMP
participant "WarehouseServiceService" as SS
participant "MDA: MDA" as MDA 
participant "WarehousesController" as controller
participant "WarehouseService" as service
participant "IWarehouseRepository" as repository



GA-> COMP : asks to list warehouses
activate COMP
COMP -> COMP : getWarehouses()
activate COMP
COMP -> SS : getWarehouses()
activate SS
SS -> MDA : GET /Warehouses/listAll
note left
  Depending on the selected filter (id, 
  warehouse, dates) 
  the request and the methods will be 
  different, changing the method's name
  and implementation
end note

activate MDA

MDA -> controller :  GetAll

activate controller

controller-> service : GetAllAsync

activate service

service -> repository : GetAllAsync
activate repository

repository - -> service : list<Warehouse>

service -> service : listDto = list.convertAll<WarehouseDto>

deactivate repository
service - -> controller : listDto
deactivate service


controller - -> MDA : status 200 (Ok)
deactivate controller

MDA - -> SS : success message
deactivate MDA
SS - -> COMP : success message
deactivate SS
GA<- - COMP : success message

deactivate MDA


deactivate COMP



@enduml

@startuml

autonumber
actor "GA" as GA
participant "WarehouseComponent" as COMP
participant "WarehouseServiceService" as SS
participant "MDA: MDA" as MDA 
participant "WarehousesController" as controller
participant "WarehouseService" as service
participant "IWarehouseRepository" as repository



GA-> COMP : asks to list warehouses
activate COMP
COMP -> COMP : getWarehouses()
activate COMP
COMP -> SS : getWarehouses()
activate SS
SS -> MDA : GET /Warehouses/listAll
note left
  Depending on the selected filter (id, 
  warehouse, dates) 
  the request and the methods will be 
  different, changing the method's name
  and implementation
end note

activate MDA

MDA -> controller :  GetAll

activate controller

controller-> service : GetAllAsync

activate service

service -> repository : GetAllAsync
activate repository

repository - -> service : list<Warehouse>

service -> service : listDto = list.convertAll<WarehouseDto>

deactivate repository
service - -> controller : listDto
deactivate service


controller - -> MDA : status 200 (Ok)
deactivate controller

MDA - -> SS : success message
deactivate MDA
SS - -> COMP : success message
deactivate SS
GA<- - COMP : success message

deactivate MDA


deactivate COMP



@enduml

PlantUML version 1.2022.7(Mon Aug 22 18:01:30 WEST 2022)
(GPL source distribution)
Java Runtime: Java(TM) SE Runtime Environment
JVM: Java HotSpot(TM) 64-Bit Server VM
Default Encoding: Cp1252
Language: pt
Country: PT
--></g></svg>