<?xml version="1.0" encoding="UTF-8" standalone="no"?><svg xmlns="http://www.w3.org/2000/svg" xmlns:xlink="http://www.w3.org/1999/xlink" contentStyleType="text/css" height="947px" preserveAspectRatio="none" style="width:1415px;height:947px;background:#FFFFFF;" version="1.1" viewBox="0 0 1415 947" width="1415px" zoomAndPan="magnify"><defs/><g><rect fill="#FFFFFF" height="725.4063" style="stroke:#181818;stroke-width:1.0;" width="10" x="277.5" y="131.3125"/><rect fill="#FFFFFF" height="669.7031" style="stroke:#181818;stroke-width:1.0;" width="10" x="282.5" y="186.0156"/><rect fill="#FFFFFF" height="589" style="stroke:#181818;stroke-width:1.0;" width="10" x="526.5" y="221.3672"/><rect fill="#FFFFFF" height="558.6484" style="stroke:#181818;stroke-width:1.0;" width="10" x="690.5" y="251.7188"/><rect fill="#FFFFFF" height="481.5938" style="stroke:#181818;stroke-width:1.0;" width="10" x="917.5" y="298.4219"/><rect fill="#FFFFFF" height="181.7578" style="stroke:#181818;stroke-width:1.0;" width="10" x="1072.5" y="328.7734"/><rect fill="#FFFFFF" height="121.0547" style="stroke:#181818;stroke-width:1.0;" width="10" x="1228.5" y="359.125"/><rect fill="#FFFFFF" height="30" style="stroke:#181818;stroke-width:1.0;" width="10" x="1361" y="419.8281"/><rect fill="none" height="323.1875" style="stroke:#000000;stroke-width:1.5;" width="1000.5" x="10" y="525.5313"/><line style="stroke:#181818;stroke-width:0.5;stroke-dasharray:5.0,5.0;" x1="33" x2="33" y1="82.6094" y2="865.7188"/><line style="stroke:#181818;stroke-width:0.5;stroke-dasharray:5.0,5.0;" x1="282.5" x2="282.5" y1="82.6094" y2="865.7188"/><line style="stroke:#181818;stroke-width:0.5;stroke-dasharray:5.0,5.0;" x1="531" x2="531" y1="82.6094" y2="865.7188"/><line style="stroke:#181818;stroke-width:0.5;stroke-dasharray:5.0,5.0;" x1="695.5" x2="695.5" y1="82.6094" y2="865.7188"/><line style="stroke:#181818;stroke-width:0.5;stroke-dasharray:5.0,5.0;" x1="922.5" x2="922.5" y1="82.6094" y2="865.7188"/><line style="stroke:#181818;stroke-width:0.5;stroke-dasharray:5.0,5.0;" x1="1077.5" x2="1077.5" y1="82.6094" y2="865.7188"/><line style="stroke:#181818;stroke-width:0.5;stroke-dasharray:5.0,5.0;" x1="1233.5" x2="1233.5" y1="82.6094" y2="865.7188"/><line style="stroke:#181818;stroke-width:0.5;stroke-dasharray:5.0,5.0;" x1="1365.5" x2="1365.5" y1="82.6094" y2="865.7188"/><text fill="#000000" font-family="sans-serif" font-size="14" lengthAdjust="spacing" textLength="20" x="20.5" y="79.5332">GA</text><ellipse cx="33.5" cy="13.5" fill="#E2E2F0" rx="8" ry="8" style="stroke:#181818;stroke-width:0.5;"/><path d="M33.5,21.5 L33.5,48.5 M20.5,29.5 L46.5,29.5 M33.5,48.5 L20.5,63.5 M33.5,48.5 L46.5,63.5 " fill="none" style="stroke:#181818;stroke-width:0.5;"/><text fill="#000000" font-family="sans-serif" font-size="14" lengthAdjust="spacing" textLength="20" x="20.5" y="879.252">GA</text><ellipse cx="33.5" cy="890.8281" fill="#E2E2F0" rx="8" ry="8" style="stroke:#181818;stroke-width:0.5;"/><path d="M33.5,898.8281 L33.5,925.8281 M20.5,906.8281 L46.5,906.8281 M33.5,925.8281 L20.5,940.8281 M33.5,925.8281 L46.5,940.8281 " fill="none" style="stroke:#181818;stroke-width:0.5;"/><rect fill="#E2E2F0" height="31.6094" rx="2.5" ry="2.5" style="stroke:#181818;stroke-width:0.5;" width="160" x="202.5" y="50"/><text fill="#000000" font-family="sans-serif" font-size="14" lengthAdjust="spacing" textLength="146" x="209.5" y="71.5332">WarehouseComponent</text><rect fill="#E2E2F0" height="31.6094" rx="2.5" ry="2.5" style="stroke:#181818;stroke-width:0.5;" width="160" x="202.5" y="864.7188"/><text fill="#000000" font-family="sans-serif" font-size="14" lengthAdjust="spacing" textLength="146" x="209.5" y="886.252">WarehouseComponent</text><rect fill="#E2E2F0" height="31.6094" rx="2.5" ry="2.5" style="stroke:#181818;stroke-width:0.5;" width="181" x="441" y="50"/><text fill="#000000" font-family="sans-serif" font-size="14" lengthAdjust="spacing" textLength="167" x="448" y="71.5332">WarehouseServiceService</text><rect fill="#E2E2F0" height="31.6094" rx="2.5" ry="2.5" style="stroke:#181818;stroke-width:0.5;" width="181" x="441" y="864.7188"/><text fill="#000000" font-family="sans-serif" font-size="14" lengthAdjust="spacing" textLength="167" x="448" y="886.252">WarehouseServiceService</text><rect fill="#E2E2F0" height="31.6094" rx="2.5" ry="2.5" style="stroke:#181818;stroke-width:0.5;" width="82" x="654.5" y="50"/><text fill="#000000" font-family="sans-serif" font-size="14" lengthAdjust="spacing" textLength="68" x="661.5" y="71.5332">MDA: MDA</text><rect fill="#E2E2F0" height="31.6094" rx="2.5" ry="2.5" style="stroke:#181818;stroke-width:0.5;" width="82" x="654.5" y="864.7188"/><text fill="#000000" font-family="sans-serif" font-size="14" lengthAdjust="spacing" textLength="68" x="661.5" y="886.252">MDA: MDA</text><rect fill="#E2E2F0" height="31.6094" rx="2.5" ry="2.5" style="stroke:#181818;stroke-width:0.5;" width="156" x="844.5" y="50"/><text fill="#000000" font-family="sans-serif" font-size="14" lengthAdjust="spacing" textLength="142" x="851.5" y="71.5332">WarehousesController</text><rect fill="#E2E2F0" height="31.6094" rx="2.5" ry="2.5" style="stroke:#181818;stroke-width:0.5;" width="156" x="844.5" y="864.7188"/><text fill="#000000" font-family="sans-serif" font-size="14" lengthAdjust="spacing" textLength="142" x="851.5" y="886.252">WarehousesController</text><rect fill="#E2E2F0" height="31.6094" rx="2.5" ry="2.5" style="stroke:#181818;stroke-width:0.5;" width="134" x="1010.5" y="50"/><text fill="#000000" font-family="sans-serif" font-size="14" lengthAdjust="spacing" textLength="120" x="1017.5" y="71.5332">WarehouseService</text><rect fill="#E2E2F0" height="31.6094" rx="2.5" ry="2.5" style="stroke:#181818;stroke-width:0.5;" width="134" x="1010.5" y="864.7188"/><text fill="#000000" font-family="sans-serif" font-size="14" lengthAdjust="spacing" textLength="120" x="1017.5" y="886.252">WarehouseService</text><rect fill="#E2E2F0" height="31.6094" rx="2.5" ry="2.5" style="stroke:#181818;stroke-width:0.5;" width="158" x="1154.5" y="50"/><text fill="#000000" font-family="sans-serif" font-size="14" lengthAdjust="spacing" textLength="144" x="1161.5" y="71.5332">IWarehouseRepository</text><rect fill="#E2E2F0" height="31.6094" rx="2.5" ry="2.5" style="stroke:#181818;stroke-width:0.5;" width="158" x="1154.5" y="864.7188"/><text fill="#000000" font-family="sans-serif" font-size="14" lengthAdjust="spacing" textLength="144" x="1161.5" y="886.252">IWarehouseRepository</text><rect fill="#E2E2F0" height="31.6094" rx="2.5" ry="2.5" style="stroke:#181818;stroke-width:0.5;" width="87" x="1322.5" y="50"/><text fill="#000000" font-family="sans-serif" font-size="14" lengthAdjust="spacing" textLength="73" x="1329.5" y="71.5332">Warehouse</text><rect fill="#E2E2F0" height="31.6094" rx="2.5" ry="2.5" style="stroke:#181818;stroke-width:0.5;" width="87" x="1322.5" y="864.7188"/><text fill="#000000" font-family="sans-serif" font-size="14" lengthAdjust="spacing" textLength="73" x="1329.5" y="886.252">Warehouse</text><rect fill="#FFFFFF" height="725.4063" style="stroke:#181818;stroke-width:1.0;" width="10" x="277.5" y="131.3125"/><rect fill="#FFFFFF" height="669.7031" style="stroke:#181818;stroke-width:1.0;" width="10" x="282.5" y="186.0156"/><rect fill="#FFFFFF" height="589" style="stroke:#181818;stroke-width:1.0;" width="10" x="526.5" y="221.3672"/><rect fill="#FFFFFF" height="558.6484" style="stroke:#181818;stroke-width:1.0;" width="10" x="690.5" y="251.7188"/><rect fill="#FFFFFF" height="481.5938" style="stroke:#181818;stroke-width:1.0;" width="10" x="917.5" y="298.4219"/><rect fill="#FFFFFF" height="181.7578" style="stroke:#181818;stroke-width:1.0;" width="10" x="1072.5" y="328.7734"/><rect fill="#FFFFFF" height="121.0547" style="stroke:#181818;stroke-width:1.0;" width="10" x="1228.5" y="359.125"/><rect fill="#FFFFFF" height="30" style="stroke:#181818;stroke-width:1.0;" width="10" x="1361" y="419.8281"/><polygon fill="#181818" points="265.5,127.3125,275.5,131.3125,265.5,135.3125,269.5,131.3125" style="stroke:#181818;stroke-width:1.0;"/><line style="stroke:#181818;stroke-width:1.0;" x1="33.5" x2="271.5" y1="131.3125" y2="131.3125"/><text fill="#000000" font-family="sans-serif" font-size="13" font-weight="bold" lengthAdjust="spacing" textLength="7" x="40.5" y="118.2803">1</text><text fill="#000000" font-family="sans-serif" font-size="13" lengthAdjust="spacing" textLength="203" x="51.5" y="110.1045">introduces the data(id, designation,</text><text fill="#000000" font-family="sans-serif" font-size="13" lengthAdjust="spacing" textLength="210" x="55.5" y="126.4561">address, latitude, longitude, altitude)</text><line style="stroke:#181818;stroke-width:1.0;" x1="287.5" x2="334.5" y1="173.0156" y2="173.0156"/><line style="stroke:#181818;stroke-width:1.0;" x1="334.5" x2="334.5" y1="173.0156" y2="186.0156"/><line style="stroke:#181818;stroke-width:1.0;" x1="293.5" x2="334.5" y1="186.0156" y2="186.0156"/><polygon fill="#181818" points="303.5,182.0156,293.5,186.0156,303.5,190.0156,299.5,186.0156" style="stroke:#181818;stroke-width:1.0;"/><text fill="#000000" font-family="sans-serif" font-size="13" font-weight="bold" lengthAdjust="spacing" textLength="7" x="299.5" y="159.9834">2</text><text fill="#000000" font-family="sans-serif" font-size="13" lengthAdjust="spacing" textLength="197" x="310.5" y="151.8076">updateWarehouse(id, designation,</text><text fill="#000000" font-family="sans-serif" font-size="13" lengthAdjust="spacing" textLength="210" x="314.5" y="168.1592">address, latitude, longitude, altitude)</text><polygon fill="#181818" points="514.5,217.3672,524.5,221.3672,514.5,225.3672,518.5,221.3672" style="stroke:#181818;stroke-width:1.0;"/><line style="stroke:#181818;stroke-width:1.0;" x1="292.5" x2="520.5" y1="221.3672" y2="221.3672"/><text fill="#000000" font-family="sans-serif" font-size="13" font-weight="bold" lengthAdjust="spacing" textLength="7" x="299.5" y="216.5107">3</text><text fill="#000000" font-family="sans-serif" font-size="13" lengthAdjust="spacing" textLength="175" x="310.5" y="216.5107">updateWarehouse(warehouse)</text><polygon fill="#181818" points="678.5,247.7188,688.5,251.7188,678.5,255.7188,682.5,251.7188" style="stroke:#181818;stroke-width:1.0;"/><line style="stroke:#181818;stroke-width:1.0;" x1="536.5" x2="684.5" y1="251.7188" y2="251.7188"/><text fill="#000000" font-family="sans-serif" font-size="13" font-weight="bold" lengthAdjust="spacing" textLength="7" x="543.5" y="246.8623">4</text><text fill="#000000" font-family="sans-serif" font-size="13" lengthAdjust="spacing" textLength="124" x="554.5" y="246.8623">PATCH /Warehouses</text><polygon fill="#181818" points="905.5,294.4219,915.5,298.4219,905.5,302.4219,909.5,298.4219" style="stroke:#181818;stroke-width:1.0;"/><line style="stroke:#181818;stroke-width:1.0;" x1="700.5" x2="911.5" y1="298.4219" y2="298.4219"/><text fill="#000000" font-family="sans-serif" font-size="13" font-weight="bold" lengthAdjust="spacing" textLength="7" x="707.5" y="285.3896">5</text><text fill="#000000" font-family="sans-serif" font-size="13" lengthAdjust="spacing" textLength="187" x="718.5" y="277.2139">Update(id, designation, address,</text><text fill="#000000" font-family="sans-serif" font-size="13" lengthAdjust="spacing" textLength="156" x="722.5" y="293.5654">latitude, longitude, altitude)</text><polygon fill="#181818" points="1060.5,324.7734,1070.5,328.7734,1060.5,332.7734,1064.5,328.7734" style="stroke:#181818;stroke-width:1.0;"/><line style="stroke:#181818;stroke-width:1.0;" x1="927.5" x2="1066.5" y1="328.7734" y2="328.7734"/><text fill="#000000" font-family="sans-serif" font-size="13" font-weight="bold" lengthAdjust="spacing" textLength="7" x="934.5" y="323.917">6</text><text fill="#000000" font-family="sans-serif" font-size="13" lengthAdjust="spacing" textLength="78" x="945.5" y="323.917">UpdateAsync</text><polygon fill="#181818" points="1216.5,355.125,1226.5,359.125,1216.5,363.125,1220.5,359.125" style="stroke:#181818;stroke-width:1.0;"/><line style="stroke:#181818;stroke-width:1.0;" x1="1082.5" x2="1222.5" y1="359.125" y2="359.125"/><text fill="#000000" font-family="sans-serif" font-size="13" font-weight="bold" lengthAdjust="spacing" textLength="7" x="1089.5" y="354.2686">7</text><text fill="#000000" font-family="sans-serif" font-size="13" lengthAdjust="spacing" textLength="84" x="1100.5" y="354.2686">GetByIdAsync</text><polygon fill="#181818" points="1093.5,385.4766,1083.5,389.4766,1093.5,393.4766,1089.5,389.4766" style="stroke:#181818;stroke-width:1.0;"/><line style="stroke:#181818;stroke-width:1.0;stroke-dasharray:2.0,2.0;" x1="1087.5" x2="1227.5" y1="389.4766" y2="389.4766"/><text fill="#000000" font-family="sans-serif" font-size="13" font-weight="bold" lengthAdjust="spacing" textLength="7" x="1099.5" y="384.6201">8</text><text fill="#000000" font-family="sans-serif" font-size="13" lengthAdjust="spacing" textLength="62" x="1110.5" y="384.6201">warehouse</text><polygon fill="#181818" points="1349,415.8281,1359,419.8281,1349,423.8281,1353,419.8281" style="stroke:#181818;stroke-width:1.0;"/><line style="stroke:#181818;stroke-width:1.0;" x1="1082.5" x2="1355" y1="419.8281" y2="419.8281"/><text fill="#000000" font-family="sans-serif" font-size="13" font-weight="bold" lengthAdjust="spacing" textLength="7" x="1089.5" y="414.9717">9</text><text fill="#000000" font-family="sans-serif" font-size="13" lengthAdjust="spacing" textLength="39" x="1100.5" y="414.9717">update</text><polygon fill="#181818" points="1221.5,476.1797,1231.5,480.1797,1221.5,484.1797,1225.5,480.1797" style="stroke:#181818;stroke-width:1.0;"/><line style="stroke:#181818;stroke-width:1.0;" x1="1082.5" x2="1227.5" y1="480.1797" y2="480.1797"/><text fill="#000000" font-family="sans-serif" font-size="13" font-weight="bold" lengthAdjust="spacing" textLength="14" x="1089.5" y="475.3232">10</text><text fill="#000000" font-family="sans-serif" font-size="13" lengthAdjust="spacing" textLength="82" x="1107.5" y="475.3232">CommitAsync</text><polygon fill="#181818" points="938.5,506.5313,928.5,510.5313,938.5,514.5313,934.5,510.5313" style="stroke:#181818;stroke-width:1.0;"/><line style="stroke:#181818;stroke-width:1.0;stroke-dasharray:2.0,2.0;" x1="932.5" x2="1076.5" y1="510.5313" y2="510.5313"/><text fill="#000000" font-family="sans-serif" font-size="13" font-weight="bold" lengthAdjust="spacing" textLength="14" x="944.5" y="505.6748">11</text><text fill="#000000" font-family="sans-serif" font-size="13" lengthAdjust="spacing" textLength="18" x="962.5" y="505.6748">dto</text><path d="M10,525.5313 L71,525.5313 L71,533.8828 L61,543.8828 L10,543.8828 L10,525.5313 " fill="#EEEEEE" style="stroke:#000000;stroke-width:1.5;"/><rect fill="none" height="323.1875" style="stroke:#000000;stroke-width:1.5;" width="1000.5" x="10" y="525.5313"/><text fill="#000000" font-family="sans-serif" font-size="13" font-weight="bold" lengthAdjust="spacing" textLength="16" x="25" y="540.0264">alt</text><text fill="#000000" font-family="sans-serif" font-size="11" font-weight="bold" lengthAdjust="spacing" textLength="55" x="86" y="538.9502">[success]</text><polygon fill="#181818" points="711.5,562.2344,701.5,566.2344,711.5,570.2344,707.5,566.2344" style="stroke:#181818;stroke-width:1.0;"/><line style="stroke:#181818;stroke-width:1.0;stroke-dasharray:2.0,2.0;" x1="705.5" x2="916.5" y1="566.2344" y2="566.2344"/><text fill="#000000" font-family="sans-serif" font-size="13" font-weight="bold" lengthAdjust="spacing" textLength="14" x="717.5" y="561.3779">12</text><text fill="#000000" font-family="sans-serif" font-size="13" lengthAdjust="spacing" textLength="90" x="735.5" y="561.3779">status 200 (Ok)</text><polygon fill="#181818" points="303.5,592.5859,293.5,596.5859,303.5,600.5859,299.5,596.5859" style="stroke:#181818;stroke-width:1.0;"/><line style="stroke:#181818;stroke-width:1.0;stroke-dasharray:2.0,2.0;" x1="297.5" x2="689.5" y1="596.5859" y2="596.5859"/><text fill="#000000" font-family="sans-serif" font-size="13" font-weight="bold" lengthAdjust="spacing" textLength="14" x="309.5" y="591.7295">13</text><text fill="#000000" font-family="sans-serif" font-size="13" lengthAdjust="spacing" textLength="106" x="327.5" y="591.7295">success message</text><polygon fill="#181818" points="44.5,622.9375,34.5,626.9375,44.5,630.9375,40.5,626.9375" style="stroke:#181818;stroke-width:1.0;"/><line style="stroke:#181818;stroke-width:1.0;stroke-dasharray:2.0,2.0;" x1="38.5" x2="281.5" y1="626.9375" y2="626.9375"/><text fill="#000000" font-family="sans-serif" font-size="13" font-weight="bold" lengthAdjust="spacing" textLength="14" x="50.5" y="622.0811">14</text><text fill="#000000" font-family="sans-serif" font-size="13" lengthAdjust="spacing" textLength="106" x="68.5" y="622.0811">success message</text><line style="stroke:#000000;stroke-width:1.0;stroke-dasharray:2.0,2.0;" x1="10" x2="1010.5" y1="635.9375" y2="635.9375"/><text fill="#000000" font-family="sans-serif" font-size="11" font-weight="bold" lengthAdjust="spacing" textLength="60" x="15" y="647.3564">[NotFound]</text><polygon fill="#181818" points="711.5,669.125,701.5,673.125,711.5,677.125,707.5,673.125" style="stroke:#181818;stroke-width:1.0;"/><line style="stroke:#181818;stroke-width:1.0;stroke-dasharray:2.0,2.0;" x1="705.5" x2="916.5" y1="673.125" y2="673.125"/><text fill="#000000" font-family="sans-serif" font-size="13" font-weight="bold" lengthAdjust="spacing" textLength="14" x="717.5" y="668.2686">15</text><text fill="#000000" font-family="sans-serif" font-size="13" lengthAdjust="spacing" textLength="133" x="735.5" y="668.2686">status 404 (Not Found)</text><polygon fill="#181818" points="303.5,699.4766,293.5,703.4766,303.5,707.4766,299.5,703.4766" style="stroke:#181818;stroke-width:1.0;"/><line style="stroke:#181818;stroke-width:1.0;stroke-dasharray:2.0,2.0;" x1="297.5" x2="689.5" y1="703.4766" y2="703.4766"/><text fill="#000000" font-family="sans-serif" font-size="13" font-weight="bold" lengthAdjust="spacing" textLength="14" x="309.5" y="698.6201">16</text><text fill="#000000" font-family="sans-serif" font-size="13" lengthAdjust="spacing" textLength="116" x="327.5" y="698.6201">insuccess message</text><polygon fill="#181818" points="44.5,729.8281,34.5,733.8281,44.5,737.8281,40.5,733.8281" style="stroke:#181818;stroke-width:1.0;"/><line style="stroke:#181818;stroke-width:1.0;stroke-dasharray:2.0,2.0;" x1="38.5" x2="281.5" y1="733.8281" y2="733.8281"/><text fill="#000000" font-family="sans-serif" font-size="13" font-weight="bold" lengthAdjust="spacing" textLength="14" x="50.5" y="728.9717">17</text><text fill="#000000" font-family="sans-serif" font-size="13" lengthAdjust="spacing" textLength="116" x="68.5" y="728.9717">insuccess message</text><line style="stroke:#000000;stroke-width:1.0;stroke-dasharray:2.0,2.0;" x1="10" x2="1010.5" y1="742.8281" y2="742.8281"/><text fill="#000000" font-family="sans-serif" font-size="11" font-weight="bold" lengthAdjust="spacing" textLength="74" x="15" y="754.2471">[BadRequest]</text><polygon fill="#181818" points="711.5,776.0156,701.5,780.0156,711.5,784.0156,707.5,780.0156" style="stroke:#181818;stroke-width:1.0;"/><line style="stroke:#181818;stroke-width:1.0;stroke-dasharray:2.0,2.0;" x1="705.5" x2="921.5" y1="780.0156" y2="780.0156"/><text fill="#000000" font-family="sans-serif" font-size="13" font-weight="bold" lengthAdjust="spacing" textLength="14" x="717.5" y="775.1592">18</text><text fill="#000000" font-family="sans-serif" font-size="13" lengthAdjust="spacing" textLength="61" x="735.5" y="775.1592">status 400</text><polygon fill="#181818" points="303.5,806.3672,293.5,810.3672,303.5,814.3672,299.5,810.3672" style="stroke:#181818;stroke-width:1.0;"/><line style="stroke:#181818;stroke-width:1.0;stroke-dasharray:2.0,2.0;" x1="297.5" x2="694.5" y1="810.3672" y2="810.3672"/><text fill="#000000" font-family="sans-serif" font-size="13" font-weight="bold" lengthAdjust="spacing" textLength="14" x="309.5" y="805.5107">19</text><text fill="#000000" font-family="sans-serif" font-size="13" lengthAdjust="spacing" textLength="116" x="327.5" y="805.5107">insuccess message</text><polygon fill="#181818" points="44.5,836.7188,34.5,840.7188,44.5,844.7188,40.5,840.7188" style="stroke:#181818;stroke-width:1.0;"/><line style="stroke:#181818;stroke-width:1.0;stroke-dasharray:2.0,2.0;" x1="38.5" x2="281.5" y1="840.7188" y2="840.7188"/><text fill="#000000" font-family="sans-serif" font-size="13" font-weight="bold" lengthAdjust="spacing" textLength="14" x="50.5" y="835.8623">20</text><text fill="#000000" font-family="sans-serif" font-size="13" lengthAdjust="spacing" textLength="116" x="68.5" y="835.8623">insuccess message</text><!--MD5=[774b6bc7a8e6c9745e2af2d9d00e1aa5]
@startuml
'https://plantuml.com/sequence-diagram

autonumber
actor "GA" as GA
participant "WarehouseComponent" as COMP
participant "WarehouseServiceService" as SS
participant "MDA: MDA" as MDA 
participant "WarehousesController" as controller
participant "WarehouseService" as service
participant "IWarehouseRepository" as repository



GA-> COMP : introduces the data(id, designation,\n address, latitude, longitude, altitude)
activate COMP
COMP -> COMP : updateWarehouse(id, designation,\n address, latitude, longitude, altitude)
activate COMP
COMP -> SS : updateWarehouse(warehouse)
activate SS
SS -> MDA : PATCH /Warehouses

activate MDA

MDA -> controller :  Update(id, designation, address,\n latitude, longitude, altitude)

activate controller

controller-> service : UpdateAsync

activate service

service -> repository : GetByIdAsync
activate repository

repository - -> service : warehouse


service -> Warehouse : update
activate Warehouse
deactivate Warehouse
service -> repository : CommitAsync
deactivate repository

service - -> controller : dto
deactivate service

alt success
controller - -> MDA : status 200 (Ok)

MDA - -> COMP : success message
GA<- - COMP : success message
else NotFound
controller - -> MDA : status 404 (Not Found)

MDA - -> COMP : insuccess message
GA<- - COMP : insuccess message
else BadRequest
controller - -> MDA : status 400
deactivate

MDA - -> COMP : insuccess message
deactivate SS
deactivate MDA
GA<- - COMP : insuccess message
end
deactivate controller

deactivate MDA


deactivate COMP



@enduml

@startuml

autonumber
actor "GA" as GA
participant "WarehouseComponent" as COMP
participant "WarehouseServiceService" as SS
participant "MDA: MDA" as MDA 
participant "WarehousesController" as controller
participant "WarehouseService" as service
participant "IWarehouseRepository" as repository



GA-> COMP : introduces the data(id, designation,\n address, latitude, longitude, altitude)
activate COMP
COMP -> COMP : updateWarehouse(id, designation,\n address, latitude, longitude, altitude)
activate COMP
COMP -> SS : updateWarehouse(warehouse)
activate SS
SS -> MDA : PATCH /Warehouses

activate MDA

MDA -> controller :  Update(id, designation, address,\n latitude, longitude, altitude)

activate controller

controller-> service : UpdateAsync

activate service

service -> repository : GetByIdAsync
activate repository

repository - -> service : warehouse


service -> Warehouse : update
activate Warehouse
deactivate Warehouse
service -> repository : CommitAsync
deactivate repository

service - -> controller : dto
deactivate service

alt success
controller - -> MDA : status 200 (Ok)

MDA - -> COMP : success message
GA<- - COMP : success message
else NotFound
controller - -> MDA : status 404 (Not Found)

MDA - -> COMP : insuccess message
GA<- - COMP : insuccess message
else BadRequest
controller - -> MDA : status 400
deactivate

MDA - -> COMP : insuccess message
deactivate SS
deactivate MDA
GA<- - COMP : insuccess message
end
deactivate controller

deactivate MDA


deactivate COMP



@enduml

PlantUML version 1.2022.7(Mon Aug 22 18:01:30 WEST 2022)
(GPL source distribution)
Java Runtime: Java(TM) SE Runtime Environment
JVM: Java HotSpot(TM) 64-Bit Server VM
Default Encoding: Cp1252
Language: pt
Country: PT
--></g></svg>