<?xml version="1.0" encoding="UTF-8" standalone="no"?><svg xmlns="http://www.w3.org/2000/svg" xmlns:xlink="http://www.w3.org/1999/xlink" contentStyleType="text/css" height="992px" preserveAspectRatio="none" style="width:1337px;height:992px;background:#FFFFFF;" version="1.1" viewBox="0 0 1337 992" width="1337px" zoomAndPan="magnify"><defs/><g><rect fill="#FFFFFF" height="770.1094" style="stroke:#181818;stroke-width:1.0;" width="10" x="289.5" y="131.3125"/><rect fill="#FFFFFF" height="714.4063" style="stroke:#181818;stroke-width:1.0;" width="10" x="294.5" y="186.0156"/><rect fill="#FFFFFF" height="633.7031" style="stroke:#181818;stroke-width:1.0;" width="10" x="523.5" y="221.3672"/><rect fill="#FFFFFF" height="573" style="stroke:#181818;stroke-width:1.0;" width="10" x="714.5" y="251.7188"/><rect fill="#FFFFFF" height="512.2969" style="stroke:#181818;stroke-width:1.0;" width="10" x="914.5" y="282.0703"/><rect fill="#FFFFFF" height="151.7578" style="stroke:#181818;stroke-width:1.0;" width="10" x="1049.5" y="312.4219"/><rect fill="#FFFFFF" height="91.0547" style="stroke:#181818;stroke-width:1.0;" width="10" x="1183.5" y="342.7734"/><rect fill="none" height="414.2422" style="stroke:#000000;stroke-width:1.5;" width="988.5" x="10" y="479.1797"/><line style="stroke:#181818;stroke-width:0.5;stroke-dasharray:5.0,5.0;" x1="33" x2="33" y1="82.6094" y2="910.4219"/><line style="stroke:#181818;stroke-width:0.5;stroke-dasharray:5.0,5.0;" x1="294.5" x2="294.5" y1="82.6094" y2="910.4219"/><line style="stroke:#181818;stroke-width:0.5;stroke-dasharray:5.0,5.0;" x1="528" x2="528" y1="82.6094" y2="910.4219"/><line style="stroke:#181818;stroke-width:0.5;stroke-dasharray:5.0,5.0;" x1="719.5" x2="719.5" y1="82.6094" y2="910.4219"/><line style="stroke:#181818;stroke-width:0.5;stroke-dasharray:5.0,5.0;" x1="919.5" x2="919.5" y1="82.6094" y2="910.4219"/><line style="stroke:#181818;stroke-width:0.5;stroke-dasharray:5.0,5.0;" x1="1054.5" x2="1054.5" y1="82.6094" y2="910.4219"/><line style="stroke:#181818;stroke-width:0.5;stroke-dasharray:5.0,5.0;" x1="1188.5" x2="1188.5" y1="82.6094" y2="910.4219"/><line style="stroke:#181818;stroke-width:0.5;stroke-dasharray:5.0,5.0;" x1="1298.5" x2="1298.5" y1="82.6094" y2="910.4219"/><text fill="#000000" font-family="sans-serif" font-size="14" lengthAdjust="spacing" textLength="20" x="20.5" y="79.5332">GA</text><ellipse cx="33.5" cy="13.5" fill="#E2E2F0" rx="8" ry="8" style="stroke:#181818;stroke-width:0.5;"/><path d="M33.5,21.5 L33.5,48.5 M20.5,29.5 L46.5,29.5 M33.5,48.5 L20.5,63.5 M33.5,48.5 L46.5,63.5 " fill="none" style="stroke:#181818;stroke-width:0.5;"/><text fill="#000000" font-family="sans-serif" font-size="14" lengthAdjust="spacing" textLength="20" x="20.5" y="923.9551">GA</text><ellipse cx="33.5" cy="935.5313" fill="#E2E2F0" rx="8" ry="8" style="stroke:#181818;stroke-width:0.5;"/><path d="M33.5,943.5313 L33.5,970.5313 M20.5,951.5313 L46.5,951.5313 M33.5,970.5313 L20.5,985.5313 M33.5,970.5313 L46.5,985.5313 " fill="none" style="stroke:#181818;stroke-width:0.5;"/><rect fill="#E2E2F0" height="31.6094" rx="2.5" ry="2.5" style="stroke:#181818;stroke-width:0.5;" width="138" x="225.5" y="50"/><text fill="#000000" font-family="sans-serif" font-size="14" lengthAdjust="spacing" textLength="124" x="232.5" y="71.5332">DeliveryComponent</text><rect fill="#E2E2F0" height="31.6094" rx="2.5" ry="2.5" style="stroke:#181818;stroke-width:0.5;" width="138" x="225.5" y="909.4219"/><text fill="#000000" font-family="sans-serif" font-size="14" lengthAdjust="spacing" textLength="124" x="232.5" y="930.9551">DeliveryComponent</text><rect fill="#E2E2F0" height="31.6094" rx="2.5" ry="2.5" style="stroke:#181818;stroke-width:0.5;" width="159" x="449" y="50"/><text fill="#000000" font-family="sans-serif" font-size="14" lengthAdjust="spacing" textLength="145" x="456" y="71.5332">DeliveryServiceService</text><rect fill="#E2E2F0" height="31.6094" rx="2.5" ry="2.5" style="stroke:#181818;stroke-width:0.5;" width="159" x="449" y="909.4219"/><text fill="#000000" font-family="sans-serif" font-size="14" lengthAdjust="spacing" textLength="145" x="456" y="930.9551">DeliveryServiceService</text><rect fill="#E2E2F0" height="31.6094" rx="2.5" ry="2.5" style="stroke:#181818;stroke-width:0.5;" width="82" x="678.5" y="50"/><text fill="#000000" font-family="sans-serif" font-size="14" lengthAdjust="spacing" textLength="68" x="685.5" y="71.5332">MDA: MDA</text><rect fill="#E2E2F0" height="31.6094" rx="2.5" ry="2.5" style="stroke:#181818;stroke-width:0.5;" width="82" x="678.5" y="909.4219"/><text fill="#000000" font-family="sans-serif" font-size="14" lengthAdjust="spacing" textLength="68" x="685.5" y="930.9551">MDA: MDA</text><rect fill="#E2E2F0" height="31.6094" rx="2.5" ry="2.5" style="stroke:#181818;stroke-width:0.5;" width="138" x="850.5" y="50"/><text fill="#000000" font-family="sans-serif" font-size="14" lengthAdjust="spacing" textLength="124" x="857.5" y="71.5332">DeliveriesController</text><rect fill="#E2E2F0" height="31.6094" rx="2.5" ry="2.5" style="stroke:#181818;stroke-width:0.5;" width="138" x="850.5" y="909.4219"/><text fill="#000000" font-family="sans-serif" font-size="14" lengthAdjust="spacing" textLength="124" x="857.5" y="930.9551">DeliveriesController</text><rect fill="#E2E2F0" height="31.6094" rx="2.5" ry="2.5" style="stroke:#181818;stroke-width:0.5;" width="112" x="998.5" y="50"/><text fill="#000000" font-family="sans-serif" font-size="14" lengthAdjust="spacing" textLength="98" x="1005.5" y="71.5332">DeliveryService</text><rect fill="#E2E2F0" height="31.6094" rx="2.5" ry="2.5" style="stroke:#181818;stroke-width:0.5;" width="112" x="998.5" y="909.4219"/><text fill="#000000" font-family="sans-serif" font-size="14" lengthAdjust="spacing" textLength="98" x="1005.5" y="930.9551">DeliveryService</text><rect fill="#E2E2F0" height="31.6094" rx="2.5" ry="2.5" style="stroke:#181818;stroke-width:0.5;" width="136" x="1120.5" y="50"/><text fill="#000000" font-family="sans-serif" font-size="14" lengthAdjust="spacing" textLength="122" x="1127.5" y="71.5332">IDeliveryRepository</text><rect fill="#E2E2F0" height="31.6094" rx="2.5" ry="2.5" style="stroke:#181818;stroke-width:0.5;" width="136" x="1120.5" y="909.4219"/><text fill="#000000" font-family="sans-serif" font-size="14" lengthAdjust="spacing" textLength="122" x="1127.5" y="930.9551">IDeliveryRepository</text><rect fill="#E2E2F0" height="31.6094" rx="2.5" ry="2.5" style="stroke:#181818;stroke-width:0.5;" width="65" x="1266.5" y="50"/><text fill="#000000" font-family="sans-serif" font-size="14" lengthAdjust="spacing" textLength="51" x="1273.5" y="71.5332">Delivery</text><rect fill="#E2E2F0" height="31.6094" rx="2.5" ry="2.5" style="stroke:#181818;stroke-width:0.5;" width="65" x="1266.5" y="909.4219"/><text fill="#000000" font-family="sans-serif" font-size="14" lengthAdjust="spacing" textLength="51" x="1273.5" y="930.9551">Delivery</text><rect fill="#FFFFFF" height="770.1094" style="stroke:#181818;stroke-width:1.0;" width="10" x="289.5" y="131.3125"/><rect fill="#FFFFFF" height="714.4063" style="stroke:#181818;stroke-width:1.0;" width="10" x="294.5" y="186.0156"/><rect fill="#FFFFFF" height="633.7031" style="stroke:#181818;stroke-width:1.0;" width="10" x="523.5" y="221.3672"/><rect fill="#FFFFFF" height="573" style="stroke:#181818;stroke-width:1.0;" width="10" x="714.5" y="251.7188"/><rect fill="#FFFFFF" height="512.2969" style="stroke:#181818;stroke-width:1.0;" width="10" x="914.5" y="282.0703"/><rect fill="#FFFFFF" height="151.7578" style="stroke:#181818;stroke-width:1.0;" width="10" x="1049.5" y="312.4219"/><rect fill="#FFFFFF" height="91.0547" style="stroke:#181818;stroke-width:1.0;" width="10" x="1183.5" y="342.7734"/><polygon fill="#181818" points="277.5,127.3125,287.5,131.3125,277.5,135.3125,281.5,131.3125" style="stroke:#181818;stroke-width:1.0;"/><line style="stroke:#181818;stroke-width:1.0;" x1="33.5" x2="283.5" y1="131.3125" y2="131.3125"/><text fill="#000000" font-family="sans-serif" font-size="13" font-weight="bold" lengthAdjust="spacing" textLength="7" x="40.5" y="118.2803">1</text><text fill="#000000" font-family="sans-serif" font-size="13" lengthAdjust="spacing" textLength="226" x="51.5" y="110.1045">introduces the data(id,weight,loadTime,</text><text fill="#000000" font-family="sans-serif" font-size="13" lengthAdjust="spacing" textLength="191" x="51.5" y="126.4561">unloadTime,limitDate,warehouse)</text><line style="stroke:#181818;stroke-width:1.0;" x1="299.5" x2="346.5" y1="173.0156" y2="173.0156"/><line style="stroke:#181818;stroke-width:1.0;" x1="346.5" x2="346.5" y1="173.0156" y2="186.0156"/><line style="stroke:#181818;stroke-width:1.0;" x1="305.5" x2="346.5" y1="186.0156" y2="186.0156"/><polygon fill="#181818" points="315.5,182.0156,305.5,186.0156,315.5,190.0156,311.5,186.0156" style="stroke:#181818;stroke-width:1.0;"/><text fill="#000000" font-family="sans-serif" font-size="13" font-weight="bold" lengthAdjust="spacing" textLength="7" x="311.5" y="159.9834">2</text><text fill="#000000" font-family="sans-serif" font-size="13" lengthAdjust="spacing" textLength="199" x="322.5" y="151.8076">updateDelivery(id,weight,loadTime,</text><text fill="#000000" font-family="sans-serif" font-size="13" lengthAdjust="spacing" textLength="191" x="322.5" y="168.1592">unloadTime,limitDate,warehouse)</text><polygon fill="#181818" points="511.5,217.3672,521.5,221.3672,511.5,225.3672,515.5,221.3672" style="stroke:#181818;stroke-width:1.0;"/><line style="stroke:#181818;stroke-width:1.0;" x1="304.5" x2="517.5" y1="221.3672" y2="221.3672"/><text fill="#000000" font-family="sans-serif" font-size="13" font-weight="bold" lengthAdjust="spacing" textLength="7" x="311.5" y="216.5107">3</text><text fill="#000000" font-family="sans-serif" font-size="13" lengthAdjust="spacing" textLength="135" x="322.5" y="216.5107">updateDelivery(delivery)</text><polygon fill="#181818" points="702.5,247.7188,712.5,251.7188,702.5,255.7188,706.5,251.7188" style="stroke:#181818;stroke-width:1.0;"/><line style="stroke:#181818;stroke-width:1.0;" x1="533.5" x2="708.5" y1="251.7188" y2="251.7188"/><text fill="#000000" font-family="sans-serif" font-size="13" font-weight="bold" lengthAdjust="spacing" textLength="7" x="540.5" y="246.8623">4</text><text fill="#000000" font-family="sans-serif" font-size="13" lengthAdjust="spacing" textLength="151" x="551.5" y="246.8623">PATCH /Deliveries/Update</text><polygon fill="#181818" points="902.5,278.0703,912.5,282.0703,902.5,286.0703,906.5,282.0703" style="stroke:#181818;stroke-width:1.0;"/><line style="stroke:#181818;stroke-width:1.0;" x1="724.5" x2="908.5" y1="282.0703" y2="282.0703"/><text fill="#000000" font-family="sans-serif" font-size="13" font-weight="bold" lengthAdjust="spacing" textLength="7" x="731.5" y="277.2139">5</text><text fill="#000000" font-family="sans-serif" font-size="13" lengthAdjust="spacing" textLength="41" x="742.5" y="277.2139">Update</text><polygon fill="#181818" points="1037.5,308.4219,1047.5,312.4219,1037.5,316.4219,1041.5,312.4219" style="stroke:#181818;stroke-width:1.0;"/><line style="stroke:#181818;stroke-width:1.0;" x1="924.5" x2="1043.5" y1="312.4219" y2="312.4219"/><text fill="#000000" font-family="sans-serif" font-size="13" font-weight="bold" lengthAdjust="spacing" textLength="7" x="931.5" y="307.5654">6</text><text fill="#000000" font-family="sans-serif" font-size="13" lengthAdjust="spacing" textLength="78" x="942.5" y="307.5654">UpdateAsync</text><polygon fill="#181818" points="1171.5,338.7734,1181.5,342.7734,1171.5,346.7734,1175.5,342.7734" style="stroke:#181818;stroke-width:1.0;"/><line style="stroke:#181818;stroke-width:1.0;" x1="1059.5" x2="1177.5" y1="342.7734" y2="342.7734"/><text fill="#000000" font-family="sans-serif" font-size="13" font-weight="bold" lengthAdjust="spacing" textLength="7" x="1066.5" y="337.917">7</text><text fill="#000000" font-family="sans-serif" font-size="13" lengthAdjust="spacing" textLength="84" x="1077.5" y="337.917">GetByIdAsync</text><polygon fill="#181818" points="1070.5,369.125,1060.5,373.125,1070.5,377.125,1066.5,373.125" style="stroke:#181818;stroke-width:1.0;"/><line style="stroke:#181818;stroke-width:1.0;stroke-dasharray:2.0,2.0;" x1="1064.5" x2="1182.5" y1="373.125" y2="373.125"/><text fill="#000000" font-family="sans-serif" font-size="13" font-weight="bold" lengthAdjust="spacing" textLength="7" x="1076.5" y="368.2686">8</text><text fill="#000000" font-family="sans-serif" font-size="13" lengthAdjust="spacing" textLength="43" x="1087.5" y="368.2686">delivery</text><polygon fill="#181818" points="1287,399.4766,1297,403.4766,1287,407.4766,1291,403.4766" style="stroke:#181818;stroke-width:1.0;"/><line style="stroke:#181818;stroke-width:1.0;" x1="1059.5" x2="1293" y1="403.4766" y2="403.4766"/><text fill="#000000" font-family="sans-serif" font-size="13" font-weight="bold" lengthAdjust="spacing" textLength="7" x="1066.5" y="398.6201">9</text><text fill="#000000" font-family="sans-serif" font-size="13" lengthAdjust="spacing" textLength="39" x="1077.5" y="398.6201">update</text><polygon fill="#181818" points="1176.5,429.8281,1186.5,433.8281,1176.5,437.8281,1180.5,433.8281" style="stroke:#181818;stroke-width:1.0;"/><line style="stroke:#181818;stroke-width:1.0;" x1="1059.5" x2="1182.5" y1="433.8281" y2="433.8281"/><text fill="#000000" font-family="sans-serif" font-size="13" font-weight="bold" lengthAdjust="spacing" textLength="14" x="1066.5" y="428.9717">10</text><text fill="#000000" font-family="sans-serif" font-size="13" lengthAdjust="spacing" textLength="82" x="1084.5" y="428.9717">CommitAsync</text><polygon fill="#181818" points="935.5,460.1797,925.5,464.1797,935.5,468.1797,931.5,464.1797" style="stroke:#181818;stroke-width:1.0;"/><line style="stroke:#181818;stroke-width:1.0;stroke-dasharray:2.0,2.0;" x1="929.5" x2="1053.5" y1="464.1797" y2="464.1797"/><text fill="#000000" font-family="sans-serif" font-size="13" font-weight="bold" lengthAdjust="spacing" textLength="14" x="941.5" y="459.3232">11</text><text fill="#000000" font-family="sans-serif" font-size="13" lengthAdjust="spacing" textLength="18" x="959.5" y="459.3232">dto</text><path d="M10,479.1797 L71,479.1797 L71,487.5313 L61,497.5313 L10,497.5313 L10,479.1797 " fill="#EEEEEE" style="stroke:#000000;stroke-width:1.5;"/><rect fill="none" height="414.2422" style="stroke:#000000;stroke-width:1.5;" width="988.5" x="10" y="479.1797"/><text fill="#000000" font-family="sans-serif" font-size="13" font-weight="bold" lengthAdjust="spacing" textLength="16" x="25" y="493.6748">alt</text><text fill="#000000" font-family="sans-serif" font-size="11" font-weight="bold" lengthAdjust="spacing" textLength="55" x="86" y="492.5986">[success]</text><polygon fill="#181818" points="735.5,515.8828,725.5,519.8828,735.5,523.8828,731.5,519.8828" style="stroke:#181818;stroke-width:1.0;"/><line style="stroke:#181818;stroke-width:1.0;stroke-dasharray:2.0,2.0;" x1="729.5" x2="913.5" y1="519.8828" y2="519.8828"/><text fill="#000000" font-family="sans-serif" font-size="13" font-weight="bold" lengthAdjust="spacing" textLength="14" x="741.5" y="515.0264">12</text><text fill="#000000" font-family="sans-serif" font-size="13" lengthAdjust="spacing" textLength="90" x="759.5" y="515.0264">status 200 (Ok)</text><polygon fill="#181818" points="544.5,546.2344,534.5,550.2344,544.5,554.2344,540.5,550.2344" style="stroke:#181818;stroke-width:1.0;"/><line style="stroke:#181818;stroke-width:1.0;stroke-dasharray:2.0,2.0;" x1="538.5" x2="713.5" y1="550.2344" y2="550.2344"/><text fill="#000000" font-family="sans-serif" font-size="13" font-weight="bold" lengthAdjust="spacing" textLength="14" x="550.5" y="545.3779">13</text><text fill="#000000" font-family="sans-serif" font-size="13" lengthAdjust="spacing" textLength="106" x="568.5" y="545.3779">success message</text><polygon fill="#181818" points="315.5,576.5859,305.5,580.5859,315.5,584.5859,311.5,580.5859" style="stroke:#181818;stroke-width:1.0;"/><line style="stroke:#181818;stroke-width:1.0;stroke-dasharray:2.0,2.0;" x1="309.5" x2="522.5" y1="580.5859" y2="580.5859"/><text fill="#000000" font-family="sans-serif" font-size="13" font-weight="bold" lengthAdjust="spacing" textLength="14" x="321.5" y="575.7295">14</text><text fill="#000000" font-family="sans-serif" font-size="13" lengthAdjust="spacing" textLength="106" x="339.5" y="575.7295">success message</text><polygon fill="#181818" points="44.5,606.9375,34.5,610.9375,44.5,614.9375,40.5,610.9375" style="stroke:#181818;stroke-width:1.0;"/><line style="stroke:#181818;stroke-width:1.0;" x1="38.5" x2="293.5" y1="610.9375" y2="610.9375"/><text fill="#000000" font-family="sans-serif" font-size="13" font-weight="bold" lengthAdjust="spacing" textLength="14" x="50.5" y="606.0811">15</text><text fill="#000000" font-family="sans-serif" font-size="13" lengthAdjust="spacing" textLength="106" x="68.5" y="606.0811">success message</text><line style="stroke:#000000;stroke-width:1.0;stroke-dasharray:2.0,2.0;" x1="10" x2="998.5" y1="619.9375" y2="619.9375"/><text fill="#000000" font-family="sans-serif" font-size="11" font-weight="bold" lengthAdjust="spacing" textLength="60" x="15" y="631.3564">[NotFound]</text><polygon fill="#181818" points="735.5,653.125,725.5,657.125,735.5,661.125,731.5,657.125" style="stroke:#181818;stroke-width:1.0;"/><line style="stroke:#181818;stroke-width:1.0;stroke-dasharray:2.0,2.0;" x1="729.5" x2="913.5" y1="657.125" y2="657.125"/><text fill="#000000" font-family="sans-serif" font-size="13" font-weight="bold" lengthAdjust="spacing" textLength="14" x="741.5" y="652.2686">16</text><text fill="#000000" font-family="sans-serif" font-size="13" lengthAdjust="spacing" textLength="133" x="759.5" y="652.2686">status 404 (Not Found)</text><polygon fill="#181818" points="544.5,683.4766,534.5,687.4766,544.5,691.4766,540.5,687.4766" style="stroke:#181818;stroke-width:1.0;"/><line style="stroke:#181818;stroke-width:1.0;stroke-dasharray:2.0,2.0;" x1="538.5" x2="713.5" y1="687.4766" y2="687.4766"/><text fill="#000000" font-family="sans-serif" font-size="13" font-weight="bold" lengthAdjust="spacing" textLength="14" x="550.5" y="682.6201">17</text><text fill="#000000" font-family="sans-serif" font-size="13" lengthAdjust="spacing" textLength="116" x="568.5" y="682.6201">insuccess message</text><polygon fill="#181818" points="315.5,713.8281,305.5,717.8281,315.5,721.8281,311.5,717.8281" style="stroke:#181818;stroke-width:1.0;"/><line style="stroke:#181818;stroke-width:1.0;stroke-dasharray:2.0,2.0;" x1="309.5" x2="522.5" y1="717.8281" y2="717.8281"/><text fill="#000000" font-family="sans-serif" font-size="13" font-weight="bold" lengthAdjust="spacing" textLength="14" x="321.5" y="712.9717">18</text><text fill="#000000" font-family="sans-serif" font-size="13" lengthAdjust="spacing" textLength="116" x="339.5" y="712.9717">insuccess message</text><polygon fill="#181818" points="44.5,744.1797,34.5,748.1797,44.5,752.1797,40.5,748.1797" style="stroke:#181818;stroke-width:1.0;"/><line style="stroke:#181818;stroke-width:1.0;" x1="38.5" x2="293.5" y1="748.1797" y2="748.1797"/><text fill="#000000" font-family="sans-serif" font-size="13" font-weight="bold" lengthAdjust="spacing" textLength="14" x="50.5" y="743.3232">19</text><text fill="#000000" font-family="sans-serif" font-size="13" lengthAdjust="spacing" textLength="116" x="68.5" y="743.3232">insuccess message</text><line style="stroke:#000000;stroke-width:1.0;stroke-dasharray:2.0,2.0;" x1="10" x2="998.5" y1="757.1797" y2="757.1797"/><text fill="#000000" font-family="sans-serif" font-size="11" font-weight="bold" lengthAdjust="spacing" textLength="74" x="15" y="768.5986">[BadRequest]</text><polygon fill="#181818" points="735.5,790.3672,725.5,794.3672,735.5,798.3672,731.5,794.3672" style="stroke:#181818;stroke-width:1.0;"/><line style="stroke:#181818;stroke-width:1.0;stroke-dasharray:2.0,2.0;" x1="729.5" x2="918.5" y1="794.3672" y2="794.3672"/><text fill="#000000" font-family="sans-serif" font-size="13" font-weight="bold" lengthAdjust="spacing" textLength="14" x="741.5" y="789.5107">20</text><text fill="#000000" font-family="sans-serif" font-size="13" lengthAdjust="spacing" textLength="148" x="759.5" y="789.5107">status 400 (Bad Request)</text><polygon fill="#181818" points="544.5,820.7188,534.5,824.7188,544.5,828.7188,540.5,824.7188" style="stroke:#181818;stroke-width:1.0;"/><line style="stroke:#181818;stroke-width:1.0;stroke-dasharray:2.0,2.0;" x1="538.5" x2="718.5" y1="824.7188" y2="824.7188"/><text fill="#000000" font-family="sans-serif" font-size="13" font-weight="bold" lengthAdjust="spacing" textLength="14" x="550.5" y="819.8623">21</text><text fill="#000000" font-family="sans-serif" font-size="13" lengthAdjust="spacing" textLength="116" x="568.5" y="819.8623">insuccess message</text><polygon fill="#181818" points="315.5,851.0703,305.5,855.0703,315.5,859.0703,311.5,855.0703" style="stroke:#181818;stroke-width:1.0;"/><line style="stroke:#181818;stroke-width:1.0;stroke-dasharray:2.0,2.0;" x1="309.5" x2="527.5" y1="855.0703" y2="855.0703"/><text fill="#000000" font-family="sans-serif" font-size="13" font-weight="bold" lengthAdjust="spacing" textLength="14" x="321.5" y="850.2139">22</text><text fill="#000000" font-family="sans-serif" font-size="13" lengthAdjust="spacing" textLength="116" x="339.5" y="850.2139">insuccess message</text><polygon fill="#181818" points="44.5,881.4219,34.5,885.4219,44.5,889.4219,40.5,885.4219" style="stroke:#181818;stroke-width:1.0;"/><line style="stroke:#181818;stroke-width:1.0;" x1="38.5" x2="293.5" y1="885.4219" y2="885.4219"/><text fill="#000000" font-family="sans-serif" font-size="13" font-weight="bold" lengthAdjust="spacing" textLength="14" x="50.5" y="880.5654">23</text><text fill="#000000" font-family="sans-serif" font-size="13" lengthAdjust="spacing" textLength="116" x="68.5" y="880.5654">insuccess message</text><!--MD5=[9a52bccbfebfb870f3f944a5be96ac3e]
@startuml
'https://plantuml.com/sequence-diagram

autonumber
actor "GA" as GA
participant "DeliveryComponent" as COMP
participant "DeliveryServiceService" as SS
participant "MDA: MDA" as MDA 
participant "DeliveriesController" as controller
participant "DeliveryService" as service
participant "IDeliveryRepository" as repository



GA-> COMP : introduces the data(id,weight,loadTime,\nunloadTime,limitDate,warehouse)
activate COMP
COMP -> COMP : updateDelivery(id,weight,loadTime,\nunloadTime,limitDate,warehouse)
activate COMP
COMP -> SS : updateDelivery(delivery)
activate SS
SS -> MDA : PATCH /Deliveries/Update

activate MDA

MDA -> controller :  Update

activate controller

controller-> service : UpdateAsync

activate service

service -> repository : GetByIdAsync
activate repository

repository - -> service : delivery


service -> Delivery : update

service -> repository : CommitAsync
deactivate repository

service - -> controller : dto
deactivate service

alt success
controller - -> MDA : status 200 (Ok)

MDA - -> SS : success message
SS - -> COMP : success message
GA<- COMP : success message
else NotFound
controller - -> MDA : status 404 (Not Found)

MDA - -> SS : insuccess message
SS - -> COMP : insuccess message
GA<- COMP : insuccess message
else BadRequest
controller - -> MDA : status 400 (Bad Request)
deactivate
MDA - -> SS : insuccess message
deactivate MDA
SS - -> COMP : insuccess message
deactivate SS
GA<- COMP : insuccess message
end
deactivate controller

deactivate MDA


deactivate COMP



@enduml

@startuml

autonumber
actor "GA" as GA
participant "DeliveryComponent" as COMP
participant "DeliveryServiceService" as SS
participant "MDA: MDA" as MDA 
participant "DeliveriesController" as controller
participant "DeliveryService" as service
participant "IDeliveryRepository" as repository



GA-> COMP : introduces the data(id,weight,loadTime,\nunloadTime,limitDate,warehouse)
activate COMP
COMP -> COMP : updateDelivery(id,weight,loadTime,\nunloadTime,limitDate,warehouse)
activate COMP
COMP -> SS : updateDelivery(delivery)
activate SS
SS -> MDA : PATCH /Deliveries/Update

activate MDA

MDA -> controller :  Update

activate controller

controller-> service : UpdateAsync

activate service

service -> repository : GetByIdAsync
activate repository

repository - -> service : delivery


service -> Delivery : update

service -> repository : CommitAsync
deactivate repository

service - -> controller : dto
deactivate service

alt success
controller - -> MDA : status 200 (Ok)

MDA - -> SS : success message
SS - -> COMP : success message
GA<- COMP : success message
else NotFound
controller - -> MDA : status 404 (Not Found)

MDA - -> SS : insuccess message
SS - -> COMP : insuccess message
GA<- COMP : insuccess message
else BadRequest
controller - -> MDA : status 400 (Bad Request)
deactivate
MDA - -> SS : insuccess message
deactivate MDA
SS - -> COMP : insuccess message
deactivate SS
GA<- COMP : insuccess message
end
deactivate controller

deactivate MDA


deactivate COMP



@enduml

PlantUML version 1.2022.7(Mon Aug 22 18:01:30 WEST 2022)
(GPL source distribution)
Java Runtime: Java(TM) SE Runtime Environment
JVM: Java HotSpot(TM) 64-Bit Server VM
Default Encoding: Cp1252
Language: pt
Country: PT
--></g></svg>