<?xml version="1.0" encoding="UTF-8" standalone="no"?><svg xmlns="http://www.w3.org/2000/svg" xmlns:xlink="http://www.w3.org/1999/xlink" contentStyleType="text/css" height="1395px" preserveAspectRatio="none" style="width:1956px;height:1395px;background:#FFFFFF;" version="1.1" viewBox="0 0 1956 1395" width="1956px" zoomAndPan="magnify"><defs/><g><rect fill="#FFFFFF" height="1189.1563" style="stroke:#181818;stroke-width:1.0;" width="10" x="347.5" y="114.9609"/><rect fill="#FFFFFF" height="1141.8047" style="stroke:#181818;stroke-width:1.0;" width="10" x="352.5" y="153.3125"/><rect fill="#FFFFFF" height="1076.1016" style="stroke:#181818;stroke-width:1.0;" width="10" x="638.5" y="188.6641"/><rect fill="#FFFFFF" height="1015.3984" style="stroke:#181818;stroke-width:1.0;" width="10" x="796.5" y="219.0156"/><rect fill="#FFFFFF" height="954.6953" style="stroke:#181818;stroke-width:1.0;" width="10" x="954.5" y="249.3672"/><rect fill="#FFFFFF" height="890.9922" style="stroke:#181818;stroke-width:1.0;" width="10" x="1250.5" y="282.7188"/><rect fill="#FFFFFF" height="827.2891" style="stroke:#181818;stroke-width:1.0;" width="10" x="1385.5" y="316.0703"/><rect fill="#FFFFFF" height="663.625" style="stroke:#181818;stroke-width:1.0;" width="10" x="1584.5" y="389.0313"/><rect fill="#FFFFFF" height="28" style="stroke:#181818;stroke-width:1.0;" width="10" x="1589.5" y="793.25"/><rect fill="#FFFFFF" height="28" style="stroke:#181818;stroke-width:1.0;" width="10" x="1589.5" y="866.6016"/><rect fill="#FFFFFF" height="30" style="stroke:#181818;stroke-width:1.0;" width="10" x="1723.5" y="419.3828"/><rect fill="#FFFFFF" height="55.7031" style="stroke:#181818;stroke-width:1.0;" width="10" x="1723.5" y="479.7344"/><rect fill="#FFFFFF" height="30" style="stroke:#181818;stroke-width:1.0;" width="10" x="1723.5" y="992.3047"/><rect fill="#FFFFFF" height="30" style="stroke:#181818;stroke-width:1.0;" width="10" x="1826" y="1083.0078"/><rect fill="#FFFFFF" height="30" style="stroke:#181818;stroke-width:1.0;" width="10" x="1916.5" y="931.9531"/><rect fill="none" height="261.1641" style="stroke:#000000;stroke-width:1.5;" width="1774" x="10" y="494.7344"/><line style="stroke:#181818;stroke-width:0.5;stroke-dasharray:5.0,5.0;" x1="33" x2="33" y1="82.6094" y2="1313.1172"/><line style="stroke:#181818;stroke-width:0.5;stroke-dasharray:5.0,5.0;" x1="352" x2="352" y1="82.6094" y2="1313.1172"/><line style="stroke:#181818;stroke-width:0.5;stroke-dasharray:5.0,5.0;" x1="643.5" x2="643.5" y1="82.6094" y2="1313.1172"/><line style="stroke:#181818;stroke-width:0.5;stroke-dasharray:5.0,5.0;" x1="801" x2="801" y1="82.6094" y2="1313.1172"/><line style="stroke:#181818;stroke-width:0.5;stroke-dasharray:5.0,5.0;" x1="959.5" x2="959.5" y1="82.6094" y2="1313.1172"/><line style="stroke:#181818;stroke-width:0.5;stroke-dasharray:5.0,5.0;" x1="1255.5" x2="1255.5" y1="82.6094" y2="1313.1172"/><line style="stroke:#181818;stroke-width:0.5;stroke-dasharray:5.0,5.0;" x1="1390" x2="1390" y1="82.6094" y2="1313.1172"/><line style="stroke:#181818;stroke-width:0.5;stroke-dasharray:5.0,5.0;" x1="1498.5" x2="1498.5" y1="355.375" y2="1313.1172"/><line style="stroke:#181818;stroke-width:0.5;stroke-dasharray:5.0,5.0;" x1="1589.5" x2="1589.5" y1="82.6094" y2="1313.1172"/><line style="stroke:#181818;stroke-width:0.5;stroke-dasharray:5.0,5.0;" x1="1728" x2="1728" y1="82.6094" y2="1313.1172"/><line style="stroke:#181818;stroke-width:0.5;stroke-dasharray:5.0,5.0;" x1="1831" x2="1831" y1="82.6094" y2="1313.1172"/><line style="stroke:#181818;stroke-width:0.5;stroke-dasharray:5.0,5.0;" x1="1921" x2="1921" y1="82.6094" y2="1313.1172"/><text fill="#000000" font-family="sans-serif" font-size="14" lengthAdjust="spacing" textLength="19" x="21" y="79.5332">GL</text><ellipse cx="33.5" cy="13.5" fill="#E2E2F0" rx="8" ry="8" style="stroke:#181818;stroke-width:0.5;"/><path d="M33.5,21.5 L33.5,48.5 M20.5,29.5 L46.5,29.5 M33.5,48.5 L20.5,63.5 M33.5,48.5 L46.5,63.5 " fill="none" style="stroke:#181818;stroke-width:0.5;"/><text fill="#000000" font-family="sans-serif" font-size="14" lengthAdjust="spacing" textLength="19" x="21" y="1326.6504">GL</text><ellipse cx="33.5" cy="1338.2266" fill="#E2E2F0" rx="8" ry="8" style="stroke:#181818;stroke-width:0.5;"/><path d="M33.5,1346.2266 L33.5,1373.2266 M20.5,1354.2266 L46.5,1354.2266 M33.5,1373.2266 L20.5,1388.2266 M33.5,1373.2266 L46.5,1388.2266 " fill="none" style="stroke:#181818;stroke-width:0.5;"/><rect fill="#E2E2F0" height="31.6094" rx="2.5" ry="2.5" style="stroke:#181818;stroke-width:0.5;" width="137" x="284" y="50"/><text fill="#000000" font-family="sans-serif" font-size="14" lengthAdjust="spacing" textLength="123" x="291" y="71.5332">PackingComponent</text><rect fill="#E2E2F0" height="31.6094" rx="2.5" ry="2.5" style="stroke:#181818;stroke-width:0.5;" width="137" x="284" y="1312.1172"/><text fill="#000000" font-family="sans-serif" font-size="14" lengthAdjust="spacing" textLength="123" x="291" y="1333.6504">PackingComponent</text><rect fill="#E2E2F0" height="31.6094" rx="2.5" ry="2.5" style="stroke:#181818;stroke-width:0.5;" width="158" x="564.5" y="50"/><text fill="#000000" font-family="sans-serif" font-size="14" lengthAdjust="spacing" textLength="144" x="571.5" y="71.5332">PackingServiceService</text><rect fill="#E2E2F0" height="31.6094" rx="2.5" ry="2.5" style="stroke:#181818;stroke-width:0.5;" width="158" x="564.5" y="1312.1172"/><text fill="#000000" font-family="sans-serif" font-size="14" lengthAdjust="spacing" textLength="144" x="571.5" y="1333.6504">PackingServiceService</text><rect fill="#E2E2F0" height="31.6094" rx="2.5" ry="2.5" style="stroke:#181818;stroke-width:0.5;" width="43" x="780" y="50"/><text fill="#000000" font-family="sans-serif" font-size="14" lengthAdjust="spacing" textLength="29" x="787" y="71.5332">MDL</text><rect fill="#E2E2F0" height="31.6094" rx="2.5" ry="2.5" style="stroke:#181818;stroke-width:0.5;" width="43" x="780" y="1312.1172"/><text fill="#000000" font-family="sans-serif" font-size="14" lengthAdjust="spacing" textLength="29" x="787" y="1333.6504">MDL</text><rect fill="#E2E2F0" height="31.6094" rx="2.5" ry="2.5" style="stroke:#181818;stroke-width:0.5;" width="102" x="908.5" y="50"/><text fill="#000000" font-family="sans-serif" font-size="14" lengthAdjust="spacing" textLength="88" x="915.5" y="71.5332">PackingRoute</text><rect fill="#E2E2F0" height="31.6094" rx="2.5" ry="2.5" style="stroke:#181818;stroke-width:0.5;" width="102" x="908.5" y="1312.1172"/><text fill="#000000" font-family="sans-serif" font-size="14" lengthAdjust="spacing" textLength="88" x="915.5" y="1333.6504">PackingRoute</text><rect fill="#E2E2F0" height="31.6094" rx="2.5" ry="2.5" style="stroke:#181818;stroke-width:0.5;" width="126" x="1192.5" y="50"/><text fill="#000000" font-family="sans-serif" font-size="14" lengthAdjust="spacing" textLength="112" x="1199.5" y="71.5332">PackingController</text><rect fill="#E2E2F0" height="31.6094" rx="2.5" ry="2.5" style="stroke:#181818;stroke-width:0.5;" width="126" x="1192.5" y="1312.1172"/><text fill="#000000" font-family="sans-serif" font-size="14" lengthAdjust="spacing" textLength="112" x="1199.5" y="1333.6504">PackingController</text><rect fill="#E2E2F0" height="31.6094" rx="2.5" ry="2.5" style="stroke:#181818;stroke-width:0.5;" width="111" x="1335" y="50"/><text fill="#000000" font-family="sans-serif" font-size="14" lengthAdjust="spacing" textLength="97" x="1342" y="71.5332">PackingService</text><rect fill="#E2E2F0" height="31.6094" rx="2.5" ry="2.5" style="stroke:#181818;stroke-width:0.5;" width="111" x="1335" y="1312.1172"/><text fill="#000000" font-family="sans-serif" font-size="14" lengthAdjust="spacing" textLength="97" x="1342" y="1333.6504">PackingService</text><rect fill="#E2E2F0" height="31.6094" rx="2.5" ry="2.5" style="stroke:#181818;stroke-width:0.5;" width="64" x="1466.5" y="1312.1172"/><text fill="#000000" font-family="sans-serif" font-size="14" lengthAdjust="spacing" textLength="50" x="1473.5" y="1333.6504">Packing</text><rect fill="#E2E2F0" height="31.6094" rx="2.5" ry="2.5" style="stroke:#181818;stroke-width:0.5;" width="98" x="1540.5" y="50"/><text fill="#000000" font-family="sans-serif" font-size="14" lengthAdjust="spacing" textLength="84" x="1547.5" y="71.5332">PackingRepo</text><rect fill="#E2E2F0" height="31.6094" rx="2.5" ry="2.5" style="stroke:#181818;stroke-width:0.5;" width="98" x="1540.5" y="1312.1172"/><text fill="#000000" font-family="sans-serif" font-size="14" lengthAdjust="spacing" textLength="84" x="1547.5" y="1333.6504">PackingRepo</text><rect fill="#E2E2F0" height="31.6094" rx="2.5" ry="2.5" style="stroke:#181818;stroke-width:0.5;" width="91" x="1683" y="50"/><text fill="#000000" font-family="sans-serif" font-size="14" lengthAdjust="spacing" textLength="77" x="1690" y="71.5332">PackingMap</text><rect fill="#E2E2F0" height="31.6094" rx="2.5" ry="2.5" style="stroke:#181818;stroke-width:0.5;" width="91" x="1683" y="1312.1172"/><text fill="#000000" font-family="sans-serif" font-size="14" lengthAdjust="spacing" textLength="77" x="1690" y="1333.6504">PackingMap</text><rect fill="#E2E2F0" height="31.6094" rx="2.5" ry="2.5" style="stroke:#181818;stroke-width:0.5;" width="94" x="1784" y="50"/><text fill="#000000" font-family="sans-serif" font-size="14" lengthAdjust="spacing" textLength="80" x="1791" y="71.5332">PackingDTO</text><rect fill="#E2E2F0" height="31.6094" rx="2.5" ry="2.5" style="stroke:#181818;stroke-width:0.5;" width="94" x="1784" y="1312.1172"/><text fill="#000000" font-family="sans-serif" font-size="14" lengthAdjust="spacing" textLength="80" x="1791" y="1333.6504">PackingDTO</text><text fill="#000000" font-family="sans-serif" font-size="14" lengthAdjust="spacing" textLength="61" x="1888" y="79.5332">Database</text><path d="M1903.5,29 C1903.5,19 1921.5,19 1921.5,19 C1921.5,19 1939.5,19 1939.5,29 L1939.5,55 C1939.5,65 1921.5,65 1921.5,65 C1921.5,65 1903.5,65 1903.5,55 L1903.5,29 " fill="#E2E2F0" style="stroke:#181818;stroke-width:1.5;"/><path d="M1903.5,29 C1903.5,39 1921.5,39 1921.5,39 C1921.5,39 1939.5,39 1939.5,29 " fill="none" style="stroke:#181818;stroke-width:1.5;"/><text fill="#000000" font-family="sans-serif" font-size="14" lengthAdjust="spacing" textLength="61" x="1888" y="1326.6504">Database</text><path d="M1903.5,1339.7266 C1903.5,1329.7266 1921.5,1329.7266 1921.5,1329.7266 C1921.5,1329.7266 1939.5,1329.7266 1939.5,1339.7266 L1939.5,1365.7266 C1939.5,1375.7266 1921.5,1375.7266 1921.5,1375.7266 C1921.5,1375.7266 1903.5,1375.7266 1903.5,1365.7266 L1903.5,1339.7266 " fill="#E2E2F0" style="stroke:#181818;stroke-width:1.5;"/><path d="M1903.5,1339.7266 C1903.5,1349.7266 1921.5,1349.7266 1921.5,1349.7266 C1921.5,1349.7266 1939.5,1349.7266 1939.5,1339.7266 " fill="none" style="stroke:#181818;stroke-width:1.5;"/><rect fill="#FFFFFF" height="1189.1563" style="stroke:#181818;stroke-width:1.0;" width="10" x="347.5" y="114.9609"/><rect fill="#FFFFFF" height="1141.8047" style="stroke:#181818;stroke-width:1.0;" width="10" x="352.5" y="153.3125"/><rect fill="#FFFFFF" height="1076.1016" style="stroke:#181818;stroke-width:1.0;" width="10" x="638.5" y="188.6641"/><rect fill="#FFFFFF" height="1015.3984" style="stroke:#181818;stroke-width:1.0;" width="10" x="796.5" y="219.0156"/><rect fill="#FFFFFF" height="954.6953" style="stroke:#181818;stroke-width:1.0;" width="10" x="954.5" y="249.3672"/><rect fill="#FFFFFF" height="890.9922" style="stroke:#181818;stroke-width:1.0;" width="10" x="1250.5" y="282.7188"/><rect fill="#FFFFFF" height="827.2891" style="stroke:#181818;stroke-width:1.0;" width="10" x="1385.5" y="316.0703"/><rect fill="#FFFFFF" height="663.625" style="stroke:#181818;stroke-width:1.0;" width="10" x="1584.5" y="389.0313"/><rect fill="#FFFFFF" height="28" style="stroke:#181818;stroke-width:1.0;" width="10" x="1589.5" y="793.25"/><rect fill="#FFFFFF" height="28" style="stroke:#181818;stroke-width:1.0;" width="10" x="1589.5" y="866.6016"/><rect fill="#FFFFFF" height="30" style="stroke:#181818;stroke-width:1.0;" width="10" x="1723.5" y="419.3828"/><rect fill="#FFFFFF" height="55.7031" style="stroke:#181818;stroke-width:1.0;" width="10" x="1723.5" y="479.7344"/><rect fill="#FFFFFF" height="30" style="stroke:#181818;stroke-width:1.0;" width="10" x="1723.5" y="992.3047"/><rect fill="#FFFFFF" height="30" style="stroke:#181818;stroke-width:1.0;" width="10" x="1826" y="1083.0078"/><rect fill="#FFFFFF" height="30" style="stroke:#181818;stroke-width:1.0;" width="10" x="1916.5" y="931.9531"/><polygon fill="#181818" points="335.5,110.9609,345.5,114.9609,335.5,118.9609,339.5,114.9609" style="stroke:#181818;stroke-width:1.0;"/><line style="stroke:#181818;stroke-width:1.0;" x1="33.5" x2="341.5" y1="114.9609" y2="114.9609"/><text fill="#000000" font-family="sans-serif" font-size="13" font-weight="bold" lengthAdjust="spacing" textLength="7" x="40.5" y="110.1045">1</text><text fill="#000000" font-family="sans-serif" font-size="13" lengthAdjust="spacing" textLength="284" x="51.5" y="110.1045">introduces the data(truckPlate,deliveryId,position)</text><line style="stroke:#181818;stroke-width:1.0;" x1="357.5" x2="404.5" y1="140.3125" y2="140.3125"/><line style="stroke:#181818;stroke-width:1.0;" x1="404.5" x2="404.5" y1="140.3125" y2="153.3125"/><line style="stroke:#181818;stroke-width:1.0;" x1="363.5" x2="404.5" y1="153.3125" y2="153.3125"/><polygon fill="#181818" points="373.5,149.3125,363.5,153.3125,373.5,157.3125,369.5,153.3125" style="stroke:#181818;stroke-width:1.0;"/><text fill="#000000" font-family="sans-serif" font-size="13" font-weight="bold" lengthAdjust="spacing" textLength="7" x="369.5" y="135.4561">2</text><text fill="#000000" font-family="sans-serif" font-size="13" lengthAdjust="spacing" textLength="256" x="380.5" y="135.4561">createPacking(truckPlate,deliveryId,position)</text><polygon fill="#181818" points="626.5,184.6641,636.5,188.6641,626.5,192.6641,630.5,188.6641" style="stroke:#181818;stroke-width:1.0;"/><line style="stroke:#181818;stroke-width:1.0;" x1="362.5" x2="632.5" y1="188.6641" y2="188.6641"/><text fill="#000000" font-family="sans-serif" font-size="13" font-weight="bold" lengthAdjust="spacing" textLength="7" x="369.5" y="183.8076">3</text><text fill="#000000" font-family="sans-serif" font-size="13" lengthAdjust="spacing" textLength="136" x="380.5" y="183.8076">createPacking(packing)</text><polygon fill="#181818" points="784.5,215.0156,794.5,219.0156,784.5,223.0156,788.5,219.0156" style="stroke:#181818;stroke-width:1.0;"/><line style="stroke:#181818;stroke-width:1.0;" x1="648.5" x2="790.5" y1="219.0156" y2="219.0156"/><text fill="#000000" font-family="sans-serif" font-size="13" font-weight="bold" lengthAdjust="spacing" textLength="7" x="655.5" y="214.1592">4</text><text fill="#000000" font-family="sans-serif" font-size="13" lengthAdjust="spacing" textLength="84" x="666.5" y="214.1592">post(/Packing)</text><polygon fill="#181818" points="942.5,245.3672,952.5,249.3672,942.5,253.3672,946.5,249.3672" style="stroke:#181818;stroke-width:1.0;"/><line style="stroke:#181818;stroke-width:1.0;" x1="806.5" x2="948.5" y1="249.3672" y2="249.3672"/><text fill="#000000" font-family="sans-serif" font-size="13" font-weight="bold" lengthAdjust="spacing" textLength="7" x="813.5" y="244.5107">5</text><text fill="#000000" font-family="sans-serif" font-size="13" lengthAdjust="spacing" textLength="25" x="824.5" y="244.5107">post</text><polygon fill="#181818" points="1238.5,278.7188,1248.5,282.7188,1238.5,286.7188,1242.5,282.7188" style="stroke:#181818;stroke-width:1.0;"/><line style="stroke:#181818;stroke-width:1.0;" x1="964.5" x2="1244.5" y1="282.7188" y2="282.7188"/><text fill="#000000" font-family="sans-serif" font-size="13" font-weight="bold" lengthAdjust="spacing" textLength="7" x="971.5" y="277.8623">6</text><text fill="#000000" font-family="sans-serif" font-size="13" lengthAdjust="spacing" textLength="256" x="982.5" y="277.8623">createPacking(truckPlate,deliveryId,position)</text><path d="M539,262.3672 L539,288.3672 L949,288.3672 L949,272.3672 L939,262.3672 L539,262.3672 " fill="#FEFFDD" style="stroke:#181818;stroke-width:0.5;"/><path d="M939,262.3672 L939,272.3672 L949,272.3672 L939,262.3672 " fill="#FEFFDD" style="stroke:#181818;stroke-width:0.5;"/><text fill="#000000" font-family="sans-serif" font-size="13" lengthAdjust="spacing" textLength="389" x="545" y="280.8623">The parameters sent in the method are inserted in the request body</text><polygon fill="#181818" points="1373.5,312.0703,1383.5,316.0703,1373.5,320.0703,1377.5,316.0703" style="stroke:#181818;stroke-width:1.0;"/><line style="stroke:#181818;stroke-width:1.0;" x1="1260.5" x2="1379.5" y1="316.0703" y2="316.0703"/><text fill="#000000" font-family="sans-serif" font-size="13" font-weight="bold" lengthAdjust="spacing" textLength="7" x="1267.5" y="311.2139">7</text><text fill="#000000" font-family="sans-serif" font-size="13" lengthAdjust="spacing" textLength="83" x="1278.5" y="311.2139">createPacking</text><polygon fill="#181818" points="1454.5,342.4219,1464.5,346.4219,1454.5,350.4219,1458.5,346.4219" style="stroke:#181818;stroke-width:1.0;"/><line style="stroke:#181818;stroke-width:1.0;" x1="1395.5" x2="1460.5" y1="346.4219" y2="346.4219"/><text fill="#000000" font-family="sans-serif" font-size="13" font-weight="bold" lengthAdjust="spacing" textLength="7" x="1402.5" y="341.5654">8</text><text fill="#000000" font-family="sans-serif" font-size="13" lengthAdjust="spacing" textLength="36" x="1413.5" y="341.5654">create</text><rect fill="#E2E2F0" height="31.6094" rx="2.5" ry="2.5" style="stroke:#181818;stroke-width:0.5;" width="64" x="1466.5" y="324.0703"/><text fill="#000000" font-family="sans-serif" font-size="14" lengthAdjust="spacing" textLength="50" x="1473.5" y="345.6035">Packing</text><polygon fill="#181818" points="1572.5,385.0313,1582.5,389.0313,1572.5,393.0313,1576.5,389.0313" style="stroke:#181818;stroke-width:1.0;"/><line style="stroke:#181818;stroke-width:1.0;" x1="1395.5" x2="1578.5" y1="389.0313" y2="389.0313"/><text fill="#000000" font-family="sans-serif" font-size="13" font-weight="bold" lengthAdjust="spacing" textLength="7" x="1402.5" y="384.1748">9</text><text fill="#000000" font-family="sans-serif" font-size="13" lengthAdjust="spacing" textLength="26" x="1413.5" y="384.1748">save</text><polygon fill="#181818" points="1711.5,415.3828,1721.5,419.3828,1711.5,423.3828,1715.5,419.3828" style="stroke:#181818;stroke-width:1.0;"/><line style="stroke:#181818;stroke-width:1.0;" x1="1594.5" x2="1717.5" y1="419.3828" y2="419.3828"/><text fill="#000000" font-family="sans-serif" font-size="13" font-weight="bold" lengthAdjust="spacing" textLength="14" x="1601.5" y="414.5264">10</text><text fill="#000000" font-family="sans-serif" font-size="13" lengthAdjust="spacing" textLength="80" x="1619.5" y="414.5264">toPersistence</text><polygon fill="#181818" points="1711.5,475.7344,1721.5,479.7344,1711.5,483.7344,1715.5,479.7344" style="stroke:#181818;stroke-width:1.0;"/><line style="stroke:#181818;stroke-width:1.0;" x1="1594.5" x2="1717.5" y1="479.7344" y2="479.7344"/><text fill="#000000" font-family="sans-serif" font-size="13" font-weight="bold" lengthAdjust="spacing" textLength="14" x="1601.5" y="474.8779">11</text><text fill="#000000" font-family="sans-serif" font-size="13" lengthAdjust="spacing" textLength="39" x="1619.5" y="474.8779">isValid</text><path d="M10,494.7344 L71,494.7344 L71,503.0859 L61,513.0859 L10,513.0859 L10,494.7344 " fill="#EEEEEE" style="stroke:#000000;stroke-width:1.5;"/><rect fill="none" height="261.1641" style="stroke:#000000;stroke-width:1.5;" width="1774" x="10" y="494.7344"/><text fill="#000000" font-family="sans-serif" font-size="13" font-weight="bold" lengthAdjust="spacing" textLength="16" x="25" y="509.2295">alt</text><text fill="#000000" font-family="sans-serif" font-size="11" font-weight="bold" lengthAdjust="spacing" textLength="48" x="86" y="508.1533">[!isValid]</text><polygon fill="#181818" points="1605.5,531.4375,1595.5,535.4375,1605.5,539.4375,1601.5,535.4375" style="stroke:#181818;stroke-width:1.0;"/><line style="stroke:#181818;stroke-width:1.0;stroke-dasharray:2.0,2.0;" x1="1599.5" x2="1727.5" y1="535.4375" y2="535.4375"/><text fill="#000000" font-family="sans-serif" font-size="13" font-weight="bold" lengthAdjust="spacing" textLength="14" x="1611.5" y="530.5811">12</text><text fill="#000000" font-family="sans-serif" font-size="13" lengthAdjust="spacing" textLength="83" x="1629.5" y="530.5811">error message</text><polygon fill="#181818" points="1406.5,561.7891,1396.5,565.7891,1406.5,569.7891,1402.5,565.7891" style="stroke:#181818;stroke-width:1.0;"/><line style="stroke:#181818;stroke-width:1.0;stroke-dasharray:2.0,2.0;" x1="1400.5" x2="1583.5" y1="565.7891" y2="565.7891"/><text fill="#000000" font-family="sans-serif" font-size="13" font-weight="bold" lengthAdjust="spacing" textLength="14" x="1412.5" y="560.9326">13</text><text fill="#000000" font-family="sans-serif" font-size="13" lengthAdjust="spacing" textLength="83" x="1430.5" y="560.9326">error message</text><polygon fill="#181818" points="1271.5,592.1406,1261.5,596.1406,1271.5,600.1406,1267.5,596.1406" style="stroke:#181818;stroke-width:1.0;"/><line style="stroke:#181818;stroke-width:1.0;stroke-dasharray:2.0,2.0;" x1="1265.5" x2="1384.5" y1="596.1406" y2="596.1406"/><text fill="#000000" font-family="sans-serif" font-size="13" font-weight="bold" lengthAdjust="spacing" textLength="14" x="1277.5" y="591.2842">14</text><text fill="#000000" font-family="sans-serif" font-size="13" lengthAdjust="spacing" textLength="83" x="1295.5" y="591.2842">error message</text><polygon fill="#181818" points="975.5,622.4922,965.5,626.4922,975.5,630.4922,971.5,626.4922" style="stroke:#181818;stroke-width:1.0;"/><line style="stroke:#181818;stroke-width:1.0;stroke-dasharray:2.0,2.0;" x1="969.5" x2="1249.5" y1="626.4922" y2="626.4922"/><text fill="#000000" font-family="sans-serif" font-size="13" font-weight="bold" lengthAdjust="spacing" textLength="14" x="981.5" y="621.6357">15</text><text fill="#000000" font-family="sans-serif" font-size="13" lengthAdjust="spacing" textLength="61" x="999.5" y="621.6357">status 400</text><polygon fill="#181818" points="817.5,652.8438,807.5,656.8438,817.5,660.8438,813.5,656.8438" style="stroke:#181818;stroke-width:1.0;"/><line style="stroke:#181818;stroke-width:1.0;stroke-dasharray:2.0,2.0;" x1="811.5" x2="953.5" y1="656.8438" y2="656.8438"/><text fill="#000000" font-family="sans-serif" font-size="13" font-weight="bold" lengthAdjust="spacing" textLength="14" x="823.5" y="651.9873">16</text><text fill="#000000" font-family="sans-serif" font-size="13" lengthAdjust="spacing" textLength="91" x="841.5" y="651.9873">failure message</text><polygon fill="#181818" points="659.5,683.1953,649.5,687.1953,659.5,691.1953,655.5,687.1953" style="stroke:#181818;stroke-width:1.0;"/><line style="stroke:#181818;stroke-width:1.0;stroke-dasharray:2.0,2.0;" x1="653.5" x2="795.5" y1="687.1953" y2="687.1953"/><text fill="#000000" font-family="sans-serif" font-size="13" font-weight="bold" lengthAdjust="spacing" textLength="14" x="665.5" y="682.3389">17</text><text fill="#000000" font-family="sans-serif" font-size="13" lengthAdjust="spacing" textLength="91" x="683.5" y="682.3389">failure message</text><polygon fill="#181818" points="373.5,713.5469,363.5,717.5469,373.5,721.5469,369.5,717.5469" style="stroke:#181818;stroke-width:1.0;"/><line style="stroke:#181818;stroke-width:1.0;stroke-dasharray:2.0,2.0;" x1="367.5" x2="637.5" y1="717.5469" y2="717.5469"/><text fill="#000000" font-family="sans-serif" font-size="13" font-weight="bold" lengthAdjust="spacing" textLength="14" x="379.5" y="712.6904">18</text><text fill="#000000" font-family="sans-serif" font-size="13" lengthAdjust="spacing" textLength="91" x="397.5" y="712.6904">failure message</text><polygon fill="#181818" points="44.5,743.8984,34.5,747.8984,44.5,751.8984,40.5,747.8984" style="stroke:#181818;stroke-width:1.0;"/><line style="stroke:#181818;stroke-width:1.0;stroke-dasharray:2.0,2.0;" x1="38.5" x2="351.5" y1="747.8984" y2="747.8984"/><text fill="#000000" font-family="sans-serif" font-size="13" font-weight="bold" lengthAdjust="spacing" textLength="14" x="50.5" y="743.042">19</text><text fill="#000000" font-family="sans-serif" font-size="13" lengthAdjust="spacing" textLength="136" x="68.5" y="743.042">display failute message</text><line style="stroke:#181818;stroke-width:1.0;" x1="1599.5" x2="1641.5" y1="785.25" y2="785.25"/><line style="stroke:#181818;stroke-width:1.0;" x1="1641.5" x2="1641.5" y1="785.25" y2="798.25"/><line style="stroke:#181818;stroke-width:1.0;" x1="1600.5" x2="1641.5" y1="798.25" y2="798.25"/><polygon fill="#181818" points="1610.5,794.25,1600.5,798.25,1610.5,802.25,1606.5,798.25" style="stroke:#181818;stroke-width:1.0;"/><text fill="#000000" font-family="sans-serif" font-size="13" font-weight="bold" lengthAdjust="spacing" textLength="14" x="1606.5" y="780.3936">20</text><text fill="#000000" font-family="sans-serif" font-size="13" lengthAdjust="spacing" textLength="96" x="1624.5" y="780.3936">truckPlateExists</text><path d="M1445,771.3984 L1445,797.3984 L1579,797.3984 L1579,781.3984 L1569,771.3984 L1445,771.3984 " fill="#FEFFDD" style="stroke:#181818;stroke-width:0.5;"/><path d="M1569,771.3984 L1569,781.3984 L1579,781.3984 L1569,771.3984 " fill="#FEFFDD" style="stroke:#181818;stroke-width:0.5;"/><text fill="#000000" font-family="sans-serif" font-size="13" lengthAdjust="spacing" textLength="113" x="1451" y="789.8936">get request to MDA</text><line style="stroke:#181818;stroke-width:1.0;" x1="1599.5" x2="1641.5" y1="858.6016" y2="858.6016"/><line style="stroke:#181818;stroke-width:1.0;" x1="1641.5" x2="1641.5" y1="858.6016" y2="871.6016"/><line style="stroke:#181818;stroke-width:1.0;" x1="1600.5" x2="1641.5" y1="871.6016" y2="871.6016"/><polygon fill="#181818" points="1610.5,867.6016,1600.5,871.6016,1610.5,875.6016,1606.5,871.6016" style="stroke:#181818;stroke-width:1.0;"/><text fill="#000000" font-family="sans-serif" font-size="13" font-weight="bold" lengthAdjust="spacing" textLength="14" x="1606.5" y="853.7451">21</text><text fill="#000000" font-family="sans-serif" font-size="13" lengthAdjust="spacing" textLength="97" x="1624.5" y="853.7451">delieveryIdExists</text><path d="M1445,844.75 L1445,870.75 L1579,870.75 L1579,854.75 L1569,844.75 L1445,844.75 " fill="#FEFFDD" style="stroke:#181818;stroke-width:0.5;"/><path d="M1569,844.75 L1569,854.75 L1579,854.75 L1569,844.75 " fill="#FEFFDD" style="stroke:#181818;stroke-width:0.5;"/><text fill="#000000" font-family="sans-serif" font-size="13" lengthAdjust="spacing" textLength="113" x="1451" y="863.2451">get request to MDA</text><polygon fill="#181818" points="1904.5,927.9531,1914.5,931.9531,1904.5,935.9531,1908.5,931.9531" style="stroke:#181818;stroke-width:1.0;"/><line style="stroke:#181818;stroke-width:1.0;" x1="1594.5" x2="1910.5" y1="931.9531" y2="931.9531"/><text fill="#000000" font-family="sans-serif" font-size="13" font-weight="bold" lengthAdjust="spacing" textLength="14" x="1601.5" y="927.0967">22</text><text fill="#000000" font-family="sans-serif" font-size="13" lengthAdjust="spacing" textLength="36" x="1619.5" y="927.0967">create</text><polygon fill="#181818" points="1711.5,988.3047,1721.5,992.3047,1711.5,996.3047,1715.5,992.3047" style="stroke:#181818;stroke-width:1.0;"/><line style="stroke:#181818;stroke-width:1.0;" x1="1594.5" x2="1717.5" y1="992.3047" y2="992.3047"/><text fill="#000000" font-family="sans-serif" font-size="13" font-weight="bold" lengthAdjust="spacing" textLength="14" x="1601.5" y="987.4482">23</text><text fill="#000000" font-family="sans-serif" font-size="13" lengthAdjust="spacing" textLength="55" x="1619.5" y="987.4482">toDomain</text><polygon fill="#181818" points="1406.5,1048.6563,1396.5,1052.6563,1406.5,1056.6563,1402.5,1052.6563" style="stroke:#181818;stroke-width:1.0;"/><line style="stroke:#181818;stroke-width:1.0;stroke-dasharray:2.0,2.0;" x1="1400.5" x2="1588.5" y1="1052.6563" y2="1052.6563"/><text fill="#000000" font-family="sans-serif" font-size="13" font-weight="bold" lengthAdjust="spacing" textLength="14" x="1412.5" y="1047.7998">24</text><text fill="#000000" font-family="sans-serif" font-size="13" lengthAdjust="spacing" textLength="4" x="1430.5" y="1047.7998"> </text><polygon fill="#181818" points="1814,1079.0078,1824,1083.0078,1814,1087.0078,1818,1083.0078" style="stroke:#181818;stroke-width:1.0;"/><line style="stroke:#181818;stroke-width:1.0;" x1="1395.5" x2="1820" y1="1083.0078" y2="1083.0078"/><text fill="#000000" font-family="sans-serif" font-size="13" font-weight="bold" lengthAdjust="spacing" textLength="14" x="1402.5" y="1078.1514">25</text><text fill="#000000" font-family="sans-serif" font-size="13" lengthAdjust="spacing" textLength="37" x="1420.5" y="1078.1514">toDTO</text><polygon fill="#181818" points="1271.5,1139.3594,1261.5,1143.3594,1271.5,1147.3594,1267.5,1143.3594" style="stroke:#181818;stroke-width:1.0;"/><line style="stroke:#181818;stroke-width:1.0;stroke-dasharray:2.0,2.0;" x1="1265.5" x2="1389.5" y1="1143.3594" y2="1143.3594"/><text fill="#000000" font-family="sans-serif" font-size="13" font-weight="bold" lengthAdjust="spacing" textLength="14" x="1277.5" y="1138.5029">26</text><text fill="#000000" font-family="sans-serif" font-size="13" lengthAdjust="spacing" textLength="14" x="1295.5" y="1138.5029">ok</text><polygon fill="#181818" points="975.5,1169.7109,965.5,1173.7109,975.5,1177.7109,971.5,1173.7109" style="stroke:#181818;stroke-width:1.0;"/><line style="stroke:#181818;stroke-width:1.0;stroke-dasharray:2.0,2.0;" x1="969.5" x2="1254.5" y1="1173.7109" y2="1173.7109"/><text fill="#000000" font-family="sans-serif" font-size="13" font-weight="bold" lengthAdjust="spacing" textLength="14" x="981.5" y="1168.8545">27</text><text fill="#000000" font-family="sans-serif" font-size="13" lengthAdjust="spacing" textLength="61" x="999.5" y="1168.8545">status 201</text><polygon fill="#181818" points="817.5,1200.0625,807.5,1204.0625,817.5,1208.0625,813.5,1204.0625" style="stroke:#181818;stroke-width:1.0;"/><line style="stroke:#181818;stroke-width:1.0;stroke-dasharray:2.0,2.0;" x1="811.5" x2="958.5" y1="1204.0625" y2="1204.0625"/><text fill="#000000" font-family="sans-serif" font-size="13" font-weight="bold" lengthAdjust="spacing" textLength="14" x="823.5" y="1199.2061">28</text><text fill="#000000" font-family="sans-serif" font-size="13" lengthAdjust="spacing" textLength="106" x="841.5" y="1199.2061">success message</text><polygon fill="#181818" points="659.5,1230.4141,649.5,1234.4141,659.5,1238.4141,655.5,1234.4141" style="stroke:#181818;stroke-width:1.0;"/><line style="stroke:#181818;stroke-width:1.0;stroke-dasharray:2.0,2.0;" x1="653.5" x2="800.5" y1="1234.4141" y2="1234.4141"/><text fill="#000000" font-family="sans-serif" font-size="13" font-weight="bold" lengthAdjust="spacing" textLength="14" x="665.5" y="1229.5576">29</text><text fill="#000000" font-family="sans-serif" font-size="13" lengthAdjust="spacing" textLength="106" x="683.5" y="1229.5576">success message</text><polygon fill="#181818" points="373.5,1260.7656,363.5,1264.7656,373.5,1268.7656,369.5,1264.7656" style="stroke:#181818;stroke-width:1.0;"/><line style="stroke:#181818;stroke-width:1.0;stroke-dasharray:2.0,2.0;" x1="367.5" x2="642.5" y1="1264.7656" y2="1264.7656"/><text fill="#000000" font-family="sans-serif" font-size="13" font-weight="bold" lengthAdjust="spacing" textLength="14" x="379.5" y="1259.9092">30</text><text fill="#000000" font-family="sans-serif" font-size="13" lengthAdjust="spacing" textLength="106" x="397.5" y="1259.9092">success message</text><polygon fill="#181818" points="44.5,1291.1172,34.5,1295.1172,44.5,1299.1172,40.5,1295.1172" style="stroke:#181818;stroke-width:1.0;"/><line style="stroke:#181818;stroke-width:1.0;stroke-dasharray:2.0,2.0;" x1="38.5" x2="346.5" y1="1295.1172" y2="1295.1172"/><text fill="#000000" font-family="sans-serif" font-size="13" font-weight="bold" lengthAdjust="spacing" textLength="14" x="50.5" y="1290.2607">31</text><text fill="#000000" font-family="sans-serif" font-size="13" lengthAdjust="spacing" textLength="151" x="68.5" y="1290.2607">display success message</text><!--MD5=[1ac5836c8fb0f3bf4cc7673f338d173c]
@startuml

autonumber
actor "GL" as GL
participant "PackingComponent" as COMP
participant "PackingServiceService" as SS
participant "MDL" as MDL
participant "PackingRoute" as ROUTE
participant "PackingController" as CTR
participant "PackingService" as SERVICE
participant "Packing" as Path
participant "PackingRepo" as REPO
participant "PackingMap" as MAP
participant "PackingDTO" as DTO
database "Database" as DB

GL-> COMP : introduces the data(truckPlate,deliveryId,position)
activate COMP
COMP -> COMP : createPacking(truckPlate,deliveryId,position)
activate COMP
COMP -> SS : createPacking(packing)
activate SS
SS -> MDL : post(/Packing)
activate MDL
MDL -> ROUTE : post
activate ROUTE
ROUTE -> CTR : createPacking(truckPlate,deliveryId,position)
activate CTR
note left
  The parameters sent in the method are inserted in the request body
end note
CTR -> SERVICE : createPacking
activate SERVICE
SERVICE -> Path** : create
SERVICE -> REPO : save
activate REPO
REPO -> MAP : toPersistence
activate MAP
deactivate MAP
REPO -> MAP : isValid
activate MAP
alt !isValid
MAP - -> REPO: error message
deactivate MAP
SERVICE <- -REPO : error message
CTR <- - SERVICE : error message
ROUTE <- - CTR : status 400
MDL <- - ROUTE :  failure message
SS <- - MDL : failure message
COMP <- - SS : failure message
GL<- - COMP : display failute message
end
REPO -> REPO : truckPlateExists
note left
  get request to MDA
end note
activate REPO
deactivate REPO
REPO -> REPO : delieveryIdExists
note left
  get request to MDA
end note
activate REPO
deactivate REPO
REPO -> DB : create
activate DB
deactivate DB
REPO -> MAP : toDomain
activate MAP
deactivate MAP
REPO - -> SERVICE
deactivate REPO
SERVICE -> DTO : toDTO
activate DTO
deactivate DTO
SERVICE - -> CTR : ok
deactivate SERVICE
CTR - -> ROUTE : status 201
deactivate CTR
ROUTE - -> MDL :  success message
deactivate ROUTE
MDL - -> SS :  success message
deactivate MDL
SS - -> COMP :  success message
deactivate SS
GL<- - COMP : display success message
deactivate COMP
deactivate ROUTE

@enduml

PlantUML version 1.2022.7(Mon Aug 22 18:01:30 WEST 2022)
(GPL source distribution)
Java Runtime: Java(TM) SE Runtime Environment
JVM: Java HotSpot(TM) 64-Bit Server VM
Default Encoding: Cp1252
Language: pt
Country: PT
--></g></svg>