<?xml version="1.0" encoding="UTF-8" standalone="no"?><svg xmlns="http://www.w3.org/2000/svg" xmlns:xlink="http://www.w3.org/1999/xlink" contentStyleType="text/css" height="1212px" preserveAspectRatio="none" style="width:1946px;height:1212px;background:#FFFFFF;" version="1.1" viewBox="0 0 1946 1212" width="1946px" zoomAndPan="magnify"><defs/><g><rect fill="#FFFFFF" height="1006.3984" style="stroke:#181818;stroke-width:1.0;" width="10" x="268.5" y="114.9609"/><rect fill="#FFFFFF" height="968.0469" style="stroke:#181818;stroke-width:1.0;" width="10" x="273.5" y="153.3125"/><rect fill="#FFFFFF" height="886.3438" style="stroke:#181818;stroke-width:1.0;" width="10" x="554.5" y="188.6641"/><rect fill="#FFFFFF" height="107.0547" style="stroke:#181818;stroke-width:1.0;" width="10" x="701.5" y="219.0156"/><rect fill="#FFFFFF" height="795.2891" style="stroke:#181818;stroke-width:1.0;" width="10" x="825" y="249.3672"/><rect fill="#FFFFFF" height="718.2344" style="stroke:#181818;stroke-width:1.0;" width="10" x="1106" y="296.0703"/><rect fill="#FFFFFF" height="627.5313" style="stroke:#181818;stroke-width:1.0;" width="10" x="1241" y="356.4219"/><rect fill="#FFFFFF" height="284.7578" style="stroke:#181818;stroke-width:1.0;" width="10" x="1447.5" y="429.3828"/><rect fill="#FFFFFF" height="28" style="stroke:#181818;stroke-width:1.0;" width="10" x="1452.5" y="467.7344"/><rect fill="#FFFFFF" height="30" style="stroke:#181818;stroke-width:1.0;" width="10" x="1705.5" y="533.0859"/><rect fill="#FFFFFF" height="30" style="stroke:#181818;stroke-width:1.0;" width="10" x="1705.5" y="653.7891"/><rect fill="#FFFFFF" height="30" style="stroke:#181818;stroke-width:1.0;" width="10" x="1813" y="744.4922"/><rect fill="#FFFFFF" height="30" style="stroke:#181818;stroke-width:1.0;" width="10" x="1906" y="593.4375"/><rect fill="none" height="323.8672" style="stroke:#000000;stroke-width:1.5;" width="1304" x="10" y="789.4922"/><line style="stroke:#181818;stroke-width:0.5;stroke-dasharray:5.0,5.0;" x1="33" x2="33" y1="82.6094" y2="1130.3594"/><line style="stroke:#181818;stroke-width:0.5;stroke-dasharray:5.0,5.0;" x1="273.5" x2="273.5" y1="82.6094" y2="1130.3594"/><line style="stroke:#181818;stroke-width:0.5;stroke-dasharray:5.0,5.0;" x1="559.5" x2="559.5" y1="82.6094" y2="1130.3594"/><line style="stroke:#181818;stroke-width:0.5;stroke-dasharray:5.0,5.0;" x1="706.5" x2="706.5" y1="82.6094" y2="1130.3594"/><line style="stroke:#181818;stroke-width:0.5;stroke-dasharray:5.0,5.0;" x1="829.5" x2="829.5" y1="82.6094" y2="1130.3594"/><line style="stroke:#181818;stroke-width:0.5;stroke-dasharray:5.0,5.0;" x1="1110.5" x2="1110.5" y1="82.6094" y2="1130.3594"/><line style="stroke:#181818;stroke-width:0.5;stroke-dasharray:5.0,5.0;" x1="1246" x2="1246" y1="82.6094" y2="1130.3594"/><line style="stroke:#181818;stroke-width:0.5;stroke-dasharray:5.0,5.0;" x1="1356" x2="1356" y1="395.7266" y2="1130.3594"/><line style="stroke:#181818;stroke-width:0.5;stroke-dasharray:5.0,5.0;" x1="1452" x2="1452" y1="82.6094" y2="1130.3594"/><line style="stroke:#181818;stroke-width:0.5;stroke-dasharray:5.0,5.0;" x1="1710.5" x2="1710.5" y1="82.6094" y2="1130.3594"/><line style="stroke:#181818;stroke-width:0.5;stroke-dasharray:5.0,5.0;" x1="1817.5" x2="1817.5" y1="82.6094" y2="1130.3594"/><line style="stroke:#181818;stroke-width:0.5;stroke-dasharray:5.0,5.0;" x1="1910.5" x2="1910.5" y1="82.6094" y2="1130.3594"/><text fill="#000000" font-family="sans-serif" font-size="14" lengthAdjust="spacing" textLength="19" x="21" y="79.5332">GL</text><ellipse cx="33.5" cy="13.5" fill="#E2E2F0" rx="8" ry="8" style="stroke:#181818;stroke-width:0.5;"/><path d="M33.5,21.5 L33.5,48.5 M20.5,29.5 L46.5,29.5 M33.5,48.5 L20.5,63.5 M33.5,48.5 L46.5,63.5 " fill="none" style="stroke:#181818;stroke-width:0.5;"/><text fill="#000000" font-family="sans-serif" font-size="14" lengthAdjust="spacing" textLength="19" x="21" y="1143.8926">GL</text><ellipse cx="33.5" cy="1155.4688" fill="#E2E2F0" rx="8" ry="8" style="stroke:#181818;stroke-width:0.5;"/><path d="M33.5,1163.4688 L33.5,1190.4688 M20.5,1171.4688 L46.5,1171.4688 M33.5,1190.4688 L20.5,1205.4688 M33.5,1190.4688 L46.5,1205.4688 " fill="none" style="stroke:#181818;stroke-width:0.5;"/><rect fill="#E2E2F0" height="31.6094" rx="2.5" ry="2.5" style="stroke:#181818;stroke-width:0.5;" width="180" x="183.5" y="50"/><text fill="#000000" font-family="sans-serif" font-size="14" lengthAdjust="spacing" textLength="166" x="190.5" y="71.5332">RoutePlanningComponent</text><rect fill="#E2E2F0" height="31.6094" rx="2.5" ry="2.5" style="stroke:#181818;stroke-width:0.5;" width="180" x="183.5" y="1129.3594"/><text fill="#000000" font-family="sans-serif" font-size="14" lengthAdjust="spacing" textLength="166" x="190.5" y="1150.8926">RoutePlanningComponent</text><rect fill="#E2E2F0" height="31.6094" rx="2.5" ry="2.5" style="stroke:#181818;stroke-width:0.5;" width="154" x="482.5" y="50"/><text fill="#000000" font-family="sans-serif" font-size="14" lengthAdjust="spacing" textLength="140" x="489.5" y="71.5332">RoutePlanningService</text><rect fill="#E2E2F0" height="31.6094" rx="2.5" ry="2.5" style="stroke:#181818;stroke-width:0.5;" width="154" x="482.5" y="1129.3594"/><text fill="#000000" font-family="sans-serif" font-size="14" lengthAdjust="spacing" textLength="140" x="489.5" y="1150.8926">RoutePlanningService</text><rect fill="#E2E2F0" height="49.2188" rx="2.5" ry="2.5" style="stroke:#181818;stroke-width:0.5;" width="120" x="646.5" y="32.3906"/><text fill="#000000" font-family="sans-serif" font-size="14" lengthAdjust="spacing" textLength="82" x="663.5" y="53.9238">planeamento</text><text fill="#000000" font-family="sans-serif" font-size="14" lengthAdjust="spacing" textLength="102" x="657.5" y="71.5332">PLANEAMENTO</text><rect fill="#E2E2F0" height="49.2188" rx="2.5" ry="2.5" style="stroke:#181818;stroke-width:0.5;" width="120" x="646.5" y="1129.3594"/><text fill="#000000" font-family="sans-serif" font-size="14" lengthAdjust="spacing" textLength="82" x="663.5" y="1150.8926">planeamento</text><text fill="#000000" font-family="sans-serif" font-size="14" lengthAdjust="spacing" textLength="102" x="657.5" y="1168.502">PLANEAMENTO</text><rect fill="#E2E2F0" height="31.6094" rx="2.5" ry="2.5" style="stroke:#181818;stroke-width:0.5;" width="107" x="776.5" y="50"/><text fill="#000000" font-family="sans-serif" font-size="14" lengthAdjust="spacing" textLength="93" x="783.5" y="71.5332">PlanningRoute</text><rect fill="#E2E2F0" height="31.6094" rx="2.5" ry="2.5" style="stroke:#181818;stroke-width:0.5;" width="107" x="776.5" y="1129.3594"/><text fill="#000000" font-family="sans-serif" font-size="14" lengthAdjust="spacing" textLength="93" x="783.5" y="1150.8926">PlanningRoute</text><rect fill="#E2E2F0" height="31.6094" rx="2.5" ry="2.5" style="stroke:#181818;stroke-width:0.5;" width="131" x="1045.5" y="50"/><text fill="#000000" font-family="sans-serif" font-size="14" lengthAdjust="spacing" textLength="117" x="1052.5" y="71.5332">PlanningController</text><rect fill="#E2E2F0" height="31.6094" rx="2.5" ry="2.5" style="stroke:#181818;stroke-width:0.5;" width="131" x="1045.5" y="1129.3594"/><text fill="#000000" font-family="sans-serif" font-size="14" lengthAdjust="spacing" textLength="117" x="1052.5" y="1150.8926">PlanningController</text><rect fill="#E2E2F0" height="31.6094" rx="2.5" ry="2.5" style="stroke:#181818;stroke-width:0.5;" width="116" x="1188" y="50"/><text fill="#000000" font-family="sans-serif" font-size="14" lengthAdjust="spacing" textLength="102" x="1195" y="71.5332">PlanningService</text><rect fill="#E2E2F0" height="31.6094" rx="2.5" ry="2.5" style="stroke:#181818;stroke-width:0.5;" width="116" x="1188" y="1129.3594"/><text fill="#000000" font-family="sans-serif" font-size="14" lengthAdjust="spacing" textLength="102" x="1195" y="1150.8926">PlanningService</text><rect fill="#E2E2F0" height="31.6094" rx="2.5" ry="2.5" style="stroke:#181818;stroke-width:0.5;" width="69" x="1322" y="1129.3594"/><text fill="#000000" font-family="sans-serif" font-size="14" lengthAdjust="spacing" textLength="55" x="1329" y="1150.8926">Planning</text><rect fill="#E2E2F0" height="31.6094" rx="2.5" ry="2.5" style="stroke:#181818;stroke-width:0.5;" width="103" x="1401" y="50"/><text fill="#000000" font-family="sans-serif" font-size="14" lengthAdjust="spacing" textLength="89" x="1408" y="71.5332">PlanningRepo</text><rect fill="#E2E2F0" height="31.6094" rx="2.5" ry="2.5" style="stroke:#181818;stroke-width:0.5;" width="103" x="1401" y="1129.3594"/><text fill="#000000" font-family="sans-serif" font-size="14" lengthAdjust="spacing" textLength="89" x="1408" y="1150.8926">PlanningRepo</text><rect fill="#E2E2F0" height="31.6094" rx="2.5" ry="2.5" style="stroke:#181818;stroke-width:0.5;" width="96" x="1662.5" y="50"/><text fill="#000000" font-family="sans-serif" font-size="14" lengthAdjust="spacing" textLength="82" x="1669.5" y="71.5332">PlanningMap</text><rect fill="#E2E2F0" height="31.6094" rx="2.5" ry="2.5" style="stroke:#181818;stroke-width:0.5;" width="96" x="1662.5" y="1129.3594"/><text fill="#000000" font-family="sans-serif" font-size="14" lengthAdjust="spacing" textLength="82" x="1669.5" y="1150.8926">PlanningMap</text><rect fill="#E2E2F0" height="31.6094" rx="2.5" ry="2.5" style="stroke:#181818;stroke-width:0.5;" width="99" x="1768.5" y="50"/><text fill="#000000" font-family="sans-serif" font-size="14" lengthAdjust="spacing" textLength="85" x="1775.5" y="71.5332">PlanningDTO</text><rect fill="#E2E2F0" height="31.6094" rx="2.5" ry="2.5" style="stroke:#181818;stroke-width:0.5;" width="99" x="1768.5" y="1129.3594"/><text fill="#000000" font-family="sans-serif" font-size="14" lengthAdjust="spacing" textLength="85" x="1775.5" y="1150.8926">PlanningDTO</text><text fill="#000000" font-family="sans-serif" font-size="14" lengthAdjust="spacing" textLength="61" x="1877.5" y="79.5332">Database</text><path d="M1893,29 C1893,19 1911,19 1911,19 C1911,19 1929,19 1929,29 L1929,55 C1929,65 1911,65 1911,65 C1911,65 1893,65 1893,55 L1893,29 " fill="#E2E2F0" style="stroke:#181818;stroke-width:1.5;"/><path d="M1893,29 C1893,39 1911,39 1911,39 C1911,39 1929,39 1929,29 " fill="none" style="stroke:#181818;stroke-width:1.5;"/><text fill="#000000" font-family="sans-serif" font-size="14" lengthAdjust="spacing" textLength="61" x="1877.5" y="1143.8926">Database</text><path d="M1893,1156.9688 C1893,1146.9688 1911,1146.9688 1911,1146.9688 C1911,1146.9688 1929,1146.9688 1929,1156.9688 L1929,1182.9688 C1929,1192.9688 1911,1192.9688 1911,1192.9688 C1911,1192.9688 1893,1192.9688 1893,1182.9688 L1893,1156.9688 " fill="#E2E2F0" style="stroke:#181818;stroke-width:1.5;"/><path d="M1893,1156.9688 C1893,1166.9688 1911,1166.9688 1911,1166.9688 C1911,1166.9688 1929,1166.9688 1929,1156.9688 " fill="none" style="stroke:#181818;stroke-width:1.5;"/><rect fill="#FFFFFF" height="1006.3984" style="stroke:#181818;stroke-width:1.0;" width="10" x="268.5" y="114.9609"/><rect fill="#FFFFFF" height="968.0469" style="stroke:#181818;stroke-width:1.0;" width="10" x="273.5" y="153.3125"/><rect fill="#FFFFFF" height="886.3438" style="stroke:#181818;stroke-width:1.0;" width="10" x="554.5" y="188.6641"/><rect fill="#FFFFFF" height="107.0547" style="stroke:#181818;stroke-width:1.0;" width="10" x="701.5" y="219.0156"/><rect fill="#FFFFFF" height="795.2891" style="stroke:#181818;stroke-width:1.0;" width="10" x="825" y="249.3672"/><rect fill="#FFFFFF" height="718.2344" style="stroke:#181818;stroke-width:1.0;" width="10" x="1106" y="296.0703"/><rect fill="#FFFFFF" height="627.5313" style="stroke:#181818;stroke-width:1.0;" width="10" x="1241" y="356.4219"/><rect fill="#FFFFFF" height="284.7578" style="stroke:#181818;stroke-width:1.0;" width="10" x="1447.5" y="429.3828"/><rect fill="#FFFFFF" height="28" style="stroke:#181818;stroke-width:1.0;" width="10" x="1452.5" y="467.7344"/><rect fill="#FFFFFF" height="30" style="stroke:#181818;stroke-width:1.0;" width="10" x="1705.5" y="533.0859"/><rect fill="#FFFFFF" height="30" style="stroke:#181818;stroke-width:1.0;" width="10" x="1705.5" y="653.7891"/><rect fill="#FFFFFF" height="30" style="stroke:#181818;stroke-width:1.0;" width="10" x="1813" y="744.4922"/><rect fill="#FFFFFF" height="30" style="stroke:#181818;stroke-width:1.0;" width="10" x="1906" y="593.4375"/><polygon fill="#181818" points="256.5,110.9609,266.5,114.9609,256.5,118.9609,260.5,114.9609" style="stroke:#181818;stroke-width:1.0;"/><line style="stroke:#181818;stroke-width:1.0;" x1="33.5" x2="262.5" y1="114.9609" y2="114.9609"/><text fill="#000000" font-family="sans-serif" font-size="13" font-weight="bold" lengthAdjust="spacing" textLength="7" x="40.5" y="110.1045">1</text><text fill="#000000" font-family="sans-serif" font-size="13" lengthAdjust="spacing" textLength="205" x="51.5" y="110.1045">introduces the data(plate,date,type)</text><line style="stroke:#181818;stroke-width:1.0;" x1="278.5" x2="325.5" y1="140.3125" y2="140.3125"/><line style="stroke:#181818;stroke-width:1.0;" x1="325.5" x2="325.5" y1="140.3125" y2="153.3125"/><line style="stroke:#181818;stroke-width:1.0;" x1="284.5" x2="325.5" y1="153.3125" y2="153.3125"/><polygon fill="#181818" points="294.5,149.3125,284.5,153.3125,294.5,157.3125,290.5,153.3125" style="stroke:#181818;stroke-width:1.0;"/><text fill="#000000" font-family="sans-serif" font-size="13" font-weight="bold" lengthAdjust="spacing" textLength="7" x="290.5" y="135.4561">2</text><text fill="#000000" font-family="sans-serif" font-size="13" lengthAdjust="spacing" textLength="214" x="301.5" y="135.4561">createRoutePlanning(plate,date,type)</text><polygon fill="#181818" points="542.5,184.6641,552.5,188.6641,542.5,192.6641,546.5,188.6641" style="stroke:#181818;stroke-width:1.0;"/><line style="stroke:#181818;stroke-width:1.0;" x1="283.5" x2="548.5" y1="188.6641" y2="188.6641"/><text fill="#000000" font-family="sans-serif" font-size="13" font-weight="bold" lengthAdjust="spacing" textLength="7" x="290.5" y="183.8076">3</text><text fill="#000000" font-family="sans-serif" font-size="13" lengthAdjust="spacing" textLength="241" x="301.5" y="183.8076">postPlanByPlateAndDate(plate,date,type)</text><polygon fill="#181818" points="689.5,215.0156,699.5,219.0156,689.5,223.0156,693.5,219.0156" style="stroke:#181818;stroke-width:1.0;"/><line style="stroke:#181818;stroke-width:1.0;" x1="564.5" x2="695.5" y1="219.0156" y2="219.0156"/><text fill="#000000" font-family="sans-serif" font-size="13" font-weight="bold" lengthAdjust="spacing" textLength="7" x="571.5" y="214.1592">4</text><text fill="#000000" font-family="sans-serif" font-size="13" lengthAdjust="spacing" textLength="94" x="582.5" y="214.1592">post(/Plannings)</text><polygon fill="#181818" points="813,245.3672,823,249.3672,813,253.3672,817,249.3672" style="stroke:#181818;stroke-width:1.0;"/><line style="stroke:#181818;stroke-width:1.0;" x1="711.5" x2="819" y1="249.3672" y2="249.3672"/><text fill="#000000" font-family="sans-serif" font-size="13" font-weight="bold" lengthAdjust="spacing" textLength="7" x="718.5" y="244.5107">5</text><text fill="#000000" font-family="sans-serif" font-size="13" lengthAdjust="spacing" textLength="25" x="729.5" y="244.5107">post</text><polygon fill="#181818" points="1094,292.0703,1104,296.0703,1094,300.0703,1098,296.0703" style="stroke:#181818;stroke-width:1.0;"/><line style="stroke:#181818;stroke-width:1.0;" x1="835" x2="1100" y1="296.0703" y2="296.0703"/><text fill="#000000" font-family="sans-serif" font-size="13" font-weight="bold" lengthAdjust="spacing" textLength="7" x="842" y="283.0381">6</text><text fill="#000000" font-family="sans-serif" font-size="13" lengthAdjust="spacing" textLength="160" x="853" y="274.8623">performPlanning(truckPlate,</text><text fill="#000000" font-family="sans-serif" font-size="13" lengthAdjust="spacing" textLength="241" x="853" y="291.2139">planningDate,path,planningTime,heuristic)</text><path d="M410,267.543 L410,293.543 L820,293.543 L820,277.543 L810,267.543 L410,267.543 " fill="#FEFFDD" style="stroke:#181818;stroke-width:0.5;"/><path d="M810,267.543 L810,277.543 L820,277.543 L810,267.543 " fill="#FEFFDD" style="stroke:#181818;stroke-width:0.5;"/><text fill="#000000" font-family="sans-serif" font-size="13" lengthAdjust="spacing" textLength="389" x="416" y="286.0381">The parameters sent in the method are inserted in the request body</text><polygon fill="#181818" points="1229,352.4219,1239,356.4219,1229,360.4219,1233,356.4219" style="stroke:#181818;stroke-width:1.0;"/><line style="stroke:#181818;stroke-width:1.0;" x1="1116" x2="1235" y1="356.4219" y2="356.4219"/><text fill="#000000" font-family="sans-serif" font-size="13" font-weight="bold" lengthAdjust="spacing" textLength="7" x="1123" y="351.5654">7</text><text fill="#000000" font-family="sans-serif" font-size="13" lengthAdjust="spacing" textLength="93" x="1134" y="351.5654">performPlanning</text><polygon fill="#181818" points="1310,382.7734,1320,386.7734,1310,390.7734,1314,386.7734" style="stroke:#181818;stroke-width:1.0;"/><line style="stroke:#181818;stroke-width:1.0;" x1="1251" x2="1316" y1="386.7734" y2="386.7734"/><text fill="#000000" font-family="sans-serif" font-size="13" font-weight="bold" lengthAdjust="spacing" textLength="7" x="1258" y="381.917">8</text><text fill="#000000" font-family="sans-serif" font-size="13" lengthAdjust="spacing" textLength="36" x="1269" y="381.917">create</text><rect fill="#E2E2F0" height="31.6094" rx="2.5" ry="2.5" style="stroke:#181818;stroke-width:0.5;" width="69" x="1322" y="364.4219"/><text fill="#000000" font-family="sans-serif" font-size="14" lengthAdjust="spacing" textLength="55" x="1329" y="385.9551">Planning</text><polygon fill="#181818" points="1435.5,425.3828,1445.5,429.3828,1435.5,433.3828,1439.5,429.3828" style="stroke:#181818;stroke-width:1.0;"/><line style="stroke:#181818;stroke-width:1.0;" x1="1251" x2="1441.5" y1="429.3828" y2="429.3828"/><text fill="#000000" font-family="sans-serif" font-size="13" font-weight="bold" lengthAdjust="spacing" textLength="7" x="1258" y="424.5264">9</text><text fill="#000000" font-family="sans-serif" font-size="13" lengthAdjust="spacing" textLength="26" x="1269" y="424.5264">save</text><line style="stroke:#181818;stroke-width:1.0;" x1="1462.5" x2="1504.5" y1="459.7344" y2="459.7344"/><line style="stroke:#181818;stroke-width:1.0;" x1="1504.5" x2="1504.5" y1="459.7344" y2="472.7344"/><line style="stroke:#181818;stroke-width:1.0;" x1="1463.5" x2="1504.5" y1="472.7344" y2="472.7344"/><polygon fill="#181818" points="1473.5,468.7344,1463.5,472.7344,1473.5,476.7344,1469.5,472.7344" style="stroke:#181818;stroke-width:1.0;"/><text fill="#000000" font-family="sans-serif" font-size="13" font-weight="bold" lengthAdjust="spacing" textLength="14" x="1469.5" y="454.8779">10</text><text fill="#000000" font-family="sans-serif" font-size="13" lengthAdjust="spacing" textLength="216" x="1487.5" y="454.8779">findByPlateAndDate(truckPlate, date)</text><path d="M1239,445.8828 L1239,471.8828 L1442,471.8828 L1442,455.8828 L1432,445.8828 L1239,445.8828 " fill="#FEFFDD" style="stroke:#181818;stroke-width:0.5;"/><path d="M1432,445.8828 L1432,455.8828 L1442,455.8828 L1432,445.8828 " fill="#FEFFDD" style="stroke:#181818;stroke-width:0.5;"/><text fill="#000000" font-family="sans-serif" font-size="13" lengthAdjust="spacing" textLength="182" x="1245" y="464.3779">get request to PLANEAMENTO</text><polygon fill="#181818" points="1693.5,529.0859,1703.5,533.0859,1693.5,537.0859,1697.5,533.0859" style="stroke:#181818;stroke-width:1.0;"/><line style="stroke:#181818;stroke-width:1.0;" x1="1457.5" x2="1699.5" y1="533.0859" y2="533.0859"/><text fill="#000000" font-family="sans-serif" font-size="13" font-weight="bold" lengthAdjust="spacing" textLength="14" x="1464.5" y="528.2295">11</text><text fill="#000000" font-family="sans-serif" font-size="13" lengthAdjust="spacing" textLength="136" x="1482.5" y="528.2295">toPersistence(planning)</text><polygon fill="#181818" points="1894,589.4375,1904,593.4375,1894,597.4375,1898,593.4375" style="stroke:#181818;stroke-width:1.0;"/><line style="stroke:#181818;stroke-width:1.0;" x1="1457.5" x2="1900" y1="593.4375" y2="593.4375"/><text fill="#000000" font-family="sans-serif" font-size="13" font-weight="bold" lengthAdjust="spacing" textLength="14" x="1464.5" y="588.5811">12</text><text fill="#000000" font-family="sans-serif" font-size="13" lengthAdjust="spacing" textLength="36" x="1482.5" y="588.5811">create</text><polygon fill="#181818" points="1693.5,649.7891,1703.5,653.7891,1693.5,657.7891,1697.5,653.7891" style="stroke:#181818;stroke-width:1.0;"/><line style="stroke:#181818;stroke-width:1.0;" x1="1457.5" x2="1699.5" y1="653.7891" y2="653.7891"/><text fill="#000000" font-family="sans-serif" font-size="13" font-weight="bold" lengthAdjust="spacing" textLength="14" x="1464.5" y="648.9326">13</text><text fill="#000000" font-family="sans-serif" font-size="13" lengthAdjust="spacing" textLength="55" x="1482.5" y="648.9326">toDomain</text><polygon fill="#181818" points="1262,710.1406,1252,714.1406,1262,718.1406,1258,714.1406" style="stroke:#181818;stroke-width:1.0;"/><line style="stroke:#181818;stroke-width:1.0;stroke-dasharray:2.0,2.0;" x1="1256" x2="1451.5" y1="714.1406" y2="714.1406"/><text fill="#000000" font-family="sans-serif" font-size="13" font-weight="bold" lengthAdjust="spacing" textLength="14" x="1268" y="709.2842">14</text><text fill="#000000" font-family="sans-serif" font-size="13" lengthAdjust="spacing" textLength="4" x="1286" y="709.2842"> </text><polygon fill="#181818" points="1801,740.4922,1811,744.4922,1801,748.4922,1805,744.4922" style="stroke:#181818;stroke-width:1.0;"/><line style="stroke:#181818;stroke-width:1.0;" x1="1251" x2="1807" y1="744.4922" y2="744.4922"/><text fill="#000000" font-family="sans-serif" font-size="13" font-weight="bold" lengthAdjust="spacing" textLength="14" x="1258" y="739.6357">15</text><text fill="#000000" font-family="sans-serif" font-size="13" lengthAdjust="spacing" textLength="93" x="1276" y="739.6357">toDTO(planning)</text><path d="M10,789.4922 L71,789.4922 L71,797.8438 L61,807.8438 L10,807.8438 L10,789.4922 " fill="#EEEEEE" style="stroke:#000000;stroke-width:1.5;"/><rect fill="none" height="323.8672" style="stroke:#000000;stroke-width:1.5;" width="1304" x="10" y="789.4922"/><text fill="#000000" font-family="sans-serif" font-size="13" font-weight="bold" lengthAdjust="spacing" textLength="16" x="25" y="803.9873">alt</text><text fill="#000000" font-family="sans-serif" font-size="11" font-weight="bold" lengthAdjust="spacing" textLength="55" x="86" y="802.9111">[success]</text><polygon fill="#181818" points="1127,826.1953,1117,830.1953,1127,834.1953,1123,830.1953" style="stroke:#181818;stroke-width:1.0;"/><line style="stroke:#181818;stroke-width:1.0;stroke-dasharray:2.0,2.0;" x1="1121" x2="1240" y1="830.1953" y2="830.1953"/><text fill="#000000" font-family="sans-serif" font-size="13" font-weight="bold" lengthAdjust="spacing" textLength="14" x="1133" y="825.3389">16</text><text fill="#000000" font-family="sans-serif" font-size="13" lengthAdjust="spacing" textLength="14" x="1151" y="825.3389">ok</text><polygon fill="#181818" points="846,856.5469,836,860.5469,846,864.5469,842,860.5469" style="stroke:#181818;stroke-width:1.0;"/><line style="stroke:#181818;stroke-width:1.0;stroke-dasharray:2.0,2.0;" x1="840" x2="1105" y1="860.5469" y2="860.5469"/><text fill="#000000" font-family="sans-serif" font-size="13" font-weight="bold" lengthAdjust="spacing" textLength="14" x="852" y="855.6904">17</text><text fill="#000000" font-family="sans-serif" font-size="13" lengthAdjust="spacing" textLength="61" x="870" y="855.6904">status 201</text><polygon fill="#181818" points="575.5,886.8984,565.5,890.8984,575.5,894.8984,571.5,890.8984" style="stroke:#181818;stroke-width:1.0;"/><line style="stroke:#181818;stroke-width:1.0;stroke-dasharray:2.0,2.0;" x1="569.5" x2="824" y1="890.8984" y2="890.8984"/><text fill="#000000" font-family="sans-serif" font-size="13" font-weight="bold" lengthAdjust="spacing" textLength="14" x="581.5" y="886.042">18</text><text fill="#000000" font-family="sans-serif" font-size="13" lengthAdjust="spacing" textLength="106" x="599.5" y="886.042">operation success</text><polygon fill="#181818" points="294.5,917.25,284.5,921.25,294.5,925.25,290.5,921.25" style="stroke:#181818;stroke-width:1.0;"/><line style="stroke:#181818;stroke-width:1.0;stroke-dasharray:2.0,2.0;" x1="288.5" x2="553.5" y1="921.25" y2="921.25"/><text fill="#000000" font-family="sans-serif" font-size="13" font-weight="bold" lengthAdjust="spacing" textLength="14" x="300.5" y="916.3936">19</text><text fill="#000000" font-family="sans-serif" font-size="13" lengthAdjust="spacing" textLength="106" x="318.5" y="916.3936">operation success</text><polygon fill="#181818" points="44.5,947.6016,34.5,951.6016,44.5,955.6016,40.5,951.6016" style="stroke:#181818;stroke-width:1.0;"/><line style="stroke:#181818;stroke-width:1.0;stroke-dasharray:2.0,2.0;" x1="38.5" x2="272.5" y1="951.6016" y2="951.6016"/><text fill="#000000" font-family="sans-serif" font-size="13" font-weight="bold" lengthAdjust="spacing" textLength="14" x="50.5" y="946.7451">20</text><text fill="#000000" font-family="sans-serif" font-size="13" lengthAdjust="spacing" textLength="158" x="68.5" y="946.7451">displays success message</text><line style="stroke:#000000;stroke-width:1.0;stroke-dasharray:2.0,2.0;" x1="10" x2="1314" y1="960.6016" y2="960.6016"/><polygon fill="#181818" points="1127,979.9531,1117,983.9531,1127,987.9531,1123,983.9531" style="stroke:#181818;stroke-width:1.0;"/><line style="stroke:#181818;stroke-width:1.0;stroke-dasharray:2.0,2.0;" x1="1121" x2="1245" y1="983.9531" y2="983.9531"/><text fill="#000000" font-family="sans-serif" font-size="13" font-weight="bold" lengthAdjust="spacing" textLength="14" x="1133" y="979.0967">21</text><text fill="#000000" font-family="sans-serif" font-size="13" lengthAdjust="spacing" textLength="83" x="1151" y="979.0967">error message</text><polygon fill="#181818" points="846,1010.3047,836,1014.3047,846,1018.3047,842,1014.3047" style="stroke:#181818;stroke-width:1.0;"/><line style="stroke:#181818;stroke-width:1.0;stroke-dasharray:2.0,2.0;" x1="840" x2="1110" y1="1014.3047" y2="1014.3047"/><text fill="#000000" font-family="sans-serif" font-size="13" font-weight="bold" lengthAdjust="spacing" textLength="14" x="852" y="1009.4482">22</text><text fill="#000000" font-family="sans-serif" font-size="13" lengthAdjust="spacing" textLength="61" x="870" y="1009.4482">status 400</text><polygon fill="#181818" points="575.5,1040.6563,565.5,1044.6563,575.5,1048.6563,571.5,1044.6563" style="stroke:#181818;stroke-width:1.0;"/><line style="stroke:#181818;stroke-width:1.0;stroke-dasharray:2.0,2.0;" x1="569.5" x2="829" y1="1044.6563" y2="1044.6563"/><text fill="#000000" font-family="sans-serif" font-size="13" font-weight="bold" lengthAdjust="spacing" textLength="14" x="581.5" y="1039.7998">23</text><text fill="#000000" font-family="sans-serif" font-size="13" lengthAdjust="spacing" textLength="91" x="599.5" y="1039.7998">operation failure</text><polygon fill="#181818" points="294.5,1071.0078,284.5,1075.0078,294.5,1079.0078,290.5,1075.0078" style="stroke:#181818;stroke-width:1.0;"/><line style="stroke:#181818;stroke-width:1.0;stroke-dasharray:2.0,2.0;" x1="288.5" x2="558.5" y1="1075.0078" y2="1075.0078"/><text fill="#000000" font-family="sans-serif" font-size="13" font-weight="bold" lengthAdjust="spacing" textLength="14" x="300.5" y="1070.1514">24</text><text fill="#000000" font-family="sans-serif" font-size="13" lengthAdjust="spacing" textLength="91" x="318.5" y="1070.1514">operation failure</text><polygon fill="#181818" points="44.5,1101.3594,34.5,1105.3594,44.5,1109.3594,40.5,1105.3594" style="stroke:#181818;stroke-width:1.0;"/><line style="stroke:#181818;stroke-width:1.0;stroke-dasharray:2.0,2.0;" x1="38.5" x2="272.5" y1="1105.3594" y2="1105.3594"/><text fill="#000000" font-family="sans-serif" font-size="13" font-weight="bold" lengthAdjust="spacing" textLength="14" x="50.5" y="1100.5029">25</text><text fill="#000000" font-family="sans-serif" font-size="13" lengthAdjust="spacing" textLength="143" x="68.5" y="1100.5029">displays failure message</text><!--MD5=[8963ab8a8e4687bbcf7c06da0f1e5452]
@startuml

autonumber
actor "GL" as GL
participant "RoutePlanningComponent" as COMP
participant "RoutePlanningService" as SS
participant "planeamento \n PLANEAMENTO" as MDL
participant "PlanningRoute" as ROUTE
participant "PlanningController" as CTR
participant "PlanningService" as SERVICE
participant "Planning" as Path
participant "PlanningRepo" as REPO
participant "PlanningMap" as MAP
participant "PlanningDTO" as DTO
database "Database" as DB

GL-> COMP :  introduces the data(plate,date,type)
activate COMP
COMP -> COMP : createRoutePlanning(plate,date,type)
activate COMP
COMP -> SS : postPlanByPlateAndDate(plate,date,type)
activate SS
SS -> MDL: post(/Plannings)
activate MDL
MDL -> ROUTE : post
activate ROUTE
ROUTE -> CTR : performPlanning(truckPlate,\nplanningDate,path,planningTime,heuristic)
activate CTR
note left
  The parameters sent in the method are inserted in the request body
end note
deactivate MDL
CTR -> SERVICE : performPlanning
activate SERVICE
SERVICE -> Path** : create
SERVICE -> REPO : save
activate REPO

REPO -> REPO : findByPlateAndDate(truckPlate, date)
note left
  get request to PLANEAMENTO
end note
activate REPO
deactivate REPO
REPO -> MAP : toPersistence(planning)
activate MAP
deactivate MAP
REPO -> DB : create
activate DB
deactivate DB
REPO -> MAP : toDomain
activate MAP
deactivate MAP
REPO - -> SERVICE
deactivate REPO
SERVICE -> DTO : toDTO(planning)
activate DTO
deactivate DTO
alt success
SERVICE - -> CTR : ok
CTR - -> ROUTE : status 201
ROUTE - ->  SS : operation success
deactivate MDL
SS - -> COMP : operation success
GL<- - COMP : displays success message
else

SERVICE - -> CTR : error message
deactivate SERVICE
CTR - -> ROUTE : status 400
deactivate CTR
ROUTE - ->  SS : operation failure
deactivate ROUTE
deactivate MDL
deactivate CTR
SS - -> COMP : operation failure
deactivate ROUTE
deactivate SS
GL<- - COMP : displays failure message
end

@enduml

PlantUML version 1.2022.7(Mon Aug 22 18:01:30 WEST 2022)
(GPL source distribution)
Java Runtime: Java(TM) SE Runtime Environment
JVM: Java HotSpot(TM) 64-Bit Server VM
Default Encoding: Cp1252
Language: pt
Country: PT
--></g></svg>