<?xml version="1.0" encoding="UTF-8" standalone="no"?><svg xmlns="http://www.w3.org/2000/svg" xmlns:xlink="http://www.w3.org/1999/xlink" contentStyleType="text/css" height="1406px" preserveAspectRatio="none" style="width:1810px;height:1406px;background:#FFFFFF;" version="1.1" viewBox="0 0 1810 1406" width="1810px" zoomAndPan="magnify"><defs/><g><rect fill="#FFFFFF" height="1184.2109" style="stroke:#181818;stroke-width:1.0;" width="10" x="352.5" y="131.3125"/><rect fill="#FFFFFF" height="1113.1563" style="stroke:#181818;stroke-width:1.0;" width="10" x="357.5" y="202.3672"/><rect fill="#FFFFFF" height="1038.4531" style="stroke:#181818;stroke-width:1.0;" width="10" x="572.5" y="237.7188"/><rect fill="#FFFFFF" height="977.75" style="stroke:#181818;stroke-width:1.0;" width="10" x="730.5" y="268.0703"/><rect fill="#FFFFFF" height="917.0469" style="stroke:#181818;stroke-width:1.0;" width="10" x="843.5" y="298.4219"/><rect fill="#FFFFFF" height="814.6406" style="stroke:#181818;stroke-width:1.0;" width="10" x="1165.5" y="345.125"/><rect fill="#FFFFFF" height="753.9375" style="stroke:#181818;stroke-width:1.0;" width="10" x="1300.5" y="375.4766"/><rect fill="#FFFFFF" height="590.2734" style="stroke:#181818;stroke-width:1.0;" width="10" x="1468" y="448.4375"/><rect fill="#FFFFFF" height="28" style="stroke:#181818;stroke-width:1.0;" width="10" x="1473" y="852.6563"/><rect fill="#FFFFFF" height="30" style="stroke:#181818;stroke-width:1.0;" width="10" x="1609" y="478.7891"/><rect fill="#FFFFFF" height="55.7031" style="stroke:#181818;stroke-width:1.0;" width="10" x="1609" y="539.1406"/><rect fill="#FFFFFF" height="30" style="stroke:#181818;stroke-width:1.0;" width="10" x="1609" y="978.3594"/><rect fill="#FFFFFF" height="30" style="stroke:#181818;stroke-width:1.0;" width="10" x="1690.5" y="1069.0625"/><rect fill="#FFFFFF" height="30" style="stroke:#181818;stroke-width:1.0;" width="10" x="1770.5" y="918.0078"/><rect fill="none" height="261.1641" style="stroke:#000000;stroke-width:1.5;" width="1649" x="10" y="554.1406"/><line style="stroke:#181818;stroke-width:0.5;stroke-dasharray:5.0,5.0;" x1="33" x2="33" y1="82.6094" y2="1324.5234"/><line style="stroke:#181818;stroke-width:0.5;stroke-dasharray:5.0,5.0;" x1="357.5" x2="357.5" y1="82.6094" y2="1324.5234"/><line style="stroke:#181818;stroke-width:0.5;stroke-dasharray:5.0,5.0;" x1="577" x2="577" y1="82.6094" y2="1324.5234"/><line style="stroke:#181818;stroke-width:0.5;stroke-dasharray:5.0,5.0;" x1="735" x2="735" y1="82.6094" y2="1324.5234"/><line style="stroke:#181818;stroke-width:0.5;stroke-dasharray:5.0,5.0;" x1="848" x2="848" y1="82.6094" y2="1324.5234"/><line style="stroke:#181818;stroke-width:0.5;stroke-dasharray:5.0,5.0;" x1="1170" x2="1170" y1="82.6094" y2="1324.5234"/><line style="stroke:#181818;stroke-width:0.5;stroke-dasharray:5.0,5.0;" x1="1305.5" x2="1305.5" y1="82.6094" y2="1324.5234"/><line style="stroke:#181818;stroke-width:0.5;stroke-dasharray:5.0,5.0;" x1="1402.5" x2="1402.5" y1="414.7813" y2="1324.5234"/><line style="stroke:#181818;stroke-width:0.5;stroke-dasharray:5.0,5.0;" x1="1472.5" x2="1472.5" y1="82.6094" y2="1324.5234"/><line style="stroke:#181818;stroke-width:0.5;stroke-dasharray:5.0,5.0;" x1="1614" x2="1614" y1="82.6094" y2="1324.5234"/><line style="stroke:#181818;stroke-width:0.5;stroke-dasharray:5.0,5.0;" x1="1695" x2="1695" y1="82.6094" y2="1324.5234"/><line style="stroke:#181818;stroke-width:0.5;stroke-dasharray:5.0,5.0;" x1="1775" x2="1775" y1="82.6094" y2="1324.5234"/><text fill="#000000" font-family="sans-serif" font-size="14" lengthAdjust="spacing" textLength="19" x="21" y="79.5332">GL</text><ellipse cx="33.5" cy="13.5" fill="#E2E2F0" rx="8" ry="8" style="stroke:#181818;stroke-width:0.5;"/><path d="M33.5,21.5 L33.5,48.5 M20.5,29.5 L46.5,29.5 M33.5,48.5 L20.5,63.5 M33.5,48.5 L46.5,63.5 " fill="none" style="stroke:#181818;stroke-width:0.5;"/><text fill="#000000" font-family="sans-serif" font-size="14" lengthAdjust="spacing" textLength="19" x="21" y="1338.0566">GL</text><ellipse cx="33.5" cy="1349.6328" fill="#E2E2F0" rx="8" ry="8" style="stroke:#181818;stroke-width:0.5;"/><path d="M33.5,1357.6328 L33.5,1384.6328 M20.5,1365.6328 L46.5,1365.6328 M33.5,1384.6328 L20.5,1399.6328 M33.5,1384.6328 L46.5,1399.6328 " fill="none" style="stroke:#181818;stroke-width:0.5;"/><rect fill="#E2E2F0" height="31.6094" rx="2.5" ry="2.5" style="stroke:#181818;stroke-width:0.5;" width="116" x="299.5" y="50"/><text fill="#000000" font-family="sans-serif" font-size="14" lengthAdjust="spacing" textLength="102" x="306.5" y="71.5332">PathComponent</text><rect fill="#E2E2F0" height="31.6094" rx="2.5" ry="2.5" style="stroke:#181818;stroke-width:0.5;" width="116" x="299.5" y="1323.5234"/><text fill="#000000" font-family="sans-serif" font-size="14" lengthAdjust="spacing" textLength="102" x="306.5" y="1345.0566">PathComponent</text><rect fill="#E2E2F0" height="31.6094" rx="2.5" ry="2.5" style="stroke:#181818;stroke-width:0.5;" width="137" x="509" y="50"/><text fill="#000000" font-family="sans-serif" font-size="14" lengthAdjust="spacing" textLength="123" x="516" y="71.5332">PathServiceService</text><rect fill="#E2E2F0" height="31.6094" rx="2.5" ry="2.5" style="stroke:#181818;stroke-width:0.5;" width="137" x="509" y="1323.5234"/><text fill="#000000" font-family="sans-serif" font-size="14" lengthAdjust="spacing" textLength="123" x="516" y="1345.0566">PathServiceService</text><rect fill="#E2E2F0" height="31.6094" rx="2.5" ry="2.5" style="stroke:#181818;stroke-width:0.5;" width="43" x="714" y="50"/><text fill="#000000" font-family="sans-serif" font-size="14" lengthAdjust="spacing" textLength="29" x="721" y="71.5332">MDL</text><rect fill="#E2E2F0" height="31.6094" rx="2.5" ry="2.5" style="stroke:#181818;stroke-width:0.5;" width="43" x="714" y="1323.5234"/><text fill="#000000" font-family="sans-serif" font-size="14" lengthAdjust="spacing" textLength="29" x="721" y="1345.0566">MDL</text><rect fill="#E2E2F0" height="31.6094" rx="2.5" ry="2.5" style="stroke:#181818;stroke-width:0.5;" width="81" x="808" y="50"/><text fill="#000000" font-family="sans-serif" font-size="14" lengthAdjust="spacing" textLength="67" x="815" y="71.5332">PathRoute</text><rect fill="#E2E2F0" height="31.6094" rx="2.5" ry="2.5" style="stroke:#181818;stroke-width:0.5;" width="81" x="808" y="1323.5234"/><text fill="#000000" font-family="sans-serif" font-size="14" lengthAdjust="spacing" textLength="67" x="815" y="1345.0566">PathRoute</text><rect fill="#E2E2F0" height="31.6094" rx="2.5" ry="2.5" style="stroke:#181818;stroke-width:0.5;" width="105" x="1118" y="50"/><text fill="#000000" font-family="sans-serif" font-size="14" lengthAdjust="spacing" textLength="91" x="1125" y="71.5332">PathController</text><rect fill="#E2E2F0" height="31.6094" rx="2.5" ry="2.5" style="stroke:#181818;stroke-width:0.5;" width="105" x="1118" y="1323.5234"/><text fill="#000000" font-family="sans-serif" font-size="14" lengthAdjust="spacing" textLength="91" x="1125" y="1345.0566">PathController</text><rect fill="#E2E2F0" height="31.6094" rx="2.5" ry="2.5" style="stroke:#181818;stroke-width:0.5;" width="90" x="1260.5" y="50"/><text fill="#000000" font-family="sans-serif" font-size="14" lengthAdjust="spacing" textLength="76" x="1267.5" y="71.5332">PathService</text><rect fill="#E2E2F0" height="31.6094" rx="2.5" ry="2.5" style="stroke:#181818;stroke-width:0.5;" width="90" x="1260.5" y="1323.5234"/><text fill="#000000" font-family="sans-serif" font-size="14" lengthAdjust="spacing" textLength="76" x="1267.5" y="1345.0566">PathService</text><rect fill="#E2E2F0" height="31.6094" rx="2.5" ry="2.5" style="stroke:#181818;stroke-width:0.5;" width="43" x="1381.5" y="1323.5234"/><text fill="#000000" font-family="sans-serif" font-size="14" lengthAdjust="spacing" textLength="29" x="1388.5" y="1345.0566">Path</text><rect fill="#E2E2F0" height="31.6094" rx="2.5" ry="2.5" style="stroke:#181818;stroke-width:0.5;" width="77" x="1434.5" y="50"/><text fill="#000000" font-family="sans-serif" font-size="14" lengthAdjust="spacing" textLength="63" x="1441.5" y="71.5332">PathRepo</text><rect fill="#E2E2F0" height="31.6094" rx="2.5" ry="2.5" style="stroke:#181818;stroke-width:0.5;" width="77" x="1434.5" y="1323.5234"/><text fill="#000000" font-family="sans-serif" font-size="14" lengthAdjust="spacing" textLength="63" x="1441.5" y="1345.0566">PathRepo</text><rect fill="#E2E2F0" height="31.6094" rx="2.5" ry="2.5" style="stroke:#181818;stroke-width:0.5;" width="70" x="1579" y="50"/><text fill="#000000" font-family="sans-serif" font-size="14" lengthAdjust="spacing" textLength="56" x="1586" y="71.5332">PathMap</text><rect fill="#E2E2F0" height="31.6094" rx="2.5" ry="2.5" style="stroke:#181818;stroke-width:0.5;" width="70" x="1579" y="1323.5234"/><text fill="#000000" font-family="sans-serif" font-size="14" lengthAdjust="spacing" textLength="56" x="1586" y="1345.0566">PathMap</text><rect fill="#E2E2F0" height="31.6094" rx="2.5" ry="2.5" style="stroke:#181818;stroke-width:0.5;" width="73" x="1659" y="50"/><text fill="#000000" font-family="sans-serif" font-size="14" lengthAdjust="spacing" textLength="59" x="1666" y="71.5332">PathDTO</text><rect fill="#E2E2F0" height="31.6094" rx="2.5" ry="2.5" style="stroke:#181818;stroke-width:0.5;" width="73" x="1659" y="1323.5234"/><text fill="#000000" font-family="sans-serif" font-size="14" lengthAdjust="spacing" textLength="59" x="1666" y="1345.0566">PathDTO</text><text fill="#000000" font-family="sans-serif" font-size="14" lengthAdjust="spacing" textLength="61" x="1742" y="79.5332">Database</text><path d="M1757.5,29 C1757.5,19 1775.5,19 1775.5,19 C1775.5,19 1793.5,19 1793.5,29 L1793.5,55 C1793.5,65 1775.5,65 1775.5,65 C1775.5,65 1757.5,65 1757.5,55 L1757.5,29 " fill="#E2E2F0" style="stroke:#181818;stroke-width:1.5;"/><path d="M1757.5,29 C1757.5,39 1775.5,39 1775.5,39 C1775.5,39 1793.5,39 1793.5,29 " fill="none" style="stroke:#181818;stroke-width:1.5;"/><text fill="#000000" font-family="sans-serif" font-size="14" lengthAdjust="spacing" textLength="61" x="1742" y="1338.0566">Database</text><path d="M1757.5,1351.1328 C1757.5,1341.1328 1775.5,1341.1328 1775.5,1341.1328 C1775.5,1341.1328 1793.5,1341.1328 1793.5,1351.1328 L1793.5,1377.1328 C1793.5,1387.1328 1775.5,1387.1328 1775.5,1387.1328 C1775.5,1387.1328 1757.5,1387.1328 1757.5,1377.1328 L1757.5,1351.1328 " fill="#E2E2F0" style="stroke:#181818;stroke-width:1.5;"/><path d="M1757.5,1351.1328 C1757.5,1361.1328 1775.5,1361.1328 1775.5,1361.1328 C1775.5,1361.1328 1793.5,1361.1328 1793.5,1351.1328 " fill="none" style="stroke:#181818;stroke-width:1.5;"/><rect fill="#FFFFFF" height="1184.2109" style="stroke:#181818;stroke-width:1.0;" width="10" x="352.5" y="131.3125"/><rect fill="#FFFFFF" height="1113.1563" style="stroke:#181818;stroke-width:1.0;" width="10" x="357.5" y="202.3672"/><rect fill="#FFFFFF" height="1038.4531" style="stroke:#181818;stroke-width:1.0;" width="10" x="572.5" y="237.7188"/><rect fill="#FFFFFF" height="977.75" style="stroke:#181818;stroke-width:1.0;" width="10" x="730.5" y="268.0703"/><rect fill="#FFFFFF" height="917.0469" style="stroke:#181818;stroke-width:1.0;" width="10" x="843.5" y="298.4219"/><rect fill="#FFFFFF" height="814.6406" style="stroke:#181818;stroke-width:1.0;" width="10" x="1165.5" y="345.125"/><rect fill="#FFFFFF" height="753.9375" style="stroke:#181818;stroke-width:1.0;" width="10" x="1300.5" y="375.4766"/><rect fill="#FFFFFF" height="590.2734" style="stroke:#181818;stroke-width:1.0;" width="10" x="1468" y="448.4375"/><rect fill="#FFFFFF" height="28" style="stroke:#181818;stroke-width:1.0;" width="10" x="1473" y="852.6563"/><rect fill="#FFFFFF" height="30" style="stroke:#181818;stroke-width:1.0;" width="10" x="1609" y="478.7891"/><rect fill="#FFFFFF" height="55.7031" style="stroke:#181818;stroke-width:1.0;" width="10" x="1609" y="539.1406"/><rect fill="#FFFFFF" height="30" style="stroke:#181818;stroke-width:1.0;" width="10" x="1609" y="978.3594"/><rect fill="#FFFFFF" height="30" style="stroke:#181818;stroke-width:1.0;" width="10" x="1690.5" y="1069.0625"/><rect fill="#FFFFFF" height="30" style="stroke:#181818;stroke-width:1.0;" width="10" x="1770.5" y="918.0078"/><polygon fill="#181818" points="340.5,127.3125,350.5,131.3125,340.5,135.3125,344.5,131.3125" style="stroke:#181818;stroke-width:1.0;"/><line style="stroke:#181818;stroke-width:1.0;" x1="33.5" x2="346.5" y1="131.3125" y2="131.3125"/><text fill="#000000" font-family="sans-serif" font-size="13" font-weight="bold" lengthAdjust="spacing" textLength="7" x="40.5" y="118.2803">1</text><text fill="#000000" font-family="sans-serif" font-size="13" lengthAdjust="spacing" textLength="223" x="51.5" y="110.1045">introduces the data(idWarehouseStart,</text><text fill="#000000" font-family="sans-serif" font-size="13" lengthAdjust="spacing" textLength="289" x="51.5" y="126.4561">idWarehouseEnd,distance,time,energy,extraTime)</text><line style="stroke:#181818;stroke-width:1.0;" x1="362.5" x2="409.5" y1="189.3672" y2="189.3672"/><line style="stroke:#181818;stroke-width:1.0;" x1="409.5" x2="409.5" y1="189.3672" y2="202.3672"/><line style="stroke:#181818;stroke-width:1.0;" x1="368.5" x2="409.5" y1="202.3672" y2="202.3672"/><polygon fill="#181818" points="378.5,198.3672,368.5,202.3672,378.5,206.3672,374.5,202.3672" style="stroke:#181818;stroke-width:1.0;"/><text fill="#000000" font-family="sans-serif" font-size="13" font-weight="bold" lengthAdjust="spacing" textLength="7" x="374.5" y="168.1592">2</text><text fill="#000000" font-family="sans-serif" font-size="13" lengthAdjust="spacing" textLength="175" x="385.5" y="151.8076">createPath(idWarehouseStart,</text><text fill="#000000" font-family="sans-serif" font-size="13" lengthAdjust="spacing" textLength="185" x="385.5" y="168.1592">idWarehouseEnd,distance,time,</text><text fill="#000000" font-family="sans-serif" font-size="13" lengthAdjust="spacing" textLength="104" x="385.5" y="184.5107">energy,extraTime)</text><polygon fill="#181818" points="560.5,233.7188,570.5,237.7188,560.5,241.7188,564.5,237.7188" style="stroke:#181818;stroke-width:1.0;"/><line style="stroke:#181818;stroke-width:1.0;" x1="367.5" x2="566.5" y1="237.7188" y2="237.7188"/><text fill="#000000" font-family="sans-serif" font-size="13" font-weight="bold" lengthAdjust="spacing" textLength="7" x="374.5" y="232.8623">3</text><text fill="#000000" font-family="sans-serif" font-size="13" lengthAdjust="spacing" textLength="96" x="385.5" y="232.8623">createPath(path)</text><polygon fill="#181818" points="718.5,264.0703,728.5,268.0703,718.5,272.0703,722.5,268.0703" style="stroke:#181818;stroke-width:1.0;"/><line style="stroke:#181818;stroke-width:1.0;" x1="582.5" x2="724.5" y1="268.0703" y2="268.0703"/><text fill="#000000" font-family="sans-serif" font-size="13" font-weight="bold" lengthAdjust="spacing" textLength="7" x="589.5" y="263.2139">4</text><text fill="#000000" font-family="sans-serif" font-size="13" lengthAdjust="spacing" textLength="71" x="600.5" y="263.2139">post(/Paths)</text><polygon fill="#181818" points="831.5,294.4219,841.5,298.4219,831.5,302.4219,835.5,298.4219" style="stroke:#181818;stroke-width:1.0;"/><line style="stroke:#181818;stroke-width:1.0;" x1="740.5" x2="837.5" y1="298.4219" y2="298.4219"/><text fill="#000000" font-family="sans-serif" font-size="13" font-weight="bold" lengthAdjust="spacing" textLength="7" x="747.5" y="293.5654">5</text><text fill="#000000" font-family="sans-serif" font-size="13" lengthAdjust="spacing" textLength="25" x="758.5" y="293.5654">post</text><polygon fill="#181818" points="1153.5,341.125,1163.5,345.125,1153.5,349.125,1157.5,345.125" style="stroke:#181818;stroke-width:1.0;"/><line style="stroke:#181818;stroke-width:1.0;" x1="853.5" x2="1159.5" y1="345.125" y2="345.125"/><text fill="#000000" font-family="sans-serif" font-size="13" font-weight="bold" lengthAdjust="spacing" textLength="7" x="860.5" y="332.0928">6</text><text fill="#000000" font-family="sans-serif" font-size="13" lengthAdjust="spacing" textLength="282" x="871.5" y="323.917">createPath (idWarehouseStart,idWarehouseEnd,</text><text fill="#000000" font-family="sans-serif" font-size="13" lengthAdjust="spacing" textLength="186" x="871.5" y="340.2686">distance,time,energy,extraTime)</text><path d="M428,316.5977 L428,342.5977 L838,342.5977 L838,326.5977 L828,316.5977 L428,316.5977 " fill="#FEFFDD" style="stroke:#181818;stroke-width:0.5;"/><path d="M828,316.5977 L828,326.5977 L838,326.5977 L828,316.5977 " fill="#FEFFDD" style="stroke:#181818;stroke-width:0.5;"/><text fill="#000000" font-family="sans-serif" font-size="13" lengthAdjust="spacing" textLength="389" x="434" y="335.0928">The parameters sent in the method are inserted in the request body</text><polygon fill="#181818" points="1288.5,371.4766,1298.5,375.4766,1288.5,379.4766,1292.5,375.4766" style="stroke:#181818;stroke-width:1.0;"/><line style="stroke:#181818;stroke-width:1.0;" x1="1175.5" x2="1294.5" y1="375.4766" y2="375.4766"/><text fill="#000000" font-family="sans-serif" font-size="13" font-weight="bold" lengthAdjust="spacing" textLength="7" x="1182.5" y="370.6201">7</text><text fill="#000000" font-family="sans-serif" font-size="13" lengthAdjust="spacing" textLength="63" x="1193.5" y="370.6201">createPath</text><polygon fill="#181818" points="1369.5,401.8281,1379.5,405.8281,1369.5,409.8281,1373.5,405.8281" style="stroke:#181818;stroke-width:1.0;"/><line style="stroke:#181818;stroke-width:1.0;" x1="1310.5" x2="1375.5" y1="405.8281" y2="405.8281"/><text fill="#000000" font-family="sans-serif" font-size="13" font-weight="bold" lengthAdjust="spacing" textLength="7" x="1317.5" y="400.9717">8</text><text fill="#000000" font-family="sans-serif" font-size="13" lengthAdjust="spacing" textLength="36" x="1328.5" y="400.9717">create</text><rect fill="#E2E2F0" height="31.6094" rx="2.5" ry="2.5" style="stroke:#181818;stroke-width:0.5;" width="43" x="1381.5" y="383.4766"/><text fill="#000000" font-family="sans-serif" font-size="14" lengthAdjust="spacing" textLength="29" x="1388.5" y="405.0098">Path</text><polygon fill="#181818" points="1456,444.4375,1466,448.4375,1456,452.4375,1460,448.4375" style="stroke:#181818;stroke-width:1.0;"/><line style="stroke:#181818;stroke-width:1.0;" x1="1310.5" x2="1462" y1="448.4375" y2="448.4375"/><text fill="#000000" font-family="sans-serif" font-size="13" font-weight="bold" lengthAdjust="spacing" textLength="7" x="1317.5" y="443.5811">9</text><text fill="#000000" font-family="sans-serif" font-size="13" lengthAdjust="spacing" textLength="26" x="1328.5" y="443.5811">save</text><polygon fill="#181818" points="1597,474.7891,1607,478.7891,1597,482.7891,1601,478.7891" style="stroke:#181818;stroke-width:1.0;"/><line style="stroke:#181818;stroke-width:1.0;" x1="1478" x2="1603" y1="478.7891" y2="478.7891"/><text fill="#000000" font-family="sans-serif" font-size="13" font-weight="bold" lengthAdjust="spacing" textLength="14" x="1485" y="473.9326">10</text><text fill="#000000" font-family="sans-serif" font-size="13" lengthAdjust="spacing" textLength="80" x="1503" y="473.9326">toPersistence</text><polygon fill="#181818" points="1597,535.1406,1607,539.1406,1597,543.1406,1601,539.1406" style="stroke:#181818;stroke-width:1.0;"/><line style="stroke:#181818;stroke-width:1.0;" x1="1478" x2="1603" y1="539.1406" y2="539.1406"/><text fill="#000000" font-family="sans-serif" font-size="13" font-weight="bold" lengthAdjust="spacing" textLength="14" x="1485" y="534.2842">11</text><text fill="#000000" font-family="sans-serif" font-size="13" lengthAdjust="spacing" textLength="39" x="1503" y="534.2842">isValid</text><path d="M10,554.1406 L71,554.1406 L71,562.4922 L61,572.4922 L10,572.4922 L10,554.1406 " fill="#EEEEEE" style="stroke:#000000;stroke-width:1.5;"/><rect fill="none" height="261.1641" style="stroke:#000000;stroke-width:1.5;" width="1649" x="10" y="554.1406"/><text fill="#000000" font-family="sans-serif" font-size="13" font-weight="bold" lengthAdjust="spacing" textLength="16" x="25" y="568.6357">alt</text><text fill="#000000" font-family="sans-serif" font-size="11" font-weight="bold" lengthAdjust="spacing" textLength="48" x="86" y="567.5596">[!isValid]</text><polygon fill="#181818" points="1489,590.8438,1479,594.8438,1489,598.8438,1485,594.8438" style="stroke:#181818;stroke-width:1.0;"/><line style="stroke:#181818;stroke-width:1.0;stroke-dasharray:2.0,2.0;" x1="1483" x2="1613" y1="594.8438" y2="594.8438"/><text fill="#000000" font-family="sans-serif" font-size="13" font-weight="bold" lengthAdjust="spacing" textLength="14" x="1495" y="589.9873">12</text><text fill="#000000" font-family="sans-serif" font-size="13" lengthAdjust="spacing" textLength="83" x="1513" y="589.9873">error message</text><polygon fill="#181818" points="1321.5,621.1953,1311.5,625.1953,1321.5,629.1953,1317.5,625.1953" style="stroke:#181818;stroke-width:1.0;"/><line style="stroke:#181818;stroke-width:1.0;stroke-dasharray:2.0,2.0;" x1="1315.5" x2="1467" y1="625.1953" y2="625.1953"/><text fill="#000000" font-family="sans-serif" font-size="13" font-weight="bold" lengthAdjust="spacing" textLength="14" x="1327.5" y="620.3389">13</text><text fill="#000000" font-family="sans-serif" font-size="13" lengthAdjust="spacing" textLength="83" x="1345.5" y="620.3389">error message</text><polygon fill="#181818" points="1186.5,651.5469,1176.5,655.5469,1186.5,659.5469,1182.5,655.5469" style="stroke:#181818;stroke-width:1.0;"/><line style="stroke:#181818;stroke-width:1.0;stroke-dasharray:2.0,2.0;" x1="1180.5" x2="1299.5" y1="655.5469" y2="655.5469"/><text fill="#000000" font-family="sans-serif" font-size="13" font-weight="bold" lengthAdjust="spacing" textLength="14" x="1192.5" y="650.6904">14</text><text fill="#000000" font-family="sans-serif" font-size="13" lengthAdjust="spacing" textLength="83" x="1210.5" y="650.6904">error message</text><polygon fill="#181818" points="864.5,681.8984,854.5,685.8984,864.5,689.8984,860.5,685.8984" style="stroke:#181818;stroke-width:1.0;"/><line style="stroke:#181818;stroke-width:1.0;stroke-dasharray:2.0,2.0;" x1="858.5" x2="1164.5" y1="685.8984" y2="685.8984"/><text fill="#000000" font-family="sans-serif" font-size="13" font-weight="bold" lengthAdjust="spacing" textLength="14" x="870.5" y="681.042">15</text><text fill="#000000" font-family="sans-serif" font-size="13" lengthAdjust="spacing" textLength="61" x="888.5" y="681.042">status 400</text><polygon fill="#181818" points="751.5,712.25,741.5,716.25,751.5,720.25,747.5,716.25" style="stroke:#181818;stroke-width:1.0;"/><line style="stroke:#181818;stroke-width:1.0;stroke-dasharray:2.0,2.0;" x1="745.5" x2="842.5" y1="716.25" y2="716.25"/><text fill="#000000" font-family="sans-serif" font-size="13" font-weight="bold" lengthAdjust="spacing" textLength="14" x="757.5" y="711.3936">16</text><text fill="#000000" font-family="sans-serif" font-size="13" lengthAdjust="spacing" textLength="61" x="775.5" y="711.3936">status 400</text><polygon fill="#181818" points="593.5,742.6016,583.5,746.6016,593.5,750.6016,589.5,746.6016" style="stroke:#181818;stroke-width:1.0;"/><line style="stroke:#181818;stroke-width:1.0;stroke-dasharray:2.0,2.0;" x1="587.5" x2="729.5" y1="746.6016" y2="746.6016"/><text fill="#000000" font-family="sans-serif" font-size="13" font-weight="bold" lengthAdjust="spacing" textLength="14" x="599.5" y="741.7451">17</text><text fill="#000000" font-family="sans-serif" font-size="13" lengthAdjust="spacing" textLength="91" x="617.5" y="741.7451">operation failure</text><polygon fill="#181818" points="378.5,772.9531,368.5,776.9531,378.5,780.9531,374.5,776.9531" style="stroke:#181818;stroke-width:1.0;"/><line style="stroke:#181818;stroke-width:1.0;stroke-dasharray:2.0,2.0;" x1="372.5" x2="571.5" y1="776.9531" y2="776.9531"/><text fill="#000000" font-family="sans-serif" font-size="13" font-weight="bold" lengthAdjust="spacing" textLength="14" x="384.5" y="772.0967">18</text><text fill="#000000" font-family="sans-serif" font-size="13" lengthAdjust="spacing" textLength="91" x="402.5" y="772.0967">operation failure</text><polygon fill="#181818" points="44.5,803.3047,34.5,807.3047,44.5,811.3047,40.5,807.3047" style="stroke:#181818;stroke-width:1.0;"/><line style="stroke:#181818;stroke-width:1.0;stroke-dasharray:2.0,2.0;" x1="38.5" x2="356.5" y1="807.3047" y2="807.3047"/><text fill="#000000" font-family="sans-serif" font-size="13" font-weight="bold" lengthAdjust="spacing" textLength="14" x="50.5" y="802.4482">19</text><text fill="#000000" font-family="sans-serif" font-size="13" lengthAdjust="spacing" textLength="136" x="68.5" y="802.4482">display failure message</text><line style="stroke:#181818;stroke-width:1.0;" x1="1483" x2="1525" y1="844.6563" y2="844.6563"/><line style="stroke:#181818;stroke-width:1.0;" x1="1525" x2="1525" y1="844.6563" y2="857.6563"/><line style="stroke:#181818;stroke-width:1.0;" x1="1484" x2="1525" y1="857.6563" y2="857.6563"/><polygon fill="#181818" points="1494,853.6563,1484,857.6563,1494,861.6563,1490,857.6563" style="stroke:#181818;stroke-width:1.0;"/><text fill="#000000" font-family="sans-serif" font-size="13" font-weight="bold" lengthAdjust="spacing" textLength="14" x="1490" y="839.7998">20</text><text fill="#000000" font-family="sans-serif" font-size="13" lengthAdjust="spacing" textLength="99" x="1508" y="839.7998">warehouseExists</text><path d="M1329,830.8047 L1329,856.8047 L1463,856.8047 L1463,840.8047 L1453,830.8047 L1329,830.8047 " fill="#FEFFDD" style="stroke:#181818;stroke-width:0.5;"/><path d="M1453,830.8047 L1453,840.8047 L1463,840.8047 L1453,830.8047 " fill="#FEFFDD" style="stroke:#181818;stroke-width:0.5;"/><text fill="#000000" font-family="sans-serif" font-size="13" lengthAdjust="spacing" textLength="113" x="1335" y="849.2998">get request to MDA</text><polygon fill="#181818" points="1758.5,914.0078,1768.5,918.0078,1758.5,922.0078,1762.5,918.0078" style="stroke:#181818;stroke-width:1.0;"/><line style="stroke:#181818;stroke-width:1.0;" x1="1478" x2="1764.5" y1="918.0078" y2="918.0078"/><text fill="#000000" font-family="sans-serif" font-size="13" font-weight="bold" lengthAdjust="spacing" textLength="14" x="1485" y="913.1514">21</text><text fill="#000000" font-family="sans-serif" font-size="13" lengthAdjust="spacing" textLength="36" x="1503" y="913.1514">create</text><polygon fill="#181818" points="1597,974.3594,1607,978.3594,1597,982.3594,1601,978.3594" style="stroke:#181818;stroke-width:1.0;"/><line style="stroke:#181818;stroke-width:1.0;" x1="1478" x2="1603" y1="978.3594" y2="978.3594"/><text fill="#000000" font-family="sans-serif" font-size="13" font-weight="bold" lengthAdjust="spacing" textLength="14" x="1485" y="973.5029">22</text><text fill="#000000" font-family="sans-serif" font-size="13" lengthAdjust="spacing" textLength="55" x="1503" y="973.5029">toDomain</text><polygon fill="#181818" points="1321.5,1034.7109,1311.5,1038.7109,1321.5,1042.7109,1317.5,1038.7109" style="stroke:#181818;stroke-width:1.0;"/><line style="stroke:#181818;stroke-width:1.0;stroke-dasharray:2.0,2.0;" x1="1315.5" x2="1472" y1="1038.7109" y2="1038.7109"/><text fill="#000000" font-family="sans-serif" font-size="13" font-weight="bold" lengthAdjust="spacing" textLength="14" x="1327.5" y="1033.8545">23</text><text fill="#000000" font-family="sans-serif" font-size="13" lengthAdjust="spacing" textLength="4" x="1345.5" y="1033.8545"> </text><polygon fill="#181818" points="1678.5,1065.0625,1688.5,1069.0625,1678.5,1073.0625,1682.5,1069.0625" style="stroke:#181818;stroke-width:1.0;"/><line style="stroke:#181818;stroke-width:1.0;" x1="1310.5" x2="1684.5" y1="1069.0625" y2="1069.0625"/><text fill="#000000" font-family="sans-serif" font-size="13" font-weight="bold" lengthAdjust="spacing" textLength="14" x="1317.5" y="1064.2061">24</text><text fill="#000000" font-family="sans-serif" font-size="13" lengthAdjust="spacing" textLength="37" x="1335.5" y="1064.2061">toDTO</text><polygon fill="#181818" points="1186.5,1125.4141,1176.5,1129.4141,1186.5,1133.4141,1182.5,1129.4141" style="stroke:#181818;stroke-width:1.0;"/><line style="stroke:#181818;stroke-width:1.0;stroke-dasharray:2.0,2.0;" x1="1180.5" x2="1304.5" y1="1129.4141" y2="1129.4141"/><text fill="#000000" font-family="sans-serif" font-size="13" font-weight="bold" lengthAdjust="spacing" textLength="14" x="1192.5" y="1124.5576">25</text><text fill="#000000" font-family="sans-serif" font-size="13" lengthAdjust="spacing" textLength="14" x="1210.5" y="1124.5576">ok</text><polygon fill="#181818" points="864.5,1155.7656,854.5,1159.7656,864.5,1163.7656,860.5,1159.7656" style="stroke:#181818;stroke-width:1.0;"/><line style="stroke:#181818;stroke-width:1.0;stroke-dasharray:2.0,2.0;" x1="858.5" x2="1169.5" y1="1159.7656" y2="1159.7656"/><text fill="#000000" font-family="sans-serif" font-size="13" font-weight="bold" lengthAdjust="spacing" textLength="14" x="870.5" y="1154.9092">26</text><text fill="#000000" font-family="sans-serif" font-size="13" lengthAdjust="spacing" textLength="61" x="888.5" y="1154.9092">status 200</text><polygon fill="#181818" points="751.5,1211.4688,741.5,1215.4688,751.5,1219.4688,747.5,1215.4688" style="stroke:#181818;stroke-width:1.0;"/><line style="stroke:#181818;stroke-width:1.0;stroke-dasharray:2.0,2.0;" x1="745.5" x2="847.5" y1="1215.4688" y2="1215.4688"/><text fill="#000000" font-family="sans-serif" font-size="13" font-weight="bold" lengthAdjust="spacing" textLength="14" x="757.5" y="1210.6123">27</text><text fill="#000000" font-family="sans-serif" font-size="13" lengthAdjust="spacing" textLength="61" x="775.5" y="1210.6123">status 200</text><polygon fill="#181818" points="593.5,1241.8203,583.5,1245.8203,593.5,1249.8203,589.5,1245.8203" style="stroke:#181818;stroke-width:1.0;"/><line style="stroke:#181818;stroke-width:1.0;stroke-dasharray:2.0,2.0;" x1="587.5" x2="734.5" y1="1245.8203" y2="1245.8203"/><text fill="#000000" font-family="sans-serif" font-size="13" font-weight="bold" lengthAdjust="spacing" textLength="14" x="599.5" y="1240.9639">28</text><text fill="#000000" font-family="sans-serif" font-size="13" lengthAdjust="spacing" textLength="106" x="617.5" y="1240.9639">operation success</text><polygon fill="#181818" points="378.5,1272.1719,368.5,1276.1719,378.5,1280.1719,374.5,1276.1719" style="stroke:#181818;stroke-width:1.0;"/><line style="stroke:#181818;stroke-width:1.0;stroke-dasharray:2.0,2.0;" x1="372.5" x2="576.5" y1="1276.1719" y2="1276.1719"/><text fill="#000000" font-family="sans-serif" font-size="13" font-weight="bold" lengthAdjust="spacing" textLength="14" x="384.5" y="1271.3154">29</text><text fill="#000000" font-family="sans-serif" font-size="13" lengthAdjust="spacing" textLength="106" x="402.5" y="1271.3154">operation success</text><polygon fill="#181818" points="44.5,1302.5234,34.5,1306.5234,44.5,1310.5234,40.5,1306.5234" style="stroke:#181818;stroke-width:1.0;"/><line style="stroke:#181818;stroke-width:1.0;stroke-dasharray:2.0,2.0;" x1="38.5" x2="356.5" y1="1306.5234" y2="1306.5234"/><text fill="#000000" font-family="sans-serif" font-size="13" font-weight="bold" lengthAdjust="spacing" textLength="14" x="50.5" y="1301.667">30</text><text fill="#000000" font-family="sans-serif" font-size="13" lengthAdjust="spacing" textLength="151" x="68.5" y="1301.667">display success message</text><!--MD5=[ba623fdd3153f45b9fe12cd3c66bd829]
@startuml

autonumber
actor "GL" as GL
participant "PathComponent" as COMP
participant "PathServiceService" as SS
participant "MDL" as MDL
participant "PathRoute" as ROUTE
participant "PathController" as CTR
participant "PathService" as SERVICE
participant "Path" as Path
participant "PathRepo" as REPO
participant "PathMap" as MAP
participant "PathDTO" as DTO
database "Database" as DB

GL-> COMP : introduces the data(idWarehouseStart,\nidWarehouseEnd,distance,time,energy,extraTime)
activate COMP
COMP -> COMP : createPath(idWarehouseStart,\nidWarehouseEnd,distance,time,\nenergy,extraTime)
activate COMP
COMP -> SS : createPath(path)
activate SS
SS -> MDL: post(/Paths)
activate MDL
MDL -> ROUTE : post
activate ROUTE
ROUTE -> CTR : createPath (idWarehouseStart,idWarehouseEnd,\ndistance,time,energy,extraTime)
activate CTR
note left
  The parameters sent in the method are inserted in the request body
end note
CTR -> SERVICE : createPath
activate SERVICE
SERVICE -> Path** : create
SERVICE -> REPO : save
activate REPO
REPO -> MAP : toPersistence
activate MAP
deactivate MAP
REPO -> MAP : isValid
activate MAP
alt !isValid
MAP - -> REPO: error message
deactivate MAP
SERVICE <- -REPO : error message
CTR <- - SERVICE : error message
ROUTE <- - CTR : status 400
MDL <- - ROUTE : status 400
SS <- - MDL : operation failure
COMP <- - SS : operation failure
GL<- - COMP : display failure message
end
REPO -> REPO : warehouseExists
note left
  get request to MDA
end note
activate REPO
deactivate REPO
REPO -> DB : create
activate DB
deactivate DB
REPO -> MAP : toDomain
activate MAP
deactivate MAP
REPO - -> SERVICE
deactivate REPO
SERVICE -> DTO : toDTO
activate DTO
deactivate DTO
SERVICE - -> CTR : ok
deactivate SERVICE
CTR - -> ROUTE : status 200
deactivate CTR
alt success
ROUTE - -> MDL : status 200
deactivate ROUTE
MDL - -> SS : operation success
deactivate MDL
COMP <- - SS : operation success
deactivate SS
deactivate MDL
GL<- - COMP : display success message

@enduml

PlantUML version 1.2022.7(Mon Aug 22 18:01:30 WEST 2022)
(GPL source distribution)
Java Runtime: Java(TM) SE Runtime Environment
JVM: Java HotSpot(TM) 64-Bit Server VM
Default Encoding: Cp1252
Language: pt
Country: PT
--></g></svg>