<?xml version="1.0" encoding="UTF-8" standalone="no"?><svg xmlns="http://www.w3.org/2000/svg" xmlns:xlink="http://www.w3.org/1999/xlink" contentStyleType="text/css" height="970px" preserveAspectRatio="none" style="width:1676px;height:970px;background:#FFFFFF;" version="1.1" viewBox="0 0 1676 970" width="1676px" zoomAndPan="magnify"><defs/><g><rect fill="#FFFFFF" height="764.0859" style="stroke:#181818;stroke-width:1.0;" width="10" x="190.5" y="114.9609"/><rect fill="#FFFFFF" height="725.7344" style="stroke:#181818;stroke-width:1.0;" width="10" x="195.5" y="153.3125"/><rect fill="#FFFFFF" height="651.0313" style="stroke:#181818;stroke-width:1.0;" width="10" x="348" y="188.6641"/><rect fill="#FFFFFF" height="590.3281" style="stroke:#181818;stroke-width:1.0;" width="10" x="472" y="219.0156"/><rect fill="#FFFFFF" height="493.9219" style="stroke:#181818;stroke-width:1.0;" width="10" x="554.5" y="285.0703"/><rect fill="#FFFFFF" height="397.5156" style="stroke:#181818;stroke-width:1.0;" width="10" x="678.5" y="351.125"/><rect fill="#FFFFFF" height="336.8125" style="stroke:#181818;stroke-width:1.0;" width="10" x="812.5" y="381.4766"/><rect fill="#FFFFFF" height="191.4063" style="stroke:#181818;stroke-width:1.0;" width="10" x="1048" y="411.8281"/><rect fill="#FFFFFF" height="60.3516" style="stroke:#181818;stroke-width:1.0;" width="10" x="1210" y="442.1797"/><rect fill="#FFFFFF" height="30" style="stroke:#181818;stroke-width:1.0;" width="10" x="1443" y="558.2344"/><rect fill="#FFFFFF" height="30" style="stroke:#181818;stroke-width:1.0;" width="10" x="1443" y="650.9375"/><rect fill="#FFFFFF" height="30" style="stroke:#181818;stroke-width:1.0;" width="10" x="1636" y="472.5313"/><rect fill="none" height="78.7031" style="stroke:#000000;stroke-width:1.5;" width="509.5" x="994" y="517.5313"/><rect fill="none" height="78.7031" style="stroke:#000000;stroke-width:1.5;" width="751.5" x="752" y="610.2344"/><line style="stroke:#181818;stroke-width:0.5;stroke-dasharray:5.0,5.0;" x1="18" x2="18" y1="82.6094" y2="888.0469"/><line style="stroke:#181818;stroke-width:0.5;stroke-dasharray:5.0,5.0;" x1="195" x2="195" y1="82.6094" y2="888.0469"/><line style="stroke:#181818;stroke-width:0.5;stroke-dasharray:5.0,5.0;" x1="353" x2="353" y1="82.6094" y2="888.0469"/><line style="stroke:#181818;stroke-width:0.5;stroke-dasharray:5.0,5.0;" x1="476.5" x2="476.5" y1="82.6094" y2="888.0469"/><line style="stroke:#181818;stroke-width:0.5;stroke-dasharray:5.0,5.0;" x1="559.5" x2="559.5" y1="82.6094" y2="888.0469"/><line style="stroke:#181818;stroke-width:0.5;stroke-dasharray:5.0,5.0;" x1="683.5" x2="683.5" y1="82.6094" y2="888.0469"/><line style="stroke:#181818;stroke-width:0.5;stroke-dasharray:5.0,5.0;" x1="817" x2="817" y1="82.6094" y2="888.0469"/><line style="stroke:#181818;stroke-width:0.5;stroke-dasharray:5.0,5.0;" x1="938" x2="938" y1="82.6094" y2="888.0469"/><line style="stroke:#181818;stroke-width:0.5;stroke-dasharray:5.0,5.0;" x1="1053" x2="1053" y1="82.6094" y2="888.0469"/><line style="stroke:#181818;stroke-width:0.5;stroke-dasharray:5.0,5.0;" x1="1214.5" x2="1214.5" y1="82.6094" y2="888.0469"/><line style="stroke:#181818;stroke-width:0.5;stroke-dasharray:5.0,5.0;" x1="1337.5" x2="1337.5" y1="82.6094" y2="888.0469"/><line style="stroke:#181818;stroke-width:0.5;stroke-dasharray:5.0,5.0;" x1="1447.5" x2="1447.5" y1="82.6094" y2="888.0469"/><line style="stroke:#181818;stroke-width:0.5;stroke-dasharray:5.0,5.0;" x1="1550.5" x2="1550.5" y1="82.6094" y2="888.0469"/><line style="stroke:#181818;stroke-width:0.5;stroke-dasharray:5.0,5.0;" x1="1640.5" x2="1640.5" y1="82.6094" y2="888.0469"/><text fill="#000000" font-family="sans-serif" font-size="14" lengthAdjust="spacing" textLength="19" x="6" y="79.5332">GL</text><ellipse cx="18.5" cy="13.5" fill="#E2E2F0" rx="8" ry="8" style="stroke:#181818;stroke-width:0.5;"/><path d="M18.5,21.5 L18.5,48.5 M5.5,29.5 L31.5,29.5 M18.5,48.5 L5.5,63.5 M18.5,48.5 L31.5,63.5 " fill="none" style="stroke:#181818;stroke-width:0.5;"/><text fill="#000000" font-family="sans-serif" font-size="14" lengthAdjust="spacing" textLength="19" x="6" y="901.5801">GL</text><ellipse cx="18.5" cy="913.1563" fill="#E2E2F0" rx="8" ry="8" style="stroke:#181818;stroke-width:0.5;"/><path d="M18.5,921.1563 L18.5,948.1563 M5.5,929.1563 L31.5,929.1563 M18.5,948.1563 L5.5,963.1563 M18.5,948.1563 L31.5,963.1563 " fill="none" style="stroke:#181818;stroke-width:0.5;"/><rect fill="#E2E2F0" height="31.6094" rx="2.5" ry="2.5" style="stroke:#181818;stroke-width:0.5;" width="137" x="127" y="50"/><text fill="#000000" font-family="sans-serif" font-size="14" lengthAdjust="spacing" textLength="123" x="134" y="71.5332">PackingComponent</text><rect fill="#E2E2F0" height="31.6094" rx="2.5" ry="2.5" style="stroke:#181818;stroke-width:0.5;" width="137" x="127" y="887.0469"/><text fill="#000000" font-family="sans-serif" font-size="14" lengthAdjust="spacing" textLength="123" x="134" y="908.5801">PackingComponent</text><rect fill="#E2E2F0" height="31.6094" rx="2.5" ry="2.5" style="stroke:#181818;stroke-width:0.5;" width="158" x="274" y="50"/><text fill="#000000" font-family="sans-serif" font-size="14" lengthAdjust="spacing" textLength="144" x="281" y="71.5332">PackingServiceService</text><rect fill="#E2E2F0" height="31.6094" rx="2.5" ry="2.5" style="stroke:#181818;stroke-width:0.5;" width="158" x="274" y="887.0469"/><text fill="#000000" font-family="sans-serif" font-size="14" lengthAdjust="spacing" textLength="144" x="281" y="908.5801">PackingServiceService</text><rect fill="#E2E2F0" height="31.6094" rx="2.5" ry="2.5" style="stroke:#181818;stroke-width:0.5;" width="43" x="455.5" y="50"/><text fill="#000000" font-family="sans-serif" font-size="14" lengthAdjust="spacing" textLength="29" x="462.5" y="71.5332">MDL</text><rect fill="#E2E2F0" height="31.6094" rx="2.5" ry="2.5" style="stroke:#181818;stroke-width:0.5;" width="43" x="455.5" y="887.0469"/><text fill="#000000" font-family="sans-serif" font-size="14" lengthAdjust="spacing" textLength="29" x="462.5" y="908.5801">MDL</text><rect fill="#E2E2F0" height="31.6094" rx="2.5" ry="2.5" style="stroke:#181818;stroke-width:0.5;" width="102" x="508.5" y="50"/><text fill="#000000" font-family="sans-serif" font-size="14" lengthAdjust="spacing" textLength="88" x="515.5" y="71.5332">PackingRoute</text><rect fill="#E2E2F0" height="31.6094" rx="2.5" ry="2.5" style="stroke:#181818;stroke-width:0.5;" width="102" x="508.5" y="887.0469"/><text fill="#000000" font-family="sans-serif" font-size="14" lengthAdjust="spacing" textLength="88" x="515.5" y="908.5801">PackingRoute</text><rect fill="#E2E2F0" height="31.6094" rx="2.5" ry="2.5" style="stroke:#181818;stroke-width:0.5;" width="126" x="620.5" y="50"/><text fill="#000000" font-family="sans-serif" font-size="14" lengthAdjust="spacing" textLength="112" x="627.5" y="71.5332">PackingController</text><rect fill="#E2E2F0" height="31.6094" rx="2.5" ry="2.5" style="stroke:#181818;stroke-width:0.5;" width="126" x="620.5" y="887.0469"/><text fill="#000000" font-family="sans-serif" font-size="14" lengthAdjust="spacing" textLength="112" x="627.5" y="908.5801">PackingController</text><rect fill="#E2E2F0" height="31.6094" rx="2.5" ry="2.5" style="stroke:#181818;stroke-width:0.5;" width="111" x="762" y="50"/><text fill="#000000" font-family="sans-serif" font-size="14" lengthAdjust="spacing" textLength="97" x="769" y="71.5332">PackingService</text><rect fill="#E2E2F0" height="31.6094" rx="2.5" ry="2.5" style="stroke:#181818;stroke-width:0.5;" width="111" x="762" y="887.0469"/><text fill="#000000" font-family="sans-serif" font-size="14" lengthAdjust="spacing" textLength="97" x="769" y="908.5801">PackingService</text><rect fill="#E2E2F0" height="31.6094" rx="2.5" ry="2.5" style="stroke:#181818;stroke-width:0.5;" width="111" x="883" y="50"/><text fill="#000000" font-family="sans-serif" font-size="14" lengthAdjust="spacing" textLength="97" x="890" y="71.5332">PackingsResult</text><rect fill="#E2E2F0" height="31.6094" rx="2.5" ry="2.5" style="stroke:#181818;stroke-width:0.5;" width="111" x="883" y="887.0469"/><text fill="#000000" font-family="sans-serif" font-size="14" lengthAdjust="spacing" textLength="97" x="890" y="908.5801">PackingsResult</text><rect fill="#E2E2F0" height="31.6094" rx="2.5" ry="2.5" style="stroke:#181818;stroke-width:0.5;" width="98" x="1004" y="50"/><text fill="#000000" font-family="sans-serif" font-size="14" lengthAdjust="spacing" textLength="84" x="1011" y="71.5332">PackingRepo</text><rect fill="#E2E2F0" height="31.6094" rx="2.5" ry="2.5" style="stroke:#181818;stroke-width:0.5;" width="98" x="1004" y="887.0469"/><text fill="#000000" font-family="sans-serif" font-size="14" lengthAdjust="spacing" textLength="84" x="1011" y="908.5801">PackingRepo</text><rect fill="#E2E2F0" height="31.6094" rx="2.5" ry="2.5" style="stroke:#181818;stroke-width:0.5;" width="115" x="1157.5" y="50"/><text fill="#000000" font-family="sans-serif" font-size="14" lengthAdjust="spacing" textLength="101" x="1164.5" y="71.5332">PackingSchema</text><rect fill="#E2E2F0" height="31.6094" rx="2.5" ry="2.5" style="stroke:#181818;stroke-width:0.5;" width="115" x="1157.5" y="887.0469"/><text fill="#000000" font-family="sans-serif" font-size="14" lengthAdjust="spacing" textLength="101" x="1164.5" y="908.5801">PackingSchema</text><rect fill="#E2E2F0" height="31.6094" rx="2.5" ry="2.5" style="stroke:#181818;stroke-width:0.5;" width="110" x="1282.5" y="50"/><text fill="#000000" font-family="sans-serif" font-size="14" lengthAdjust="spacing" textLength="96" x="1289.5" y="71.5332">PackingRecord</text><rect fill="#E2E2F0" height="31.6094" rx="2.5" ry="2.5" style="stroke:#181818;stroke-width:0.5;" width="110" x="1282.5" y="887.0469"/><text fill="#000000" font-family="sans-serif" font-size="14" lengthAdjust="spacing" textLength="96" x="1289.5" y="908.5801">PackingRecord</text><rect fill="#E2E2F0" height="31.6094" rx="2.5" ry="2.5" style="stroke:#181818;stroke-width:0.5;" width="91" x="1402.5" y="50"/><text fill="#000000" font-family="sans-serif" font-size="14" lengthAdjust="spacing" textLength="77" x="1409.5" y="71.5332">PackingMap</text><rect fill="#E2E2F0" height="31.6094" rx="2.5" ry="2.5" style="stroke:#181818;stroke-width:0.5;" width="91" x="1402.5" y="887.0469"/><text fill="#000000" font-family="sans-serif" font-size="14" lengthAdjust="spacing" textLength="77" x="1409.5" y="908.5801">PackingMap</text><rect fill="#E2E2F0" height="31.6094" rx="2.5" ry="2.5" style="stroke:#181818;stroke-width:0.5;" width="94" x="1503.5" y="50"/><text fill="#000000" font-family="sans-serif" font-size="14" lengthAdjust="spacing" textLength="80" x="1510.5" y="71.5332">PackingDTO</text><rect fill="#E2E2F0" height="31.6094" rx="2.5" ry="2.5" style="stroke:#181818;stroke-width:0.5;" width="94" x="1503.5" y="887.0469"/><text fill="#000000" font-family="sans-serif" font-size="14" lengthAdjust="spacing" textLength="80" x="1510.5" y="908.5801">PackingDTO</text><text fill="#000000" font-family="sans-serif" font-size="14" lengthAdjust="spacing" textLength="61" x="1607.5" y="79.5332">Database</text><path d="M1623,29 C1623,19 1641,19 1641,19 C1641,19 1659,19 1659,29 L1659,55 C1659,65 1641,65 1641,65 C1641,65 1623,65 1623,55 L1623,29 " fill="#E2E2F0" style="stroke:#181818;stroke-width:1.5;"/><path d="M1623,29 C1623,39 1641,39 1641,39 C1641,39 1659,39 1659,29 " fill="none" style="stroke:#181818;stroke-width:1.5;"/><text fill="#000000" font-family="sans-serif" font-size="14" lengthAdjust="spacing" textLength="61" x="1607.5" y="901.5801">Database</text><path d="M1623,914.6563 C1623,904.6563 1641,904.6563 1641,904.6563 C1641,904.6563 1659,904.6563 1659,914.6563 L1659,940.6563 C1659,950.6563 1641,950.6563 1641,950.6563 C1641,950.6563 1623,950.6563 1623,940.6563 L1623,914.6563 " fill="#E2E2F0" style="stroke:#181818;stroke-width:1.5;"/><path d="M1623,914.6563 C1623,924.6563 1641,924.6563 1641,924.6563 C1641,924.6563 1659,924.6563 1659,914.6563 " fill="none" style="stroke:#181818;stroke-width:1.5;"/><rect fill="#FFFFFF" height="764.0859" style="stroke:#181818;stroke-width:1.0;" width="10" x="190.5" y="114.9609"/><rect fill="#FFFFFF" height="725.7344" style="stroke:#181818;stroke-width:1.0;" width="10" x="195.5" y="153.3125"/><rect fill="#FFFFFF" height="651.0313" style="stroke:#181818;stroke-width:1.0;" width="10" x="348" y="188.6641"/><rect fill="#FFFFFF" height="590.3281" style="stroke:#181818;stroke-width:1.0;" width="10" x="472" y="219.0156"/><rect fill="#FFFFFF" height="493.9219" style="stroke:#181818;stroke-width:1.0;" width="10" x="554.5" y="285.0703"/><rect fill="#FFFFFF" height="397.5156" style="stroke:#181818;stroke-width:1.0;" width="10" x="678.5" y="351.125"/><rect fill="#FFFFFF" height="336.8125" style="stroke:#181818;stroke-width:1.0;" width="10" x="812.5" y="381.4766"/><rect fill="#FFFFFF" height="191.4063" style="stroke:#181818;stroke-width:1.0;" width="10" x="1048" y="411.8281"/><rect fill="#FFFFFF" height="60.3516" style="stroke:#181818;stroke-width:1.0;" width="10" x="1210" y="442.1797"/><rect fill="#FFFFFF" height="30" style="stroke:#181818;stroke-width:1.0;" width="10" x="1443" y="558.2344"/><rect fill="#FFFFFF" height="30" style="stroke:#181818;stroke-width:1.0;" width="10" x="1443" y="650.9375"/><rect fill="#FFFFFF" height="30" style="stroke:#181818;stroke-width:1.0;" width="10" x="1636" y="472.5313"/><polygon fill="#181818" points="178.5,110.9609,188.5,114.9609,178.5,118.9609,182.5,114.9609" style="stroke:#181818;stroke-width:1.0;"/><line style="stroke:#181818;stroke-width:1.0;" x1="18.5" x2="184.5" y1="114.9609" y2="114.9609"/><text fill="#000000" font-family="sans-serif" font-size="13" font-weight="bold" lengthAdjust="spacing" textLength="7" x="25.5" y="110.1045">1</text><text fill="#000000" font-family="sans-serif" font-size="13" lengthAdjust="spacing" textLength="142" x="36.5" y="110.1045">asks to list the packings</text><line style="stroke:#181818;stroke-width:1.0;" x1="200.5" x2="247.5" y1="140.3125" y2="140.3125"/><line style="stroke:#181818;stroke-width:1.0;" x1="247.5" x2="247.5" y1="140.3125" y2="153.3125"/><line style="stroke:#181818;stroke-width:1.0;" x1="206.5" x2="247.5" y1="153.3125" y2="153.3125"/><polygon fill="#181818" points="216.5,149.3125,206.5,153.3125,216.5,157.3125,212.5,153.3125" style="stroke:#181818;stroke-width:1.0;"/><text fill="#000000" font-family="sans-serif" font-size="13" font-weight="bold" lengthAdjust="spacing" textLength="7" x="212.5" y="135.4561">2</text><text fill="#000000" font-family="sans-serif" font-size="13" lengthAdjust="spacing" textLength="95" x="223.5" y="135.4561">getAllPackings()</text><polygon fill="#181818" points="336,184.6641,346,188.6641,336,192.6641,340,188.6641" style="stroke:#181818;stroke-width:1.0;"/><line style="stroke:#181818;stroke-width:1.0;" x1="205.5" x2="342" y1="188.6641" y2="188.6641"/><text fill="#000000" font-family="sans-serif" font-size="13" font-weight="bold" lengthAdjust="spacing" textLength="7" x="212.5" y="183.8076">3</text><text fill="#000000" font-family="sans-serif" font-size="13" lengthAdjust="spacing" textLength="95" x="223.5" y="183.8076">getAllPackings()</text><polygon fill="#181818" points="460,215.0156,470,219.0156,460,223.0156,464,219.0156" style="stroke:#181818;stroke-width:1.0;"/><line style="stroke:#181818;stroke-width:1.0;" x1="358" x2="466" y1="219.0156" y2="219.0156"/><text fill="#000000" font-family="sans-serif" font-size="13" font-weight="bold" lengthAdjust="spacing" textLength="7" x="365" y="214.1592">4</text><text fill="#000000" font-family="sans-serif" font-size="13" lengthAdjust="spacing" textLength="84" x="376" y="214.1592">get(/Packings)</text><polygon fill="#181818" points="542.5,281.0703,552.5,285.0703,542.5,289.0703,546.5,285.0703" style="stroke:#181818;stroke-width:1.0;"/><line style="stroke:#181818;stroke-width:1.0;" x1="482" x2="548.5" y1="285.0703" y2="285.0703"/><text fill="#000000" font-family="sans-serif" font-size="13" font-weight="bold" lengthAdjust="spacing" textLength="7" x="489" y="280.2139">5</text><text fill="#000000" font-family="sans-serif" font-size="13" lengthAdjust="spacing" textLength="18" x="500" y="280.2139">get</text><path d="M247,232.0156 L247,323.0156 L467,323.0156 L467,242.0156 L457,232.0156 L247,232.0156 " fill="#FEFFDD" style="stroke:#181818;stroke-width:0.5;"/><path d="M457,232.0156 L457,242.0156 L467,242.0156 L457,232.0156 " fill="#FEFFDD" style="stroke:#181818;stroke-width:0.5;"/><text fill="#000000" font-family="sans-serif" font-size="13" lengthAdjust="spacing" textLength="182" x="253" y="250.5107">Depending on the selected filter</text><text fill="#000000" font-family="sans-serif" font-size="13" lengthAdjust="spacing" textLength="199" x="253" y="266.8623">(DeliveryId, truckPlate) the request</text><text fill="#000000" font-family="sans-serif" font-size="13" lengthAdjust="spacing" textLength="190" x="253" y="283.2139">and the methods will be different,</text><text fill="#000000" font-family="sans-serif" font-size="13" lengthAdjust="spacing" textLength="194" x="253" y="299.5654">changing only the method's name</text><text fill="#000000" font-family="sans-serif" font-size="13" lengthAdjust="spacing" textLength="113" x="253" y="315.917">and implementation</text><polygon fill="#181818" points="666.5,347.125,676.5,351.125,666.5,355.125,670.5,351.125" style="stroke:#181818;stroke-width:1.0;"/><line style="stroke:#181818;stroke-width:1.0;" x1="564.5" x2="672.5" y1="351.125" y2="351.125"/><text fill="#000000" font-family="sans-serif" font-size="13" font-weight="bold" lengthAdjust="spacing" textLength="7" x="571.5" y="346.2686">6</text><text fill="#000000" font-family="sans-serif" font-size="13" lengthAdjust="spacing" textLength="72" x="582.5" y="346.2686">getPackings</text><polygon fill="#181818" points="800.5,377.4766,810.5,381.4766,800.5,385.4766,804.5,381.4766" style="stroke:#181818;stroke-width:1.0;"/><line style="stroke:#181818;stroke-width:1.0;" x1="688.5" x2="806.5" y1="381.4766" y2="381.4766"/><text fill="#000000" font-family="sans-serif" font-size="13" font-weight="bold" lengthAdjust="spacing" textLength="7" x="695.5" y="376.6201">7</text><text fill="#000000" font-family="sans-serif" font-size="13" lengthAdjust="spacing" textLength="72" x="706.5" y="376.6201">getPackings</text><polygon fill="#181818" points="1036,407.8281,1046,411.8281,1036,415.8281,1040,411.8281" style="stroke:#181818;stroke-width:1.0;"/><line style="stroke:#181818;stroke-width:1.0;" x1="822.5" x2="1042" y1="411.8281" y2="411.8281"/><text fill="#000000" font-family="sans-serif" font-size="13" font-weight="bold" lengthAdjust="spacing" textLength="7" x="829.5" y="406.9717">8</text><text fill="#000000" font-family="sans-serif" font-size="13" lengthAdjust="spacing" textLength="133" x="840.5" y="406.9717">packingResult = findAll</text><polygon fill="#181818" points="1198,438.1797,1208,442.1797,1198,446.1797,1202,442.1797" style="stroke:#181818;stroke-width:1.0;"/><line style="stroke:#181818;stroke-width:1.0;" x1="1058" x2="1204" y1="442.1797" y2="442.1797"/><text fill="#000000" font-family="sans-serif" font-size="13" font-weight="bold" lengthAdjust="spacing" textLength="7" x="1065" y="437.3232">9</text><text fill="#000000" font-family="sans-serif" font-size="13" lengthAdjust="spacing" textLength="122" x="1076" y="437.3232">packingRecord = find</text><polygon fill="#181818" points="1624,468.5313,1634,472.5313,1624,476.5313,1628,472.5313" style="stroke:#181818;stroke-width:1.0;"/><line style="stroke:#181818;stroke-width:1.0;" x1="1220" x2="1630" y1="472.5313" y2="472.5313"/><text fill="#000000" font-family="sans-serif" font-size="13" font-weight="bold" lengthAdjust="spacing" textLength="14" x="1227" y="467.6748">10</text><text fill="#000000" font-family="sans-serif" font-size="13" lengthAdjust="spacing" textLength="20" x="1245" y="467.6748">find</text><path d="M994,517.5313 L1067,517.5313 L1067,525.8828 L1057,535.8828 L994,535.8828 L994,517.5313 " fill="#EEEEEE" style="stroke:#000000;stroke-width:1.5;"/><rect fill="none" height="78.7031" style="stroke:#000000;stroke-width:1.5;" width="509.5" x="994" y="517.5313"/><text fill="#000000" font-family="sans-serif" font-size="13" font-weight="bold" lengthAdjust="spacing" textLength="28" x="1009" y="532.0264">loop</text><text fill="#000000" font-family="sans-serif" font-size="11" font-weight="bold" lengthAdjust="spacing" textLength="145" x="1082" y="530.9502">[element : packingRecord]</text><polygon fill="#181818" points="1431,554.2344,1441,558.2344,1431,562.2344,1435,558.2344" style="stroke:#181818;stroke-width:1.0;"/><line style="stroke:#181818;stroke-width:1.0;" x1="1058" x2="1437" y1="558.2344" y2="558.2344"/><text fill="#000000" font-family="sans-serif" font-size="13" font-weight="bold" lengthAdjust="spacing" textLength="14" x="1065" y="553.3779">11</text><text fill="#000000" font-family="sans-serif" font-size="13" lengthAdjust="spacing" textLength="55" x="1083" y="553.3779">toDomain</text><path d="M752,610.2344 L825,610.2344 L825,618.5859 L815,628.5859 L752,628.5859 L752,610.2344 " fill="#EEEEEE" style="stroke:#000000;stroke-width:1.5;"/><rect fill="none" height="78.7031" style="stroke:#000000;stroke-width:1.5;" width="751.5" x="752" y="610.2344"/><text fill="#000000" font-family="sans-serif" font-size="13" font-weight="bold" lengthAdjust="spacing" textLength="28" x="767" y="624.7295">loop</text><text fill="#000000" font-family="sans-serif" font-size="11" font-weight="bold" lengthAdjust="spacing" textLength="121" x="840" y="623.6533">[linha : packingResult]</text><polygon fill="#181818" points="1431,646.9375,1441,650.9375,1431,654.9375,1435,650.9375" style="stroke:#181818;stroke-width:1.0;"/><line style="stroke:#181818;stroke-width:1.0;" x1="822.5" x2="1437" y1="650.9375" y2="650.9375"/><text fill="#000000" font-family="sans-serif" font-size="13" font-weight="bold" lengthAdjust="spacing" textLength="14" x="829.5" y="646.0811">12</text><text fill="#000000" font-family="sans-serif" font-size="13" lengthAdjust="spacing" textLength="37" x="847.5" y="646.0811">toDTO</text><polygon fill="#181818" points="699.5,714.2891,689.5,718.2891,699.5,722.2891,695.5,718.2891" style="stroke:#181818;stroke-width:1.0;"/><line style="stroke:#181818;stroke-width:1.0;stroke-dasharray:2.0,2.0;" x1="693.5" x2="816.5" y1="718.2891" y2="718.2891"/><text fill="#000000" font-family="sans-serif" font-size="13" font-weight="bold" lengthAdjust="spacing" textLength="14" x="705.5" y="713.4326">13</text><text fill="#000000" font-family="sans-serif" font-size="13" lengthAdjust="spacing" textLength="82" x="723.5" y="713.4326">packingResult</text><polygon fill="#181818" points="575.5,744.6406,565.5,748.6406,575.5,752.6406,571.5,748.6406" style="stroke:#181818;stroke-width:1.0;"/><line style="stroke:#181818;stroke-width:1.0;stroke-dasharray:2.0,2.0;" x1="569.5" x2="682.5" y1="748.6406" y2="748.6406"/><text fill="#000000" font-family="sans-serif" font-size="13" font-weight="bold" lengthAdjust="spacing" textLength="14" x="581.5" y="743.7842">14</text><text fill="#000000" font-family="sans-serif" font-size="13" lengthAdjust="spacing" textLength="61" x="599.5" y="743.7842">status 200</text><polygon fill="#181818" points="493,774.9922,483,778.9922,493,782.9922,489,778.9922" style="stroke:#181818;stroke-width:1.0;"/><line style="stroke:#181818;stroke-width:1.0;stroke-dasharray:2.0,2.0;" x1="487" x2="558.5" y1="778.9922" y2="778.9922"/><text fill="#000000" font-family="sans-serif" font-size="13" font-weight="bold" lengthAdjust="spacing" textLength="14" x="499" y="774.1357">15</text><text fill="#000000" font-family="sans-serif" font-size="13" lengthAdjust="spacing" textLength="25" x="517" y="774.1357">data</text><polygon fill="#181818" points="369,805.3438,359,809.3438,369,813.3438,365,809.3438" style="stroke:#181818;stroke-width:1.0;"/><line style="stroke:#181818;stroke-width:1.0;stroke-dasharray:2.0,2.0;" x1="363" x2="476" y1="809.3438" y2="809.3438"/><text fill="#000000" font-family="sans-serif" font-size="13" font-weight="bold" lengthAdjust="spacing" textLength="14" x="375" y="804.4873">16</text><text fill="#000000" font-family="sans-serif" font-size="13" lengthAdjust="spacing" textLength="25" x="393" y="804.4873">data</text><polygon fill="#181818" points="216.5,835.6953,206.5,839.6953,216.5,843.6953,212.5,839.6953" style="stroke:#181818;stroke-width:1.0;"/><line style="stroke:#181818;stroke-width:1.0;stroke-dasharray:2.0,2.0;" x1="210.5" x2="352" y1="839.6953" y2="839.6953"/><text fill="#000000" font-family="sans-serif" font-size="13" font-weight="bold" lengthAdjust="spacing" textLength="14" x="222.5" y="834.8389">17</text><text fill="#000000" font-family="sans-serif" font-size="13" lengthAdjust="spacing" textLength="25" x="240.5" y="834.8389">data</text><polygon fill="#181818" points="29.5,866.0469,19.5,870.0469,29.5,874.0469,25.5,870.0469" style="stroke:#181818;stroke-width:1.0;"/><line style="stroke:#181818;stroke-width:1.0;stroke-dasharray:2.0,2.0;" x1="23.5" x2="194.5" y1="870.0469" y2="870.0469"/><text fill="#000000" font-family="sans-serif" font-size="13" font-weight="bold" lengthAdjust="spacing" textLength="14" x="35.5" y="865.1904">18</text><text fill="#000000" font-family="sans-serif" font-size="13" lengthAdjust="spacing" textLength="77" x="53.5" y="865.1904">displays data</text><!--MD5=[c29e0b477a24f2eae7776229bc35b153]
@startuml

autonumber
actor "GL" as GL
participant "PackingComponent" as COMP
participant "PackingServiceService" as SS
participant "MDL" as MDL
participant "PackingRoute" as ROUTE
participant "PackingController" as CTR
participant "PackingService" as SERVICE
participant "PackingsResult" as Result
participant "PackingRepo" as REPO
participant "PackingSchema" as SCHEMA
participant "PackingRecord" as RECORD
participant "PackingMap" as MAP
participant "PackingDTO" as DTO
database "Database" as DB

GL-> COMP : asks to list the packings
activate COMP
COMP -> COMP : getAllPackings()
activate COMP
COMP -> SS : getAllPackings()
activate SS
SS -> MDL : get(/Packings)
activate MDL
MDL -> ROUTE : get
activate ROUTE
note left
  Depending on the selected filter 
  (DeliveryId, truckPlate) the request
  and the methods will be different, 
  changing only the method's name
  and implementation
end note
ROUTE -> CTR : getPackings
activate CTR
CTR -> SERVICE : getPackings
activate SERVICE
SERVICE -> REPO : packingResult = findAll
activate REPO
REPO -> SCHEMA : packingRecord = find
activate SCHEMA
SCHEMA -> DB : find
activate DB
deactivate DB
deactivate SCHEMA
loop element : packingRecord
REPO -> MAP : toDomain
activate MAP
deactivate MAP
end
deactivate REPO

loop linha : packingResult
SERVICE -> MAP : toDTO
activate MAP
deactivate MAP
end
SERVICE - -> CTR : packingResult
deactivate SERVICE
CTR - -> ROUTE : status 200
deactivate CTR
ROUTE - -> MDL : data
deactivate ROUTE
MDL - -> SS : data
deactivate MDL
SS - -> COMP : data
deactivate SS
deactivate MDL
GL<- - COMP : displays data
deactivate ROUTE

@enduml

PlantUML version 1.2022.7(Mon Aug 22 18:01:30 WEST 2022)
(GPL source distribution)
Java Runtime: Java(TM) SE Runtime Environment
JVM: Java HotSpot(TM) 64-Bit Server VM
Default Encoding: Cp1252
Language: pt
Country: PT
--></g></svg>