<?xml version="1.0" encoding="UTF-8" standalone="no"?><svg xmlns="http://www.w3.org/2000/svg" xmlns:xlink="http://www.w3.org/1999/xlink" contentStyleType="text/css" height="898px" preserveAspectRatio="none" style="width:1938px;height:898px;background:#FFFFFF;" version="1.1" viewBox="0 0 1938 898" width="1938px" zoomAndPan="magnify"><defs/><g><rect fill="#FFFFFF" height="692.6797" style="stroke:#181818;stroke-width:1.0;" width="10" x="226.5" y="114.9609"/><rect fill="#FFFFFF" height="654.3281" style="stroke:#181818;stroke-width:1.0;" width="10" x="231.5" y="153.3125"/><rect fill="#FFFFFF" height="579.625" style="stroke:#181818;stroke-width:1.0;" width="10" x="389" y="188.6641"/><rect fill="#FFFFFF" height="518.9219" style="stroke:#181818;stroke-width:1.0;" width="10" x="540.5" y="219.0156"/><rect fill="#FFFFFF" height="458.2188" style="stroke:#181818;stroke-width:1.0;" width="10" x="680.5" y="249.3672"/><rect fill="#FFFFFF" height="397.5156" style="stroke:#181818;stroke-width:1.0;" width="10" x="809.5" y="279.7188"/><rect fill="#FFFFFF" height="336.8125" style="stroke:#181818;stroke-width:1.0;" width="10" x="989.5" y="310.0703"/><rect fill="#FFFFFF" height="191.4063" style="stroke:#181818;stroke-width:1.0;" width="10" x="1174.5" y="340.4219"/><rect fill="#FFFFFF" height="60.3516" style="stroke:#181818;stroke-width:1.0;" width="10" x="1372.5" y="370.7734"/><rect fill="#FFFFFF" height="30" style="stroke:#181818;stroke-width:1.0;" width="10" x="1490.5" y="486.8281"/><rect fill="#FFFFFF" height="30" style="stroke:#181818;stroke-width:1.0;" width="10" x="1490.5" y="579.5313"/><rect fill="#FFFFFF" height="30" style="stroke:#181818;stroke-width:1.0;" width="10" x="1691" y="401.125"/><rect fill="none" height="78.7031" style="stroke:#000000;stroke-width:1.5;" width="435.5" x="1118" y="446.125"/><rect fill="none" height="78.7031" style="stroke:#000000;stroke-width:1.5;" width="627" x="926.5" y="538.8281"/><line style="stroke:#181818;stroke-width:0.5;stroke-dasharray:5.0,5.0;" x1="18" x2="18" y1="82.6094" y2="816.6406"/><line style="stroke:#181818;stroke-width:0.5;stroke-dasharray:5.0,5.0;" x1="231.5" x2="231.5" y1="82.6094" y2="816.6406"/><line style="stroke:#181818;stroke-width:0.5;stroke-dasharray:5.0,5.0;" x1="393.5" x2="393.5" y1="82.6094" y2="816.6406"/><line style="stroke:#181818;stroke-width:0.5;stroke-dasharray:5.0,5.0;" x1="545.5" x2="545.5" y1="82.6094" y2="816.6406"/><line style="stroke:#181818;stroke-width:0.5;stroke-dasharray:5.0,5.0;" x1="685" x2="685" y1="82.6094" y2="816.6406"/><line style="stroke:#181818;stroke-width:0.5;stroke-dasharray:5.0,5.0;" x1="814" x2="814" y1="82.6094" y2="816.6406"/><line style="stroke:#181818;stroke-width:0.5;stroke-dasharray:5.0,5.0;" x1="994.5" x2="994.5" y1="82.6094" y2="816.6406"/><line style="stroke:#181818;stroke-width:0.5;stroke-dasharray:5.0,5.0;" x1="1179" x2="1179" y1="82.6094" y2="816.6406"/><line style="stroke:#181818;stroke-width:0.5;stroke-dasharray:5.0,5.0;" x1="1377.5" x2="1377.5" y1="82.6094" y2="816.6406"/><line style="stroke:#181818;stroke-width:0.5;stroke-dasharray:5.0,5.0;" x1="1495.5" x2="1495.5" y1="82.6094" y2="816.6406"/><line style="stroke:#181818;stroke-width:0.5;stroke-dasharray:5.0,5.0;" x1="1602.5" x2="1602.5" y1="82.6094" y2="816.6406"/><line style="stroke:#181818;stroke-width:0.5;stroke-dasharray:5.0,5.0;" x1="1695.5" x2="1695.5" y1="82.6094" y2="816.6406"/><line style="stroke:#181818;stroke-width:0.5;stroke-dasharray:5.0,5.0;" x1="1784.5" x2="1784.5" y1="82.6094" y2="816.6406"/><line style="stroke:#181818;stroke-width:0.5;stroke-dasharray:5.0,5.0;" x1="1886.5" x2="1886.5" y1="82.6094" y2="816.6406"/><text fill="#000000" font-family="sans-serif" font-size="14" lengthAdjust="spacing" textLength="19" x="6" y="79.5332">GL</text><ellipse cx="18.5" cy="13.5" fill="#E2E2F0" rx="8" ry="8" style="stroke:#181818;stroke-width:0.5;"/><path d="M18.5,21.5 L18.5,48.5 M5.5,29.5 L31.5,29.5 M18.5,48.5 L5.5,63.5 M18.5,48.5 L31.5,63.5 " fill="none" style="stroke:#181818;stroke-width:0.5;"/><text fill="#000000" font-family="sans-serif" font-size="14" lengthAdjust="spacing" textLength="19" x="6" y="830.1738">GL</text><ellipse cx="18.5" cy="841.75" fill="#E2E2F0" rx="8" ry="8" style="stroke:#181818;stroke-width:0.5;"/><path d="M18.5,849.75 L18.5,876.75 M5.5,857.75 L31.5,857.75 M18.5,876.75 L5.5,891.75 M18.5,876.75 L31.5,891.75 " fill="none" style="stroke:#181818;stroke-width:0.5;"/><rect fill="#E2E2F0" height="31.6094" rx="2.5" ry="2.5" style="stroke:#181818;stroke-width:0.5;" width="142" x="160.5" y="50"/><text fill="#000000" font-family="sans-serif" font-size="14" lengthAdjust="spacing" textLength="128" x="167.5" y="71.5332">PlanningComponent</text><rect fill="#E2E2F0" height="31.6094" rx="2.5" ry="2.5" style="stroke:#181818;stroke-width:0.5;" width="142" x="160.5" y="815.6406"/><text fill="#000000" font-family="sans-serif" font-size="14" lengthAdjust="spacing" textLength="128" x="167.5" y="837.1738">PlanningComponent</text><rect fill="#E2E2F0" height="31.6094" rx="2.5" ry="2.5" style="stroke:#181818;stroke-width:0.5;" width="163" x="312.5" y="50"/><text fill="#000000" font-family="sans-serif" font-size="14" lengthAdjust="spacing" textLength="149" x="319.5" y="71.5332">PlanningServiceService</text><rect fill="#E2E2F0" height="31.6094" rx="2.5" ry="2.5" style="stroke:#181818;stroke-width:0.5;" width="163" x="312.5" y="815.6406"/><text fill="#000000" font-family="sans-serif" font-size="14" lengthAdjust="spacing" textLength="149" x="319.5" y="837.1738">PlanningServiceService</text><rect fill="#E2E2F0" height="49.2188" rx="2.5" ry="2.5" style="stroke:#181818;stroke-width:0.5;" width="120" x="485.5" y="32.3906"/><text fill="#000000" font-family="sans-serif" font-size="14" lengthAdjust="spacing" textLength="86" x="500.5" y="53.9238">planeamento:</text><text fill="#000000" font-family="sans-serif" font-size="14" lengthAdjust="spacing" textLength="102" x="496.5" y="71.5332">PLANEAMENTO</text><rect fill="#E2E2F0" height="49.2188" rx="2.5" ry="2.5" style="stroke:#181818;stroke-width:0.5;" width="120" x="485.5" y="815.6406"/><text fill="#000000" font-family="sans-serif" font-size="14" lengthAdjust="spacing" textLength="86" x="500.5" y="837.1738">planeamento:</text><text fill="#000000" font-family="sans-serif" font-size="14" lengthAdjust="spacing" textLength="102" x="496.5" y="854.7832">PLANEAMENTO</text><rect fill="#E2E2F0" height="31.6094" rx="2.5" ry="2.5" style="stroke:#181818;stroke-width:0.5;" width="107" x="632" y="50"/><text fill="#000000" font-family="sans-serif" font-size="14" lengthAdjust="spacing" textLength="93" x="639" y="71.5332">PlanningRoute</text><rect fill="#E2E2F0" height="31.6094" rx="2.5" ry="2.5" style="stroke:#181818;stroke-width:0.5;" width="107" x="632" y="815.6406"/><text fill="#000000" font-family="sans-serif" font-size="14" lengthAdjust="spacing" textLength="93" x="639" y="837.1738">PlanningRoute</text><rect fill="#E2E2F0" height="31.6094" rx="2.5" ry="2.5" style="stroke:#181818;stroke-width:0.5;" width="131" x="749" y="50"/><text fill="#000000" font-family="sans-serif" font-size="14" lengthAdjust="spacing" textLength="117" x="756" y="71.5332">PlanningController</text><rect fill="#E2E2F0" height="31.6094" rx="2.5" ry="2.5" style="stroke:#181818;stroke-width:0.5;" width="131" x="749" y="815.6406"/><text fill="#000000" font-family="sans-serif" font-size="14" lengthAdjust="spacing" textLength="117" x="756" y="837.1738">PlanningController</text><rect fill="#E2E2F0" height="31.6094" rx="2.5" ry="2.5" style="stroke:#181818;stroke-width:0.5;" width="116" x="936.5" y="50"/><text fill="#000000" font-family="sans-serif" font-size="14" lengthAdjust="spacing" textLength="102" x="943.5" y="71.5332">PlanningService</text><rect fill="#E2E2F0" height="31.6094" rx="2.5" ry="2.5" style="stroke:#181818;stroke-width:0.5;" width="116" x="936.5" y="815.6406"/><text fill="#000000" font-family="sans-serif" font-size="14" lengthAdjust="spacing" textLength="102" x="943.5" y="837.1738">PlanningService</text><rect fill="#E2E2F0" height="31.6094" rx="2.5" ry="2.5" style="stroke:#181818;stroke-width:0.5;" width="103" x="1128" y="50"/><text fill="#000000" font-family="sans-serif" font-size="14" lengthAdjust="spacing" textLength="89" x="1135" y="71.5332">PlanningRepo</text><rect fill="#E2E2F0" height="31.6094" rx="2.5" ry="2.5" style="stroke:#181818;stroke-width:0.5;" width="103" x="1128" y="815.6406"/><text fill="#000000" font-family="sans-serif" font-size="14" lengthAdjust="spacing" textLength="89" x="1135" y="837.1738">PlanningRepo</text><rect fill="#E2E2F0" height="31.6094" rx="2.5" ry="2.5" style="stroke:#181818;stroke-width:0.5;" width="120" x="1317.5" y="50"/><text fill="#000000" font-family="sans-serif" font-size="14" lengthAdjust="spacing" textLength="106" x="1324.5" y="71.5332">PlanningSchema</text><rect fill="#E2E2F0" height="31.6094" rx="2.5" ry="2.5" style="stroke:#181818;stroke-width:0.5;" width="120" x="1317.5" y="815.6406"/><text fill="#000000" font-family="sans-serif" font-size="14" lengthAdjust="spacing" textLength="106" x="1324.5" y="837.1738">PlanningSchema</text><rect fill="#E2E2F0" height="31.6094" rx="2.5" ry="2.5" style="stroke:#181818;stroke-width:0.5;" width="96" x="1447.5" y="50"/><text fill="#000000" font-family="sans-serif" font-size="14" lengthAdjust="spacing" textLength="82" x="1454.5" y="71.5332">PlanningMap</text><rect fill="#E2E2F0" height="31.6094" rx="2.5" ry="2.5" style="stroke:#181818;stroke-width:0.5;" width="96" x="1447.5" y="815.6406"/><text fill="#000000" font-family="sans-serif" font-size="14" lengthAdjust="spacing" textLength="82" x="1454.5" y="837.1738">PlanningMap</text><rect fill="#E2E2F0" height="31.6094" rx="2.5" ry="2.5" style="stroke:#181818;stroke-width:0.5;" width="99" x="1553.5" y="50"/><text fill="#000000" font-family="sans-serif" font-size="14" lengthAdjust="spacing" textLength="85" x="1560.5" y="71.5332">PlanningDTO</text><rect fill="#E2E2F0" height="31.6094" rx="2.5" ry="2.5" style="stroke:#181818;stroke-width:0.5;" width="99" x="1553.5" y="815.6406"/><text fill="#000000" font-family="sans-serif" font-size="14" lengthAdjust="spacing" textLength="85" x="1560.5" y="837.1738">PlanningDTO</text><text fill="#000000" font-family="sans-serif" font-size="14" lengthAdjust="spacing" textLength="61" x="1662.5" y="79.5332">Database</text><path d="M1678,29 C1678,19 1696,19 1696,19 C1696,19 1714,19 1714,29 L1714,55 C1714,65 1696,65 1696,65 C1696,65 1678,65 1678,55 L1678,29 " fill="#E2E2F0" style="stroke:#181818;stroke-width:1.5;"/><path d="M1678,29 C1678,39 1696,39 1696,39 C1696,39 1714,39 1714,29 " fill="none" style="stroke:#181818;stroke-width:1.5;"/><text fill="#000000" font-family="sans-serif" font-size="14" lengthAdjust="spacing" textLength="61" x="1662.5" y="830.1738">Database</text><path d="M1678,843.25 C1678,833.25 1696,833.25 1696,833.25 C1696,833.25 1714,833.25 1714,843.25 L1714,869.25 C1714,879.25 1696,879.25 1696,879.25 C1696,879.25 1678,879.25 1678,869.25 L1678,843.25 " fill="#E2E2F0" style="stroke:#181818;stroke-width:1.5;"/><path d="M1678,843.25 C1678,853.25 1696,853.25 1696,853.25 C1696,853.25 1714,853.25 1714,843.25 " fill="none" style="stroke:#181818;stroke-width:1.5;"/><rect fill="#E2E2F0" height="31.6094" rx="2.5" ry="2.5" style="stroke:#181818;stroke-width:0.5;" width="91" x="1739.5" y="50"/><text fill="#000000" font-family="sans-serif" font-size="14" lengthAdjust="spacing" textLength="77" x="1746.5" y="71.5332">truckRecord</text><rect fill="#E2E2F0" height="31.6094" rx="2.5" ry="2.5" style="stroke:#181818;stroke-width:0.5;" width="91" x="1739.5" y="815.6406"/><text fill="#000000" font-family="sans-serif" font-size="14" lengthAdjust="spacing" textLength="77" x="1746.5" y="837.1738">truckRecord</text><rect fill="#E2E2F0" height="31.6094" rx="2.5" ry="2.5" style="stroke:#181818;stroke-width:0.5;" width="92" x="1840.5" y="50"/><text fill="#000000" font-family="sans-serif" font-size="14" lengthAdjust="spacing" textLength="78" x="1847.5" y="71.5332">trucksResult</text><rect fill="#E2E2F0" height="31.6094" rx="2.5" ry="2.5" style="stroke:#181818;stroke-width:0.5;" width="92" x="1840.5" y="815.6406"/><text fill="#000000" font-family="sans-serif" font-size="14" lengthAdjust="spacing" textLength="78" x="1847.5" y="837.1738">trucksResult</text><rect fill="#FFFFFF" height="692.6797" style="stroke:#181818;stroke-width:1.0;" width="10" x="226.5" y="114.9609"/><rect fill="#FFFFFF" height="654.3281" style="stroke:#181818;stroke-width:1.0;" width="10" x="231.5" y="153.3125"/><rect fill="#FFFFFF" height="579.625" style="stroke:#181818;stroke-width:1.0;" width="10" x="389" y="188.6641"/><rect fill="#FFFFFF" height="518.9219" style="stroke:#181818;stroke-width:1.0;" width="10" x="540.5" y="219.0156"/><rect fill="#FFFFFF" height="458.2188" style="stroke:#181818;stroke-width:1.0;" width="10" x="680.5" y="249.3672"/><rect fill="#FFFFFF" height="397.5156" style="stroke:#181818;stroke-width:1.0;" width="10" x="809.5" y="279.7188"/><rect fill="#FFFFFF" height="336.8125" style="stroke:#181818;stroke-width:1.0;" width="10" x="989.5" y="310.0703"/><rect fill="#FFFFFF" height="191.4063" style="stroke:#181818;stroke-width:1.0;" width="10" x="1174.5" y="340.4219"/><rect fill="#FFFFFF" height="60.3516" style="stroke:#181818;stroke-width:1.0;" width="10" x="1372.5" y="370.7734"/><rect fill="#FFFFFF" height="30" style="stroke:#181818;stroke-width:1.0;" width="10" x="1490.5" y="486.8281"/><rect fill="#FFFFFF" height="30" style="stroke:#181818;stroke-width:1.0;" width="10" x="1490.5" y="579.5313"/><rect fill="#FFFFFF" height="30" style="stroke:#181818;stroke-width:1.0;" width="10" x="1691" y="401.125"/><polygon fill="#181818" points="214.5,110.9609,224.5,114.9609,214.5,118.9609,218.5,114.9609" style="stroke:#181818;stroke-width:1.0;"/><line style="stroke:#181818;stroke-width:1.0;" x1="18.5" x2="220.5" y1="114.9609" y2="114.9609"/><text fill="#000000" font-family="sans-serif" font-size="13" font-weight="bold" lengthAdjust="spacing" textLength="7" x="25.5" y="110.1045">1</text><text fill="#000000" font-family="sans-serif" font-size="13" lengthAdjust="spacing" textLength="178" x="36.5" y="110.1045">asks to list the route plannings</text><line style="stroke:#181818;stroke-width:1.0;" x1="236.5" x2="283.5" y1="140.3125" y2="140.3125"/><line style="stroke:#181818;stroke-width:1.0;" x1="283.5" x2="283.5" y1="140.3125" y2="153.3125"/><line style="stroke:#181818;stroke-width:1.0;" x1="242.5" x2="283.5" y1="153.3125" y2="153.3125"/><polygon fill="#181818" points="252.5,149.3125,242.5,153.3125,252.5,157.3125,248.5,153.3125" style="stroke:#181818;stroke-width:1.0;"/><text fill="#000000" font-family="sans-serif" font-size="13" font-weight="bold" lengthAdjust="spacing" textLength="7" x="248.5" y="135.4561">2</text><text fill="#000000" font-family="sans-serif" font-size="13" lengthAdjust="spacing" textLength="82" x="259.5" y="135.4561">getAllRoutes()</text><polygon fill="#181818" points="377,184.6641,387,188.6641,377,192.6641,381,188.6641" style="stroke:#181818;stroke-width:1.0;"/><line style="stroke:#181818;stroke-width:1.0;" x1="241.5" x2="383" y1="188.6641" y2="188.6641"/><text fill="#000000" font-family="sans-serif" font-size="13" font-weight="bold" lengthAdjust="spacing" textLength="7" x="248.5" y="183.8076">3</text><text fill="#000000" font-family="sans-serif" font-size="13" lengthAdjust="spacing" textLength="82" x="259.5" y="183.8076">getAllRoutes()</text><polygon fill="#181818" points="528.5,215.0156,538.5,219.0156,528.5,223.0156,532.5,219.0156" style="stroke:#181818;stroke-width:1.0;"/><line style="stroke:#181818;stroke-width:1.0;" x1="399" x2="534.5" y1="219.0156" y2="219.0156"/><text fill="#000000" font-family="sans-serif" font-size="13" font-weight="bold" lengthAdjust="spacing" textLength="7" x="406" y="214.1592">4</text><text fill="#000000" font-family="sans-serif" font-size="13" lengthAdjust="spacing" textLength="87" x="417" y="214.1592">get(/Plannings)</text><polygon fill="#181818" points="668.5,245.3672,678.5,249.3672,668.5,253.3672,672.5,249.3672" style="stroke:#181818;stroke-width:1.0;"/><line style="stroke:#181818;stroke-width:1.0;" x1="550.5" x2="674.5" y1="249.3672" y2="249.3672"/><text fill="#000000" font-family="sans-serif" font-size="13" font-weight="bold" lengthAdjust="spacing" textLength="7" x="557.5" y="244.5107">5</text><text fill="#000000" font-family="sans-serif" font-size="13" lengthAdjust="spacing" textLength="100" x="568.5" y="244.5107">getTruckPlanning</text><polygon fill="#181818" points="797.5,275.7188,807.5,279.7188,797.5,283.7188,801.5,279.7188" style="stroke:#181818;stroke-width:1.0;"/><line style="stroke:#181818;stroke-width:1.0;" x1="690.5" x2="803.5" y1="279.7188" y2="279.7188"/><text fill="#000000" font-family="sans-serif" font-size="13" font-weight="bold" lengthAdjust="spacing" textLength="7" x="697.5" y="274.8623">6</text><text fill="#000000" font-family="sans-serif" font-size="13" lengthAdjust="spacing" textLength="75" x="708.5" y="274.8623">getPlannings</text><polygon fill="#181818" points="977.5,306.0703,987.5,310.0703,977.5,314.0703,981.5,310.0703" style="stroke:#181818;stroke-width:1.0;"/><line style="stroke:#181818;stroke-width:1.0;" x1="819.5" x2="983.5" y1="310.0703" y2="310.0703"/><text fill="#000000" font-family="sans-serif" font-size="13" font-weight="bold" lengthAdjust="spacing" textLength="7" x="826.5" y="305.2139">7</text><text fill="#000000" font-family="sans-serif" font-size="13" lengthAdjust="spacing" textLength="140" x="837.5" y="305.2139">getPlanByPlateAndDate</text><polygon fill="#181818" points="1162.5,336.4219,1172.5,340.4219,1162.5,344.4219,1166.5,340.4219" style="stroke:#181818;stroke-width:1.0;"/><line style="stroke:#181818;stroke-width:1.0;" x1="999.5" x2="1168.5" y1="340.4219" y2="340.4219"/><text fill="#000000" font-family="sans-serif" font-size="13" font-weight="bold" lengthAdjust="spacing" textLength="7" x="1006.5" y="335.5654">8</text><text fill="#000000" font-family="sans-serif" font-size="13" lengthAdjust="spacing" textLength="145" x="1017.5" y="335.5654">PlanningsResult = findAll</text><polygon fill="#181818" points="1360.5,366.7734,1370.5,370.7734,1360.5,374.7734,1364.5,370.7734" style="stroke:#181818;stroke-width:1.0;"/><line style="stroke:#181818;stroke-width:1.0;" x1="1184.5" x2="1366.5" y1="370.7734" y2="370.7734"/><text fill="#000000" font-family="sans-serif" font-size="13" font-weight="bold" lengthAdjust="spacing" textLength="7" x="1191.5" y="365.917">9</text><text fill="#000000" font-family="sans-serif" font-size="13" lengthAdjust="spacing" textLength="158" x="1202.5" y="365.917">PlanningsRecord = findOne</text><polygon fill="#181818" points="1679,397.125,1689,401.125,1679,405.125,1683,401.125" style="stroke:#181818;stroke-width:1.0;"/><line style="stroke:#181818;stroke-width:1.0;" x1="1382.5" x2="1685" y1="401.125" y2="401.125"/><text fill="#000000" font-family="sans-serif" font-size="13" font-weight="bold" lengthAdjust="spacing" textLength="14" x="1389.5" y="396.2686">10</text><text fill="#000000" font-family="sans-serif" font-size="13" lengthAdjust="spacing" textLength="20" x="1407.5" y="396.2686">find</text><path d="M1118,446.125 L1191,446.125 L1191,454.4766 L1181,464.4766 L1118,464.4766 L1118,446.125 " fill="#EEEEEE" style="stroke:#000000;stroke-width:1.5;"/><rect fill="none" height="78.7031" style="stroke:#000000;stroke-width:1.5;" width="435.5" x="1118" y="446.125"/><text fill="#000000" font-family="sans-serif" font-size="13" font-weight="bold" lengthAdjust="spacing" textLength="28" x="1133" y="460.6201">loop</text><text fill="#000000" font-family="sans-serif" font-size="11" font-weight="bold" lengthAdjust="spacing" textLength="156" x="1206" y="459.5439">[element : PlanningsRecord]</text><polygon fill="#181818" points="1478.5,482.8281,1488.5,486.8281,1478.5,490.8281,1482.5,486.8281" style="stroke:#181818;stroke-width:1.0;"/><line style="stroke:#181818;stroke-width:1.0;" x1="1184.5" x2="1484.5" y1="486.8281" y2="486.8281"/><text fill="#000000" font-family="sans-serif" font-size="13" font-weight="bold" lengthAdjust="spacing" textLength="14" x="1191.5" y="481.9717">11</text><text fill="#000000" font-family="sans-serif" font-size="13" lengthAdjust="spacing" textLength="55" x="1209.5" y="481.9717">toDomain</text><path d="M926.5,538.8281 L999.5,538.8281 L999.5,547.1797 L989.5,557.1797 L926.5,557.1797 L926.5,538.8281 " fill="#EEEEEE" style="stroke:#000000;stroke-width:1.5;"/><rect fill="none" height="78.7031" style="stroke:#000000;stroke-width:1.5;" width="627" x="926.5" y="538.8281"/><text fill="#000000" font-family="sans-serif" font-size="13" font-weight="bold" lengthAdjust="spacing" textLength="28" x="941.5" y="553.3232">loop</text><text fill="#000000" font-family="sans-serif" font-size="11" font-weight="bold" lengthAdjust="spacing" textLength="132" x="1014.5" y="552.2471">[linha : planningsResult]</text><polygon fill="#181818" points="1478.5,575.5313,1488.5,579.5313,1478.5,583.5313,1482.5,579.5313" style="stroke:#181818;stroke-width:1.0;"/><line style="stroke:#181818;stroke-width:1.0;" x1="999.5" x2="1484.5" y1="579.5313" y2="579.5313"/><text fill="#000000" font-family="sans-serif" font-size="13" font-weight="bold" lengthAdjust="spacing" textLength="14" x="1006.5" y="574.6748">12</text><text fill="#000000" font-family="sans-serif" font-size="13" lengthAdjust="spacing" textLength="37" x="1024.5" y="574.6748">toDTO</text><polygon fill="#181818" points="830.5,642.8828,820.5,646.8828,830.5,650.8828,826.5,646.8828" style="stroke:#181818;stroke-width:1.0;"/><line style="stroke:#181818;stroke-width:1.0;stroke-dasharray:2.0,2.0;" x1="824.5" x2="993.5" y1="646.8828" y2="646.8828"/><text fill="#000000" font-family="sans-serif" font-size="13" font-weight="bold" lengthAdjust="spacing" textLength="14" x="836.5" y="642.0264">13</text><text fill="#000000" font-family="sans-serif" font-size="13" lengthAdjust="spacing" textLength="85" x="854.5" y="642.0264">planningResult</text><polygon fill="#181818" points="701.5,673.2344,691.5,677.2344,701.5,681.2344,697.5,677.2344" style="stroke:#181818;stroke-width:1.0;"/><line style="stroke:#181818;stroke-width:1.0;stroke-dasharray:2.0,2.0;" x1="695.5" x2="813.5" y1="677.2344" y2="677.2344"/><text fill="#000000" font-family="sans-serif" font-size="13" font-weight="bold" lengthAdjust="spacing" textLength="14" x="707.5" y="672.3779">14</text><text fill="#000000" font-family="sans-serif" font-size="13" lengthAdjust="spacing" textLength="61" x="725.5" y="672.3779">status 200</text><polygon fill="#181818" points="561.5,703.5859,551.5,707.5859,561.5,711.5859,557.5,707.5859" style="stroke:#181818;stroke-width:1.0;"/><line style="stroke:#181818;stroke-width:1.0;stroke-dasharray:2.0,2.0;" x1="555.5" x2="684.5" y1="707.5859" y2="707.5859"/><text fill="#000000" font-family="sans-serif" font-size="13" font-weight="bold" lengthAdjust="spacing" textLength="14" x="567.5" y="702.7295">15</text><text fill="#000000" font-family="sans-serif" font-size="13" lengthAdjust="spacing" textLength="25" x="585.5" y="702.7295">data</text><polygon fill="#181818" points="410,733.9375,400,737.9375,410,741.9375,406,737.9375" style="stroke:#181818;stroke-width:1.0;"/><line style="stroke:#181818;stroke-width:1.0;stroke-dasharray:2.0,2.0;" x1="404" x2="544.5" y1="737.9375" y2="737.9375"/><text fill="#000000" font-family="sans-serif" font-size="13" font-weight="bold" lengthAdjust="spacing" textLength="14" x="416" y="733.0811">16</text><text fill="#000000" font-family="sans-serif" font-size="13" lengthAdjust="spacing" textLength="25" x="434" y="733.0811">data</text><polygon fill="#181818" points="252.5,764.2891,242.5,768.2891,252.5,772.2891,248.5,768.2891" style="stroke:#181818;stroke-width:1.0;"/><line style="stroke:#181818;stroke-width:1.0;stroke-dasharray:2.0,2.0;" x1="246.5" x2="393" y1="768.2891" y2="768.2891"/><text fill="#000000" font-family="sans-serif" font-size="13" font-weight="bold" lengthAdjust="spacing" textLength="14" x="258.5" y="763.4326">17</text><text fill="#000000" font-family="sans-serif" font-size="13" lengthAdjust="spacing" textLength="25" x="276.5" y="763.4326">data</text><polygon fill="#181818" points="29.5,794.6406,19.5,798.6406,29.5,802.6406,25.5,798.6406" style="stroke:#181818;stroke-width:1.0;"/><line style="stroke:#181818;stroke-width:1.0;stroke-dasharray:2.0,2.0;" x1="23.5" x2="230.5" y1="798.6406" y2="798.6406"/><text fill="#000000" font-family="sans-serif" font-size="13" font-weight="bold" lengthAdjust="spacing" textLength="14" x="35.5" y="793.7842">18</text><text fill="#000000" font-family="sans-serif" font-size="13" lengthAdjust="spacing" textLength="77" x="53.5" y="793.7842">displays data</text><!--MD5=[4766b292fdeb33c655a6c2cd9dd285a0]
@startuml

autonumber
actor "GL" as GL
participant "PlanningComponent" as COMP
participant "PlanningServiceService" as SS
participant "planeamento: \n PLANEAMENTO" as P
participant "PlanningRoute" as ROUTE
participant "PlanningController" as CTR
participant "PlanningService" as SERVICE
participant "PlanningRepo" as REPO
participant "PlanningSchema" as SCHEMA
participant "PlanningMap" as MAP
participant "PlanningDTO" as DTO
database "Database" as DB
participant "truckRecord" as RECORD
participant "trucksResult" as Result


GL-> COMP : asks to list the route plannings
activate COMP
COMP -> COMP : getAllRoutes()
activate COMP
COMP -> SS : getAllRoutes()
activate SS
SS -> P : get(/Plannings)
activate P
P -> ROUTE: getTruckPlanning


activate ROUTE
ROUTE -> CTR : getPlannings
activate CTR
CTR -> SERVICE : getPlanByPlateAndDate
activate SERVICE
SERVICE -> REPO : PlanningsResult = findAll
activate REPO
REPO -> SCHEMA : PlanningsRecord = findOne
activate SCHEMA
SCHEMA -> DB : find
activate DB
deactivate DB
deactivate SCHEMA
loop element : PlanningsRecord
REPO -> MAP : toDomain
activate MAP
deactivate MAP
end
deactivate REPO

loop linha : planningsResult
SERVICE -> MAP : toDTO
activate MAP
deactivate MAP
end
SERVICE - -> CTR : planningResult
deactivate SERVICE
CTR - -> ROUTE : status 200
deactivate CTR
ROUTE - -> P : data
deactivate ROUTE
P - -> SS : data
deactivate P
SS - -> COMP : data
deactivate SS
deactivate P
GL<- - COMP : displays data
deactivate ROUTE

@enduml

PlantUML version 1.2022.7(Mon Aug 22 18:01:30 WEST 2022)
(GPL source distribution)
Java Runtime: Java(TM) SE Runtime Environment
JVM: Java HotSpot(TM) 64-Bit Server VM
Default Encoding: Cp1252
Language: pt
Country: PT
--></g></svg>