<?xml version="1.0" encoding="UTF-8" standalone="no"?><svg xmlns="http://www.w3.org/2000/svg" xmlns:xlink="http://www.w3.org/1999/xlink" contentStyleType="text/css" height="1395px" preserveAspectRatio="none" style="width:1988px;height:1395px;background:#FFFFFF;" version="1.1" viewBox="0 0 1988 1395" width="1988px" zoomAndPan="magnify"><defs/><g><rect fill="#FFFFFF" height="1172.6016" style="stroke:#181818;stroke-width:1.0;" width="10" x="352.5" y="131.3125"/><rect fill="#FFFFFF" height="1101.5469" style="stroke:#181818;stroke-width:1.0;" width="10" x="357.5" y="202.3672"/><rect fill="#FFFFFF" height="1026.8438" style="stroke:#181818;stroke-width:1.0;" width="10" x="572.5" y="237.7188"/><rect fill="#FFFFFF" height="966.1406" style="stroke:#181818;stroke-width:1.0;" width="10" x="730.5" y="268.0703"/><rect fill="#FFFFFF" height="905.4375" style="stroke:#181818;stroke-width:1.0;" width="10" x="888.5" y="298.4219"/><rect fill="#FFFFFF" height="844.7344" style="stroke:#181818;stroke-width:1.0;" width="10" x="1001.5" y="328.7734"/><rect fill="#FFFFFF" height="758.6797" style="stroke:#181818;stroke-width:1.0;" width="10" x="1136.5" y="359.125"/><rect fill="#FFFFFF" height="30" style="stroke:#181818;stroke-width:1.0;" width="10" x="1326.5" y="389.4766"/><rect fill="#FFFFFF" height="516.9219" style="stroke:#181818;stroke-width:1.0;" width="10" x="1326.5" y="510.1797"/><rect fill="#FFFFFF" height="30" style="stroke:#181818;stroke-width:1.0;" width="10" x="1517.5" y="540.5313"/><rect fill="#FFFFFF" height="55.7031" style="stroke:#181818;stroke-width:1.0;" width="10" x="1609.5" y="600.8828"/><rect fill="#FFFFFF" height="30" style="stroke:#181818;stroke-width:1.0;" width="10" x="1691" y="1057.4531"/><rect fill="#FFFFFF" height="30" style="stroke:#181818;stroke-width:1.0;" width="10" x="1771" y="966.75"/><rect fill="#FFFFFF" height="30" style="stroke:#181818;stroke-width:1.0;" width="10" x="1838" y="449.8281"/><rect fill="#FFFFFF" height="30" style="stroke:#181818;stroke-width:1.0;" width="10" x="1924.5" y="906.3984"/><rect fill="none" height="261.1641" style="stroke:#000000;stroke-width:1.5;" width="1649.5" x="10" y="615.8828"/><line style="stroke:#181818;stroke-width:0.5;stroke-dasharray:5.0,5.0;" x1="33" x2="33" y1="82.6094" y2="1312.9141"/><line style="stroke:#181818;stroke-width:0.5;stroke-dasharray:5.0,5.0;" x1="357.5" x2="357.5" y1="82.6094" y2="1312.9141"/><line style="stroke:#181818;stroke-width:0.5;stroke-dasharray:5.0,5.0;" x1="577" x2="577" y1="82.6094" y2="1312.9141"/><line style="stroke:#181818;stroke-width:0.5;stroke-dasharray:5.0,5.0;" x1="735" x2="735" y1="82.6094" y2="1312.9141"/><line style="stroke:#181818;stroke-width:0.5;stroke-dasharray:5.0,5.0;" x1="893" x2="893" y1="82.6094" y2="1312.9141"/><line style="stroke:#181818;stroke-width:0.5;stroke-dasharray:5.0,5.0;" x1="1006" x2="1006" y1="82.6094" y2="1312.9141"/><line style="stroke:#181818;stroke-width:0.5;stroke-dasharray:5.0,5.0;" x1="1141.5" x2="1141.5" y1="82.6094" y2="1312.9141"/><line style="stroke:#181818;stroke-width:0.5;stroke-dasharray:5.0,5.0;" x1="1217.5" x2="1217.5" y1="82.6094" y2="1312.9141"/><line style="stroke:#181818;stroke-width:0.5;stroke-dasharray:5.0,5.0;" x1="1331" x2="1331" y1="82.6094" y2="1312.9141"/><line style="stroke:#181818;stroke-width:0.5;stroke-dasharray:5.0,5.0;" x1="1522.5" x2="1522.5" y1="82.6094" y2="1312.9141"/><line style="stroke:#181818;stroke-width:0.5;stroke-dasharray:5.0,5.0;" x1="1614.5" x2="1614.5" y1="82.6094" y2="1312.9141"/><line style="stroke:#181818;stroke-width:0.5;stroke-dasharray:5.0,5.0;" x1="1695.5" x2="1695.5" y1="82.6094" y2="1312.9141"/><line style="stroke:#181818;stroke-width:0.5;stroke-dasharray:5.0,5.0;" x1="1775.5" x2="1775.5" y1="82.6094" y2="1312.9141"/><line style="stroke:#181818;stroke-width:0.5;stroke-dasharray:5.0,5.0;" x1="1842.5" x2="1842.5" y1="82.6094" y2="1312.9141"/><line style="stroke:#181818;stroke-width:0.5;stroke-dasharray:5.0,5.0;" x1="1929.5" x2="1929.5" y1="82.6094" y2="1312.9141"/><text fill="#000000" font-family="sans-serif" font-size="14" lengthAdjust="spacing" textLength="19" x="21" y="79.5332">GL</text><ellipse cx="33.5" cy="13.5" fill="#E2E2F0" rx="8" ry="8" style="stroke:#181818;stroke-width:0.5;"/><path d="M33.5,21.5 L33.5,48.5 M20.5,29.5 L46.5,29.5 M33.5,48.5 L20.5,63.5 M33.5,48.5 L46.5,63.5 " fill="none" style="stroke:#181818;stroke-width:0.5;"/><text fill="#000000" font-family="sans-serif" font-size="14" lengthAdjust="spacing" textLength="19" x="21" y="1326.4473">GL</text><ellipse cx="33.5" cy="1338.0234" fill="#E2E2F0" rx="8" ry="8" style="stroke:#181818;stroke-width:0.5;"/><path d="M33.5,1346.0234 L33.5,1373.0234 M20.5,1354.0234 L46.5,1354.0234 M33.5,1373.0234 L20.5,1388.0234 M33.5,1373.0234 L46.5,1388.0234 " fill="none" style="stroke:#181818;stroke-width:0.5;"/><rect fill="#E2E2F0" height="31.6094" rx="2.5" ry="2.5" style="stroke:#181818;stroke-width:0.5;" width="116" x="299.5" y="50"/><text fill="#000000" font-family="sans-serif" font-size="14" lengthAdjust="spacing" textLength="102" x="306.5" y="71.5332">PathComponent</text><rect fill="#E2E2F0" height="31.6094" rx="2.5" ry="2.5" style="stroke:#181818;stroke-width:0.5;" width="116" x="299.5" y="1311.9141"/><text fill="#000000" font-family="sans-serif" font-size="14" lengthAdjust="spacing" textLength="102" x="306.5" y="1333.4473">PathComponent</text><rect fill="#E2E2F0" height="31.6094" rx="2.5" ry="2.5" style="stroke:#181818;stroke-width:0.5;" width="137" x="509" y="50"/><text fill="#000000" font-family="sans-serif" font-size="14" lengthAdjust="spacing" textLength="123" x="516" y="71.5332">PathServiceService</text><rect fill="#E2E2F0" height="31.6094" rx="2.5" ry="2.5" style="stroke:#181818;stroke-width:0.5;" width="137" x="509" y="1311.9141"/><text fill="#000000" font-family="sans-serif" font-size="14" lengthAdjust="spacing" textLength="123" x="516" y="1333.4473">PathServiceService</text><rect fill="#E2E2F0" height="31.6094" rx="2.5" ry="2.5" style="stroke:#181818;stroke-width:0.5;" width="43" x="714" y="50"/><text fill="#000000" font-family="sans-serif" font-size="14" lengthAdjust="spacing" textLength="29" x="721" y="71.5332">MDL</text><rect fill="#E2E2F0" height="31.6094" rx="2.5" ry="2.5" style="stroke:#181818;stroke-width:0.5;" width="43" x="714" y="1311.9141"/><text fill="#000000" font-family="sans-serif" font-size="14" lengthAdjust="spacing" textLength="29" x="721" y="1333.4473">MDL</text><rect fill="#E2E2F0" height="31.6094" rx="2.5" ry="2.5" style="stroke:#181818;stroke-width:0.5;" width="81" x="853" y="50"/><text fill="#000000" font-family="sans-serif" font-size="14" lengthAdjust="spacing" textLength="67" x="860" y="71.5332">PathRoute</text><rect fill="#E2E2F0" height="31.6094" rx="2.5" ry="2.5" style="stroke:#181818;stroke-width:0.5;" width="81" x="853" y="1311.9141"/><text fill="#000000" font-family="sans-serif" font-size="14" lengthAdjust="spacing" textLength="67" x="860" y="1333.4473">PathRoute</text><rect fill="#E2E2F0" height="31.6094" rx="2.5" ry="2.5" style="stroke:#181818;stroke-width:0.5;" width="105" x="954" y="50"/><text fill="#000000" font-family="sans-serif" font-size="14" lengthAdjust="spacing" textLength="91" x="961" y="71.5332">PathController</text><rect fill="#E2E2F0" height="31.6094" rx="2.5" ry="2.5" style="stroke:#181818;stroke-width:0.5;" width="105" x="954" y="1311.9141"/><text fill="#000000" font-family="sans-serif" font-size="14" lengthAdjust="spacing" textLength="91" x="961" y="1333.4473">PathController</text><rect fill="#E2E2F0" height="31.6094" rx="2.5" ry="2.5" style="stroke:#181818;stroke-width:0.5;" width="90" x="1096.5" y="50"/><text fill="#000000" font-family="sans-serif" font-size="14" lengthAdjust="spacing" textLength="76" x="1103.5" y="71.5332">PathService</text><rect fill="#E2E2F0" height="31.6094" rx="2.5" ry="2.5" style="stroke:#181818;stroke-width:0.5;" width="90" x="1096.5" y="1311.9141"/><text fill="#000000" font-family="sans-serif" font-size="14" lengthAdjust="spacing" textLength="76" x="1103.5" y="1333.4473">PathService</text><rect fill="#E2E2F0" height="31.6094" rx="2.5" ry="2.5" style="stroke:#181818;stroke-width:0.5;" width="43" x="1196.5" y="50"/><text fill="#000000" font-family="sans-serif" font-size="14" lengthAdjust="spacing" textLength="29" x="1203.5" y="71.5332">Path</text><rect fill="#E2E2F0" height="31.6094" rx="2.5" ry="2.5" style="stroke:#181818;stroke-width:0.5;" width="43" x="1196.5" y="1311.9141"/><text fill="#000000" font-family="sans-serif" font-size="14" lengthAdjust="spacing" textLength="29" x="1203.5" y="1333.4473">Path</text><rect fill="#E2E2F0" height="31.6094" rx="2.5" ry="2.5" style="stroke:#181818;stroke-width:0.5;" width="77" x="1293" y="50"/><text fill="#000000" font-family="sans-serif" font-size="14" lengthAdjust="spacing" textLength="63" x="1300" y="71.5332">PathRepo</text><rect fill="#E2E2F0" height="31.6094" rx="2.5" ry="2.5" style="stroke:#181818;stroke-width:0.5;" width="77" x="1293" y="1311.9141"/><text fill="#000000" font-family="sans-serif" font-size="14" lengthAdjust="spacing" textLength="63" x="1300" y="1333.4473">PathRepo</text><rect fill="#E2E2F0" height="31.6094" rx="2.5" ry="2.5" style="stroke:#181818;stroke-width:0.5;" width="94" x="1475.5" y="50"/><text fill="#000000" font-family="sans-serif" font-size="14" lengthAdjust="spacing" textLength="80" x="1482.5" y="71.5332">PathSchema</text><rect fill="#E2E2F0" height="31.6094" rx="2.5" ry="2.5" style="stroke:#181818;stroke-width:0.5;" width="94" x="1475.5" y="1311.9141"/><text fill="#000000" font-family="sans-serif" font-size="14" lengthAdjust="spacing" textLength="80" x="1482.5" y="1333.4473">PathSchema</text><rect fill="#E2E2F0" height="31.6094" rx="2.5" ry="2.5" style="stroke:#181818;stroke-width:0.5;" width="70" x="1579.5" y="50"/><text fill="#000000" font-family="sans-serif" font-size="14" lengthAdjust="spacing" textLength="56" x="1586.5" y="71.5332">PathMap</text><rect fill="#E2E2F0" height="31.6094" rx="2.5" ry="2.5" style="stroke:#181818;stroke-width:0.5;" width="70" x="1579.5" y="1311.9141"/><text fill="#000000" font-family="sans-serif" font-size="14" lengthAdjust="spacing" textLength="56" x="1586.5" y="1333.4473">PathMap</text><rect fill="#E2E2F0" height="31.6094" rx="2.5" ry="2.5" style="stroke:#181818;stroke-width:0.5;" width="73" x="1659.5" y="50"/><text fill="#000000" font-family="sans-serif" font-size="14" lengthAdjust="spacing" textLength="59" x="1666.5" y="71.5332">PathDTO</text><rect fill="#E2E2F0" height="31.6094" rx="2.5" ry="2.5" style="stroke:#181818;stroke-width:0.5;" width="73" x="1659.5" y="1311.9141"/><text fill="#000000" font-family="sans-serif" font-size="14" lengthAdjust="spacing" textLength="59" x="1666.5" y="1333.4473">PathDTO</text><text fill="#000000" font-family="sans-serif" font-size="14" lengthAdjust="spacing" textLength="61" x="1742.5" y="79.5332">Database</text><path d="M1758,29 C1758,19 1776,19 1776,19 C1776,19 1794,19 1794,29 L1794,55 C1794,65 1776,65 1776,65 C1776,65 1758,65 1758,55 L1758,29 " fill="#E2E2F0" style="stroke:#181818;stroke-width:1.5;"/><path d="M1758,29 C1758,39 1776,39 1776,39 C1776,39 1794,39 1794,29 " fill="none" style="stroke:#181818;stroke-width:1.5;"/><text fill="#000000" font-family="sans-serif" font-size="14" lengthAdjust="spacing" textLength="61" x="1742.5" y="1326.4473">Database</text><path d="M1758,1339.5234 C1758,1329.5234 1776,1329.5234 1776,1329.5234 C1776,1329.5234 1794,1329.5234 1794,1339.5234 L1794,1365.5234 C1794,1375.5234 1776,1375.5234 1776,1375.5234 C1776,1375.5234 1758,1375.5234 1758,1365.5234 L1758,1339.5234 " fill="#E2E2F0" style="stroke:#181818;stroke-width:1.5;"/><path d="M1758,1339.5234 C1758,1349.5234 1776,1349.5234 1776,1349.5234 C1776,1349.5234 1794,1349.5234 1794,1339.5234 " fill="none" style="stroke:#181818;stroke-width:1.5;"/><rect fill="#E2E2F0" height="49.2188" rx="2.5" ry="2.5" style="stroke:#181818;stroke-width:0.5;" width="47" x="1819.5" y="32.3906"/><text fill="#000000" font-family="sans-serif" font-size="14" lengthAdjust="spacing" textLength="28" x="1829" y="53.9238">path</text><text fill="#000000" font-family="sans-serif" font-size="14" lengthAdjust="spacing" textLength="33" x="1826.5" y="71.5332">:Path</text><rect fill="#E2E2F0" height="49.2188" rx="2.5" ry="2.5" style="stroke:#181818;stroke-width:0.5;" width="47" x="1819.5" y="1311.9141"/><text fill="#000000" font-family="sans-serif" font-size="14" lengthAdjust="spacing" textLength="28" x="1829" y="1333.4473">path</text><text fill="#000000" font-family="sans-serif" font-size="14" lengthAdjust="spacing" textLength="33" x="1826.5" y="1351.0566">:Path</text><rect fill="#E2E2F0" height="31.6094" rx="2.5" ry="2.5" style="stroke:#181818;stroke-width:0.5;" width="106" x="1876.5" y="50"/><text fill="#000000" font-family="sans-serif" font-size="14" lengthAdjust="spacing" textLength="92" x="1883.5" y="71.5332">pathDocument</text><rect fill="#E2E2F0" height="31.6094" rx="2.5" ry="2.5" style="stroke:#181818;stroke-width:0.5;" width="106" x="1876.5" y="1311.9141"/><text fill="#000000" font-family="sans-serif" font-size="14" lengthAdjust="spacing" textLength="92" x="1883.5" y="1333.4473">pathDocument</text><rect fill="#FFFFFF" height="1172.6016" style="stroke:#181818;stroke-width:1.0;" width="10" x="352.5" y="131.3125"/><rect fill="#FFFFFF" height="1101.5469" style="stroke:#181818;stroke-width:1.0;" width="10" x="357.5" y="202.3672"/><rect fill="#FFFFFF" height="1026.8438" style="stroke:#181818;stroke-width:1.0;" width="10" x="572.5" y="237.7188"/><rect fill="#FFFFFF" height="966.1406" style="stroke:#181818;stroke-width:1.0;" width="10" x="730.5" y="268.0703"/><rect fill="#FFFFFF" height="905.4375" style="stroke:#181818;stroke-width:1.0;" width="10" x="888.5" y="298.4219"/><rect fill="#FFFFFF" height="844.7344" style="stroke:#181818;stroke-width:1.0;" width="10" x="1001.5" y="328.7734"/><rect fill="#FFFFFF" height="758.6797" style="stroke:#181818;stroke-width:1.0;" width="10" x="1136.5" y="359.125"/><rect fill="#FFFFFF" height="30" style="stroke:#181818;stroke-width:1.0;" width="10" x="1326.5" y="389.4766"/><rect fill="#FFFFFF" height="516.9219" style="stroke:#181818;stroke-width:1.0;" width="10" x="1326.5" y="510.1797"/><rect fill="#FFFFFF" height="30" style="stroke:#181818;stroke-width:1.0;" width="10" x="1517.5" y="540.5313"/><rect fill="#FFFFFF" height="55.7031" style="stroke:#181818;stroke-width:1.0;" width="10" x="1609.5" y="600.8828"/><rect fill="#FFFFFF" height="30" style="stroke:#181818;stroke-width:1.0;" width="10" x="1691" y="1057.4531"/><rect fill="#FFFFFF" height="30" style="stroke:#181818;stroke-width:1.0;" width="10" x="1771" y="966.75"/><rect fill="#FFFFFF" height="30" style="stroke:#181818;stroke-width:1.0;" width="10" x="1838" y="449.8281"/><rect fill="#FFFFFF" height="30" style="stroke:#181818;stroke-width:1.0;" width="10" x="1924.5" y="906.3984"/><polygon fill="#181818" points="340.5,127.3125,350.5,131.3125,340.5,135.3125,344.5,131.3125" style="stroke:#181818;stroke-width:1.0;"/><line style="stroke:#181818;stroke-width:1.0;" x1="33.5" x2="346.5" y1="131.3125" y2="131.3125"/><text fill="#000000" font-family="sans-serif" font-size="13" font-weight="bold" lengthAdjust="spacing" textLength="7" x="40.5" y="118.2803">1</text><text fill="#000000" font-family="sans-serif" font-size="13" lengthAdjust="spacing" textLength="223" x="51.5" y="110.1045">introduces the data(idWarehouseStart,</text><text fill="#000000" font-family="sans-serif" font-size="13" lengthAdjust="spacing" textLength="289" x="51.5" y="126.4561">idWarehouseEnd,distance,time,energy,extraTime)</text><line style="stroke:#181818;stroke-width:1.0;" x1="362.5" x2="409.5" y1="189.3672" y2="189.3672"/><line style="stroke:#181818;stroke-width:1.0;" x1="409.5" x2="409.5" y1="189.3672" y2="202.3672"/><line style="stroke:#181818;stroke-width:1.0;" x1="368.5" x2="409.5" y1="202.3672" y2="202.3672"/><polygon fill="#181818" points="378.5,198.3672,368.5,202.3672,378.5,206.3672,374.5,202.3672" style="stroke:#181818;stroke-width:1.0;"/><text fill="#000000" font-family="sans-serif" font-size="13" font-weight="bold" lengthAdjust="spacing" textLength="7" x="374.5" y="168.1592">2</text><text fill="#000000" font-family="sans-serif" font-size="13" lengthAdjust="spacing" textLength="178" x="385.5" y="151.8076">updatePath(idWarehouseStart,</text><text fill="#000000" font-family="sans-serif" font-size="13" lengthAdjust="spacing" textLength="185" x="385.5" y="168.1592">idWarehouseEnd,distance,time,</text><text fill="#000000" font-family="sans-serif" font-size="13" lengthAdjust="spacing" textLength="104" x="385.5" y="184.5107">energy,extraTime)</text><polygon fill="#181818" points="560.5,233.7188,570.5,237.7188,560.5,241.7188,564.5,237.7188" style="stroke:#181818;stroke-width:1.0;"/><line style="stroke:#181818;stroke-width:1.0;" x1="367.5" x2="566.5" y1="237.7188" y2="237.7188"/><text fill="#000000" font-family="sans-serif" font-size="13" font-weight="bold" lengthAdjust="spacing" textLength="7" x="374.5" y="232.8623">3</text><text fill="#000000" font-family="sans-serif" font-size="13" lengthAdjust="spacing" textLength="99" x="385.5" y="232.8623">updatePath(path)</text><polygon fill="#181818" points="718.5,264.0703,728.5,268.0703,718.5,272.0703,722.5,268.0703" style="stroke:#181818;stroke-width:1.0;"/><line style="stroke:#181818;stroke-width:1.0;" x1="582.5" x2="724.5" y1="268.0703" y2="268.0703"/><text fill="#000000" font-family="sans-serif" font-size="13" font-weight="bold" lengthAdjust="spacing" textLength="7" x="589.5" y="263.2139">4</text><text fill="#000000" font-family="sans-serif" font-size="13" lengthAdjust="spacing" textLength="64" x="600.5" y="263.2139">put(/Paths)</text><polygon fill="#181818" points="876.5,294.4219,886.5,298.4219,876.5,302.4219,880.5,298.4219" style="stroke:#181818;stroke-width:1.0;"/><line style="stroke:#181818;stroke-width:1.0;" x1="740.5" x2="882.5" y1="298.4219" y2="298.4219"/><text fill="#000000" font-family="sans-serif" font-size="13" font-weight="bold" lengthAdjust="spacing" textLength="7" x="747.5" y="293.5654">5</text><text fill="#000000" font-family="sans-serif" font-size="13" lengthAdjust="spacing" textLength="64" x="758.5" y="293.5654">put(/Paths)</text><polygon fill="#181818" points="989.5,324.7734,999.5,328.7734,989.5,332.7734,993.5,328.7734" style="stroke:#181818;stroke-width:1.0;"/><line style="stroke:#181818;stroke-width:1.0;" x1="898.5" x2="995.5" y1="328.7734" y2="328.7734"/><text fill="#000000" font-family="sans-serif" font-size="13" font-weight="bold" lengthAdjust="spacing" textLength="7" x="905.5" y="323.917">6</text><text fill="#000000" font-family="sans-serif" font-size="13" lengthAdjust="spacing" textLength="66" x="916.5" y="323.917">updatePath</text><polygon fill="#181818" points="1124.5,355.125,1134.5,359.125,1124.5,363.125,1128.5,359.125" style="stroke:#181818;stroke-width:1.0;"/><line style="stroke:#181818;stroke-width:1.0;" x1="1011.5" x2="1130.5" y1="359.125" y2="359.125"/><text fill="#000000" font-family="sans-serif" font-size="13" font-weight="bold" lengthAdjust="spacing" textLength="7" x="1018.5" y="354.2686">7</text><text fill="#000000" font-family="sans-serif" font-size="13" lengthAdjust="spacing" textLength="66" x="1029.5" y="354.2686">updatePath</text><polygon fill="#181818" points="1314.5,385.4766,1324.5,389.4766,1314.5,393.4766,1318.5,389.4766" style="stroke:#181818;stroke-width:1.0;"/><line style="stroke:#181818;stroke-width:1.0;" x1="1146.5" x2="1320.5" y1="389.4766" y2="389.4766"/><text fill="#000000" font-family="sans-serif" font-size="13" font-weight="bold" lengthAdjust="spacing" textLength="7" x="1153.5" y="384.6201">8</text><text fill="#000000" font-family="sans-serif" font-size="13" lengthAdjust="spacing" textLength="150" x="1164.5" y="384.6201">path = findByWarehouses</text><polygon fill="#181818" points="1826,445.8281,1836,449.8281,1826,453.8281,1830,449.8281" style="stroke:#181818;stroke-width:1.0;"/><line style="stroke:#181818;stroke-width:1.0;" x1="1146.5" x2="1832" y1="449.8281" y2="449.8281"/><text fill="#000000" font-family="sans-serif" font-size="13" font-weight="bold" lengthAdjust="spacing" textLength="7" x="1153.5" y="444.9717">9</text><text fill="#000000" font-family="sans-serif" font-size="13" lengthAdjust="spacing" textLength="75" x="1164.5" y="444.9717">updates data</text><polygon fill="#181818" points="1314.5,506.1797,1324.5,510.1797,1314.5,514.1797,1318.5,510.1797" style="stroke:#181818;stroke-width:1.0;"/><line style="stroke:#181818;stroke-width:1.0;" x1="1146.5" x2="1320.5" y1="510.1797" y2="510.1797"/><text fill="#000000" font-family="sans-serif" font-size="13" font-weight="bold" lengthAdjust="spacing" textLength="14" x="1153.5" y="505.3232">10</text><text fill="#000000" font-family="sans-serif" font-size="13" lengthAdjust="spacing" textLength="26" x="1171.5" y="505.3232">save</text><polygon fill="#181818" points="1505.5,536.5313,1515.5,540.5313,1505.5,544.5313,1509.5,540.5313" style="stroke:#181818;stroke-width:1.0;"/><line style="stroke:#181818;stroke-width:1.0;" x1="1336.5" x2="1511.5" y1="540.5313" y2="540.5313"/><text fill="#000000" font-family="sans-serif" font-size="13" font-weight="bold" lengthAdjust="spacing" textLength="14" x="1343.5" y="535.6748">11</text><text fill="#000000" font-family="sans-serif" font-size="13" lengthAdjust="spacing" textLength="144" x="1361.5" y="535.6748">pathDocument = findOne</text><polygon fill="#181818" points="1597.5,596.8828,1607.5,600.8828,1597.5,604.8828,1601.5,600.8828" style="stroke:#181818;stroke-width:1.0;"/><line style="stroke:#181818;stroke-width:1.0;" x1="1336.5" x2="1603.5" y1="600.8828" y2="600.8828"/><text fill="#000000" font-family="sans-serif" font-size="13" font-weight="bold" lengthAdjust="spacing" textLength="14" x="1343.5" y="596.0264">12</text><text fill="#000000" font-family="sans-serif" font-size="13" lengthAdjust="spacing" textLength="39" x="1361.5" y="596.0264">isValid</text><path d="M10,615.8828 L71,615.8828 L71,624.2344 L61,634.2344 L10,634.2344 L10,615.8828 " fill="#EEEEEE" style="stroke:#000000;stroke-width:1.5;"/><rect fill="none" height="261.1641" style="stroke:#000000;stroke-width:1.5;" width="1649.5" x="10" y="615.8828"/><text fill="#000000" font-family="sans-serif" font-size="13" font-weight="bold" lengthAdjust="spacing" textLength="16" x="25" y="630.3779">alt</text><text fill="#000000" font-family="sans-serif" font-size="11" font-weight="bold" lengthAdjust="spacing" textLength="48" x="86" y="629.3018">[!isValid]</text><polygon fill="#181818" points="1347.5,652.5859,1337.5,656.5859,1347.5,660.5859,1343.5,656.5859" style="stroke:#181818;stroke-width:1.0;"/><line style="stroke:#181818;stroke-width:1.0;stroke-dasharray:2.0,2.0;" x1="1341.5" x2="1613.5" y1="656.5859" y2="656.5859"/><text fill="#000000" font-family="sans-serif" font-size="13" font-weight="bold" lengthAdjust="spacing" textLength="14" x="1353.5" y="651.7295">13</text><text fill="#000000" font-family="sans-serif" font-size="13" lengthAdjust="spacing" textLength="83" x="1371.5" y="651.7295">error message</text><polygon fill="#181818" points="1157.5,682.9375,1147.5,686.9375,1157.5,690.9375,1153.5,686.9375" style="stroke:#181818;stroke-width:1.0;"/><line style="stroke:#181818;stroke-width:1.0;stroke-dasharray:2.0,2.0;" x1="1151.5" x2="1325.5" y1="686.9375" y2="686.9375"/><text fill="#000000" font-family="sans-serif" font-size="13" font-weight="bold" lengthAdjust="spacing" textLength="14" x="1163.5" y="682.0811">14</text><text fill="#000000" font-family="sans-serif" font-size="13" lengthAdjust="spacing" textLength="83" x="1181.5" y="682.0811">error message</text><polygon fill="#181818" points="1022.5,713.2891,1012.5,717.2891,1022.5,721.2891,1018.5,717.2891" style="stroke:#181818;stroke-width:1.0;"/><line style="stroke:#181818;stroke-width:1.0;stroke-dasharray:2.0,2.0;" x1="1016.5" x2="1135.5" y1="717.2891" y2="717.2891"/><text fill="#000000" font-family="sans-serif" font-size="13" font-weight="bold" lengthAdjust="spacing" textLength="14" x="1028.5" y="712.4326">15</text><text fill="#000000" font-family="sans-serif" font-size="13" lengthAdjust="spacing" textLength="83" x="1046.5" y="712.4326">error message</text><polygon fill="#181818" points="909.5,743.6406,899.5,747.6406,909.5,751.6406,905.5,747.6406" style="stroke:#181818;stroke-width:1.0;"/><line style="stroke:#181818;stroke-width:1.0;stroke-dasharray:2.0,2.0;" x1="903.5" x2="1000.5" y1="747.6406" y2="747.6406"/><text fill="#000000" font-family="sans-serif" font-size="13" font-weight="bold" lengthAdjust="spacing" textLength="14" x="915.5" y="742.7842">16</text><text fill="#000000" font-family="sans-serif" font-size="13" lengthAdjust="spacing" textLength="61" x="933.5" y="742.7842">status 400</text><polygon fill="#181818" points="751.5,773.9922,741.5,777.9922,751.5,781.9922,747.5,777.9922" style="stroke:#181818;stroke-width:1.0;"/><line style="stroke:#181818;stroke-width:1.0;stroke-dasharray:2.0,2.0;" x1="745.5" x2="887.5" y1="777.9922" y2="777.9922"/><text fill="#000000" font-family="sans-serif" font-size="13" font-weight="bold" lengthAdjust="spacing" textLength="14" x="757.5" y="773.1357">17</text><text fill="#000000" font-family="sans-serif" font-size="13" lengthAdjust="spacing" textLength="91" x="775.5" y="773.1357">failure message</text><polygon fill="#181818" points="593.5,804.3438,583.5,808.3438,593.5,812.3438,589.5,808.3438" style="stroke:#181818;stroke-width:1.0;"/><line style="stroke:#181818;stroke-width:1.0;stroke-dasharray:2.0,2.0;" x1="587.5" x2="729.5" y1="808.3438" y2="808.3438"/><text fill="#000000" font-family="sans-serif" font-size="13" font-weight="bold" lengthAdjust="spacing" textLength="14" x="599.5" y="803.4873">18</text><text fill="#000000" font-family="sans-serif" font-size="13" lengthAdjust="spacing" textLength="91" x="617.5" y="803.4873">failure message</text><polygon fill="#181818" points="378.5,834.6953,368.5,838.6953,378.5,842.6953,374.5,838.6953" style="stroke:#181818;stroke-width:1.0;"/><line style="stroke:#181818;stroke-width:1.0;" x1="372.5" x2="571.5" y1="838.6953" y2="838.6953"/><text fill="#000000" font-family="sans-serif" font-size="13" font-weight="bold" lengthAdjust="spacing" textLength="14" x="384.5" y="833.8389">19</text><text fill="#000000" font-family="sans-serif" font-size="13" lengthAdjust="spacing" textLength="91" x="402.5" y="833.8389">failure message</text><polygon fill="#181818" points="44.5,865.0469,34.5,869.0469,44.5,873.0469,40.5,869.0469" style="stroke:#181818;stroke-width:1.0;"/><line style="stroke:#181818;stroke-width:1.0;stroke-dasharray:2.0,2.0;" x1="38.5" x2="356.5" y1="869.0469" y2="869.0469"/><text fill="#000000" font-family="sans-serif" font-size="13" font-weight="bold" lengthAdjust="spacing" textLength="14" x="50.5" y="864.1904">20</text><text fill="#000000" font-family="sans-serif" font-size="13" lengthAdjust="spacing" textLength="136" x="68.5" y="864.1904">display failure message</text><polygon fill="#181818" points="1912.5,902.3984,1922.5,906.3984,1912.5,910.3984,1916.5,906.3984" style="stroke:#181818;stroke-width:1.0;"/><line style="stroke:#181818;stroke-width:1.0;" x1="1336.5" x2="1918.5" y1="906.3984" y2="906.3984"/><text fill="#000000" font-family="sans-serif" font-size="13" font-weight="bold" lengthAdjust="spacing" textLength="14" x="1343.5" y="901.542">21</text><text fill="#000000" font-family="sans-serif" font-size="13" lengthAdjust="spacing" textLength="75" x="1361.5" y="901.542">updates data</text><polygon fill="#181818" points="1759,962.75,1769,966.75,1759,970.75,1763,966.75" style="stroke:#181818;stroke-width:1.0;"/><line style="stroke:#181818;stroke-width:1.0;" x1="1336.5" x2="1765" y1="966.75" y2="966.75"/><text fill="#000000" font-family="sans-serif" font-size="13" font-weight="bold" lengthAdjust="spacing" textLength="14" x="1343.5" y="961.8936">22</text><text fill="#000000" font-family="sans-serif" font-size="13" lengthAdjust="spacing" textLength="26" x="1361.5" y="961.8936">save</text><polygon fill="#181818" points="1157.5,1023.1016,1147.5,1027.1016,1157.5,1031.1016,1153.5,1027.1016" style="stroke:#181818;stroke-width:1.0;"/><line style="stroke:#181818;stroke-width:1.0;stroke-dasharray:2.0,2.0;" x1="1151.5" x2="1330.5" y1="1027.1016" y2="1027.1016"/><text fill="#000000" font-family="sans-serif" font-size="13" font-weight="bold" lengthAdjust="spacing" textLength="14" x="1163.5" y="1022.2451">23</text><text fill="#000000" font-family="sans-serif" font-size="13" lengthAdjust="spacing" textLength="62" x="1181.5" y="1022.2451">pathResult</text><polygon fill="#181818" points="1679,1053.4531,1689,1057.4531,1679,1061.4531,1683,1057.4531" style="stroke:#181818;stroke-width:1.0;"/><line style="stroke:#181818;stroke-width:1.0;" x1="1146.5" x2="1685" y1="1057.4531" y2="1057.4531"/><text fill="#000000" font-family="sans-serif" font-size="13" font-weight="bold" lengthAdjust="spacing" textLength="14" x="1153.5" y="1052.5967">24</text><text fill="#000000" font-family="sans-serif" font-size="13" lengthAdjust="spacing" textLength="37" x="1171.5" y="1052.5967">toDTO</text><polygon fill="#181818" points="1022.5,1113.8047,1012.5,1117.8047,1022.5,1121.8047,1018.5,1117.8047" style="stroke:#181818;stroke-width:1.0;"/><line style="stroke:#181818;stroke-width:1.0;stroke-dasharray:2.0,2.0;" x1="1016.5" x2="1140.5" y1="1117.8047" y2="1117.8047"/><text fill="#000000" font-family="sans-serif" font-size="13" font-weight="bold" lengthAdjust="spacing" textLength="14" x="1028.5" y="1112.9482">25</text><text fill="#000000" font-family="sans-serif" font-size="13" lengthAdjust="spacing" textLength="14" x="1046.5" y="1112.9482">ok</text><polygon fill="#181818" points="909.5,1169.5078,899.5,1173.5078,909.5,1177.5078,905.5,1173.5078" style="stroke:#181818;stroke-width:1.0;"/><line style="stroke:#181818;stroke-width:1.0;stroke-dasharray:2.0,2.0;" x1="903.5" x2="1005.5" y1="1173.5078" y2="1173.5078"/><text fill="#000000" font-family="sans-serif" font-size="13" font-weight="bold" lengthAdjust="spacing" textLength="14" x="915.5" y="1168.6514">26</text><text fill="#000000" font-family="sans-serif" font-size="13" lengthAdjust="spacing" textLength="61" x="933.5" y="1168.6514">status 200</text><polygon fill="#181818" points="751.5,1199.8594,741.5,1203.8594,751.5,1207.8594,747.5,1203.8594" style="stroke:#181818;stroke-width:1.0;"/><line style="stroke:#181818;stroke-width:1.0;stroke-dasharray:2.0,2.0;" x1="745.5" x2="892.5" y1="1203.8594" y2="1203.8594"/><text fill="#000000" font-family="sans-serif" font-size="13" font-weight="bold" lengthAdjust="spacing" textLength="14" x="757.5" y="1199.0029">27</text><text fill="#000000" font-family="sans-serif" font-size="13" lengthAdjust="spacing" textLength="106" x="775.5" y="1199.0029">success message</text><polygon fill="#181818" points="593.5,1230.2109,583.5,1234.2109,593.5,1238.2109,589.5,1234.2109" style="stroke:#181818;stroke-width:1.0;"/><line style="stroke:#181818;stroke-width:1.0;stroke-dasharray:2.0,2.0;" x1="587.5" x2="734.5" y1="1234.2109" y2="1234.2109"/><text fill="#000000" font-family="sans-serif" font-size="13" font-weight="bold" lengthAdjust="spacing" textLength="14" x="599.5" y="1229.3545">28</text><text fill="#000000" font-family="sans-serif" font-size="13" lengthAdjust="spacing" textLength="106" x="617.5" y="1229.3545">success message</text><polygon fill="#181818" points="378.5,1260.5625,368.5,1264.5625,378.5,1268.5625,374.5,1264.5625" style="stroke:#181818;stroke-width:1.0;"/><line style="stroke:#181818;stroke-width:1.0;stroke-dasharray:2.0,2.0;" x1="372.5" x2="576.5" y1="1264.5625" y2="1264.5625"/><text fill="#000000" font-family="sans-serif" font-size="13" font-weight="bold" lengthAdjust="spacing" textLength="14" x="384.5" y="1259.7061">29</text><text fill="#000000" font-family="sans-serif" font-size="13" lengthAdjust="spacing" textLength="106" x="402.5" y="1259.7061">success message</text><polygon fill="#181818" points="44.5,1290.9141,34.5,1294.9141,44.5,1298.9141,40.5,1294.9141" style="stroke:#181818;stroke-width:1.0;"/><line style="stroke:#181818;stroke-width:1.0;stroke-dasharray:2.0,2.0;" x1="38.5" x2="356.5" y1="1294.9141" y2="1294.9141"/><text fill="#000000" font-family="sans-serif" font-size="13" font-weight="bold" lengthAdjust="spacing" textLength="14" x="50.5" y="1290.0576">30</text><text fill="#000000" font-family="sans-serif" font-size="13" lengthAdjust="spacing" textLength="151" x="68.5" y="1290.0576">display success message</text><!--MD5=[90f4e786740038c13477512d9ee5d2c2]
@startuml

autonumber
actor "GL" as GL
participant "PathComponent" as COMP
participant "PathServiceService" as SS
participant "MDL" as MDL
participant "PathRoute" as ROUTE
participant "PathController" as CTR
participant "PathService" as SERVICE
participant "Path" as Path
participant "PathRepo" as REPO
participant "PathSchema" as SCHEMA
participant "PathMap" as MAP
participant "PathDTO" as DTO
database "Database" as DB
participant "path\n:Path" as path
participant "pathDocument" as DOC

GL-> COMP : introduces the data(idWarehouseStart,\nidWarehouseEnd,distance,time,energy,extraTime)
activate COMP
COMP -> COMP : updatePath(idWarehouseStart,\nidWarehouseEnd,distance,time,\nenergy,extraTime)
activate COMP
COMP -> SS : updatePath(path)
activate SS
SS -> MDL : put(/Paths)
activate MDL
MDL -> ROUTE: put(/Paths)
activate ROUTE
ROUTE -> CTR : updatePath
activate CTR
CTR -> SERVICE : updatePath
activate SERVICE
SERVICE -> REPO : path = findByWarehouses
activate REPO
deactivate REPO
SERVICE -> path : updates data
activate path
deactivate path
SERVICE -> REPO : save
activate REPO
REPO -> SCHEMA : pathDocument = findOne
activate SCHEMA
deactivate SCHEMA
REPO -> MAP : isValid
activate MAP
alt !isValid
MAP - -> REPO: error message
deactivate MAP
SERVICE <- -REPO : error message
CTR <- - SERVICE : error message
ROUTE <- - CTR : status 400
MDL <- - ROUTE :  failure message

MDL - -> SS :  failure message
SS -> COMP : failure message
GL<- - COMP : display failure message
end
deactivate MAP
REPO -> DOC : updates data
activate DOC
deactivate DOC
REPO -> DB : save
activate DB
deactivate DB 
REPO - -> SERVICE : pathResult
deactivate REPO
SERVICE -> DTO : toDTO
activate DTO
deactivate DTO
SERVICE - -> CTR : ok
deactivate SERVICE
alt success
CTR - -> ROUTE : status 200
deactivate CTR
ROUTE - -> MDL :  success message
deactivate ROUTE
MDL - -> SS  :  success message
deactivate MDL
SS - -> COMP : success message
deactivate SS
deactivate MDL
GL<- - COMP : display success message

@enduml

PlantUML version 1.2022.7(Mon Aug 22 18:01:30 WEST 2022)
(GPL source distribution)
Java Runtime: Java(TM) SE Runtime Environment
JVM: Java HotSpot(TM) 64-Bit Server VM
Default Encoding: Cp1252
Language: pt
Country: PT
--></g></svg>