<?xml version="1.0" encoding="UTF-8" standalone="no"?><svg xmlns="http://www.w3.org/2000/svg" xmlns:xlink="http://www.w3.org/1999/xlink" contentStyleType="text/css" height="1345px" preserveAspectRatio="none" style="width:2276px;height:1345px;background:#FFFFFF;" version="1.1" viewBox="0 0 2276 1345" width="2276px" zoomAndPan="magnify"><defs/><g><rect fill="#FFFFFF" height="1139.8984" style="stroke:#181818;stroke-width:1.0;" width="10" x="347.5" y="114.9609"/><rect fill="#FFFFFF" height="1101.5469" style="stroke:#181818;stroke-width:1.0;" width="10" x="352.5" y="153.3125"/><rect fill="#FFFFFF" height="1026.8438" style="stroke:#181818;stroke-width:1.0;" width="10" x="641.5" y="188.6641"/><rect fill="#FFFFFF" height="966.1406" style="stroke:#181818;stroke-width:1.0;" width="10" x="844.5" y="219.0156"/><rect fill="#FFFFFF" height="905.4375" style="stroke:#181818;stroke-width:1.0;" width="10" x="1047.5" y="249.3672"/><rect fill="#FFFFFF" height="844.7344" style="stroke:#181818;stroke-width:1.0;" width="10" x="1173.5" y="279.7188"/><rect fill="#FFFFFF" height="758.6797" style="stroke:#181818;stroke-width:1.0;" width="10" x="1308.5" y="310.0703"/><rect fill="#FFFFFF" height="30" style="stroke:#181818;stroke-width:1.0;" width="10" x="1499.5" y="340.4219"/><rect fill="#FFFFFF" height="516.9219" style="stroke:#181818;stroke-width:1.0;" width="10" x="1499.5" y="461.125"/><rect fill="#FFFFFF" height="30" style="stroke:#181818;stroke-width:1.0;" width="10" x="1710.5" y="491.4766"/><rect fill="#FFFFFF" height="55.7031" style="stroke:#181818;stroke-width:1.0;" width="10" x="1823.5" y="551.8281"/><rect fill="#FFFFFF" height="30" style="stroke:#181818;stroke-width:1.0;" width="10" x="1926" y="1008.3984"/><rect fill="#FFFFFF" height="30" style="stroke:#181818;stroke-width:1.0;" width="10" x="2016.5" y="917.6953"/><rect fill="#FFFFFF" height="30" style="stroke:#181818;stroke-width:1.0;" width="10" x="2094" y="400.7734"/><rect fill="#FFFFFF" height="30" style="stroke:#181818;stroke-width:1.0;" width="10" x="2201.5" y="857.3438"/><rect fill="none" height="261.1641" style="stroke:#000000;stroke-width:1.5;" width="1874" x="10" y="566.8281"/><line style="stroke:#181818;stroke-width:0.5;stroke-dasharray:5.0,5.0;" x1="33" x2="33" y1="82.6094" y2="1263.8594"/><line style="stroke:#181818;stroke-width:0.5;stroke-dasharray:5.0,5.0;" x1="352" x2="352" y1="82.6094" y2="1263.8594"/><line style="stroke:#181818;stroke-width:0.5;stroke-dasharray:5.0,5.0;" x1="646.5" x2="646.5" y1="82.6094" y2="1263.8594"/><line style="stroke:#181818;stroke-width:0.5;stroke-dasharray:5.0,5.0;" x1="849" x2="849" y1="82.6094" y2="1263.8594"/><line style="stroke:#181818;stroke-width:0.5;stroke-dasharray:5.0,5.0;" x1="1052.5" x2="1052.5" y1="82.6094" y2="1263.8594"/><line style="stroke:#181818;stroke-width:0.5;stroke-dasharray:5.0,5.0;" x1="1178.5" x2="1178.5" y1="82.6094" y2="1263.8594"/><line style="stroke:#181818;stroke-width:0.5;stroke-dasharray:5.0,5.0;" x1="1313" x2="1313" y1="82.6094" y2="1263.8594"/><line style="stroke:#181818;stroke-width:0.5;stroke-dasharray:5.0,5.0;" x1="1411" x2="1411" y1="82.6094" y2="1263.8594"/><line style="stroke:#181818;stroke-width:0.5;stroke-dasharray:5.0,5.0;" x1="1504.5" x2="1504.5" y1="82.6094" y2="1263.8594"/><line style="stroke:#181818;stroke-width:0.5;stroke-dasharray:5.0,5.0;" x1="1715" x2="1715" y1="82.6094" y2="1263.8594"/><line style="stroke:#181818;stroke-width:0.5;stroke-dasharray:5.0,5.0;" x1="1828" x2="1828" y1="82.6094" y2="1263.8594"/><line style="stroke:#181818;stroke-width:0.5;stroke-dasharray:5.0,5.0;" x1="1931" x2="1931" y1="82.6094" y2="1263.8594"/><line style="stroke:#181818;stroke-width:0.5;stroke-dasharray:5.0,5.0;" x1="2021" x2="2021" y1="82.6094" y2="1263.8594"/><line style="stroke:#181818;stroke-width:0.5;stroke-dasharray:5.0,5.0;" x1="2099" x2="2099" y1="82.6094" y2="1263.8594"/><line style="stroke:#181818;stroke-width:0.5;stroke-dasharray:5.0,5.0;" x1="2206" x2="2206" y1="82.6094" y2="1263.8594"/><text fill="#000000" font-family="sans-serif" font-size="14" lengthAdjust="spacing" textLength="19" x="21" y="79.5332">GL</text><ellipse cx="33.5" cy="13.5" fill="#E2E2F0" rx="8" ry="8" style="stroke:#181818;stroke-width:0.5;"/><path d="M33.5,21.5 L33.5,48.5 M20.5,29.5 L46.5,29.5 M33.5,48.5 L20.5,63.5 M33.5,48.5 L46.5,63.5 " fill="none" style="stroke:#181818;stroke-width:0.5;"/><text fill="#000000" font-family="sans-serif" font-size="14" lengthAdjust="spacing" textLength="19" x="21" y="1277.3926">GL</text><ellipse cx="33.5" cy="1288.9688" fill="#E2E2F0" rx="8" ry="8" style="stroke:#181818;stroke-width:0.5;"/><path d="M33.5,1296.9688 L33.5,1323.9688 M20.5,1304.9688 L46.5,1304.9688 M33.5,1323.9688 L20.5,1338.9688 M33.5,1323.9688 L46.5,1338.9688 " fill="none" style="stroke:#181818;stroke-width:0.5;"/><rect fill="#E2E2F0" height="31.6094" rx="2.5" ry="2.5" style="stroke:#181818;stroke-width:0.5;" width="137" x="284" y="50"/><text fill="#000000" font-family="sans-serif" font-size="14" lengthAdjust="spacing" textLength="123" x="291" y="71.5332">PackingComponent</text><rect fill="#E2E2F0" height="31.6094" rx="2.5" ry="2.5" style="stroke:#181818;stroke-width:0.5;" width="137" x="284" y="1262.8594"/><text fill="#000000" font-family="sans-serif" font-size="14" lengthAdjust="spacing" textLength="123" x="291" y="1284.3926">PackingComponent</text><rect fill="#E2E2F0" height="31.6094" rx="2.5" ry="2.5" style="stroke:#181818;stroke-width:0.5;" width="158" x="567.5" y="50"/><text fill="#000000" font-family="sans-serif" font-size="14" lengthAdjust="spacing" textLength="144" x="574.5" y="71.5332">PackingServiceService</text><rect fill="#E2E2F0" height="31.6094" rx="2.5" ry="2.5" style="stroke:#181818;stroke-width:0.5;" width="158" x="567.5" y="1262.8594"/><text fill="#000000" font-family="sans-serif" font-size="14" lengthAdjust="spacing" textLength="144" x="574.5" y="1284.3926">PackingServiceService</text><rect fill="#E2E2F0" height="31.6094" rx="2.5" ry="2.5" style="stroke:#181818;stroke-width:0.5;" width="43" x="828" y="50"/><text fill="#000000" font-family="sans-serif" font-size="14" lengthAdjust="spacing" textLength="29" x="835" y="71.5332">MDL</text><rect fill="#E2E2F0" height="31.6094" rx="2.5" ry="2.5" style="stroke:#181818;stroke-width:0.5;" width="43" x="828" y="1262.8594"/><text fill="#000000" font-family="sans-serif" font-size="14" lengthAdjust="spacing" textLength="29" x="835" y="1284.3926">MDL</text><rect fill="#E2E2F0" height="31.6094" rx="2.5" ry="2.5" style="stroke:#181818;stroke-width:0.5;" width="102" x="1001.5" y="50"/><text fill="#000000" font-family="sans-serif" font-size="14" lengthAdjust="spacing" textLength="88" x="1008.5" y="71.5332">PackingRoute</text><rect fill="#E2E2F0" height="31.6094" rx="2.5" ry="2.5" style="stroke:#181818;stroke-width:0.5;" width="102" x="1001.5" y="1262.8594"/><text fill="#000000" font-family="sans-serif" font-size="14" lengthAdjust="spacing" textLength="88" x="1008.5" y="1284.3926">PackingRoute</text><rect fill="#E2E2F0" height="31.6094" rx="2.5" ry="2.5" style="stroke:#181818;stroke-width:0.5;" width="126" x="1115.5" y="50"/><text fill="#000000" font-family="sans-serif" font-size="14" lengthAdjust="spacing" textLength="112" x="1122.5" y="71.5332">PackingController</text><rect fill="#E2E2F0" height="31.6094" rx="2.5" ry="2.5" style="stroke:#181818;stroke-width:0.5;" width="126" x="1115.5" y="1262.8594"/><text fill="#000000" font-family="sans-serif" font-size="14" lengthAdjust="spacing" textLength="112" x="1122.5" y="1284.3926">PackingController</text><rect fill="#E2E2F0" height="31.6094" rx="2.5" ry="2.5" style="stroke:#181818;stroke-width:0.5;" width="111" x="1258" y="50"/><text fill="#000000" font-family="sans-serif" font-size="14" lengthAdjust="spacing" textLength="97" x="1265" y="71.5332">PackingService</text><rect fill="#E2E2F0" height="31.6094" rx="2.5" ry="2.5" style="stroke:#181818;stroke-width:0.5;" width="111" x="1258" y="1262.8594"/><text fill="#000000" font-family="sans-serif" font-size="14" lengthAdjust="spacing" textLength="97" x="1265" y="1284.3926">PackingService</text><rect fill="#E2E2F0" height="31.6094" rx="2.5" ry="2.5" style="stroke:#181818;stroke-width:0.5;" width="64" x="1379" y="50"/><text fill="#000000" font-family="sans-serif" font-size="14" lengthAdjust="spacing" textLength="50" x="1386" y="71.5332">Packing</text><rect fill="#E2E2F0" height="31.6094" rx="2.5" ry="2.5" style="stroke:#181818;stroke-width:0.5;" width="64" x="1379" y="1262.8594"/><text fill="#000000" font-family="sans-serif" font-size="14" lengthAdjust="spacing" textLength="50" x="1386" y="1284.3926">Packing</text><rect fill="#E2E2F0" height="31.6094" rx="2.5" ry="2.5" style="stroke:#181818;stroke-width:0.5;" width="98" x="1455.5" y="50"/><text fill="#000000" font-family="sans-serif" font-size="14" lengthAdjust="spacing" textLength="84" x="1462.5" y="71.5332">PackingRepo</text><rect fill="#E2E2F0" height="31.6094" rx="2.5" ry="2.5" style="stroke:#181818;stroke-width:0.5;" width="98" x="1455.5" y="1262.8594"/><text fill="#000000" font-family="sans-serif" font-size="14" lengthAdjust="spacing" textLength="84" x="1462.5" y="1284.3926">PackingRepo</text><rect fill="#E2E2F0" height="31.6094" rx="2.5" ry="2.5" style="stroke:#181818;stroke-width:0.5;" width="115" x="1658" y="50"/><text fill="#000000" font-family="sans-serif" font-size="14" lengthAdjust="spacing" textLength="101" x="1665" y="71.5332">PackingSchema</text><rect fill="#E2E2F0" height="31.6094" rx="2.5" ry="2.5" style="stroke:#181818;stroke-width:0.5;" width="115" x="1658" y="1262.8594"/><text fill="#000000" font-family="sans-serif" font-size="14" lengthAdjust="spacing" textLength="101" x="1665" y="1284.3926">PackingSchema</text><rect fill="#E2E2F0" height="31.6094" rx="2.5" ry="2.5" style="stroke:#181818;stroke-width:0.5;" width="91" x="1783" y="50"/><text fill="#000000" font-family="sans-serif" font-size="14" lengthAdjust="spacing" textLength="77" x="1790" y="71.5332">PackingMap</text><rect fill="#E2E2F0" height="31.6094" rx="2.5" ry="2.5" style="stroke:#181818;stroke-width:0.5;" width="91" x="1783" y="1262.8594"/><text fill="#000000" font-family="sans-serif" font-size="14" lengthAdjust="spacing" textLength="77" x="1790" y="1284.3926">PackingMap</text><rect fill="#E2E2F0" height="31.6094" rx="2.5" ry="2.5" style="stroke:#181818;stroke-width:0.5;" width="94" x="1884" y="50"/><text fill="#000000" font-family="sans-serif" font-size="14" lengthAdjust="spacing" textLength="80" x="1891" y="71.5332">PackingDTO</text><rect fill="#E2E2F0" height="31.6094" rx="2.5" ry="2.5" style="stroke:#181818;stroke-width:0.5;" width="94" x="1884" y="1262.8594"/><text fill="#000000" font-family="sans-serif" font-size="14" lengthAdjust="spacing" textLength="80" x="1891" y="1284.3926">PackingDTO</text><text fill="#000000" font-family="sans-serif" font-size="14" lengthAdjust="spacing" textLength="61" x="1988" y="79.5332">Database</text><path d="M2003.5,29 C2003.5,19 2021.5,19 2021.5,19 C2021.5,19 2039.5,19 2039.5,29 L2039.5,55 C2039.5,65 2021.5,65 2021.5,65 C2021.5,65 2003.5,65 2003.5,55 L2003.5,29 " fill="#E2E2F0" style="stroke:#181818;stroke-width:1.5;"/><path d="M2003.5,29 C2003.5,39 2021.5,39 2021.5,39 C2021.5,39 2039.5,39 2039.5,29 " fill="none" style="stroke:#181818;stroke-width:1.5;"/><text fill="#000000" font-family="sans-serif" font-size="14" lengthAdjust="spacing" textLength="61" x="1988" y="1277.3926">Database</text><path d="M2003.5,1290.4688 C2003.5,1280.4688 2021.5,1280.4688 2021.5,1280.4688 C2021.5,1280.4688 2039.5,1280.4688 2039.5,1290.4688 L2039.5,1316.4688 C2039.5,1326.4688 2021.5,1326.4688 2021.5,1326.4688 C2021.5,1326.4688 2003.5,1326.4688 2003.5,1316.4688 L2003.5,1290.4688 " fill="#E2E2F0" style="stroke:#181818;stroke-width:1.5;"/><path d="M2003.5,1290.4688 C2003.5,1300.4688 2021.5,1300.4688 2021.5,1300.4688 C2021.5,1300.4688 2039.5,1300.4688 2039.5,1290.4688 " fill="none" style="stroke:#181818;stroke-width:1.5;"/><rect fill="#E2E2F0" height="49.2188" rx="2.5" ry="2.5" style="stroke:#181818;stroke-width:0.5;" width="68" x="2065" y="32.3906"/><text fill="#000000" font-family="sans-serif" font-size="14" lengthAdjust="spacing" textLength="49" x="2074.5" y="53.9238">packing</text><text fill="#000000" font-family="sans-serif" font-size="14" lengthAdjust="spacing" textLength="54" x="2072" y="71.5332">:Packing</text><rect fill="#E2E2F0" height="49.2188" rx="2.5" ry="2.5" style="stroke:#181818;stroke-width:0.5;" width="68" x="2065" y="1262.8594"/><text fill="#000000" font-family="sans-serif" font-size="14" lengthAdjust="spacing" textLength="49" x="2074.5" y="1284.3926">packing</text><text fill="#000000" font-family="sans-serif" font-size="14" lengthAdjust="spacing" textLength="54" x="2072" y="1302.002">:Packing</text><rect fill="#E2E2F0" height="31.6094" rx="2.5" ry="2.5" style="stroke:#181818;stroke-width:0.5;" width="127" x="2143" y="50"/><text fill="#000000" font-family="sans-serif" font-size="14" lengthAdjust="spacing" textLength="113" x="2150" y="71.5332">packingDocument</text><rect fill="#E2E2F0" height="31.6094" rx="2.5" ry="2.5" style="stroke:#181818;stroke-width:0.5;" width="127" x="2143" y="1262.8594"/><text fill="#000000" font-family="sans-serif" font-size="14" lengthAdjust="spacing" textLength="113" x="2150" y="1284.3926">packingDocument</text><rect fill="#FFFFFF" height="1139.8984" style="stroke:#181818;stroke-width:1.0;" width="10" x="347.5" y="114.9609"/><rect fill="#FFFFFF" height="1101.5469" style="stroke:#181818;stroke-width:1.0;" width="10" x="352.5" y="153.3125"/><rect fill="#FFFFFF" height="1026.8438" style="stroke:#181818;stroke-width:1.0;" width="10" x="641.5" y="188.6641"/><rect fill="#FFFFFF" height="966.1406" style="stroke:#181818;stroke-width:1.0;" width="10" x="844.5" y="219.0156"/><rect fill="#FFFFFF" height="905.4375" style="stroke:#181818;stroke-width:1.0;" width="10" x="1047.5" y="249.3672"/><rect fill="#FFFFFF" height="844.7344" style="stroke:#181818;stroke-width:1.0;" width="10" x="1173.5" y="279.7188"/><rect fill="#FFFFFF" height="758.6797" style="stroke:#181818;stroke-width:1.0;" width="10" x="1308.5" y="310.0703"/><rect fill="#FFFFFF" height="30" style="stroke:#181818;stroke-width:1.0;" width="10" x="1499.5" y="340.4219"/><rect fill="#FFFFFF" height="516.9219" style="stroke:#181818;stroke-width:1.0;" width="10" x="1499.5" y="461.125"/><rect fill="#FFFFFF" height="30" style="stroke:#181818;stroke-width:1.0;" width="10" x="1710.5" y="491.4766"/><rect fill="#FFFFFF" height="55.7031" style="stroke:#181818;stroke-width:1.0;" width="10" x="1823.5" y="551.8281"/><rect fill="#FFFFFF" height="30" style="stroke:#181818;stroke-width:1.0;" width="10" x="1926" y="1008.3984"/><rect fill="#FFFFFF" height="30" style="stroke:#181818;stroke-width:1.0;" width="10" x="2016.5" y="917.6953"/><rect fill="#FFFFFF" height="30" style="stroke:#181818;stroke-width:1.0;" width="10" x="2094" y="400.7734"/><rect fill="#FFFFFF" height="30" style="stroke:#181818;stroke-width:1.0;" width="10" x="2201.5" y="857.3438"/><polygon fill="#181818" points="335.5,110.9609,345.5,114.9609,335.5,118.9609,339.5,114.9609" style="stroke:#181818;stroke-width:1.0;"/><line style="stroke:#181818;stroke-width:1.0;" x1="33.5" x2="341.5" y1="114.9609" y2="114.9609"/><text fill="#000000" font-family="sans-serif" font-size="13" font-weight="bold" lengthAdjust="spacing" textLength="7" x="40.5" y="110.1045">1</text><text fill="#000000" font-family="sans-serif" font-size="13" lengthAdjust="spacing" textLength="284" x="51.5" y="110.1045">introduces the data(truckPlate,deliveryId,position)</text><line style="stroke:#181818;stroke-width:1.0;" x1="357.5" x2="404.5" y1="140.3125" y2="140.3125"/><line style="stroke:#181818;stroke-width:1.0;" x1="404.5" x2="404.5" y1="140.3125" y2="153.3125"/><line style="stroke:#181818;stroke-width:1.0;" x1="363.5" x2="404.5" y1="153.3125" y2="153.3125"/><polygon fill="#181818" points="373.5,149.3125,363.5,153.3125,373.5,157.3125,369.5,153.3125" style="stroke:#181818;stroke-width:1.0;"/><text fill="#000000" font-family="sans-serif" font-size="13" font-weight="bold" lengthAdjust="spacing" textLength="7" x="369.5" y="135.4561">2</text><text fill="#000000" font-family="sans-serif" font-size="13" lengthAdjust="spacing" textLength="259" x="380.5" y="135.4561">updatePacking(truckPlate,deliveryId,position)</text><polygon fill="#181818" points="629.5,184.6641,639.5,188.6641,629.5,192.6641,633.5,188.6641" style="stroke:#181818;stroke-width:1.0;"/><line style="stroke:#181818;stroke-width:1.0;" x1="362.5" x2="635.5" y1="188.6641" y2="188.6641"/><text fill="#000000" font-family="sans-serif" font-size="13" font-weight="bold" lengthAdjust="spacing" textLength="7" x="369.5" y="183.8076">3</text><text fill="#000000" font-family="sans-serif" font-size="13" lengthAdjust="spacing" textLength="139" x="380.5" y="183.8076">updatePacking(packing)</text><polygon fill="#181818" points="832.5,215.0156,842.5,219.0156,832.5,223.0156,836.5,219.0156" style="stroke:#181818;stroke-width:1.0;"/><line style="stroke:#181818;stroke-width:1.0;" x1="651.5" x2="838.5" y1="219.0156" y2="219.0156"/><text fill="#000000" font-family="sans-serif" font-size="13" font-weight="bold" lengthAdjust="spacing" textLength="7" x="658.5" y="214.1592">4</text><text fill="#000000" font-family="sans-serif" font-size="13" lengthAdjust="spacing" textLength="84" x="669.5" y="214.1592">put(/Packings)</text><polygon fill="#181818" points="1035.5,245.3672,1045.5,249.3672,1035.5,253.3672,1039.5,249.3672" style="stroke:#181818;stroke-width:1.0;"/><line style="stroke:#181818;stroke-width:1.0;" x1="854.5" x2="1041.5" y1="249.3672" y2="249.3672"/><text fill="#000000" font-family="sans-serif" font-size="13" font-weight="bold" lengthAdjust="spacing" textLength="7" x="861.5" y="244.5107">5</text><text fill="#000000" font-family="sans-serif" font-size="13" lengthAdjust="spacing" textLength="18" x="872.5" y="244.5107">put</text><polygon fill="#181818" points="1161.5,275.7188,1171.5,279.7188,1161.5,283.7188,1165.5,279.7188" style="stroke:#181818;stroke-width:1.0;"/><line style="stroke:#181818;stroke-width:1.0;" x1="1057.5" x2="1167.5" y1="279.7188" y2="279.7188"/><text fill="#000000" font-family="sans-serif" font-size="13" font-weight="bold" lengthAdjust="spacing" textLength="7" x="1064.5" y="274.8623">6</text><text fill="#000000" font-family="sans-serif" font-size="13" lengthAdjust="spacing" textLength="86" x="1075.5" y="274.8623">updatePacking</text><polygon fill="#181818" points="1296.5,306.0703,1306.5,310.0703,1296.5,314.0703,1300.5,310.0703" style="stroke:#181818;stroke-width:1.0;"/><line style="stroke:#181818;stroke-width:1.0;" x1="1183.5" x2="1302.5" y1="310.0703" y2="310.0703"/><text fill="#000000" font-family="sans-serif" font-size="13" font-weight="bold" lengthAdjust="spacing" textLength="7" x="1190.5" y="305.2139">7</text><text fill="#000000" font-family="sans-serif" font-size="13" lengthAdjust="spacing" textLength="93" x="1201.5" y="305.2139">updatePackings</text><polygon fill="#181818" points="1487.5,336.4219,1497.5,340.4219,1487.5,344.4219,1491.5,340.4219" style="stroke:#181818;stroke-width:1.0;"/><line style="stroke:#181818;stroke-width:1.0;" x1="1318.5" x2="1493.5" y1="340.4219" y2="340.4219"/><text fill="#000000" font-family="sans-serif" font-size="13" font-weight="bold" lengthAdjust="spacing" textLength="7" x="1325.5" y="335.5654">8</text><text fill="#000000" font-family="sans-serif" font-size="13" lengthAdjust="spacing" textLength="151" x="1336.5" y="335.5654">packing = findByDomainId</text><polygon fill="#181818" points="2082,396.7734,2092,400.7734,2082,404.7734,2086,400.7734" style="stroke:#181818;stroke-width:1.0;"/><line style="stroke:#181818;stroke-width:1.0;" x1="1318.5" x2="2088" y1="400.7734" y2="400.7734"/><text fill="#000000" font-family="sans-serif" font-size="13" font-weight="bold" lengthAdjust="spacing" textLength="7" x="1325.5" y="395.917">9</text><text fill="#000000" font-family="sans-serif" font-size="13" lengthAdjust="spacing" textLength="75" x="1336.5" y="395.917">updates data</text><polygon fill="#181818" points="1487.5,457.125,1497.5,461.125,1487.5,465.125,1491.5,461.125" style="stroke:#181818;stroke-width:1.0;"/><line style="stroke:#181818;stroke-width:1.0;" x1="1318.5" x2="1493.5" y1="461.125" y2="461.125"/><text fill="#000000" font-family="sans-serif" font-size="13" font-weight="bold" lengthAdjust="spacing" textLength="14" x="1325.5" y="456.2686">10</text><text fill="#000000" font-family="sans-serif" font-size="13" lengthAdjust="spacing" textLength="26" x="1343.5" y="456.2686">save</text><polygon fill="#181818" points="1698.5,487.4766,1708.5,491.4766,1698.5,495.4766,1702.5,491.4766" style="stroke:#181818;stroke-width:1.0;"/><line style="stroke:#181818;stroke-width:1.0;" x1="1509.5" x2="1704.5" y1="491.4766" y2="491.4766"/><text fill="#000000" font-family="sans-serif" font-size="13" font-weight="bold" lengthAdjust="spacing" textLength="14" x="1516.5" y="486.6201">11</text><text fill="#000000" font-family="sans-serif" font-size="13" lengthAdjust="spacing" textLength="164" x="1534.5" y="486.6201">packingDocument = findOne</text><polygon fill="#181818" points="1811.5,547.8281,1821.5,551.8281,1811.5,555.8281,1815.5,551.8281" style="stroke:#181818;stroke-width:1.0;"/><line style="stroke:#181818;stroke-width:1.0;" x1="1509.5" x2="1817.5" y1="551.8281" y2="551.8281"/><text fill="#000000" font-family="sans-serif" font-size="13" font-weight="bold" lengthAdjust="spacing" textLength="14" x="1516.5" y="546.9717">12</text><text fill="#000000" font-family="sans-serif" font-size="13" lengthAdjust="spacing" textLength="39" x="1534.5" y="546.9717">isValid</text><path d="M10,566.8281 L71,566.8281 L71,575.1797 L61,585.1797 L10,585.1797 L10,566.8281 " fill="#EEEEEE" style="stroke:#000000;stroke-width:1.5;"/><rect fill="none" height="261.1641" style="stroke:#000000;stroke-width:1.5;" width="1874" x="10" y="566.8281"/><text fill="#000000" font-family="sans-serif" font-size="13" font-weight="bold" lengthAdjust="spacing" textLength="16" x="25" y="581.3232">alt</text><text fill="#000000" font-family="sans-serif" font-size="11" font-weight="bold" lengthAdjust="spacing" textLength="48" x="86" y="580.2471">[!isValid]</text><polygon fill="#181818" points="1520.5,603.5313,1510.5,607.5313,1520.5,611.5313,1516.5,607.5313" style="stroke:#181818;stroke-width:1.0;"/><line style="stroke:#181818;stroke-width:1.0;stroke-dasharray:2.0,2.0;" x1="1514.5" x2="1827.5" y1="607.5313" y2="607.5313"/><text fill="#000000" font-family="sans-serif" font-size="13" font-weight="bold" lengthAdjust="spacing" textLength="14" x="1526.5" y="602.6748">13</text><text fill="#000000" font-family="sans-serif" font-size="13" lengthAdjust="spacing" textLength="83" x="1544.5" y="602.6748">error message</text><polygon fill="#181818" points="1329.5,633.8828,1319.5,637.8828,1329.5,641.8828,1325.5,637.8828" style="stroke:#181818;stroke-width:1.0;"/><line style="stroke:#181818;stroke-width:1.0;stroke-dasharray:2.0,2.0;" x1="1323.5" x2="1498.5" y1="637.8828" y2="637.8828"/><text fill="#000000" font-family="sans-serif" font-size="13" font-weight="bold" lengthAdjust="spacing" textLength="14" x="1335.5" y="633.0264">14</text><text fill="#000000" font-family="sans-serif" font-size="13" lengthAdjust="spacing" textLength="83" x="1353.5" y="633.0264">error message</text><polygon fill="#181818" points="1194.5,664.2344,1184.5,668.2344,1194.5,672.2344,1190.5,668.2344" style="stroke:#181818;stroke-width:1.0;"/><line style="stroke:#181818;stroke-width:1.0;stroke-dasharray:2.0,2.0;" x1="1188.5" x2="1307.5" y1="668.2344" y2="668.2344"/><text fill="#000000" font-family="sans-serif" font-size="13" font-weight="bold" lengthAdjust="spacing" textLength="14" x="1200.5" y="663.3779">15</text><text fill="#000000" font-family="sans-serif" font-size="13" lengthAdjust="spacing" textLength="83" x="1218.5" y="663.3779">error message</text><polygon fill="#181818" points="1068.5,694.5859,1058.5,698.5859,1068.5,702.5859,1064.5,698.5859" style="stroke:#181818;stroke-width:1.0;"/><line style="stroke:#181818;stroke-width:1.0;stroke-dasharray:2.0,2.0;" x1="1062.5" x2="1172.5" y1="698.5859" y2="698.5859"/><text fill="#000000" font-family="sans-serif" font-size="13" font-weight="bold" lengthAdjust="spacing" textLength="14" x="1074.5" y="693.7295">16</text><text fill="#000000" font-family="sans-serif" font-size="13" lengthAdjust="spacing" textLength="61" x="1092.5" y="693.7295">status 400</text><polygon fill="#181818" points="865.5,724.9375,855.5,728.9375,865.5,732.9375,861.5,728.9375" style="stroke:#181818;stroke-width:1.0;"/><line style="stroke:#181818;stroke-width:1.0;stroke-dasharray:2.0,2.0;" x1="859.5" x2="1046.5" y1="728.9375" y2="728.9375"/><text fill="#000000" font-family="sans-serif" font-size="13" font-weight="bold" lengthAdjust="spacing" textLength="14" x="871.5" y="724.0811">17</text><text fill="#000000" font-family="sans-serif" font-size="13" lengthAdjust="spacing" textLength="91" x="889.5" y="724.0811">failure message</text><polygon fill="#181818" points="662.5,755.2891,652.5,759.2891,662.5,763.2891,658.5,759.2891" style="stroke:#181818;stroke-width:1.0;"/><line style="stroke:#181818;stroke-width:1.0;stroke-dasharray:2.0,2.0;" x1="656.5" x2="843.5" y1="759.2891" y2="759.2891"/><text fill="#000000" font-family="sans-serif" font-size="13" font-weight="bold" lengthAdjust="spacing" textLength="14" x="668.5" y="754.4326">18</text><text fill="#000000" font-family="sans-serif" font-size="13" lengthAdjust="spacing" textLength="91" x="686.5" y="754.4326">failure message</text><polygon fill="#181818" points="373.5,785.6406,363.5,789.6406,373.5,793.6406,369.5,789.6406" style="stroke:#181818;stroke-width:1.0;"/><line style="stroke:#181818;stroke-width:1.0;" x1="367.5" x2="640.5" y1="789.6406" y2="789.6406"/><text fill="#000000" font-family="sans-serif" font-size="13" font-weight="bold" lengthAdjust="spacing" textLength="14" x="379.5" y="784.7842">19</text><text fill="#000000" font-family="sans-serif" font-size="13" lengthAdjust="spacing" textLength="91" x="397.5" y="784.7842">failure message</text><polygon fill="#181818" points="44.5,815.9922,34.5,819.9922,44.5,823.9922,40.5,819.9922" style="stroke:#181818;stroke-width:1.0;"/><line style="stroke:#181818;stroke-width:1.0;stroke-dasharray:2.0,2.0;" x1="38.5" x2="351.5" y1="819.9922" y2="819.9922"/><text fill="#000000" font-family="sans-serif" font-size="13" font-weight="bold" lengthAdjust="spacing" textLength="14" x="50.5" y="815.1357">20</text><text fill="#000000" font-family="sans-serif" font-size="13" lengthAdjust="spacing" textLength="136" x="68.5" y="815.1357">display failure message</text><polygon fill="#181818" points="2189.5,853.3438,2199.5,857.3438,2189.5,861.3438,2193.5,857.3438" style="stroke:#181818;stroke-width:1.0;"/><line style="stroke:#181818;stroke-width:1.0;" x1="1509.5" x2="2195.5" y1="857.3438" y2="857.3438"/><text fill="#000000" font-family="sans-serif" font-size="13" font-weight="bold" lengthAdjust="spacing" textLength="14" x="1516.5" y="852.4873">21</text><text fill="#000000" font-family="sans-serif" font-size="13" lengthAdjust="spacing" textLength="75" x="1534.5" y="852.4873">updates data</text><polygon fill="#181818" points="2004.5,913.6953,2014.5,917.6953,2004.5,921.6953,2008.5,917.6953" style="stroke:#181818;stroke-width:1.0;"/><line style="stroke:#181818;stroke-width:1.0;" x1="1509.5" x2="2010.5" y1="917.6953" y2="917.6953"/><text fill="#000000" font-family="sans-serif" font-size="13" font-weight="bold" lengthAdjust="spacing" textLength="14" x="1516.5" y="912.8389">22</text><text fill="#000000" font-family="sans-serif" font-size="13" lengthAdjust="spacing" textLength="26" x="1534.5" y="912.8389">save</text><polygon fill="#181818" points="1329.5,974.0469,1319.5,978.0469,1329.5,982.0469,1325.5,978.0469" style="stroke:#181818;stroke-width:1.0;"/><line style="stroke:#181818;stroke-width:1.0;stroke-dasharray:2.0,2.0;" x1="1323.5" x2="1503.5" y1="978.0469" y2="978.0469"/><text fill="#000000" font-family="sans-serif" font-size="13" font-weight="bold" lengthAdjust="spacing" textLength="14" x="1335.5" y="973.1904">23</text><text fill="#000000" font-family="sans-serif" font-size="13" lengthAdjust="spacing" textLength="82" x="1353.5" y="973.1904">packingResult</text><polygon fill="#181818" points="1914,1004.3984,1924,1008.3984,1914,1012.3984,1918,1008.3984" style="stroke:#181818;stroke-width:1.0;"/><line style="stroke:#181818;stroke-width:1.0;" x1="1318.5" x2="1920" y1="1008.3984" y2="1008.3984"/><text fill="#000000" font-family="sans-serif" font-size="13" font-weight="bold" lengthAdjust="spacing" textLength="14" x="1325.5" y="1003.542">24</text><text fill="#000000" font-family="sans-serif" font-size="13" lengthAdjust="spacing" textLength="37" x="1343.5" y="1003.542">toDTO</text><polygon fill="#181818" points="1194.5,1064.75,1184.5,1068.75,1194.5,1072.75,1190.5,1068.75" style="stroke:#181818;stroke-width:1.0;"/><line style="stroke:#181818;stroke-width:1.0;stroke-dasharray:2.0,2.0;" x1="1188.5" x2="1312.5" y1="1068.75" y2="1068.75"/><text fill="#000000" font-family="sans-serif" font-size="13" font-weight="bold" lengthAdjust="spacing" textLength="14" x="1200.5" y="1063.8936">25</text><text fill="#000000" font-family="sans-serif" font-size="13" lengthAdjust="spacing" textLength="14" x="1218.5" y="1063.8936">ok</text><polygon fill="#181818" points="1068.5,1120.4531,1058.5,1124.4531,1068.5,1128.4531,1064.5,1124.4531" style="stroke:#181818;stroke-width:1.0;"/><line style="stroke:#181818;stroke-width:1.0;stroke-dasharray:2.0,2.0;" x1="1062.5" x2="1177.5" y1="1124.4531" y2="1124.4531"/><text fill="#000000" font-family="sans-serif" font-size="13" font-weight="bold" lengthAdjust="spacing" textLength="14" x="1074.5" y="1119.5967">26</text><text fill="#000000" font-family="sans-serif" font-size="13" lengthAdjust="spacing" textLength="61" x="1092.5" y="1119.5967">status 200</text><polygon fill="#181818" points="865.5,1150.8047,855.5,1154.8047,865.5,1158.8047,861.5,1154.8047" style="stroke:#181818;stroke-width:1.0;"/><line style="stroke:#181818;stroke-width:1.0;stroke-dasharray:2.0,2.0;" x1="859.5" x2="1051.5" y1="1154.8047" y2="1154.8047"/><text fill="#000000" font-family="sans-serif" font-size="13" font-weight="bold" lengthAdjust="spacing" textLength="14" x="871.5" y="1149.9482">27</text><text fill="#000000" font-family="sans-serif" font-size="13" lengthAdjust="spacing" textLength="151" x="889.5" y="1149.9482">display success message</text><polygon fill="#181818" points="662.5,1181.1563,652.5,1185.1563,662.5,1189.1563,658.5,1185.1563" style="stroke:#181818;stroke-width:1.0;"/><line style="stroke:#181818;stroke-width:1.0;stroke-dasharray:2.0,2.0;" x1="656.5" x2="848.5" y1="1185.1563" y2="1185.1563"/><text fill="#000000" font-family="sans-serif" font-size="13" font-weight="bold" lengthAdjust="spacing" textLength="14" x="668.5" y="1180.2998">28</text><text fill="#000000" font-family="sans-serif" font-size="13" lengthAdjust="spacing" textLength="151" x="686.5" y="1180.2998">display success message</text><polygon fill="#181818" points="373.5,1211.5078,363.5,1215.5078,373.5,1219.5078,369.5,1215.5078" style="stroke:#181818;stroke-width:1.0;"/><line style="stroke:#181818;stroke-width:1.0;stroke-dasharray:2.0,2.0;" x1="367.5" x2="645.5" y1="1215.5078" y2="1215.5078"/><text fill="#000000" font-family="sans-serif" font-size="13" font-weight="bold" lengthAdjust="spacing" textLength="14" x="379.5" y="1210.6514">29</text><text fill="#000000" font-family="sans-serif" font-size="13" lengthAdjust="spacing" textLength="151" x="397.5" y="1210.6514">display success message</text><polygon fill="#181818" points="44.5,1241.8594,34.5,1245.8594,44.5,1249.8594,40.5,1245.8594" style="stroke:#181818;stroke-width:1.0;"/><line style="stroke:#181818;stroke-width:1.0;stroke-dasharray:2.0,2.0;" x1="38.5" x2="351.5" y1="1245.8594" y2="1245.8594"/><text fill="#000000" font-family="sans-serif" font-size="13" font-weight="bold" lengthAdjust="spacing" textLength="14" x="50.5" y="1241.0029">30</text><text fill="#000000" font-family="sans-serif" font-size="13" lengthAdjust="spacing" textLength="151" x="68.5" y="1241.0029">display success message</text><!--MD5=[54fc26767dec466a9d9a6bdde9e73394]
@startuml

autonumber
actor "GL" as GL
participant "PackingComponent" as COMP
participant "PackingServiceService" as SS
participant "MDL" as MDL
participant "PackingRoute" as ROUTE
participant "PackingController" as CTR
participant "PackingService" as SERVICE
participant "Packing" as Path
participant "PackingRepo" as REPO
participant "PackingSchema" as SCHEMA
participant "PackingMap" as MAP
participant "PackingDTO" as DTO
database "Database" as DB
participant "packing\n:Packing" as path
participant "packingDocument" as DOC

GL-> COMP : introduces the data(truckPlate,deliveryId,position)
activate COMP
COMP -> COMP : updatePacking(truckPlate,deliveryId,position)
activate COMP
COMP -> SS : updatePacking(packing)
activate SS
SS -> MDL : put(/Packings)
activate MDL
MDL -> ROUTE : put
activate ROUTE
ROUTE -> CTR : updatePacking
activate CTR
CTR -> SERVICE : updatePackings
activate SERVICE
SERVICE -> REPO : packing = findByDomainId
activate REPO
deactivate REPO
SERVICE -> path : updates data
activate path
deactivate path
SERVICE -> REPO : save
activate REPO
REPO -> SCHEMA : packingDocument = findOne
activate SCHEMA
deactivate SCHEMA
REPO -> MAP : isValid
activate MAP
alt !isValid
MAP - -> REPO: error message
deactivate MAP
SERVICE <- -REPO : error message
CTR <- - SERVICE : error message
ROUTE <- - CTR : status 400
MDL <- - ROUTE : failure message
MDL - -> SS : failure message
SS -> COMP : failure message
GL<- - COMP : display failure message
end
deactivate MAP
REPO -> DOC : updates data
activate DOC
deactivate DOC
REPO -> DB : save
activate DB
deactivate DB 
REPO - -> SERVICE : packingResult
deactivate REPO
SERVICE -> DTO : toDTO
activate DTO
deactivate DTO
SERVICE - -> CTR : ok
deactivate SERVICE
alt success
CTR - -> ROUTE : status 200
deactivate CTR
ROUTE - -> MDL : display success message
deactivate ROUTE
MDL - -> SS : display success message
deactivate MDL
SS - -> COMP : display success message
deactivate SS
deactivate MDL
GL<- - COMP : display success message

@enduml

PlantUML version 1.2022.7(Mon Aug 22 18:01:30 WEST 2022)
(GPL source distribution)
Java Runtime: Java(TM) SE Runtime Environment
JVM: Java HotSpot(TM) 64-Bit Server VM
Default Encoding: Cp1252
Language: pt
Country: PT
--></g></svg>