<?xml version="1.0" encoding="UTF-8" standalone="no"?><svg xmlns="http://www.w3.org/2000/svg" xmlns:xlink="http://www.w3.org/1999/xlink" contentStyleType="text/css" height="1029px" preserveAspectRatio="none" style="width:1063px;height:1029px;background:#FFFFFF;" version="1.1" viewBox="0 0 1063 1029" width="1063px" zoomAndPan="magnify"><defs/><g><rect fill="#FFFFFF" height="840.2891" style="stroke:#181818;stroke-width:1.0;" width="10" x="36.5" y="100.9609"/><rect fill="#FFFFFF" height="824.2891" style="stroke:#181818;stroke-width:1.0;" width="10" x="239.5" y="100.9609"/><rect fill="#FFFFFF" height="763.5859" style="stroke:#181818;stroke-width:1.0;" width="10" x="363.5" y="131.3125"/><rect fill="#FFFFFF" height="614.8281" style="stroke:#181818;stroke-width:1.0;" width="10" x="492" y="161.6641"/><rect fill="#FFFFFF" height="451.1641" style="stroke:#181818;stroke-width:1.0;" width="10" x="691" y="234.625"/><rect fill="#FFFFFF" height="28" style="stroke:#181818;stroke-width:1.0;" width="10" x="696" y="426.3828"/><rect fill="#FFFFFF" height="28" style="stroke:#181818;stroke-width:1.0;" width="10" x="696" y="499.7344"/><rect fill="#FFFFFF" height="30" style="stroke:#181818;stroke-width:1.0;" width="10" x="830" y="264.9766"/><rect fill="#FFFFFF" height="55.7031" style="stroke:#181818;stroke-width:1.0;" width="10" x="830" y="325.3281"/><rect fill="#FFFFFF" height="30" style="stroke:#181818;stroke-width:1.0;" width="10" x="830" y="625.4375"/><rect fill="#FFFFFF" height="30" style="stroke:#181818;stroke-width:1.0;" width="10" x="932.5" y="716.1406"/><rect fill="#FFFFFF" height="30" style="stroke:#181818;stroke-width:1.0;" width="10" x="1023" y="565.0859"/><rect fill="none" height="48.7031" style="stroke:#000000;stroke-width:1.5;" width="253.5" x="637" y="340.3281"/><rect fill="none" height="141.7578" style="stroke:#000000;stroke-width:1.5;" width="431.5" x="10" y="791.4922"/><line style="stroke:#181818;stroke-width:0.5;stroke-dasharray:5.0,5.0;" x1="41" x2="41" y1="68.6094" y2="950.25"/><line style="stroke:#181818;stroke-width:0.5;stroke-dasharray:5.0,5.0;" x1="244.5" x2="244.5" y1="68.6094" y2="950.25"/><line style="stroke:#181818;stroke-width:0.5;stroke-dasharray:5.0,5.0;" x1="368.5" x2="368.5" y1="68.6094" y2="950.25"/><line style="stroke:#181818;stroke-width:0.5;stroke-dasharray:5.0,5.0;" x1="496.5" x2="496.5" y1="68.6094" y2="950.25"/><line style="stroke:#181818;stroke-width:0.5;stroke-dasharray:5.0,5.0;" x1="605" x2="605" y1="200.9688" y2="950.25"/><line style="stroke:#181818;stroke-width:0.5;stroke-dasharray:5.0,5.0;" x1="696" x2="696" y1="68.6094" y2="950.25"/><line style="stroke:#181818;stroke-width:0.5;stroke-dasharray:5.0,5.0;" x1="834.5" x2="834.5" y1="68.6094" y2="950.25"/><line style="stroke:#181818;stroke-width:0.5;stroke-dasharray:5.0,5.0;" x1="937.5" x2="937.5" y1="68.6094" y2="950.25"/><line style="stroke:#181818;stroke-width:0.5;stroke-dasharray:5.0,5.0;" x1="1027.5" x2="1027.5" y1="68.6094" y2="950.25"/><rect fill="#E2E2F0" height="31.6094" rx="2.5" ry="2.5" style="stroke:#181818;stroke-width:0.5;" width="43" x="20" y="36"/><text fill="#000000" font-family="sans-serif" font-size="14" lengthAdjust="spacing" textLength="29" x="27" y="57.5332">MDL</text><rect fill="#E2E2F0" height="31.6094" rx="2.5" ry="2.5" style="stroke:#181818;stroke-width:0.5;" width="43" x="20" y="949.25"/><text fill="#000000" font-family="sans-serif" font-size="14" lengthAdjust="spacing" textLength="29" x="27" y="970.7832">MDL</text><rect fill="#E2E2F0" height="31.6094" rx="2.5" ry="2.5" style="stroke:#181818;stroke-width:0.5;" width="102" x="193.5" y="36"/><text fill="#000000" font-family="sans-serif" font-size="14" lengthAdjust="spacing" textLength="88" x="200.5" y="57.5332">PackingRoute</text><rect fill="#E2E2F0" height="31.6094" rx="2.5" ry="2.5" style="stroke:#181818;stroke-width:0.5;" width="102" x="193.5" y="949.25"/><text fill="#000000" font-family="sans-serif" font-size="14" lengthAdjust="spacing" textLength="88" x="200.5" y="970.7832">PackingRoute</text><rect fill="#E2E2F0" height="31.6094" rx="2.5" ry="2.5" style="stroke:#181818;stroke-width:0.5;" width="126" x="305.5" y="36"/><text fill="#000000" font-family="sans-serif" font-size="14" lengthAdjust="spacing" textLength="112" x="312.5" y="57.5332">PackingController</text><rect fill="#E2E2F0" height="31.6094" rx="2.5" ry="2.5" style="stroke:#181818;stroke-width:0.5;" width="126" x="305.5" y="949.25"/><text fill="#000000" font-family="sans-serif" font-size="14" lengthAdjust="spacing" textLength="112" x="312.5" y="970.7832">PackingController</text><rect fill="#E2E2F0" height="31.6094" rx="2.5" ry="2.5" style="stroke:#181818;stroke-width:0.5;" width="111" x="441.5" y="36"/><text fill="#000000" font-family="sans-serif" font-size="14" lengthAdjust="spacing" textLength="97" x="448.5" y="57.5332">PackingService</text><rect fill="#E2E2F0" height="31.6094" rx="2.5" ry="2.5" style="stroke:#181818;stroke-width:0.5;" width="111" x="441.5" y="949.25"/><text fill="#000000" font-family="sans-serif" font-size="14" lengthAdjust="spacing" textLength="97" x="448.5" y="970.7832">PackingService</text><rect fill="#E2E2F0" height="31.6094" rx="2.5" ry="2.5" style="stroke:#181818;stroke-width:0.5;" width="64" x="573" y="949.25"/><text fill="#000000" font-family="sans-serif" font-size="14" lengthAdjust="spacing" textLength="50" x="580" y="970.7832">Packing</text><rect fill="#E2E2F0" height="31.6094" rx="2.5" ry="2.5" style="stroke:#181818;stroke-width:0.5;" width="98" x="647" y="36"/><text fill="#000000" font-family="sans-serif" font-size="14" lengthAdjust="spacing" textLength="84" x="654" y="57.5332">PackingRepo</text><rect fill="#E2E2F0" height="31.6094" rx="2.5" ry="2.5" style="stroke:#181818;stroke-width:0.5;" width="98" x="647" y="949.25"/><text fill="#000000" font-family="sans-serif" font-size="14" lengthAdjust="spacing" textLength="84" x="654" y="970.7832">PackingRepo</text><rect fill="#E2E2F0" height="31.6094" rx="2.5" ry="2.5" style="stroke:#181818;stroke-width:0.5;" width="91" x="789.5" y="36"/><text fill="#000000" font-family="sans-serif" font-size="14" lengthAdjust="spacing" textLength="77" x="796.5" y="57.5332">PackingMap</text><rect fill="#E2E2F0" height="31.6094" rx="2.5" ry="2.5" style="stroke:#181818;stroke-width:0.5;" width="91" x="789.5" y="949.25"/><text fill="#000000" font-family="sans-serif" font-size="14" lengthAdjust="spacing" textLength="77" x="796.5" y="970.7832">PackingMap</text><rect fill="#E2E2F0" height="31.6094" rx="2.5" ry="2.5" style="stroke:#181818;stroke-width:0.5;" width="94" x="890.5" y="36"/><text fill="#000000" font-family="sans-serif" font-size="14" lengthAdjust="spacing" textLength="80" x="897.5" y="57.5332">PackingDTO</text><rect fill="#E2E2F0" height="31.6094" rx="2.5" ry="2.5" style="stroke:#181818;stroke-width:0.5;" width="94" x="890.5" y="949.25"/><text fill="#000000" font-family="sans-serif" font-size="14" lengthAdjust="spacing" textLength="80" x="897.5" y="970.7832">PackingDTO</text><text fill="#000000" font-family="sans-serif" font-size="14" lengthAdjust="spacing" textLength="61" x="994.5" y="65.5332">Database</text><path d="M1010,15 C1010,5 1028,5 1028,5 C1028,5 1046,5 1046,15 L1046,41 C1046,51 1028,51 1028,51 C1028,51 1010,51 1010,41 L1010,15 " fill="#E2E2F0" style="stroke:#181818;stroke-width:1.5;"/><path d="M1010,15 C1010,25 1028,25 1028,25 C1028,25 1046,25 1046,15 " fill="none" style="stroke:#181818;stroke-width:1.5;"/><text fill="#000000" font-family="sans-serif" font-size="14" lengthAdjust="spacing" textLength="61" x="994.5" y="963.7832">Database</text><path d="M1010,976.8594 C1010,966.8594 1028,966.8594 1028,966.8594 C1028,966.8594 1046,966.8594 1046,976.8594 L1046,1002.8594 C1046,1012.8594 1028,1012.8594 1028,1012.8594 C1028,1012.8594 1010,1012.8594 1010,1002.8594 L1010,976.8594 " fill="#E2E2F0" style="stroke:#181818;stroke-width:1.5;"/><path d="M1010,976.8594 C1010,986.8594 1028,986.8594 1028,986.8594 C1028,986.8594 1046,986.8594 1046,976.8594 " fill="none" style="stroke:#181818;stroke-width:1.5;"/><rect fill="#FFFFFF" height="840.2891" style="stroke:#181818;stroke-width:1.0;" width="10" x="36.5" y="100.9609"/><rect fill="#FFFFFF" height="824.2891" style="stroke:#181818;stroke-width:1.0;" width="10" x="239.5" y="100.9609"/><rect fill="#FFFFFF" height="763.5859" style="stroke:#181818;stroke-width:1.0;" width="10" x="363.5" y="131.3125"/><rect fill="#FFFFFF" height="614.8281" style="stroke:#181818;stroke-width:1.0;" width="10" x="492" y="161.6641"/><rect fill="#FFFFFF" height="451.1641" style="stroke:#181818;stroke-width:1.0;" width="10" x="691" y="234.625"/><rect fill="#FFFFFF" height="28" style="stroke:#181818;stroke-width:1.0;" width="10" x="696" y="426.3828"/><rect fill="#FFFFFF" height="28" style="stroke:#181818;stroke-width:1.0;" width="10" x="696" y="499.7344"/><rect fill="#FFFFFF" height="30" style="stroke:#181818;stroke-width:1.0;" width="10" x="830" y="264.9766"/><rect fill="#FFFFFF" height="55.7031" style="stroke:#181818;stroke-width:1.0;" width="10" x="830" y="325.3281"/><rect fill="#FFFFFF" height="30" style="stroke:#181818;stroke-width:1.0;" width="10" x="830" y="625.4375"/><rect fill="#FFFFFF" height="30" style="stroke:#181818;stroke-width:1.0;" width="10" x="932.5" y="716.1406"/><rect fill="#FFFFFF" height="30" style="stroke:#181818;stroke-width:1.0;" width="10" x="1023" y="565.0859"/><polygon fill="#181818" points="227.5,96.9609,237.5,100.9609,227.5,104.9609,231.5,100.9609" style="stroke:#181818;stroke-width:1.0;"/><line style="stroke:#181818;stroke-width:1.0;" x1="46.5" x2="233.5" y1="100.9609" y2="100.9609"/><text fill="#000000" font-family="sans-serif" font-size="13" font-weight="bold" lengthAdjust="spacing" textLength="7" x="53.5" y="96.1045">1</text><text fill="#000000" font-family="sans-serif" font-size="13" lengthAdjust="spacing" textLength="84" x="64.5" y="96.1045">post(/Packing)</text><polygon fill="#181818" points="351.5,127.3125,361.5,131.3125,351.5,135.3125,355.5,131.3125" style="stroke:#181818;stroke-width:1.0;"/><line style="stroke:#181818;stroke-width:1.0;" x1="249.5" x2="357.5" y1="131.3125" y2="131.3125"/><text fill="#000000" font-family="sans-serif" font-size="13" font-weight="bold" lengthAdjust="spacing" textLength="7" x="256.5" y="126.4561">2</text><text fill="#000000" font-family="sans-serif" font-size="13" lengthAdjust="spacing" textLength="83" x="267.5" y="126.4561">createPacking</text><polygon fill="#181818" points="480,157.6641,490,161.6641,480,165.6641,484,161.6641" style="stroke:#181818;stroke-width:1.0;"/><line style="stroke:#181818;stroke-width:1.0;" x1="373.5" x2="486" y1="161.6641" y2="161.6641"/><text fill="#000000" font-family="sans-serif" font-size="13" font-weight="bold" lengthAdjust="spacing" textLength="7" x="380.5" y="156.8076">3</text><text fill="#000000" font-family="sans-serif" font-size="13" lengthAdjust="spacing" textLength="83" x="391.5" y="156.8076">createPacking</text><polygon fill="#181818" points="561,188.0156,571,192.0156,561,196.0156,565,192.0156" style="stroke:#181818;stroke-width:1.0;"/><line style="stroke:#181818;stroke-width:1.0;" x1="502" x2="567" y1="192.0156" y2="192.0156"/><text fill="#000000" font-family="sans-serif" font-size="13" font-weight="bold" lengthAdjust="spacing" textLength="7" x="509" y="187.1592">4</text><text fill="#000000" font-family="sans-serif" font-size="13" lengthAdjust="spacing" textLength="36" x="520" y="187.1592">create</text><rect fill="#E2E2F0" height="31.6094" rx="2.5" ry="2.5" style="stroke:#181818;stroke-width:0.5;" width="64" x="573" y="169.6641"/><text fill="#000000" font-family="sans-serif" font-size="14" lengthAdjust="spacing" textLength="50" x="580" y="191.1973">Packing</text><polygon fill="#181818" points="679,230.625,689,234.625,679,238.625,683,234.625" style="stroke:#181818;stroke-width:1.0;"/><line style="stroke:#181818;stroke-width:1.0;" x1="502" x2="685" y1="234.625" y2="234.625"/><text fill="#000000" font-family="sans-serif" font-size="13" font-weight="bold" lengthAdjust="spacing" textLength="7" x="509" y="229.7686">5</text><text fill="#000000" font-family="sans-serif" font-size="13" lengthAdjust="spacing" textLength="26" x="520" y="229.7686">save</text><polygon fill="#181818" points="818,260.9766,828,264.9766,818,268.9766,822,264.9766" style="stroke:#181818;stroke-width:1.0;"/><line style="stroke:#181818;stroke-width:1.0;" x1="701" x2="824" y1="264.9766" y2="264.9766"/><text fill="#000000" font-family="sans-serif" font-size="13" font-weight="bold" lengthAdjust="spacing" textLength="7" x="708" y="260.1201">6</text><text fill="#000000" font-family="sans-serif" font-size="13" lengthAdjust="spacing" textLength="80" x="719" y="260.1201">toPersistence</text><polygon fill="#181818" points="818,321.3281,828,325.3281,818,329.3281,822,325.3281" style="stroke:#181818;stroke-width:1.0;"/><line style="stroke:#181818;stroke-width:1.0;" x1="701" x2="824" y1="325.3281" y2="325.3281"/><text fill="#000000" font-family="sans-serif" font-size="13" font-weight="bold" lengthAdjust="spacing" textLength="7" x="708" y="320.4717">7</text><text fill="#000000" font-family="sans-serif" font-size="13" lengthAdjust="spacing" textLength="39" x="719" y="320.4717">isValid</text><path d="M637,340.3281 L698,340.3281 L698,348.6797 L688,358.6797 L637,358.6797 L637,340.3281 " fill="#EEEEEE" style="stroke:#000000;stroke-width:1.5;"/><rect fill="none" height="48.7031" style="stroke:#000000;stroke-width:1.5;" width="253.5" x="637" y="340.3281"/><text fill="#000000" font-family="sans-serif" font-size="13" font-weight="bold" lengthAdjust="spacing" textLength="16" x="652" y="354.8232">alt</text><text fill="#000000" font-family="sans-serif" font-size="11" font-weight="bold" lengthAdjust="spacing" textLength="48" x="713" y="353.7471">[!isValid]</text><polygon fill="#181818" points="712,377.0313,702,381.0313,712,385.0313,708,381.0313" style="stroke:#181818;stroke-width:1.0;"/><line style="stroke:#181818;stroke-width:1.0;stroke-dasharray:2.0,2.0;" x1="706" x2="834" y1="381.0313" y2="381.0313"/><text fill="#000000" font-family="sans-serif" font-size="13" font-weight="bold" lengthAdjust="spacing" textLength="7" x="718" y="376.1748">8</text><text fill="#000000" font-family="sans-serif" font-size="13" lengthAdjust="spacing" textLength="20" x="729" y="376.1748">null</text><line style="stroke:#181818;stroke-width:1.0;" x1="706" x2="748" y1="418.3828" y2="418.3828"/><line style="stroke:#181818;stroke-width:1.0;" x1="748" x2="748" y1="418.3828" y2="431.3828"/><line style="stroke:#181818;stroke-width:1.0;" x1="707" x2="748" y1="431.3828" y2="431.3828"/><polygon fill="#181818" points="717,427.3828,707,431.3828,717,435.3828,713,431.3828" style="stroke:#181818;stroke-width:1.0;"/><text fill="#000000" font-family="sans-serif" font-size="13" font-weight="bold" lengthAdjust="spacing" textLength="7" x="713" y="413.5264">9</text><text fill="#000000" font-family="sans-serif" font-size="13" lengthAdjust="spacing" textLength="96" x="724" y="413.5264">truckPlateExists</text><path d="M552,404.5313 L552,430.5313 L686,430.5313 L686,414.5313 L676,404.5313 L552,404.5313 " fill="#FEFFDD" style="stroke:#181818;stroke-width:0.5;"/><path d="M676,404.5313 L676,414.5313 L686,414.5313 L676,404.5313 " fill="#FEFFDD" style="stroke:#181818;stroke-width:0.5;"/><text fill="#000000" font-family="sans-serif" font-size="13" lengthAdjust="spacing" textLength="113" x="558" y="423.0264">get request to MDA</text><line style="stroke:#181818;stroke-width:1.0;" x1="706" x2="748" y1="491.7344" y2="491.7344"/><line style="stroke:#181818;stroke-width:1.0;" x1="748" x2="748" y1="491.7344" y2="504.7344"/><line style="stroke:#181818;stroke-width:1.0;" x1="707" x2="748" y1="504.7344" y2="504.7344"/><polygon fill="#181818" points="717,500.7344,707,504.7344,717,508.7344,713,504.7344" style="stroke:#181818;stroke-width:1.0;"/><text fill="#000000" font-family="sans-serif" font-size="13" font-weight="bold" lengthAdjust="spacing" textLength="14" x="713" y="486.8779">10</text><text fill="#000000" font-family="sans-serif" font-size="13" lengthAdjust="spacing" textLength="97" x="731" y="486.8779">delieveryIdExists</text><path d="M552,477.8828 L552,503.8828 L686,503.8828 L686,487.8828 L676,477.8828 L552,477.8828 " fill="#FEFFDD" style="stroke:#181818;stroke-width:0.5;"/><path d="M676,477.8828 L676,487.8828 L686,487.8828 L676,477.8828 " fill="#FEFFDD" style="stroke:#181818;stroke-width:0.5;"/><text fill="#000000" font-family="sans-serif" font-size="13" lengthAdjust="spacing" textLength="113" x="558" y="496.3779">get request to MDA</text><polygon fill="#181818" points="1011,561.0859,1021,565.0859,1011,569.0859,1015,565.0859" style="stroke:#181818;stroke-width:1.0;"/><line style="stroke:#181818;stroke-width:1.0;" x1="701" x2="1017" y1="565.0859" y2="565.0859"/><text fill="#000000" font-family="sans-serif" font-size="13" font-weight="bold" lengthAdjust="spacing" textLength="14" x="708" y="560.2295">11</text><text fill="#000000" font-family="sans-serif" font-size="13" lengthAdjust="spacing" textLength="36" x="726" y="560.2295">create</text><polygon fill="#181818" points="818,621.4375,828,625.4375,818,629.4375,822,625.4375" style="stroke:#181818;stroke-width:1.0;"/><line style="stroke:#181818;stroke-width:1.0;" x1="701" x2="824" y1="625.4375" y2="625.4375"/><text fill="#000000" font-family="sans-serif" font-size="13" font-weight="bold" lengthAdjust="spacing" textLength="14" x="708" y="620.5811">12</text><text fill="#000000" font-family="sans-serif" font-size="13" lengthAdjust="spacing" textLength="55" x="726" y="620.5811">toDomain</text><polygon fill="#181818" points="513,681.7891,503,685.7891,513,689.7891,509,685.7891" style="stroke:#181818;stroke-width:1.0;"/><line style="stroke:#181818;stroke-width:1.0;stroke-dasharray:2.0,2.0;" x1="507" x2="695" y1="685.7891" y2="685.7891"/><text fill="#000000" font-family="sans-serif" font-size="13" font-weight="bold" lengthAdjust="spacing" textLength="14" x="519" y="680.9326">13</text><text fill="#000000" font-family="sans-serif" font-size="13" lengthAdjust="spacing" textLength="4" x="537" y="680.9326"> </text><polygon fill="#181818" points="920.5,712.1406,930.5,716.1406,920.5,720.1406,924.5,716.1406" style="stroke:#181818;stroke-width:1.0;"/><line style="stroke:#181818;stroke-width:1.0;" x1="502" x2="926.5" y1="716.1406" y2="716.1406"/><text fill="#000000" font-family="sans-serif" font-size="13" font-weight="bold" lengthAdjust="spacing" textLength="14" x="509" y="711.2842">14</text><text fill="#000000" font-family="sans-serif" font-size="13" lengthAdjust="spacing" textLength="37" x="527" y="711.2842">toDTO</text><polygon fill="#181818" points="384.5,772.4922,374.5,776.4922,384.5,780.4922,380.5,776.4922" style="stroke:#181818;stroke-width:1.0;"/><line style="stroke:#181818;stroke-width:1.0;stroke-dasharray:2.0,2.0;" x1="378.5" x2="496" y1="776.4922" y2="776.4922"/><text fill="#000000" font-family="sans-serif" font-size="13" font-weight="bold" lengthAdjust="spacing" textLength="14" x="390.5" y="771.6357">15</text><text fill="#000000" font-family="sans-serif" font-size="13" lengthAdjust="spacing" textLength="4" x="408.5" y="771.6357"> </text><path d="M10,791.4922 L71,791.4922 L71,799.8438 L61,809.8438 L10,809.8438 L10,791.4922 " fill="#EEEEEE" style="stroke:#000000;stroke-width:1.5;"/><rect fill="none" height="141.7578" style="stroke:#000000;stroke-width:1.5;" width="431.5" x="10" y="791.4922"/><text fill="#000000" font-family="sans-serif" font-size="13" font-weight="bold" lengthAdjust="spacing" textLength="16" x="25" y="805.9873">alt</text><text fill="#000000" font-family="sans-serif" font-size="11" font-weight="bold" lengthAdjust="spacing" textLength="55" x="86" y="804.9111">[success]</text><polygon fill="#181818" points="260.5,828.1953,250.5,832.1953,260.5,836.1953,256.5,832.1953" style="stroke:#181818;stroke-width:1.0;"/><line style="stroke:#181818;stroke-width:1.0;stroke-dasharray:2.0,2.0;" x1="254.5" x2="362.5" y1="832.1953" y2="832.1953"/><text fill="#000000" font-family="sans-serif" font-size="13" font-weight="bold" lengthAdjust="spacing" textLength="14" x="266.5" y="827.3389">16</text><text fill="#000000" font-family="sans-serif" font-size="13" lengthAdjust="spacing" textLength="61" x="284.5" y="827.3389">status 201</text><polygon fill="#181818" points="57.5,858.5469,47.5,862.5469,57.5,866.5469,53.5,862.5469" style="stroke:#181818;stroke-width:1.0;"/><line style="stroke:#181818;stroke-width:1.0;stroke-dasharray:2.0,2.0;" x1="51.5" x2="238.5" y1="862.5469" y2="862.5469"/><text fill="#000000" font-family="sans-serif" font-size="13" font-weight="bold" lengthAdjust="spacing" textLength="14" x="63.5" y="857.6904">17</text><text fill="#000000" font-family="sans-serif" font-size="13" lengthAdjust="spacing" textLength="151" x="81.5" y="857.6904">display success message</text><line style="stroke:#000000;stroke-width:1.0;stroke-dasharray:2.0,2.0;" x1="10" x2="441.5" y1="871.5469" y2="871.5469"/><polygon fill="#181818" points="260.5,890.8984,250.5,894.8984,260.5,898.8984,256.5,894.8984" style="stroke:#181818;stroke-width:1.0;"/><line style="stroke:#181818;stroke-width:1.0;stroke-dasharray:2.0,2.0;" x1="254.5" x2="367.5" y1="894.8984" y2="894.8984"/><text fill="#000000" font-family="sans-serif" font-size="13" font-weight="bold" lengthAdjust="spacing" textLength="14" x="266.5" y="890.042">18</text><text fill="#000000" font-family="sans-serif" font-size="13" lengthAdjust="spacing" textLength="61" x="284.5" y="890.042">status 400</text><polygon fill="#181818" points="57.5,921.25,47.5,925.25,57.5,929.25,53.5,925.25" style="stroke:#181818;stroke-width:1.0;"/><line style="stroke:#181818;stroke-width:1.0;stroke-dasharray:2.0,2.0;" x1="51.5" x2="243.5" y1="925.25" y2="925.25"/><text fill="#000000" font-family="sans-serif" font-size="13" font-weight="bold" lengthAdjust="spacing" textLength="14" x="63.5" y="920.3936">19</text><text fill="#000000" font-family="sans-serif" font-size="13" lengthAdjust="spacing" textLength="136" x="81.5" y="920.3936">display failure message</text><!--MD5=[3d7aa5484d463e0a8891f05b87b99d11]
@startuml

autonumber
participant "MDL" as MDL
participant "PackingRoute" as ROUTE
participant "PackingController" as CTR
participant "PackingService" as SERVICE
participant "Packing" as Path
participant "PackingRepo" as REPO
participant "PackingMap" as MAP
participant "PackingDTO" as DTO
database "Database" as DB

MDL -> ROUTE : post(/Packing)
activate MDL
activate ROUTE
ROUTE -> CTR : createPacking
activate CTR
CTR -> SERVICE : createPacking
activate SERVICE
SERVICE -> Path** : create
SERVICE -> REPO : save
activate REPO
REPO -> MAP : toPersistence
activate MAP
deactivate MAP
REPO -> MAP : isValid
activate MAP
alt !isValid
MAP - -> REPO: null
deactivate MAP
end
REPO -> REPO : truckPlateExists
note left
  get request to MDA
end note
activate REPO
deactivate REPO
REPO -> REPO : delieveryIdExists
note left
  get request to MDA
end note
activate REPO
deactivate REPO
REPO -> DB : create
activate DB
deactivate DB
REPO -> MAP : toDomain
activate MAP
deactivate MAP
REPO - -> SERVICE
deactivate REPO
SERVICE -> DTO : toDTO
activate DTO
deactivate DTO
SERVICE - -> CTR
deactivate SERVICE
alt success
CTR - -> ROUTE : status 201
ROUTE - -> MDL : display success message
else
CTR - -> ROUTE : status 400
deactivate CTR
ROUTE - -> MDL : display failure message
deactivate ROUTE
deactivate
end

@enduml

PlantUML version 1.2022.7(Mon Aug 22 18:01:30 WEST 2022)
(GPL source distribution)
Java Runtime: Java(TM) SE Runtime Environment
JVM: Java HotSpot(TM) 64-Bit Server VM
Default Encoding: Cp1252
Language: pt
Country: PT
--></g></svg>