<?xml version="1.0" encoding="UTF-8" standalone="no"?><svg xmlns="http://www.w3.org/2000/svg" xmlns:xlink="http://www.w3.org/1999/xlink" contentStyleType="text/css" height="1017px" preserveAspectRatio="none" style="width:1080px;height:1017px;background:#FFFFFF;" version="1.1" viewBox="0 0 1080 1017" width="1080px" zoomAndPan="magnify"><defs/><g><rect fill="#FFFFFF" height="849.9922" style="stroke:#181818;stroke-width:1.0;" width="10" x="43.5" y="78.6094"/><rect fill="#FFFFFF" height="811.6406" style="stroke:#181818;stroke-width:1.0;" width="10" x="246.5" y="100.9609"/><rect fill="#FFFFFF" height="750.9375" style="stroke:#181818;stroke-width:1.0;" width="10" x="359.5" y="131.3125"/><rect fill="#FFFFFF" height="602.1797" style="stroke:#181818;stroke-width:1.0;" width="10" x="462.5" y="161.6641"/><rect fill="#FFFFFF" height="541.4766" style="stroke:#181818;stroke-width:1.0;" width="10" x="570" y="192.0156"/><rect fill="#FFFFFF" height="377.8125" style="stroke:#181818;stroke-width:1.0;" width="10" x="737.5" y="264.9766"/><rect fill="#FFFFFF" height="28" style="stroke:#181818;stroke-width:1.0;" width="10" x="742.5" y="456.7344"/><rect fill="#FFFFFF" height="30" style="stroke:#181818;stroke-width:1.0;" width="10" x="878.5" y="295.3281"/><rect fill="#FFFFFF" height="55.7031" style="stroke:#181818;stroke-width:1.0;" width="10" x="878.5" y="355.6797"/><rect fill="#FFFFFF" height="30" style="stroke:#181818;stroke-width:1.0;" width="10" x="878.5" y="582.4375"/><rect fill="#FFFFFF" height="30" style="stroke:#181818;stroke-width:1.0;" width="10" x="960" y="673.1406"/><rect fill="#FFFFFF" height="30" style="stroke:#181818;stroke-width:1.0;" width="10" x="1040" y="522.0859"/><rect fill="none" height="48.7031" style="stroke:#000000;stroke-width:1.5;" width="234.5" x="694" y="370.6797"/><rect fill="none" height="141.7578" style="stroke:#000000;stroke-width:1.5;" width="405" x="10" y="778.8438"/><line style="stroke:#181818;stroke-width:0.5;stroke-dasharray:5.0,5.0;" x1="48" x2="48" y1="68.6094" y2="937.6016"/><line style="stroke:#181818;stroke-width:0.5;stroke-dasharray:5.0,5.0;" x1="251" x2="251" y1="68.6094" y2="937.6016"/><line style="stroke:#181818;stroke-width:0.5;stroke-dasharray:5.0,5.0;" x1="364" x2="364" y1="68.6094" y2="937.6016"/><line style="stroke:#181818;stroke-width:0.5;stroke-dasharray:5.0,5.0;" x1="467" x2="467" y1="68.6094" y2="937.6016"/><line style="stroke:#181818;stroke-width:0.5;stroke-dasharray:5.0,5.0;" x1="575" x2="575" y1="68.6094" y2="937.6016"/><line style="stroke:#181818;stroke-width:0.5;stroke-dasharray:5.0,5.0;" x1="672" x2="672" y1="231.3203" y2="937.6016"/><line style="stroke:#181818;stroke-width:0.5;stroke-dasharray:5.0,5.0;" x1="742" x2="742" y1="68.6094" y2="937.6016"/><line style="stroke:#181818;stroke-width:0.5;stroke-dasharray:5.0,5.0;" x1="883.5" x2="883.5" y1="68.6094" y2="937.6016"/><line style="stroke:#181818;stroke-width:0.5;stroke-dasharray:5.0,5.0;" x1="964.5" x2="964.5" y1="68.6094" y2="937.6016"/><line style="stroke:#181818;stroke-width:0.5;stroke-dasharray:5.0,5.0;" x1="1044.5" x2="1044.5" y1="68.6094" y2="937.6016"/><rect fill="#E2E2F0" height="31.6094" rx="2.5" ry="2.5" style="stroke:#181818;stroke-width:0.5;" width="57" x="20" y="36"/><text fill="#000000" font-family="sans-serif" font-size="14" lengthAdjust="spacing" textLength="43" x="27" y="57.5332">SPA UI</text><rect fill="#E2E2F0" height="31.6094" rx="2.5" ry="2.5" style="stroke:#181818;stroke-width:0.5;" width="57" x="20" y="936.6016"/><text fill="#000000" font-family="sans-serif" font-size="14" lengthAdjust="spacing" textLength="43" x="27" y="958.1348">SPA UI</text><rect fill="#E2E2F0" height="31.6094" rx="2.5" ry="2.5" style="stroke:#181818;stroke-width:0.5;" width="43" x="230" y="36"/><text fill="#000000" font-family="sans-serif" font-size="14" lengthAdjust="spacing" textLength="29" x="237" y="57.5332">MDL</text><rect fill="#E2E2F0" height="31.6094" rx="2.5" ry="2.5" style="stroke:#181818;stroke-width:0.5;" width="43" x="230" y="936.6016"/><text fill="#000000" font-family="sans-serif" font-size="14" lengthAdjust="spacing" textLength="29" x="237" y="958.1348">MDL</text><rect fill="#E2E2F0" height="31.6094" rx="2.5" ry="2.5" style="stroke:#181818;stroke-width:0.5;" width="81" x="324" y="36"/><text fill="#000000" font-family="sans-serif" font-size="14" lengthAdjust="spacing" textLength="67" x="331" y="57.5332">PathRoute</text><rect fill="#E2E2F0" height="31.6094" rx="2.5" ry="2.5" style="stroke:#181818;stroke-width:0.5;" width="81" x="324" y="936.6016"/><text fill="#000000" font-family="sans-serif" font-size="14" lengthAdjust="spacing" textLength="67" x="331" y="958.1348">PathRoute</text><rect fill="#E2E2F0" height="31.6094" rx="2.5" ry="2.5" style="stroke:#181818;stroke-width:0.5;" width="105" x="415" y="36"/><text fill="#000000" font-family="sans-serif" font-size="14" lengthAdjust="spacing" textLength="91" x="422" y="57.5332">PathController</text><rect fill="#E2E2F0" height="31.6094" rx="2.5" ry="2.5" style="stroke:#181818;stroke-width:0.5;" width="105" x="415" y="936.6016"/><text fill="#000000" font-family="sans-serif" font-size="14" lengthAdjust="spacing" textLength="91" x="422" y="958.1348">PathController</text><rect fill="#E2E2F0" height="31.6094" rx="2.5" ry="2.5" style="stroke:#181818;stroke-width:0.5;" width="90" x="530" y="36"/><text fill="#000000" font-family="sans-serif" font-size="14" lengthAdjust="spacing" textLength="76" x="537" y="57.5332">PathService</text><rect fill="#E2E2F0" height="31.6094" rx="2.5" ry="2.5" style="stroke:#181818;stroke-width:0.5;" width="90" x="530" y="936.6016"/><text fill="#000000" font-family="sans-serif" font-size="14" lengthAdjust="spacing" textLength="76" x="537" y="958.1348">PathService</text><rect fill="#E2E2F0" height="31.6094" rx="2.5" ry="2.5" style="stroke:#181818;stroke-width:0.5;" width="43" x="651" y="936.6016"/><text fill="#000000" font-family="sans-serif" font-size="14" lengthAdjust="spacing" textLength="29" x="658" y="958.1348">Path</text><rect fill="#E2E2F0" height="31.6094" rx="2.5" ry="2.5" style="stroke:#181818;stroke-width:0.5;" width="77" x="704" y="36"/><text fill="#000000" font-family="sans-serif" font-size="14" lengthAdjust="spacing" textLength="63" x="711" y="57.5332">PathRepo</text><rect fill="#E2E2F0" height="31.6094" rx="2.5" ry="2.5" style="stroke:#181818;stroke-width:0.5;" width="77" x="704" y="936.6016"/><text fill="#000000" font-family="sans-serif" font-size="14" lengthAdjust="spacing" textLength="63" x="711" y="958.1348">PathRepo</text><rect fill="#E2E2F0" height="31.6094" rx="2.5" ry="2.5" style="stroke:#181818;stroke-width:0.5;" width="70" x="848.5" y="36"/><text fill="#000000" font-family="sans-serif" font-size="14" lengthAdjust="spacing" textLength="56" x="855.5" y="57.5332">PathMap</text><rect fill="#E2E2F0" height="31.6094" rx="2.5" ry="2.5" style="stroke:#181818;stroke-width:0.5;" width="70" x="848.5" y="936.6016"/><text fill="#000000" font-family="sans-serif" font-size="14" lengthAdjust="spacing" textLength="56" x="855.5" y="958.1348">PathMap</text><rect fill="#E2E2F0" height="31.6094" rx="2.5" ry="2.5" style="stroke:#181818;stroke-width:0.5;" width="73" x="928.5" y="36"/><text fill="#000000" font-family="sans-serif" font-size="14" lengthAdjust="spacing" textLength="59" x="935.5" y="57.5332">PathDTO</text><rect fill="#E2E2F0" height="31.6094" rx="2.5" ry="2.5" style="stroke:#181818;stroke-width:0.5;" width="73" x="928.5" y="936.6016"/><text fill="#000000" font-family="sans-serif" font-size="14" lengthAdjust="spacing" textLength="59" x="935.5" y="958.1348">PathDTO</text><text fill="#000000" font-family="sans-serif" font-size="14" lengthAdjust="spacing" textLength="61" x="1011.5" y="65.5332">Database</text><path d="M1027,15 C1027,5 1045,5 1045,5 C1045,5 1063,5 1063,15 L1063,41 C1063,51 1045,51 1045,51 C1045,51 1027,51 1027,41 L1027,15 " fill="#E2E2F0" style="stroke:#181818;stroke-width:1.5;"/><path d="M1027,15 C1027,25 1045,25 1045,25 C1045,25 1063,25 1063,15 " fill="none" style="stroke:#181818;stroke-width:1.5;"/><text fill="#000000" font-family="sans-serif" font-size="14" lengthAdjust="spacing" textLength="61" x="1011.5" y="951.1348">Database</text><path d="M1027,964.2109 C1027,954.2109 1045,954.2109 1045,954.2109 C1045,954.2109 1063,954.2109 1063,964.2109 L1063,990.2109 C1063,1000.2109 1045,1000.2109 1045,1000.2109 C1045,1000.2109 1027,1000.2109 1027,990.2109 L1027,964.2109 " fill="#E2E2F0" style="stroke:#181818;stroke-width:1.5;"/><path d="M1027,964.2109 C1027,974.2109 1045,974.2109 1045,974.2109 C1045,974.2109 1063,974.2109 1063,964.2109 " fill="none" style="stroke:#181818;stroke-width:1.5;"/><rect fill="#FFFFFF" height="849.9922" style="stroke:#181818;stroke-width:1.0;" width="10" x="43.5" y="78.6094"/><rect fill="#FFFFFF" height="811.6406" style="stroke:#181818;stroke-width:1.0;" width="10" x="246.5" y="100.9609"/><rect fill="#FFFFFF" height="750.9375" style="stroke:#181818;stroke-width:1.0;" width="10" x="359.5" y="131.3125"/><rect fill="#FFFFFF" height="602.1797" style="stroke:#181818;stroke-width:1.0;" width="10" x="462.5" y="161.6641"/><rect fill="#FFFFFF" height="541.4766" style="stroke:#181818;stroke-width:1.0;" width="10" x="570" y="192.0156"/><rect fill="#FFFFFF" height="377.8125" style="stroke:#181818;stroke-width:1.0;" width="10" x="737.5" y="264.9766"/><rect fill="#FFFFFF" height="28" style="stroke:#181818;stroke-width:1.0;" width="10" x="742.5" y="456.7344"/><rect fill="#FFFFFF" height="30" style="stroke:#181818;stroke-width:1.0;" width="10" x="878.5" y="295.3281"/><rect fill="#FFFFFF" height="55.7031" style="stroke:#181818;stroke-width:1.0;" width="10" x="878.5" y="355.6797"/><rect fill="#FFFFFF" height="30" style="stroke:#181818;stroke-width:1.0;" width="10" x="878.5" y="582.4375"/><rect fill="#FFFFFF" height="30" style="stroke:#181818;stroke-width:1.0;" width="10" x="960" y="673.1406"/><rect fill="#FFFFFF" height="30" style="stroke:#181818;stroke-width:1.0;" width="10" x="1040" y="522.0859"/><polygon fill="#181818" points="234.5,96.9609,244.5,100.9609,234.5,104.9609,238.5,100.9609" style="stroke:#181818;stroke-width:1.0;"/><line style="stroke:#181818;stroke-width:1.0;" x1="53.5" x2="240.5" y1="100.9609" y2="100.9609"/><text fill="#000000" font-family="sans-serif" font-size="13" font-weight="bold" lengthAdjust="spacing" textLength="7" x="60.5" y="96.1045">1</text><text fill="#000000" font-family="sans-serif" font-size="13" lengthAdjust="spacing" textLength="71" x="71.5" y="96.1045">post(/Paths)</text><polygon fill="#181818" points="347.5,127.3125,357.5,131.3125,347.5,135.3125,351.5,131.3125" style="stroke:#181818;stroke-width:1.0;"/><line style="stroke:#181818;stroke-width:1.0;" x1="256.5" x2="353.5" y1="131.3125" y2="131.3125"/><text fill="#000000" font-family="sans-serif" font-size="13" font-weight="bold" lengthAdjust="spacing" textLength="7" x="263.5" y="126.4561">2</text><text fill="#000000" font-family="sans-serif" font-size="13" lengthAdjust="spacing" textLength="25" x="274.5" y="126.4561">post</text><polygon fill="#181818" points="450.5,157.6641,460.5,161.6641,450.5,165.6641,454.5,161.6641" style="stroke:#181818;stroke-width:1.0;"/><line style="stroke:#181818;stroke-width:1.0;" x1="369.5" x2="456.5" y1="161.6641" y2="161.6641"/><text fill="#000000" font-family="sans-serif" font-size="13" font-weight="bold" lengthAdjust="spacing" textLength="7" x="376.5" y="156.8076">3</text><text fill="#000000" font-family="sans-serif" font-size="13" lengthAdjust="spacing" textLength="63" x="387.5" y="156.8076">createPath</text><polygon fill="#181818" points="558,188.0156,568,192.0156,558,196.0156,562,192.0156" style="stroke:#181818;stroke-width:1.0;"/><line style="stroke:#181818;stroke-width:1.0;" x1="472.5" x2="564" y1="192.0156" y2="192.0156"/><text fill="#000000" font-family="sans-serif" font-size="13" font-weight="bold" lengthAdjust="spacing" textLength="7" x="479.5" y="187.1592">4</text><text fill="#000000" font-family="sans-serif" font-size="13" lengthAdjust="spacing" textLength="63" x="490.5" y="187.1592">createPath</text><polygon fill="#181818" points="639,218.3672,649,222.3672,639,226.3672,643,222.3672" style="stroke:#181818;stroke-width:1.0;"/><line style="stroke:#181818;stroke-width:1.0;" x1="580" x2="645" y1="222.3672" y2="222.3672"/><text fill="#000000" font-family="sans-serif" font-size="13" font-weight="bold" lengthAdjust="spacing" textLength="7" x="587" y="217.5107">5</text><text fill="#000000" font-family="sans-serif" font-size="13" lengthAdjust="spacing" textLength="36" x="598" y="217.5107">create</text><rect fill="#E2E2F0" height="31.6094" rx="2.5" ry="2.5" style="stroke:#181818;stroke-width:0.5;" width="43" x="651" y="200.0156"/><text fill="#000000" font-family="sans-serif" font-size="14" lengthAdjust="spacing" textLength="29" x="658" y="221.5488">Path</text><polygon fill="#181818" points="725.5,260.9766,735.5,264.9766,725.5,268.9766,729.5,264.9766" style="stroke:#181818;stroke-width:1.0;"/><line style="stroke:#181818;stroke-width:1.0;" x1="580" x2="731.5" y1="264.9766" y2="264.9766"/><text fill="#000000" font-family="sans-serif" font-size="13" font-weight="bold" lengthAdjust="spacing" textLength="7" x="587" y="260.1201">6</text><text fill="#000000" font-family="sans-serif" font-size="13" lengthAdjust="spacing" textLength="26" x="598" y="260.1201">save</text><polygon fill="#181818" points="866.5,291.3281,876.5,295.3281,866.5,299.3281,870.5,295.3281" style="stroke:#181818;stroke-width:1.0;"/><line style="stroke:#181818;stroke-width:1.0;" x1="747.5" x2="872.5" y1="295.3281" y2="295.3281"/><text fill="#000000" font-family="sans-serif" font-size="13" font-weight="bold" lengthAdjust="spacing" textLength="7" x="754.5" y="290.4717">7</text><text fill="#000000" font-family="sans-serif" font-size="13" lengthAdjust="spacing" textLength="80" x="765.5" y="290.4717">toPersistence</text><polygon fill="#181818" points="866.5,351.6797,876.5,355.6797,866.5,359.6797,870.5,355.6797" style="stroke:#181818;stroke-width:1.0;"/><line style="stroke:#181818;stroke-width:1.0;" x1="747.5" x2="872.5" y1="355.6797" y2="355.6797"/><text fill="#000000" font-family="sans-serif" font-size="13" font-weight="bold" lengthAdjust="spacing" textLength="7" x="754.5" y="350.8232">8</text><text fill="#000000" font-family="sans-serif" font-size="13" lengthAdjust="spacing" textLength="39" x="765.5" y="350.8232">isValid</text><path d="M694,370.6797 L755,370.6797 L755,379.0313 L745,389.0313 L694,389.0313 L694,370.6797 " fill="#EEEEEE" style="stroke:#000000;stroke-width:1.5;"/><rect fill="none" height="48.7031" style="stroke:#000000;stroke-width:1.5;" width="234.5" x="694" y="370.6797"/><text fill="#000000" font-family="sans-serif" font-size="13" font-weight="bold" lengthAdjust="spacing" textLength="16" x="709" y="385.1748">alt</text><text fill="#000000" font-family="sans-serif" font-size="11" font-weight="bold" lengthAdjust="spacing" textLength="48" x="770" y="384.0986">[!isValid]</text><polygon fill="#181818" points="758.5,407.3828,748.5,411.3828,758.5,415.3828,754.5,411.3828" style="stroke:#181818;stroke-width:1.0;"/><line style="stroke:#181818;stroke-width:1.0;stroke-dasharray:2.0,2.0;" x1="752.5" x2="882.5" y1="411.3828" y2="411.3828"/><text fill="#000000" font-family="sans-serif" font-size="13" font-weight="bold" lengthAdjust="spacing" textLength="7" x="764.5" y="406.5264">9</text><text fill="#000000" font-family="sans-serif" font-size="13" lengthAdjust="spacing" textLength="20" x="775.5" y="406.5264">null</text><line style="stroke:#181818;stroke-width:1.0;" x1="752.5" x2="794.5" y1="448.7344" y2="448.7344"/><line style="stroke:#181818;stroke-width:1.0;" x1="794.5" x2="794.5" y1="448.7344" y2="461.7344"/><line style="stroke:#181818;stroke-width:1.0;" x1="753.5" x2="794.5" y1="461.7344" y2="461.7344"/><polygon fill="#181818" points="763.5,457.7344,753.5,461.7344,763.5,465.7344,759.5,461.7344" style="stroke:#181818;stroke-width:1.0;"/><text fill="#000000" font-family="sans-serif" font-size="13" font-weight="bold" lengthAdjust="spacing" textLength="14" x="759.5" y="443.8779">10</text><text fill="#000000" font-family="sans-serif" font-size="13" lengthAdjust="spacing" textLength="99" x="777.5" y="443.8779">warehouseExists</text><path d="M598,434.8828 L598,460.8828 L732,460.8828 L732,444.8828 L722,434.8828 L598,434.8828 " fill="#FEFFDD" style="stroke:#181818;stroke-width:0.5;"/><path d="M722,434.8828 L722,444.8828 L732,444.8828 L722,434.8828 " fill="#FEFFDD" style="stroke:#181818;stroke-width:0.5;"/><text fill="#000000" font-family="sans-serif" font-size="13" lengthAdjust="spacing" textLength="113" x="604" y="453.3779">get request to MDA</text><polygon fill="#181818" points="1028,518.0859,1038,522.0859,1028,526.0859,1032,522.0859" style="stroke:#181818;stroke-width:1.0;"/><line style="stroke:#181818;stroke-width:1.0;" x1="747.5" x2="1034" y1="522.0859" y2="522.0859"/><text fill="#000000" font-family="sans-serif" font-size="13" font-weight="bold" lengthAdjust="spacing" textLength="14" x="754.5" y="517.2295">11</text><text fill="#000000" font-family="sans-serif" font-size="13" lengthAdjust="spacing" textLength="36" x="772.5" y="517.2295">create</text><polygon fill="#181818" points="866.5,578.4375,876.5,582.4375,866.5,586.4375,870.5,582.4375" style="stroke:#181818;stroke-width:1.0;"/><line style="stroke:#181818;stroke-width:1.0;" x1="747.5" x2="872.5" y1="582.4375" y2="582.4375"/><text fill="#000000" font-family="sans-serif" font-size="13" font-weight="bold" lengthAdjust="spacing" textLength="14" x="754.5" y="577.5811">12</text><text fill="#000000" font-family="sans-serif" font-size="13" lengthAdjust="spacing" textLength="55" x="772.5" y="577.5811">toDomain</text><polygon fill="#181818" points="591,638.7891,581,642.7891,591,646.7891,587,642.7891" style="stroke:#181818;stroke-width:1.0;"/><line style="stroke:#181818;stroke-width:1.0;stroke-dasharray:2.0,2.0;" x1="585" x2="741.5" y1="642.7891" y2="642.7891"/><text fill="#000000" font-family="sans-serif" font-size="13" font-weight="bold" lengthAdjust="spacing" textLength="14" x="597" y="637.9326">13</text><text fill="#000000" font-family="sans-serif" font-size="13" lengthAdjust="spacing" textLength="4" x="615" y="637.9326"> </text><polygon fill="#181818" points="948,669.1406,958,673.1406,948,677.1406,952,673.1406" style="stroke:#181818;stroke-width:1.0;"/><line style="stroke:#181818;stroke-width:1.0;" x1="580" x2="954" y1="673.1406" y2="673.1406"/><text fill="#000000" font-family="sans-serif" font-size="13" font-weight="bold" lengthAdjust="spacing" textLength="14" x="587" y="668.2842">14</text><text fill="#000000" font-family="sans-serif" font-size="13" lengthAdjust="spacing" textLength="37" x="605" y="668.2842">toDTO</text><polygon fill="#181818" points="483.5,729.4922,473.5,733.4922,483.5,737.4922,479.5,733.4922" style="stroke:#181818;stroke-width:1.0;"/><line style="stroke:#181818;stroke-width:1.0;stroke-dasharray:2.0,2.0;" x1="477.5" x2="574" y1="733.4922" y2="733.4922"/><text fill="#000000" font-family="sans-serif" font-size="13" font-weight="bold" lengthAdjust="spacing" textLength="14" x="489.5" y="728.6357">15</text><text fill="#000000" font-family="sans-serif" font-size="13" lengthAdjust="spacing" textLength="4" x="507.5" y="728.6357"> </text><polygon fill="#181818" points="380.5,759.8438,370.5,763.8438,380.5,767.8438,376.5,763.8438" style="stroke:#181818;stroke-width:1.0;"/><line style="stroke:#181818;stroke-width:1.0;stroke-dasharray:2.0,2.0;" x1="374.5" x2="466.5" y1="763.8438" y2="763.8438"/><text fill="#000000" font-family="sans-serif" font-size="13" font-weight="bold" lengthAdjust="spacing" textLength="14" x="386.5" y="758.9873">16</text><text fill="#000000" font-family="sans-serif" font-size="13" lengthAdjust="spacing" textLength="4" x="404.5" y="758.9873"> </text><path d="M10,778.8438 L71,778.8438 L71,787.1953 L61,797.1953 L10,797.1953 L10,778.8438 " fill="#EEEEEE" style="stroke:#000000;stroke-width:1.5;"/><rect fill="none" height="141.7578" style="stroke:#000000;stroke-width:1.5;" width="405" x="10" y="778.8438"/><text fill="#000000" font-family="sans-serif" font-size="13" font-weight="bold" lengthAdjust="spacing" textLength="16" x="25" y="793.3389">alt</text><text fill="#000000" font-family="sans-serif" font-size="11" font-weight="bold" lengthAdjust="spacing" textLength="55" x="86" y="792.2627">[success]</text><polygon fill="#181818" points="267.5,815.5469,257.5,819.5469,267.5,823.5469,263.5,819.5469" style="stroke:#181818;stroke-width:1.0;"/><line style="stroke:#181818;stroke-width:1.0;stroke-dasharray:2.0,2.0;" x1="261.5" x2="358.5" y1="819.5469" y2="819.5469"/><text fill="#000000" font-family="sans-serif" font-size="13" font-weight="bold" lengthAdjust="spacing" textLength="14" x="273.5" y="814.6904">17</text><text fill="#000000" font-family="sans-serif" font-size="13" lengthAdjust="spacing" textLength="61" x="291.5" y="814.6904">status 201</text><polygon fill="#181818" points="64.5,845.8984,54.5,849.8984,64.5,853.8984,60.5,849.8984" style="stroke:#181818;stroke-width:1.0;"/><line style="stroke:#181818;stroke-width:1.0;stroke-dasharray:2.0,2.0;" x1="58.5" x2="245.5" y1="849.8984" y2="849.8984"/><text fill="#000000" font-family="sans-serif" font-size="13" font-weight="bold" lengthAdjust="spacing" textLength="14" x="70.5" y="845.042">18</text><text fill="#000000" font-family="sans-serif" font-size="13" lengthAdjust="spacing" textLength="151" x="88.5" y="845.042">display success message</text><line style="stroke:#000000;stroke-width:1.0;stroke-dasharray:2.0,2.0;" x1="10" x2="415" y1="858.8984" y2="858.8984"/><polygon fill="#181818" points="267.5,878.25,257.5,882.25,267.5,886.25,263.5,882.25" style="stroke:#181818;stroke-width:1.0;"/><line style="stroke:#181818;stroke-width:1.0;stroke-dasharray:2.0,2.0;" x1="261.5" x2="363.5" y1="882.25" y2="882.25"/><text fill="#000000" font-family="sans-serif" font-size="13" font-weight="bold" lengthAdjust="spacing" textLength="14" x="273.5" y="877.3936">19</text><text fill="#000000" font-family="sans-serif" font-size="13" lengthAdjust="spacing" textLength="61" x="291.5" y="877.3936">status 400</text><polygon fill="#181818" points="64.5,908.6016,54.5,912.6016,64.5,916.6016,60.5,912.6016" style="stroke:#181818;stroke-width:1.0;"/><line style="stroke:#181818;stroke-width:1.0;stroke-dasharray:2.0,2.0;" x1="58.5" x2="250.5" y1="912.6016" y2="912.6016"/><text fill="#000000" font-family="sans-serif" font-size="13" font-weight="bold" lengthAdjust="spacing" textLength="14" x="70.5" y="907.7451">20</text><text fill="#000000" font-family="sans-serif" font-size="13" lengthAdjust="spacing" textLength="136" x="88.5" y="907.7451">display failure message</text><!--MD5=[d755b792dc9d710f9bfad9f76f1a2f81]
@startuml

autonumber
participant "SPA UI" as UI
participant "MDL" as MDL
participant "PathRoute" as ROUTE
participant "PathController" as CTR
participant "PathService" as SERVICE
participant "Path" as Path
participant "PathRepo" as REPO
participant "PathMap" as MAP
participant "PathDTO" as DTO
database "Database" as DB

activate UI
UI -> MDL: post(/Paths)
activate MDL
MDL -> ROUTE : post
activate ROUTE
ROUTE -> CTR : createPath
activate CTR
CTR -> SERVICE : createPath
activate SERVICE
SERVICE -> Path** : create
SERVICE -> REPO : save
activate REPO
REPO -> MAP : toPersistence
activate MAP
deactivate MAP
REPO -> MAP : isValid
activate MAP
alt !isValid
MAP - -> REPO: null
deactivate MAP
end
REPO -> REPO : warehouseExists
note left
  get request to MDA
end note
activate REPO
deactivate REPO
REPO -> DB : create
activate DB
deactivate DB
REPO -> MAP : toDomain
activate MAP
deactivate MAP
REPO - -> SERVICE
deactivate REPO
SERVICE -> DTO : toDTO
activate DTO
deactivate DTO
SERVICE - -> CTR
deactivate SERVICE
CTR - -> ROUTE
deactivate CTR
alt success
ROUTE - -> MDL : status 201
MDL - -> UI : display success message
else
ROUTE - -> MDL : status 400
deactivate ROUTE
MDL - -> UI : display failure message
deactivate
end

@enduml

PlantUML version 1.2022.7(Mon Aug 22 18:01:30 WEST 2022)
(GPL source distribution)
Java Runtime: Java(TM) SE Runtime Environment
JVM: Java HotSpot(TM) 64-Bit Server VM
Default Encoding: Cp1252
Language: pt
Country: PT
--></g></svg>