<?xml version="1.0" encoding="UTF-8" standalone="no"?><svg xmlns="http://www.w3.org/2000/svg" xmlns:xlink="http://www.w3.org/1999/xlink" contentStyleType="text/css" height="744px" preserveAspectRatio="none" style="width:1355px;height:744px;background:#FFFFFF;" version="1.1" viewBox="0 0 1355 744" width="1355px" zoomAndPan="magnify"><defs/><g><rect fill="#FFFFFF" height="577.3281" style="stroke:#181818;stroke-width:1.0;" width="10" x="277.5" y="78.6094"/><rect fill="#FFFFFF" height="502.0977" style="stroke:#181818;stroke-width:1.0;" width="10" x="406.5" y="144.8398"/><rect fill="#FFFFFF" height="397.5156" style="stroke:#181818;stroke-width:1.0;" width="10" x="519.5" y="219.0703"/><rect fill="#FFFFFF" height="336.8125" style="stroke:#181818;stroke-width:1.0;" width="10" x="627" y="249.4219"/><rect fill="#FFFFFF" height="191.4063" style="stroke:#181818;stroke-width:1.0;" width="10" x="820.5" y="279.7734"/><rect fill="#FFFFFF" height="60.3516" style="stroke:#181818;stroke-width:1.0;" width="10" x="962.5" y="310.125"/><rect fill="#FFFFFF" height="30" style="stroke:#181818;stroke-width:1.0;" width="10" x="1153.5" y="426.1797"/><rect fill="#FFFFFF" height="30" style="stroke:#181818;stroke-width:1.0;" width="10" x="1153.5" y="518.8828"/><rect fill="#FFFFFF" height="30" style="stroke:#181818;stroke-width:1.0;" width="10" x="1315" y="340.4766"/><rect fill="none" height="78.7031" style="stroke:#000000;stroke-width:1.5;" width="426.5" x="777" y="385.4766"/><rect fill="none" height="78.7031" style="stroke:#000000;stroke-width:1.5;" width="626.5" x="577" y="478.1797"/><line style="stroke:#181818;stroke-width:0.5;stroke-dasharray:5.0,5.0;" x1="282" x2="282" y1="68.6094" y2="664.9375"/><line style="stroke:#181818;stroke-width:0.5;stroke-dasharray:5.0,5.0;" x1="411" x2="411" y1="68.6094" y2="664.9375"/><line style="stroke:#181818;stroke-width:0.5;stroke-dasharray:5.0,5.0;" x1="524" x2="524" y1="68.6094" y2="664.9375"/><line style="stroke:#181818;stroke-width:0.5;stroke-dasharray:5.0,5.0;" x1="632" x2="632" y1="68.6094" y2="664.9375"/><line style="stroke:#181818;stroke-width:0.5;stroke-dasharray:5.0,5.0;" x1="732" x2="732" y1="68.6094" y2="664.9375"/><line style="stroke:#181818;stroke-width:0.5;stroke-dasharray:5.0,5.0;" x1="825" x2="825" y1="68.6094" y2="664.9375"/><line style="stroke:#181818;stroke-width:0.5;stroke-dasharray:5.0,5.0;" x1="967.5" x2="967.5" y1="68.6094" y2="664.9375"/><line style="stroke:#181818;stroke-width:0.5;stroke-dasharray:5.0,5.0;" x1="1068.5" x2="1068.5" y1="68.6094" y2="664.9375"/><line style="stroke:#181818;stroke-width:0.5;stroke-dasharray:5.0,5.0;" x1="1158.5" x2="1158.5" y1="68.6094" y2="664.9375"/><line style="stroke:#181818;stroke-width:0.5;stroke-dasharray:5.0,5.0;" x1="1239.5" x2="1239.5" y1="68.6094" y2="664.9375"/><line style="stroke:#181818;stroke-width:0.5;stroke-dasharray:5.0,5.0;" x1="1319.5" x2="1319.5" y1="68.6094" y2="664.9375"/><rect fill="#E2E2F0" height="31.6094" rx="2.5" ry="2.5" style="stroke:#181818;stroke-width:0.5;" width="43" x="261" y="36"/><text fill="#000000" font-family="sans-serif" font-size="14" lengthAdjust="spacing" textLength="29" x="268" y="57.5332">MDL</text><rect fill="#E2E2F0" height="31.6094" rx="2.5" ry="2.5" style="stroke:#181818;stroke-width:0.5;" width="43" x="261" y="663.9375"/><text fill="#000000" font-family="sans-serif" font-size="14" lengthAdjust="spacing" textLength="29" x="268" y="685.4707">MDL</text><rect fill="#E2E2F0" height="31.6094" rx="2.5" ry="2.5" style="stroke:#181818;stroke-width:0.5;" width="81" x="371" y="36"/><text fill="#000000" font-family="sans-serif" font-size="14" lengthAdjust="spacing" textLength="67" x="378" y="57.5332">PathRoute</text><rect fill="#E2E2F0" height="31.6094" rx="2.5" ry="2.5" style="stroke:#181818;stroke-width:0.5;" width="81" x="371" y="663.9375"/><text fill="#000000" font-family="sans-serif" font-size="14" lengthAdjust="spacing" textLength="67" x="378" y="685.4707">PathRoute</text><rect fill="#E2E2F0" height="31.6094" rx="2.5" ry="2.5" style="stroke:#181818;stroke-width:0.5;" width="105" x="472" y="36"/><text fill="#000000" font-family="sans-serif" font-size="14" lengthAdjust="spacing" textLength="91" x="479" y="57.5332">PathController</text><rect fill="#E2E2F0" height="31.6094" rx="2.5" ry="2.5" style="stroke:#181818;stroke-width:0.5;" width="105" x="472" y="663.9375"/><text fill="#000000" font-family="sans-serif" font-size="14" lengthAdjust="spacing" textLength="91" x="479" y="685.4707">PathController</text><rect fill="#E2E2F0" height="31.6094" rx="2.5" ry="2.5" style="stroke:#181818;stroke-width:0.5;" width="90" x="587" y="36"/><text fill="#000000" font-family="sans-serif" font-size="14" lengthAdjust="spacing" textLength="76" x="594" y="57.5332">PathService</text><rect fill="#E2E2F0" height="31.6094" rx="2.5" ry="2.5" style="stroke:#181818;stroke-width:0.5;" width="90" x="587" y="663.9375"/><text fill="#000000" font-family="sans-serif" font-size="14" lengthAdjust="spacing" textLength="76" x="594" y="685.4707">PathService</text><rect fill="#E2E2F0" height="31.6094" rx="2.5" ry="2.5" style="stroke:#181818;stroke-width:0.5;" width="90" x="687" y="36"/><text fill="#000000" font-family="sans-serif" font-size="14" lengthAdjust="spacing" textLength="76" x="694" y="57.5332">PathsResult</text><rect fill="#E2E2F0" height="31.6094" rx="2.5" ry="2.5" style="stroke:#181818;stroke-width:0.5;" width="90" x="687" y="663.9375"/><text fill="#000000" font-family="sans-serif" font-size="14" lengthAdjust="spacing" textLength="76" x="694" y="685.4707">PathsResult</text><rect fill="#E2E2F0" height="31.6094" rx="2.5" ry="2.5" style="stroke:#181818;stroke-width:0.5;" width="77" x="787" y="36"/><text fill="#000000" font-family="sans-serif" font-size="14" lengthAdjust="spacing" textLength="63" x="794" y="57.5332">PathRepo</text><rect fill="#E2E2F0" height="31.6094" rx="2.5" ry="2.5" style="stroke:#181818;stroke-width:0.5;" width="77" x="787" y="663.9375"/><text fill="#000000" font-family="sans-serif" font-size="14" lengthAdjust="spacing" textLength="63" x="794" y="685.4707">PathRepo</text><rect fill="#E2E2F0" height="31.6094" rx="2.5" ry="2.5" style="stroke:#181818;stroke-width:0.5;" width="94" x="920.5" y="36"/><text fill="#000000" font-family="sans-serif" font-size="14" lengthAdjust="spacing" textLength="80" x="927.5" y="57.5332">PathSchema</text><rect fill="#E2E2F0" height="31.6094" rx="2.5" ry="2.5" style="stroke:#181818;stroke-width:0.5;" width="94" x="920.5" y="663.9375"/><text fill="#000000" font-family="sans-serif" font-size="14" lengthAdjust="spacing" textLength="80" x="927.5" y="685.4707">PathSchema</text><rect fill="#E2E2F0" height="31.6094" rx="2.5" ry="2.5" style="stroke:#181818;stroke-width:0.5;" width="89" x="1024.5" y="36"/><text fill="#000000" font-family="sans-serif" font-size="14" lengthAdjust="spacing" textLength="75" x="1031.5" y="57.5332">PathRecord</text><rect fill="#E2E2F0" height="31.6094" rx="2.5" ry="2.5" style="stroke:#181818;stroke-width:0.5;" width="89" x="1024.5" y="663.9375"/><text fill="#000000" font-family="sans-serif" font-size="14" lengthAdjust="spacing" textLength="75" x="1031.5" y="685.4707">PathRecord</text><rect fill="#E2E2F0" height="31.6094" rx="2.5" ry="2.5" style="stroke:#181818;stroke-width:0.5;" width="70" x="1123.5" y="36"/><text fill="#000000" font-family="sans-serif" font-size="14" lengthAdjust="spacing" textLength="56" x="1130.5" y="57.5332">PathMap</text><rect fill="#E2E2F0" height="31.6094" rx="2.5" ry="2.5" style="stroke:#181818;stroke-width:0.5;" width="70" x="1123.5" y="663.9375"/><text fill="#000000" font-family="sans-serif" font-size="14" lengthAdjust="spacing" textLength="56" x="1130.5" y="685.4707">PathMap</text><rect fill="#E2E2F0" height="31.6094" rx="2.5" ry="2.5" style="stroke:#181818;stroke-width:0.5;" width="73" x="1203.5" y="36"/><text fill="#000000" font-family="sans-serif" font-size="14" lengthAdjust="spacing" textLength="59" x="1210.5" y="57.5332">PathDTO</text><rect fill="#E2E2F0" height="31.6094" rx="2.5" ry="2.5" style="stroke:#181818;stroke-width:0.5;" width="73" x="1203.5" y="663.9375"/><text fill="#000000" font-family="sans-serif" font-size="14" lengthAdjust="spacing" textLength="59" x="1210.5" y="685.4707">PathDTO</text><text fill="#000000" font-family="sans-serif" font-size="14" lengthAdjust="spacing" textLength="61" x="1286.5" y="65.5332">Database</text><path d="M1302,15 C1302,5 1320,5 1320,5 C1320,5 1338,5 1338,15 L1338,41 C1338,51 1320,51 1320,51 C1320,51 1302,51 1302,41 L1302,15 " fill="#E2E2F0" style="stroke:#181818;stroke-width:1.5;"/><path d="M1302,15 C1302,25 1320,25 1320,25 C1320,25 1338,25 1338,15 " fill="none" style="stroke:#181818;stroke-width:1.5;"/><text fill="#000000" font-family="sans-serif" font-size="14" lengthAdjust="spacing" textLength="61" x="1286.5" y="678.4707">Database</text><path d="M1302,691.5469 C1302,681.5469 1320,681.5469 1320,681.5469 C1320,681.5469 1338,681.5469 1338,691.5469 L1338,717.5469 C1338,727.5469 1320,727.5469 1320,727.5469 C1320,727.5469 1302,727.5469 1302,717.5469 L1302,691.5469 " fill="#E2E2F0" style="stroke:#181818;stroke-width:1.5;"/><path d="M1302,691.5469 C1302,701.5469 1320,701.5469 1320,701.5469 C1320,701.5469 1338,701.5469 1338,691.5469 " fill="none" style="stroke:#181818;stroke-width:1.5;"/><rect fill="#FFFFFF" height="577.3281" style="stroke:#181818;stroke-width:1.0;" width="10" x="277.5" y="78.6094"/><rect fill="#FFFFFF" height="502.0977" style="stroke:#181818;stroke-width:1.0;" width="10" x="406.5" y="144.8398"/><rect fill="#FFFFFF" height="397.5156" style="stroke:#181818;stroke-width:1.0;" width="10" x="519.5" y="219.0703"/><rect fill="#FFFFFF" height="336.8125" style="stroke:#181818;stroke-width:1.0;" width="10" x="627" y="249.4219"/><rect fill="#FFFFFF" height="191.4063" style="stroke:#181818;stroke-width:1.0;" width="10" x="820.5" y="279.7734"/><rect fill="#FFFFFF" height="60.3516" style="stroke:#181818;stroke-width:1.0;" width="10" x="962.5" y="310.125"/><rect fill="#FFFFFF" height="30" style="stroke:#181818;stroke-width:1.0;" width="10" x="1153.5" y="426.1797"/><rect fill="#FFFFFF" height="30" style="stroke:#181818;stroke-width:1.0;" width="10" x="1153.5" y="518.8828"/><rect fill="#FFFFFF" height="30" style="stroke:#181818;stroke-width:1.0;" width="10" x="1315" y="340.4766"/><polygon fill="#181818" points="394.5,140.8398,404.5,144.8398,394.5,148.8398,398.5,144.8398" style="stroke:#181818;stroke-width:1.0;"/><line style="stroke:#181818;stroke-width:1.0;" x1="287.5" x2="400.5" y1="144.8398" y2="144.8398"/><text fill="#000000" font-family="sans-serif" font-size="13" font-weight="bold" lengthAdjust="spacing" textLength="7" x="294.5" y="139.9834">1</text><text fill="#000000" font-family="sans-serif" font-size="13" lengthAdjust="spacing" textLength="64" x="305.5" y="139.9834">get(/Paths)</text><path d="M5,83.6094 L5,191.6094 L273,191.6094 L273,93.6094 L263,83.6094 L5,83.6094 " fill="#FEFFDD" style="stroke:#181818;stroke-width:0.5;"/><path d="M263,83.6094 L263,93.6094 L273,93.6094 L263,83.6094 " fill="#FEFFDD" style="stroke:#181818;stroke-width:0.5;"/><text fill="#000000" font-family="sans-serif" font-size="13" lengthAdjust="spacing" textLength="204" x="11" y="102.1045">Depending on the selected filter (id,</text><text fill="#000000" font-family="sans-serif" font-size="13" lengthAdjust="spacing" textLength="230" x="11" y="118.4561">idWarehouseStart, idWarehouseEnd, or</text><text fill="#000000" font-family="sans-serif" font-size="13" lengthAdjust="spacing" textLength="236" x="11" y="134.8076">idWarehouseStart and idWarehouseEnd)</text><text fill="#000000" font-family="sans-serif" font-size="13" lengthAdjust="spacing" textLength="206" x="11" y="151.1592">the request and the methods will be</text><text fill="#000000" font-family="sans-serif" font-size="13" lengthAdjust="spacing" textLength="247" x="11" y="167.5107">different, changing only the method's name</text><text fill="#000000" font-family="sans-serif" font-size="13" lengthAdjust="spacing" textLength="113" x="11" y="183.8623">and implementation</text><polygon fill="#181818" points="507.5,215.0703,517.5,219.0703,507.5,223.0703,511.5,219.0703" style="stroke:#181818;stroke-width:1.0;"/><line style="stroke:#181818;stroke-width:1.0;" x1="416.5" x2="513.5" y1="219.0703" y2="219.0703"/><text fill="#000000" font-family="sans-serif" font-size="13" font-weight="bold" lengthAdjust="spacing" textLength="7" x="423.5" y="214.2139">2</text><text fill="#000000" font-family="sans-serif" font-size="13" lengthAdjust="spacing" textLength="52" x="434.5" y="214.2139">getPaths</text><polygon fill="#181818" points="615,245.4219,625,249.4219,615,253.4219,619,249.4219" style="stroke:#181818;stroke-width:1.0;"/><line style="stroke:#181818;stroke-width:1.0;" x1="529.5" x2="621" y1="249.4219" y2="249.4219"/><text fill="#000000" font-family="sans-serif" font-size="13" font-weight="bold" lengthAdjust="spacing" textLength="7" x="536.5" y="244.5654">3</text><text fill="#000000" font-family="sans-serif" font-size="13" lengthAdjust="spacing" textLength="52" x="547.5" y="244.5654">getPaths</text><polygon fill="#181818" points="808.5,275.7734,818.5,279.7734,808.5,283.7734,812.5,279.7734" style="stroke:#181818;stroke-width:1.0;"/><line style="stroke:#181818;stroke-width:1.0;" x1="637" x2="814.5" y1="279.7734" y2="279.7734"/><text fill="#000000" font-family="sans-serif" font-size="13" font-weight="bold" lengthAdjust="spacing" textLength="7" x="644" y="274.917">4</text><text fill="#000000" font-family="sans-serif" font-size="13" lengthAdjust="spacing" textLength="120" x="655" y="274.917">pathsResult = findAll</text><polygon fill="#181818" points="950.5,306.125,960.5,310.125,950.5,314.125,954.5,310.125" style="stroke:#181818;stroke-width:1.0;"/><line style="stroke:#181818;stroke-width:1.0;" x1="830.5" x2="956.5" y1="310.125" y2="310.125"/><text fill="#000000" font-family="sans-serif" font-size="13" font-weight="bold" lengthAdjust="spacing" textLength="7" x="837.5" y="305.2686">5</text><text fill="#000000" font-family="sans-serif" font-size="13" lengthAdjust="spacing" textLength="102" x="848.5" y="305.2686">pathRecord = find</text><polygon fill="#181818" points="1303,336.4766,1313,340.4766,1303,344.4766,1307,340.4766" style="stroke:#181818;stroke-width:1.0;"/><line style="stroke:#181818;stroke-width:1.0;" x1="972.5" x2="1309" y1="340.4766" y2="340.4766"/><text fill="#000000" font-family="sans-serif" font-size="13" font-weight="bold" lengthAdjust="spacing" textLength="7" x="979.5" y="335.6201">6</text><text fill="#000000" font-family="sans-serif" font-size="13" lengthAdjust="spacing" textLength="20" x="990.5" y="335.6201">find</text><path d="M777,385.4766 L850,385.4766 L850,393.8281 L840,403.8281 L777,403.8281 L777,385.4766 " fill="#EEEEEE" style="stroke:#000000;stroke-width:1.5;"/><rect fill="none" height="78.7031" style="stroke:#000000;stroke-width:1.5;" width="426.5" x="777" y="385.4766"/><text fill="#000000" font-family="sans-serif" font-size="13" font-weight="bold" lengthAdjust="spacing" textLength="28" x="792" y="399.9717">loop</text><text fill="#000000" font-family="sans-serif" font-size="11" font-weight="bold" lengthAdjust="spacing" textLength="126" x="865" y="398.8955">[element : pathRecord]</text><polygon fill="#181818" points="1141.5,422.1797,1151.5,426.1797,1141.5,430.1797,1145.5,426.1797" style="stroke:#181818;stroke-width:1.0;"/><line style="stroke:#181818;stroke-width:1.0;" x1="830.5" x2="1147.5" y1="426.1797" y2="426.1797"/><text fill="#000000" font-family="sans-serif" font-size="13" font-weight="bold" lengthAdjust="spacing" textLength="7" x="837.5" y="421.3232">7</text><text fill="#000000" font-family="sans-serif" font-size="13" lengthAdjust="spacing" textLength="55" x="848.5" y="421.3232">toDomain</text><path d="M577,478.1797 L650,478.1797 L650,486.5313 L640,496.5313 L577,496.5313 L577,478.1797 " fill="#EEEEEE" style="stroke:#000000;stroke-width:1.5;"/><rect fill="none" height="78.7031" style="stroke:#000000;stroke-width:1.5;" width="626.5" x="577" y="478.1797"/><text fill="#000000" font-family="sans-serif" font-size="13" font-weight="bold" lengthAdjust="spacing" textLength="28" x="592" y="492.6748">loop</text><text fill="#000000" font-family="sans-serif" font-size="11" font-weight="bold" lengthAdjust="spacing" textLength="109" x="665" y="491.5986">[linha : pathsResult]</text><polygon fill="#181818" points="1141.5,514.8828,1151.5,518.8828,1141.5,522.8828,1145.5,518.8828" style="stroke:#181818;stroke-width:1.0;"/><line style="stroke:#181818;stroke-width:1.0;" x1="637" x2="1147.5" y1="518.8828" y2="518.8828"/><text fill="#000000" font-family="sans-serif" font-size="13" font-weight="bold" lengthAdjust="spacing" textLength="7" x="644" y="514.0264">8</text><text fill="#000000" font-family="sans-serif" font-size="13" lengthAdjust="spacing" textLength="37" x="655" y="514.0264">toDTO</text><polygon fill="#181818" points="540.5,582.2344,530.5,586.2344,540.5,590.2344,536.5,586.2344" style="stroke:#181818;stroke-width:1.0;"/><line style="stroke:#181818;stroke-width:1.0;stroke-dasharray:2.0,2.0;" x1="534.5" x2="631" y1="586.2344" y2="586.2344"/><text fill="#000000" font-family="sans-serif" font-size="13" font-weight="bold" lengthAdjust="spacing" textLength="7" x="546.5" y="581.3779">9</text><text fill="#000000" font-family="sans-serif" font-size="13" lengthAdjust="spacing" textLength="4" x="557.5" y="581.3779"> </text><polygon fill="#181818" points="427.5,612.5859,417.5,616.5859,427.5,620.5859,423.5,616.5859" style="stroke:#181818;stroke-width:1.0;"/><line style="stroke:#181818;stroke-width:1.0;stroke-dasharray:2.0,2.0;" x1="421.5" x2="523.5" y1="616.5859" y2="616.5859"/><text fill="#000000" font-family="sans-serif" font-size="13" font-weight="bold" lengthAdjust="spacing" textLength="14" x="433.5" y="611.7295">10</text><text fill="#000000" font-family="sans-serif" font-size="13" lengthAdjust="spacing" textLength="61" x="451.5" y="611.7295">status 200</text><polygon fill="#181818" points="298.5,642.9375,288.5,646.9375,298.5,650.9375,294.5,646.9375" style="stroke:#181818;stroke-width:1.0;"/><line style="stroke:#181818;stroke-width:1.0;stroke-dasharray:2.0,2.0;" x1="292.5" x2="410.5" y1="646.9375" y2="646.9375"/><text fill="#000000" font-family="sans-serif" font-size="13" font-weight="bold" lengthAdjust="spacing" textLength="14" x="304.5" y="642.0811">11</text><text fill="#000000" font-family="sans-serif" font-size="13" lengthAdjust="spacing" textLength="77" x="322.5" y="642.0811">displays data</text><!--MD5=[141b459a9d088406f6457a45b2078ee9]
@startuml

autonumber
participant "MDL" as MDL
participant "PathRoute" as ROUTE
participant "PathController" as CTR
participant "PathService" as SERVICE
participant "PathsResult" as Result
participant "PathRepo" as REPO
participant "PathSchema" as SCHEMA
participant "PathRecord" as RECORD
participant "PathMap" as MAP
participant "PathDTO" as DTO
database "Database" as DB

activate MDL
MDL -> ROUTE: get(/Paths)
activate ROUTE

note left
  Depending on the selected filter (id, 
  idWarehouseStart, idWarehouseEnd, or 
  idWarehouseStart and idWarehouseEnd) 
  the request and the methods will be 
  different, changing only the method's name
  and implementation
end note

ROUTE -> CTR : getPaths
activate CTR
CTR -> SERVICE : getPaths
activate SERVICE
SERVICE -> REPO : pathsResult = findAll
activate REPO
REPO -> SCHEMA : pathRecord = find
activate SCHEMA
SCHEMA -> DB : find
activate DB
deactivate DB
deactivate SCHEMA
loop element : pathRecord
REPO -> MAP : toDomain
activate MAP
deactivate MAP
end
deactivate REPO

loop linha : pathsResult
SERVICE -> MAP : toDTO
activate MAP
deactivate MAP
end
SERVICE - -> CTR
deactivate SERVICE
CTR - -> ROUTE : status 200
deactivate CTR
ROUTE - -> MDL : displays data
deactivate ROUTE

@enduml

PlantUML version 1.2022.7(Mon Aug 22 18:01:30 WEST 2022)
(GPL source distribution)
Java Runtime: Java(TM) SE Runtime Environment
JVM: Java HotSpot(TM) 64-Bit Server VM
Default Encoding: Cp1252
Language: pt
Country: PT
--></g></svg>