<?xml version="1.0" encoding="UTF-8" standalone="no"?><svg xmlns="http://www.w3.org/2000/svg" xmlns:xlink="http://www.w3.org/1999/xlink" contentStyleType="text/css" height="728px" preserveAspectRatio="none" style="width:1474px;height:728px;background:#FFFFFF;" version="1.1" viewBox="0 0 1474 728" width="1474px" zoomAndPan="magnify"><defs/><g><rect fill="#FFFFFF" height="560.9766" style="stroke:#181818;stroke-width:1.0;" width="10" x="229.5" y="78.6094"/><rect fill="#FFFFFF" height="493.9219" style="stroke:#181818;stroke-width:1.0;" width="10" x="358.5" y="136.6641"/><rect fill="#FFFFFF" height="397.5156" style="stroke:#181818;stroke-width:1.0;" width="10" x="482.5" y="202.7188"/><rect fill="#FFFFFF" height="336.8125" style="stroke:#181818;stroke-width:1.0;" width="10" x="611" y="233.0703"/><rect fill="#FFFFFF" height="191.4063" style="stroke:#181818;stroke-width:1.0;" width="10" x="846.5" y="263.4219"/><rect fill="#FFFFFF" height="60.3516" style="stroke:#181818;stroke-width:1.0;" width="10" x="1008.5" y="293.7734"/><rect fill="#FFFFFF" height="30" style="stroke:#181818;stroke-width:1.0;" width="10" x="1241.5" y="409.8281"/><rect fill="#FFFFFF" height="30" style="stroke:#181818;stroke-width:1.0;" width="10" x="1241.5" y="502.5313"/><rect fill="#FFFFFF" height="30" style="stroke:#181818;stroke-width:1.0;" width="10" x="1434.5" y="324.125"/><rect fill="none" height="78.7031" style="stroke:#000000;stroke-width:1.5;" width="509.5" x="792.5" y="369.125"/><rect fill="none" height="78.7031" style="stroke:#000000;stroke-width:1.5;" width="751.5" x="550.5" y="461.8281"/><line style="stroke:#181818;stroke-width:0.5;stroke-dasharray:5.0,5.0;" x1="234" x2="234" y1="68.6094" y2="648.5859"/><line style="stroke:#181818;stroke-width:0.5;stroke-dasharray:5.0,5.0;" x1="363.5" x2="363.5" y1="68.6094" y2="648.5859"/><line style="stroke:#181818;stroke-width:0.5;stroke-dasharray:5.0,5.0;" x1="487.5" x2="487.5" y1="68.6094" y2="648.5859"/><line style="stroke:#181818;stroke-width:0.5;stroke-dasharray:5.0,5.0;" x1="615.5" x2="615.5" y1="68.6094" y2="648.5859"/><line style="stroke:#181818;stroke-width:0.5;stroke-dasharray:5.0,5.0;" x1="736.5" x2="736.5" y1="68.6094" y2="648.5859"/><line style="stroke:#181818;stroke-width:0.5;stroke-dasharray:5.0,5.0;" x1="851.5" x2="851.5" y1="68.6094" y2="648.5859"/><line style="stroke:#181818;stroke-width:0.5;stroke-dasharray:5.0,5.0;" x1="1013" x2="1013" y1="68.6094" y2="648.5859"/><line style="stroke:#181818;stroke-width:0.5;stroke-dasharray:5.0,5.0;" x1="1136" x2="1136" y1="68.6094" y2="648.5859"/><line style="stroke:#181818;stroke-width:0.5;stroke-dasharray:5.0,5.0;" x1="1246" x2="1246" y1="68.6094" y2="648.5859"/><line style="stroke:#181818;stroke-width:0.5;stroke-dasharray:5.0,5.0;" x1="1349" x2="1349" y1="68.6094" y2="648.5859"/><line style="stroke:#181818;stroke-width:0.5;stroke-dasharray:5.0,5.0;" x1="1439" x2="1439" y1="68.6094" y2="648.5859"/><rect fill="#E2E2F0" height="31.6094" rx="2.5" ry="2.5" style="stroke:#181818;stroke-width:0.5;" width="43" x="213" y="36"/><text fill="#000000" font-family="sans-serif" font-size="14" lengthAdjust="spacing" textLength="29" x="220" y="57.5332">MDL</text><rect fill="#E2E2F0" height="31.6094" rx="2.5" ry="2.5" style="stroke:#181818;stroke-width:0.5;" width="43" x="213" y="647.5859"/><text fill="#000000" font-family="sans-serif" font-size="14" lengthAdjust="spacing" textLength="29" x="220" y="669.1191">MDL</text><rect fill="#E2E2F0" height="31.6094" rx="2.5" ry="2.5" style="stroke:#181818;stroke-width:0.5;" width="102" x="312.5" y="36"/><text fill="#000000" font-family="sans-serif" font-size="14" lengthAdjust="spacing" textLength="88" x="319.5" y="57.5332">PackingRoute</text><rect fill="#E2E2F0" height="31.6094" rx="2.5" ry="2.5" style="stroke:#181818;stroke-width:0.5;" width="102" x="312.5" y="647.5859"/><text fill="#000000" font-family="sans-serif" font-size="14" lengthAdjust="spacing" textLength="88" x="319.5" y="669.1191">PackingRoute</text><rect fill="#E2E2F0" height="31.6094" rx="2.5" ry="2.5" style="stroke:#181818;stroke-width:0.5;" width="126" x="424.5" y="36"/><text fill="#000000" font-family="sans-serif" font-size="14" lengthAdjust="spacing" textLength="112" x="431.5" y="57.5332">PackingController</text><rect fill="#E2E2F0" height="31.6094" rx="2.5" ry="2.5" style="stroke:#181818;stroke-width:0.5;" width="126" x="424.5" y="647.5859"/><text fill="#000000" font-family="sans-serif" font-size="14" lengthAdjust="spacing" textLength="112" x="431.5" y="669.1191">PackingController</text><rect fill="#E2E2F0" height="31.6094" rx="2.5" ry="2.5" style="stroke:#181818;stroke-width:0.5;" width="111" x="560.5" y="36"/><text fill="#000000" font-family="sans-serif" font-size="14" lengthAdjust="spacing" textLength="97" x="567.5" y="57.5332">PackingService</text><rect fill="#E2E2F0" height="31.6094" rx="2.5" ry="2.5" style="stroke:#181818;stroke-width:0.5;" width="111" x="560.5" y="647.5859"/><text fill="#000000" font-family="sans-serif" font-size="14" lengthAdjust="spacing" textLength="97" x="567.5" y="669.1191">PackingService</text><rect fill="#E2E2F0" height="31.6094" rx="2.5" ry="2.5" style="stroke:#181818;stroke-width:0.5;" width="111" x="681.5" y="36"/><text fill="#000000" font-family="sans-serif" font-size="14" lengthAdjust="spacing" textLength="97" x="688.5" y="57.5332">PackingsResult</text><rect fill="#E2E2F0" height="31.6094" rx="2.5" ry="2.5" style="stroke:#181818;stroke-width:0.5;" width="111" x="681.5" y="647.5859"/><text fill="#000000" font-family="sans-serif" font-size="14" lengthAdjust="spacing" textLength="97" x="688.5" y="669.1191">PackingsResult</text><rect fill="#E2E2F0" height="31.6094" rx="2.5" ry="2.5" style="stroke:#181818;stroke-width:0.5;" width="98" x="802.5" y="36"/><text fill="#000000" font-family="sans-serif" font-size="14" lengthAdjust="spacing" textLength="84" x="809.5" y="57.5332">PackingRepo</text><rect fill="#E2E2F0" height="31.6094" rx="2.5" ry="2.5" style="stroke:#181818;stroke-width:0.5;" width="98" x="802.5" y="647.5859"/><text fill="#000000" font-family="sans-serif" font-size="14" lengthAdjust="spacing" textLength="84" x="809.5" y="669.1191">PackingRepo</text><rect fill="#E2E2F0" height="31.6094" rx="2.5" ry="2.5" style="stroke:#181818;stroke-width:0.5;" width="115" x="956" y="36"/><text fill="#000000" font-family="sans-serif" font-size="14" lengthAdjust="spacing" textLength="101" x="963" y="57.5332">PackingSchema</text><rect fill="#E2E2F0" height="31.6094" rx="2.5" ry="2.5" style="stroke:#181818;stroke-width:0.5;" width="115" x="956" y="647.5859"/><text fill="#000000" font-family="sans-serif" font-size="14" lengthAdjust="spacing" textLength="101" x="963" y="669.1191">PackingSchema</text><rect fill="#E2E2F0" height="31.6094" rx="2.5" ry="2.5" style="stroke:#181818;stroke-width:0.5;" width="110" x="1081" y="36"/><text fill="#000000" font-family="sans-serif" font-size="14" lengthAdjust="spacing" textLength="96" x="1088" y="57.5332">PackingRecord</text><rect fill="#E2E2F0" height="31.6094" rx="2.5" ry="2.5" style="stroke:#181818;stroke-width:0.5;" width="110" x="1081" y="647.5859"/><text fill="#000000" font-family="sans-serif" font-size="14" lengthAdjust="spacing" textLength="96" x="1088" y="669.1191">PackingRecord</text><rect fill="#E2E2F0" height="31.6094" rx="2.5" ry="2.5" style="stroke:#181818;stroke-width:0.5;" width="91" x="1201" y="36"/><text fill="#000000" font-family="sans-serif" font-size="14" lengthAdjust="spacing" textLength="77" x="1208" y="57.5332">PackingMap</text><rect fill="#E2E2F0" height="31.6094" rx="2.5" ry="2.5" style="stroke:#181818;stroke-width:0.5;" width="91" x="1201" y="647.5859"/><text fill="#000000" font-family="sans-serif" font-size="14" lengthAdjust="spacing" textLength="77" x="1208" y="669.1191">PackingMap</text><rect fill="#E2E2F0" height="31.6094" rx="2.5" ry="2.5" style="stroke:#181818;stroke-width:0.5;" width="94" x="1302" y="36"/><text fill="#000000" font-family="sans-serif" font-size="14" lengthAdjust="spacing" textLength="80" x="1309" y="57.5332">PackingDTO</text><rect fill="#E2E2F0" height="31.6094" rx="2.5" ry="2.5" style="stroke:#181818;stroke-width:0.5;" width="94" x="1302" y="647.5859"/><text fill="#000000" font-family="sans-serif" font-size="14" lengthAdjust="spacing" textLength="80" x="1309" y="669.1191">PackingDTO</text><text fill="#000000" font-family="sans-serif" font-size="14" lengthAdjust="spacing" textLength="61" x="1406" y="65.5332">Database</text><path d="M1421.5,15 C1421.5,5 1439.5,5 1439.5,5 C1439.5,5 1457.5,5 1457.5,15 L1457.5,41 C1457.5,51 1439.5,51 1439.5,51 C1439.5,51 1421.5,51 1421.5,41 L1421.5,15 " fill="#E2E2F0" style="stroke:#181818;stroke-width:1.5;"/><path d="M1421.5,15 C1421.5,25 1439.5,25 1439.5,25 C1439.5,25 1457.5,25 1457.5,15 " fill="none" style="stroke:#181818;stroke-width:1.5;"/><text fill="#000000" font-family="sans-serif" font-size="14" lengthAdjust="spacing" textLength="61" x="1406" y="662.1191">Database</text><path d="M1421.5,675.1953 C1421.5,665.1953 1439.5,665.1953 1439.5,665.1953 C1439.5,665.1953 1457.5,665.1953 1457.5,675.1953 L1457.5,701.1953 C1457.5,711.1953 1439.5,711.1953 1439.5,711.1953 C1439.5,711.1953 1421.5,711.1953 1421.5,701.1953 L1421.5,675.1953 " fill="#E2E2F0" style="stroke:#181818;stroke-width:1.5;"/><path d="M1421.5,675.1953 C1421.5,685.1953 1439.5,685.1953 1439.5,685.1953 C1439.5,685.1953 1457.5,685.1953 1457.5,675.1953 " fill="none" style="stroke:#181818;stroke-width:1.5;"/><rect fill="#FFFFFF" height="560.9766" style="stroke:#181818;stroke-width:1.0;" width="10" x="229.5" y="78.6094"/><rect fill="#FFFFFF" height="493.9219" style="stroke:#181818;stroke-width:1.0;" width="10" x="358.5" y="136.6641"/><rect fill="#FFFFFF" height="397.5156" style="stroke:#181818;stroke-width:1.0;" width="10" x="482.5" y="202.7188"/><rect fill="#FFFFFF" height="336.8125" style="stroke:#181818;stroke-width:1.0;" width="10" x="611" y="233.0703"/><rect fill="#FFFFFF" height="191.4063" style="stroke:#181818;stroke-width:1.0;" width="10" x="846.5" y="263.4219"/><rect fill="#FFFFFF" height="60.3516" style="stroke:#181818;stroke-width:1.0;" width="10" x="1008.5" y="293.7734"/><rect fill="#FFFFFF" height="30" style="stroke:#181818;stroke-width:1.0;" width="10" x="1241.5" y="409.8281"/><rect fill="#FFFFFF" height="30" style="stroke:#181818;stroke-width:1.0;" width="10" x="1241.5" y="502.5313"/><rect fill="#FFFFFF" height="30" style="stroke:#181818;stroke-width:1.0;" width="10" x="1434.5" y="324.125"/><polygon fill="#181818" points="346.5,132.6641,356.5,136.6641,346.5,140.6641,350.5,136.6641" style="stroke:#181818;stroke-width:1.0;"/><line style="stroke:#181818;stroke-width:1.0;" x1="239.5" x2="352.5" y1="136.6641" y2="136.6641"/><text fill="#000000" font-family="sans-serif" font-size="13" font-weight="bold" lengthAdjust="spacing" textLength="7" x="246.5" y="131.8076">1</text><text fill="#000000" font-family="sans-serif" font-size="13" lengthAdjust="spacing" textLength="84" x="257.5" y="131.8076">get(/Packings)</text><path d="M5,83.6094 L5,174.6094 L225,174.6094 L225,93.6094 L215,83.6094 L5,83.6094 " fill="#FEFFDD" style="stroke:#181818;stroke-width:0.5;"/><path d="M215,83.6094 L215,93.6094 L225,93.6094 L215,83.6094 " fill="#FEFFDD" style="stroke:#181818;stroke-width:0.5;"/><text fill="#000000" font-family="sans-serif" font-size="13" lengthAdjust="spacing" textLength="182" x="11" y="102.1045">Depending on the selected filter</text><text fill="#000000" font-family="sans-serif" font-size="13" lengthAdjust="spacing" textLength="199" x="11" y="118.4561">(DeliveryId, truckPlate) the request</text><text fill="#000000" font-family="sans-serif" font-size="13" lengthAdjust="spacing" textLength="190" x="11" y="134.8076">and the methods will be different,</text><text fill="#000000" font-family="sans-serif" font-size="13" lengthAdjust="spacing" textLength="194" x="11" y="151.1592">changing only the method's name</text><text fill="#000000" font-family="sans-serif" font-size="13" lengthAdjust="spacing" textLength="113" x="11" y="167.5107">and implementation</text><polygon fill="#181818" points="470.5,198.7188,480.5,202.7188,470.5,206.7188,474.5,202.7188" style="stroke:#181818;stroke-width:1.0;"/><line style="stroke:#181818;stroke-width:1.0;" x1="368.5" x2="476.5" y1="202.7188" y2="202.7188"/><text fill="#000000" font-family="sans-serif" font-size="13" font-weight="bold" lengthAdjust="spacing" textLength="7" x="375.5" y="197.8623">2</text><text fill="#000000" font-family="sans-serif" font-size="13" lengthAdjust="spacing" textLength="72" x="386.5" y="197.8623">getPackings</text><polygon fill="#181818" points="599,229.0703,609,233.0703,599,237.0703,603,233.0703" style="stroke:#181818;stroke-width:1.0;"/><line style="stroke:#181818;stroke-width:1.0;" x1="492.5" x2="605" y1="233.0703" y2="233.0703"/><text fill="#000000" font-family="sans-serif" font-size="13" font-weight="bold" lengthAdjust="spacing" textLength="7" x="499.5" y="228.2139">3</text><text fill="#000000" font-family="sans-serif" font-size="13" lengthAdjust="spacing" textLength="72" x="510.5" y="228.2139">getPackings</text><polygon fill="#181818" points="834.5,259.4219,844.5,263.4219,834.5,267.4219,838.5,263.4219" style="stroke:#181818;stroke-width:1.0;"/><line style="stroke:#181818;stroke-width:1.0;" x1="621" x2="840.5" y1="263.4219" y2="263.4219"/><text fill="#000000" font-family="sans-serif" font-size="13" font-weight="bold" lengthAdjust="spacing" textLength="7" x="628" y="258.5654">4</text><text fill="#000000" font-family="sans-serif" font-size="13" lengthAdjust="spacing" textLength="133" x="639" y="258.5654">packingResult = findAll</text><polygon fill="#181818" points="996.5,289.7734,1006.5,293.7734,996.5,297.7734,1000.5,293.7734" style="stroke:#181818;stroke-width:1.0;"/><line style="stroke:#181818;stroke-width:1.0;" x1="856.5" x2="1002.5" y1="293.7734" y2="293.7734"/><text fill="#000000" font-family="sans-serif" font-size="13" font-weight="bold" lengthAdjust="spacing" textLength="7" x="863.5" y="288.917">5</text><text fill="#000000" font-family="sans-serif" font-size="13" lengthAdjust="spacing" textLength="122" x="874.5" y="288.917">packingRecord = find</text><polygon fill="#181818" points="1422.5,320.125,1432.5,324.125,1422.5,328.125,1426.5,324.125" style="stroke:#181818;stroke-width:1.0;"/><line style="stroke:#181818;stroke-width:1.0;" x1="1018.5" x2="1428.5" y1="324.125" y2="324.125"/><text fill="#000000" font-family="sans-serif" font-size="13" font-weight="bold" lengthAdjust="spacing" textLength="7" x="1025.5" y="319.2686">6</text><text fill="#000000" font-family="sans-serif" font-size="13" lengthAdjust="spacing" textLength="20" x="1036.5" y="319.2686">find</text><path d="M792.5,369.125 L865.5,369.125 L865.5,377.4766 L855.5,387.4766 L792.5,387.4766 L792.5,369.125 " fill="#EEEEEE" style="stroke:#000000;stroke-width:1.5;"/><rect fill="none" height="78.7031" style="stroke:#000000;stroke-width:1.5;" width="509.5" x="792.5" y="369.125"/><text fill="#000000" font-family="sans-serif" font-size="13" font-weight="bold" lengthAdjust="spacing" textLength="28" x="807.5" y="383.6201">loop</text><text fill="#000000" font-family="sans-serif" font-size="11" font-weight="bold" lengthAdjust="spacing" textLength="145" x="880.5" y="382.5439">[element : packingRecord]</text><polygon fill="#181818" points="1229.5,405.8281,1239.5,409.8281,1229.5,413.8281,1233.5,409.8281" style="stroke:#181818;stroke-width:1.0;"/><line style="stroke:#181818;stroke-width:1.0;" x1="856.5" x2="1235.5" y1="409.8281" y2="409.8281"/><text fill="#000000" font-family="sans-serif" font-size="13" font-weight="bold" lengthAdjust="spacing" textLength="7" x="863.5" y="404.9717">7</text><text fill="#000000" font-family="sans-serif" font-size="13" lengthAdjust="spacing" textLength="55" x="874.5" y="404.9717">toDomain</text><path d="M550.5,461.8281 L623.5,461.8281 L623.5,470.1797 L613.5,480.1797 L550.5,480.1797 L550.5,461.8281 " fill="#EEEEEE" style="stroke:#000000;stroke-width:1.5;"/><rect fill="none" height="78.7031" style="stroke:#000000;stroke-width:1.5;" width="751.5" x="550.5" y="461.8281"/><text fill="#000000" font-family="sans-serif" font-size="13" font-weight="bold" lengthAdjust="spacing" textLength="28" x="565.5" y="476.3232">loop</text><text fill="#000000" font-family="sans-serif" font-size="11" font-weight="bold" lengthAdjust="spacing" textLength="121" x="638.5" y="475.2471">[linha : packingResult]</text><polygon fill="#181818" points="1229.5,498.5313,1239.5,502.5313,1229.5,506.5313,1233.5,502.5313" style="stroke:#181818;stroke-width:1.0;"/><line style="stroke:#181818;stroke-width:1.0;" x1="621" x2="1235.5" y1="502.5313" y2="502.5313"/><text fill="#000000" font-family="sans-serif" font-size="13" font-weight="bold" lengthAdjust="spacing" textLength="7" x="628" y="497.6748">8</text><text fill="#000000" font-family="sans-serif" font-size="13" lengthAdjust="spacing" textLength="37" x="639" y="497.6748">toDTO</text><polygon fill="#181818" points="503.5,565.8828,493.5,569.8828,503.5,573.8828,499.5,569.8828" style="stroke:#181818;stroke-width:1.0;"/><line style="stroke:#181818;stroke-width:1.0;stroke-dasharray:2.0,2.0;" x1="497.5" x2="615" y1="569.8828" y2="569.8828"/><text fill="#000000" font-family="sans-serif" font-size="13" font-weight="bold" lengthAdjust="spacing" textLength="7" x="509.5" y="565.0264">9</text><text fill="#000000" font-family="sans-serif" font-size="13" lengthAdjust="spacing" textLength="4" x="520.5" y="565.0264"> </text><polygon fill="#181818" points="379.5,596.2344,369.5,600.2344,379.5,604.2344,375.5,600.2344" style="stroke:#181818;stroke-width:1.0;"/><line style="stroke:#181818;stroke-width:1.0;stroke-dasharray:2.0,2.0;" x1="373.5" x2="486.5" y1="600.2344" y2="600.2344"/><text fill="#000000" font-family="sans-serif" font-size="13" font-weight="bold" lengthAdjust="spacing" textLength="14" x="385.5" y="595.3779">10</text><text fill="#000000" font-family="sans-serif" font-size="13" lengthAdjust="spacing" textLength="61" x="403.5" y="595.3779">status 200</text><polygon fill="#181818" points="250.5,626.5859,240.5,630.5859,250.5,634.5859,246.5,630.5859" style="stroke:#181818;stroke-width:1.0;"/><line style="stroke:#181818;stroke-width:1.0;stroke-dasharray:2.0,2.0;" x1="244.5" x2="362.5" y1="630.5859" y2="630.5859"/><text fill="#000000" font-family="sans-serif" font-size="13" font-weight="bold" lengthAdjust="spacing" textLength="14" x="256.5" y="625.7295">11</text><text fill="#000000" font-family="sans-serif" font-size="13" lengthAdjust="spacing" textLength="77" x="274.5" y="625.7295">displays data</text><!--MD5=[a38230fb1992091a6dfdc3e5ef5e7716]
@startuml

autonumber
participant "MDL" as MDL
participant "PackingRoute" as ROUTE
participant "PackingController" as CTR
participant "PackingService" as SERVICE
participant "PackingsResult" as Result
participant "PackingRepo" as REPO
participant "PackingSchema" as SCHEMA
participant "PackingRecord" as RECORD
participant "PackingMap" as MAP
participant "PackingDTO" as DTO
database "Database" as DB


activate MDL
MDL -> ROUTE : get(/Packings)
activate ROUTE
note left
  Depending on the selected filter 
  (DeliveryId, truckPlate) the request
  and the methods will be different, 
  changing only the method's name
  and implementation
end note
ROUTE -> CTR : getPackings
activate CTR
CTR -> SERVICE : getPackings
activate SERVICE
SERVICE -> REPO : packingResult = findAll
activate REPO
REPO -> SCHEMA : packingRecord = find
activate SCHEMA
SCHEMA -> DB : find
activate DB
deactivate DB
deactivate SCHEMA
loop element : packingRecord
REPO -> MAP : toDomain
activate MAP
deactivate MAP
end
deactivate REPO

loop linha : packingResult
SERVICE -> MAP : toDTO
activate MAP
deactivate MAP
end
SERVICE - -> CTR
deactivate SERVICE
CTR - -> ROUTE : status 200
deactivate CTR
ROUTE - -> MDL : displays data
deactivate ROUTE

@enduml

PlantUML version 1.2022.7(Mon Aug 22 18:01:30 WEST 2022)
(GPL source distribution)
Java Runtime: Java(TM) SE Runtime Environment
JVM: Java HotSpot(TM) 64-Bit Server VM
Default Encoding: Cp1252
Language: pt
Country: PT
--></g></svg>