<?xml version="1.0" encoding="UTF-8" standalone="no"?><svg xmlns="http://www.w3.org/2000/svg" xmlns:xlink="http://www.w3.org/1999/xlink" contentStyleType="text/css" height="961px" preserveAspectRatio="none" style="width:1305px;height:961px;background:#FFFFFF;" version="1.1" viewBox="0 0 1305 961" width="1305px" zoomAndPan="magnify"><defs/><g><rect fill="#FFFFFF" height="794.0313" style="stroke:#181818;stroke-width:1.0;" width="10" x="36.5" y="78.6094"/><rect fill="#FFFFFF" height="755.6797" style="stroke:#181818;stroke-width:1.0;" width="10" x="239.5" y="100.9609"/><rect fill="#FFFFFF" height="694.9766" style="stroke:#181818;stroke-width:1.0;" width="10" x="352.5" y="131.3125"/><rect fill="#FFFFFF" height="546.2188" style="stroke:#181818;stroke-width:1.0;" width="10" x="460" y="161.6641"/><rect fill="#FFFFFF" height="30" style="stroke:#181818;stroke-width:1.0;" width="10" x="650" y="192.0156"/><rect fill="#FFFFFF" height="304.4609" style="stroke:#181818;stroke-width:1.0;" width="10" x="650" y="312.7188"/><rect fill="#FFFFFF" height="30" style="stroke:#181818;stroke-width:1.0;" width="10" x="834" y="343.0703"/><rect fill="#FFFFFF" height="55.7031" style="stroke:#181818;stroke-width:1.0;" width="10" x="926" y="403.4219"/><rect fill="#FFFFFF" height="30" style="stroke:#181818;stroke-width:1.0;" width="10" x="1007.5" y="647.5313"/><rect fill="#FFFFFF" height="30" style="stroke:#181818;stroke-width:1.0;" width="10" x="1087.5" y="556.8281"/><rect fill="#FFFFFF" height="30" style="stroke:#181818;stroke-width:1.0;" width="10" x="1154.5" y="252.3672"/><rect fill="#FFFFFF" height="30" style="stroke:#181818;stroke-width:1.0;" width="10" x="1241" y="496.4766"/><rect fill="none" height="48.7031" style="stroke:#000000;stroke-width:1.5;" width="369.5" x="606.5" y="418.4219"/><rect fill="none" height="141.7578" style="stroke:#000000;stroke-width:1.5;" width="410" x="10" y="722.8828"/><line style="stroke:#181818;stroke-width:0.5;stroke-dasharray:5.0,5.0;" x1="41" x2="41" y1="68.6094" y2="881.6406"/><line style="stroke:#181818;stroke-width:0.5;stroke-dasharray:5.0,5.0;" x1="244" x2="244" y1="68.6094" y2="881.6406"/><line style="stroke:#181818;stroke-width:0.5;stroke-dasharray:5.0,5.0;" x1="357" x2="357" y1="68.6094" y2="881.6406"/><line style="stroke:#181818;stroke-width:0.5;stroke-dasharray:5.0,5.0;" x1="465" x2="465" y1="68.6094" y2="881.6406"/><line style="stroke:#181818;stroke-width:0.5;stroke-dasharray:5.0,5.0;" x1="541" x2="541" y1="68.6094" y2="881.6406"/><line style="stroke:#181818;stroke-width:0.5;stroke-dasharray:5.0,5.0;" x1="654.5" x2="654.5" y1="68.6094" y2="881.6406"/><line style="stroke:#181818;stroke-width:0.5;stroke-dasharray:5.0,5.0;" x1="839" x2="839" y1="68.6094" y2="881.6406"/><line style="stroke:#181818;stroke-width:0.5;stroke-dasharray:5.0,5.0;" x1="931" x2="931" y1="68.6094" y2="881.6406"/><line style="stroke:#181818;stroke-width:0.5;stroke-dasharray:5.0,5.0;" x1="1012" x2="1012" y1="68.6094" y2="881.6406"/><line style="stroke:#181818;stroke-width:0.5;stroke-dasharray:5.0,5.0;" x1="1092" x2="1092" y1="68.6094" y2="881.6406"/><line style="stroke:#181818;stroke-width:0.5;stroke-dasharray:5.0,5.0;" x1="1159" x2="1159" y1="68.6094" y2="881.6406"/><line style="stroke:#181818;stroke-width:0.5;stroke-dasharray:5.0,5.0;" x1="1246" x2="1246" y1="68.6094" y2="881.6406"/><rect fill="#E2E2F0" height="31.6094" rx="2.5" ry="2.5" style="stroke:#181818;stroke-width:0.5;" width="43" x="20" y="36"/><text fill="#000000" font-family="sans-serif" font-size="14" lengthAdjust="spacing" textLength="29" x="27" y="57.5332">MDL</text><rect fill="#E2E2F0" height="31.6094" rx="2.5" ry="2.5" style="stroke:#181818;stroke-width:0.5;" width="43" x="20" y="880.6406"/><text fill="#000000" font-family="sans-serif" font-size="14" lengthAdjust="spacing" textLength="29" x="27" y="902.1738">MDL</text><rect fill="#E2E2F0" height="31.6094" rx="2.5" ry="2.5" style="stroke:#181818;stroke-width:0.5;" width="81" x="204" y="36"/><text fill="#000000" font-family="sans-serif" font-size="14" lengthAdjust="spacing" textLength="67" x="211" y="57.5332">PathRoute</text><rect fill="#E2E2F0" height="31.6094" rx="2.5" ry="2.5" style="stroke:#181818;stroke-width:0.5;" width="81" x="204" y="880.6406"/><text fill="#000000" font-family="sans-serif" font-size="14" lengthAdjust="spacing" textLength="67" x="211" y="902.1738">PathRoute</text><rect fill="#E2E2F0" height="31.6094" rx="2.5" ry="2.5" style="stroke:#181818;stroke-width:0.5;" width="105" x="305" y="36"/><text fill="#000000" font-family="sans-serif" font-size="14" lengthAdjust="spacing" textLength="91" x="312" y="57.5332">PathController</text><rect fill="#E2E2F0" height="31.6094" rx="2.5" ry="2.5" style="stroke:#181818;stroke-width:0.5;" width="105" x="305" y="880.6406"/><text fill="#000000" font-family="sans-serif" font-size="14" lengthAdjust="spacing" textLength="91" x="312" y="902.1738">PathController</text><rect fill="#E2E2F0" height="31.6094" rx="2.5" ry="2.5" style="stroke:#181818;stroke-width:0.5;" width="90" x="420" y="36"/><text fill="#000000" font-family="sans-serif" font-size="14" lengthAdjust="spacing" textLength="76" x="427" y="57.5332">PathService</text><rect fill="#E2E2F0" height="31.6094" rx="2.5" ry="2.5" style="stroke:#181818;stroke-width:0.5;" width="90" x="420" y="880.6406"/><text fill="#000000" font-family="sans-serif" font-size="14" lengthAdjust="spacing" textLength="76" x="427" y="902.1738">PathService</text><rect fill="#E2E2F0" height="31.6094" rx="2.5" ry="2.5" style="stroke:#181818;stroke-width:0.5;" width="43" x="520" y="36"/><text fill="#000000" font-family="sans-serif" font-size="14" lengthAdjust="spacing" textLength="29" x="527" y="57.5332">Path</text><rect fill="#E2E2F0" height="31.6094" rx="2.5" ry="2.5" style="stroke:#181818;stroke-width:0.5;" width="43" x="520" y="880.6406"/><text fill="#000000" font-family="sans-serif" font-size="14" lengthAdjust="spacing" textLength="29" x="527" y="902.1738">Path</text><rect fill="#E2E2F0" height="31.6094" rx="2.5" ry="2.5" style="stroke:#181818;stroke-width:0.5;" width="77" x="616.5" y="36"/><text fill="#000000" font-family="sans-serif" font-size="14" lengthAdjust="spacing" textLength="63" x="623.5" y="57.5332">PathRepo</text><rect fill="#E2E2F0" height="31.6094" rx="2.5" ry="2.5" style="stroke:#181818;stroke-width:0.5;" width="77" x="616.5" y="880.6406"/><text fill="#000000" font-family="sans-serif" font-size="14" lengthAdjust="spacing" textLength="63" x="623.5" y="902.1738">PathRepo</text><rect fill="#E2E2F0" height="31.6094" rx="2.5" ry="2.5" style="stroke:#181818;stroke-width:0.5;" width="94" x="792" y="36"/><text fill="#000000" font-family="sans-serif" font-size="14" lengthAdjust="spacing" textLength="80" x="799" y="57.5332">PathSchema</text><rect fill="#E2E2F0" height="31.6094" rx="2.5" ry="2.5" style="stroke:#181818;stroke-width:0.5;" width="94" x="792" y="880.6406"/><text fill="#000000" font-family="sans-serif" font-size="14" lengthAdjust="spacing" textLength="80" x="799" y="902.1738">PathSchema</text><rect fill="#E2E2F0" height="31.6094" rx="2.5" ry="2.5" style="stroke:#181818;stroke-width:0.5;" width="70" x="896" y="36"/><text fill="#000000" font-family="sans-serif" font-size="14" lengthAdjust="spacing" textLength="56" x="903" y="57.5332">PathMap</text><rect fill="#E2E2F0" height="31.6094" rx="2.5" ry="2.5" style="stroke:#181818;stroke-width:0.5;" width="70" x="896" y="880.6406"/><text fill="#000000" font-family="sans-serif" font-size="14" lengthAdjust="spacing" textLength="56" x="903" y="902.1738">PathMap</text><rect fill="#E2E2F0" height="31.6094" rx="2.5" ry="2.5" style="stroke:#181818;stroke-width:0.5;" width="73" x="976" y="36"/><text fill="#000000" font-family="sans-serif" font-size="14" lengthAdjust="spacing" textLength="59" x="983" y="57.5332">PathDTO</text><rect fill="#E2E2F0" height="31.6094" rx="2.5" ry="2.5" style="stroke:#181818;stroke-width:0.5;" width="73" x="976" y="880.6406"/><text fill="#000000" font-family="sans-serif" font-size="14" lengthAdjust="spacing" textLength="59" x="983" y="902.1738">PathDTO</text><text fill="#000000" font-family="sans-serif" font-size="14" lengthAdjust="spacing" textLength="61" x="1059" y="65.5332">Database</text><path d="M1074.5,15 C1074.5,5 1092.5,5 1092.5,5 C1092.5,5 1110.5,5 1110.5,15 L1110.5,41 C1110.5,51 1092.5,51 1092.5,51 C1092.5,51 1074.5,51 1074.5,41 L1074.5,15 " fill="#E2E2F0" style="stroke:#181818;stroke-width:1.5;"/><path d="M1074.5,15 C1074.5,25 1092.5,25 1092.5,25 C1092.5,25 1110.5,25 1110.5,15 " fill="none" style="stroke:#181818;stroke-width:1.5;"/><text fill="#000000" font-family="sans-serif" font-size="14" lengthAdjust="spacing" textLength="61" x="1059" y="895.1738">Database</text><path d="M1074.5,908.25 C1074.5,898.25 1092.5,898.25 1092.5,898.25 C1092.5,898.25 1110.5,898.25 1110.5,908.25 L1110.5,934.25 C1110.5,944.25 1092.5,944.25 1092.5,944.25 C1092.5,944.25 1074.5,944.25 1074.5,934.25 L1074.5,908.25 " fill="#E2E2F0" style="stroke:#181818;stroke-width:1.5;"/><path d="M1074.5,908.25 C1074.5,918.25 1092.5,918.25 1092.5,918.25 C1092.5,918.25 1110.5,918.25 1110.5,908.25 " fill="none" style="stroke:#181818;stroke-width:1.5;"/><rect fill="#E2E2F0" height="49.2188" rx="2.5" ry="2.5" style="stroke:#181818;stroke-width:0.5;" width="47" x="1136" y="18.3906"/><text fill="#000000" font-family="sans-serif" font-size="14" lengthAdjust="spacing" textLength="28" x="1145.5" y="39.9238">path</text><text fill="#000000" font-family="sans-serif" font-size="14" lengthAdjust="spacing" textLength="33" x="1143" y="57.5332">:Path</text><rect fill="#E2E2F0" height="49.2188" rx="2.5" ry="2.5" style="stroke:#181818;stroke-width:0.5;" width="47" x="1136" y="880.6406"/><text fill="#000000" font-family="sans-serif" font-size="14" lengthAdjust="spacing" textLength="28" x="1145.5" y="902.1738">path</text><text fill="#000000" font-family="sans-serif" font-size="14" lengthAdjust="spacing" textLength="33" x="1143" y="919.7832">:Path</text><rect fill="#E2E2F0" height="31.6094" rx="2.5" ry="2.5" style="stroke:#181818;stroke-width:0.5;" width="106" x="1193" y="36"/><text fill="#000000" font-family="sans-serif" font-size="14" lengthAdjust="spacing" textLength="92" x="1200" y="57.5332">pathDocument</text><rect fill="#E2E2F0" height="31.6094" rx="2.5" ry="2.5" style="stroke:#181818;stroke-width:0.5;" width="106" x="1193" y="880.6406"/><text fill="#000000" font-family="sans-serif" font-size="14" lengthAdjust="spacing" textLength="92" x="1200" y="902.1738">pathDocument</text><rect fill="#FFFFFF" height="794.0313" style="stroke:#181818;stroke-width:1.0;" width="10" x="36.5" y="78.6094"/><rect fill="#FFFFFF" height="755.6797" style="stroke:#181818;stroke-width:1.0;" width="10" x="239.5" y="100.9609"/><rect fill="#FFFFFF" height="694.9766" style="stroke:#181818;stroke-width:1.0;" width="10" x="352.5" y="131.3125"/><rect fill="#FFFFFF" height="546.2188" style="stroke:#181818;stroke-width:1.0;" width="10" x="460" y="161.6641"/><rect fill="#FFFFFF" height="30" style="stroke:#181818;stroke-width:1.0;" width="10" x="650" y="192.0156"/><rect fill="#FFFFFF" height="304.4609" style="stroke:#181818;stroke-width:1.0;" width="10" x="650" y="312.7188"/><rect fill="#FFFFFF" height="30" style="stroke:#181818;stroke-width:1.0;" width="10" x="834" y="343.0703"/><rect fill="#FFFFFF" height="55.7031" style="stroke:#181818;stroke-width:1.0;" width="10" x="926" y="403.4219"/><rect fill="#FFFFFF" height="30" style="stroke:#181818;stroke-width:1.0;" width="10" x="1007.5" y="647.5313"/><rect fill="#FFFFFF" height="30" style="stroke:#181818;stroke-width:1.0;" width="10" x="1087.5" y="556.8281"/><rect fill="#FFFFFF" height="30" style="stroke:#181818;stroke-width:1.0;" width="10" x="1154.5" y="252.3672"/><rect fill="#FFFFFF" height="30" style="stroke:#181818;stroke-width:1.0;" width="10" x="1241" y="496.4766"/><polygon fill="#181818" points="227.5,96.9609,237.5,100.9609,227.5,104.9609,231.5,100.9609" style="stroke:#181818;stroke-width:1.0;"/><line style="stroke:#181818;stroke-width:1.0;" x1="46.5" x2="233.5" y1="100.9609" y2="100.9609"/><text fill="#000000" font-family="sans-serif" font-size="13" font-weight="bold" lengthAdjust="spacing" textLength="7" x="53.5" y="96.1045">1</text><text fill="#000000" font-family="sans-serif" font-size="13" lengthAdjust="spacing" textLength="64" x="64.5" y="96.1045">put(/Paths)</text><polygon fill="#181818" points="340.5,127.3125,350.5,131.3125,340.5,135.3125,344.5,131.3125" style="stroke:#181818;stroke-width:1.0;"/><line style="stroke:#181818;stroke-width:1.0;" x1="249.5" x2="346.5" y1="131.3125" y2="131.3125"/><text fill="#000000" font-family="sans-serif" font-size="13" font-weight="bold" lengthAdjust="spacing" textLength="7" x="256.5" y="126.4561">2</text><text fill="#000000" font-family="sans-serif" font-size="13" lengthAdjust="spacing" textLength="66" x="267.5" y="126.4561">updatePath</text><polygon fill="#181818" points="448,157.6641,458,161.6641,448,165.6641,452,161.6641" style="stroke:#181818;stroke-width:1.0;"/><line style="stroke:#181818;stroke-width:1.0;" x1="362.5" x2="454" y1="161.6641" y2="161.6641"/><text fill="#000000" font-family="sans-serif" font-size="13" font-weight="bold" lengthAdjust="spacing" textLength="7" x="369.5" y="156.8076">3</text><text fill="#000000" font-family="sans-serif" font-size="13" lengthAdjust="spacing" textLength="66" x="380.5" y="156.8076">updatePath</text><polygon fill="#181818" points="638,188.0156,648,192.0156,638,196.0156,642,192.0156" style="stroke:#181818;stroke-width:1.0;"/><line style="stroke:#181818;stroke-width:1.0;" x1="470" x2="644" y1="192.0156" y2="192.0156"/><text fill="#000000" font-family="sans-serif" font-size="13" font-weight="bold" lengthAdjust="spacing" textLength="7" x="477" y="187.1592">4</text><text fill="#000000" font-family="sans-serif" font-size="13" lengthAdjust="spacing" textLength="150" x="488" y="187.1592">path = findByWarehouses</text><polygon fill="#181818" points="1142.5,248.3672,1152.5,252.3672,1142.5,256.3672,1146.5,252.3672" style="stroke:#181818;stroke-width:1.0;"/><line style="stroke:#181818;stroke-width:1.0;" x1="470" x2="1148.5" y1="252.3672" y2="252.3672"/><text fill="#000000" font-family="sans-serif" font-size="13" font-weight="bold" lengthAdjust="spacing" textLength="7" x="477" y="247.5107">5</text><text fill="#000000" font-family="sans-serif" font-size="13" lengthAdjust="spacing" textLength="75" x="488" y="247.5107">updates data</text><polygon fill="#181818" points="638,308.7188,648,312.7188,638,316.7188,642,312.7188" style="stroke:#181818;stroke-width:1.0;"/><line style="stroke:#181818;stroke-width:1.0;" x1="470" x2="644" y1="312.7188" y2="312.7188"/><text fill="#000000" font-family="sans-serif" font-size="13" font-weight="bold" lengthAdjust="spacing" textLength="7" x="477" y="307.8623">6</text><text fill="#000000" font-family="sans-serif" font-size="13" lengthAdjust="spacing" textLength="26" x="488" y="307.8623">save</text><polygon fill="#181818" points="822,339.0703,832,343.0703,822,347.0703,826,343.0703" style="stroke:#181818;stroke-width:1.0;"/><line style="stroke:#181818;stroke-width:1.0;" x1="660" x2="828" y1="343.0703" y2="343.0703"/><text fill="#000000" font-family="sans-serif" font-size="13" font-weight="bold" lengthAdjust="spacing" textLength="7" x="667" y="338.2139">7</text><text fill="#000000" font-family="sans-serif" font-size="13" lengthAdjust="spacing" textLength="144" x="678" y="338.2139">pathDocument = findOne</text><polygon fill="#181818" points="914,399.4219,924,403.4219,914,407.4219,918,403.4219" style="stroke:#181818;stroke-width:1.0;"/><line style="stroke:#181818;stroke-width:1.0;" x1="660" x2="920" y1="403.4219" y2="403.4219"/><text fill="#000000" font-family="sans-serif" font-size="13" font-weight="bold" lengthAdjust="spacing" textLength="7" x="667" y="398.5654">8</text><text fill="#000000" font-family="sans-serif" font-size="13" lengthAdjust="spacing" textLength="39" x="678" y="398.5654">isValid</text><path d="M606.5,418.4219 L667.5,418.4219 L667.5,426.7734 L657.5,436.7734 L606.5,436.7734 L606.5,418.4219 " fill="#EEEEEE" style="stroke:#000000;stroke-width:1.5;"/><rect fill="none" height="48.7031" style="stroke:#000000;stroke-width:1.5;" width="369.5" x="606.5" y="418.4219"/><text fill="#000000" font-family="sans-serif" font-size="13" font-weight="bold" lengthAdjust="spacing" textLength="16" x="621.5" y="432.917">alt</text><text fill="#000000" font-family="sans-serif" font-size="11" font-weight="bold" lengthAdjust="spacing" textLength="48" x="682.5" y="431.8408">[!isValid]</text><polygon fill="#181818" points="671,455.125,661,459.125,671,463.125,667,459.125" style="stroke:#181818;stroke-width:1.0;"/><line style="stroke:#181818;stroke-width:1.0;stroke-dasharray:2.0,2.0;" x1="665" x2="930" y1="459.125" y2="459.125"/><text fill="#000000" font-family="sans-serif" font-size="13" font-weight="bold" lengthAdjust="spacing" textLength="7" x="677" y="454.2686">9</text><text fill="#000000" font-family="sans-serif" font-size="13" lengthAdjust="spacing" textLength="20" x="688" y="454.2686">null</text><polygon fill="#181818" points="1229,492.4766,1239,496.4766,1229,500.4766,1233,496.4766" style="stroke:#181818;stroke-width:1.0;"/><line style="stroke:#181818;stroke-width:1.0;" x1="660" x2="1235" y1="496.4766" y2="496.4766"/><text fill="#000000" font-family="sans-serif" font-size="13" font-weight="bold" lengthAdjust="spacing" textLength="14" x="667" y="491.6201">10</text><text fill="#000000" font-family="sans-serif" font-size="13" lengthAdjust="spacing" textLength="75" x="685" y="491.6201">updates data</text><polygon fill="#181818" points="1075.5,552.8281,1085.5,556.8281,1075.5,560.8281,1079.5,556.8281" style="stroke:#181818;stroke-width:1.0;"/><line style="stroke:#181818;stroke-width:1.0;" x1="660" x2="1081.5" y1="556.8281" y2="556.8281"/><text fill="#000000" font-family="sans-serif" font-size="13" font-weight="bold" lengthAdjust="spacing" textLength="14" x="667" y="551.9717">11</text><text fill="#000000" font-family="sans-serif" font-size="13" lengthAdjust="spacing" textLength="26" x="685" y="551.9717">save</text><polygon fill="#181818" points="481,613.1797,471,617.1797,481,621.1797,477,617.1797" style="stroke:#181818;stroke-width:1.0;"/><line style="stroke:#181818;stroke-width:1.0;stroke-dasharray:2.0,2.0;" x1="475" x2="654" y1="617.1797" y2="617.1797"/><text fill="#000000" font-family="sans-serif" font-size="13" font-weight="bold" lengthAdjust="spacing" textLength="14" x="487" y="612.3232">12</text><text fill="#000000" font-family="sans-serif" font-size="13" lengthAdjust="spacing" textLength="4" x="505" y="612.3232"> </text><polygon fill="#181818" points="995.5,643.5313,1005.5,647.5313,995.5,651.5313,999.5,647.5313" style="stroke:#181818;stroke-width:1.0;"/><line style="stroke:#181818;stroke-width:1.0;" x1="470" x2="1001.5" y1="647.5313" y2="647.5313"/><text fill="#000000" font-family="sans-serif" font-size="13" font-weight="bold" lengthAdjust="spacing" textLength="14" x="477" y="642.6748">13</text><text fill="#000000" font-family="sans-serif" font-size="13" lengthAdjust="spacing" textLength="37" x="495" y="642.6748">toDTO</text><polygon fill="#181818" points="373.5,703.8828,363.5,707.8828,373.5,711.8828,369.5,707.8828" style="stroke:#181818;stroke-width:1.0;"/><line style="stroke:#181818;stroke-width:1.0;stroke-dasharray:2.0,2.0;" x1="367.5" x2="464" y1="707.8828" y2="707.8828"/><text fill="#000000" font-family="sans-serif" font-size="13" font-weight="bold" lengthAdjust="spacing" textLength="14" x="379.5" y="703.0264">14</text><text fill="#000000" font-family="sans-serif" font-size="13" lengthAdjust="spacing" textLength="4" x="397.5" y="703.0264"> </text><path d="M10,722.8828 L71,722.8828 L71,731.2344 L61,741.2344 L10,741.2344 L10,722.8828 " fill="#EEEEEE" style="stroke:#000000;stroke-width:1.5;"/><rect fill="none" height="141.7578" style="stroke:#000000;stroke-width:1.5;" width="410" x="10" y="722.8828"/><text fill="#000000" font-family="sans-serif" font-size="13" font-weight="bold" lengthAdjust="spacing" textLength="16" x="25" y="737.3779">alt</text><text fill="#000000" font-family="sans-serif" font-size="11" font-weight="bold" lengthAdjust="spacing" textLength="55" x="86" y="736.3018">[success]</text><polygon fill="#181818" points="260.5,759.5859,250.5,763.5859,260.5,767.5859,256.5,763.5859" style="stroke:#181818;stroke-width:1.0;"/><line style="stroke:#181818;stroke-width:1.0;stroke-dasharray:2.0,2.0;" x1="254.5" x2="351.5" y1="763.5859" y2="763.5859"/><text fill="#000000" font-family="sans-serif" font-size="13" font-weight="bold" lengthAdjust="spacing" textLength="14" x="266.5" y="758.7295">15</text><text fill="#000000" font-family="sans-serif" font-size="13" lengthAdjust="spacing" textLength="61" x="284.5" y="758.7295">status 200</text><polygon fill="#181818" points="57.5,789.9375,47.5,793.9375,57.5,797.9375,53.5,793.9375" style="stroke:#181818;stroke-width:1.0;"/><line style="stroke:#181818;stroke-width:1.0;stroke-dasharray:2.0,2.0;" x1="51.5" x2="238.5" y1="793.9375" y2="793.9375"/><text fill="#000000" font-family="sans-serif" font-size="13" font-weight="bold" lengthAdjust="spacing" textLength="14" x="63.5" y="789.0811">16</text><text fill="#000000" font-family="sans-serif" font-size="13" lengthAdjust="spacing" textLength="151" x="81.5" y="789.0811">display success message</text><line style="stroke:#000000;stroke-width:1.0;stroke-dasharray:2.0,2.0;" x1="10" x2="420" y1="802.9375" y2="802.9375"/><polygon fill="#181818" points="260.5,822.2891,250.5,826.2891,260.5,830.2891,256.5,826.2891" style="stroke:#181818;stroke-width:1.0;"/><line style="stroke:#181818;stroke-width:1.0;stroke-dasharray:2.0,2.0;" x1="254.5" x2="356.5" y1="826.2891" y2="826.2891"/><text fill="#000000" font-family="sans-serif" font-size="13" font-weight="bold" lengthAdjust="spacing" textLength="14" x="266.5" y="821.4326">17</text><text fill="#000000" font-family="sans-serif" font-size="13" lengthAdjust="spacing" textLength="61" x="284.5" y="821.4326">status 400</text><polygon fill="#181818" points="57.5,852.6406,47.5,856.6406,57.5,860.6406,53.5,856.6406" style="stroke:#181818;stroke-width:1.0;"/><line style="stroke:#181818;stroke-width:1.0;stroke-dasharray:2.0,2.0;" x1="51.5" x2="243.5" y1="856.6406" y2="856.6406"/><text fill="#000000" font-family="sans-serif" font-size="13" font-weight="bold" lengthAdjust="spacing" textLength="14" x="63.5" y="851.7842">18</text><text fill="#000000" font-family="sans-serif" font-size="13" lengthAdjust="spacing" textLength="136" x="81.5" y="851.7842">display failure message</text><!--MD5=[01608653809b6b497e519d4495947703]
@startuml

autonumber
participant "MDL" as MDL
participant "PathRoute" as ROUTE
participant "PathController" as CTR
participant "PathService" as SERVICE
participant "Path" as Path
participant "PathRepo" as REPO
participant "PathSchema" as SCHEMA
participant "PathMap" as MAP
participant "PathDTO" as DTO
database "Database" as DB
participant "path\n:Path" as path
participant "pathDocument" as DOC

activate MDL
MDL -> ROUTE: put(/Paths)
activate ROUTE
ROUTE -> CTR : updatePath
activate CTR
CTR -> SERVICE : updatePath
activate SERVICE
SERVICE -> REPO : path = findByWarehouses
activate REPO
deactivate REPO
SERVICE -> path : updates data
activate path
deactivate path
SERVICE -> REPO : save
activate REPO
REPO -> SCHEMA : pathDocument = findOne
activate SCHEMA
deactivate SCHEMA
REPO -> MAP : isValid
activate MAP
alt !isValid
MAP - -> REPO: null
deactivate MAP
end
deactivate MAP
REPO -> DOC : updates data
activate DOC
deactivate DOC
REPO -> DB : save
activate DB
deactivate DB 
REPO - -> SERVICE
deactivate REPO
SERVICE -> DTO : toDTO
activate DTO
deactivate DTO
SERVICE - -> CTR
deactivate SERVICE
alt success
CTR - -> ROUTE : status 200
ROUTE - -> MDL : display success message
else
CTR - -> ROUTE : status 400
deactivate CTR
ROUTE - -> MDL : display failure message
deactivate ROUTE
end

@enduml

PlantUML version 1.2022.7(Mon Aug 22 18:01:30 WEST 2022)
(GPL source distribution)
Java Runtime: Java(TM) SE Runtime Environment
JVM: Java HotSpot(TM) 64-Bit Server VM
Default Encoding: Cp1252
Language: pt
Country: PT
--></g></svg>